<svg width="187" height="154" viewBox="0 0 187 154" fill="none" xmlns="http://www.w3.org/2000/svg">
<mask id="mask0_32_2444" style="mask-type:luminance" maskUnits="userSpaceOnUse" x="0" y="0" width="187" height="154">
<path d="M186.57 0.640625H0.80957V153.971H186.57V0.640625Z" fill="white"/>
</mask>
<g mask="url(#mask0_32_2444)">
<path d="M33.1096 142.24C32.7896 141.86 32.4996 141.46 32.1896 141.08C31.8896 140.7 31.5797 140.32 31.2797 139.94C30.7897 139.31 30.3296 138.67 29.8596 138.04C29.6096 137.7 29.3496 137.36 29.1096 137.01C29.0596 136.93 28.9996 136.86 28.9396 136.78C28.7696 136.53 28.6096 136.28 28.4396 136.03C27.8396 135.16 27.2496 134.28 26.6896 133.4C26.4196 132.98 26.1597 132.55 25.9097 132.13C25.4197 131.33 24.9396 130.52 24.4796 129.71C24.3396 129.46 24.1797 129.22 24.0397 128.97C23.8997 128.72 23.7797 128.47 23.6497 128.23C23.4097 127.79 23.1796 127.35 22.9496 126.91C22.6296 126.3 22.3297 125.69 22.0297 125.07C21.8097 124.63 21.5996 124.18 21.3896 123.74C21.0996 123.12 20.8196 122.49 20.5496 121.86C20.3596 121.42 20.1696 120.99 19.9796 120.55C19.7096 119.89 19.4496 119.24 19.1996 118.58C19.0396 118.17 18.8696 117.75 18.7196 117.34C18.4496 116.6 18.1996 115.86 17.9496 115.11C17.8396 114.77 17.7196 114.44 17.6096 114.1C17.2596 113.02 16.9396 111.94 16.6396 110.85C16.6096 110.73 16.5796 110.6 16.5496 110.48C16.2896 109.52 16.0496 108.55 15.8296 107.58C15.7396 107.2 15.6696 106.83 15.5896 106.45C15.4696 105.87 15.3296 105.28 15.2196 104.7C15.1996 104.6 15.1896 104.49 15.1696 104.39C14.9196 103.03 14.6997 101.67 14.5197 100.31C14.4897 100.05 14.4696 99.8002 14.4396 99.5402C14.3096 98.4202 14.1996 97.3102 14.1196 96.1902C14.1096 96.0002 14.0796 95.8102 14.0596 95.6202C14.0396 95.2702 14.0296 94.9202 14.0096 94.5602C13.9796 94.0702 13.9596 93.5902 13.9496 93.1002C13.9296 92.4802 13.9196 91.8602 13.9196 91.2402C13.9196 90.7602 13.9196 90.2902 13.9196 89.8102C13.9196 89.6402 13.9196 89.4702 13.9196 89.3002C13.9296 88.6702 13.9596 88.0502 13.9896 87.4202C13.9996 87.2102 13.9997 86.9903 14.0197 86.7803C14.0697 85.8403 14.1396 84.9102 14.2296 83.9802C14.2296 83.8902 14.2496 83.8102 14.2596 83.7202C14.2796 83.5102 14.3096 83.3003 14.3296 83.0903C14.4196 82.2903 14.5196 81.5003 14.6396 80.7103C14.6796 80.4303 14.7196 80.1603 14.7596 79.8903C14.7896 79.6903 14.8196 79.4803 14.8496 79.2803C14.8896 79.0303 14.9596 78.7803 14.9996 78.5303C15.1696 77.5903 15.3596 76.6602 15.5596 75.7402C15.6096 75.5102 15.6496 75.2702 15.6996 75.0402C15.7396 74.8602 15.7996 74.6903 15.8396 74.5103C16.0596 73.6203 16.2996 72.7402 16.5496 71.8702C16.6196 71.6202 16.6796 71.3602 16.7596 71.1002C16.7796 71.0302 16.8096 70.9502 16.8396 70.8802C17.1996 69.7202 17.5796 68.5702 18.0096 67.4402C18.0096 67.4202 18.0197 67.4002 18.0297 67.3802C18.0897 67.2302 18.1596 67.0802 18.2196 66.9302C18.5796 65.9902 18.9596 65.0502 19.3696 64.1302C19.4096 64.0302 19.4496 63.9303 19.4896 63.8403C19.6196 63.5603 19.7697 63.2802 19.8997 63.0002C20.2297 62.3002 20.5597 61.6102 20.9097 60.9302C20.9897 60.7702 21.0597 60.6002 21.1497 60.4402C21.2797 60.1902 21.4296 59.9602 21.5596 59.7202C21.9096 59.0702 22.2797 58.4202 22.6597 57.7902C22.7897 57.5802 22.8997 57.3503 23.0297 57.1403C23.1397 56.9603 23.2696 56.7902 23.3796 56.6102C23.7996 55.9502 24.2296 55.2903 24.6796 54.6403C24.8496 54.4003 24.9996 54.1403 25.1696 53.9003C25.2896 53.7303 25.4097 53.5702 25.5297 53.4102C25.6497 53.2502 25.7696 53.0802 25.8896 52.9202C26.4396 52.1702 27.0096 51.4403 27.5996 50.7103C27.6196 50.6803 27.6496 50.6602 27.6696 50.6302C27.7296 50.5602 27.7996 50.4802 27.8596 50.4102C28.4296 49.7202 29.0196 49.0502 29.6296 48.3802C29.7796 48.2102 29.9296 48.0503 30.0796 47.8903C30.1996 47.7603 30.3196 47.6302 30.4396 47.5002C30.9996 46.9102 31.5896 46.3303 32.1796 45.7603C32.2596 45.6803 32.3396 45.6102 32.4196 45.5402C32.8996 45.0902 33.3696 44.6403 33.8696 44.2003C34.1496 43.9503 34.4296 43.7003 34.7196 43.4603L45.7897 34.0103C44.9997 34.6803 44.2396 35.3803 43.4896 36.0903C43.4096 36.1703 43.3296 36.2402 43.2496 36.3102C42.5296 37.0002 41.8297 37.7202 41.1597 38.4402C41.0097 38.6002 40.8496 38.7702 40.6996 38.9402C40.0896 39.6002 39.4996 40.2703 38.9296 40.9603C38.8696 41.0403 38.7996 41.1102 38.7396 41.1902C38.1196 41.9402 37.5396 42.7002 36.9596 43.4802C36.8396 43.6402 36.7196 43.8102 36.5996 43.9702C36.3096 44.3802 36.0296 44.7903 35.7496 45.2003C35.2996 45.8503 34.8696 46.5002 34.4496 47.1702C34.1996 47.5602 33.9696 47.9502 33.7296 48.3502C33.3496 48.9902 32.9796 49.6402 32.6296 50.2902C32.4096 50.6902 32.1896 51.0902 31.9796 51.5002C31.6296 52.1902 31.2896 52.8803 30.9696 53.5803C30.7996 53.9503 30.6096 54.3203 30.4496 54.7003C30.0396 55.6303 29.6597 56.5703 29.2897 57.5203C29.2297 57.6903 29.1496 57.8503 29.0896 58.0203C28.6696 59.1503 28.2796 60.3002 27.9196 61.4702C27.8196 61.8002 27.7296 62.1303 27.6396 62.4603C27.3896 63.3303 27.1396 64.2102 26.9296 65.1002C26.8296 65.5102 26.7397 65.9203 26.6497 66.3303C26.4397 67.2503 26.2596 68.1802 26.0896 69.1202C26.0096 69.5702 25.9196 70.0202 25.8496 70.4702C25.8096 70.7402 25.7696 71.0202 25.7296 71.2902C25.6096 72.0802 25.5096 72.8802 25.4196 73.6702C25.3996 73.8802 25.3696 74.0902 25.3496 74.3002C25.2496 75.3102 25.1696 76.3302 25.1096 77.3602C25.0996 77.5702 25.0896 77.7802 25.0796 77.9902C25.0396 78.7902 25.0196 79.5903 25.0096 80.3903C25.0096 80.8603 25.0096 81.3403 25.0096 81.8203C25.0096 82.4403 25.0197 83.0602 25.0397 83.6802C25.0597 84.1602 25.0796 84.6503 25.0996 85.1403C25.1296 85.6803 25.1596 86.2303 25.1996 86.7703C25.2796 87.8803 25.3897 89.0002 25.5197 90.1202C25.5497 90.3802 25.5696 90.6303 25.5996 90.8903C25.7796 92.2503 25.9896 93.6102 26.2496 94.9702C26.3796 95.6602 26.5196 96.3403 26.6696 97.0303C26.7496 97.4103 26.8197 97.7802 26.9097 98.1602C27.1297 99.1302 27.3696 100.09 27.6296 101.06C27.6596 101.18 27.6896 101.31 27.7196 101.43C28.0196 102.52 28.3396 103.6 28.6896 104.68C28.7996 105.02 28.9197 105.35 29.0297 105.68C29.2797 106.42 29.5296 107.17 29.7996 107.91C29.9496 108.32 30.1197 108.74 30.2797 109.15C30.5297 109.81 30.7896 110.47 31.0596 111.13C31.2396 111.57 31.4296 112.01 31.6296 112.44C31.8996 113.07 32.1796 113.7 32.4696 114.32C32.6796 114.77 32.8896 115.21 33.1096 115.65C33.4096 116.26 33.7197 116.88 34.0297 117.49C34.2597 117.93 34.4896 118.37 34.7296 118.81C34.9996 119.31 35.2796 119.8 35.5596 120.29C36.0196 121.1 36.4996 121.91 36.9896 122.71C37.2496 123.13 37.5097 123.56 37.7697 123.98C38.3297 124.87 38.9197 125.74 39.5197 126.61C39.7397 126.94 39.9596 127.27 40.1896 127.59C40.4296 127.94 40.6896 128.28 40.9396 128.62C41.4096 129.26 41.8696 129.89 42.3596 130.52C42.6596 130.9 42.9597 131.28 43.2697 131.66C43.8597 132.4 44.4596 133.15 45.0796 133.88C45.9896 134.94 46.9196 135.98 47.8596 136.98C48.6096 137.78 49.3797 138.57 50.1497 139.33C50.3297 139.51 50.5196 139.69 50.6996 139.86C51.2096 140.35 51.7196 140.83 52.2396 141.31C52.9896 142 53.7497 142.68 54.5197 143.34C54.8597 143.63 55.1996 143.94 55.5496 144.22C56.4396 144.96 57.3396 145.68 58.2496 146.38C58.4396 146.52 58.6196 146.67 58.7996 146.82C59.8796 147.63 60.9696 148.41 62.0696 149.16C62.3896 149.38 62.7097 149.58 63.0297 149.79C63.8197 150.31 64.6097 150.83 65.4097 151.32C65.8297 151.58 66.2496 151.82 66.6696 152.07C67.3896 152.5 68.1196 152.91 68.8496 153.32C69.2996 153.56 69.7396 153.8 70.1896 154.04C70.9296 154.43 71.6597 154.8 72.4097 155.16C72.8497 155.37 73.2896 155.59 73.7296 155.79C74.6096 156.2 75.4896 156.58 76.3796 156.96C76.7196 157.1 77.0496 157.25 77.3896 157.39C78.6497 157.9 79.9296 158.38 81.1996 158.82C81.4596 158.91 81.7196 158.98 81.9696 159.07C83.0796 159.44 84.1896 159.78 85.3096 160.1C85.6996 160.21 86.0796 160.31 86.4696 160.42C87.9396 160.81 89.4197 161.17 90.8997 161.47C90.8997 161.47 90.9096 161.47 90.9196 161.47C90.9496 161.47 90.9796 161.47 90.9996 161.49C92.0196 161.69 93.0396 161.87 94.0596 162.03C94.3996 162.08 94.7496 162.12 95.0896 162.17C95.7696 162.27 96.4596 162.36 97.1396 162.43C97.8297 162.51 98.5096 162.56 99.1996 162.62C99.6796 162.66 100.15 162.7 100.63 162.73C101.36 162.77 102.1 162.79 102.83 162.81C103.27 162.82 103.7 162.85 104.14 162.85C104.41 162.85 104.69 162.85 104.96 162.85C105.71 162.85 106.46 162.84 107.21 162.81C107.57 162.8 107.93 162.78 108.29 162.76C108.96 162.72 109.63 162.68 110.3 162.62C110.66 162.59 111.03 162.56 111.39 162.52C112.09 162.45 112.79 162.36 113.49 162.27C113.8 162.23 114.11 162.19 114.42 162.15C115.42 162 116.41 161.83 117.39 161.63C117.46 161.62 117.53 161.6 117.6 161.58C118.51 161.39 119.42 161.18 120.32 160.96C120.64 160.88 120.95 160.79 121.26 160.71C121.92 160.53 122.58 160.35 123.23 160.14C123.58 160.03 123.93 159.92 124.27 159.81C124.9 159.6 125.53 159.38 126.16 159.15C126.49 159.03 126.82 158.91 127.14 158.79C127.86 158.51 128.57 158.22 129.28 157.91C129.5 157.82 129.72 157.73 129.93 157.64C130.84 157.23 131.75 156.8 132.64 156.34C132.87 156.22 133.09 156.1 133.31 155.98C133.98 155.63 134.65 155.26 135.3 154.88C135.61 154.7 135.91 154.52 136.22 154.33C136.8 153.98 137.37 153.62 137.93 153.25C138.24 153.05 138.55 152.84 138.86 152.63C139.44 152.23 140.01 151.82 140.58 151.4C140.84 151.21 141.11 151.02 141.37 150.82C142.18 150.2 142.99 149.56 143.78 148.89C143.78 148.89 143.78 148.89 143.79 148.89L132.72 158.34C131.93 159.01 131.12 159.66 130.3 160.28C130.04 160.48 129.77 160.67 129.51 160.86C128.94 161.28 128.37 161.69 127.78 162.09C127.47 162.3 127.17 162.5 126.86 162.7C126.29 163.07 125.72 163.43 125.14 163.78C124.84 163.96 124.53 164.15 124.23 164.33C123.57 164.71 122.9 165.08 122.23 165.43C122.01 165.55 121.79 165.67 121.57 165.79C120.67 166.25 119.77 166.68 118.85 167.09C118.64 167.19 118.42 167.27 118.21 167.36C117.5 167.67 116.79 167.96 116.07 168.24C115.74 168.37 115.42 168.48 115.09 168.6C114.46 168.83 113.83 169.05 113.2 169.26C112.85 169.37 112.51 169.48 112.16 169.59C111.5 169.79 110.84 169.98 110.18 170.16C109.87 170.24 109.56 170.33 109.24 170.41C108.34 170.64 107.43 170.85 106.52 171.03C106.45 171.04 106.38 171.06 106.31 171.08C105.33 171.28 104.33 171.45 103.34 171.6C103.03 171.65 102.72 171.68 102.41 171.72C101.71 171.81 101.01 171.9 100.31 171.97C99.9496 172.01 99.5796 172.04 99.2196 172.07C98.5496 172.13 97.8796 172.17 97.2096 172.21C96.8496 172.23 96.4896 172.25 96.1296 172.26C95.3796 172.29 94.6296 172.3 93.8796 172.3C93.6096 172.3 93.3296 172.3 93.0596 172.3C92.9896 172.3 92.9196 172.3 92.8496 172.3C92.4896 172.3 92.1196 172.27 91.7496 172.26C91.0196 172.24 90.2896 172.22 89.5496 172.18C89.0696 172.15 88.5996 172.11 88.1196 172.07C87.4296 172.01 86.7496 171.96 86.0596 171.88C85.9096 171.86 85.7696 171.86 85.6196 171.84C85.0796 171.78 84.5396 171.69 84.0096 171.62C83.6696 171.57 83.3296 171.53 82.9796 171.48C81.9596 171.32 80.9396 171.14 79.9196 170.94C79.8896 170.94 79.8596 170.94 79.8396 170.92C79.8396 170.92 79.8296 170.92 79.8196 170.92C78.3396 170.62 76.8596 170.26 75.3896 169.87C75.1996 169.82 75.0196 169.79 74.8296 169.74C74.6296 169.69 74.4296 169.61 74.2296 169.56C73.1096 169.24 71.9996 168.9 70.8896 168.53C70.6896 168.46 70.4896 168.41 70.2996 168.35C70.2396 168.33 70.1796 168.3 70.1196 168.28C68.8396 167.84 67.5696 167.36 66.3096 166.85C66.2396 166.82 66.1596 166.8 66.0896 166.77C65.8196 166.66 65.5596 166.53 65.2996 166.42C64.4096 166.05 63.5297 165.66 62.6497 165.25C62.4797 165.17 62.2996 165.1 62.1196 165.02C61.8496 164.89 61.5896 164.75 61.3196 164.62C60.5796 164.26 59.8396 163.89 59.0996 163.5C58.8496 163.37 58.5996 163.26 58.3596 163.12C58.1596 163.01 57.9596 162.89 57.7596 162.78C57.0296 162.38 56.2996 161.96 55.5796 161.53C55.2896 161.36 54.9896 161.2 54.6996 161.03C54.5696 160.95 54.4496 160.86 54.3196 160.79C53.5196 160.3 52.7296 159.78 51.9396 159.26C51.6696 159.08 51.3996 158.92 51.1296 158.74C51.0796 158.7 51.0296 158.66 50.9696 158.63C49.8696 157.88 48.7796 157.1 47.6996 156.29C47.6696 156.27 47.6496 156.25 47.6196 156.24C47.4596 156.12 47.2996 155.98 47.1396 155.86C46.2296 155.16 45.3296 154.44 44.4396 153.7C44.3296 153.61 44.2096 153.52 44.0996 153.43C43.8696 153.23 43.6397 153.01 43.4097 152.81C42.6397 152.15 41.8796 151.47 41.1296 150.78C40.9396 150.6 40.7396 150.44 40.5496 150.26C40.2296 149.96 39.9096 149.64 39.5896 149.33C39.4096 149.15 39.2197 148.98 39.0397 148.8C38.3197 148.09 37.6097 147.37 36.9097 146.63C36.8497 146.57 36.7996 146.51 36.7496 146.45C35.7996 145.44 34.8696 144.41 33.9696 143.35C33.6696 143 33.3696 142.65 33.0796 142.29L33.1096 142.24Z" fill="#FFAA00"/>
<path d="M143.804 148.894C171.273 125.458 171.605 80.7471 144.545 49.0301C117.484 17.3131 73.2796 10.6002 45.8103 34.0363C18.341 57.4724 18.0093 102.183 45.0695 133.9C72.1297 165.617 116.335 172.33 143.804 148.894Z" fill="#FFDA3E"/>
<path d="M137.093 141.028C160.797 120.803 161.082 82.2184 137.728 54.8458C114.375 27.4731 76.2262 21.6783 52.5214 41.9026C28.8167 62.127 28.5321 100.712 51.8858 128.085C75.2395 155.457 113.388 161.252 137.093 141.028Z" stroke="#FFAE00" stroke-width="1.97" stroke-miterlimit="10"/>
<path d="M146.53 146.36C153.1 140.08 158.09 132.19 161.14 123.62C164.17 115.03 165.31 105.8 164.73 96.7103C164.15 87.6103 161.91 78.6404 158.29 70.2803C154.67 61.9104 149.66 54.1603 143.61 47.3403C131.53 33.7103 114.94 23.9303 96.9396 20.8203C87.9696 19.2703 78.6696 19.4303 69.8196 21.6003C60.9796 23.7903 52.6596 28.0303 45.7996 33.9903C52.7396 28.1303 61.0996 24.0303 69.9196 21.9803C78.7296 19.8803 87.9596 19.7703 96.8596 21.3503C114.71 24.5203 131.11 34.3103 143.01 47.8803C149.03 54.6103 154.04 62.2703 157.68 70.5503C161.31 78.8303 163.58 87.7203 164.2 96.7503C164.82 105.77 163.73 114.93 160.78 123.49C157.87 132.05 153.02 139.99 146.54 146.36H146.53Z" fill="#EDB400"/>
<path d="M67.1296 81.3606L101.89 122.091L96.2697 126.881L67.4496 93.1006L62.6196 101.521L62.2396 101.461L56.9796 95.2906L62.2797 85.4906L67.1396 81.3506L67.1296 81.3606Z" fill="#F2A100"/>
<path d="M90.0397 98.0906C78.0697 84.0606 76.4496 71.9506 85.5496 64.1906C94.2196 56.8006 106.16 60.0906 117.07 72.8806C129.04 86.9106 130.7 98.9806 121.66 106.701C112.9 114.171 101 110.931 90.0397 98.0906ZM111.64 78.0906C103.63 68.7006 96.4296 66.1406 91.0896 70.6906C85.6196 75.3606 87.0997 83.0906 95.4097 92.8206C103.28 102.041 110.77 104.741 116.1 100.191C121.48 95.6006 119.89 87.7606 111.64 78.0906Z" fill="#F2A100"/>
</g>
</svg>
