<svg width="1080" height="964" viewBox="0 0 1080 964" fill="none" xmlns="http://www.w3.org/2000/svg">
<mask id="mask0_32_1202" style="mask-type:luminance" maskUnits="userSpaceOnUse" x="0" y="0" width="1080" height="964">
<path d="M1080 0H0V964H1080V0Z" fill="white"/>
</mask>
<g mask="url(#mask0_32_1202)">
<path d="M212.6 735.11C210.98 743.47 209.99 752.4 208.88 760.88C207.68 770.07 208.24 786.51 201.53 793.15C198.57 796.08 193.47 796.35 189.64 798.24C181.18 802.42 176.6 809.27 174.39 818.14C185.1 821.21 194.17 822.06 204.94 818.74C216.8 815.08 225.07 804.45 237.89 803.1C268.74 799.86 267.47 826.38 285.03 841.25C296.33 850.82 313.09 852.74 326.61 847.01L340.44 838.91C340.5 838.78 340.38 838.57 340.44 838.44L340.91 837.5C341.41 836.26 342.11 835.32 342.56 833.72C346.23 820.56 341.42 806.72 331.09 798.11C333.3 794.9 335.11 790.59 335.67 786.73C335.85 785.5 336.22 781.55 336.19 780.41C327.73 780.73 319.9 780.57 312.14 776.87C290.82 766.71 291.68 740.83 262.71 736.2C248.09 733.86 236.16 741.95 221.2 737.61C218.43 736.8 215.33 734.62 212.6 735.13V735.11Z" fill="#A0D92A"/>
<path d="M212.6 735.11C215.34 734.6 218.43 736.79 221.2 737.59C236.16 741.94 248.08 733.85 262.71 736.18C291.69 740.81 290.83 766.69 312.14 776.85C319.91 780.55 327.73 780.71 336.19 780.39C335.97 770.26 329.81 760.07 320.94 755.31C316.18 752.75 311 752.68 306.93 748.57C301.97 743.55 296.87 722.67 293.49 714.84C284.31 693.61 264.18 680.68 241.21 690.36C223.35 697.88 216.04 717.38 212.6 735.11Z" fill="#A0D92A"/>
<path d="M174.39 818.13C170.88 832.2 174.31 845.33 186.51 853.89C199.74 863.18 215.77 860.22 230.53 856.81C230.45 856.75 230.36 855.69 229.62 855.14C228.47 854.3 224.44 852.04 223.98 851.34C223.29 850.3 223.3 848.26 224.4 847.61C227.24 845.92 234.79 852.44 239.03 852.57C241.43 852.64 243.26 851.06 245.63 851.15C245.5 850.66 245.71 849.96 245.19 849.49L225.8 829.24C223.87 826.33 226.24 823.11 229.45 824.14C232.16 825.01 242.34 833.11 245.6 835.38C246.55 836.04 251.72 840.78 252.7 839.83L255.54 811.3C255.75 808.96 261.86 811.16 262.14 812.71L260.73 852.1C261.84 853.13 269.16 848.23 269.75 847.85C271.94 846.42 273.37 845.74 274.57 846.64C277.43 848.79 273.69 851.42 271.82 853.55C271.29 854.15 269.87 855.24 269.75 855.39C293.5 856.38 327.66 865.71 340.45 838.9L326.62 847C313.1 852.73 296.34 850.81 285.04 841.24C267.48 826.37 268.75 799.85 237.9 803.09C225.08 804.44 216.81 815.07 204.95 818.73C194.18 822.06 185.11 821.2 174.4 818.13H174.39Z" fill="#62B529"/>
<path d="M276.95 845.06C274.43 841.64 261.83 853.12 260.72 852.09L262.13 812.7C261.85 811.15 255.74 808.95 255.53 811.29L252.69 839.82C251.71 840.77 246.53 836.02 245.59 835.37C242.33 833.1 232.15 825.01 229.44 824.13C226.23 823.1 223.85 826.32 225.79 829.23L245.18 849.48C245.7 849.95 245.49 850.65 245.62 851.14C246.13 852.98 246.25 854.33 246.09 856.33C245.62 856.81 241.12 854.35 240.26 853.89C239.6 853.54 238.77 853.7 239.02 852.56C234.78 852.44 227.23 845.91 224.39 847.6C223.29 848.26 223.28 850.29 223.97 851.33C224.43 852.03 228.46 854.29 229.61 855.13C230.36 855.68 230.45 856.74 230.52 856.8C230.66 856.9 231.86 856.83 232.57 857.33C236.67 860.25 240.74 863.24 245.05 865.85L245.18 866.45L240.84 936.87C239.45 943.51 233.56 958.39 233.56 958.39C248.62 958.25 264.99 958.19 280.05 958.39L264.58 939.19L261.64 874.95L262.44 873.86C265.99 871.77 290.57 864.16 291.61 862.46C292.86 860.42 291.09 858.56 288.79 858.66C282.26 858.95 272.48 862.66 265.53 863.75C264.7 863.88 263.89 863.92 263.06 863.87C265.32 861.62 267.09 858.92 269.17 856.54C269.85 855.76 279.05 847.93 276.93 845.05L276.95 845.06Z" fill="#BE6632"/>
<path d="M340.44 838.419C340.57 838.129 340.75 837.889 340.91 837.479L340.44 838.419Z" fill="#046743"/>
<path d="M239.01 852.57C238.76 853.71 239.59 853.55 240.25 853.9C241.12 854.36 245.61 856.83 246.08 856.34C246.24 854.34 246.12 852.99 245.61 851.15C243.24 851.05 241.41 852.63 239.01 852.57Z" fill="#FBE2AF"/>
<path d="M393.72 766.12C392.53 772.23 391.81 778.77 391 784.96C390.12 791.68 390.53 803.71 385.62 808.56C383.45 810.7 379.73 810.9 376.92 812.28C370.73 815.33 367.39 820.35 365.77 826.83C373.6 829.07 380.23 829.7 388.11 827.27C396.78 824.59 402.83 816.82 412.2 815.83C434.76 813.46 433.83 832.86 446.67 843.73C454.93 850.73 467.19 852.13 477.08 847.94L487.2 842.01C487.24 841.92 487.16 841.76 487.2 841.67L487.54 840.98C487.9 840.07 488.42 839.38 488.74 838.22C491.42 828.6 487.91 818.47 480.35 812.18C481.96 809.84 483.29 806.68 483.7 803.86C483.83 802.96 484.1 800.07 484.08 799.24C477.89 799.47 472.17 799.35 466.49 796.65C450.9 789.22 451.53 770.3 430.34 766.91C419.65 765.2 410.93 771.12 399.99 767.94C397.96 767.35 395.7 765.75 393.7 766.12H393.72Z" fill="#A0D92A"/>
<path d="M393.72 766.12C395.72 765.75 397.98 767.35 400.01 767.94C410.95 771.12 419.67 765.2 430.36 766.91C451.55 770.3 450.92 789.22 466.51 796.65C472.19 799.36 477.91 799.47 484.1 799.24C483.94 791.83 479.44 784.38 472.95 780.9C469.47 779.03 465.68 778.98 462.7 775.97C459.07 772.3 455.34 757.03 452.87 751.3C446.16 735.77 431.44 726.32 414.64 733.4C401.58 738.9 396.24 753.16 393.72 766.12Z" fill="#A0D92A"/>
<path d="M365.77 826.83C363.2 837.12 365.71 846.72 374.63 852.98C384.31 859.78 396.03 857.61 406.82 855.11C406.76 855.07 406.7 854.29 406.15 853.89C405.31 853.27 402.36 851.62 402.02 851.11C401.52 850.35 401.52 848.86 402.33 848.38C404.41 847.14 409.93 851.91 413.03 852C414.79 852.05 416.12 850.9 417.86 850.97C417.76 850.61 417.92 850.1 417.53 849.76L403.35 834.95C401.94 832.82 403.67 830.46 406.02 831.22C408 831.86 415.44 837.78 417.83 839.44C418.52 839.92 422.31 843.39 423.02 842.7L425.1 821.83C425.25 820.12 429.72 821.73 429.93 822.86L428.9 851.66C429.71 852.41 435.07 848.83 435.5 848.55C437.1 847.5 438.15 847.01 439.03 847.67C441.12 849.24 438.39 851.17 437.02 852.72C436.63 853.16 435.6 853.96 435.5 854.06C452.87 854.78 477.85 861.61 487.2 842L477.08 847.93C467.19 852.12 454.93 850.72 446.67 843.72C433.83 832.85 434.76 813.45 412.2 815.82C402.83 816.8 396.78 824.58 388.11 827.26C380.23 829.69 373.6 829.07 365.77 826.82V826.83Z" fill="#62B529"/>
<path d="M440.77 846.52C438.93 844.02 429.71 852.42 428.9 851.66L429.93 822.86C429.72 821.73 425.26 820.12 425.1 821.83L423.02 842.7C422.31 843.39 418.52 839.92 417.83 839.44C415.44 837.78 408 831.86 406.02 831.22C403.67 830.46 401.93 832.82 403.35 834.95L417.53 849.76C417.91 850.1 417.76 850.62 417.86 850.97C418.23 852.31 418.32 853.3 418.2 854.76C417.86 855.11 414.57 853.31 413.93 852.97C413.45 852.71 412.84 852.83 413.02 852C409.92 851.91 404.4 847.14 402.32 848.38C401.52 848.86 401.51 850.35 402.01 851.11C402.35 851.62 405.29 853.27 406.14 853.89C406.69 854.29 406.75 855.07 406.81 855.11C406.91 855.18 407.79 855.13 408.31 855.5C411.31 857.63 414.29 859.82 417.43 861.73L417.53 862.17L414.36 913.67C413.34 918.52 409.04 929.41 409.04 929.41C420.06 929.3 432.02 929.27 443.04 929.41L431.73 915.37L429.58 868.39L430.17 867.59C432.76 866.06 450.74 860.5 451.5 859.25C452.41 857.76 451.12 856.4 449.44 856.47C444.67 856.68 437.51 859.4 432.43 860.19C431.83 860.28 431.23 860.32 430.62 860.27C432.28 858.63 433.57 856.65 435.09 854.91C435.59 854.34 442.32 848.61 440.77 846.51V846.52Z" fill="#BE6632"/>
<path d="M487.2 841.66C487.29 841.45 487.43 841.27 487.54 840.97L487.2 841.66Z" fill="#046743"/>
<path d="M413.03 852.01C412.85 852.84 413.45 852.72 413.94 852.98C414.57 853.32 417.86 855.12 418.21 854.77C418.33 853.31 418.24 852.32 417.87 850.98C416.13 850.91 414.8 852.07 413.04 852.01H413.03Z" fill="#FBE2AF"/>
<path d="M1083.37 560.71C1086.03 574.41 1087.65 589.06 1089.46 602.95C1091.42 618.01 1090.51 644.97 1101.51 655.85C1106.37 660.65 1114.72 661.09 1121.01 664.19C1134.88 671.03 1142.38 682.27 1146 696.81C1128.45 701.84 1113.58 703.24 1095.92 697.79C1076.48 691.78 1062.92 674.36 1041.91 672.15C991.34 666.84 993.42 710.31 964.64 734.69C946.12 750.37 918.64 753.53 896.47 744.13L873.8 730.85C873.7 730.64 873.9 730.29 873.8 730.08L873.03 728.53C872.22 726.49 871.06 724.95 870.33 722.34C864.31 700.77 872.2 678.08 889.13 663.97C885.51 658.72 882.54 651.65 881.61 645.32C881.32 643.31 880.71 636.82 880.75 634.96C894.62 635.48 907.45 635.21 920.18 629.15C955.12 612.5 953.72 570.07 1001.22 562.48C1025.19 558.65 1044.74 571.91 1069.26 564.79C1073.81 563.47 1078.88 559.88 1083.36 560.72L1083.37 560.71Z" fill="#A0D92A"/>
<path d="M1083.37 560.71C1078.88 559.87 1073.81 563.46 1069.27 564.78C1044.75 571.9 1025.2 558.64 1001.23 562.47C953.73 570.06 955.14 612.49 920.19 629.14C907.46 635.21 894.63 635.47 880.76 634.95C881.13 618.34 891.21 601.65 905.76 593.83C913.57 589.64 922.06 589.52 928.73 582.77C936.86 574.54 945.22 540.31 950.77 527.48C965.82 492.67 998.81 471.49 1036.47 487.35C1065.74 499.68 1077.73 531.64 1083.37 560.7V560.71Z" fill="#A0D92A"/>
<path d="M1146.01 696.81C1151.77 719.88 1146.15 741.39 1126.15 755.44C1104.46 770.67 1078.18 765.81 1053.99 760.22C1054.12 760.13 1054.26 758.38 1055.49 757.48C1057.38 756.1 1063.98 752.4 1064.74 751.25C1065.87 749.54 1065.86 746.21 1064.05 745.13C1059.39 742.36 1047.02 753.05 1040.07 753.25C1036.13 753.36 1033.13 750.77 1029.24 750.93C1029.46 750.13 1029.11 748.98 1029.97 748.21L1061.75 715.01C1064.92 710.24 1061.02 704.95 1055.76 706.65C1051.31 708.08 1034.64 721.35 1029.28 725.07C1027.73 726.15 1019.24 733.93 1017.64 732.37L1012.99 685.59C1012.65 681.75 1002.64 685.36 1002.17 687.9L1004.49 752.47C1002.67 754.16 990.66 746.13 989.7 745.5C986.11 743.16 983.77 742.04 981.79 743.52C977.1 747.04 983.23 751.36 986.3 754.84C987.17 755.83 989.49 757.62 989.7 757.85C950.77 759.47 894.78 774.77 873.81 730.82L896.48 744.1C918.65 753.5 946.13 750.34 964.65 734.66C993.43 710.29 991.35 666.81 1041.92 672.12C1062.93 674.33 1076.49 691.75 1095.93 697.76C1113.59 703.22 1128.46 701.81 1146.01 696.78V696.81Z" fill="#62B529"/>
<path d="M977.88 740.95C982.01 735.34 1002.67 754.17 1004.49 752.48L1002.17 687.91C1002.63 685.37 1012.65 681.76 1012.99 685.6L1017.64 732.38C1019.24 733.93 1027.73 726.15 1029.28 725.08C1034.63 721.36 1051.31 708.09 1055.76 706.66C1061.02 704.97 1064.92 710.25 1061.75 715.02L1029.97 748.22C1029.11 748.99 1029.46 750.14 1029.24 750.94C1028.41 753.95 1028.21 756.17 1028.47 759.44C1029.24 760.23 1036.61 756.19 1038.03 755.44C1039.12 754.86 1040.48 755.13 1040.06 753.26C1047.01 753.06 1059.39 742.36 1064.04 745.14C1065.84 746.21 1065.85 749.55 1064.73 751.26C1063.97 752.41 1057.37 756.11 1055.48 757.49C1054.26 758.38 1054.11 760.14 1053.98 760.23C1053.75 760.4 1051.79 760.27 1050.62 761.11C1043.89 765.89 1037.22 770.8 1030.17 775.08L1029.95 776.06L1037.06 891.5C1039.34 902.38 1048.99 926.78 1048.99 926.78C1024.3 926.54 997.47 926.46 972.78 926.78L998.14 895.3L1002.96 790L1001.64 788.21C995.82 784.79 955.53 772.31 953.82 769.52C951.77 766.18 954.67 763.13 958.44 763.3C969.14 763.77 985.18 769.86 996.56 771.64C997.91 771.85 999.26 771.92 1000.62 771.83C996.91 768.14 994.01 763.72 990.6 759.81C989.48 758.53 974.4 745.7 977.87 740.97L977.88 740.95Z" fill="#BE6632"/>
<path d="M873.8 730.06C873.59 729.59 873.3 729.19 873.03 728.51L873.8 730.06Z" fill="#046743"/>
<path d="M1040.06 753.26C1040.47 755.13 1039.11 754.86 1038.03 755.44C1036.61 756.19 1029.24 760.24 1028.47 759.44C1028.21 756.17 1028.41 753.95 1029.24 750.94C1033.13 750.78 1036.13 753.37 1040.07 753.26H1040.06Z" fill="#FBE2AF"/>
<path d="M122.68 661.36C124.84 672.51 126.17 684.44 127.64 695.75C129.24 708.01 128.5 729.96 137.46 738.82C141.41 742.73 148.21 743.08 153.34 745.61C164.63 751.18 170.74 760.33 173.69 772.17C159.4 776.26 147.29 777.41 132.91 772.96C117.08 768.07 106.04 753.88 88.93 752.08C47.75 747.75 49.45 783.15 26.01 803C10.93 815.77 -11.44 818.34 -29.49 810.69L-47.95 799.87C-48.03 799.7 -47.87 799.42 -47.95 799.24L-48.58 797.98C-49.24 796.32 -50.18 795.07 -50.78 792.94C-55.68 775.38 -49.26 756.9 -35.47 745.41C-38.42 741.13 -40.83 735.38 -41.59 730.22C-41.83 728.58 -42.32 723.3 -42.29 721.79C-31 722.21 -20.55 722 -10.19 717.06C18.26 703.5 17.12 668.96 55.79 662.78C75.31 659.66 91.22 670.46 111.19 664.66C114.89 663.58 119.02 660.66 122.67 661.35L122.68 661.36Z" fill="#A0D92A"/>
<path d="M122.68 661.36C119.03 660.68 114.9 663.6 111.2 664.67C91.24 670.47 75.32 659.67 55.8 662.79C17.13 668.97 18.27 703.51 -10.18 717.07C-20.54 722.01 -30.99 722.22 -42.28 721.8C-41.98 708.27 -33.77 694.68 -21.92 688.32C-15.56 684.91 -8.65 684.81 -3.22 679.32C3.4 672.62 10.21 644.75 14.72 634.3C26.97 605.96 53.84 588.71 84.5 601.63C108.33 611.67 118.09 637.69 122.68 661.36Z" fill="#A0D92A"/>
<path d="M173.68 772.17C178.37 790.95 173.79 808.47 157.51 819.91C139.85 832.31 118.46 828.35 98.75 823.8C98.85 823.73 98.97 822.3 99.97 821.57C101.51 820.45 106.88 817.43 107.5 816.5C108.42 815.11 108.41 812.4 106.94 811.52C103.15 809.26 93.07 817.97 87.41 818.14C84.2 818.23 81.76 816.12 78.59 816.25C78.77 815.6 78.48 814.67 79.18 814.04L105.06 787.01C107.64 783.13 104.47 778.82 100.18 780.2C96.56 781.37 82.98 792.17 78.62 795.2C77.36 796.08 70.45 802.41 69.14 801.15L65.35 763.06C65.07 759.93 56.92 762.87 56.54 764.94L58.43 817.51C56.95 818.88 47.17 812.35 46.39 811.83C43.46 809.92 41.56 809.01 39.95 810.22C36.13 813.09 41.12 816.6 43.62 819.44C44.33 820.24 46.22 821.7 46.39 821.89C14.69 823.21 -30.9 835.67 -47.97 799.88L-29.51 810.7C-11.46 818.35 10.91 815.78 25.99 803.01C49.43 783.17 47.73 747.77 88.91 752.09C106.02 753.89 117.06 768.08 132.89 772.97C147.27 777.41 159.38 776.27 173.67 772.18L173.68 772.17Z" fill="#62B529"/>
<path d="M36.79 808.12C40.15 803.55 56.98 818.88 58.46 817.51L56.57 764.94C56.95 762.88 65.1 759.94 65.38 763.06L69.17 801.15C70.47 802.41 77.39 796.08 78.65 795.2C83.01 792.17 96.59 781.37 100.21 780.2C104.5 778.82 107.67 783.13 105.09 787.01L79.21 814.04C78.51 814.67 78.8 815.61 78.62 816.25C77.94 818.7 77.78 820.51 77.99 823.17C78.62 823.82 84.62 820.52 85.77 819.91C86.65 819.44 87.76 819.66 87.43 818.14C93.09 817.98 103.17 809.27 106.96 811.52C108.43 812.39 108.44 815.11 107.52 816.5C106.9 817.44 101.53 820.45 99.99 821.57C98.99 822.3 98.87 823.72 98.77 823.8C98.58 823.94 96.99 823.84 96.04 824.51C90.56 828.4 85.13 832.4 79.39 835.89L79.21 836.69L85 930.69C86.86 939.55 94.72 959.42 94.72 959.42C74.61 959.23 52.77 959.16 32.66 959.42L53.31 933.79L57.23 848.05L56.16 846.6C51.42 843.82 18.61 833.65 17.22 831.38C15.55 828.66 17.92 826.18 20.98 826.31C29.69 826.7 42.75 831.65 52.02 833.1C53.12 833.27 54.21 833.33 55.32 833.25C52.3 830.25 49.94 826.65 47.16 823.46C46.25 822.41 33.97 811.97 36.8 808.12H36.79Z" fill="#BE6632"/>
<path d="M87.42 818.14C87.75 819.66 86.65 819.44 85.76 819.91C84.6 820.52 78.6 823.82 77.98 823.17C77.77 820.51 77.93 818.7 78.61 816.25C81.78 816.12 84.22 818.23 87.43 818.14H87.42Z" fill="#FBE2AF"/>
<path d="M435.77 915.83C539.75 914.56 644.4 914.9 748.39 915.83C893.7 917.13 1045.09 926.35 1189.6 937.04C1204.43 938.14 1305.17 947.59 1308.48 952.27C1315.09 961.61 1298.73 964.66 1292.31 966.03C1209.76 983.65 1102.58 979.76 1016.9 982.55C724.87 992.07 429.37 992.66 137.77 979.66C79.77 977.07 -15.83 980.33 -68.31 962.14C-71.07 961.19 -77.98 962.87 -75.46 956.84C-72.25 949.16 -57.74 948.52 -50.09 947.06C9.42001 935.66 82.98 936.76 144.28 933.93C241 929.47 338.6 917.01 435.76 915.83H435.77Z" fill="#E47728"/>
</g>
</svg>
