<svg width="247" height="177" viewBox="0 0 247 177" fill="none" xmlns="http://www.w3.org/2000/svg">
<path d="M8.74927 6.08008L8.50928 6.12988C8.61928 6.13988 8.70927 6.13008 8.74927 6.08008Z" fill="#20BB65"/>
<path d="M0.649292 8.33008C0.649292 8.33008 0.619294 8.31005 0.589294 8.30005L0.649292 8.33008Z" fill="#20BB65"/>
<path d="M1.72922 4.21989C1.29922 5.25989 0.189253 5.4298 0.509253 6.6298C0.359253 7.1698 0.549267 7.77999 0.649267 8.31999C1.46927 8.63999 0.609231 9.02004 1.29923 9.37004L0.80924 9.45988C1.03924 9.57988 1.19924 9.70997 0.929236 9.79997H0.789221C1.14922 9.95997 0.919218 10.1199 1.09922 10.2099H0.959265L1.00925 10.3898L0.80924 10.35C1.17924 10.64 1.19925 10.9098 1.00925 11.1498H1.58927C0.91927 11.6498 2.10927 11.87 1.33927 12.33H1.19926C2.72926 12.93 0.149218 13.2698 1.59922 13.8798C1.41922 13.8098 1.29922 13.9198 1.15922 13.9098C1.31922 14.1898 1.42925 14.4999 2.56925 14.4699C2.56925 14.6699 2.21927 14.6399 1.77927 14.6799C2.27927 14.6699 2.48927 14.8399 2.52927 14.9899L2.32926 14.9198L2.50925 15.37L3.44926 15.2499C3.18926 15.4999 2.29922 15.36 2.53922 15.58L3.31925 15.54C3.17925 15.87 1.99926 16.1299 1.44926 16.4899C1.19926 17.9099 3.31926 19.15 2.13926 20.57L1.56925 20.7099C0.72925 20.8599 2.87922 20.88 2.09922 21.04L2.50925 21.1298C2.35925 21.1898 2.21925 21.3099 2.00925 21.2599C1.99925 21.3999 2.13922 21.3799 2.40922 21.4399L1.90922 21.6698C1.57922 22.2898 2.69922 22.5598 2.59922 23.1598C1.64922 24.0598 2.94925 25.1499 3.68925 25.7099C4.44925 26.0499 4.07925 26.7198 3.75925 27.4198C3.44925 28.1098 3.17922 28.84 4.03922 29.12C3.93922 29.19 4.22925 29.1898 4.31925 29.1598L4.55924 30.1298C4.55924 30.1298 4.64923 30.4199 4.85923 30.7599C5.08923 31.0999 5.44926 31.4798 5.95926 31.6498C6.47926 31.8298 7.13924 31.8 7.99924 31.34C8.85924 30.89 9.89923 30 11.2392 28.61L11.4192 28.56C11.6492 27.97 11.6692 27.6799 10.6692 27.7199C11.7292 27.2699 10.6493 27.33 10.9593 27.1L11.0492 27.08C10.1092 27.12 11.5492 26.3 10.7192 26.31C10.8092 26.29 11.1093 26.1899 11.1493 26.2499C10.9493 26.1199 10.6293 25.9399 11.2593 25.7199C10.9393 25.3399 11.0693 24.6498 9.95926 24.6498L10.1393 24.62C9.39926 24.65 9.97925 24.44 9.56925 24.35C9.64925 24.32 9.68922 24.29 9.72922 24.28C8.97922 24.28 9.47927 23.7799 9.14927 23.7099L9.57926 23.59L9.38926 23.2499L9.32926 23.4098C8.12926 23.6498 10.0092 22.9598 9.17924 22.8798C9.26924 22.6098 6.56923 22.9099 7.10923 22.5099C6.51923 22.4999 8.03926 22.44 7.57926 22.33C8.19926 22.2 7.98922 22.3299 8.47922 22.1899C8.14922 22.0599 9.05922 21.76 8.59922 21.62L9.08927 21.5199C8.13927 21.3899 9.62923 20.86 8.73923 20.81C8.28923 20.57 10.1692 20.3699 9.15922 20.2099L9.80924 19.9899C9.89924 19.8399 8.97927 20.02 9.27927 19.82C9.69927 19.77 9.58924 19.59 9.99924 19.61C10.6092 19.2 8.95927 19.0599 10.0293 18.4799C9.19927 18.4799 9.65922 18.1999 9.03922 18.1999C9.39922 18.1499 9.03922 17.7498 9.84922 17.9198C9.91922 17.9298 9.90926 17.9699 9.76926 17.9899L10.2593 17.9699C11.1493 17.6299 9.69925 17.57 9.81925 17.31C9.65925 17.4 9.71925 17.4899 9.37925 17.4599L9.42924 17.2199H9.83927L10.0592 16.87L9.55924 16.9599C9.80924 16.7699 10.6692 16.6499 9.92924 16.5099C9.51924 16.4499 9.25926 16.72 9.07926 16.55C9.40926 16.3 9.90922 15.9298 10.0392 15.6298C9.46922 15.6898 9.48924 15.61 9.36924 15.53L9.86924 15.4999C9.16924 15.2199 10.9593 15.34 10.3993 15.06H10.7492L9.70926 15.03C8.70926 14.79 10.7392 14.85 9.37925 14.58C9.46925 14.7 8.27924 14.6699 8.49924 14.5099L8.97922 14.54C8.87922 14.46 8.66926 14.4398 8.76926 14.3798C9.02926 14.4198 9.46925 14.3799 9.37925 14.2699L9.97922 14.34L9.08927 14.1298C9.59927 13.9398 8.94925 13.67 9.62925 13.59C9.62925 13.59 9.95921 13.21 9.21921 13.12C9.67921 13.2 9.85927 12.99 10.3993 13.05C9.87927 12.95 9.44925 12.65 10.0093 12.54L10.0693 12.56C10.6293 12.14 9.30925 11.7999 10.0093 11.4299C9.42925 11.4299 9.74925 11.2299 9.00925 11.2599C8.29925 10.8099 10.5393 10.59 8.25925 10.32C8.13925 10.12 8.80924 10.13 8.92924 10.04L9.04923 10.09C8.88923 9.73001 8.86926 9.62004 8.94925 9.37004C8.73925 9.22004 7.67926 9.12983 7.94925 8.90983C8.35925 9.01983 8.28923 8.91 8.29923 8.83C8.35923 8.89 8.50924 8.92 8.80924 8.83C8.67924 8.8 8.59922 8.76991 8.53922 8.73991C8.56922 8.73991 8.59926 8.73991 8.63926 8.73991C8.49926 8.57991 8.36924 8.59983 8.30924 8.65983C8.24924 8.65983 8.15923 8.65983 8.04923 8.65983C8.59923 8.54983 8.04926 8.22994 8.76926 8.26994C8.64926 7.81994 7.93925 7.42994 7.69925 7.01994C8.07926 7.01994 8.38927 7.13993 8.52927 7.25993L8.41923 6.9799C8.94923 7.0399 8.70924 7.15992 8.80924 7.24992C9.69924 7.03992 8.01927 6.51991 8.83927 6.23991L8.42924 6.11003H8.49924C8.27924 6.07003 7.98923 5.94981 7.91923 5.88981C8.38923 5.88981 8.98922 6.03001 8.97922 5.84001C9.44922 5.76001 8.80927 5.40986 8.58927 5.18986C8.49927 5.27986 8.24927 5.20982 8.08927 5.14982C8.08927 5.05982 8.55924 5.06989 8.36924 4.96989L8.99924 5.04997C8.40924 4.99997 8.39927 4.72983 8.14927 4.65983C8.61927 4.66983 8.52924 4.85985 8.86924 4.92985C8.86924 4.55985 8.86923 4.7498 8.85923 4.3798C8.41923 4.1198 8.26922 4.32982 7.72922 4.14982C7.62922 3.95982 7.21925 3.72 7.62925 3.58L7.06925 3.55998C6.69925 3.16998 6.78926 2.98002 7.38926 2.85002C5.34926 1.25002 3.84927 0.80999 2.83927 0.81999C1.83927 0.82999 1.33927 1.27995 1.33927 1.27995C-0.0507302 2.11995 1.44922 2.91988 1.72922 4.20988V4.21989Z" fill="#20BB65"/>
<path d="M26.6793 46.0901L26.6193 46.3301C26.6793 46.2401 26.7093 46.1501 26.6793 46.0901Z" fill="#20BB65"/>
<path d="M43.7993 53.6799C43.7993 53.6799 43.8193 53.6499 43.8293 53.6399C43.8093 53.6499 43.7993 53.6699 43.7993 53.6799Z" fill="#20BB65"/>
<path d="M25.3093 54.3799C25.3093 54.3799 25.2793 54.3999 25.2593 54.4199L25.3093 54.3799Z" fill="#20BB65"/>
<path d="M22.0093 51.6599C22.7893 52.4799 22.4793 53.59 23.7093 53.8C24.1393 54.15 24.7793 54.2499 25.3093 54.3899C25.9393 53.7699 25.9293 54.72 26.5293 54.24L26.3993 54.72C26.6093 54.56 26.7893 54.47 26.7593 54.75L26.6893 54.8701C26.9993 54.6201 27.0493 54.89 27.1993 54.77L27.1293 54.8899L27.3193 54.9199L27.1993 55.0801C27.6193 54.8601 27.8693 54.96 28.0093 55.23L28.2593 54.7C28.4293 55.52 29.1293 54.5299 29.2093 55.4199L29.1393 55.54C30.3293 54.41 29.5293 56.8901 30.6993 55.8301C30.5493 55.9601 30.5993 56.11 30.5393 56.24C30.8593 56.2 31.1693 56.24 31.6493 55.21C31.8293 55.31 31.6493 55.6 31.4893 56.01C31.6993 55.55 31.9393 55.44 32.0893 55.47L31.9493 55.6201L32.4293 55.6499L32.7293 54.75C32.8293 55.09 32.3193 55.83 32.6193 55.71L32.9293 54.99C33.1593 55.27 32.8693 56.4201 32.9293 57.0801C34.0393 57.9201 36.0893 56.6001 36.7293 58.3101L36.5693 58.8799C36.2893 59.6899 37.3393 57.8101 37.0993 58.5701L37.3693 58.25C37.3493 58.41 37.3693 58.59 37.2393 58.75C37.3493 58.83 37.3993 58.7 37.5793 58.49L37.5293 59.04C37.8793 59.62 38.6493 58.7899 39.0893 59.1699C39.3493 60.4199 40.8593 59.87 41.7093 59.54C43.0393 58.62 43.1293 62.2401 44.5393 61.1201C44.5393 61.2501 44.6992 61.0099 44.7192 60.9099L45.5793 61.29C45.5793 61.29 46.6493 61.6801 47.5293 61.0901C48.4193 60.5001 49.0793 58.9301 48.4493 55.0601L48.5193 54.8899C48.1793 54.3199 47.9093 54.15 47.3293 54.96C47.5993 53.84 46.9793 54.7301 46.9793 54.3401L47.0193 54.25C46.4893 55.02 46.6493 53.37 46.1493 54.05C46.1893 53.97 46.2793 53.6599 46.3493 53.6599C46.1093 53.7399 45.7593 53.91 45.9493 53.26C45.4293 53.28 44.8693 52.78 44.2393 53.71L44.3193 53.54C43.9293 54.17 44.0593 53.5701 43.7593 53.8601C43.7793 53.7701 43.7793 53.7299 43.7893 53.6899C43.3793 54.3099 43.2093 53.6101 42.9593 53.8501L43.0893 53.4199L42.6893 53.3899L42.7993 53.53C42.3593 54.68 42.7593 52.7101 42.2393 53.3701C42.0393 53.1401 40.8993 55.5999 40.8293 54.9399C40.5093 55.4399 41.2493 54.1 40.9093 54.45C41.1093 53.85 41.1293 54.1001 41.2493 53.6001C40.9693 53.8201 41.1693 52.88 40.7993 53.21L40.9593 52.74C40.3593 53.49 40.6293 51.9299 40.1393 52.6799C39.6993 52.9499 40.4493 51.22 39.7993 52.02L39.9093 51.3401C39.8193 51.1901 39.5293 52.08 39.4893 51.72C39.6493 51.33 39.4193 51.33 39.6493 50.99C39.5593 50.25 38.6393 51.6199 38.6193 50.3999C38.2293 51.1299 38.1893 50.5899 37.8893 51.1299C38.0093 50.7899 37.4793 50.9 38.0093 50.28C38.0493 50.23 38.0893 50.2499 38.0293 50.3799L38.2393 49.9399C38.3393 48.9899 37.6093 50.23 37.4193 50.01C37.4293 50.19 37.5393 50.19 37.3493 50.47L37.1493 50.3201L37.3493 49.96L37.1093 49.6001L36.9593 50.0901C36.8993 49.7801 37.1793 48.96 36.7093 49.55C36.4693 49.89 36.5993 50.2501 36.3593 50.3201C36.2793 49.9101 36.1593 49.29 35.9393 49.03C35.7393 49.57 35.6693 49.5201 35.5493 49.5901L35.7393 49.1299C35.1693 49.6399 36.0693 48.08 35.5693 48.46L35.7393 48.1499L35.2393 49.0701C34.5793 49.8501 35.5193 48.0599 34.6793 49.1599C34.8293 49.1299 34.2793 50.1799 34.2293 49.9199L34.4593 49.5C34.3393 49.56 34.2293 49.7301 34.2193 49.6101C34.3693 49.4001 34.5293 48.98 34.3893 49.01L34.7193 48.5L34.1393 49.21C34.1893 48.67 33.6493 49.13 33.8693 48.49C33.8693 48.49 33.6593 48.0199 33.2593 48.6499C33.5293 48.2699 33.4093 48.02 33.6993 47.55C33.3893 47.98 32.9293 48.2299 33.0593 47.6799L33.1093 47.6299C32.9593 46.9299 32.0893 48 32.0493 47.2C31.7993 47.72 31.7593 47.35 31.4693 48.03C30.7593 48.49 31.4993 46.3601 30.2993 48.3101C30.0693 48.3301 30.3493 47.7301 30.3193 47.5801L30.4193 47.5C30.0193 47.5 29.9193 47.47 29.7193 47.29C29.4993 47.42 28.9693 48.34 28.8793 48C29.1493 47.67 29.0293 47.6899 28.9493 47.6499C29.0293 47.6199 29.1193 47.4899 29.1593 47.1899C29.0793 47.2999 29.0193 47.3499 28.9693 47.3999C28.9893 47.3699 28.9893 47.3501 29.0193 47.3101C28.8193 47.3701 28.7793 47.5001 28.8093 47.5801C28.7793 47.6301 28.7393 47.7101 28.6993 47.8201C28.8293 47.2701 28.3093 47.64 28.6493 47C28.1893 46.92 27.5393 47.41 27.0693 47.46C27.2293 47.12 27.4693 46.8801 27.6393 46.8101L27.3393 46.79C27.6193 46.33 27.6293 46.6 27.7493 46.55C27.9293 45.66 26.7493 46.9601 26.8593 46.0901L26.5693 46.4099L26.5893 46.3401C26.4693 46.5301 26.2393 46.75 26.1593 46.78C26.3593 46.36 26.7393 45.87 26.5693 45.8C26.6893 45.34 26.1093 45.7799 25.8093 45.8899C25.8493 46.0099 25.6793 46.2101 25.5593 46.3301C25.4793 46.2901 25.6893 45.87 25.5193 46L25.8593 45.47C25.5693 45.99 25.3093 45.8801 25.1393 46.0701C25.3493 45.6501 25.4793 45.81 25.6893 45.53C25.3593 45.38 25.5193 45.45 25.1893 45.3C24.7593 45.59 24.8893 45.81 24.4993 46.22C24.2893 46.22 23.8993 46.4901 23.9493 46.0701L23.6893 46.5701C23.1693 46.7501 23.0393 46.57 23.1893 45.98C20.8593 47.12 19.7893 48.2499 19.3593 49.1599C18.9293 50.0599 19.1293 50.72 19.1293 50.72C19.2893 52.37 20.7093 51.3499 21.9893 51.6799L22.0093 51.6599Z" fill="#20BB65"/>
<path d="M73.0593 60.1201L73.0992 60.3601C73.1092 60.2501 73.0993 60.1601 73.0593 60.1201Z" fill="#20BB65"/>
<path d="M92.2693 62.25C92.2693 62.25 92.2792 62.22 92.2892 62.2C92.2792 62.22 92.2693 62.23 92.2693 62.25Z" fill="#20BB65"/>
<path d="M74.9593 68.3C74.9593 68.3 74.9393 68.3301 74.9293 68.3601L74.9593 68.3Z" fill="#20BB65"/>
<path d="M71.0992 67.1201C72.0892 67.5501 72.2192 68.6599 73.3492 68.3799C73.8492 68.5399 74.4293 68.36 74.9493 68.3C75.2993 67.49 75.6093 68.37 75.9793 67.71L76.0293 68.2C76.1593 67.97 76.2893 67.8201 76.3593 68.0901L76.3393 68.23C76.5293 67.89 76.6693 68.12 76.7593 67.95L76.7393 68.0901L76.9193 68.05L76.8593 68.24C77.1593 67.89 77.4193 67.9001 77.6293 68.1001L77.6793 67.52C78.0893 68.23 78.4193 67.0501 78.7593 67.8701L78.7393 68.01C79.4793 66.56 79.4993 69.15 80.2493 67.78C80.1593 67.95 80.2492 68.08 80.2192 68.22C80.4992 68.09 80.7993 68.0299 80.9293 66.8999C81.1193 66.9399 81.0493 67.27 81.0193 67.71C81.0793 67.21 81.2693 67.03 81.4193 67.01L81.3293 67.1899L81.7793 67.0701L81.7993 66.1201C81.9993 66.4201 81.7292 67.2701 81.9692 67.0701L82.0593 66.29C82.3593 66.48 82.4093 67.68 82.6493 68.28C83.8893 68.75 85.4693 66.9199 86.5093 68.4099V69C86.4393 69.86 86.9593 67.7701 86.9193 68.5601L87.0992 68.1799C87.1192 68.3399 87.1892 68.5099 87.0992 68.6899C87.2192 68.7399 87.2393 68.6001 87.3593 68.3501L87.4393 68.8899C87.8993 69.3499 88.4293 68.3699 88.9393 68.6299C89.4693 69.7799 90.7593 68.8999 91.5093 68.3799C92.5893 67.1999 93.4093 70.7001 94.5293 69.3301C94.5493 69.4501 94.6593 69.1901 94.6693 69.0901L95.5693 69.29C95.5693 69.29 99.9293 69.9899 97.1993 62.6299L97.2393 62.45C96.7893 61.96 96.4893 61.83 96.0693 62.74C96.1193 61.59 95.6793 62.59 95.5893 62.2L95.6093 62.1101C95.2293 62.9701 95.0593 61.3201 94.6993 62.0901C94.7193 62.0001 94.7493 61.6899 94.8193 61.6699C94.5993 61.7999 94.2893 62.0201 94.3293 61.3601C93.8093 61.4901 93.1392 61.1199 92.7192 62.1499L92.7593 61.97C92.5093 62.67 92.5093 62.0499 92.2693 62.3999C92.2693 62.3099 92.2593 62.27 92.2693 62.23C91.9993 62.92 91.6793 62.2901 91.4893 62.5701L91.5193 62.1299L91.1093 62.2L91.2493 62.3101C91.0793 63.5201 91.0192 61.52 90.6592 62.28C90.4092 62.1 89.8693 64.7599 89.6393 64.1399C89.4493 64.6999 89.8493 63.2199 89.6093 63.6399C89.6693 62.9999 89.7393 63.25 89.7393 62.74C89.5093 63.02 89.4793 62.06 89.1993 62.46L89.2393 61.96C88.8293 62.83 88.7092 61.2501 88.4092 62.0901C88.0392 62.4701 88.3393 60.6 87.8993 61.53L87.8393 60.8501C87.7093 60.7301 87.6493 61.6601 87.5293 61.3201C87.5793 60.9001 87.3593 60.9601 87.4993 60.5701C87.2093 59.8701 86.6693 61.43 86.3093 60.26C86.1193 61.07 85.9293 60.5599 85.7893 61.1599C85.8193 60.7999 85.3093 61.05 85.6693 60.3C85.6993 60.24 85.7392 60.2599 85.7192 60.3899L85.7993 59.9099C85.6293 58.9599 85.2493 60.3599 84.9993 60.1899C85.0593 60.3599 85.1693 60.3299 85.0693 60.6599L84.8293 60.5701L84.9293 60.1699L84.5793 59.8899V60.3999C84.4193 60.1199 84.4493 59.25 84.1693 59.95C84.0293 60.34 84.2693 60.65 84.0593 60.79C83.8493 60.42 83.5493 59.8599 83.2493 59.6699C83.2093 60.2399 83.1293 60.2101 83.0293 60.3201L83.0793 59.8201C82.6693 60.4701 83.0793 58.72 82.6893 59.23L82.7593 58.8899L82.5593 59.9099C82.1493 60.8599 82.5193 58.8699 82.0393 60.1699C82.1793 60.0999 81.9693 61.27 81.8393 61.03L81.9393 60.5601C81.8393 60.6501 81.7893 60.85 81.7393 60.74C81.8193 60.49 81.8493 60.0501 81.7093 60.1201L81.8693 59.53L81.5193 60.3799C81.3893 59.8499 81.0093 60.45 81.0193 59.77C81.0193 59.77 80.6492 59.3901 80.4692 60.1201C80.6092 59.6701 80.3993 59.4699 80.5293 58.9399C80.3593 59.4499 79.9993 59.83 79.9393 59.27L79.9692 59.21C79.5792 58.59 79.0893 59.8799 78.7593 59.1499C78.7093 59.7299 78.5293 59.3899 78.4893 60.1299C77.9693 60.7999 77.8993 58.54 77.4593 60.79C77.2493 60.89 77.2993 60.2301 77.2093 60.1001L77.2693 59.99C76.8793 60.13 76.7693 60.14 76.5093 60.05C76.3493 60.25 76.1893 61.3 75.9793 61.02C76.1093 60.61 75.9992 60.6799 75.9092 60.6599C75.9792 60.5999 76.0093 60.4499 75.9293 60.1499C75.8993 60.2799 75.8593 60.3499 75.8293 60.4199C75.8293 60.3899 75.8293 60.3601 75.8393 60.3201C75.6693 60.4501 75.6793 60.5799 75.7393 60.6499C75.7293 60.7099 75.7193 60.7999 75.7293 60.9099C75.6493 60.3499 75.2893 60.8899 75.3593 60.1699C74.8793 60.2699 74.4593 60.97 74.0393 61.2C74.0393 60.82 74.1793 60.5099 74.3093 60.3799L74.0193 60.48C74.0993 59.95 74.2193 60.2001 74.3093 60.1001C74.1093 59.2001 73.5293 60.86 73.2693 60.02L73.1293 60.4299V60.3601C73.0893 60.5801 72.9593 60.8699 72.8893 60.9399C72.8993 60.4699 73.0493 59.8699 72.8593 59.8799C72.7793 59.4099 72.4093 60.04 72.1793 60.26C72.2693 60.35 72.1993 60.61 72.1293 60.76C72.0293 60.76 72.0493 60.29 71.9493 60.48L72.0293 59.8501C71.9793 60.4401 71.6893 60.45 71.6193 60.7C71.6393 60.23 71.8193 60.32 71.8993 59.98C71.5193 59.98 71.7093 59.98 71.3293 59.98C71.0593 60.42 71.2792 60.5701 71.0992 61.1101C70.9092 61.2101 70.6693 61.61 70.5193 61.21L70.4993 61.77C70.0993 62.15 69.9193 62.05 69.7793 61.46C68.1993 63.52 67.8193 65.03 67.8393 66.04C67.8693 67.04 68.2993 67.53 68.2993 67.53C69.0993 68.91 69.8692 67.3701 71.0992 67.1201Z" fill="#20BB65"/>
<path d="M122.599 64.6399L122.659 64.8799C122.659 64.7699 122.659 64.6799 122.599 64.6399Z" fill="#20BB65"/>
<path d="M142.089 65.9099C142.089 65.9099 142.099 65.8801 142.109 65.8601C142.099 65.8801 142.089 65.8899 142.089 65.9099Z" fill="#20BB65"/>
<path d="M125.049 72.6699C125.049 72.6699 125.039 72.7 125.029 72.73L125.059 72.6699H125.049Z" fill="#20BB65"/>
<path d="M121.179 71.77C122.189 72.12 122.389 73.2201 123.479 72.8601C123.979 72.9801 124.539 72.7699 125.049 72.6799C125.339 71.8499 125.699 72.71 126.029 72.03L126.099 72.52C126.209 72.29 126.339 72.1299 126.419 72.3899L126.399 72.53C126.569 72.18 126.719 72.41 126.799 72.23L126.779 72.3701L126.959 72.3201L126.919 72.52C127.199 72.15 127.459 72.1501 127.669 72.3401L127.689 71.76C128.129 72.44 128.389 71.25 128.779 72.05L128.759 72.1899C129.419 70.6999 129.559 73.2899 130.239 71.8799C130.159 72.0599 130.239 72.1801 130.239 72.3201C130.509 72.1701 130.799 72.11 130.889 70.97C131.079 71 131.019 71.34 131.009 71.78C131.049 71.28 131.229 71.0901 131.379 71.0701L131.299 71.26L131.739 71.1201L131.719 70.1699C131.929 70.4599 131.689 71.3201 131.929 71.1101L131.979 70.3301C132.279 70.5101 132.379 71.7 132.639 72.3C133.879 72.72 135.389 70.83 136.459 72.28V72.8701C136.429 73.7301 136.889 71.6299 136.869 72.4199L137.039 72.04C137.069 72.2 137.139 72.37 137.049 72.55C137.169 72.59 137.189 72.45 137.299 72.2L137.399 72.74C137.869 73.19 138.369 72.1899 138.879 72.4399C139.429 73.5699 140.689 72.6501 141.419 72.1201C142.479 70.9101 143.339 74.39 144.439 73C144.459 73.12 144.569 72.86 144.569 72.76L145.459 72.9399C145.459 72.9399 149.809 73.57 147.049 66.26L147.089 66.0801C146.629 65.5901 146.329 65.4699 145.909 66.3899C145.949 65.2399 145.509 66.2401 145.429 65.8601L145.449 65.77C145.079 66.63 144.889 64.99 144.529 65.77C144.549 65.68 144.579 65.3601 144.649 65.3501C144.429 65.4801 144.119 65.72 144.149 65.05C143.629 65.19 142.949 64.8299 142.539 65.8799L142.579 65.7C142.339 66.41 142.329 65.7899 142.099 66.1399C142.099 66.0499 142.079 66.01 142.089 65.97C141.829 66.67 141.489 66.0401 141.309 66.3301L141.329 65.8899L140.919 65.97L141.059 66.0801C140.909 67.3001 140.819 65.2901 140.459 66.0601C140.199 65.8901 139.709 68.5599 139.479 67.9399C139.299 68.4999 139.669 67.02 139.429 67.45C139.469 66.81 139.549 67.06 139.539 66.55C139.319 66.84 139.259 65.88 138.989 66.29L139.019 65.79C138.629 66.67 138.469 65.1 138.189 65.95C137.829 66.34 138.079 64.4599 137.669 65.4099L137.589 64.73C137.449 64.61 137.419 65.55 137.289 65.21C137.329 64.79 137.109 64.86 137.239 64.46C136.919 63.77 136.419 65.3499 136.019 64.1899C135.849 64.9999 135.649 64.5001 135.519 65.1101C135.529 64.7501 135.039 65.02 135.369 64.26C135.399 64.2 135.439 64.2101 135.429 64.3501L135.499 63.8601C135.289 62.9201 134.959 64.3299 134.699 64.1699C134.769 64.3399 134.879 64.2999 134.779 64.6299L134.529 64.55L134.609 64.1399L134.249 63.8701V64.3799C134.099 64.1099 134.099 63.2399 133.839 63.9399C133.719 64.3399 133.959 64.64 133.759 64.78C133.539 64.42 133.209 63.8699 132.899 63.6899C132.889 64.2599 132.799 64.2401 132.709 64.3501L132.739 63.8501C132.349 64.5201 132.699 62.75 132.319 63.27L132.369 62.9299L132.209 63.96C131.839 64.92 132.119 62.92 131.689 64.24C131.829 64.16 131.669 65.3401 131.529 65.1101L131.609 64.6299C131.509 64.7299 131.469 64.9201 131.419 64.8201C131.489 64.5701 131.499 64.12 131.359 64.2L131.489 63.6101L131.179 64.47C131.019 63.94 130.669 64.5699 130.639 63.8799C130.639 63.8799 130.249 63.52 130.099 64.25C130.219 63.8 129.999 63.6001 130.099 63.0701C129.949 63.5801 129.609 63.9899 129.519 63.4199L129.549 63.3601C129.119 62.7601 128.689 64.0801 128.319 63.3601C128.299 63.9401 128.099 63.6101 128.099 64.3501C127.609 65.0501 127.409 62.8001 127.089 65.0601C126.879 65.1701 126.889 64.5099 126.799 64.3899L126.859 64.27C126.469 64.43 126.369 64.4401 126.089 64.3701C125.939 64.5801 125.839 65.6401 125.609 65.3701C125.719 64.9601 125.609 65.03 125.519 65.02C125.579 64.96 125.609 64.81 125.519 64.51C125.489 64.64 125.459 64.72 125.429 64.78C125.429 64.75 125.429 64.7199 125.429 64.6799C125.269 64.8199 125.279 64.95 125.349 65.01C125.349 65.07 125.349 65.16 125.349 65.27C125.229 64.72 124.899 65.27 124.929 64.55C124.449 64.69 124.069 65.4099 123.669 65.6599C123.649 65.2899 123.769 64.9601 123.889 64.8301L123.609 64.95C123.649 64.42 123.789 64.65 123.879 64.55C123.609 63.66 123.149 65.37 122.819 64.55L122.709 64.97L122.689 64.8999C122.679 65.1199 122.569 65.42 122.509 65.49C122.489 65.02 122.589 64.4199 122.399 64.4299C122.279 63.9699 121.959 64.6301 121.749 64.8601C121.849 64.9501 121.799 65.2001 121.749 65.3601C121.649 65.3601 121.629 64.9001 121.539 65.1001L121.569 64.47C121.569 65.07 121.279 65.0901 121.229 65.3501C121.209 64.8801 121.399 64.9601 121.449 64.6101C121.069 64.6401 121.259 64.6299 120.879 64.6599C120.649 65.1199 120.879 65.26 120.739 65.8C120.549 65.91 120.349 66.3399 120.169 65.9399L120.199 66.5C119.839 66.91 119.639 66.83 119.449 66.25C116.649 70.62 118.509 72.4199 118.509 72.4199C119.409 73.7199 120.019 72.13 121.219 71.78L121.179 71.77Z" fill="#20BB65"/>
<path d="M172.589 68.8899L172.639 69.1299C172.649 69.0199 172.639 68.9299 172.589 68.8899Z" fill="#20BB65"/>
<path d="M192.069 72.0601C192.069 72.0601 192.089 72.03 192.099 72.01C192.079 72.03 192.079 72.0401 192.069 72.0601Z" fill="#20BB65"/>
<path d="M174.509 77.0601C174.509 77.0601 174.489 77.0901 174.479 77.1201L174.509 77.0601Z" fill="#20BB65"/>
<path d="M170.749 75.9199C171.729 76.3299 171.849 77.4399 172.949 77.1399C173.439 77.2899 173.999 77.1201 174.499 77.0601C174.849 76.2501 175.139 77.14 175.509 76.47L175.549 76.96C175.679 76.73 175.809 76.5901 175.869 76.8601L175.839 77C176.029 76.66 176.159 76.9 176.259 76.73L176.229 76.8701L176.409 76.8301L176.349 77.02C176.649 76.67 176.909 76.6899 177.099 76.8899L177.169 76.3101C177.549 77.0201 177.899 75.8599 178.219 76.6899L178.189 76.8301C178.969 75.4001 178.889 77.9899 179.669 76.6399C179.569 76.8099 179.649 76.9401 179.629 77.0801C179.909 76.9601 180.199 76.91 180.389 75.79C180.579 75.84 180.489 76.1701 180.439 76.6101C180.519 76.1201 180.709 75.9399 180.869 75.9299L180.769 76.1101L181.219 76.01L181.289 75.0701C181.469 75.3701 181.159 76.21 181.409 76.02L181.529 75.25C181.809 75.45 181.799 76.65 181.999 77.27C183.169 77.8 184.849 76.0799 185.749 77.6399L185.689 78.23C185.549 79.08 186.239 77.0401 186.139 77.8301L186.349 77.47C186.349 77.63 186.409 77.8 186.309 77.98C186.429 78.04 186.459 77.8999 186.589 77.6599L186.619 78.21C187.019 78.71 187.629 77.7801 188.099 78.0801C188.499 79.2701 189.839 78.5201 190.619 78.0901C191.829 77.0301 192.169 80.6099 193.429 79.3899C193.429 79.5199 193.569 79.2699 193.599 79.1699L194.429 79.49C194.429 79.49 195.449 79.82 196.289 79.2C197.119 78.57 197.829 76.9999 197.029 73.1499L197.099 72.98C196.719 72.42 196.419 72.2501 195.869 73.0801C196.079 71.9501 195.489 72.87 195.459 72.48L195.489 72.3899C194.989 73.1799 195.039 71.53 194.569 72.24C194.599 72.15 194.679 71.8501 194.749 71.8401C194.509 71.9301 194.159 72.12 194.289 71.46C193.749 71.52 193.099 71.06 192.549 72.04L192.609 71.8601C192.269 72.5301 192.349 71.91 192.069 72.23C192.069 72.14 192.069 72.0901 192.079 72.0601C191.729 72.7201 191.469 72.0501 191.249 72.3101L191.329 71.8701L190.909 71.8899L191.039 72.01C190.739 73.2 190.889 71.1999 190.439 71.9199C190.199 71.7099 189.389 74.2999 189.229 73.6599C188.989 74.1999 189.529 72.7699 189.239 73.1599C189.359 72.5299 189.409 72.79 189.459 72.28C189.199 72.54 189.259 71.58 188.939 71.95L189.029 71.46C188.539 72.29 188.549 70.7 188.179 71.51C187.779 71.85 188.239 70.0199 187.709 70.9099V70.22C187.569 70.09 187.439 71.0099 187.339 70.6599C187.429 70.2399 187.199 70.2899 187.369 69.9099C187.119 69.1899 186.449 70.7 186.169 69.51C185.919 70.3 185.759 69.7701 185.569 70.3701C185.619 70.0101 185.089 70.23 185.499 69.51C185.529 69.45 185.569 69.4701 185.549 69.6101L185.669 69.1299C185.549 68.1699 185.079 69.5401 184.829 69.3501C184.879 69.5201 184.999 69.5001 184.869 69.8201L184.629 69.71L184.749 69.3101L184.409 69.01L184.379 69.52C184.239 69.23 184.319 68.36 183.989 69.04C183.829 69.42 184.049 69.7501 183.829 69.8701C183.639 69.4901 183.359 68.91 183.059 68.7C182.999 69.27 182.909 69.2401 182.809 69.3401L182.879 68.8501C182.429 69.4801 182.929 67.75 182.509 68.24L182.599 67.8999L182.339 68.9099C181.879 69.8299 182.339 67.8599 181.789 69.1399C181.939 69.0799 181.679 70.23 181.549 69.99L181.669 69.52C181.559 69.61 181.499 69.7999 181.459 69.6899C181.549 69.4399 181.599 69.0001 181.459 69.0601L181.639 68.48L181.249 69.3101C181.139 68.7701 180.729 69.3599 180.759 68.6799C180.759 68.6799 180.389 68.29 180.179 69C180.329 68.56 180.129 68.3501 180.279 67.8201C180.089 68.3201 179.709 68.6901 179.659 68.1201L179.689 68.0601C179.299 67.4301 178.769 68.71 178.439 67.96C178.369 68.53 178.199 68.1899 178.139 68.9299C177.599 69.5899 177.559 67.3301 177.069 69.5601C176.849 69.6501 176.909 69.0001 176.819 68.8701L176.879 68.76C176.479 68.89 176.369 68.9001 176.099 68.8101C175.929 69.0101 175.759 70.06 175.549 69.77C175.689 69.36 175.579 69.4299 175.479 69.4099C175.549 69.3499 175.589 69.1999 175.509 68.8999C175.469 69.0299 175.439 69.0999 175.399 69.1699C175.399 69.1399 175.399 69.1101 175.409 69.0701C175.229 69.2001 175.239 69.3299 175.309 69.3999C175.299 69.4599 175.289 69.5499 175.299 69.6599C175.209 69.0999 174.849 69.6299 174.929 68.9099C174.439 69.0099 174.009 69.7099 173.589 69.9399C173.589 69.5599 173.729 69.2501 173.859 69.1201L173.569 69.22C173.639 68.69 173.769 68.9401 173.869 68.8401C173.659 67.9401 173.079 69.61 172.799 68.77L172.669 69.1799V69.1101C172.629 69.3301 172.499 69.6199 172.439 69.6899C172.439 69.2199 172.579 68.6199 172.389 68.6299C172.299 68.1599 171.939 68.8 171.709 69.02C171.809 69.11 171.739 69.36 171.669 69.52C171.569 69.52 171.579 69.05 171.479 69.24L171.549 68.6101C171.509 69.2001 171.219 69.21 171.159 69.47C171.159 69 171.359 69.09 171.419 68.74C171.029 68.75 171.229 68.74 170.839 68.76C170.579 69.21 170.799 69.3599 170.639 69.8899C170.449 69.9899 170.219 70.4 170.059 70V70.5601C169.669 70.9501 169.479 70.86 169.319 70.27C166.299 74.5 168.059 76.3899 168.059 76.3899C168.879 77.7299 169.569 76.1799 170.769 75.8899L170.749 75.9199Z" fill="#20BB65"/>
<path d="M221.609 82.24L221.569 82.48C221.619 82.39 221.649 82.29 221.609 82.24Z" fill="#20BB65"/>
<path d="M237.559 95.25C237.559 95.25 237.589 95.25 237.609 95.23C237.589 95.23 237.569 95.23 237.559 95.25Z" fill="#20BB65"/>
<path d="M220.249 90.51C220.249 90.51 220.219 90.53 220.199 90.55L220.249 90.51Z" fill="#20BB65"/>
<path d="M217.389 88.1699C218.119 88.8599 217.799 89.95 218.869 90.04C219.239 90.34 219.779 90.39 220.239 90.51C220.869 89.9 220.769 90.8001 221.349 90.3501L221.179 90.8101C221.379 90.6501 221.559 90.5701 221.489 90.8401L221.409 90.95C221.719 90.72 221.729 90.9801 221.879 90.8601L221.799 90.97L221.969 91.01L221.839 91.1599C222.239 90.9599 222.459 91.0701 222.539 91.3301L222.849 90.8401C222.849 91.6301 223.669 90.7401 223.569 91.6001L223.479 91.71C224.789 90.76 223.529 93.0099 224.809 92.1599C224.649 92.2699 224.649 92.42 224.559 92.53C224.849 92.54 225.109 92.63 225.809 91.73C225.949 91.85 225.709 92.1 225.459 92.46C225.759 92.06 226.019 92.0001 226.149 92.0601L225.979 92.1699L226.399 92.29L226.919 91.5C226.919 91.85 226.249 92.4299 226.549 92.3899L227.039 91.78C227.179 92.09 226.559 93.12 226.409 93.74C227.069 94.71 229.359 94.1101 229.179 95.8701L228.799 96.3201C228.209 96.9401 229.909 95.63 229.379 96.22L229.749 96.03C229.659 96.16 229.599 96.3299 229.419 96.4199C229.469 96.5299 229.579 96.4301 229.819 96.3101L229.519 96.77C229.519 97.38 230.539 96.96 230.709 97.45C230.259 98.61 231.709 98.7299 232.549 98.8999C233.329 98.8599 233.219 99.57 233.059 100.25C232.909 100.94 232.779 101.57 233.629 101.55C233.539 101.64 233.809 101.55 233.889 101.5L234.219 102.25C234.219 102.25 234.339 102.46 234.569 102.7C234.799 102.94 235.149 103.2 235.649 103.28C236.159 103.36 236.819 103.26 237.649 102.76C238.479 102.26 239.479 101.36 240.579 99.6899L240.749 99.6201C240.889 98.9201 240.779 98.56 239.779 98.74C240.729 98.09 239.649 98.3 239.889 98L239.979 97.96C239.059 98.17 240.239 96.9699 239.389 97.1499C239.469 97.1099 239.739 96.94 239.799 96.99C239.539 96.88 239.149 96.7601 239.689 96.3701C239.219 96.0101 239.029 95.17 237.939 95.54L238.099 95.45C237.399 95.73 237.849 95.3101 237.429 95.3501C237.489 95.2901 237.519 95.25 237.549 95.23C236.849 95.5 237.069 94.8001 236.729 94.8501L237.069 94.5601C236.959 94.4701 236.839 94.38 236.719 94.29L236.749 94.47C235.769 95.21 237.129 93.73 236.319 94C236.239 93.67 234.009 95.2101 234.279 94.6001C233.759 94.8701 235.059 94.08 234.589 94.21C235.059 93.78 234.949 94.0199 235.299 93.6399C234.939 93.6799 235.559 92.94 235.059 93.04L235.419 92.7C234.519 93.07 235.459 91.78 234.669 92.21C234.129 92.24 235.569 91.0099 234.619 91.4199L234.999 90.8401C234.959 90.6501 234.329 91.34 234.439 90.99C234.749 90.7 234.519 90.5899 234.879 90.3799C235.049 89.6199 233.639 90.48 234.029 89.3C233.379 89.82 233.519 89.2799 233.039 89.6799C233.269 89.4099 232.689 89.2799 233.429 88.9099C233.489 88.8799 233.519 88.91 233.429 89.02L233.789 88.6799C234.179 87.7899 233.029 88.6799 232.909 88.3799C232.869 88.5599 232.989 88.6101 232.699 88.8101L232.539 88.5801L232.859 88.3101L232.709 87.8501L232.419 88.27C232.439 87.94 232.949 87.2299 232.299 87.6299C231.959 87.8699 231.999 88.27 231.729 88.26C231.749 87.83 231.769 87.1701 231.599 86.8301C231.259 87.2901 231.199 87.22 231.059 87.25L231.369 86.8601C230.649 87.1601 231.949 85.9201 231.319 86.1201L231.559 85.8701L230.839 86.6201C229.969 87.1901 231.339 85.7 230.219 86.54C230.389 86.56 229.599 87.4499 229.589 87.1699L229.919 86.8201C229.779 86.8401 229.629 86.9801 229.639 86.8601C229.839 86.6901 230.089 86.32 229.929 86.3L230.369 85.8799L229.619 86.4199C229.769 85.8799 229.109 86.2001 229.449 85.6001C229.449 85.6001 229.289 85.0601 228.759 85.6001C229.099 85.2801 229.009 84.9901 229.379 84.6001C228.979 84.9501 228.449 85.1101 228.659 84.5701L228.719 84.53C228.619 83.77 227.559 84.6601 227.569 83.8401C227.259 84.3301 227.239 83.9401 226.879 84.5801C226.089 84.9401 226.989 82.8599 225.599 84.6799C225.359 84.6799 225.679 84.0899 225.649 83.9399L225.759 83.8701C225.329 83.8101 225.219 83.7701 224.999 83.5701C224.759 83.6801 224.179 84.58 224.099 84.22C224.389 83.9 224.259 83.9201 224.179 83.8701C224.269 83.8501 224.359 83.7199 224.399 83.4199C224.319 83.5199 224.249 83.5801 224.189 83.6201C224.209 83.5901 224.219 83.57 224.239 83.53C224.019 83.57 223.979 83.7 224.019 83.79C223.979 83.84 223.949 83.92 223.909 84.03C224.049 83.48 223.489 83.8199 223.839 83.1899C223.339 83.0799 222.659 83.5601 222.169 83.6101C222.309 83.2601 222.559 83.02 222.729 82.95L222.409 82.9299C222.679 82.4599 222.709 82.7399 222.839 82.6899C222.959 81.7699 221.799 83.1 221.839 82.21L221.559 82.54V82.47C221.469 82.67 221.239 82.8899 221.159 82.9299C221.329 82.4899 221.679 81.9799 221.489 81.9099C221.559 81.4399 220.989 81.91 220.689 82.03C220.749 82.15 220.599 82.36 220.479 82.49C220.389 82.46 220.549 82.0199 220.389 82.1599L220.669 81.6001C220.429 82.1401 220.149 82.05 219.989 82.26C220.159 81.82 220.309 81.9699 220.489 81.6699C220.109 81.5399 220.299 81.6 219.919 81.47C219.519 81.8 219.679 82.02 219.339 82.46C219.119 82.49 218.769 82.7901 218.749 82.3601L218.559 82.8899C218.059 83.1299 217.909 82.9899 217.949 82.3799C215.819 83.8799 215.069 85.25 214.809 86.22C214.549 87.19 214.779 87.77 214.779 87.77C215.059 89.28 216.189 88.0099 217.379 88.1499L217.389 88.1699Z" fill="#20BB65"/>
<path d="M245.739 126.08L245.499 126.14C245.609 126.14 245.699 126.14 245.739 126.08Z" fill="#20BB65"/>
<path d="M241.789 145.84C241.789 145.84 241.819 145.86 241.829 145.87C241.819 145.85 241.799 145.84 241.789 145.84Z" fill="#20BB65"/>
<path d="M237.649 128.26C237.649 128.26 237.619 128.24 237.589 128.23L237.649 128.26Z" fill="#20BB65"/>
<path d="M238.609 124.69C238.259 125.63 237.169 125.79 237.509 126.81C237.379 127.27 237.579 127.79 237.649 128.27C238.459 128.59 237.589 128.87 238.259 129.23L237.769 129.27C237.999 129.39 238.139 129.52 237.869 129.57L237.729 129.55C238.069 129.73 237.829 129.85 237.999 129.95L237.859 129.92L237.899 130.09L237.709 130.03C238.059 130.32 238.049 130.57 237.839 130.75L238.419 130.82C237.709 131.17 238.859 131.54 238.029 131.82L237.889 131.79C239.309 132.58 236.729 132.42 238.049 133.22C237.879 133.12 237.749 133.19 237.609 133.16C237.729 133.44 237.759 133.72 238.879 133.94C238.829 134.12 238.499 134.02 238.059 133.96C238.549 134.06 238.719 134.26 238.729 134.4L238.549 134.3L238.629 134.74L239.569 134.85C239.259 135.01 238.429 134.67 238.609 134.92L239.379 135.08C239.159 135.35 237.969 135.28 237.339 135.44C236.759 136.54 238.379 138.3 236.749 139.07L236.169 138.97C235.339 138.77 237.319 139.6 236.539 139.44L236.879 139.67C236.719 139.67 236.539 139.7 236.369 139.59C236.309 139.7 236.439 139.74 236.669 139.89H236.119C235.589 140.23 236.469 140.9 236.129 141.34C234.919 141.62 235.539 143 235.899 143.82C236.829 145.12 233.259 145.09 234.329 146.45C234.209 146.45 234.439 146.61 234.529 146.64L234.129 147.43C234.129 147.43 233.689 148.4 234.219 149.31C234.749 150.2 236.239 151.08 240.159 150.69L240.329 150.77C240.929 150.45 241.139 150.18 240.359 149.53C241.469 149.86 240.609 149.17 240.999 149.18L241.089 149.22C240.349 148.64 241.989 148.85 241.339 148.31C241.419 148.35 241.719 148.46 241.719 148.53C241.649 148.28 241.509 147.91 242.149 148.11C242.149 147.56 242.669 146.95 241.749 146.31L241.919 146.39C241.289 145.99 241.889 146.12 241.609 145.81C241.699 145.83 241.739 145.82 241.779 145.84C241.159 145.43 241.849 145.23 241.609 144.98L242.039 145.1L242.059 144.67L241.919 144.79C240.759 144.38 242.739 144.71 242.069 144.2C242.299 143.97 239.789 142.94 240.449 142.83C239.939 142.54 241.309 143.21 240.939 142.89C241.549 143.06 241.299 143.09 241.799 143.19C241.559 142.91 242.519 143.05 242.169 142.69L242.649 142.82C241.859 142.26 243.449 142.4 242.669 141.96C242.369 141.53 244.159 142.13 243.309 141.53L243.989 141.57C244.129 141.45 243.219 141.25 243.579 141.17C243.989 141.29 243.959 141.05 244.319 141.25C245.059 141.04 243.609 140.26 244.819 140.05C244.049 139.74 244.589 139.62 243.999 139.39C244.349 139.46 244.169 138.91 244.869 139.37C244.929 139.41 244.899 139.45 244.769 139.41L245.239 139.56C246.199 139.5 244.869 138.93 245.069 138.68C244.889 138.73 244.909 138.84 244.599 138.69L244.729 138.45L245.119 138.6L245.449 138.27L244.939 138.21C245.239 138.08 246.099 138.21 245.439 137.83C245.069 137.64 244.729 137.86 244.619 137.62C245.009 137.45 245.609 137.18 245.829 136.88C245.259 136.79 245.299 136.71 245.209 136.59L245.699 136.68C245.099 136.19 246.799 136.78 246.339 136.32L246.669 136.42L245.669 136.12C244.769 135.61 246.719 136.16 245.469 135.55C245.529 135.7 244.379 135.4 244.629 135.27L245.089 135.41C245.009 135.3 244.819 135.23 244.929 135.19C245.169 135.3 245.609 135.36 245.559 135.2L246.129 135.41L245.309 134.98C245.849 134.88 245.279 134.44 245.959 134.49C245.959 134.49 246.369 134.12 245.659 133.89C246.099 134.06 246.309 133.85 246.829 134.02C246.339 133.81 245.969 133.41 246.539 133.37L246.599 133.41C247.239 133.01 245.979 132.44 246.729 132.11C246.159 132.04 246.499 131.86 245.759 131.8C245.099 131.24 247.369 131.19 245.129 130.7C245.039 130.48 245.699 130.53 245.829 130.44L245.939 130.51C245.809 130.1 245.799 129.98 245.889 129.7C245.689 129.53 244.639 129.38 244.919 129.15C245.329 129.28 245.259 129.17 245.279 129.07C245.339 129.14 245.489 129.18 245.789 129.08C245.659 129.05 245.589 129.01 245.519 128.98C245.549 128.98 245.579 128.98 245.619 128.98C245.489 128.8 245.359 128.82 245.289 128.88C245.229 128.87 245.139 128.87 245.019 128.88C245.579 128.78 245.039 128.42 245.759 128.48C245.639 127.98 244.929 127.56 244.689 127.14C245.069 127.13 245.389 127.25 245.519 127.38L245.409 127.08C245.939 127.13 245.699 127.27 245.799 127.37C246.699 127.1 245.009 126.6 245.829 126.26L245.409 126.15L245.479 126.13C245.259 126.11 244.959 126 244.889 125.94C245.359 125.92 245.959 126.02 245.949 125.82C246.409 125.69 245.759 125.36 245.519 125.14C245.429 125.25 245.179 125.19 245.019 125.14C245.019 125.04 245.479 125.01 245.289 124.92L245.919 124.95C245.329 124.95 245.289 124.66 245.039 124.61C245.509 124.58 245.429 124.78 245.789 124.83C245.749 124.43 245.769 124.63 245.729 124.23C245.259 124 245.129 124.24 244.589 124.12C244.469 123.93 244.039 123.74 244.429 123.54L243.869 123.59C243.449 123.23 243.519 123.04 244.089 122.82C241.829 121.51 240.269 121.43 239.289 121.59C238.299 121.76 237.879 122.2 237.879 122.2C236.639 123.07 238.239 123.55 238.619 124.68L238.609 124.69Z" fill="#20BB65"/>
<path d="M230.959 171.34L230.739 171.25C230.839 171.3 230.919 171.34 230.959 171.34Z" fill="#20BB65"/>
<path d="M228.839 175.59C228.839 175.59 228.859 175.61 228.879 175.62L228.839 175.59Z" fill="#20BB65"/>
<path d="M223.649 168.41C223.649 168.41 223.619 168.39 223.599 168.38L223.649 168.41Z" fill="#20BB65"/>
<path d="M224.639 167.88C224.279 167.97 223.279 167.53 223.559 167.95C223.429 168.02 223.589 168.24 223.649 168.41C224.379 168.85 223.589 168.55 224.189 168.93L223.749 168.73C223.949 168.86 224.089 168.96 223.849 168.86L223.729 168.79C224.039 168.99 223.829 168.92 223.979 169.02L223.859 168.95L223.899 169.02L223.729 168.92C224.039 169.15 224.039 169.21 223.859 169.18L224.379 169.44C223.749 169.24 224.799 169.83 224.069 169.57L223.949 169.5C225.249 170.32 222.929 169.2 224.149 169.99C223.999 169.89 223.879 169.86 223.759 169.79C223.879 169.92 223.919 170.02 224.939 170.55C224.899 170.58 224.609 170.42 224.209 170.22C224.649 170.45 224.819 170.58 224.829 170.63L224.669 170.53L224.769 170.7L225.619 171.12C225.349 171.04 224.589 170.6 224.769 170.75L225.459 171.11C225.289 171.11 224.219 170.6 223.669 170.39C223.239 170.5 224.849 171.71 223.499 171.32L222.969 171.06C222.209 170.66 224.059 171.72 223.349 171.36L223.679 171.57C223.539 171.51 223.389 171.45 223.219 171.34C223.179 171.35 223.299 171.42 223.519 171.56L223.029 171.34C222.609 171.25 223.469 171.82 223.229 171.84C222.199 171.46 222.949 172.18 223.389 172.6C224.409 173.41 221.279 172.03 222.459 172.93C222.349 172.88 222.579 173.03 222.669 173.07L222.459 173.2C222.459 173.2 221.689 173.97 228.309 176.64L228.469 176.73C228.929 176.84 229.049 176.82 228.259 176.3C229.279 176.83 228.409 176.27 228.749 176.42L228.829 176.47C228.079 175.98 229.549 176.68 228.879 176.25C228.959 176.3 229.239 176.45 229.249 176.47C229.149 176.36 228.949 176.17 229.549 176.48C229.449 176.29 229.809 176.28 228.899 175.71L229.059 175.8C228.439 175.42 228.989 175.7 228.689 175.48C228.769 175.52 228.809 175.54 228.839 175.55C228.229 175.17 228.809 175.37 228.559 175.19L228.949 175.4L228.899 175.26H228.799C227.719 174.66 229.509 175.54 228.839 175.11C229.009 175.12 226.649 173.8 227.219 174.02C226.729 173.72 228.029 174.48 227.659 174.23C228.219 174.53 227.999 174.44 228.459 174.67C228.209 174.49 229.069 174.91 228.719 174.65L229.159 174.88C228.389 174.39 229.809 175.06 229.059 174.61C228.729 174.35 230.389 175.25 229.569 174.72L230.179 175.01C230.289 175.03 229.459 174.6 229.769 174.72C230.139 174.92 230.089 174.83 230.439 175.04C231.069 175.27 229.689 174.44 230.739 174.86C230.019 174.45 230.479 174.63 229.939 174.32C230.259 174.48 230.049 174.24 230.709 174.66C230.759 174.69 230.749 174.7 230.619 174.63L231.049 174.86C231.899 175.23 230.659 174.51 230.809 174.52C230.659 174.46 230.679 174.51 230.389 174.33L230.479 174.31L230.839 174.51L231.099 174.54L230.639 174.31C230.889 174.39 231.669 174.78 231.049 174.4C230.699 174.19 230.419 174.12 230.299 174C230.639 174.11 231.139 174.27 231.309 174.27C230.799 174.01 230.829 174 230.729 173.93L231.169 174.16C230.589 173.77 232.159 174.64 231.709 174.31L232.009 174.48L231.099 173.98C230.259 173.46 232.029 174.42 230.879 173.73C230.939 173.8 229.899 173.24 230.109 173.3L230.529 173.53C230.449 173.46 230.269 173.36 230.369 173.4C230.589 173.53 230.989 173.73 230.929 173.66L231.449 173.96L230.689 173.5C231.169 173.7 230.629 173.33 231.239 173.63C231.239 173.63 231.579 173.69 230.929 173.33C231.329 173.56 231.509 173.59 231.979 173.86C231.529 173.6 231.189 173.33 231.689 173.56L231.739 173.59C232.299 173.75 231.139 173.06 231.799 173.28C231.279 173.02 231.589 173.12 230.929 172.79C230.329 172.36 232.359 173.31 230.339 172.23C230.249 172.13 230.839 172.42 230.959 172.46L231.059 172.53C230.939 172.36 230.929 172.33 231.009 172.3C230.829 172.17 229.889 171.68 230.139 171.74C230.509 171.95 230.449 171.89 230.459 171.87C230.509 171.91 230.649 171.99 230.909 172.09C230.799 172.02 230.729 171.98 230.669 171.95C230.699 171.96 230.719 171.98 230.759 172C230.649 171.9 230.529 171.84 230.469 171.83C230.409 171.8 230.339 171.77 230.229 171.71C230.729 171.92 230.249 171.6 230.889 171.92C230.789 171.74 230.159 171.33 229.959 171.12C230.299 171.28 230.579 171.45 230.699 171.54L230.609 171.42C231.089 171.66 230.869 171.59 230.949 171.66C231.759 171.98 230.259 171.12 231.009 171.4L230.639 171.19L230.709 171.22C230.509 171.12 230.249 170.96 230.189 170.92C230.609 171.12 231.149 171.41 231.139 171.36C231.559 171.53 230.989 171.17 230.789 171.01C230.709 171 230.479 170.87 230.339 170.79C230.339 170.76 230.759 170.96 230.589 170.86L231.149 171.14C230.619 170.88 230.609 170.8 230.379 170.67C230.799 170.87 230.719 170.88 231.029 171.05C231.029 170.94 231.029 171 231.019 170.89C230.619 170.63 230.479 170.63 229.999 170.36C229.909 170.27 229.539 170.03 229.899 170.16L229.389 169.92C229.039 169.65 229.119 169.64 229.649 169.85C225.859 167.26 224.149 166.93 224.149 166.93C222.939 166.58 224.339 167.42 224.599 167.86L224.639 167.88Z" fill="#20BB65"/>
</svg>
