<svg width="56" height="37" viewBox="0 0 56 37" fill="none" xmlns="http://www.w3.org/2000/svg">
<path d="M2.22021 4.65019C2.48021 4.83019 2.75029 4.41026 2.67029 4.48026C2.59029 4.31026 2.30021 4.63019 2.22021 4.65019Z" fill="#00B14F"/>
<path d="M6.56032 10.3705C6.36032 10.1505 6.50032 10.6705 6.56032 10.3705V10.3705Z" fill="#00B14F"/>
<path d="M8.74023 13.4802C8.87023 13.4102 8.98023 13.1302 9.11023 12.9802L8.79028 12.8604C8.79028 13.0404 8.90022 13.3202 8.73022 13.4802H8.74023Z" fill="#00B14F"/>
<path d="M9.12024 12.9801L9.59021 13.16C9.38021 12.84 9.23024 12.8601 9.12024 12.9801Z" fill="#00B14F"/>
<path d="M9.75024 14.79L9.32019 14.8101L10.0103 14.8301L9.75024 14.79Z" fill="#00B14F"/>
<path d="M10.4702 15.6104C10.1302 15.6504 10.2402 16.1103 9.98022 16.0703C10.2002 16.2703 10.5602 16.3204 10.8802 16.3604C10.6302 16.2504 10.5002 16.0204 10.4802 15.6104H10.4702Z" fill="#00B14F"/>
<path d="M11.3702 16.4504C11.2402 16.4004 11.0602 16.3806 10.8802 16.3506C11.0102 16.4106 11.1702 16.4504 11.3702 16.4504Z" fill="#00B14F"/>
<path d="M9.8502 14.3203L10.0802 13.9202C10.0802 13.9202 10.0102 13.8303 9.9802 13.7803C9.9302 13.8603 9.7802 14.0603 9.8502 14.3103V14.3203Z" fill="#00B14F"/>
<path d="M10.0902 13.9102C10.1902 14.0802 10.2703 14.1802 10.3003 14.2302C10.2703 14.1902 10.2102 14.1002 10.1002 13.9102H10.0902Z" fill="#00B14F"/>
<path d="M9.96021 13.7506L9.99023 13.7806C9.99023 13.7806 10.0202 13.7206 9.96021 13.7506Z" fill="#00B14F"/>
<path d="M9.71021 13.05L10.2502 13.25L10.0403 12.8301C9.96028 12.9101 9.88021 13.07 9.71021 13.05Z" fill="#00B14F"/>
<path d="M10.4902 13.3501L10.2502 13.25L10.3202 13.4099L10.4902 13.3501Z" fill="#00B14F"/>
<path d="M11.2002 15.5903C11.4702 15.6303 11.6103 15.7902 11.7903 15.9602C11.6903 15.7002 11.5603 15.4603 11.4003 15.2603C11.2703 15.3103 11.0102 15.3703 11.2002 15.5903Z" fill="#00B14F"/>
<path d="M10.6902 14.7504L10.7402 14.7704C10.7402 14.7704 10.7402 14.7004 10.6902 14.7504Z" fill="#00B14F"/>
<path d="M13.2703 17.8506C13.2703 17.8506 13.3003 17.8005 13.3103 17.7705L13.2502 17.8105L13.2803 17.8506H13.2703Z" fill="#00B14F"/>
<path d="M11.4303 15.1804C11.3703 14.9704 11.2203 14.9504 11.0503 14.9404C11.1703 15.0304 11.2903 15.1305 11.4003 15.2605C11.4603 15.2405 11.4902 15.2104 11.4402 15.1804H11.4303Z" fill="#00B14F"/>
<path d="M11.9402 16.8506C11.9402 16.7106 11.9403 16.5804 11.9103 16.4404C11.8703 16.6004 11.8302 16.8906 11.9402 16.8506Z" fill="#00B14F"/>
<path d="M10.6803 14.8901H10.6502C10.6202 14.9901 10.6503 14.9501 10.6803 14.8901Z" fill="#00B14F"/>
<path d="M10.6803 14.8901C10.7903 14.9301 10.9203 14.9302 11.0503 14.9302C10.9503 14.8602 10.8402 14.8003 10.7302 14.7603C10.7302 14.8003 10.7003 14.8501 10.6803 14.8801V14.8901Z" fill="#00B14F"/>
<path d="M12.8103 17.0703L12.6603 16.9502C12.7403 17.1602 12.7103 17.3803 12.6403 17.7903C12.9803 17.9103 13.1403 17.8703 13.2603 17.8103L12.7402 17.0603H12.8302L12.8103 17.0703Z" fill="#00B14F"/>
<path d="M13.1503 18.0503L12.7402 18.2603L13.5002 18.1902L13.1503 18.0503Z" fill="#00B14F"/>
<path d="M13.4602 18.9905L13.8003 19.0405L13.7903 18.7705L13.4602 18.9905Z" fill="#00B14F"/>
<path d="M31.8302 31.9404C32.3702 31.8604 33.1902 31.7605 32.8302 31.5005L32.4303 31.3105C32.2503 31.6505 32.0402 31.8404 31.8402 31.9404H31.8302Z" fill="#00B14F"/>
<path d="M19.9702 26.3603C20.0002 26.6803 20.0803 26.8903 20.1803 27.0503C20.1803 26.6403 20.3002 26.2003 19.9702 26.3603Z" fill="#00B14F"/>
<path d="M52.1602 6.40022C52.1802 6.25022 52.1102 6.19028 51.9802 6.21028C51.9502 6.36028 51.9902 6.45022 52.1602 6.40022Z" fill="#00B14F"/>
<path d="M20.1803 27.0605C20.1803 27.3605 20.2703 27.6504 20.6703 27.6804C20.6703 27.6204 20.6703 27.5705 20.6703 27.5005C20.4903 27.3905 20.3202 27.2705 20.1902 27.0605H20.1803Z" fill="#00B14F"/>
<path d="M7.13025 0.980388C7.22025 0.950388 7.36024 0.950359 7.50024 0.950359C7.43024 0.920359 7.32025 0.920388 7.13025 0.980388Z" fill="#00B14F"/>
<path d="M16.0203 21.9099C15.8703 21.7699 15.9603 21.9099 16.0203 21.9099V21.9099Z" fill="#00B14F"/>
<path d="M15.9802 21.5503C15.9802 21.6403 16.0003 21.7403 16.0403 21.8303C16.0403 21.7803 16.0202 21.6903 15.9802 21.5503Z" fill="#00B14F"/>
<path d="M15.8502 21.71C15.8202 21.64 15.8002 21.59 15.7702 21.54C15.7002 21.56 15.6802 21.61 15.8502 21.71Z" fill="#00B14F"/>
<path d="M16.2102 22.1201C16.1302 22.0301 16.0803 21.9401 16.0403 21.8301C16.0403 21.8801 16.0403 21.9099 16.0103 21.9099C16.0503 21.9499 16.1102 22.0101 16.2002 22.1201H16.2102Z" fill="#00B14F"/>
<path d="M54.3903 1.39014L54.7302 1.24023C53.7502 1.13023 52.7103 1.49034 51.8003 1.85034C51.7203 1.75034 52.1102 1.60027 52.2502 1.53027C51.1302 1.21027 50.6503 1.28026 48.6603 2.02026L49.0002 1.53027C48.6902 1.67027 48.3103 1.4803 47.6603 1.3103C47.0303 1.1503 46.0802 1.0203 45.1902 1.3103C45.2202 1.2503 45.2803 1.16033 45.4303 1.09033C44.9203 1.23033 44.4403 1.22014 43.9203 1.14014C43.5603 1.06014 43.2303 0.930322 42.9103 0.830322C42.2703 0.630322 41.7302 0.590234 41.5002 1.49023L40.6902 1.93018C41.7402 2.08018 40.5302 2.71025 40.9602 3.01025C40.5502 3.11025 39.9003 2.46036 40.4003 2.37036L40.4802 2.46021C40.6702 1.52021 39.1802 2.12022 39.2102 1.48022C37.1402 1.51022 35.1302 0.980166 33.2002 0.920166L33.4203 1.65015L32.7502 1.60034C32.5702 1.43034 32.5202 1.0303 33.0002 1.0603C32.7502 0.640303 32.1903 1.4003 32.1803 1.5603C31.2403 1.2603 32.5503 0.710186 32.2703 0.690186L31.8802 0.740234L31.9702 0.830322C31.6502 1.13032 31.6203 1.44015 31.0403 1.40015C30.6703 1.25015 30.8602 0.950166 30.7102 0.920166C30.7102 0.870166 30.6602 0.840146 30.4902 0.900146L29.6403 0.830322L29.9502 1.36035C29.6702 1.49035 28.8403 1.40019 28.0403 1.44019C27.2303 1.40019 26.4002 1.49035 26.1202 1.36035L26.4303 0.830322L25.5802 0.900146C25.4102 0.850146 25.3602 0.870166 25.3602 0.920166C25.2202 0.950166 25.4003 1.25015 25.0303 1.40015C24.4503 1.44015 24.4202 1.12032 24.1002 0.830322L24.1902 0.740234L23.8003 0.690186C23.5103 0.710186 24.8303 1.2603 23.8903 1.5603C23.8803 1.4003 23.3203 0.640303 23.0603 1.0603C23.4003 1.0403 23.4703 1.23016 23.4103 1.41016C23.2003 1.35016 22.9703 1.28035 22.7903 1.11035L22.8502 0.920166C22.7902 0.920166 22.7303 0.930176 22.6703 0.930176C22.6403 0.890176 22.6102 0.860312 22.5902 0.820312C22.6202 0.860312 22.6303 0.900186 22.6403 0.940186C21.8103 0.980186 20.9702 1.0902 20.1202 1.2002C19.2902 1.1202 18.3802 0.760361 17.4502 0.870361C17.4302 1.02036 17.5702 1.2302 17.4502 1.4502C17.3902 1.4502 17.3203 1.4502 17.2603 1.4502L16.6403 0.690186C16.3703 0.770186 16.3803 1.70033 15.9003 1.09033C15.9703 1.24033 16.0703 1.46026 15.8903 1.52026C15.4203 1.37026 14.9402 1.29024 14.4602 1.25024C14.2002 0.590244 13.7002 0.640303 13.1302 0.810303C12.8102 0.910303 12.4802 1.04036 12.1202 1.12036C11.6002 1.20036 11.1202 1.21031 10.6102 1.07031C10.7602 1.14031 10.8202 1.23028 10.8502 1.29028C10.3002 1.11028 9.73022 1.10016 9.22021 1.16016C8.72021 1.04016 8.21021 0.850293 7.72021 0.550293C8.09021 0.890293 7.8403 0.930186 7.5603 0.940186C7.7203 1.01019 7.60021 1.30027 7.59021 1.53027C7.55021 1.54027 7.51021 1.54029 7.47021 1.55029L6.4502 0.950195C6.2802 1.4802 5.61027 1.19013 5.28027 1.38013C4.77027 1.31013 4.3703 1.38027 3.8103 1.53027C3.9503 1.61027 4.34025 1.75034 4.26025 1.85034C3.35025 1.49034 2.3102 1.13023 1.3302 1.24023L1.67029 1.39014L0.280273 1.34033L0.540283 1.7002C2.10028 2.4102 2.02024 2.69015 2.12024 3.15015C2.20024 3.59015 2.48022 4.26028 3.98022 4.79028C3.43022 4.82028 4.01021 5.7702 4.09021 6.2002C4.18021 6.2102 4.30021 6.25032 4.46021 6.33032C4.1002 6.54032 4.54028 6.98035 5.04028 7.36035C5.56028 7.75035 6.1403 8.08035 6.3103 8.36035C6.3903 8.78035 6.0102 8.71034 5.5802 8.60034C6.2502 8.92034 6.48019 9.48035 6.69019 10.1104C6.72019 10.2004 6.75027 10.2901 6.78027 10.3801C6.74027 10.3501 6.69026 10.3203 6.64026 10.2703C6.64026 10.3203 6.63024 10.3304 6.62024 10.3604C6.66024 10.4104 6.71027 10.4703 6.78027 10.5903C6.80027 10.5703 6.8102 10.5503 6.8302 10.5403C6.8802 10.7003 6.93022 10.8502 6.98022 10.9802C7.02022 11.0802 7.06021 11.1702 7.09021 11.2402C7.10021 11.2602 7.12026 11.2603 7.14026 11.2703C7.14026 11.4303 7.23021 11.6304 7.09021 11.6104C7.43021 11.8304 7.5102 11.6804 7.5802 11.3604C7.6702 11.3004 7.77023 11.2101 7.86023 11.1301L8.02026 11.2002C8.07026 11.1002 8.1802 10.9903 7.9502 11.0603C8.0002 11.0203 8.05023 10.9902 8.11023 10.9702C8.17023 11.0802 8.17026 11.1803 8.14026 11.2603L8.01025 11.2002C7.98025 11.2602 8.00024 11.3003 8.12024 11.3003C7.95024 11.6803 7.17027 11.8204 8.03027 12.1104C8.01027 11.9804 7.92028 11.7903 8.04028 11.7903C8.31028 11.9603 9.5202 11.6002 9.9502 11.7302C9.7702 11.8402 9.69027 12.0502 9.28027 11.9802C9.45027 12.0002 9.66019 12.0803 9.82019 12.0703C10.0002 12.3203 10.4102 12.4002 10.7302 12.5002C10.7102 12.6302 10.6903 12.7403 10.6603 12.8103C10.7303 12.7203 10.7802 12.6203 10.8402 12.5303C11.1202 12.6203 11.2702 12.7403 10.9602 13.0503L10.5503 13.3003C11.7703 13.7903 10.7102 13.8003 11.8802 14.3503L11.9303 14.2903C12.1803 14.7403 12.8202 14.5803 12.3702 15.2603L12.1803 15.1902C12.3403 15.4302 12.4403 15.5502 12.5403 15.6702C12.4803 15.6702 12.4202 15.6701 12.3602 15.6401C12.9902 16.2701 12.0102 15.5902 12.2202 16.2402C12.0602 16.1502 11.9402 16.0402 11.8402 15.9402C11.9002 16.1002 11.9402 16.2602 11.9702 16.4202V16.3901C11.9902 16.3201 12.0103 16.2903 12.0103 16.3503C12.0103 16.3503 12.0203 16.3503 12.0303 16.3503C12.0803 16.3203 12.1303 16.3003 12.1803 16.2803C12.2703 16.5403 12.1203 16.3803 12.0303 16.3503C12.0103 16.3603 11.9902 16.3701 11.9702 16.3801L12.7002 16.9302C12.6302 16.7502 12.4803 16.5703 12.1803 16.2703C12.4803 16.1703 12.7702 16.2401 12.9802 16.1401C13.0002 16.1601 13.0103 16.1802 13.0403 16.2002C13.0303 16.3002 13.1402 16.6203 13.3202 16.5903C13.0802 16.8003 13.2603 17.1302 13.5103 17.4402C13.4503 17.5502 13.3902 17.6502 13.3502 17.7502C13.4402 17.6902 13.5402 17.6301 13.7102 17.6501C13.9302 17.8701 14.1502 18.0501 14.2302 18.1301C13.9802 17.6801 14.3503 17.6901 14.6403 17.6401C14.4203 18.2001 14.5103 18.4002 15.0603 18.4802C14.8603 18.6702 14.6502 18.8703 14.4902 19.0703C14.4402 19.0103 14.4102 18.9501 14.3802 18.8801C14.1502 19.3001 14.3302 19.1403 14.3202 19.3203C14.1402 19.6303 14.1002 19.9503 14.3502 20.2903C14.3602 20.1203 14.2902 19.9201 14.4702 19.8801C14.6502 19.8401 14.6302 20.1002 14.6202 20.1902C14.7602 20.1602 14.7602 19.9803 14.8802 19.8503C14.9102 19.8903 14.9402 19.9302 14.9702 19.9702C14.9302 20.3702 15.1403 20.5302 15.3903 20.7302C15.4503 20.9102 15.5003 21.1002 15.4003 21.4802C15.5503 21.3402 15.5903 21.0903 15.8003 21.5203C15.8603 21.5003 15.9502 21.4902 16.0002 21.4902C16.0002 21.5102 16.0002 21.5103 16.0002 21.5203V21.4802C16.0002 21.4802 16.0502 21.4802 16.0002 21.4702C16.0002 21.3302 16.0302 21.1903 16.0902 21.0903C16.1502 21.0803 16.2203 21.0803 16.2803 21.0903C16.0403 21.5303 17.6002 21.3503 16.5902 21.8103C16.8802 21.9603 17.1403 22.1701 17.4003 22.4001C17.3103 22.7001 17.2802 22.9702 16.8502 22.7302L17.2002 23.2102C17.2202 23.6402 17.4403 24.0802 17.7703 24.2002C17.8703 24.4802 18.6003 24.4502 18.1703 24.4802L18.9702 25.0403L18.8903 25.1204C19.4203 25.8804 20.6503 26.1502 20.6703 27.4902C20.9503 27.6602 21.2602 27.8303 21.4802 28.3203L21.2402 28.6401C21.5902 28.8701 21.6802 29.8202 22.1002 29.7102C21.8302 30.2202 22.0502 30.5903 22.4602 31.0203C23.1002 31.7503 23.8203 32.4102 24.1603 32.9902L24.4702 32.5603C24.9602 33.2303 25.5302 33.7202 26.1902 34.2302L26.2402 33.9102C26.3502 34.1202 26.4602 34.3503 26.5802 34.5903C26.9902 35.4203 27.5102 36.3601 27.9802 36.4001C27.9802 36.4001 27.9802 36.4002 27.9802 36.4102C27.9902 36.4102 28.0003 36.4102 28.0103 36.4102C28.0203 36.4102 28.0303 36.4102 28.0403 36.4102C28.0403 36.4102 28.0403 36.4101 28.0403 36.4001C28.5103 36.3501 29.0302 35.4103 29.4402 34.5903C29.8902 33.7003 30.2203 32.9303 30.8003 32.7803C30.9403 32.3403 31.1202 32.2201 31.3302 32.1301C31.3102 32.1601 31.3003 32.1902 31.2903 32.2202C31.3203 32.2002 31.3502 32.1604 31.3802 32.1104C31.5202 32.0604 31.6702 32.0102 31.8302 31.9302C31.6702 31.9602 31.5303 31.9903 31.4303 32.0403C31.5903 31.8203 31.8202 31.4503 31.9902 31.0603L32.4203 31.2903C32.4203 31.2903 32.4502 31.2402 32.4702 31.2102C32.8602 31.0102 32.5102 30.8002 32.1202 30.7002C32.1902 30.4902 32.2202 30.3004 32.2202 30.1204C33.0102 30.3804 32.4503 29.4202 33.2803 29.7102C33.0703 29.3202 33.8403 28.5301 33.2703 27.8901C33.3603 27.9501 33.4502 27.9303 33.3702 28.0403C33.6202 27.8803 33.8802 27.7201 33.8502 27.3801L34.4003 27.6702L34.1503 26.6702C34.6803 26.6102 34.9402 26.6302 35.0702 27.2102C35.0702 26.0602 35.3202 26.4702 35.2402 25.4302L35.5203 25.7102C35.6803 25.4902 35.5403 24.8201 35.9003 24.8901C36.8703 24.8901 37.8803 22.6103 39.4103 21.8303C38.3103 21.3303 40.2702 21.5902 39.6102 20.9802C39.8802 21.0802 40.1403 21.0104 40.1703 21.3604C40.4603 20.5704 41.2703 20.7003 41.0203 19.7903C41.2903 19.8903 41.2303 20.1802 41.4103 20.2202C41.4103 20.1302 41.3803 19.8702 41.5603 19.9102C41.7403 19.9502 41.6703 20.1503 41.6803 20.3203C42.1603 19.6603 41.5502 19.0603 40.9702 18.5103C41.5202 18.4303 41.6103 18.2302 41.3903 17.6702C41.6803 17.7202 42.0503 17.7102 41.8003 18.1602C42.0103 17.9602 43.1902 17.0404 42.7202 16.6204C42.9002 16.6504 43.0102 16.3402 43.0002 16.2302C43.4302 15.7602 43.5102 15.7502 43.8602 15.2202L43.6703 15.2903C43.2303 14.6103 43.8702 14.7703 44.1102 14.3203L44.1603 14.3801C45.3203 13.8301 44.2702 13.8203 45.4902 13.3303L45.0802 13.0803C44.3502 12.3503 46.1903 12.6702 46.3103 11.9102H45.9502C45.9002 11.4202 47.6803 12.0203 48.0103 11.8103C48.1303 11.8103 48.0403 12.0001 48.0203 12.1301C49.1003 11.7701 47.6102 11.6402 47.9402 10.9902C48.2902 11.1002 48.5002 11.6603 48.8502 11.3303C48.9002 11.3303 48.9302 11.3002 48.9602 11.2502C48.9902 11.1802 49.0302 11.0902 49.0702 10.9902C49.1702 10.7402 49.2602 10.4204 49.3702 10.1204C49.5802 9.49036 49.8102 8.93035 50.4802 8.61035C50.0502 8.73035 49.6602 8.79036 49.7502 8.37036C49.9202 8.08036 50.5003 7.76036 51.0203 7.37036C51.5303 6.99036 51.9602 6.56033 51.6002 6.34033C51.7602 6.26033 51.8802 6.22021 51.9702 6.21021C52.0402 5.78021 52.6302 4.84029 52.0802 4.80029C53.5802 4.26029 53.8602 3.60016 53.9402 3.16016C54.0302 2.70016 53.9603 2.42021 55.5203 1.71021L55.7803 1.35034L54.3903 1.40015V1.39014ZM15.5702 17.8801C15.5802 17.8201 15.5902 17.7402 15.6002 17.6702C15.4802 17.9402 15.3602 18.1401 15.2102 18.1301L15.0002 17.4001C15.1902 17.4101 15.4102 17.4502 15.6202 17.4202C15.6202 17.5002 15.6102 17.5902 15.6002 17.6702C15.6402 17.5902 15.6802 17.5002 15.7102 17.4102C15.7702 17.4002 15.8303 17.3703 15.8903 17.3403L16.0902 17.5903C15.9602 17.7903 15.8002 17.9204 15.5702 17.8704V17.8801ZM18.1503 20.2102C18.1503 20.2102 18.1302 20.2202 18.1202 20.2302C18.1102 20.2002 18.0902 20.1601 18.0802 20.1301L18.1503 20.2202V20.2102ZM26.5203 30.8503L26.6102 30.9702C26.5802 31.0702 26.5403 31.1703 26.5103 31.2703C26.5103 31.1303 26.5103 30.9904 26.5103 30.8604L26.5203 30.8503ZM29.3903 30.9802L29.4802 30.8704C29.4802 30.9904 29.4802 31.1102 29.4802 31.2302C29.4502 31.1502 29.4203 31.0602 29.4003 30.9702L29.3903 30.9802ZM10.0403 11.9102C10.0403 11.9102 10.0403 11.9001 10.0403 11.8901C10.0403 11.8901 10.0403 11.8902 10.0403 11.9102ZM17.7002 23.4102C17.7002 23.4102 17.7202 23.4102 17.7302 23.4102C17.7902 23.7902 17.7702 23.6502 17.7002 23.4102ZM28.1002 36.2302C28.1002 36.2302 28.1202 36.1801 28.1302 36.1501L28.0902 36.2502C28.0902 36.2502 28.0403 36.3103 28.0103 36.3303C27.9803 36.3103 27.9503 36.2802 27.9303 36.2502L27.8903 36.1501C27.8903 36.1501 27.9103 36.2002 27.9203 36.2302C27.8403 36.1402 27.7602 36.0203 27.7402 35.8503C27.7602 35.8803 27.7903 35.9102 27.8103 35.9402C27.8703 36.0302 27.9202 36.1302 27.9802 36.2102C27.9902 36.2002 28.0003 36.1802 28.0103 36.1702C28.0203 36.1802 28.0303 36.2002 28.0403 36.2102C28.1003 36.1202 28.1502 36.0302 28.2102 35.9402C28.2302 35.9102 28.2603 35.8903 28.2803 35.8503C28.2603 36.0203 28.1802 36.1402 28.1002 36.2302ZM30.6102 1.10034L30.7402 1.23022C30.4402 1.37022 30.5202 1.24034 30.6102 1.10034ZM33.4303 26.0002L33.7502 25.6104L34.1302 26.5603C33.9802 26.3903 33.7203 26.2003 33.4303 26.0103V26.0002ZM40.8003 18.1301C40.6603 18.1401 40.5403 17.9402 40.4103 17.6702C40.4103 17.7502 40.4202 17.8201 40.4402 17.8801C40.3002 17.9101 40.1802 17.8603 40.0802 17.7803L40.3302 17.4802C40.3602 17.5402 40.3903 17.6102 40.4103 17.6702C40.4103 17.5902 40.4003 17.4901 40.3903 17.4001L40.5002 17.2603C40.7302 17.2803 40.9303 17.2903 41.0403 17.2803L40.7903 18.1301H40.8003Z" fill="#00B14F"/>
<path d="M14.5503 20.4001L14.9203 20.6702C14.7703 20.5202 14.8103 20.3903 14.8003 20.2603C14.7203 20.3403 14.6403 20.5001 14.5503 20.4001Z" fill="#00B14F"/>
<path d="M16.6901 22.2305C16.6901 22.0505 16.2303 22.4806 16.3003 22.3106C15.7903 22.5006 17.3901 22.6905 16.6901 22.2305Z" fill="#00B14F"/>
<path d="M5.64026 0.420166L5.23022 0.200195L5.49023 0.550293L5.64026 0.420166Z" fill="#00B14F"/>
<path d="M4.85022 1.17041L4.76025 0.520508L4.51025 1.1106C4.60025 1.0806 4.78022 1.03041 4.85022 1.17041Z" fill="#00B14F"/>
<path d="M3.84023 6.40022C4.01023 6.44022 4.05028 6.36028 4.02028 6.21028C3.88028 6.19028 3.81023 6.25022 3.84023 6.40022Z" fill="#00B14F"/>
</svg>
