<svg width="432" height="134" viewBox="0 0 432 134" fill="none" xmlns="http://www.w3.org/2000/svg">
<path d="M8.63049 2.20044L8.41046 2.27051C8.52046 2.25051 8.61049 2.23044 8.63049 2.20044Z" fill="#20BB65"/>
<path d="M11.2105 10.7104C11.2105 10.7104 11.2405 10.7104 11.2605 10.7004C11.2405 10.7004 11.2305 10.7004 11.2105 10.7104Z" fill="#20BB65"/>
<path d="M1.43051 2.73036C1.22051 3.33036 0.180535 3.66033 0.710535 4.19033C0.670535 4.49032 0.980538 4.76039 1.15054 5.01039C2.00054 4.98039 1.23054 5.37028 1.96054 5.39028L1.50051 5.55043C1.75051 5.55043 1.92051 5.58032 1.68051 5.69032L1.54049 5.71034C1.91049 5.71034 1.72049 5.85048 1.91049 5.85048L1.77053 5.88027L1.85049 5.96034L1.65054 5.99037C2.06054 6.05037 2.11048 6.18048 1.97048 6.35048L2.53054 6.21034C1.96054 6.62034 3.15054 6.44049 2.46054 6.86049L2.32052 6.89028C3.87052 6.82028 1.4305 7.63045 2.9205 7.57045C2.7305 7.57045 2.64051 7.66033 2.50051 7.70033C2.70051 7.80033 2.8205 7.93027 3.9205 7.63027C3.9305 7.73027 3.60051 7.81032 3.18051 7.94032C3.66051 7.81032 3.88052 7.8403 3.94052 7.9103L3.7405 7.93032L3.97048 8.11049L4.8605 7.81044C4.6305 8.00044 3.76053 8.16034 4.02053 8.21034L4.77053 7.99037C4.67053 8.19037 3.56051 8.63034 3.06051 8.96034C2.95051 9.76034 5.08051 9.82028 4.00051 10.8903L3.46054 11.1205C2.66054 11.4305 4.71049 10.8503 3.98049 11.1503L4.37051 11.0805C4.23051 11.1505 4.10054 11.2504 3.90054 11.2904C3.90054 11.3704 4.03049 11.3204 4.29049 11.2704L3.82052 11.5304C3.54052 11.9404 4.58051 11.7903 4.50051 12.1403C3.63051 12.8803 4.82051 13.1204 5.50051 13.2204C6.87051 13.1504 4.06052 15.1804 5.63052 15.0404C5.53052 15.1104 5.79052 15.0304 5.88052 14.9804L6.00051 15.4804C6.00051 15.4804 6.22049 16.0604 7.10049 15.9904C7.99049 15.9404 9.49048 15.1404 12.2205 12.7504L12.3905 12.6703C12.6805 12.2603 12.7005 12.0903 11.8005 12.3903C12.8105 11.8303 11.8205 12.1703 12.1305 11.9503L12.2205 11.9103C11.3705 12.1903 12.7505 11.3305 11.9805 11.5705C12.0605 11.5305 12.3505 11.3903 12.3805 11.4103C12.2105 11.3903 11.9205 11.3905 12.5205 11.0805C12.2705 10.9505 12.4105 10.5405 11.3805 10.8605L11.5505 10.7904C10.8605 11.0204 11.4105 10.7404 11.0405 10.8004C11.1205 10.7604 11.1605 10.7404 11.1905 10.7204C10.5005 10.9304 10.9805 10.5205 10.6705 10.5805L11.0805 10.4003L10.9105 10.2704L10.8505 10.3705C9.72049 10.8405 11.5005 9.94027 10.7205 10.1303C10.8205 9.96027 8.27053 10.8804 8.77053 10.5204C8.21053 10.6804 9.65053 10.2204 9.21054 10.3004C9.80054 10.0504 9.60051 10.1904 10.0605 9.97035C9.74051 10.0004 10.6005 9.58028 10.1605 9.64028L10.6205 9.45033C9.72051 9.65033 11.1305 8.95032 10.2905 9.18032C9.85049 9.18032 11.6305 8.56039 10.6705 8.76039L11.2805 8.47035C11.3605 8.37035 10.4905 8.72041 10.7705 8.53041C11.1705 8.39041 11.0605 8.33036 11.4505 8.23036C12.0205 7.85036 10.4505 8.2303 11.4405 7.6603C10.6505 7.8903 11.0705 7.63042 10.4805 7.79042C10.8205 7.67042 10.4705 7.56032 11.2405 7.43032C11.3005 7.42031 11.3005 7.44036 11.1605 7.48036L11.6305 7.34047C12.4705 6.93047 11.0805 7.30028 11.1805 7.14028C11.0405 7.22028 11.0905 7.26046 10.7605 7.33046L10.7905 7.20033L11.1905 7.09047L11.3705 6.86049L10.8905 7.04042C11.1105 6.88042 11.9305 6.59036 11.2105 6.73036C10.8105 6.81036 10.5805 7.01035 10.4005 6.97035C10.7005 6.76035 11.1505 6.45041 11.2605 6.28041C10.7105 6.46041 10.7205 6.4103 10.6005 6.4103L11.0805 6.26039C10.3705 6.31039 12.1205 5.90031 11.5505 5.92031L11.8905 5.84047L10.8805 6.09047C9.89052 6.23047 11.8505 5.74035 10.5205 5.97035C10.6205 6.00035 9.47049 6.2903 9.66049 6.1603L10.1305 6.05043C10.0205 6.04043 9.82049 6.08041 9.91049 6.03041C10.1705 5.98041 10.5905 5.86045 10.4905 5.82045L11.0805 5.70033L10.2005 5.83046C10.6805 5.61046 10.0205 5.65032 10.6605 5.44032C10.6605 5.44032 10.9305 5.18046 10.2005 5.33046C10.6605 5.25046 10.8005 5.11039 11.3305 5.01039C10.8105 5.10039 10.3705 5.0605 10.8905 4.8705H10.9505C11.4605 4.5405 10.1105 4.7005 10.7405 4.3705C10.1805 4.5105 10.4605 4.34041 9.75051 4.53041C8.99051 4.49041 11.1505 3.8704 8.90054 4.2704C8.76054 4.2104 9.40052 4.06037 9.51052 3.99037H9.63052C9.41052 3.86037 9.38049 3.82032 9.41049 3.68032C9.18049 3.66032 8.14051 3.85033 8.37051 3.69033C8.79051 3.65033 8.71053 3.62045 8.70053 3.57045C8.77052 3.58045 8.92052 3.57034 9.19052 3.46034C9.06052 3.48034 8.98049 3.48036 8.91049 3.48036C8.94049 3.48036 8.97052 3.47034 9.01052 3.46034C8.85052 3.42034 8.7205 3.46038 8.6705 3.50038C8.6105 3.51038 8.53049 3.53044 8.41049 3.56044C8.93049 3.39044 8.3405 3.36036 9.0505 3.23036C8.8505 3.05036 8.08054 3.03028 7.78054 2.89028C8.14054 2.81028 8.48052 2.80046 8.63052 2.83046L8.48049 2.73036C9.01049 2.65036 8.80049 2.7504 8.91049 2.7704C9.74049 2.4904 8.01053 2.60043 8.77053 2.30043L8.35049 2.33046L8.4205 2.31044C8.2005 2.34044 7.89051 2.35046 7.81051 2.33046C8.27051 2.24046 8.88053 2.18048 8.83053 2.10048C9.26053 1.97048 8.58052 1.94027 8.32052 1.88027C8.25052 1.94027 7.99052 1.96034 7.82052 1.96034C7.80052 1.92034 8.2605 1.83045 8.0505 1.82045L8.6705 1.73036C8.0805 1.82036 8.02052 1.70034 7.76052 1.71034C8.22052 1.63034 8.17053 1.73032 8.52053 1.69032C8.44053 1.52032 8.48054 1.61032 8.40054 1.44032C7.92054 1.40032 7.81052 1.53043 7.26052 1.55043C7.13052 1.48043 6.68049 1.45044 7.04049 1.31044L6.4905 1.40029C6.0405 1.29029 6.10054 1.18039 6.65054 1.01039C4.32054 0.630393 2.76049 0.660481 1.79049 0.850481C0.820491 1.03048 0.430506 1.35048 0.430506 1.35048C-0.749494 2.04048 0.910496 2.16038 1.4205 2.75038L1.43051 2.73036Z" fill="#20BB65"/>
<path d="M29.7505 29.5605L29.7005 29.8005C29.7505 29.7105 29.7805 29.6205 29.7505 29.5605Z" fill="#20BB65"/>
<path d="M47.9905 37.6404C47.9905 37.6404 48.0105 37.6206 48.0205 37.6006C48.0005 37.6106 47.9905 37.6304 47.9905 37.6404Z" fill="#20BB65"/>
<path d="M28.7205 37.9604C28.7205 37.9604 28.6905 37.9805 28.6705 38.0005L28.7205 37.9604Z" fill="#20BB65"/>
<path d="M25.2204 35.2605C26.0604 36.0705 25.7805 37.1904 27.0505 37.3904C27.5105 37.7404 28.1605 37.8305 28.7105 37.9705C29.3405 37.3505 29.3605 38.3005 29.9605 37.8105L29.8505 38.2905C30.0605 38.1205 30.2404 38.0406 30.2204 38.3206L30.1505 38.4404C30.4605 38.1904 30.5205 38.4606 30.6705 38.3306L30.6005 38.4504L30.8005 38.4805L30.6805 38.6404C31.1005 38.4204 31.3705 38.5305 31.5105 38.8005L31.7505 38.2705C31.9405 39.0905 32.6505 38.1005 32.7505 39.0005L32.6805 39.1206C33.8905 38.0006 33.1105 40.4804 34.2905 39.4304C34.1405 39.5604 34.2005 39.7206 34.1305 39.8406C34.4605 39.8106 34.7805 39.8606 35.2605 38.8206C35.4405 38.9206 35.2605 39.2204 35.1105 39.6304C35.3205 39.1704 35.5705 39.0606 35.7305 39.1006L35.5805 39.2505L36.0705 39.2905L36.3705 38.3904C36.4805 38.7404 35.9605 39.4706 36.2705 39.3606L36.5805 38.6404C36.8305 38.9204 36.5405 40.0805 36.6205 40.7405C37.7705 41.6105 39.8905 40.3205 40.5705 42.0605L40.4104 42.6304C40.1204 43.4404 41.2005 41.5806 40.9605 42.3306L41.2405 42.0205C41.2205 42.1805 41.2405 42.3605 41.1105 42.5205C41.2305 42.6005 41.2804 42.4705 41.4704 42.2705L41.4205 42.8206C41.7805 43.4006 42.5805 42.6005 43.0405 43.0005C43.3105 44.2705 44.8805 43.7604 45.7605 43.4604C47.1505 42.5804 47.2105 46.2204 48.6905 45.1504C48.6905 45.2804 48.8605 45.0404 48.8905 44.9504L49.7805 45.3706C49.7805 45.3706 50.8905 45.8005 51.8205 45.2505C52.7605 44.7005 53.4905 43.1505 52.8805 39.2405L52.9605 39.0706C52.6105 38.4806 52.3305 38.3006 51.7105 39.0806C52.0105 37.9706 51.3505 38.8404 51.3505 38.4404L51.3905 38.3506C50.8205 39.1006 51.0104 37.4506 50.4704 38.1106C50.5104 38.0306 50.6205 37.7305 50.6905 37.7305C50.4405 37.8005 50.0705 37.9505 50.2705 37.3105C49.7205 37.3105 49.1304 36.7804 48.4704 37.6904L48.5505 37.5205C48.1305 38.1405 48.2805 37.5406 47.9605 37.8206C47.9805 37.7306 47.9805 37.6904 47.9905 37.6504C47.5605 38.2504 47.3805 37.5505 47.1205 37.7805L47.2605 37.3606L46.8305 37.3206L46.9405 37.4604C46.4805 38.6004 46.9005 36.6305 46.3505 37.2805C46.1405 37.0405 44.9405 39.4805 44.8705 38.8105C44.5405 39.3005 45.3105 37.9806 44.9605 38.3206C45.1705 37.7206 45.1905 37.9805 45.3205 37.4805C45.0205 37.6905 45.2305 36.7506 44.8405 37.0706L45.0005 36.6006C44.3705 37.3406 44.6505 35.7705 44.1405 36.5105C43.6805 36.7705 44.4605 35.0506 43.7805 35.8306L43.9005 35.1504C43.8005 34.9904 43.5005 35.8805 43.4605 35.5205C43.6205 35.1305 43.3905 35.1305 43.6205 34.7905C43.5205 34.0405 42.5605 35.3904 42.5205 34.1604C42.1105 34.8804 42.0705 34.3304 41.7605 34.8804C41.8805 34.5404 41.3205 34.6405 41.8705 34.0205C41.9205 33.9705 41.9505 34.0004 41.9005 34.1304L42.1205 33.6904C42.2105 32.7304 41.4605 33.9705 41.2505 33.7305C41.2605 33.9105 41.3805 33.9104 41.1905 34.2004L40.9805 34.0405L41.1905 33.6804L40.9305 33.3105L40.7805 33.8005C40.7105 33.4805 40.9905 32.6605 40.5105 33.2405C40.2605 33.5705 40.4004 33.9405 40.1604 34.0105C40.0604 33.5905 39.9305 32.9604 39.6905 32.7004C39.4905 33.2404 39.4205 33.1805 39.2905 33.2605L39.4805 32.8005C38.8905 33.3005 39.8105 31.7506 39.2805 32.1206L39.4505 31.8105L38.9505 32.7205C38.2705 33.5005 39.2205 31.7105 38.3605 32.8005C38.5205 32.7805 37.9705 33.8305 37.9005 33.5605L38.1405 33.1404C38.0105 33.1904 37.9005 33.3705 37.8905 33.2505C38.0505 33.0405 38.2005 32.6304 38.0505 32.6404L38.3805 32.1304L37.7805 32.8306C37.8205 32.2806 37.2604 32.7406 37.4704 32.0906C37.4704 32.0906 37.2305 31.6105 36.8305 32.2405C37.1005 31.8605 36.9705 31.6004 37.2605 31.1404C36.9405 31.5704 36.4705 31.8105 36.5905 31.2605L36.6405 31.2104C36.4605 30.5004 35.5705 31.5605 35.5005 30.7505C35.2605 31.2805 35.2005 30.8906 34.9205 31.5806C34.1905 32.0306 34.8805 29.8806 33.7005 31.8406C33.4605 31.8606 33.7305 31.2606 33.7005 31.1006L33.8005 31.0205C33.3805 31.0205 33.2705 30.9805 33.0505 30.8005C32.8205 30.9305 32.3105 31.8605 32.2005 31.5105C32.4705 31.1805 32.3405 31.2004 32.2605 31.1504C32.3405 31.1204 32.4305 30.9904 32.4605 30.6804C32.3805 30.7904 32.3205 30.8504 32.2705 30.8904C32.2805 30.8604 32.2905 30.8405 32.3205 30.8005C32.1105 30.8605 32.0705 30.9906 32.1105 31.0706C32.0805 31.1306 32.0405 31.2005 32.0105 31.3105C32.1205 30.7605 31.5905 31.1305 31.9205 30.4805C31.4305 30.4005 30.7705 30.8904 30.2805 30.9404C30.4205 30.5904 30.6705 30.3505 30.8405 30.2805L30.5305 30.2605C30.8005 29.7905 30.8205 30.0705 30.9505 30.0205C31.0905 29.1105 29.9305 30.4405 29.9905 29.5505L29.7105 29.8804L29.7305 29.8105C29.6205 30.0005 29.3905 30.2205 29.3005 30.2605C29.4905 29.8305 29.8505 29.3305 29.6705 29.2605C29.7705 28.8005 29.1805 29.2406 28.8805 29.3506C28.9305 29.4706 28.7705 29.6805 28.6405 29.7905C28.5505 29.7505 28.7405 29.3304 28.5705 29.4604L28.8905 28.9204C28.6205 29.4504 28.3405 29.3405 28.1805 29.5405C28.3805 29.1105 28.5204 29.2805 28.7204 28.9905C28.3604 28.8405 28.5405 28.9105 28.1805 28.7605C27.7505 29.0605 27.9005 29.2904 27.5205 29.7004C27.3005 29.7004 26.9105 29.9905 26.9305 29.5505L26.6905 30.0605C26.1605 30.2505 26.0205 30.0705 26.1305 29.4705C23.8005 30.6705 22.7805 31.8605 22.4005 32.7905C22.0205 33.7205 22.2605 34.3706 22.2605 34.3706C22.5205 36.0306 23.9105 34.9605 25.2405 35.2705L25.2204 35.2605Z" fill="#20BB65"/>
<path d="M78.6405 45.6206L78.6805 45.8606C78.7005 45.7506 78.7005 45.6606 78.6405 45.6206Z" fill="#20BB65"/>
<path d="M98.7505 48.8105C98.7505 48.8105 98.7705 48.7805 98.7805 48.7605C98.7605 48.7805 98.7605 48.7905 98.7505 48.8105Z" fill="#20BB65"/>
<path d="M80.3105 53.9004C80.3105 53.9004 80.2905 53.9304 80.2805 53.9504L80.3205 53.9004H80.3105Z" fill="#20BB65"/>
<path d="M76.3105 52.5105C77.3405 52.9905 77.4205 54.1204 78.6305 53.8904C79.1505 54.0804 79.7705 53.9404 80.3105 53.9004C80.7105 53.1104 81.0005 54.0106 81.4205 53.3706L81.4505 53.8606C81.5905 53.6406 81.7405 53.5005 81.8005 53.7705L81.7705 53.9104C81.9805 53.5804 82.1204 53.8204 82.2204 53.6604L82.1905 53.8005L82.3805 53.7705L82.3105 53.9604C82.6405 53.6304 82.9205 53.6506 83.1205 53.8606L83.2005 53.2805C83.6005 54.0105 83.9905 52.8604 84.3205 53.6904L84.2905 53.8306C85.1305 52.4206 85.0405 55.0104 85.8805 53.6804C85.7805 53.8504 85.8605 53.9806 85.8305 54.1206C86.1305 54.0006 86.4405 53.9706 86.6305 52.8406C86.8305 52.8906 86.7405 53.2204 86.6905 53.6604C86.7705 53.1704 86.9805 52.9905 87.1405 52.9905L87.0405 53.1704L87.5205 53.0806L87.5805 52.1304C87.7705 52.4404 87.4604 53.2806 87.7204 53.0906L87.8405 52.3206C88.1405 52.5306 88.1505 53.7306 88.3805 54.3506C89.6605 54.8906 91.4005 53.1504 92.4305 54.6904L92.4005 55.2805C92.3005 56.1305 92.9305 54.0806 92.8605 54.8706L93.0605 54.5005C93.0805 54.6605 93.1405 54.8305 93.0405 55.0105C93.1705 55.0605 93.1905 54.9204 93.3305 54.6804L93.3905 55.2305C93.8605 55.7205 94.4505 54.7705 94.9805 55.0505C95.4905 56.2205 96.8905 55.4104 97.6905 54.9404C98.8805 53.8104 99.6005 57.3605 100.841 56.0405C100.861 56.1605 100.98 55.9105 100.99 55.8105L101.93 56.0605C101.93 56.0605 106.491 56.9805 103.901 49.4805L103.95 49.3005C103.49 48.7805 103.18 48.6405 102.71 49.5305C102.8 48.3805 102.3 49.3605 102.23 48.9705L102.25 48.8804C101.82 49.7204 101.7 48.0605 101.29 48.8105C101.31 48.7205 101.36 48.4104 101.43 48.4004C101.19 48.5204 100.86 48.7305 100.93 48.0605C100.38 48.1605 99.6905 47.7605 99.2105 48.7705L99.2605 48.5906C98.9705 49.2806 99.0005 48.6605 98.7305 49.0005C98.7305 48.9105 98.7305 48.8606 98.7305 48.8306C98.4205 49.5106 98.1005 48.8604 97.8905 49.1304L97.9405 48.6904L97.5105 48.7305L97.6505 48.8506C97.4205 50.0606 97.4405 48.0505 97.0305 48.7905C96.7705 48.6005 96.1005 51.2306 95.8905 50.5906C95.6705 51.1406 96.1505 49.6906 95.8705 50.0906C95.9505 49.4606 96.0305 49.7104 96.0405 49.2004C95.7905 49.4704 95.8005 48.5104 95.4805 48.9004L95.5405 48.4104C95.0805 49.2604 95.0105 47.6705 94.6705 48.5005C94.2705 48.8605 94.6604 47.0104 94.1604 47.9204L94.1205 47.2305C93.9805 47.1005 93.8905 48.0304 93.7705 47.6804C93.8405 47.2604 93.6105 47.3104 93.7705 46.9304C93.4905 46.2204 92.8605 47.7405 92.5305 46.5605C92.3005 47.3605 92.1205 46.8304 91.9405 47.4304C91.9805 47.0704 91.4405 47.3006 91.8505 46.5706C91.8805 46.5106 91.9205 46.5304 91.9005 46.6704L92.0105 46.1904C91.8705 45.2304 91.4205 46.6104 91.1604 46.4304C91.2204 46.6004 91.3405 46.5804 91.2105 46.9004L90.9605 46.7905L91.0805 46.3904L90.7305 46.0906L90.7005 46.6006C90.5505 46.3106 90.6205 45.4404 90.2905 46.1304C90.1305 46.5104 90.3605 46.8404 90.1405 46.9604C89.9405 46.5804 89.6405 46.0005 89.3405 45.8005C89.2805 46.3705 89.2005 46.3404 89.0905 46.4404L89.1604 45.9504C88.7004 46.5804 89.2105 44.8506 88.7805 45.3406L88.8705 45.0005L88.6105 46.0105C88.1405 46.9305 88.6105 44.9605 88.0505 46.2405C88.2005 46.1805 87.9405 47.3306 87.8005 47.0906L87.9205 46.6206C87.8105 46.7006 87.7505 46.9005 87.7005 46.7905C87.8005 46.5405 87.8405 46.1004 87.7005 46.1604L87.8905 45.5806L87.4905 46.4104C87.3805 45.8704 86.9605 46.4505 86.9905 45.7705C86.9905 45.7705 86.6205 45.3706 86.4005 46.0906C86.5605 45.6506 86.3605 45.4404 86.5105 44.9104C86.3105 45.4104 85.9205 45.7704 85.8805 45.2004L85.9205 45.1404C85.5305 44.5004 84.9605 45.7605 84.6505 45.0105C84.5705 45.5805 84.4005 45.2305 84.3305 45.9705C83.7605 46.6105 83.7704 44.3506 83.2204 46.5706C82.9904 46.6506 83.0705 46.0006 82.9905 45.8706L83.0605 45.7605C82.6505 45.8805 82.5305 45.8805 82.2605 45.7705C82.0805 45.9605 81.8705 47.0004 81.6604 46.7104C81.8204 46.3104 81.7005 46.3706 81.6005 46.3506C81.6705 46.3006 81.7205 46.1506 81.6405 45.8506C81.6005 45.9806 81.5605 46.0506 81.5205 46.1106C81.5205 46.0806 81.5205 46.0505 81.5405 46.0105C81.3605 46.1305 81.3605 46.2606 81.4205 46.3306C81.4005 46.3906 81.4005 46.4706 81.4005 46.5906C81.3305 46.0206 80.9305 46.5406 81.0505 45.8306C80.5405 45.9106 80.0705 46.5805 79.6205 46.7805C79.6405 46.4105 79.8005 46.1005 79.9405 45.9805L79.6305 46.0605C79.7305 45.5305 79.8505 45.7904 79.9505 45.7004C79.7805 44.7904 79.1005 46.4205 78.8605 45.5605L78.7005 45.9604V45.8904C78.6505 46.1104 78.5005 46.3904 78.4305 46.4504C78.4605 45.9804 78.6405 45.3904 78.4305 45.3804C78.3605 44.9104 77.9505 45.5205 77.7005 45.7305C77.7905 45.8305 77.7005 46.0805 77.6305 46.2305C77.5305 46.2305 77.5605 45.7604 77.4505 45.9404L77.5605 45.3206C77.4805 45.9106 77.1805 45.9004 77.1005 46.1404C77.1305 45.6704 77.3305 45.7804 77.4205 45.4304C77.0205 45.4104 77.2205 45.4304 76.8205 45.4004C76.5205 45.8304 76.7405 45.9905 76.5405 46.5105C76.3305 46.5905 76.0705 46.9906 75.9305 46.5806L75.8905 47.1404C75.4605 47.5004 75.2605 47.3905 75.1405 46.7905C73.4005 48.7605 72.9405 50.2605 72.9305 51.2605C72.9205 52.2605 73.3505 52.7805 73.3505 52.7805C74.1405 54.2005 75.0005 52.7105 76.3105 52.5205V52.5105Z" fill="#20BB65"/>
<path d="M130.54 52.3904L130.6 52.6304C130.6 52.5204 130.6 52.4304 130.54 52.3904Z" fill="#20BB65"/>
<path d="M150.94 53.9304C150.94 53.9304 150.951 53.9004 150.961 53.8804C150.951 53.9004 150.94 53.9104 150.94 53.9304Z" fill="#20BB65"/>
<path d="M132.98 60.4504C132.98 60.4504 132.961 60.4805 132.951 60.5105L132.98 60.4504Z" fill="#20BB65"/>
<path d="M128.9 59.4905C129.96 59.8605 130.15 60.9606 131.32 60.6106C131.85 60.7406 132.44 60.5404 132.98 60.4504C133.3 59.6304 133.67 60.4905 134.03 59.8105L134.1 60.3005C134.22 60.0705 134.36 59.9104 134.44 60.1804L134.42 60.3206C134.6 59.9706 134.76 60.2005 134.85 60.0205L134.83 60.1604L135.02 60.1106L134.97 60.3105C135.27 59.9505 135.54 59.9404 135.77 60.1404L135.8 59.5605C136.26 60.2505 136.55 59.0606 136.95 59.8706L136.93 60.0105C137.64 58.5305 137.77 61.1205 138.49 59.7205C138.4 59.8905 138.49 60.0204 138.48 60.1604C138.77 60.0204 139.08 59.9506 139.17 58.8206C139.37 58.8506 139.31 59.1904 139.3 59.6304C139.34 59.1304 139.53 58.9404 139.69 58.9204L139.6 59.1106L140.07 58.9805V58.0305C140.28 58.3205 140.03 59.1805 140.27 58.9705L140.33 58.1904C140.65 58.3704 140.75 59.5704 141.02 60.1704C142.33 60.6104 143.93 58.7404 145.06 60.2104V60.8005C145.03 61.6605 145.51 59.5606 145.5 60.3606L145.68 59.9805C145.71 60.1405 145.78 60.3105 145.69 60.4905C145.82 60.5305 145.84 60.3904 145.95 60.1404L146.05 60.6804C146.55 61.1404 147.07 60.1404 147.61 60.4004C148.2 61.5404 149.53 60.6406 150.29 60.1206C151.4 58.9206 152.34 62.4205 153.49 61.0405C153.52 61.1605 153.62 60.9005 153.63 60.8005L154.58 61.0005C154.58 61.0005 159.17 61.7006 156.15 54.3306L156.19 54.1504C155.7 53.6504 155.38 53.5304 154.96 54.4404C154.98 53.2904 154.54 54.2904 154.45 53.9104L154.47 53.8206C154.09 54.6806 153.87 53.0305 153.51 53.8005C153.53 53.7105 153.56 53.3904 153.63 53.3804C153.4 53.5104 153.08 53.7406 153.11 53.0706C152.57 53.2006 151.85 52.8306 151.43 53.8706L151.47 53.6904C151.22 54.4004 151.21 53.7804 150.97 54.1304C150.97 54.0404 150.95 54.0004 150.96 53.9604C150.7 54.6604 150.34 54.0205 150.14 54.3105L150.16 53.8606L149.73 53.9304L149.88 54.0405C149.73 55.2605 149.62 53.2505 149.26 54.0205C148.99 53.8405 148.49 56.5104 148.24 55.8904C148.06 56.4504 148.43 54.9704 148.19 55.3904C148.23 54.7504 148.32 55.0005 148.3 54.4905C148.07 54.7805 148.01 53.8105 147.72 54.2205L147.75 53.7205C147.35 54.6005 147.17 53.0206 146.88 53.8606C146.5 54.2406 146.76 52.3705 146.33 53.3105L146.24 52.6304C146.1 52.5104 146.07 53.4406 145.92 53.1006C145.96 52.6806 145.73 52.7506 145.86 52.3506C145.53 51.6606 145.01 53.2306 144.59 52.0706C144.42 52.8806 144.2 52.3705 144.07 52.9805C144.08 52.6205 143.56 52.8804 143.91 52.1304C143.94 52.0704 143.98 52.0805 143.97 52.2205L144.04 51.7405C143.82 50.8005 143.48 52.2005 143.2 52.0405C143.27 52.2105 143.39 52.1705 143.29 52.5005L143.03 52.4104L143.12 52.0005L142.74 51.7305V52.2405C142.58 51.9605 142.58 51.0905 142.31 51.8005C142.18 52.1905 142.44 52.5004 142.22 52.6404C141.99 52.2704 141.64 51.7205 141.33 51.5405C141.31 52.1105 141.23 52.0904 141.13 52.2004L141.16 51.7004C140.75 52.3604 141.12 50.6006 140.73 51.1206L140.79 50.7805L140.61 51.8105C140.21 52.7705 140.53 50.7706 140.07 52.0806C140.21 52.0106 140.04 53.1804 139.89 52.9504L139.97 52.4705C139.87 52.5605 139.82 52.7604 139.77 52.6604C139.85 52.4104 139.86 51.9705 139.71 52.0405L139.85 51.4504L139.52 52.3105C139.36 51.7805 138.99 52.4005 138.96 51.7205C138.96 51.7205 138.55 51.3506 138.39 52.0906C138.52 51.6406 138.29 51.4404 138.41 50.9104C138.25 51.4204 137.89 51.8205 137.8 51.2605L137.83 51.2004C137.39 50.6004 136.92 51.9104 136.54 51.1904C136.51 51.7704 136.3 51.4404 136.3 52.1804C135.78 52.8704 135.6 50.6204 135.24 52.8804C135.02 52.9904 135.04 52.3304 134.94 52.2004L135 52.0806C134.59 52.2406 134.48 52.2504 134.2 52.1704C134.04 52.3804 133.92 53.4304 133.68 53.1604C133.8 52.7504 133.68 52.8205 133.59 52.8105C133.66 52.7505 133.69 52.6005 133.59 52.3005C133.56 52.4305 133.53 52.5106 133.49 52.5706C133.49 52.5406 133.49 52.5105 133.49 52.4705C133.32 52.6105 133.33 52.7405 133.4 52.8005C133.4 52.8605 133.39 52.9505 133.4 53.0605C133.28 52.5005 132.93 53.0606 132.97 52.3406C132.47 52.4706 132.06 53.1904 131.63 53.4304C131.62 53.0504 131.74 52.7306 131.87 52.6006L131.57 52.7104C131.62 52.1804 131.76 52.4206 131.86 52.3206C131.6 51.4306 131.08 53.1305 130.75 52.3005L130.63 52.7205L130.61 52.6504C130.59 52.8704 130.47 53.1705 130.41 53.2405C130.4 52.7705 130.51 52.1704 130.31 52.1804C130.19 51.7204 129.84 52.3706 129.62 52.6006C129.72 52.6906 129.66 52.9406 129.6 53.1006C129.5 53.1006 129.49 52.6406 129.39 52.8306L129.44 52.2004C129.42 52.7904 129.12 52.8206 129.06 53.0706C129.05 52.6006 129.25 52.6806 129.31 52.3306C128.91 52.3606 129.11 52.3406 128.71 52.3706C128.45 52.8306 128.69 52.9705 128.54 53.5105C128.34 53.6205 128.12 54.0404 127.94 53.6504L127.96 54.2104C127.57 54.6104 127.36 54.5304 127.18 53.9504C124.12 58.2804 126.04 60.1006 126.04 60.1006C126.96 61.4106 127.65 59.8405 128.93 59.5005L128.9 59.4905Z" fill="#20BB65"/>
<path d="M182.93 56.0706L183 56.3105C183 56.2005 182.99 56.1106 182.93 56.0706Z" fill="#20BB65"/>
<path d="M203.44 57.0806C203.44 57.0806 203.451 57.0505 203.461 57.0305C203.451 57.0505 203.44 57.0606 203.44 57.0806Z" fill="#20BB65"/>
<path d="M185.641 64.0706C185.641 64.0706 185.63 64.1004 185.62 64.1304L185.651 64.0706H185.641Z" fill="#20BB65"/>
<path d="M181.54 63.2104C182.61 63.5504 182.84 64.6505 183.99 64.2705C184.52 64.3905 185.111 64.1706 185.641 64.0706C185.941 63.2406 186.33 64.0904 186.66 63.4004L186.751 63.8804C186.861 63.6404 186.991 63.4905 187.081 63.7505V63.8904C187.241 63.5404 187.4 63.7606 187.48 63.5806V63.7205L187.651 63.6704L187.61 63.8706C187.9 63.5006 188.171 63.4904 188.401 63.6804V63.1006C188.891 63.7806 189.141 62.5804 189.561 63.3804V63.5205C190.221 62.0205 190.41 64.6104 191.1 63.1904C191.01 63.3704 191.12 63.4904 191.1 63.6304C191.39 63.4804 191.691 63.4105 191.761 62.2705C191.961 62.3005 191.91 62.6406 191.91 63.0806C191.94 62.5806 192.121 62.3806 192.281 62.3606L192.201 62.5505L192.66 62.4004L192.621 61.4504C192.851 61.7304 192.62 62.6004 192.86 62.3904L192.901 61.6106C193.221 61.7806 193.351 62.9706 193.641 63.5706C194.961 63.9806 196.5 62.0605 197.68 63.5005L197.701 64.0906C197.681 64.9506 198.111 62.8404 198.121 63.6404L198.29 63.2605C198.32 63.4205 198.401 63.5805 198.321 63.7705C198.451 63.8105 198.461 63.6704 198.571 63.4204L198.68 63.9604C199.19 64.4004 199.69 63.4004 200.23 63.6404C200.84 64.7604 202.151 63.8305 202.901 63.2905C203.981 62.0605 204.99 65.5404 206.11 64.1304C206.14 64.2504 206.24 63.9804 206.24 63.8904L207.191 64.0605C207.191 64.0605 211.801 64.6406 208.651 57.3506L208.68 57.1704C208.18 56.6904 207.861 56.5705 207.451 57.4905C207.451 56.3405 207.03 57.3505 206.93 56.9705L206.951 56.8804C206.591 57.7504 206.33 56.1104 205.99 56.8804C206.01 56.7904 206.03 56.4704 206.1 56.4604C205.87 56.5904 205.551 56.8304 205.571 56.1604C205.031 56.3104 204.301 55.9605 203.901 57.0105L203.93 56.8306C203.7 57.5406 203.67 56.9205 203.43 57.2805C203.43 57.1905 203.41 57.1506 203.41 57.1106C203.16 57.8106 202.78 57.1905 202.6 57.4805V57.0305L202.18 57.1106L202.331 57.2104C202.211 58.4304 202.051 56.4304 201.701 57.2104C201.421 57.0404 200.98 59.7206 200.72 59.1106C200.55 59.6706 200.89 58.1906 200.66 58.6206C200.69 57.9806 200.781 58.2304 200.751 57.7104C200.531 58.0004 200.44 57.0404 200.16 57.4604L200.18 56.9604C199.8 57.8504 199.581 56.2704 199.311 57.1304C198.941 57.5204 199.16 55.6406 198.74 56.6006L198.641 55.9204C198.491 55.8004 198.491 56.7404 198.331 56.4004C198.361 55.9804 198.131 56.0504 198.251 55.6504C197.901 54.9704 197.41 56.5504 196.97 55.4004C196.81 56.2204 196.58 55.7106 196.47 56.3306C196.47 55.9706 195.96 56.2405 196.29 55.4805C196.32 55.4205 196.36 55.4306 196.35 55.5706L196.41 55.0806C196.17 54.1406 195.851 55.5604 195.581 55.4004C195.661 55.5704 195.77 55.5306 195.68 55.8606L195.42 55.7805L195.501 55.3706L195.121 55.1106L195.151 55.6206C194.971 55.3506 194.951 54.4804 194.691 55.1904C194.571 55.5904 194.84 55.8905 194.621 56.0305C194.381 55.6705 194.021 55.1304 193.691 54.9604C193.691 55.5404 193.601 55.5106 193.501 55.6206L193.521 55.1206C193.131 55.7906 193.451 54.0205 193.071 54.5505L193.121 54.2004L192.97 55.2305C192.6 56.2005 192.86 54.1905 192.43 55.5205C192.57 55.4405 192.431 56.6204 192.281 56.3904L192.35 55.9104C192.25 56.0104 192.211 56.2106 192.151 56.1006C192.221 55.8406 192.221 55.4005 192.071 55.4805L192.201 54.8804L191.891 55.7505C191.721 55.2205 191.361 55.8504 191.311 55.1704C191.311 55.1704 190.891 54.8205 190.751 55.5505C190.861 55.0905 190.63 54.9106 190.73 54.3706C190.59 54.8806 190.231 55.2905 190.131 54.7305L190.16 54.6704C189.7 54.0804 189.271 55.4004 188.871 54.6904C188.861 55.2704 188.64 54.9404 188.66 55.6804C188.16 56.3804 187.91 54.1404 187.61 56.4104C187.39 56.5204 187.39 55.8605 187.29 55.7405L187.35 55.6206C186.95 55.7906 186.83 55.8005 186.55 55.7305C186.39 55.9405 186.311 57.0005 186.071 56.7305C186.181 56.3105 186.07 56.3904 185.97 56.3804C186.04 56.3204 186.061 56.1606 185.951 55.8706C185.921 56.0006 185.89 56.0804 185.86 56.1404C185.86 56.1104 185.86 56.0805 185.86 56.0405C185.69 56.1805 185.711 56.3106 185.781 56.3706C185.781 56.4306 185.78 56.5204 185.79 56.6304C185.65 56.0804 185.321 56.6404 185.341 55.9204C184.841 56.0604 184.451 56.7905 184.031 57.0505C184.011 56.6805 184.12 56.3504 184.24 56.2104L183.941 56.3306C183.971 55.7906 184.12 56.0304 184.22 55.9304C183.93 55.0504 183.46 56.7604 183.11 55.9404L183.001 56.3606L182.98 56.2905C182.97 56.5105 182.86 56.8104 182.8 56.8804C182.77 56.4104 182.86 55.8106 182.66 55.8206C182.53 55.3606 182.2 56.0205 181.98 56.2605C182.09 56.3405 182.04 56.6005 181.98 56.7605C181.88 56.7705 181.851 56.3005 181.761 56.5005L181.79 55.8706C181.79 56.4706 181.491 56.5005 181.441 56.7505C181.411 56.2805 181.62 56.3605 181.66 56.0105C181.26 56.0505 181.461 56.0306 181.061 56.0706C180.821 56.5306 181.06 56.6704 180.93 57.2104C180.73 57.3204 180.531 57.7506 180.331 57.3606L180.371 57.9204C179.991 58.3304 179.781 58.2604 179.581 57.6804C176.691 62.0904 178.67 63.8606 178.67 63.8606C179.64 65.1506 180.271 63.5504 181.521 63.1804L181.54 63.2104Z" fill="#20BB65"/>
<path d="M235.531 58.9004L235.6 59.1404C235.6 59.0304 235.591 58.9404 235.531 58.9004Z" fill="#20BB65"/>
<path d="M256.07 60.0405C256.07 60.0405 256.081 60.0105 256.091 59.9905C256.081 60.0105 256.07 60.0205 256.07 60.0405Z" fill="#20BB65"/>
<path d="M238.23 66.9104C238.23 66.9104 238.221 66.9405 238.211 66.9705L238.24 66.9104H238.23Z" fill="#20BB65"/>
<path d="M234.141 66.0305C235.211 66.3805 235.431 67.4806 236.581 67.1006C237.111 67.2206 237.7 67.0004 238.23 66.9104C238.53 66.0804 238.92 66.9405 239.25 66.2505L239.341 66.7405C239.461 66.5005 239.58 66.3506 239.67 66.6106V66.7505C239.83 66.4005 239.991 66.6204 240.071 66.4504V66.5906L240.24 66.5405L240.201 66.7405C240.491 66.3705 240.76 66.3605 240.99 66.5505V65.9705C241.48 66.6505 241.741 65.4605 242.151 66.2505V66.3904C242.811 64.9004 243 67.4906 243.69 66.0706C243.6 66.2506 243.7 66.3705 243.69 66.5105C243.98 66.3605 244.28 66.2904 244.35 65.1504C244.55 65.1804 244.49 65.5204 244.49 65.9604C244.52 65.4604 244.71 65.2605 244.87 65.2405L244.79 65.4304L245.25 65.2905L245.22 64.3406C245.44 64.6306 245.221 65.4905 245.461 65.2805L245.5 64.5005C245.82 64.6705 245.95 65.8704 246.23 66.4604C247.54 66.8704 249.101 64.9704 250.261 66.4204L250.281 67.0105C250.251 67.8705 250.701 65.7605 250.701 66.5605L250.87 66.1804C250.9 66.3404 250.981 66.5004 250.891 66.6904C251.021 66.7304 251.031 66.5906 251.151 66.3406L251.261 66.8804C251.761 67.3304 252.271 66.3206 252.821 66.5706C253.421 67.7006 254.73 66.7705 255.5 66.2405C256.6 65.0205 257.56 68.5006 258.69 67.1006C258.72 67.2206 258.821 66.9606 258.831 66.8606L259.771 67.0405C259.771 67.0405 264.371 67.6406 261.331 60.3406L261.37 60.1604C260.88 59.6704 260.56 59.5605 260.13 60.4705C260.15 59.3205 259.71 60.3304 259.61 59.9504L259.63 59.8606C259.25 60.7306 259.02 59.0906 258.66 59.8606C258.68 59.7706 258.711 59.4504 258.781 59.4404C258.551 59.5704 258.22 59.8104 258.25 59.1404C257.7 59.2804 256.981 58.9305 256.571 59.9805L256.61 59.8005C256.37 60.5105 256.35 59.8905 256.11 60.2505C256.11 60.1605 256.09 60.1206 256.1 60.0806C255.84 60.7806 255.471 60.1504 255.281 60.4504L255.3 60.0005L254.87 60.0806L255.021 60.1804C254.891 61.4004 254.751 59.3904 254.391 60.1704C254.111 60.0004 253.641 62.6805 253.391 62.0605C253.211 62.6205 253.571 61.1406 253.331 61.5706C253.361 60.9306 253.45 61.1804 253.43 60.6604C253.2 60.9504 253.131 59.9904 252.841 60.4004L252.86 59.9004C252.47 60.7904 252.27 59.2105 251.99 60.0605C251.62 60.4505 251.85 58.5705 251.43 59.5205L251.331 58.8406C251.181 58.7206 251.171 59.6606 251.021 59.3206C251.061 58.9006 250.821 58.9706 250.951 58.5706C250.601 57.8906 250.1 59.4605 249.66 58.3105C249.5 59.1305 249.271 58.6205 249.151 59.2305C249.151 58.8705 248.64 59.1404 248.98 58.3804C249.01 58.3204 249.05 58.3305 249.04 58.4705L249.1 57.9805C248.87 57.0405 248.541 58.4605 248.261 58.3005C248.341 58.4705 248.45 58.4305 248.36 58.7605L248.1 58.6804L248.18 58.2705L247.8 58.0105L247.821 58.5205C247.641 58.2505 247.63 57.3806 247.36 58.0906C247.24 58.4906 247.5 58.7904 247.29 58.9304C247.05 58.5704 246.69 58.0206 246.37 57.8506C246.37 58.4206 246.28 58.4005 246.18 58.5105L246.201 58.0105C245.801 58.6805 246.14 56.9104 245.75 57.4404L245.8 57.1006L245.641 58.1304C245.261 59.1004 245.53 57.0904 245.1 58.4104C245.24 58.3304 245.1 59.5105 244.94 59.2805L245.011 58.8005C244.911 58.9005 244.87 59.0905 244.81 58.9905C244.88 58.7305 244.88 58.2906 244.74 58.3706L244.87 57.7805L244.55 58.6504C244.38 58.1204 244.02 58.7506 243.97 58.0706C243.97 58.0706 243.55 57.7104 243.41 58.4504C243.53 58.0004 243.291 57.8005 243.401 57.2705C243.261 57.7805 242.9 58.1904 242.79 57.6304L242.821 57.5706C242.361 56.9706 241.931 58.3006 241.521 57.5806C241.511 58.1606 241.29 57.8306 241.3 58.5706C240.8 59.2706 240.55 57.0205 240.25 59.2905C240.03 59.4005 240.03 58.7406 239.93 58.6206L239.99 58.5005C239.59 58.6605 239.47 58.6806 239.18 58.6106C239.02 58.8206 238.94 59.8806 238.69 59.6106C238.8 59.1906 238.691 59.2705 238.591 59.2605C238.661 59.2005 238.681 59.0405 238.571 58.7505C238.541 58.8805 238.51 58.9605 238.48 59.0205C238.48 58.9905 238.48 58.9604 238.48 58.9204C238.31 59.0604 238.331 59.1905 238.401 59.2505C238.401 59.3105 238.4 59.4005 238.41 59.5205C238.27 58.9705 237.941 59.5205 237.961 58.8005C237.461 58.9405 237.071 59.6604 236.651 59.9204C236.631 59.5404 236.74 59.2206 236.87 59.0806L236.571 59.2004C236.601 58.6604 236.75 58.9005 236.85 58.8005C236.56 57.9105 236.09 59.6205 235.73 58.8005L235.62 59.2205L235.6 59.1504C235.59 59.3704 235.48 59.6705 235.42 59.7405C235.39 59.2705 235.481 58.6704 235.281 58.6804C235.151 58.2204 234.82 58.8806 234.6 59.1206C234.71 59.2106 234.66 59.4606 234.6 59.6206C234.5 59.6206 234.47 59.1606 234.38 59.3606L234.41 58.7305C234.41 59.3305 234.11 59.3506 234.06 59.6106C234.03 59.1406 234.241 59.2206 234.281 58.8706C233.881 58.9006 234.08 58.8904 233.68 58.9204C233.44 59.3804 233.68 59.5205 233.55 60.0605C233.35 60.1705 233.151 60.6004 232.951 60.2104L232.99 60.7705C232.61 61.1805 232.401 61.1105 232.201 60.5305C229.321 64.9205 231.3 66.7104 231.3 66.7104C232.27 68.0104 232.891 66.4105 234.151 66.0505L234.141 66.0305Z" fill="#20BB65"/>
<path d="M288.181 62.5605L288.24 62.8005C288.24 62.6905 288.241 62.6005 288.181 62.5605Z" fill="#20BB65"/>
<path d="M308.7 64.5706C308.7 64.5706 308.71 64.5405 308.73 64.5205C308.71 64.5405 308.71 64.5506 308.7 64.5706Z" fill="#20BB65"/>
<path d="M290.6 70.6904C290.6 70.6904 290.58 70.7205 290.57 70.7505L290.6 70.6904Z" fill="#20BB65"/>
<path d="M286.561 69.6404C287.611 70.0304 287.8 71.1405 288.95 70.8105C289.47 70.9505 290.06 70.7604 290.59 70.6804C290.92 69.8604 291.27 70.7405 291.63 70.0605L291.7 70.5505C291.82 70.3205 291.961 70.1704 292.031 70.4404L292.01 70.5806C292.19 70.2306 292.34 70.4705 292.44 70.2905L292.421 70.4304L292.61 70.3904L292.561 70.5906C292.861 70.2306 293.13 70.2404 293.35 70.4304L293.39 69.8506C293.84 70.5506 294.14 69.3704 294.52 70.1804L294.5 70.3206C295.23 68.8606 295.311 71.4506 296.061 70.0706C295.971 70.2406 296.061 70.3705 296.041 70.5105C296.331 70.3705 296.64 70.3204 296.75 69.1804C296.95 69.2204 296.88 69.5505 296.86 69.9905C296.91 69.4905 297.1 69.3005 297.27 69.2905L297.181 69.4705L297.65 69.3506V68.4004C297.87 68.6904 297.6 69.5506 297.85 69.3506L297.931 68.5706C298.241 68.7606 298.32 69.9505 298.58 70.5605C299.87 71.0305 301.51 69.1904 302.59 70.6804V71.2705C302.51 72.1205 303.06 70.0406 303.02 70.8406L303.21 70.4705C303.23 70.6305 303.3 70.8005 303.21 70.9805C303.34 71.0305 303.36 70.8904 303.48 70.6404L303.561 71.1804C304.041 71.6504 304.6 70.6704 305.12 70.9304C305.66 72.0804 307.021 71.2104 307.801 70.7104C308.961 69.5404 309.74 73.0504 310.94 71.7004C310.96 71.8204 311.08 71.5604 311.09 71.4604L312.02 71.6804C312.02 71.6804 316.58 72.4705 313.94 65.0605L313.99 64.8804C313.52 64.3804 313.21 64.2404 312.73 65.1404C312.81 63.9904 312.32 64.9806 312.24 64.6006L312.26 64.5105C311.84 65.3605 311.691 63.7105 311.291 64.4705C311.311 64.3805 311.361 64.0705 311.431 64.0605C311.191 64.1805 310.851 64.4005 310.921 63.7405C310.361 63.8605 309.65 63.4805 309.19 64.5005L309.23 64.3206C308.95 65.0206 308.97 64.4005 308.7 64.7405C308.7 64.6505 308.69 64.6106 308.7 64.5706C308.41 65.2606 308.07 64.6204 307.86 64.9004L307.9 64.4604L307.47 64.5205L307.62 64.6304C307.43 65.8404 307.39 63.8306 306.99 64.5906C306.72 64.4106 306.12 67.0604 305.89 66.4304C305.68 66.9904 306.12 65.5204 305.86 65.9304C305.92 65.2904 306 65.5405 306.01 65.0305C305.77 65.3105 305.74 64.3505 305.44 64.7505L305.48 64.2505C305.04 65.1205 304.92 63.5306 304.6 64.3706C304.21 64.7406 304.531 62.8805 304.061 63.8105L303.99 63.1304C303.85 63.0104 303.79 63.9406 303.65 63.6006C303.71 63.1806 303.47 63.2406 303.61 62.8506C303.29 62.1506 302.72 63.7105 302.33 62.5405C302.13 63.3505 301.931 62.8304 301.781 63.4404C301.801 63.0804 301.27 63.3306 301.64 62.5806C301.67 62.5206 301.71 62.5404 301.7 62.6704L301.791 62.1904C301.601 61.2404 301.211 62.6405 300.931 62.4705C301.001 62.6405 301.12 62.6104 301.01 62.9404L300.75 62.8506L300.85 62.4504L300.48 62.1704V62.6804C300.31 62.4004 300.341 61.5305 300.041 62.2305C299.901 62.6205 300.151 62.9306 299.931 63.0706C299.711 62.7006 299.371 62.1404 299.051 61.9504C299.021 62.5204 298.94 62.4906 298.83 62.6006L298.87 62.1006C298.45 62.7506 298.85 61.0005 298.44 61.5105L298.51 61.1704L298.311 62.2004C297.891 63.1504 298.24 61.1504 297.76 62.4604C297.91 62.3904 297.71 63.5606 297.57 63.3306L297.661 62.8606C297.561 62.9506 297.5 63.1505 297.45 63.0405C297.53 62.7905 297.55 62.3504 297.4 62.4204L297.551 61.8306L297.2 62.6804C297.05 62.1504 296.66 62.7606 296.65 62.0706C296.65 62.0706 296.25 61.7004 296.07 62.4204C296.2 61.9704 295.98 61.7705 296.1 61.2405C295.94 61.7505 295.56 62.1406 295.48 61.5706L295.51 61.5105C295.07 60.8905 294.59 62.2005 294.21 61.4705C294.17 62.0505 293.97 61.7104 293.96 62.4504C293.43 63.1304 293.26 60.8704 292.88 63.1304C292.66 63.2304 292.68 62.5704 292.59 62.4404L292.65 62.3306C292.24 62.4806 292.13 62.4904 291.84 62.4004C291.67 62.6104 291.55 63.6604 291.32 63.3804C291.44 62.9704 291.32 63.0405 291.23 63.0305C291.3 62.9705 291.33 62.8205 291.23 62.5205C291.2 62.6505 291.16 62.7305 291.13 62.7905C291.13 62.7605 291.13 62.7304 291.13 62.6904C290.95 62.8204 290.971 62.9605 291.041 63.0205C291.041 63.0805 291.031 63.1705 291.041 63.2905C290.921 62.7305 290.57 63.2805 290.61 62.5605C290.11 62.6805 289.69 63.3904 289.26 63.6304C289.25 63.2504 289.37 62.9305 289.5 62.8005L289.2 62.9104C289.25 62.3804 289.39 62.6205 289.49 62.5205C289.23 61.6205 288.7 63.3105 288.37 62.4805L288.25 62.8904L288.23 62.8206C288.21 63.0406 288.091 63.3404 288.031 63.4004C288.011 62.9304 288.131 62.3306 287.931 62.3406C287.811 61.8806 287.46 62.5205 287.23 62.7505C287.33 62.8405 287.28 63.0905 287.21 63.2505C287.11 63.2505 287.09 62.7805 287 62.9805L287.051 62.3506C287.041 62.9506 286.731 62.9604 286.671 63.2104C286.651 62.7404 286.861 62.8305 286.921 62.4805C286.521 62.5005 286.721 62.4805 286.311 62.5105C286.061 62.9605 286.3 63.1104 286.15 63.6504C285.95 63.7504 285.731 64.1705 285.551 63.7705L285.57 64.3306C285.18 64.7306 284.971 64.6405 284.791 64.0505C281.781 68.3205 283.71 70.2004 283.71 70.2004C284.63 71.5404 285.301 69.9704 286.561 69.6604V69.6404Z" fill="#20BB65"/>
<path d="M340.7 69.1006L340.74 69.3406C340.76 69.2306 340.75 69.1406 340.7 69.1006Z" fill="#20BB65"/>
<path d="M361.01 73.2405C361.01 73.2405 361.031 73.2104 361.041 73.1904C361.021 73.2004 361.01 73.2205 361.01 73.2405Z" fill="#20BB65"/>
<path d="M342.391 77.3706C342.391 77.3706 342.37 77.4004 342.36 77.4204L342.401 77.3706H342.391Z" fill="#20BB65"/>
<path d="M338.481 76.0205C339.491 76.4805 339.581 77.6006 340.751 77.3606C341.261 77.5406 341.861 77.4006 342.391 77.3606C342.791 76.5706 343.061 77.4706 343.481 76.8306L343.501 77.3206C343.641 77.1006 343.79 76.9605 343.84 77.2405L343.811 77.3804C344.021 77.0504 344.151 77.3004 344.261 77.1304L344.231 77.2705L344.421 77.2405L344.351 77.4304C344.681 77.1004 344.951 77.1306 345.151 77.3406L345.241 76.7705C345.611 77.5005 346.03 76.3604 346.33 77.2004L346.301 77.3406C347.171 75.9506 346.991 78.5405 347.861 77.2305C347.751 77.3905 347.831 77.5304 347.801 77.6704C348.101 77.5604 348.411 77.5404 348.641 76.4204C348.831 76.4804 348.731 76.8005 348.671 77.2405C348.771 76.7505 348.981 76.5806 349.141 76.5806L349.031 76.7505L349.501 76.6704L349.601 75.7305C349.781 76.0405 349.43 76.8704 349.7 76.6904L349.861 75.9204C350.151 76.1404 350.101 77.3405 350.291 77.9705C351.511 78.5705 353.331 76.9205 354.231 78.5305L354.151 79.1206C353.991 79.9606 354.761 77.9505 354.631 78.7405L354.861 78.3904C354.861 78.5504 354.911 78.7304 354.801 78.9004C354.921 78.9604 354.961 78.8306 355.111 78.5906L355.131 79.1404C355.551 79.6604 356.21 78.7606 356.7 79.0806C357.09 80.2906 358.531 79.6004 359.361 79.2104C360.651 78.2004 360.951 81.8004 362.301 80.6304C362.301 80.7604 362.451 80.5104 362.481 80.4204L363.361 80.7705C363.361 80.7705 364.44 81.1405 365.33 80.5505C366.22 79.9505 366.961 78.4005 366.171 74.5105L366.241 74.3406C365.851 73.7606 365.55 73.5804 364.95 74.4004C365.19 73.2704 364.561 74.1805 364.531 73.7805L364.57 73.6904C364.04 74.4704 364.111 72.8105 363.611 73.5005C363.641 73.4105 363.731 73.1106 363.801 73.1106C363.541 73.2006 363.18 73.3704 363.33 72.7104C362.76 72.7504 362.101 72.2605 361.511 73.2205L361.58 73.0505C361.22 73.7005 361.311 73.0904 361.001 73.4004C361.001 73.3104 361.001 73.2605 361.021 73.2305C360.641 73.8705 360.381 73.1904 360.141 73.4404L360.231 73.0005H359.791L359.921 73.1304C359.581 74.3104 359.781 72.3105 359.301 73.0105C359.051 72.7905 358.141 75.3504 357.991 74.7004C357.721 75.2304 358.331 73.8204 358.021 74.2004C358.161 73.5804 358.211 73.8306 358.271 73.3206C358.001 73.5706 358.081 72.6105 357.731 72.9705L357.83 72.4805C357.29 73.2905 357.35 71.7005 356.94 72.4905C356.51 72.8105 357.04 71.0006 356.47 71.8606V71.1704C356.35 71.0304 356.19 71.9506 356.09 71.5906C356.19 71.1806 355.951 71.2106 356.141 70.8406C355.901 70.1106 355.161 71.5904 354.891 70.3804C354.601 71.1604 354.451 70.6304 354.241 71.2104C354.301 70.8604 353.74 71.0406 354.19 70.3406C354.23 70.2806 354.271 70.3004 354.241 70.4404L354.381 69.9705C354.291 69.0105 353.751 70.3504 353.491 70.1504C353.541 70.3304 353.661 70.3106 353.521 70.6206L353.271 70.5005L353.411 70.1106L353.061 69.7905L353.011 70.3005C352.871 70.0005 352.981 69.1405 352.611 69.8005C352.431 70.1705 352.651 70.5106 352.411 70.6206C352.221 70.2306 351.941 69.6304 351.641 69.4104C351.551 69.9804 351.471 69.9405 351.351 70.0305L351.44 69.5405C350.95 70.1405 351.53 68.4404 351.07 68.9104L351.171 68.5806L350.871 69.5806C350.361 70.4806 350.911 68.5305 350.291 69.7805C350.451 69.7205 350.131 70.8706 350.011 70.6206L350.151 70.1604C350.041 70.2404 349.961 70.4306 349.921 70.3206C350.031 70.0806 350.091 69.6404 349.931 69.6904L350.141 69.1206L349.7 69.9304C349.6 69.3804 349.15 69.9505 349.2 69.2705C349.2 69.2705 348.83 68.8605 348.59 69.5605C348.77 69.1305 348.561 68.9104 348.741 68.3904C348.531 68.8804 348.11 69.2304 348.08 68.6604L348.121 68.6006C347.741 67.9506 347.13 69.2004 346.82 68.4304C346.73 69.0004 346.56 68.6504 346.47 69.3804C345.88 70.0104 345.92 67.7504 345.33 69.9604C345.1 70.0404 345.181 69.3905 345.101 69.2505L345.171 69.1404C344.751 69.2504 344.631 69.2504 344.351 69.1404C344.161 69.3304 343.951 70.3706 343.741 70.0706C343.901 69.6706 343.781 69.7304 343.681 69.7104C343.751 69.6604 343.801 69.5104 343.731 69.2104C343.691 69.3404 343.651 69.4105 343.611 69.4705C343.611 69.4405 343.611 69.4106 343.631 69.3706C343.441 69.4906 343.451 69.6204 343.511 69.6904C343.491 69.7504 343.491 69.8304 343.491 69.9504C343.421 69.3804 343.021 69.9004 343.131 69.1804C342.611 69.2604 342.131 69.9304 341.681 70.1304C341.701 69.7504 341.851 69.4506 342.001 69.3306L341.69 69.4104C341.79 68.8804 341.911 69.1405 342.021 69.0505C341.831 68.1405 341.161 69.7804 340.901 68.9204L340.741 69.3206V69.2505C340.691 69.4705 340.551 69.7606 340.481 69.8206C340.501 69.3506 340.67 68.7605 340.47 68.7505C340.39 68.2805 339.991 68.8906 339.741 69.1106C339.841 69.2106 339.761 69.4606 339.681 69.6106C339.581 69.6106 339.601 69.1406 339.491 69.3206L339.59 68.7004C339.53 69.2904 339.221 69.2905 339.141 69.5305C339.161 69.0605 339.36 69.1606 339.45 68.8206C339.04 68.8106 339.25 68.8205 338.84 68.8005C338.55 69.2305 338.78 69.3904 338.58 69.9204C338.37 70.0104 338.12 70.4105 337.97 70.0005L337.94 70.5605C337.52 70.9305 337.321 70.8305 337.181 70.2305C333.831 74.2905 335.601 76.2805 335.601 76.2805C336.411 77.6705 337.201 76.1504 338.481 75.9304V76.0205Z" fill="#20BB65"/>
<path d="M391.97 83.6006L391.95 83.8506C391.99 83.7506 392.01 83.6606 391.97 83.6006Z" fill="#20BB65"/>
<path d="M410.291 94.2905C410.291 94.2905 410.32 94.2805 410.34 94.2605C410.32 94.2605 410.301 94.2805 410.291 94.2905Z" fill="#20BB65"/>
<path d="M391.47 92.0305C391.47 92.0305 391.441 92.0606 391.431 92.0706L391.48 92.0305H391.47Z" fill="#20BB65"/>
<path d="M388.131 89.7805C388.981 90.4605 388.771 91.5706 389.931 91.6206C390.361 91.9106 390.95 91.9305 391.46 92.0305C392.05 91.3705 392.061 92.3105 392.631 91.7905L392.511 92.2705C392.701 92.1005 392.88 92.0005 392.85 92.2705L392.781 92.3904C393.071 92.1304 393.121 92.3905 393.271 92.2705L393.2 92.3904L393.391 92.4104L393.271 92.5706C393.671 92.3406 393.921 92.4404 394.041 92.7004L394.291 92.1804C394.431 92.9804 395.151 92.0104 395.181 92.8904L395.11 93.0105C396.33 91.9305 395.4 94.3406 396.6 93.3506C396.45 93.4706 396.481 93.6305 396.411 93.7505C396.721 93.7405 397.01 93.8005 397.58 92.8105C397.74 92.9205 397.54 93.2006 397.35 93.5906C397.6 93.1506 397.85 93.0606 398 93.1106L397.84 93.2405L398.311 93.3105L398.71 92.4504C398.78 92.8004 398.19 93.4704 398.5 93.3904L398.891 92.7104C399.091 93.0104 398.661 94.1305 398.631 94.7805C399.541 95.7005 401.791 94.7606 402.031 96.5806L401.75 97.1006C401.29 97.8306 402.73 96.2204 402.32 96.9104L402.651 96.6604C402.601 96.8104 402.571 96.9906 402.411 97.1106C402.501 97.2106 402.581 97.0904 402.801 96.9304L402.61 97.4504C402.78 98.0804 403.721 97.4804 404.031 97.9504C403.911 99.2004 405.44 99.0805 406.34 99.0605C407.92 98.6605 406.621 102.01 408.291 101.51C408.231 101.62 408.471 101.47 408.541 101.4L409.131 102.091C409.131 102.091 409.321 102.28 409.641 102.46C409.951 102.64 410.391 102.81 410.921 102.76C411.951 102.63 413.421 101.691 414.531 97.8406L414.671 97.7205C414.581 97.0005 414.38 96.7004 413.47 97.1404C414.19 96.2404 413.21 96.7504 413.36 96.3904L413.431 96.3306C412.601 96.7706 413.39 95.3104 412.62 95.7104C412.69 95.6504 412.9 95.4104 412.97 95.4504C412.69 95.4104 412.28 95.4006 412.7 94.8706C412.15 94.6406 411.731 93.8905 410.781 94.5105L410.911 94.3804C410.301 94.8204 410.63 94.3004 410.23 94.4504C410.27 94.3704 410.291 94.3305 410.311 94.3005C409.701 94.7305 409.731 93.9806 409.401 94.1206L409.661 93.7605L409.24 93.5806L409.32 93.7505C408.54 94.6905 409.511 92.9404 408.781 93.3804C408.631 93.0704 406.791 95.0704 406.901 94.4104C406.451 94.7904 407.55 93.7304 407.11 93.9604C407.48 93.4404 407.431 93.6905 407.681 93.2505C407.331 93.3705 407.771 92.5204 407.301 92.7104L407.58 92.3005C406.77 92.8405 407.41 91.3804 406.73 91.9604C406.2 92.0904 407.37 90.6004 406.5 91.1904L406.75 90.5505C406.68 90.3705 406.19 91.1705 406.23 90.8005C406.48 90.4505 406.231 90.3906 406.541 90.1206C406.561 89.3406 405.34 90.4505 405.49 89.2205C404.95 89.8505 404.98 89.3005 404.58 89.7705C404.76 89.4605 404.15 89.4304 404.83 88.9404C404.89 88.9004 404.92 88.9405 404.84 89.0505L405.131 88.6604C405.361 87.7104 404.38 88.7905 404.21 88.5105C404.21 88.7005 404.32 88.7205 404.08 88.9705L403.881 88.7605L404.151 88.4404L403.921 88.0105L403.7 88.4705C403.66 88.1405 404.05 87.3606 403.47 87.8606C403.17 88.1506 403.281 88.5506 403.011 88.5706C402.961 88.1306 402.871 87.4704 402.651 87.1604C402.391 87.6704 402.321 87.6104 402.181 87.6604L402.421 87.2205C401.751 87.6305 402.851 86.2005 402.261 86.4905L402.46 86.2104L401.85 87.0605C401.07 87.7505 402.21 86.0705 401.22 87.0605C401.39 87.0605 400.74 88.0505 400.69 87.7705L400.97 87.3706C400.83 87.4106 400.71 87.5704 400.7 87.4504C400.88 87.2504 401.071 86.8606 400.901 86.8606L401.281 86.3804L400.61 87.0205C400.68 86.4705 400.07 86.8705 400.32 86.2305C400.32 86.2305 400.081 85.7206 399.631 86.3206C399.931 85.9606 399.79 85.6805 400.11 85.2405C399.76 85.6405 399.251 85.8505 399.381 85.3005L399.431 85.2605C399.241 84.5105 398.29 85.5204 398.19 84.7004C397.94 85.2204 397.87 84.8305 397.58 85.5205C396.83 85.9505 397.481 83.7905 396.301 85.7405C396.051 85.7505 396.311 85.1505 396.271 84.9905L396.37 84.9104C395.93 84.8904 395.811 84.8604 395.561 84.6804C395.331 84.8104 394.84 85.7604 394.71 85.4104C394.97 85.0704 394.84 85.0905 394.75 85.0505C394.84 85.0205 394.921 84.8906 394.931 84.5806C394.861 84.6906 394.8 84.7505 394.74 84.8005C394.75 84.7705 394.761 84.7404 394.781 84.7004C394.561 84.7604 394.53 84.8905 394.58 84.9805C394.55 85.0405 394.52 85.1105 394.49 85.2305C394.57 84.6605 394.04 85.0504 394.33 84.3904C393.81 84.3204 393.161 84.8504 392.671 84.9304C392.781 84.5704 393.011 84.3105 393.181 84.2305H392.85C393.08 83.7405 393.131 84.0204 393.261 83.9604C393.301 83.0204 392.24 84.4405 392.19 83.5405L391.94 83.8904V83.8206C391.86 84.0206 391.651 84.2605 391.561 84.3005C391.701 83.8505 392.011 83.3205 391.811 83.2605C391.851 82.7805 391.3 83.2804 391 83.4304C391.07 83.5504 390.93 83.7704 390.82 83.9004C390.72 83.8704 390.86 83.4206 390.7 83.5806L390.95 83.0005C390.75 83.5605 390.451 83.4804 390.311 83.7004C390.441 83.2504 390.621 83.4006 390.781 83.0806C390.381 82.9706 390.581 83.0204 390.181 82.9104C389.791 83.2604 389.981 83.4704 389.661 83.9404C389.441 83.9804 389.091 84.3006 389.041 83.8706L388.881 84.4104C388.381 84.6704 388.21 84.5304 388.21 83.9204C386.11 85.5104 385.41 86.9004 385.2 87.8904C385 88.8704 385.301 89.4504 385.301 89.4504C385.741 90.9704 386.84 89.6705 388.11 89.7605L388.131 89.7805Z" fill="#20BB65"/>
<path d="M427.98 120.021L427.771 120.121C427.871 120.091 427.96 120.061 427.98 120.021Z" fill="#20BB65"/>
<path d="M420.901 121.42C420.751 121.94 419.721 122.32 420.261 122.66C420.221 122.9 420.52 123.07 420.7 123.26C421.55 123.18 420.771 123.541 421.491 123.521L421.031 123.67C421.281 123.67 421.45 123.671 421.2 123.771L421.061 123.801C421.431 123.801 421.231 123.9 421.421 123.9L421.281 123.92L421.361 123.98L421.161 124.01C421.561 124.05 421.6 124.161 421.45 124.291L422.021 124.17C421.421 124.5 422.621 124.37 421.901 124.7L421.761 124.72C423.311 124.72 420.801 125.281 422.271 125.301C422.091 125.301 421.98 125.36 421.84 125.38C422.02 125.47 422.131 125.59 423.261 125.42C423.261 125.51 422.921 125.541 422.481 125.621C422.971 125.551 423.191 125.59 423.231 125.66H423.031L423.231 125.831L424.161 125.66C423.911 125.81 423.021 125.85 423.271 125.92L424.041 125.811C423.911 125.981 422.75 126.22 422.19 126.43C421.93 127.03 423.981 127.46 422.661 128.13L422.08 128.2C421.23 128.28 423.36 128.241 422.57 128.331L422.971 128.361C422.821 128.391 422.66 128.44 422.46 128.42C422.43 128.48 422.57 128.47 422.83 128.49L422.301 128.591C421.911 128.841 422.941 128.97 422.751 129.23C421.681 129.58 422.701 130.061 423.301 130.371C424.591 130.801 421.191 131.371 422.651 131.811C422.531 131.821 422.801 131.861 422.901 131.861L422.781 132.281C422.781 132.281 422.691 132.781 423.491 133.121C424.291 133.451 425.981 133.7 429.551 132.91L429.741 132.93C430.201 132.68 430.311 132.511 429.361 132.311C430.511 132.291 429.481 132.091 429.851 132.041H429.94C429.05 131.881 430.681 131.711 429.891 131.561C429.981 131.561 430.3 131.561 430.32 131.601C430.18 131.491 429.92 131.331 430.59 131.321C430.41 131.051 430.711 130.66 429.641 130.51H429.83C429.11 130.44 429.721 130.391 429.351 130.291C429.441 130.291 429.481 130.271 429.521 130.271C428.801 130.181 429.4 129.96 429.09 129.89L429.531 129.871L429.421 129.66L429.33 129.74C428.11 129.76 430.091 129.55 429.291 129.43C429.441 129.27 426.73 129.271 427.32 129.091C426.74 129.051 428.251 129.091 427.811 129.021C428.451 128.981 428.211 129.05 428.721 128.99C428.411 128.9 429.361 128.78 428.921 128.68L429.421 128.64C428.501 128.53 430.051 128.28 429.181 128.22C428.761 128.08 430.641 127.99 429.661 127.88L430.33 127.76C430.43 127.67 429.5 127.76 429.82 127.66C430.24 127.63 430.151 127.521 430.551 127.541C431.201 127.281 429.581 127.221 430.671 126.851C429.841 126.871 430.32 126.69 429.7 126.71C430.06 126.67 429.731 126.44 430.521 126.51C430.581 126.51 430.58 126.541 430.44 126.551L430.931 126.521C431.831 126.271 430.401 126.3 430.521 126.13C430.361 126.19 430.41 126.25 430.08 126.24L430.131 126.101L430.541 126.081L430.751 125.851L430.251 125.94C430.501 125.81 431.351 125.67 430.621 125.64C430.211 125.64 429.951 125.82 429.781 125.73C430.111 125.56 430.611 125.291 430.731 125.091C430.161 125.181 430.181 125.131 430.061 125.101L430.551 125.031C429.841 124.941 431.631 124.81 431.051 124.71L431.401 124.68L430.361 124.781C429.361 124.761 431.371 124.541 430.011 124.561C430.101 124.621 428.931 124.75 429.131 124.63L429.611 124.581C429.501 124.551 429.301 124.56 429.401 124.51C429.661 124.51 430.091 124.421 430.001 124.361L430.601 124.321H429.71C430.2 124.131 429.54 124.07 430.2 123.92C430.2 123.92 430.491 123.64 429.751 123.71C430.211 123.68 430.371 123.53 430.911 123.47C430.391 123.5 429.941 123.4 430.471 123.23H430.531C431.051 122.87 429.68 122.931 430.32 122.581C429.75 122.701 430.04 122.52 429.32 122.69C428.56 122.6 430.71 121.971 428.46 122.341C428.32 122.261 428.961 122.111 429.061 122.031H429.181C428.961 121.871 428.92 121.82 428.94 121.66C428.71 121.63 427.671 121.85 427.891 121.66C428.311 121.61 428.22 121.581 428.21 121.531C428.28 121.551 428.44 121.53 428.7 121.4C428.57 121.42 428.491 121.42 428.421 121.42C428.451 121.42 428.481 121.41 428.521 121.4C428.361 121.35 428.231 121.4 428.181 121.44C428.121 121.45 428.041 121.47 427.931 121.51C428.441 121.31 427.841 121.291 428.541 121.121C428.321 120.911 427.551 120.911 427.231 120.781C427.591 120.671 427.92 120.64 428.07 120.66L427.901 120.551C428.421 120.421 428.22 120.551 428.33 120.581C429.13 120.201 427.401 120.441 428.121 120.051L427.7 120.111L427.771 120.081C427.551 120.141 427.251 120.17 427.171 120.16C427.611 120.01 428.211 119.891 428.161 119.801C428.571 119.611 427.891 119.631 427.611 119.601C427.551 119.671 427.291 119.72 427.131 119.74C427.101 119.7 427.54 119.551 427.34 119.561L427.95 119.39C427.38 119.57 427.301 119.43 427.041 119.48C427.481 119.33 427.451 119.451 427.791 119.371C427.681 119.191 427.731 119.281 427.621 119.101C427.131 119.131 427.051 119.28 426.511 119.38C426.371 119.32 425.921 119.36 426.261 119.15L425.731 119.341C425.271 119.301 425.301 119.18 425.811 118.91C423.441 118.96 421.951 119.401 421.031 119.771C420.111 120.151 419.781 120.48 419.781 120.48C418.721 121.25 420.341 120.98 420.901 121.38V121.42Z" fill="#20BB65"/>
</svg>
