<svg width="272" height="104" viewBox="0 0 272 104" fill="none" xmlns="http://www.w3.org/2000/svg">
<path d="M270.73 6.39087L270.5 6.37109C270.59 6.41109 270.68 6.43087 270.73 6.39087Z" fill="#ACDE45"/>
<path d="M258.13 20.9404C258.13 20.9404 258.13 20.9705 258.14 20.9905C258.14 20.9705 258.14 20.9504 258.13 20.9404Z" fill="#ACDE45"/>
<path d="M263.07 5.33105C263.07 5.33105 263.05 5.30102 263.03 5.29102L263.07 5.33105Z" fill="#ACDE45"/>
<path d="M265 2.86086C264.42 3.50086 263.43 3.24065 263.42 4.15066C263.15 4.45065 263.16 4.93083 263.07 5.33083C263.64 5.90083 262.8 5.77081 263.24 6.31081L262.82 6.14065C262.97 6.33065 263.05 6.49067 262.8 6.42067L262.69 6.34084C262.91 6.62084 262.67 6.62076 262.78 6.76076L262.67 6.68068L262.64 6.83083L262.5 6.71071C262.68 7.07071 262.57 7.26082 262.33 7.32082L262.78 7.62087C262.06 7.59087 262.88 8.38074 262.08 8.24074L261.98 8.16066C262.81 9.40066 260.77 8.12084 261.53 9.34084C261.44 9.19084 261.3 9.18085 261.2 9.10085C261.19 9.37085 261.08 9.59078 261.89 10.2808C261.77 10.3908 261.55 10.1607 261.23 9.91066C261.58 10.2107 261.63 10.4508 261.57 10.5608L261.47 10.4007L261.34 10.7808L262.04 11.3108C261.72 11.2908 261.21 10.6407 261.24 10.9207L261.78 11.4007C261.49 11.5207 260.58 10.8907 260.01 10.7107C259.08 11.2507 259.5 13.4107 257.88 13.1507L257.48 12.7708C256.94 12.1908 258.05 13.8308 257.53 13.3108L257.68 13.6607C257.56 13.5707 257.41 13.5108 257.34 13.3308C257.24 13.3808 257.32 13.4807 257.42 13.7107L257.01 13.4107C256.45 13.4107 256.77 14.3608 256.29 14.5008C255.25 14.0608 255.01 15.4007 254.84 16.2007C254.84 17.6707 252.23 15.6507 252.27 17.2307C252.18 17.1507 252.27 17.4007 252.31 17.4807L251.58 17.8208C251.58 17.8208 250.73 18.2607 250.6 19.2207C250.49 20.1707 251.02 21.6907 254.11 23.6607L254.18 23.8208C254.81 23.9308 255.13 23.8507 254.93 22.9307C255.55 23.8007 255.32 22.8108 255.6 23.0308L255.64 23.1109C255.43 22.2609 256.53 23.3508 256.36 22.5808C256.4 22.6608 256.56 22.9007 256.51 22.9507C256.61 22.7307 256.71 22.3709 257.07 22.8709C257.39 22.4509 258.13 22.2808 257.81 21.2908L257.89 21.4407C257.65 20.7907 258.02 21.2308 257.99 20.8308C258.05 20.8908 258.08 20.9107 258.1 20.9407C257.87 20.2907 258.5 20.5107 258.46 20.1907L258.72 20.5108L258.98 20.2007L258.81 20.2207C258.16 19.2907 259.48 20.6109 259.26 19.8509C259.57 19.8009 258.22 17.6607 258.77 17.9307C258.54 17.4307 259.22 18.6807 259.12 18.2407C259.5 18.7007 259.28 18.5907 259.62 18.9207C259.59 18.5807 260.25 19.1907 260.18 18.7307L260.48 19.0808C260.18 18.2308 261.33 19.1807 260.97 18.4207C260.97 17.9207 262.03 19.3207 261.69 18.4107L262.2 18.7908C262.38 18.7708 261.77 18.1508 262.1 18.2708C262.35 18.5708 262.46 18.3707 262.64 18.7107C263.33 18.9207 262.62 17.5707 263.67 17.9907C263.22 17.3607 263.71 17.5208 263.38 17.0508C263.62 17.2808 263.77 16.7507 264.07 17.4607C264.09 17.5207 264.06 17.5407 263.97 17.4407L264.26 17.7908C265.06 18.2108 264.31 17.1008 264.6 17.0008C264.44 16.9508 264.38 17.0508 264.22 16.7808L264.44 16.6406L264.67 16.9507L265.1 16.8308L264.73 16.5408C265.03 16.5808 265.66 17.0907 265.32 16.4607C265.12 16.1307 264.74 16.1507 264.77 15.9007C265.17 15.9507 265.79 16.0109 266.12 15.8709C265.71 15.5309 265.78 15.4808 265.76 15.3408L266.11 15.6406C265.86 14.9506 266.95 16.2309 266.8 15.6209L267.02 15.8609L266.36 15.1507C265.88 14.3107 267.19 15.6608 266.48 14.5808C266.45 14.7308 265.67 13.9607 265.93 13.9707L266.24 14.2908C266.23 14.1608 266.11 14.0208 266.22 14.0308C266.37 14.2308 266.69 14.4708 266.72 14.3208L267.08 14.7508L266.62 14.0208C267.12 14.1808 266.85 13.5506 267.39 13.8906C267.39 13.8906 267.9 13.7507 267.42 13.2407C267.7 13.5707 267.98 13.4909 268.33 13.8509C268.02 13.4608 267.91 12.9607 268.4 13.1707L268.43 13.2307C269.16 13.1607 268.35 12.1206 269.13 12.1406C268.68 11.8406 269.06 11.8307 268.46 11.4807C268.16 10.7407 270.09 11.5908 268.42 10.2708C268.43 10.0408 268.96 10.3408 269.11 10.3108L269.18 10.4107C269.24 9.99066 269.28 9.89068 269.48 9.68068C269.38 9.45068 268.55 8.92084 268.89 8.84084C269.18 9.11084 269.17 8.99066 269.22 8.91066C269.24 8.99066 269.36 9.08086 269.64 9.11086C269.54 9.03086 269.49 8.97067 269.45 8.92067C269.48 8.93067 269.5 8.94072 269.53 8.97072C269.49 8.76072 269.37 8.73076 269.29 8.76076C269.24 8.73076 269.17 8.69066 269.07 8.66066C269.58 8.77066 269.26 8.25082 269.85 8.57082C269.95 8.08082 269.5 7.45075 269.45 7.00075C269.78 7.12075 270.01 7.34075 270.07 7.50075C270.07 7.40075 270.09 7.3007 270.09 7.2007C270.53 7.4307 270.27 7.48085 270.32 7.60085C271.2 7.67085 269.91 6.62085 270.74 6.60085L270.42 6.36086H270.49C270.3 6.28086 270.08 6.08075 270.05 6.00075C270.47 6.14075 270.95 6.43074 271.01 6.24074C271.45 6.27074 271.01 5.76073 270.87 5.48073C270.76 5.55073 270.56 5.42082 270.43 5.32082C270.45 5.23082 270.87 5.35071 270.73 5.21071L271.27 5.43068C270.75 5.25068 270.82 4.96084 270.61 4.84084C271.03 4.96084 270.9 5.12077 271.19 5.27077C271.29 4.89077 271.24 5.0807 271.33 4.7007C271 4.3507 270.8 4.53075 270.36 4.25075C270.32 4.04075 270 3.74068 270.41 3.68068L269.9 3.5508C269.64 3.1108 269.75 2.95067 270.32 2.92067C268.7 1.11067 267.33 0.660782 266.41 0.530782C265.49 0.410782 265 0.640645 265 0.640645C263.69 0.970645 264.98 1.81085 264.99 2.85085L265 2.86086Z" fill="#ACDE45"/>
<path d="M231.98 33.5305L231.84 33.3506C231.87 33.4406 231.92 33.5205 231.98 33.5305Z" fill="#ACDE45"/>
<path d="M230.64 26.9205C229.67 26.9805 229.12 26.1006 228.33 26.7906C227.87 26.8606 227.47 27.2305 227.08 27.4805C227.11 28.2905 226.52 27.6707 226.48 28.3707L226.25 27.9805C226.23 28.2205 226.18 28.4005 226.03 28.1905L226 28.0706C225.98 28.4306 225.78 28.2805 225.76 28.4605L225.73 28.3306L225.6 28.4305L225.57 28.2505C225.46 28.6605 225.24 28.7505 224.99 28.6605L225.16 29.1705C224.56 28.7205 224.73 29.8406 224.14 29.2706L224.11 29.1404C224.03 30.6504 223.07 28.4404 222.95 29.8804C222.96 29.7004 222.84 29.6205 222.81 29.5005C222.62 29.7205 222.4 29.8604 222.69 30.8804C222.52 30.9204 222.46 30.6005 222.32 30.2205C222.45 30.6605 222.36 30.8905 222.23 30.9605V30.7706L221.91 31.0306L222.23 31.8506C221.96 31.6706 221.88 30.8406 221.75 31.1006L221.95 31.8006C221.63 31.7406 221.17 30.7406 220.75 30.3006C219.55 30.3206 218.82 32.4205 217.43 31.4705L217.24 30.9605C217.01 30.2005 217.26 32.1705 217.03 31.4705L217 31.8506C216.93 31.7206 216.81 31.5905 216.83 31.4105C216.71 31.4105 216.74 31.5406 216.72 31.7906L216.47 31.3506C215.92 31.1006 215.79 32.1206 215.27 32.0606C214.44 31.2406 213.62 32.4206 213.15 33.1006C212.59 34.4806 210.78 31.6905 210.25 33.2405C210.19 33.1405 210.18 33.4005 210.21 33.4905L209.37 33.6006C209.37 33.6006 205.37 34.3605 210 39.9405L210.02 40.1107C210.57 40.4007 210.88 40.4105 210.97 39.4805C211.29 40.5005 211.36 39.4806 211.56 39.7906V39.8804C211.64 39.0104 212.31 40.3907 212.38 39.6107C212.39 39.6907 212.46 39.9806 212.4 40.0106C212.56 39.8306 212.76 39.5304 212.93 40.1304C213.35 39.8504 214.06 39.9605 214.1 38.9205L214.12 39.0906C214.12 38.4006 214.31 38.9406 214.41 38.5606C214.44 38.6406 214.47 38.6705 214.47 38.7105C214.48 38.0205 214.97 38.4705 215.05 38.1605L215.17 38.5606L215.51 38.3707L215.35 38.3206C215.1 37.2106 215.81 38.9305 215.88 38.1505C216.16 38.2205 215.76 35.7405 216.16 36.2105C216.14 35.6605 216.28 37.0704 216.35 36.6304C216.51 37.2004 216.36 37.0105 216.53 37.4505C216.63 37.1305 216.98 37.9606 217.1 37.5106L217.23 37.9505C217.3 37.0605 217.93 38.3906 217.91 37.5606C218.11 37.1106 218.47 38.8307 218.54 37.8707L218.83 38.4405C218.99 38.5005 218.72 37.6805 218.95 37.9305C219.05 38.3105 219.22 38.1806 219.23 38.5706C219.73 39.0706 219.67 37.5505 220.39 38.4305C220.28 37.6705 220.62 38.0505 220.54 37.4705C220.64 37.7905 221 37.4005 220.94 38.1705C220.94 38.2305 220.89 38.2307 220.86 38.1107L220.95 38.5506C221.43 39.3106 221.28 37.9706 221.56 38.0406C221.45 37.9106 221.36 37.9805 221.34 37.6605H221.59L221.65 38.0406L222.05 38.1605L221.88 37.7205C222.11 37.9105 222.39 38.6705 222.4 37.9705C222.38 37.5905 222.07 37.4005 222.21 37.2105C222.52 37.4605 222.99 37.8304 223.32 37.8804C223.15 37.3804 223.23 37.3705 223.28 37.2505L223.42 37.6905C223.55 36.9905 223.81 38.6306 223.97 38.0606L224.03 38.3804L223.84 37.4305C223.86 36.4705 224.25 38.3106 224.21 37.0206C224.11 37.1306 223.87 36.0605 224.07 36.2105L224.16 36.6505C224.21 36.5405 224.19 36.3505 224.27 36.4205C224.29 36.6605 224.43 37.0505 224.52 36.9405L224.6 37.5005V36.6505C224.91 37.0605 225.01 36.4005 225.26 36.9805C225.26 36.9805 225.72 37.1605 225.61 36.4805C225.66 36.9105 225.91 37.0106 226 37.5106C225.96 37.0206 226.13 36.5506 226.4 37.0106V37.0706C226.97 37.4506 226.91 36.1605 227.48 36.6505C227.31 36.1405 227.59 36.3605 227.34 35.7205C227.53 34.9505 228.47 36.8306 227.98 34.7606C228.12 34.5906 228.34 35.1705 228.46 35.2405V35.3607C228.73 35.0907 228.82 35.0406 229.09 35.0106C229.15 34.7706 228.87 33.8305 229.16 33.9905C229.21 34.3905 229.28 34.2906 229.36 34.2606C229.33 34.3406 229.36 34.4805 229.54 34.6905C229.52 34.5705 229.52 34.4905 229.52 34.4305C229.53 34.4605 229.54 34.4806 229.55 34.5206C229.65 34.3406 229.58 34.2405 229.5 34.2105C229.48 34.1505 229.46 34.0805 229.4 33.9805C229.7 34.4205 229.79 33.8205 230.01 34.4505C230.38 34.1705 230.46 33.4106 230.72 33.0506C230.87 33.3706 230.88 33.6806 230.83 33.8406L231.04 33.6404C231.19 34.1104 230.99 33.9606 230.95 34.0806C231.5 34.7506 231.3 33.1205 231.87 33.7005L231.82 33.3006L231.86 33.3506C231.79 33.1506 231.78 32.8606 231.81 32.7806C232 33.1706 232.13 33.7304 232.29 33.6404C232.56 33.9904 232.6 33.3106 232.7 33.0306C232.58 32.9906 232.53 32.7606 232.53 32.6006C232.61 32.5606 232.8 32.9505 232.8 32.7505L233 33.3006C232.79 32.7906 233.03 32.6605 232.98 32.4305C233.17 32.8205 232.98 32.8304 233.06 33.1404C233.38 32.9704 233.22 33.0604 233.54 32.8904C233.57 32.4104 233.33 32.3807 233.24 31.8707C233.36 31.7107 233.38 31.2706 233.68 31.5406L233.45 31.0706C233.61 30.5906 233.81 30.5805 234.18 31.0005C234.56 28.6205 234.16 27.2205 233.7 26.4205C233.23 25.6205 232.68 25.4005 232.68 25.4005C231.46 24.6205 231.54 26.1905 230.67 26.9205H230.64Z" fill="#ACDE45"/>
<path d="M186.83 45.3311L186.71 45.1309C186.73 45.2309 186.77 45.3111 186.83 45.3311Z" fill="#ACDE45"/>
<path d="M186.26 38.6108C185.28 38.5608 184.82 37.6207 183.94 38.2307C183.46 38.2507 183.02 38.5808 182.6 38.7908C182.55 39.6008 182.01 38.9208 181.9 39.6208L181.71 39.2107C181.67 39.4507 181.6 39.6206 181.46 39.4006L181.44 39.2707C181.38 39.6307 181.19 39.4606 181.16 39.6406L181.14 39.5107L180.99 39.6008V39.4106C180.83 39.8106 180.6 39.8807 180.36 39.7607L180.49 40.2807C179.93 39.7807 179.99 40.9107 179.45 40.2807L179.43 40.1506C179.21 41.6506 178.44 39.3608 178.19 40.7908C178.22 40.6108 178.11 40.5206 178.09 40.3906C177.88 40.5906 177.64 40.7207 177.85 41.7607C177.67 41.7807 177.64 41.4608 177.54 41.0708C177.63 41.5208 177.52 41.7408 177.39 41.8008L177.42 41.6108L177.06 41.8408L177.31 42.6806C177.05 42.4706 177.05 41.6406 176.89 41.8906L177.03 42.6008C176.72 42.5208 176.33 41.4707 175.95 41.0007C174.74 40.9207 173.86 42.9806 172.54 41.9306L172.39 41.4006C172.22 40.6206 172.32 42.6106 172.14 41.9006L172.08 42.2807C172.02 42.1507 171.92 42.0108 171.94 41.8208C171.82 41.8208 171.84 41.9407 171.8 42.1907L171.58 41.7307C171.05 41.4407 170.85 42.4508 170.33 42.3508C169.57 41.4708 168.66 42.5807 168.13 43.2207C167.46 44.5507 165.88 41.6208 165.22 43.1208C165.17 43.0108 165.14 43.2808 165.16 43.3708L164.32 43.4106C164.32 43.4106 160.26 43.8107 164.45 49.7707V49.9407C164.99 50.2807 165.29 50.3206 165.45 49.4006C165.69 50.4406 165.84 49.4407 166.01 49.7607V49.8508C166.15 48.9908 166.71 50.4206 166.85 49.6506C166.85 49.7406 166.9 50.0308 166.85 50.0508C167.02 49.8808 167.25 49.6007 167.37 50.2107C167.81 49.9707 168.51 50.1308 168.63 49.1008V49.2707C168.69 48.5807 168.84 49.1307 168.97 48.7607C169 48.8407 169.02 48.8806 169.02 48.9106C169.09 48.2206 169.54 48.7106 169.64 48.4006L169.72 48.8008L170.07 48.6406L169.92 48.5808C169.76 47.4508 170.33 49.2307 170.46 48.4607C170.74 48.5507 170.53 46.0408 170.89 46.5408C170.92 45.9908 170.94 47.4107 171.05 46.9707C171.17 47.5507 171.03 47.3508 171.17 47.8108C171.3 47.5008 171.58 48.3506 171.73 47.9106L171.82 48.3608C171.96 47.4808 172.48 48.8507 172.53 48.0207C172.76 47.5907 172.99 49.3306 173.13 48.3806L173.37 48.9707C173.52 49.0407 173.32 48.2007 173.53 48.4707C173.59 48.8607 173.78 48.7406 173.76 49.1306C174.21 49.6706 174.28 48.1408 174.92 49.0808C174.87 48.3108 175.18 48.7106 175.14 48.1406C175.22 48.4606 175.6 48.1108 175.49 48.8708C175.48 48.9308 175.44 48.9308 175.42 48.8008L175.48 49.2507C175.9 50.0407 175.85 48.7007 176.13 48.7807C176.03 48.6507 175.94 48.7106 175.94 48.3906H176.18L176.2 48.7908L176.59 48.9407L176.45 48.4907C176.67 48.6907 176.88 49.4707 176.94 48.7807C176.95 48.4007 176.66 48.1907 176.81 48.0107C177.1 48.2807 177.53 48.6907 177.85 48.7707C177.72 48.2507 177.8 48.2606 177.85 48.1306L177.95 48.5808C178.13 47.8908 178.26 49.5507 178.47 48.9907L178.51 49.3108L178.4 48.3508C178.5 47.4008 178.74 49.2607 178.8 47.9707C178.69 48.0707 178.54 46.9806 178.73 47.1506L178.78 47.5908C178.84 47.4808 178.83 47.2908 178.91 47.3708C178.91 47.6208 179.01 48.0106 179.12 47.9106L179.15 48.4707L179.22 47.6208C179.49 48.0508 179.65 47.4107 179.85 48.0107C179.85 48.0107 180.29 48.2308 180.24 47.5408C180.24 47.9708 180.49 48.0908 180.53 48.6008C180.53 48.1108 180.74 47.6606 180.96 48.1406V48.2007C181.49 48.6307 181.54 47.3406 182.06 47.8906C181.93 47.3706 182.2 47.6107 182.01 46.9507C182.27 46.2107 183.02 48.1608 182.73 46.0608C182.89 45.9108 183.05 46.5008 183.16 46.5908L183.14 46.7107C183.44 46.4707 183.54 46.4306 183.8 46.4206C183.88 46.1906 183.7 45.2306 183.98 45.4106C183.98 45.8106 184.06 45.7207 184.15 45.7007C184.11 45.7707 184.12 45.9206 184.29 46.1506C184.29 46.0306 184.29 45.9506 184.29 45.8806C184.29 45.9106 184.31 45.9307 184.31 45.9707C184.42 45.8007 184.37 45.6906 184.3 45.6506C184.3 45.5906 184.27 45.5206 184.23 45.4206C184.48 45.8806 184.63 45.3007 184.79 45.9507C185.18 45.7107 185.34 44.9706 185.64 44.6406C185.75 44.9706 185.73 45.2907 185.66 45.4407L185.88 45.2607C185.98 45.7507 185.8 45.5706 185.74 45.6806C186.21 46.4006 186.18 44.7606 186.69 45.4106V45.0107L186.71 45.0708C186.67 44.8708 186.68 44.5707 186.72 44.5007C186.86 44.9107 186.93 45.4806 187.09 45.4106C187.31 45.7906 187.43 45.1208 187.56 44.8508C187.45 44.8008 187.43 44.5606 187.44 44.4006C187.52 44.3706 187.66 44.7808 187.69 44.5808L187.82 45.1506C187.67 44.6206 187.92 44.5207 187.9 44.2807C188.04 44.6907 187.85 44.6707 187.9 45.0007C188.23 44.8707 188.07 44.9408 188.4 44.8108C188.49 44.3408 188.25 44.2807 188.23 43.7607C188.37 43.6107 188.44 43.1807 188.7 43.4807L188.53 42.9907C188.75 42.5307 188.94 42.5507 189.26 43.0207C190.61 38.3907 188.49 37.2807 188.49 37.2807C187.36 36.3607 187.23 37.9308 186.26 38.5608V38.6108Z" fill="#ACDE45"/>
<path d="M140.95 53.3005L140.85 53.1006C140.86 53.2006 140.89 53.2805 140.95 53.3005Z" fill="#ACDE45"/>
<path d="M122.99 55.6602C122.99 55.6602 122.99 55.6902 122.98 55.7102C122.98 55.6902 122.99 55.6802 122.99 55.6602Z" fill="#ACDE45"/>
<path d="M137.21 46.4404C137.21 46.4404 137.21 46.4104 137.22 46.3804V46.4404H137.21Z" fill="#ACDE45"/>
<path d="M140.89 46.5705C139.91 46.4305 139.52 45.4705 138.59 46.0005C138.11 45.9805 137.64 46.2704 137.2 46.4504C137.09 47.2504 136.6 46.5404 136.43 47.2204L136.27 46.7905C136.21 47.0205 136.13 47.1904 136.01 46.9604V46.8305C135.91 47.1805 135.74 47.0004 135.69 47.1804V47.0505L135.53 47.1303V46.9404C135.35 47.3204 135.12 47.3804 134.88 47.2404L134.97 47.7705C134.44 47.2305 134.43 48.3604 133.93 47.7004V47.5705C133.6 49.0405 132.98 46.7106 132.63 48.1206C132.67 47.9406 132.57 47.8504 132.55 47.7204C132.33 47.9004 132.08 48.0205 132.22 49.0605C132.04 49.0605 132.03 48.7506 131.96 48.3506C132.02 48.8106 131.89 49.0205 131.76 49.0705L131.8 48.8803L131.43 49.0905L131.62 49.9504C131.38 49.7304 131.43 48.9003 131.25 49.1303L131.35 49.8506C131.04 49.7506 130.73 48.6804 130.37 48.1804C129.16 48.0204 128.15 50.0103 126.9 48.8903L126.78 48.3606C126.66 47.5706 126.63 49.5705 126.5 48.8405L126.42 49.2204C126.37 49.0804 126.27 48.9405 126.31 48.7605C126.19 48.7405 126.2 48.8706 126.15 49.1206L125.96 48.6504C125.45 48.3304 125.18 49.3204 124.67 49.1904C123.96 48.2604 122.98 49.3204 122.42 49.9404C121.68 51.2304 120.25 48.2204 119.51 49.6904C119.47 49.5804 119.42 49.8404 119.43 49.9304H118.58C118.58 49.9304 114.5 50.1405 118.39 56.2905V56.4604C118.9 56.8204 119.2 56.8804 119.41 55.9704C119.59 57.0204 119.8 56.0306 119.95 56.3606V56.4504C120.13 55.6004 120.61 57.0505 120.79 56.2905C120.79 56.3805 120.82 56.6704 120.76 56.6904C120.94 56.5304 121.18 56.2603 121.27 56.8803C121.72 56.6603 122.41 56.8605 122.58 55.8405V56.0105C122.67 55.3205 122.79 55.8805 122.94 55.5205C122.96 55.6005 122.98 55.6404 122.98 55.6704C123.08 54.9904 123.51 55.5004 123.62 55.2004L123.68 55.6106L124.04 55.4704L123.89 55.4004C123.79 54.2704 124.26 56.0705 124.44 55.3105C124.71 55.4205 124.65 52.9004 124.98 53.4204C125.04 52.8804 124.98 54.2906 125.11 53.8606C125.19 54.4506 125.07 54.2404 125.18 54.7004C125.33 54.4004 125.56 55.2605 125.73 54.8405L125.8 55.3005C125.99 54.4305 126.43 55.8305 126.53 55.0105C126.78 54.5905 126.91 56.3404 127.11 55.4104L127.31 56.0105C127.46 56.0905 127.31 55.2405 127.5 55.5205C127.54 55.9105 127.73 55.8104 127.69 56.1904C128.11 56.7604 128.27 55.2404 128.85 56.2104C128.85 55.4404 129.13 55.8605 129.13 55.2805C129.19 55.6105 129.59 55.2805 129.43 56.0305C129.42 56.0905 129.38 56.0904 129.36 55.9604L129.39 56.4104C129.76 57.2304 129.79 55.8804 130.06 55.9804C129.97 55.8404 129.87 55.8905 129.9 55.5805L130.14 55.6106V56.0005L130.52 56.1804L130.41 55.7204C130.61 55.9404 130.78 56.7305 130.88 56.0405C130.92 55.6605 130.63 55.4305 130.8 55.2605C131.07 55.5505 131.48 55.9905 131.79 56.0905C131.69 55.5705 131.77 55.5804 131.84 55.4604L131.91 55.9204C132.13 55.2404 132.16 56.9106 132.4 56.3706L132.42 56.6904L132.37 55.7204C132.53 54.7804 132.65 56.6506 132.79 55.3706C132.68 55.4606 132.6 54.3705 132.77 54.5505L132.79 55.0005C132.86 54.9005 132.86 54.7105 132.93 54.7905C132.91 55.0305 132.99 55.4406 133.1 55.3506V55.9104L133.21 55.0705C133.45 55.5205 133.65 54.8905 133.81 55.5005C133.81 55.5005 134.23 55.7605 134.23 55.0605C134.21 55.4905 134.44 55.6303 134.45 56.1303C134.48 55.6403 134.72 55.2104 134.91 55.7004V55.7605C135.4 56.2305 135.54 54.9505 136.02 55.5405C135.93 55.0105 136.18 55.2706 136.03 54.6006C136.34 53.8806 136.95 55.8905 136.81 53.7705C136.98 53.6305 137.09 54.2305 137.2 54.3305L137.17 54.4504C137.49 54.2304 137.59 54.2004 137.85 54.2204C137.95 54.0004 137.84 53.0204 138.1 53.2304C138.08 53.6304 138.16 53.5405 138.25 53.5305C138.2 53.6005 138.21 53.7404 138.35 53.9904C138.35 53.8704 138.36 53.7904 138.38 53.7304C138.38 53.7604 138.39 53.7805 138.4 53.8305C138.52 53.6705 138.48 53.5605 138.4 53.5105C138.4 53.4505 138.38 53.3805 138.34 53.2705C138.56 53.7505 138.75 53.1806 138.86 53.8506C139.27 53.6406 139.48 52.9106 139.8 52.6106C139.89 52.9506 139.85 53.2604 139.76 53.4104L140 53.2505C140.07 53.7405 139.89 53.5504 139.83 53.6604C140.24 54.4204 140.34 52.7904 140.79 53.4704L140.81 53.0705L140.84 53.1303C140.81 52.9203 140.85 52.6305 140.89 52.5605C141 52.9805 141.02 53.5505 141.19 53.5005C141.39 53.9005 141.55 53.2404 141.7 52.9904C141.59 52.9304 141.59 52.6905 141.61 52.5305C141.7 52.5005 141.8 52.9304 141.85 52.7304L141.94 53.3105C141.83 52.7705 142.09 52.6904 142.09 52.4504C142.2 52.8704 142.01 52.8404 142.03 53.1604C142.37 53.0604 142.2 53.1105 142.54 53.0105C142.67 52.5505 142.43 52.4704 142.45 51.9504C142.6 51.8204 142.7 51.3904 142.94 51.7204L142.81 51.2104C143.06 50.7704 143.26 50.8105 143.54 51.3005C145.25 46.8105 143.22 45.5205 143.22 45.5205C142.16 44.5005 141.9 46.0505 140.88 46.5905L140.89 46.5705Z" fill="#ACDE45"/>
<path d="M95.0198 59.3608L94.9199 59.1606C94.9399 59.2606 94.9698 59.3408 95.0198 59.3608Z" fill="#ACDE45"/>
<path d="M94.8499 52.6209C93.8599 52.5109 93.4499 51.5609 92.5199 52.1209C92.0299 52.1209 91.5699 52.4309 91.1299 52.6209C91.0399 53.4309 90.5299 52.7307 90.3699 53.4207L90.1998 53.0008C90.1498 53.2408 90.0699 53.4007 89.9399 53.1807L89.9199 53.0508C89.8399 53.4008 89.6599 53.2307 89.6199 53.4107L89.5999 53.2808L89.4498 53.3609V53.1707C89.2698 53.5607 89.0399 53.6208 88.7999 53.5008L88.9099 54.0308C88.3599 53.5108 88.3799 54.6408 87.8499 54.0108L87.8298 53.8806C87.5598 55.3706 86.8499 53.0707 86.5499 54.4907C86.5899 54.3107 86.4699 54.2208 86.4599 54.0908C86.2399 54.2808 85.9999 54.4107 86.1799 55.4507C85.9999 55.4707 85.9799 55.1508 85.8799 54.7508C85.9599 55.2108 85.8399 55.4207 85.7099 55.4807L85.7399 55.2908L85.3699 55.5208L85.5999 56.3709C85.3499 56.1609 85.3599 55.3308 85.1899 55.5808L85.3199 56.2908C84.9999 56.2008 84.6399 55.1507 84.2599 54.6807C83.0299 54.5907 82.1199 56.6509 80.7899 55.6109L80.6398 55.0808C80.4598 54.3008 80.5699 56.3008 80.3799 55.5808L80.3199 55.9607C80.2599 55.8307 80.1499 55.6908 80.1799 55.5108C80.0599 55.5108 80.0799 55.6306 80.0399 55.8806L79.8199 55.4207C79.2799 55.1407 79.0799 56.1508 78.5499 56.0608C77.7599 55.1908 76.8498 56.3307 76.3298 56.9907C75.6998 58.3407 73.9799 55.4808 73.3699 57.0108C73.3199 56.9108 73.2899 57.1708 73.3199 57.2608L72.4599 57.3408C72.4599 57.3408 71.4299 57.5006 70.9799 58.3806C70.5299 59.2606 70.6799 60.8307 72.9199 63.6907L72.9399 63.8609C73.4799 64.1709 73.7798 64.1908 73.8898 63.2708C74.1798 64.3008 74.2799 63.2909 74.4599 63.6109V63.7007C74.5599 62.8407 75.1799 64.2407 75.2699 63.4607C75.2699 63.5507 75.3399 63.8309 75.2799 63.8609C75.4399 63.6909 75.6499 63.4008 75.7999 64.0008C76.2199 63.7408 76.9099 63.8808 76.9899 62.8509L77.0099 63.0208C77.0299 62.3308 77.1999 62.8808 77.3199 62.5008C77.3499 62.5808 77.3699 62.6207 77.3699 62.6507C77.4099 61.9607 77.8799 62.4406 77.9699 62.1306L78.0699 62.5308L78.4099 62.3609L78.2599 62.3008C78.0699 61.1808 78.6799 62.9407 78.7899 62.1607C79.0599 62.2507 78.8099 59.7507 79.1799 60.2407C79.1999 59.6907 79.2499 61.1107 79.3499 60.6707C79.4799 61.2507 79.3399 61.0508 79.4799 61.5008C79.5999 61.1908 79.8899 62.0308 80.0299 61.5908L80.1299 62.0408C80.2499 61.1608 80.7899 62.5307 80.8199 61.7007C81.0399 61.2707 81.2899 63.0008 81.4199 62.0608L81.6599 62.6507C81.8099 62.7207 81.6099 61.8807 81.8099 62.1507C81.8799 62.5407 82.0599 62.4208 82.0399 62.8008C82.4899 63.3408 82.5399 61.8108 83.1799 62.7508C83.1299 61.9808 83.4399 62.3808 83.3999 61.8108C83.4699 62.1308 83.8499 61.7808 83.7399 62.5408C83.7299 62.6008 83.6899 62.6007 83.6699 62.4707L83.7299 62.9207C84.1399 63.7107 84.0899 62.3707 84.3599 62.4607C84.2599 62.3307 84.1699 62.3808 84.1799 62.0608L84.4199 62.0808L84.4399 62.4607L84.8199 62.6209L84.6899 62.1607C84.8999 62.3707 85.1099 63.1507 85.1699 62.4507C85.1899 62.0707 84.8999 61.8507 85.0399 61.6707C85.3199 61.9407 85.7499 62.3607 86.0599 62.4507C85.9399 61.9307 86.0198 61.9408 86.0798 61.8208L86.1699 62.2708C86.3599 61.5808 86.4599 63.2507 86.6699 62.6907L86.6998 63.0108L86.6099 62.0508C86.7199 61.1008 86.9299 62.9707 87.0099 61.6807C86.8999 61.7807 86.7699 60.6909 86.9599 60.8609L86.9999 61.3108C87.0599 61.2008 87.0599 61.0108 87.1299 61.1009C87.1299 61.3509 87.2199 61.7407 87.3199 61.6507L87.3399 62.2107L87.4199 61.3609C87.6799 61.8009 87.8499 61.1608 88.0299 61.7708C88.0299 61.7708 88.4599 62.0108 88.4199 61.3108C88.4199 61.7408 88.6499 61.8709 88.6799 62.3709C88.6899 61.8809 88.9099 61.4407 89.1199 61.9207V61.9807C89.6199 62.4307 89.7098 61.1407 90.1998 61.7107C90.0898 61.1807 90.3399 61.4408 90.1799 60.7708C90.4599 60.0308 91.1299 62.0207 90.9199 59.9107C91.0799 59.7707 91.2198 60.3607 91.3298 60.4607L91.3099 60.5808C91.6199 60.3508 91.7099 60.3208 91.9699 60.3208C92.0599 60.1008 91.9199 59.1208 92.1899 59.3208C92.1899 59.7208 92.2599 59.6309 92.3399 59.6209C92.2999 59.6909 92.2999 59.8308 92.4599 60.0708C92.4599 59.9508 92.4599 59.8708 92.4799 59.8108C92.4799 59.8408 92.4899 59.8607 92.4999 59.9007C92.6199 59.7407 92.5699 59.6208 92.4999 59.5808C92.4999 59.5208 92.4799 59.4508 92.4399 59.3408C92.6699 59.8108 92.8399 59.2407 92.9699 59.9007C93.3699 59.6807 93.5599 58.9406 93.8699 58.6306C93.9599 58.9706 93.9299 59.2807 93.8499 59.4307L94.0798 59.2708C94.1598 59.7608 93.9799 59.5807 93.9199 59.6907C94.3399 60.4407 94.4099 58.8007 94.8699 59.4707V59.0708L94.9099 59.1306C94.8799 58.9206 94.9098 58.6308 94.9498 58.5608C95.0698 58.9808 95.0999 59.5507 95.2699 59.4907C95.4699 59.8807 95.6199 59.2207 95.7699 58.9607C95.6599 58.9007 95.6599 58.6608 95.6699 58.5008C95.7499 58.4708 95.8699 58.8907 95.9099 58.7007L96.0099 59.2808C95.8899 58.7408 96.1398 58.6607 96.1398 58.4207C96.2598 58.8407 96.0599 58.8106 96.0899 59.1406C96.4299 59.0306 96.2599 59.0907 96.5999 58.9807C96.7199 58.5207 96.4799 58.4407 96.4899 57.9207C96.6399 57.7807 96.7299 57.3507 96.9699 57.6707L96.8298 57.1707C97.0798 56.7307 97.2699 56.7608 97.5599 57.2508C99.2299 52.7308 97.1899 51.4707 97.1899 51.4707C96.1099 50.4707 95.8599 52.0409 94.8399 52.6009L94.8499 52.6209Z" fill="#ACDE45"/>
<path d="M50.6099 70.301L50.4698 70.1211C50.5098 70.2111 50.5499 70.291 50.6099 70.301Z" fill="#ACDE45"/>
<path d="M49.0699 63.7408C48.0599 63.8408 47.4598 63.0008 46.6498 63.7408C46.1698 63.8408 45.7699 64.2509 45.3699 64.5409C45.4499 65.3509 44.7899 64.7808 44.7899 65.4908L44.5298 65.1209C44.5298 65.3609 44.4899 65.5409 44.3099 65.3609L44.2698 65.2408C44.2698 65.6008 44.0499 65.4807 44.0499 65.6607L44.0099 65.5409L43.8799 65.6607L43.8398 65.4808C43.7498 65.9008 43.5398 66.0208 43.2698 65.9508L43.4899 66.4408C42.8299 66.0708 43.1099 67.1608 42.4399 66.6708L42.3898 66.5509C42.4598 68.0609 41.2398 66.0008 41.2698 67.4508C41.2698 67.2708 41.1298 67.2109 41.0798 67.0909C40.9098 67.3309 40.6999 67.5108 41.1199 68.4808C40.9499 68.5408 40.8499 68.2409 40.6599 67.8709C40.8499 68.2909 40.7799 68.5309 40.6599 68.6209V68.4308L40.3398 68.7408L40.7698 69.5008C40.4698 69.3608 40.2799 68.5509 40.1799 68.8309L40.4799 69.4908C40.1499 69.4908 39.5399 68.5608 39.0499 68.1908C37.8099 68.4208 37.4399 70.6408 35.8699 69.9908L35.5798 69.5209C35.2098 68.8209 35.8198 70.7109 35.4598 70.0709L35.4999 70.4508C35.3999 70.3408 35.2699 70.2409 35.2499 70.0509C35.1299 70.0809 35.1798 70.1908 35.2098 70.4508L34.8699 70.0709C34.2699 69.9409 34.3299 70.9709 33.7999 71.0309C32.7999 70.4109 32.2098 71.7609 31.8898 72.5509C31.6598 74.0209 29.1798 71.7808 29.0198 73.4308C28.9398 73.3508 28.9899 73.6108 29.0399 73.6908L28.2299 74.0309C28.2299 74.0309 27.2799 74.5008 27.1099 75.4708C26.9299 76.4508 27.5799 77.8908 30.5699 79.9508L30.6398 80.1109C31.2398 80.2409 31.5199 80.1809 31.3599 79.2709C31.9399 80.1709 31.7299 79.1808 31.9999 79.4308L32.0298 79.5108C31.8598 78.6608 32.8499 79.8209 32.7199 79.0509C32.7499 79.1309 32.8899 79.3908 32.8499 79.4308C32.9499 79.2208 33.0599 78.8808 33.3799 79.4308C33.6999 79.0708 34.3899 79.0108 34.1799 78.0008L34.2399 78.1607C34.0699 77.4907 34.3798 77.9709 34.3898 77.5809C34.4398 77.6509 34.4699 77.6808 34.4799 77.7108C34.3299 77.0408 34.8998 77.3709 34.8998 77.0509L35.0999 77.4107L35.3799 77.1507H35.2199C34.7299 76.1107 35.7999 77.6409 35.6899 76.8609C35.9699 76.8709 35.0499 74.5307 35.5399 74.9107C35.4099 74.3807 35.8399 75.7309 35.8199 75.2809C36.0999 75.8009 35.9099 75.6509 36.1699 76.0509C36.1999 75.7209 36.7099 76.4508 36.7199 75.9908L36.9399 76.4007C36.8199 75.5207 37.6999 76.7007 37.5099 75.8907C37.6099 75.4207 38.2999 77.0309 38.1799 76.0809L38.5699 76.5809C38.7299 76.6109 38.3198 75.8509 38.5798 76.0609C38.7498 76.4209 38.8899 76.2607 38.9699 76.6307C39.5399 77.0407 39.1899 75.5509 40.0399 76.3009C39.7899 75.5709 40.1899 75.8809 39.9999 75.3309C40.1499 75.6209 40.4199 75.1908 40.5099 75.9508C40.5099 76.0108 40.4799 76.0207 40.4199 75.9007L40.5898 76.3209C41.1798 76.9909 40.7998 75.7008 41.0798 75.7208C40.9498 75.6108 40.8799 75.6907 40.7999 75.3807L41.0298 75.3409L41.1498 75.7108L41.5499 75.7709L41.3099 75.3609C41.5599 75.5109 41.9598 76.2109 41.8398 75.5209C41.7598 75.1409 41.4298 75.0109 41.5298 74.8009C41.8698 75.0009 42.3799 75.3009 42.6899 75.3109C42.4499 74.8409 42.5199 74.8208 42.5499 74.6908L42.7499 75.1109C42.7599 74.4009 43.2698 75.9907 43.3298 75.4007L43.4399 75.7008L43.1199 74.7909C42.9899 73.8409 43.6399 75.6009 43.4099 74.3409C43.3299 74.4609 42.9399 73.4309 43.1599 73.5609L43.3099 73.9808C43.3499 73.8608 43.2999 73.6808 43.3799 73.7408C43.4299 73.9808 43.6198 74.3408 43.6998 74.2308L43.8499 74.7709L43.7199 73.9308C44.0699 74.3008 44.0798 73.6408 44.3998 74.1808C44.3998 74.1808 44.8599 74.3107 44.6699 73.6507C44.7699 74.0707 45.0199 74.1409 45.1699 74.6209C45.0699 74.1409 45.1699 73.6609 45.4799 74.0909V74.1507C46.0799 74.4707 45.8699 73.2007 46.4699 73.6407C46.2499 73.1507 46.5399 73.3408 46.2299 72.7308C46.3399 71.9508 47.4299 73.7408 46.7499 71.7308C46.8699 71.5608 47.1399 72.1108 47.2599 72.1708V72.2909C47.5099 72.0009 47.5898 71.9507 47.8398 71.9007C47.8798 71.6607 47.5298 70.7407 47.8298 70.8807C47.9098 71.2707 47.9699 71.1707 48.0399 71.1407C48.0099 71.2207 48.0499 71.3609 48.2499 71.5609C48.2199 71.4409 48.2098 71.3609 48.2098 71.3009C48.2198 71.3309 48.2399 71.3507 48.2499 71.3907C48.3299 71.2107 48.2599 71.1109 48.1799 71.0809C48.1599 71.0209 48.1299 70.9509 48.0699 70.8609C48.3899 71.2809 48.4398 70.6809 48.6998 71.3009C49.0398 71.0009 49.0599 70.2409 49.2999 69.8709C49.4599 70.1809 49.4898 70.4907 49.4498 70.6507L49.6398 70.4408C49.8198 70.9008 49.6099 70.7607 49.5699 70.8807C50.1399 71.5207 49.8499 69.9108 50.4399 70.4808L50.3699 70.0909L50.4099 70.1407C50.3399 69.9507 50.3098 69.6509 50.3298 69.5709C50.5298 69.9609 50.6798 70.5108 50.8298 70.4208C51.0998 70.7608 51.1198 70.0909 51.2098 69.8109C51.0898 69.7709 51.0398 69.5407 51.0198 69.3807C51.0998 69.3407 51.2899 69.7209 51.2899 69.5309L51.4999 70.0809C51.2799 69.5809 51.4998 69.4408 51.4498 69.2108C51.6498 69.6008 51.4499 69.6108 51.5499 69.9208C51.8599 69.7508 51.6999 69.8307 52.0099 69.6607C52.0299 69.1807 51.7898 69.1507 51.6998 68.6407C51.8098 68.4807 51.8299 68.0409 52.1199 68.3009L51.8898 67.8309C52.0398 67.3509 52.2399 67.3408 52.6099 67.7608C52.9899 65.3808 52.6399 63.9708 52.1799 63.1708C51.7199 62.3608 51.1398 62.1607 51.1398 62.1607C49.8698 61.3907 49.9099 62.9808 49.0099 63.7508L49.0699 63.7408Z" fill="#ACDE45"/>
<path d="M13.5298 92.7812L13.3499 92.6611C13.4199 92.7311 13.4898 92.7812 13.5298 92.7812Z" fill="#ACDE45"/>
<path d="M6.77985 100.781C6.77985 100.781 6.79988 100.801 6.80988 100.821C6.79988 100.801 6.78985 100.791 6.77985 100.781Z" fill="#ACDE45"/>
<path d="M7.15985 88.9009C7.15985 88.9009 7.13988 88.8711 7.12988 88.8511L7.15985 88.9009Z" fill="#ACDE45"/>
<path d="M9.20986 87.6608C8.58986 87.9008 7.76988 87.3109 7.59988 88.0509C7.32988 88.2109 7.26987 88.6108 7.14987 88.9008C7.61987 89.5408 6.8899 89.1909 7.2499 89.7609L6.87991 89.5009C6.99991 89.7009 7.06988 89.8509 6.84988 89.7309L6.75991 89.6408C6.94991 89.9308 6.72986 89.8709 6.82986 90.0109L6.73989 89.9208L6.70986 90.0309L6.58987 89.8908C6.74987 90.2408 6.65985 90.371 6.44985 90.361L6.84988 90.7209C6.20988 90.5309 6.96991 91.361 6.25991 91.071L6.16989 90.9809C6.99989 92.1709 5.09991 90.721 5.87991 91.871C5.77991 91.731 5.6599 91.701 5.5599 91.611C5.5699 91.831 5.51991 92.0109 6.31991 92.7109C6.22991 92.7809 6.0099 92.5609 5.6899 92.3009C6.0399 92.6009 6.11987 92.8008 6.08987 92.8908L5.97988 92.7409L5.9399 93.0309L6.62991 93.5609C6.34991 93.5009 5.79991 92.891 5.87991 93.121L6.42989 93.591C6.19989 93.631 5.29986 93.0009 4.76986 92.7909C4.03986 93.1709 4.96988 94.9608 3.53988 94.7008L3.08987 94.3908C2.45987 93.9108 3.88989 95.271 3.29989 94.841L3.53988 95.1308C3.40988 95.0608 3.25987 95.001 3.14987 94.861C3.07987 94.901 3.17987 94.9808 3.33987 95.1708L2.89987 94.9308C2.40987 94.9308 3.00989 95.711 2.66989 95.841C1.63989 95.531 1.94988 96.6609 2.15988 97.3009C2.79988 98.4409 -0.170112 97.1708 0.609888 98.4308C0.509888 98.3808 0.689912 98.571 0.759912 98.621L0.369897 99.0009C0.369897 99.0009 -0.0601123 99.5009 0.359888 100.251C0.759888 101.001 2.03988 101.921 5.28988 102.961L5.42989 103.061C5.92989 103.061 6.08987 102.991 5.46987 102.351C6.36987 102.921 5.6799 102.231 5.9999 102.371L6.06991 102.421C5.47991 101.821 6.81989 102.531 6.29989 101.991C6.36989 102.041 6.60988 102.211 6.59988 102.251C6.54988 102.081 6.44986 101.821 6.95986 102.171C6.97986 101.861 7.41987 101.721 6.71987 101.001L6.84988 101.111C6.35988 100.641 6.84991 100.951 6.62991 100.661C6.69991 100.701 6.73986 100.721 6.76986 100.741C6.29986 100.261 6.8699 100.421 6.6899 100.191L7.02987 100.431L7.07986 100.201H6.95986C6.05986 99.5208 7.62991 100.501 7.12991 99.9408C7.32991 99.9108 5.41986 98.2909 5.95986 98.4909C5.57986 98.1109 6.60988 99.0609 6.34988 98.7309C6.81988 99.0809 6.61991 99.0009 7.00991 99.2609C6.84991 99.0009 7.59989 99.4908 7.35989 99.1408L7.72988 99.4208C7.16988 98.7708 8.40987 99.5408 7.83987 98.9508C7.64987 98.5808 8.98986 99.7009 8.38986 99.0009L8.91989 99.331C9.04989 99.331 8.34986 98.8108 8.63986 98.9308C8.94986 99.1808 8.94987 99.0409 9.21987 99.311C9.81987 99.5409 8.78991 98.4608 9.75991 98.9108C9.19991 98.3908 9.62987 98.5708 9.21987 98.1808C9.47987 98.3808 9.42986 98.011 9.88986 98.581C9.92986 98.631 9.9099 98.6409 9.8099 98.5509L10.1499 98.851C10.8999 99.281 9.94987 98.351 10.1499 98.321C10.0099 98.261 9.99988 98.321 9.78988 98.101L9.91989 98.0409L10.1999 98.311H10.4999L10.1199 98.0209C10.3699 98.1009 11.0099 98.591 10.5599 98.071C10.3099 97.791 10.0099 97.731 9.96987 97.561C10.2999 97.661 10.7999 97.8309 11.0099 97.8009C10.5899 97.4709 10.6399 97.451 10.5899 97.341L10.9399 97.6408C10.5699 97.0908 11.7499 98.2509 11.4799 97.7909L11.7099 98.0109L11.0099 97.341C10.4199 96.621 11.7899 97.9008 10.9599 96.9508C10.9699 97.0508 10.1699 96.311 10.3799 96.371L10.6999 96.6808C10.6599 96.5808 10.5299 96.4509 10.6199 96.4809C10.7799 96.6609 11.0999 96.921 11.0899 96.821L11.4799 97.2209L10.9499 96.581C11.3799 96.821 11.0299 96.3008 11.5299 96.6908C11.5299 96.6908 11.8999 96.7309 11.4199 96.2309C11.7099 96.5509 11.9099 96.5708 12.2599 96.9308C11.9399 96.5708 11.7499 96.1709 12.1799 96.4709L12.2099 96.5209C12.7699 96.6909 11.9599 95.7209 12.5799 95.9909C12.1799 95.6309 12.4699 95.7509 11.9499 95.3009C11.6099 94.6709 13.2599 95.9408 11.7699 94.4308C11.7699 94.2708 12.2199 94.6809 12.3399 94.7109L12.3999 94.811C12.4099 94.551 12.4399 94.4908 12.5699 94.4208C12.4699 94.2208 11.7699 93.541 12.0299 93.601C12.2799 93.901 12.2699 93.8109 12.2999 93.7809C12.3199 93.8509 12.4199 93.951 12.6499 94.091C12.5699 94.001 12.5299 93.9408 12.4899 93.8908C12.5099 93.9108 12.5299 93.9309 12.5599 93.9609C12.5199 93.8009 12.4199 93.7309 12.3599 93.7209C12.3199 93.6809 12.2599 93.6309 12.1699 93.5609C12.5899 93.8509 12.3099 93.361 12.7999 93.821C12.8599 93.531 12.4899 92.921 12.4499 92.591C12.7099 92.821 12.8999 93.0708 12.9499 93.2008V93.0109C13.3199 93.3609 13.1099 93.271 13.1499 93.371C13.8399 93.811 12.8399 92.5508 13.5099 92.9208L13.2599 92.611L13.3099 92.6508C13.1599 92.5008 12.9999 92.2708 12.9699 92.2008C13.2999 92.4908 13.6699 92.911 13.7299 92.821C14.0799 93.061 13.7499 92.5109 13.6599 92.2709C13.5699 92.2609 13.4099 92.0708 13.3199 91.9508C13.3499 91.9008 13.6699 92.1909 13.5699 92.0309L13.9799 92.4408C13.5799 92.0608 13.6599 91.9209 13.5099 91.7409C13.8299 92.0309 13.7099 92.0609 13.9299 92.3109C14.0399 92.1309 13.9799 92.2209 14.0899 92.0409C13.8599 91.6509 13.6899 91.6609 13.3699 91.2509C13.3699 91.1009 13.1499 90.7408 13.4699 90.9108L13.0899 90.5609C12.9499 90.1409 13.0699 90.1108 13.5199 90.4008C12.5699 88.3908 11.6599 87.2708 10.9499 86.6708C10.2499 86.0708 9.76986 85.9909 9.76986 85.9909C8.54986 85.5609 9.36988 86.8708 9.15988 87.6408L9.20986 87.6608Z" fill="#ACDE45"/>
</svg>
