<svg width="56" height="37" viewBox="0 0 56 37" fill="none" xmlns="http://www.w3.org/2000/svg">
<path d="M2.16943 4.69999C2.42943 4.87999 2.69951 4.46007 2.61951 4.53007C2.53951 4.36007 2.24943 4.67999 2.16943 4.69999Z" fill="white"/>
<path d="M6.50954 10.4095C6.30954 10.1895 6.44954 10.7095 6.50954 10.4095V10.4095Z" fill="white"/>
<path d="M8.68945 13.5303C8.81945 13.4603 8.92945 13.1803 9.05945 13.0303L8.7395 12.9102C8.7395 13.0902 8.84944 13.3703 8.67944 13.5303H8.68945Z" fill="white"/>
<path d="M9.06946 13.0299L9.53955 13.2098C9.32955 12.8898 9.17946 12.9099 9.06946 13.0299Z" fill="white"/>
<path d="M9.69946 14.8301L9.26953 14.8601L9.95947 14.8701L9.69946 14.8301Z" fill="white"/>
<path d="M10.4194 15.6504C10.0794 15.6904 10.1894 16.1506 9.92944 16.1106C10.1494 16.3106 10.5095 16.3604 10.8295 16.4004C10.5795 16.2904 10.4494 16.0604 10.4294 15.6504H10.4194Z" fill="white"/>
<path d="M11.3195 16.5005C11.1895 16.4505 11.0095 16.4304 10.8295 16.4004C10.9595 16.4604 11.1195 16.5005 11.3195 16.5005Z" fill="white"/>
<path d="M9.79942 14.3701L10.0295 13.97C10.0295 13.97 9.95942 13.8801 9.92942 13.8301C9.87942 13.9101 9.72942 14.1101 9.79942 14.3601V14.3701Z" fill="white"/>
<path d="M10.0396 13.96C10.1396 14.13 10.2195 14.23 10.2495 14.28C10.2195 14.24 10.1594 14.15 10.0494 13.96H10.0396Z" fill="white"/>
<path d="M9.90955 13.8004L9.93945 13.8304C9.93945 13.8304 9.96955 13.7704 9.90955 13.8004Z" fill="white"/>
<path d="M9.65955 13.1001L10.1995 13.3L9.9895 12.8799C9.9095 12.9599 9.82955 13.1201 9.65955 13.1001Z" fill="white"/>
<path d="M10.4395 13.3997L10.1995 13.2998L10.2695 13.4597L10.4395 13.3997Z" fill="white"/>
<path d="M11.1496 15.6404C11.4196 15.6804 11.5596 15.8405 11.7396 16.0105C11.6396 15.7505 11.5095 15.5105 11.3495 15.3105C11.2195 15.3605 10.9596 15.4204 11.1496 15.6404Z" fill="white"/>
<path d="M10.6395 14.8002L10.6895 14.8202C10.6895 14.8202 10.6895 14.7502 10.6395 14.8002Z" fill="white"/>
<path d="M13.2195 17.9001C13.2195 17.9001 13.2495 17.8503 13.2595 17.8203L13.1995 17.8604L13.2295 17.9001H13.2195Z" fill="white"/>
<path d="M11.3795 15.2302C11.3195 15.0202 11.1695 15.0002 10.9995 14.9902C11.1195 15.0802 11.2395 15.1803 11.3495 15.3103C11.4095 15.2903 11.4395 15.2602 11.3895 15.2302H11.3795Z" fill="white"/>
<path d="M11.8896 16.9001C11.8896 16.7601 11.8895 16.6302 11.8595 16.4902C11.8195 16.6502 11.7796 16.9401 11.8896 16.9001Z" fill="white"/>
<path d="M10.6295 14.9395H10.5995C10.5695 15.0395 10.5995 14.9995 10.6295 14.9395Z" fill="white"/>
<path d="M10.6295 14.9404C10.7395 14.9804 10.8695 14.9805 10.9995 14.9805C10.8995 14.9105 10.7894 14.8505 10.6794 14.8105C10.6794 14.8505 10.6495 14.9004 10.6295 14.9304V14.9404Z" fill="white"/>
<path d="M12.7595 17.1201L12.6095 17C12.6895 17.21 12.6595 17.4301 12.5895 17.8401C12.9295 17.9601 13.0895 17.9201 13.2095 17.8601L12.6895 17.1101H12.7795L12.7595 17.1201Z" fill="white"/>
<path d="M13.1095 18.0996L12.6895 18.3096L13.4595 18.2395L13.1095 18.0996Z" fill="white"/>
<path d="M13.4095 19.0403L13.7495 19.0903L13.7395 18.8203L13.4095 19.0403Z" fill="white"/>
<path d="M31.7795 31.9902C32.3195 31.9102 33.1395 31.8103 32.7795 31.5503L32.3795 31.3604C32.1995 31.7004 31.9896 31.8902 31.7896 31.9902H31.7795Z" fill="white"/>
<path d="M19.9194 26.4096C19.9494 26.7296 20.0295 26.9398 20.1295 27.0998C20.1295 26.6898 20.2494 26.2496 19.9194 26.4096Z" fill="white"/>
<path d="M52.1095 6.44953C52.1295 6.29953 52.0594 6.23959 51.9294 6.25959C51.8994 6.40959 51.9395 6.49953 52.1095 6.44953Z" fill="white"/>
<path d="M20.1295 27.1104C20.1295 27.4104 20.2195 27.7002 20.6195 27.7302C20.6195 27.6702 20.6195 27.6203 20.6195 27.5503C20.4395 27.4403 20.2695 27.3204 20.1395 27.1104H20.1295Z" fill="white"/>
<path d="M7.07947 1.02043C7.16947 0.990427 7.30946 0.990398 7.44946 0.990398C7.37946 0.960398 7.26947 0.960427 7.07947 1.02043Z" fill="white"/>
<path d="M15.9695 21.9597C15.8195 21.8197 15.9095 21.9597 15.9695 21.9597V21.9597Z" fill="white"/>
<path d="M15.9395 21.5996C15.9395 21.6896 15.9595 21.7894 15.9995 21.8794C15.9995 21.8294 15.9795 21.7396 15.9395 21.5996Z" fill="white"/>
<path d="M15.7994 21.7598C15.7694 21.6898 15.7494 21.6398 15.7194 21.5898C15.6494 21.6098 15.6294 21.6598 15.7994 21.7598Z" fill="white"/>
<path d="M16.1595 22.1699C16.0795 22.0799 16.0295 21.9899 15.9895 21.8799C15.9895 21.9299 15.9895 21.96 15.9595 21.96C15.9995 22 16.0595 22.0599 16.1495 22.1699H16.1595Z" fill="white"/>
<path d="M54.3395 1.43945L54.6794 1.28955C53.6994 1.17955 52.6595 1.53941 51.7495 1.89941C51.6695 1.79941 52.0595 1.64959 52.1995 1.57959C51.0795 1.25959 50.5995 1.32958 48.6095 2.06958L48.9495 1.57959C48.6395 1.71959 48.2595 1.52962 47.6095 1.35962C46.9795 1.19962 46.0295 1.06962 45.1395 1.35962C45.1695 1.29962 45.2295 1.2094 45.3795 1.1394C44.8695 1.2794 44.3895 1.26945 43.8695 1.18945C43.5095 1.10945 43.1795 0.979395 42.8595 0.879395C42.2195 0.679395 41.6795 0.639551 41.4495 1.53955L40.6395 1.97949C41.6895 2.12949 40.4795 2.75957 40.9095 3.05957C40.4995 3.15957 39.8495 2.50943 40.3495 2.41943L40.4294 2.50952C40.6194 1.56952 39.1295 2.16954 39.1595 1.52954C37.0895 1.55954 35.0795 1.02948 33.1495 0.969482L33.3695 1.69946L32.6995 1.64941C32.5195 1.47941 32.4695 1.07962 32.9495 1.10962C32.6995 0.689619 32.1395 1.44962 32.1295 1.60962C31.1895 1.30962 32.4995 0.759502 32.2195 0.739502L31.8295 0.789551L31.9194 0.879395C31.5994 1.17939 31.5695 1.48946 30.9895 1.44946C30.6195 1.29946 30.8095 0.999482 30.6595 0.969482C30.6595 0.919482 30.6095 0.889463 30.4395 0.949463L29.5895 0.879395L29.8995 1.40942C29.6195 1.53942 28.7895 1.4495 27.9895 1.4895C27.1795 1.4495 26.3495 1.53942 26.0695 1.40942L26.3795 0.879395L25.5295 0.949463C25.3595 0.899463 25.3094 0.919482 25.3094 0.969482C25.1694 0.999482 25.3495 1.29946 24.9795 1.44946C24.3995 1.48946 24.3694 1.16939 24.0494 0.879395L24.1395 0.789551L23.7495 0.739502C23.4595 0.759502 24.7795 1.30962 23.8395 1.60962C23.8295 1.44962 23.2695 0.689619 23.0095 1.10962C23.3495 1.08962 23.4195 1.27947 23.3595 1.45947C23.1495 1.39947 22.9195 1.32942 22.7395 1.15942L22.7994 0.969482C22.7394 0.969482 22.6795 0.979492 22.6195 0.979492C22.5895 0.939492 22.5596 0.909629 22.5396 0.869629C22.5696 0.909629 22.5795 0.949502 22.5895 0.989502C21.7595 1.0295 20.9195 1.13951 20.0695 1.24951C19.2395 1.16951 18.3295 0.809434 17.3995 0.919434C17.3795 1.06943 17.5195 1.27951 17.3995 1.49951C17.3395 1.49951 17.2695 1.49951 17.2095 1.49951L16.5895 0.739502C16.3195 0.819502 16.3295 1.7494 15.8495 1.1394C15.9195 1.2894 16.0195 1.50958 15.8395 1.56958C15.3695 1.41958 14.8895 1.33956 14.4095 1.29956C14.1495 0.639561 13.6495 0.689619 13.0795 0.859619C12.7595 0.959619 12.4295 1.08943 12.0695 1.16943C11.5495 1.24943 11.0694 1.25963 10.5594 1.11963C10.7094 1.18963 10.7694 1.2796 10.7994 1.3396C10.2494 1.1596 9.67943 1.14947 9.16943 1.20947C8.66943 1.08947 8.15943 0.899609 7.66943 0.599609C8.03943 0.939609 7.78952 0.979502 7.50952 0.989502C7.66952 1.0595 7.54955 1.34959 7.53955 1.57959C7.49955 1.58959 7.45943 1.58961 7.41943 1.59961L6.39954 0.999512C6.22954 1.52951 5.55949 1.23944 5.22949 1.42944C4.71949 1.35944 4.31952 1.42959 3.75952 1.57959C3.89952 1.65959 4.28947 1.79941 4.20947 1.89941C3.29947 1.53941 2.25954 1.17955 1.27954 1.28955L1.61951 1.43945L0.229492 1.3894L0.489502 1.74951C2.0495 2.45951 1.96946 2.73946 2.06946 3.19946C2.14946 3.63946 2.42944 4.3096 3.92944 4.8396C3.37944 4.8696 3.95955 5.81951 4.03955 6.24951C4.12955 6.25951 4.24955 6.29939 4.40955 6.37939C4.04955 6.58939 4.4895 7.02942 4.9895 7.40942C5.5095 7.79942 6.08952 8.12942 6.25952 8.40942C6.33952 8.82942 5.95954 8.75941 5.52954 8.64941C6.19954 8.96941 6.42953 9.52942 6.63953 10.1594C6.66953 10.2494 6.69949 10.3394 6.72949 10.4294C6.68949 10.3994 6.63948 10.3696 6.58948 10.3196C6.58948 10.3696 6.57946 10.3794 6.56946 10.4094C6.60946 10.4594 6.65949 10.5194 6.72949 10.6394C6.74949 10.6194 6.75954 10.5996 6.77954 10.5896C6.82954 10.7496 6.87944 10.8995 6.92944 11.0295C6.96944 11.1295 7.00955 11.2196 7.03955 11.2896C7.04955 11.3096 7.06948 11.3096 7.08948 11.3196C7.08948 11.4796 7.17955 11.6794 7.03955 11.6594C7.37955 11.8794 7.45954 11.7294 7.52954 11.4094C7.61954 11.3494 7.71945 11.2594 7.80945 11.1794L7.96948 11.2495C8.01948 11.1495 8.12954 11.0396 7.89954 11.1096C7.94954 11.0696 7.99945 11.0395 8.05945 11.0195C8.11945 11.1295 8.11948 11.2296 8.08948 11.3096L7.95947 11.2495C7.92947 11.3095 7.94946 11.3496 8.06946 11.3496C7.89946 11.7296 7.11949 11.8694 7.97949 12.1594C7.95949 12.0294 7.8695 11.8396 7.9895 11.8396C8.2595 12.0096 9.46954 11.6495 9.89954 11.7795C9.71954 11.8895 9.63949 12.0995 9.22949 12.0295C9.39949 12.0495 9.60953 12.1296 9.76953 12.1196C9.94953 12.3696 10.3594 12.4496 10.6794 12.5496C10.6594 12.6796 10.6395 12.7896 10.6095 12.8596C10.6795 12.7696 10.7296 12.6696 10.7896 12.5796C11.0696 12.6696 11.2195 12.7896 10.9095 13.0996L10.4995 13.3496C11.7195 13.8396 10.6595 13.8494 11.8295 14.3994L11.8795 14.3396C12.1295 14.7896 12.7695 14.6296 12.3195 15.3096L12.1295 15.2395C12.2895 15.4795 12.3895 15.5995 12.4895 15.7195C12.4295 15.7195 12.3694 15.7195 12.3094 15.6895C12.9394 16.3195 11.9594 15.6396 12.1694 16.2896C12.0094 16.1996 11.8896 16.0895 11.7896 15.9895C11.8496 16.1495 11.8894 16.3095 11.9194 16.4695V16.4395C11.9394 16.3695 11.9595 16.3394 11.9595 16.3994C11.9595 16.3994 11.9695 16.3994 11.9795 16.3994C12.0295 16.3694 12.0795 16.3496 12.1295 16.3296C12.2195 16.5896 12.0695 16.4294 11.9795 16.3994C11.9595 16.4094 11.9394 16.4194 11.9194 16.4294L12.6495 16.9795C12.5795 16.7995 12.4295 16.6196 12.1295 16.3196C12.4295 16.2196 12.7194 16.2895 12.9294 16.1895C12.9494 16.2095 12.9595 16.2295 12.9895 16.2495C12.9795 16.3495 13.0895 16.6694 13.2695 16.6394C13.0295 16.8494 13.2095 17.1795 13.4595 17.4895C13.3995 17.5995 13.3394 17.6996 13.2994 17.7996C13.3894 17.7396 13.4895 17.6795 13.6595 17.6995C13.8795 17.9195 14.0994 18.0994 14.1794 18.1794C13.9294 17.7294 14.2995 17.7395 14.5895 17.6895C14.3695 18.2495 14.4595 18.4495 15.0095 18.5295C14.8095 18.7195 14.5995 18.9196 14.4395 19.1196C14.3895 19.0596 14.3595 18.9994 14.3295 18.9294C14.0995 19.3494 14.2795 19.1896 14.2695 19.3696C14.0895 19.6796 14.0494 19.9996 14.2994 20.3396C14.3094 20.1696 14.2394 19.9694 14.4194 19.9294C14.5994 19.8894 14.5795 20.1495 14.5695 20.2395C14.7095 20.2095 14.7095 20.0294 14.8295 19.8994C14.8595 19.9394 14.8894 19.9795 14.9194 20.0195C14.8794 20.4195 15.0895 20.5795 15.3395 20.7795C15.3995 20.9595 15.4495 21.1495 15.3495 21.5295C15.4995 21.3895 15.5395 21.1396 15.7495 21.5696C15.8095 21.5496 15.8995 21.5396 15.9495 21.5396C15.9495 21.5596 15.9495 21.5596 15.9495 21.5696V21.5295C15.9495 21.5295 15.9995 21.5295 15.9495 21.5195C15.9495 21.3795 15.9796 21.2394 16.0396 21.1394C16.0996 21.1294 16.1695 21.1294 16.2295 21.1394C15.9895 21.5794 17.5496 21.3996 16.5396 21.8596C16.8296 22.0096 17.0895 22.2195 17.3495 22.4495C17.2595 22.7495 17.2294 23.0195 16.7994 22.7795L17.1495 23.2595C17.1695 23.6895 17.3895 24.1295 17.7195 24.2495C17.8195 24.5295 18.5495 24.4995 18.1195 24.5295L18.9194 25.0896L18.8395 25.1694C19.3695 25.9294 20.5995 26.1996 20.6195 27.5396C20.8995 27.7096 21.2094 27.8796 21.4294 28.3696L21.1895 28.6895C21.5395 28.9195 21.6294 29.8695 22.0494 29.7595C21.7794 30.2695 21.9995 30.6396 22.4095 31.0696C23.0495 31.7996 23.7695 32.4596 24.1095 33.0396L24.4194 32.6096C24.9094 33.2796 25.4795 33.7695 26.1395 34.2795L26.1895 33.9595C26.2995 34.1695 26.4095 34.3994 26.5295 34.6394C26.9395 35.4694 27.4594 36.4095 27.9294 36.4495C27.9294 36.4495 27.9294 36.4495 27.9294 36.4595C27.9394 36.4595 27.9495 36.4595 27.9595 36.4595C27.9695 36.4595 27.9795 36.4595 27.9895 36.4595C27.9895 36.4595 27.9895 36.4595 27.9895 36.4495C28.4595 36.3995 28.9795 35.4594 29.3895 34.6394C29.8395 33.7494 30.1695 32.9796 30.7495 32.8296C30.8895 32.3896 31.0695 32.2694 31.2795 32.1794C31.2595 32.2094 31.2495 32.2395 31.2395 32.2695C31.2695 32.2495 31.2995 32.2094 31.3295 32.1594C31.4695 32.1094 31.6195 32.0595 31.7795 31.9795C31.6195 32.0095 31.4795 32.0396 31.3795 32.0896C31.5395 31.8696 31.7695 31.4996 31.9395 31.1096L32.3695 31.3396C32.3695 31.3396 32.3994 31.2895 32.4194 31.2595C32.8094 31.0595 32.4595 30.8495 32.0695 30.7495C32.1395 30.5395 32.1694 30.3494 32.1694 30.1694C32.9594 30.4294 32.3995 29.4695 33.2295 29.7595C33.0195 29.3695 33.7895 28.5795 33.2195 27.9395C33.3095 27.9995 33.3995 27.9796 33.3195 28.0896C33.5695 27.9296 33.8294 27.7694 33.7994 27.4294L34.3495 27.7195L34.0995 26.7195C34.6295 26.6595 34.8895 26.6795 35.0195 27.2595C35.0195 26.1095 35.2695 26.5195 35.1895 25.4795L35.4695 25.7595C35.6295 25.5395 35.4895 24.8695 35.8495 24.9395C36.8195 24.9395 37.8295 22.6594 39.3595 21.8794C38.2595 21.3794 40.2194 21.6395 39.5594 21.0295C39.8294 21.1295 40.0895 21.0594 40.1195 21.4094C40.4095 20.6194 41.2195 20.7496 40.9695 19.8396C41.2395 19.9396 41.1795 20.2295 41.3595 20.2695C41.3595 20.1795 41.3295 19.9195 41.5095 19.9595C41.6895 19.9995 41.6195 20.1996 41.6295 20.3696C42.1095 19.7096 41.4994 19.1096 40.9194 18.5596C41.4694 18.4796 41.5595 18.2795 41.3395 17.7195C41.6295 17.7695 41.9995 17.7595 41.7495 18.2095C41.9595 18.0095 43.1394 17.0894 42.6694 16.6694C42.8494 16.6994 42.9595 16.3895 42.9495 16.2795C43.3795 15.8095 43.4594 15.7995 43.8094 15.2695L43.6195 15.3396C43.1795 14.6596 43.8194 14.8196 44.0594 14.3696L44.1095 14.4294C45.2695 13.8794 44.2195 13.8694 45.4395 13.3794L45.0295 13.1294C44.2995 12.3994 46.1395 12.7195 46.2595 11.9595H45.8995C45.8495 11.4695 47.6295 12.0696 47.9595 11.8596C48.0795 11.8596 47.9895 12.0494 47.9695 12.1794C49.0495 11.8194 47.5595 11.6896 47.8895 11.0396C48.2395 11.1496 48.4494 11.7094 48.7994 11.3794C48.8494 11.3794 48.8795 11.3496 48.9095 11.2996C48.9395 11.2296 48.9795 11.1396 49.0195 11.0396C49.1195 10.7896 49.2095 10.4694 49.3195 10.1694C49.5295 9.53943 49.7594 8.97942 50.4294 8.65942C49.9994 8.77942 49.6095 8.83943 49.6995 8.41943C49.8695 8.12943 50.4495 7.80943 50.9695 7.41943C51.4795 7.03943 51.9094 6.6094 51.5494 6.3894C51.7094 6.3094 51.8294 6.26952 51.9194 6.25952C51.9894 5.82952 52.5795 4.88961 52.0295 4.84961C53.5295 4.30961 53.8095 3.64947 53.8895 3.20947C53.9795 2.74947 53.9095 2.46952 55.4695 1.75952L55.7295 1.39941L54.3395 1.44946V1.43945ZM15.5195 17.9294C15.5295 17.8694 15.5394 17.7895 15.5494 17.7195C15.4294 17.9895 15.3095 18.1894 15.1595 18.1794L14.9495 17.4495C15.1395 17.4595 15.3595 17.4995 15.5695 17.4695C15.5695 17.5495 15.5594 17.6395 15.5494 17.7195C15.5894 17.6395 15.6295 17.5495 15.6595 17.4595C15.7195 17.4495 15.7795 17.4194 15.8395 17.3894L16.0396 17.6394C15.9096 17.8394 15.7495 17.9694 15.5195 17.9194V17.9294ZM18.0995 20.2595C18.0995 20.2595 18.0795 20.2695 18.0695 20.2795C18.0595 20.2495 18.0395 20.2094 18.0295 20.1794L18.0995 20.2695V20.2595ZM26.4695 30.8994L26.5594 31.0195C26.5294 31.1195 26.4895 31.2196 26.4595 31.3196C26.4595 31.1796 26.4595 31.0394 26.4595 30.9094L26.4695 30.8994ZM29.3395 31.0295L29.4294 30.9194C29.4294 31.0394 29.4294 31.1595 29.4294 31.2795C29.3994 31.1995 29.3695 31.1095 29.3495 31.0195L29.3395 31.0295ZM9.9895 11.9595C9.9895 11.9595 9.9895 11.9495 9.9895 11.9395C9.9895 11.9395 9.9895 11.9395 9.9895 11.9595ZM17.6495 23.4595C17.6495 23.4595 17.6694 23.4595 17.6794 23.4595C17.7394 23.8395 17.7195 23.6995 17.6495 23.4595ZM28.0494 36.2795C28.0494 36.2795 28.0695 36.2295 28.0795 36.1995L28.0396 36.2996C28.0396 36.2996 27.9895 36.3594 27.9595 36.3794C27.9295 36.3594 27.8995 36.3296 27.8795 36.2996L27.8395 36.1995C27.8395 36.1995 27.8595 36.2495 27.8695 36.2795C27.7895 36.1895 27.7095 36.0694 27.6895 35.8994C27.7095 35.9294 27.7395 35.9595 27.7595 35.9895C27.8195 36.0795 27.8694 36.1795 27.9294 36.2595C27.9394 36.2495 27.9495 36.2295 27.9595 36.2195C27.9695 36.2295 27.9795 36.2495 27.9895 36.2595C28.0495 36.1695 28.0995 36.0795 28.1595 35.9895C28.1795 35.9595 28.2095 35.9394 28.2295 35.8994C28.2095 36.0694 28.1294 36.1895 28.0494 36.2795ZM30.5594 1.14941L30.6895 1.27954C30.3895 1.41954 30.4694 1.28941 30.5594 1.14941ZM33.3795 26.0496L33.6995 25.6594L34.0795 26.6096C33.9295 26.4396 33.6695 26.2496 33.3795 26.0596V26.0496ZM40.7495 18.1794C40.6095 18.1894 40.4895 17.9895 40.3595 17.7195C40.3595 17.7995 40.3695 17.8694 40.3895 17.9294C40.2495 17.9594 40.1295 17.9096 40.0295 17.8296L40.2795 17.5295C40.3095 17.5895 40.3395 17.6595 40.3595 17.7195C40.3595 17.6395 40.3495 17.5395 40.3395 17.4495L40.4495 17.3096C40.6795 17.3296 40.8795 17.3396 40.9895 17.3296L40.7395 18.1794H40.7495Z" fill="#A0D92A"/>
<path d="M14.4995 20.4397L14.8695 20.7097C14.7195 20.5597 14.7595 20.4298 14.7495 20.2998C14.6695 20.3798 14.5895 20.5397 14.4995 20.4397Z" fill="white"/>
<path d="M16.6395 22.2803C16.6395 22.1003 16.1795 22.5304 16.2495 22.3604C15.7395 22.5504 17.3395 22.7403 16.6395 22.2803Z" fill="white"/>
<path d="M5.58948 0.469971L5.17944 0.25L5.43945 0.600098L5.58948 0.469971Z" fill="white"/>
<path d="M4.79944 1.22021L4.70947 0.570312L4.45947 1.16016C4.54947 1.13016 4.72944 1.08021 4.79944 1.22021Z" fill="white"/>
<path d="M3.78957 6.44953C3.95957 6.48953 3.99951 6.40959 3.96951 6.25959C3.82951 6.23959 3.75957 6.29953 3.78957 6.44953Z" fill="white"/>
</svg>
