<svg width="257" height="349" viewBox="0 0 257 349" fill="none" xmlns="http://www.w3.org/2000/svg">
<path d="M255.55 4.50977L255.32 4.46973C255.42 4.50973 255.51 4.52977 255.55 4.50977Z" fill="#20BB65"/>
<path d="M251.5 13.8296C251.5 13.8296 251.52 13.8496 251.54 13.8596C251.53 13.8396 251.51 13.8396 251.5 13.8296Z" fill="#20BB65"/>
<path d="M247.68 3.14966C247.68 3.14966 247.65 3.12963 247.63 3.11963L247.68 3.14966Z" fill="#20BB65"/>
<path d="M248.91 1.6498C248.48 2.0098 247.42 1.75977 247.66 2.36977C247.49 2.55977 247.64 2.87979 247.68 3.13979C248.43 3.54979 247.58 3.42983 248.19 3.80983L247.73 3.67983C247.94 3.80983 248.07 3.91977 247.81 3.86977L247.68 3.81972C247.99 4.01972 247.76 4.00976 247.92 4.10976L247.79 4.05983L247.82 4.15981L247.64 4.06972C247.95 4.31972 247.93 4.44975 247.73 4.47975L248.27 4.68971C247.58 4.65971 248.66 5.18974 247.87 5.08974L247.74 5.0298C249.05 5.8698 246.62 4.99972 247.85 5.81972C247.7 5.71972 247.57 5.71981 247.44 5.65981C247.54 5.83981 247.57 5.99972 248.62 6.44972C248.57 6.52972 248.26 6.37973 247.86 6.20973C248.32 6.40973 248.48 6.56979 248.48 6.63979L248.32 6.5298L248.39 6.78981L249.27 7.12978C248.98 7.12978 248.21 6.68978 248.37 6.87978L249.08 7.19972C248.88 7.27972 247.76 6.87979 247.18 6.76979C246.63 7.16979 248.16 8.60979 246.67 8.51979L246.13 8.28981C245.35 7.91981 247.2 8.97981 246.48 8.65981L246.8 8.88979C246.65 8.83979 246.49 8.79971 246.33 8.68971C246.27 8.72971 246.4 8.78972 246.61 8.94972L246.1 8.76979C245.62 8.79979 246.46 9.43972 246.16 9.56972C245.05 9.33972 245.69 10.2898 246.05 10.8598C246.96 11.8798 243.71 10.7197 244.77 11.8297C244.66 11.7797 244.88 11.9498 244.96 11.9998L244.64 12.3098C244.64 12.3098 244.31 12.7198 244.84 13.4098C245.38 14.0898 246.75 15.0998 250.25 16.1398L250.4 16.2398C250.92 16.2398 251.09 16.1498 250.36 15.5298C251.38 16.0698 250.57 15.3998 250.92 15.5298L251 15.5797C250.3 15.0097 251.8 15.6598 251.19 15.1298C251.27 15.1798 251.54 15.3398 251.54 15.3798C251.47 15.2098 251.32 14.9498 251.91 15.2698C251.88 14.9498 252.34 14.7698 251.47 14.1098L251.63 14.2097C251.04 13.7797 251.59 14.0498 251.32 13.7798C251.4 13.8198 251.44 13.8297 251.48 13.8497C250.9 13.4197 251.52 13.5298 251.3 13.3098L251.7 13.5098V13.2798L251.58 13.2998C250.51 12.7098 252.33 13.5098 251.7 13.0098C251.9 12.9498 249.57 11.5898 250.16 11.7398C249.68 11.4198 250.96 12.2198 250.62 11.9298C251.19 12.2198 250.95 12.1498 251.42 12.3598C251.2 12.1298 252.08 12.5097 251.75 12.1997L252.2 12.4198C251.46 11.8598 252.93 12.4297 252.2 11.9397C251.91 11.6097 253.58 12.4898 252.78 11.8998L253.42 12.1298C253.55 12.1098 252.7 11.7198 253.03 11.7798C253.41 11.9698 253.38 11.8298 253.72 12.0498C254.4 12.1598 253.04 11.2898 254.16 11.5398C253.44 11.1398 253.94 11.2298 253.4 10.9298C253.73 11.0798 253.56 10.7198 254.21 11.1798C254.26 11.2198 254.24 11.2298 254.12 11.1798L254.55 11.3998C255.45 11.6598 254.2 10.9398 254.39 10.8698C254.22 10.8398 254.24 10.9098 253.95 10.7298L254.07 10.6398L254.43 10.8397L254.73 10.7598L254.26 10.5697C254.54 10.5897 255.34 10.9198 254.73 10.5198C254.38 10.3098 254.07 10.3198 253.96 10.1598C254.33 10.1898 254.89 10.2198 255.1 10.1298C254.57 9.90978 254.61 9.87981 254.52 9.78981L254.98 9.98976C254.42 9.54976 256.01 10.3798 255.58 9.98976L255.89 10.1398L254.96 9.67983C254.12 9.13983 255.94 10.0198 254.78 9.30983C254.83 9.40983 253.76 8.89981 253.99 8.90981L254.42 9.11977C254.35 9.03977 254.17 8.93972 254.27 8.94972C254.5 9.07972 254.91 9.2398 254.86 9.1498L255.39 9.42983L254.63 8.95973C255.14 9.06973 254.61 8.66979 255.25 8.88979C255.25 8.88979 255.64 8.81975 254.98 8.47975C255.39 8.69975 255.6 8.6598 256.08 8.8998C255.62 8.6398 255.29 8.31975 255.83 8.47975L255.88 8.51979C256.5 8.49979 255.32 7.82978 256.05 7.87978C255.51 7.66978 255.85 7.67983 255.15 7.42983C254.56 6.94983 256.7 7.59983 254.61 6.67983C254.53 6.53983 255.15 6.75978 255.28 6.75978L255.38 6.82973C255.28 6.57973 255.28 6.5198 255.38 6.3998C255.2 6.2498 254.21 5.85973 254.5 5.82973C254.88 6.01973 254.82 5.9398 254.84 5.8998C254.89 5.9498 255.03 6.01983 255.32 6.05983C255.2 5.99983 255.13 5.95983 255.07 5.92983C255.1 5.93983 255.13 5.94974 255.17 5.96974C255.06 5.83974 254.93 5.80972 254.86 5.81972C254.8 5.79972 254.72 5.76976 254.61 5.73976C255.15 5.85976 254.66 5.50978 255.34 5.75978C255.27 5.46978 254.63 5.04979 254.43 4.76979C254.79 4.87979 255.08 5.03979 255.2 5.13979L255.12 4.95973C255.62 5.14973 255.38 5.13974 255.47 5.21974C256.34 5.35974 254.78 4.58983 255.59 4.67983L255.21 4.49977H255.28C255.07 4.43977 254.8 4.28976 254.74 4.23976C255.19 4.36976 255.75 4.60977 255.76 4.49977C256.21 4.57977 255.62 4.2098 255.42 4.0298C255.33 4.0598 255.09 3.94978 254.94 3.87978C254.94 3.82978 255.39 3.95975 255.21 3.84975L255.81 4.04982C255.24 3.86982 255.25 3.71976 255.01 3.60976C255.46 3.73976 255.36 3.80971 255.69 3.93971V3.62978C255.29 3.37978 255.14 3.44975 254.63 3.22975C254.54 3.09975 254.16 2.8798 254.55 2.8998L254.01 2.74977C253.65 2.44977 253.75 2.36972 254.32 2.44972C252.36 1.12972 250.89 0.599778 249.93 0.379778C248.96 0.159778 248.5 0.239763 248.5 0.239763C247.18 0.279763 248.65 1.00983 248.88 1.67983L248.91 1.6498Z" fill="#20BB65"/>
<path d="M233.95 35.87L233.73 35.75C233.8 35.83 233.88 35.88 233.95 35.87Z" fill="#20BB65"/>
<path d="M218.22 48.04C218.22 48.04 218.22 48.07 218.23 48.09C218.23 48.07 218.23 48.05 218.22 48.04Z" fill="#20BB65"/>
<path d="M226.54 31.9701C226.54 31.9701 226.53 31.9302 226.52 31.9102L226.54 31.9701Z" fill="#20BB65"/>
<path d="M229.75 29.9499C228.83 30.4099 227.92 29.78 227.46 30.78C227.04 31.03 226.82 31.5599 226.55 31.9699C226.93 32.7599 226.08 32.3799 226.34 33.0899L225.95 32.79C226.04 33.03 226.06 33.2299 225.82 33.0899L225.74 32.9799C225.87 33.3499 225.61 33.2799 225.68 33.4599L225.59 33.3499L225.5 33.4999L225.4 33.3299C225.46 33.7799 225.28 33.9499 225 33.9599L225.38 34.4C224.61 34.19 225.23 35.24 224.42 34.91L224.34 34.8C224.87 36.33 223.03 34.5099 223.5 35.9899C223.44 35.7999 223.29 35.77 223.21 35.66C223.11 35.95 222.95 36.1799 223.65 37.0899C223.49 37.1899 223.31 36.8999 223.02 36.5699C223.33 36.9699 223.32 37.2299 223.23 37.3399L223.17 37.15L222.94 37.54L223.58 38.2399C223.24 38.1599 222.84 37.36 222.81 37.67L223.29 38.29C222.95 38.35 222.09 37.5199 221.51 37.2399C220.34 37.6999 220.43 40.1 218.69 39.64L218.31 39.1899C217.8 38.4999 218.78 40.41 218.29 39.79L218.4 40.1899C218.28 40.0899 218.12 40 218.07 39.8C217.95 39.84 218.03 39.9599 218.1 40.2199L217.69 39.8599C217.06 39.7999 217.3 40.8799 216.76 40.9899C215.64 40.4399 215.25 41.9 215 42.7599C214.9 44.3599 212.14 42.07 212.11 43.81C212.02 43.72 212.09 43.9999 212.15 44.0799L211.34 44.4399C211.34 44.4399 210.39 44.9299 210.23 45.9599C210.08 46.9899 210.69 48.6 213.98 50.77L214.06 50.9399C214.73 51.0699 215.05 50.9899 214.85 49.9999C215.5 50.9499 215.26 49.88 215.56 50.14L215.6 50.2299C215.39 49.3099 216.53 50.5199 216.36 49.6899C216.4 49.7699 216.56 50.0399 216.51 50.0999C216.62 49.8599 216.73 49.49 217.1 50.04C217.44 49.61 218.22 49.48 217.92 48.41L218 48.5799C217.77 47.8699 218.15 48.36 218.12 47.93C218.18 48 218.21 48.03 218.23 48.06C218.01 47.35 218.67 47.64 218.64 47.29L218.89 47.66L219.17 47.3499H218.99C218.36 46.2999 219.67 47.8299 219.48 46.9999C219.8 46.9699 218.53 44.57 219.09 44.91C218.88 44.36 219.51 45.75 219.43 45.27C219.79 45.79 219.58 45.66 219.9 46.05C219.9 45.69 220.54 46.4 220.5 45.91L220.79 46.3199C220.55 45.3899 221.67 46.51 221.35 45.68C221.39 45.15 222.38 46.7599 222.11 45.7599L222.61 46.2299C222.8 46.2299 222.22 45.49 222.55 45.66C222.79 46.01 222.92 45.8199 223.07 46.1999C223.77 46.5299 223.15 44.9899 224.21 45.6099C223.82 44.8799 224.31 45.1299 224.01 44.5799C224.23 44.8599 224.45 44.3299 224.68 45.1299C224.7 45.1999 224.66 45.2099 224.58 45.0999L224.84 45.52C225.61 46.1 224.96 44.8099 225.27 44.7499C225.11 44.6699 225.04 44.7699 224.9 44.4499L225.15 44.3499L225.35 44.7099L225.81 44.67L225.46 44.29C225.77 44.39 226.34 45.0399 226.08 44.3299C225.92 43.9499 225.53 43.89 225.59 43.64C226 43.77 226.62 43.9599 226.98 43.8799C226.61 43.4399 226.69 43.4 226.69 43.2599L227 43.65C226.86 42.89 227.76 44.44 227.71 43.8L227.9 44.0899L227.34 43.2099C226.99 42.2399 228.1 43.93 227.55 42.65C227.49 42.8 226.83 41.82 227.09 41.89L227.35 42.3C227.36 42.16 227.26 41.99 227.37 42.03C227.49 42.27 227.78 42.5999 227.83 42.4499L228.13 42.9799L227.79 42.1199C228.26 42.3999 228.11 41.7 228.59 42.18C228.59 42.18 229.13 42.18 228.75 41.53C228.97 41.94 229.26 41.94 229.55 42.4C229.31 41.92 229.3 41.3899 229.75 41.7399L229.77 41.8C230.51 41.94 229.93 40.67 230.7 40.93C230.32 40.5 230.7 40.59 230.18 40.06C230.06 39.22 231.78 40.6899 230.43 38.8399C230.51 38.6099 230.96 39.0899 231.11 39.1199L231.15 39.2399C231.32 38.8499 231.39 38.7599 231.64 38.6199C231.6 38.3599 230.93 37.5399 231.29 37.5699C231.5 37.9399 231.53 37.8199 231.6 37.7499C231.6 37.8399 231.68 37.9699 231.96 38.0999C231.89 37.9899 231.86 37.9099 231.83 37.8399C231.85 37.8599 231.87 37.88 231.9 37.92C231.92 37.7 231.81 37.6199 231.72 37.6299C231.68 37.5799 231.62 37.5199 231.53 37.4499C232.01 37.7499 231.85 37.12 232.34 37.65C232.59 37.21 232.34 36.4299 232.45 35.9599C232.73 36.2099 232.88 36.5199 232.89 36.6999L233.01 36.41C233.37 36.81 233.1 36.75 233.1 36.89C233.93 37.31 233.03 35.7799 233.86 36.1099L233.63 35.7399L233.69 35.78C233.54 35.62 233.4 35.3299 233.39 35.2399C233.75 35.5499 234.11 36.04 234.24 35.89C234.66 36.12 234.41 35.4299 234.39 35.1099C234.26 35.1299 234.11 34.9099 234.03 34.7599C234.09 34.6799 234.45 34.99 234.37 34.79L234.81 35.2399C234.38 34.8299 234.56 34.6 234.41 34.39C234.77 34.69 234.58 34.79 234.8 35.06C235.04 34.75 234.92 34.9099 235.16 34.5999C234.98 34.1099 234.72 34.1899 234.41 33.7199C234.46 33.5099 234.28 33.0699 234.69 33.1999L234.26 32.8399C234.21 32.2899 234.39 32.1999 234.95 32.4499C234.25 29.9399 233.23 28.7699 232.41 28.1899C231.59 27.6099 230.96 27.64 230.96 27.64C229.44 27.41 230.23 28.8999 229.71 29.9899L229.75 29.9499Z" fill="#20BB65"/>
<path d="M191.05 62.5497L190.88 62.3696C190.93 62.4696 190.98 62.5397 191.05 62.5497Z" fill="#20BB65"/>
<path d="M188.91 55.6097C187.87 55.7697 187.18 54.8897 186.41 55.7297C185.92 55.8497 185.53 56.2997 185.14 56.6197C185.27 57.4897 184.56 56.8897 184.59 57.6497L184.3 57.2497C184.31 57.5097 184.27 57.7097 184.08 57.5097L184.03 57.3797C184.05 57.7697 183.81 57.6297 183.82 57.8297L183.77 57.6997L183.64 57.8297L183.59 57.6397C183.52 58.0897 183.29 58.2197 183.02 58.1397L183.27 58.6698C182.57 58.2598 182.89 59.4397 182.18 58.8997L182.13 58.7697C182.23 60.3897 180.92 58.1497 180.97 59.7097C180.97 59.5197 180.83 59.4498 180.78 59.3098C180.61 59.5598 180.38 59.7498 180.82 60.8098C180.64 60.8698 180.54 60.5397 180.34 60.1397C180.54 60.5997 180.46 60.8596 180.34 60.9396V60.7397L180 61.0598L180.44 61.8997C180.13 61.7397 179.94 60.8597 179.83 61.1597L180.13 61.8797C179.78 61.8597 179.16 60.8398 178.66 60.4198C177.38 60.5898 176.88 62.9497 175.28 62.1097L175.01 61.5797C174.67 60.7897 175.19 62.8797 174.85 62.1597L174.87 62.5697C174.78 62.4397 174.64 62.3197 174.63 62.1197C174.5 62.1397 174.55 62.2697 174.56 62.5397L174.24 62.0997C173.63 61.8997 173.62 63.0097 173.05 63.0097C172.07 62.2297 171.34 63.5897 170.92 64.3797C170.49 65.9197 168.22 63.1397 167.84 64.8597C167.77 64.7597 167.79 65.0397 167.82 65.1297L166.94 65.3397C166.94 65.3397 162.74 66.5798 168.37 72.0498L168.41 72.2297C169.04 72.4797 169.37 72.4597 169.35 71.4597C169.81 72.5197 169.77 71.4297 170.02 71.7297L170.04 71.8197C170.01 70.8797 170.89 72.2796 170.88 71.4396C170.9 71.5296 171.01 71.8297 170.95 71.8697C171.1 71.6597 171.28 71.3098 171.53 71.9298C171.94 71.5798 172.72 71.6097 172.63 70.4997L172.68 70.6798C172.59 69.9398 172.87 70.4897 172.93 70.0697C172.97 70.1497 173 70.1797 173.01 70.2197C172.94 69.4797 173.52 69.8998 173.56 69.5598L173.73 69.9697L174.07 69.7297L173.89 69.6997C173.49 68.5397 174.46 70.2997 174.44 69.4597C174.75 69.4997 174.02 66.8897 174.5 67.3397C174.41 66.7597 174.73 68.2497 174.76 67.7697C175 68.3597 174.82 68.1797 175.06 68.6297C175.13 68.2797 175.6 69.1197 175.67 68.6297L175.86 69.0897C175.82 68.1297 176.66 69.4697 176.54 68.5897C176.69 68.0897 177.3 69.8797 177.25 68.8497L177.63 69.4198C177.81 69.4698 177.42 68.6197 177.69 68.8597C177.84 69.2597 178.01 69.0997 178.07 69.5097C178.66 69.9897 178.41 68.3597 179.29 69.2097C179.08 68.4097 179.49 68.7697 179.33 68.1597C179.48 68.4897 179.81 68.0297 179.85 68.8497C179.85 68.9197 179.81 68.9197 179.76 68.7897L179.91 69.2497C180.52 69.9997 180.19 68.5897 180.49 68.6197C180.35 68.4997 180.27 68.5797 180.21 68.2397L180.47 68.1997L180.58 68.5997L181.02 68.6798L180.78 68.2297C181.05 68.3997 181.44 69.1798 181.36 68.4298C181.29 68.0198 180.93 67.8597 181.06 67.6397C181.42 67.8697 181.97 68.2097 182.32 68.2197C182.07 67.6997 182.16 67.6898 182.2 67.5498L182.4 68.0097C182.45 67.2397 182.94 68.9697 183.03 68.3397L183.14 68.6698L182.82 67.6798C182.72 66.6498 183.37 68.5697 183.16 67.1997C183.07 67.3297 182.68 66.2097 182.91 66.3497L183.06 66.8098C183.1 66.6798 183.06 66.4798 183.15 66.5498C183.2 66.8098 183.4 67.2097 183.49 67.0797L183.64 67.6698L183.53 66.7597C183.91 67.1597 183.94 66.4397 184.28 67.0397C184.28 67.0397 184.8 67.1797 184.59 66.4597C184.69 66.9197 184.97 66.9897 185.13 67.5097C185.03 66.9897 185.15 66.4698 185.49 66.9298V66.9997C186.15 67.3297 185.93 65.9598 186.6 66.4298C186.35 65.9098 186.68 66.1097 186.34 65.4497C186.45 64.6097 187.68 66.5097 186.91 64.3497C187.04 64.1597 187.34 64.7498 187.48 64.8098V64.9396C187.75 64.6196 187.84 64.5497 188.12 64.4897C188.16 64.2297 187.75 63.2497 188.08 63.3897C188.18 63.8097 188.24 63.6997 188.32 63.6597C188.29 63.7397 188.34 63.8897 188.56 64.0997C188.52 63.9697 188.51 63.8897 188.51 63.8197C188.52 63.8497 188.54 63.8697 188.56 63.9097C188.64 63.7097 188.56 63.5997 188.47 63.5797C188.45 63.5197 188.41 63.4497 188.34 63.3497C188.71 63.7797 188.74 63.1297 189.05 63.7897C189.41 63.4497 189.41 62.6297 189.65 62.2097C189.84 62.5297 189.9 62.8698 189.85 63.0498L190.05 62.8098C190.27 63.2998 190.03 63.1597 190 63.2897C190.66 63.9497 190.26 62.2197 190.94 62.7897L190.84 62.3697L190.89 62.4198C190.8 62.2198 190.75 61.8998 190.77 61.8098C191.01 62.2098 191.21 62.7896 191.37 62.6896C191.69 63.0396 191.67 62.3097 191.74 61.9997C191.61 61.9697 191.53 61.7198 191.51 61.5498C191.59 61.4998 191.83 61.8998 191.82 61.6798L192.09 62.2497C191.81 61.7297 192.05 61.5598 191.97 61.3098C192.21 61.7098 192 61.7397 192.13 62.0697C192.45 61.8597 192.29 61.9597 192.61 61.7497C192.6 61.2297 192.33 61.2198 192.18 60.6798C192.29 60.4898 192.27 60.0197 192.61 60.2797L192.32 59.7998C192.44 59.2698 192.65 59.2397 193.09 59.6497C193.26 57.0597 192.7 55.5997 192.12 54.7797C191.54 53.9597 190.92 53.7897 190.92 53.7897C189.53 53.0797 189.77 54.7597 188.9 55.6397L188.91 55.6097Z" fill="#20BB65"/>
<path d="M144.33 80.5197L144.18 80.3296C144.22 80.4296 144.26 80.5097 144.33 80.5197Z" fill="#20BB65"/>
<path d="M142.88 73.3996C141.82 73.4696 141.21 72.5296 140.34 73.2896C139.83 73.3696 139.4 73.7795 138.97 74.0695C139.02 74.9495 138.36 74.2896 138.32 75.0496L138.06 74.6296C138.05 74.8896 137.99 75.0796 137.82 74.8696L137.78 74.7396C137.76 75.1296 137.54 74.9796 137.53 75.1696L137.49 75.0396L137.35 75.1596L137.31 74.9595C137.2 75.4095 136.96 75.5096 136.69 75.4196L136.9 75.9595C136.23 75.4995 136.45 76.6996 135.79 76.1096L135.75 75.9796C135.72 77.6096 134.58 75.2796 134.51 76.8396C134.51 76.6496 134.38 76.5696 134.34 76.4296C134.14 76.6696 133.91 76.8496 134.27 77.9296C134.08 77.9796 134.01 77.6396 133.84 77.2296C134 77.6996 133.91 77.9496 133.78 78.0296V77.8195L133.43 78.1196L133.82 78.9796C133.52 78.7996 133.39 77.9095 133.26 78.1995L133.52 78.9395C133.17 78.8995 132.61 77.8396 132.14 77.3896C130.83 77.4896 130.19 79.8096 128.63 78.8896L128.39 78.3496C128.09 77.5496 128.49 79.6596 128.19 78.9196V79.3396C128.1 79.2096 127.97 79.0796 127.97 78.8696C127.84 78.8696 127.88 79.0096 127.88 79.2896L127.58 78.8295C126.97 78.5995 126.9 79.7095 126.34 79.6895C125.39 78.8695 124.59 80.1996 124.13 80.9696C123.63 82.4896 121.47 79.6296 121.01 81.3396C120.94 81.2396 120.95 81.5196 120.98 81.6096L120.09 81.7896C120.09 81.7896 115.84 82.8996 121.3 88.5396L121.34 88.7196C121.95 88.9896 122.28 88.9796 122.3 87.9796C122.73 89.0496 122.72 87.9596 122.95 88.2796L122.97 88.3696C122.97 87.4296 123.8 88.8696 123.81 88.0196C123.83 88.1096 123.93 88.4095 123.87 88.4495C124.02 88.2395 124.21 87.9096 124.45 88.5396C124.87 88.2096 125.64 88.2696 125.6 87.1596L125.64 87.3396C125.58 86.5996 125.83 87.1596 125.91 86.7496C125.95 86.8296 125.98 86.8696 125.99 86.8996C125.95 86.1596 126.51 86.5996 126.56 86.2596L126.71 86.6796L127.05 86.4495L126.88 86.4096C126.53 85.2296 127.42 87.0395 127.43 86.1895C127.74 86.2495 127.13 83.5995 127.59 84.0795C127.53 83.4895 127.78 84.9996 127.83 84.5196C128.04 85.1196 127.87 84.9296 128.09 85.3896C128.18 85.0396 128.61 85.8996 128.7 85.4096L128.87 85.8796C128.87 84.9196 129.65 86.2996 129.57 85.4196C129.75 84.9296 130.26 86.7495 130.26 85.7095L130.6 86.2996C130.77 86.3596 130.43 85.4896 130.69 85.7396C130.82 86.1396 130.99 85.9896 131.03 86.4096C131.59 86.9196 131.43 85.2796 132.25 86.1796C132.08 85.3696 132.47 85.7496 132.34 85.1396C132.47 85.4796 132.82 85.0396 132.81 85.8596C132.81 85.9296 132.77 85.9296 132.72 85.7996L132.85 86.2696C133.41 87.0496 133.16 85.6296 133.46 85.6696C133.33 85.5396 133.24 85.6196 133.2 85.2796L133.46 85.2596L133.54 85.6696L133.97 85.7696L133.76 85.2996C134.02 85.4896 134.36 86.2896 134.32 85.5296C134.28 85.1196 133.93 84.9396 134.06 84.7196C134.41 84.9696 134.93 85.3396 135.27 85.3896C135.06 84.8596 135.14 84.8495 135.19 84.7095L135.36 85.1796C135.45 84.4196 135.83 86.1796 135.97 85.5496L136.06 85.8896L135.8 84.8796C135.76 83.8496 136.29 85.7996 136.17 84.4196C136.07 84.5396 135.75 83.3996 135.98 83.5496L136.1 84.0196C136.15 83.8896 136.11 83.6896 136.2 83.7696C136.23 84.0296 136.4 84.4395 136.5 84.3195L136.61 84.9196L136.56 83.9996C136.91 84.4296 136.99 83.7095 137.28 84.3295C137.28 84.3295 137.78 84.5096 137.63 83.7796C137.7 84.2396 137.97 84.3396 138.09 84.8696C138.02 84.3396 138.18 83.8295 138.48 84.3195V84.3896C139.1 84.7796 138.98 83.3896 139.6 83.9096C139.39 83.3696 139.71 83.5996 139.41 82.9096C139.58 82.0796 140.65 84.0696 140.05 81.8596C140.2 81.6796 140.45 82.2896 140.58 82.3696V82.4996C140.86 82.1996 140.96 82.1496 141.24 82.1096C141.3 81.8596 140.97 80.8396 141.29 81.0096C141.35 81.4296 141.42 81.3296 141.51 81.2996C141.48 81.3796 141.51 81.5296 141.72 81.7596C141.69 81.6296 141.69 81.5496 141.69 81.4796C141.7 81.5096 141.71 81.5295 141.73 81.5795C141.83 81.3895 141.76 81.2696 141.67 81.2396C141.65 81.1796 141.62 81.0996 141.56 80.9996C141.89 81.4596 141.97 80.8196 142.22 81.4996C142.6 81.1896 142.67 80.3796 142.95 79.9896C143.11 80.3296 143.13 80.6696 143.08 80.8396L143.29 80.6196C143.46 81.1296 143.24 80.9596 143.2 81.0896C143.79 81.7996 143.55 80.0496 144.17 80.6796L144.11 80.2496L144.15 80.3096C144.08 80.0996 144.06 79.7795 144.09 79.6995C144.29 80.1195 144.44 80.7196 144.61 80.6296C144.9 81.0096 144.94 80.2796 145.04 79.9796C144.91 79.9396 144.86 79.6796 144.85 79.5096C144.93 79.4596 145.14 79.8896 145.14 79.6696L145.35 80.2596C145.12 79.7096 145.37 79.5695 145.32 79.3195C145.52 79.7395 145.32 79.7496 145.4 80.0896C145.74 79.9096 145.57 79.9995 145.91 79.8195C145.95 79.3095 145.68 79.2695 145.59 78.7095C145.72 78.5395 145.74 78.0596 146.06 78.3596L145.82 77.8496C146 77.3296 146.21 77.3296 146.6 77.7896C147.48 72.6696 145.08 71.7296 145.08 71.7296C143.75 70.8796 143.8 72.5796 142.84 73.3796L142.88 73.3996Z" fill="#20BB65"/>
<path d="M97.3999 97.0099L97.2499 96.8198C97.2899 96.9198 97.3399 96.9999 97.3999 97.0099Z" fill="#20BB65"/>
<path d="M95.7198 89.9398C94.6498 90.0398 94.0098 89.1299 93.1598 89.9199C92.6498 90.0199 92.2299 90.4499 91.8099 90.7599C91.8899 91.6299 91.1999 91.0099 91.1899 91.7699L90.9098 91.3598C90.9098 91.6198 90.8599 91.8198 90.6799 91.6098L90.6399 91.4798C90.6399 91.8698 90.4098 91.7299 90.4098 91.9199L90.3599 91.7899L90.2198 91.9099L90.1799 91.7098C90.0799 92.1598 89.8499 92.2798 89.5699 92.1998L89.7999 92.7298C89.1099 92.3098 89.3799 93.4898 88.6899 92.9398L88.6399 92.8099C88.6899 94.4399 87.4299 92.1698 87.4299 93.7298C87.4299 93.5398 87.2899 93.4598 87.2399 93.3298C87.0499 93.5798 86.8199 93.7698 87.2399 94.8298C87.0499 94.8898 86.9599 94.5599 86.7699 94.1599C86.9599 94.6199 86.8799 94.8798 86.7499 94.9598V94.7499L86.4098 95.0698L86.8399 95.9099C86.5299 95.7399 86.3499 94.8699 86.2399 95.1599L86.5399 95.8799C86.1899 95.8599 85.5699 94.8299 85.0699 94.4099C83.7499 94.5899 83.2499 96.9499 81.6199 96.1399L81.3399 95.6198C80.9899 94.8398 81.5299 96.9198 81.1799 96.1998L81.1999 96.6198C81.0999 96.4898 80.9599 96.3699 80.9499 96.1699C80.8199 96.1899 80.8699 96.3198 80.8899 96.5998L80.5599 96.1599C79.9299 95.9799 79.9399 97.0898 79.3699 97.1098C78.3499 96.3598 77.6399 97.7598 77.2399 98.5698C76.8699 100.13 74.4399 97.4798 74.1299 99.2198C74.0499 99.1198 74.0899 99.4099 74.1299 99.4999L73.2499 99.7699C73.2499 99.7699 72.1999 100.16 71.9199 101.18C71.6299 102.2 72.1299 103.84 75.1199 106.37L75.1799 106.55C75.8099 106.76 76.1299 106.72 76.0499 105.73C76.5799 106.76 76.4598 105.67 76.7198 105.96L76.7499 106.05C76.6599 105.12 77.6099 106.47 77.5499 105.63C77.5799 105.72 77.6999 106.01 77.6499 106.05C77.7799 105.83 77.9399 105.48 78.2299 106.09C78.6099 105.73 79.3699 105.72 79.2399 104.62L79.2899 104.8C79.1699 104.07 79.4599 104.61 79.4999 104.19C79.5499 104.27 79.5799 104.3 79.5899 104.34C79.4899 103.61 80.0799 104 80.0999 103.66L80.2899 104.06L80.6099 103.81L80.4399 103.78C79.9999 102.64 81.0198 104.36 80.9698 103.52C81.2798 103.56 80.4598 100.97 80.9698 101.41C80.8698 100.83 81.2299 102.31 81.2399 101.83C81.4999 102.41 81.3099 102.23 81.5599 102.68C81.6199 102.32 82.1098 103.15 82.1598 102.66L82.3599 103.11C82.2899 102.15 83.1599 103.48 83.0199 102.6C83.1599 102.09 83.7999 103.87 83.7299 102.85L84.1099 103.42C84.2899 103.46 83.8798 102.62 84.1598 102.86C84.3198 103.25 84.4799 103.09 84.5499 103.5C85.1399 103.97 84.8699 102.35 85.7399 103.2C85.5199 102.4 85.9299 102.76 85.7599 102.16C85.9099 102.49 86.2299 102.03 86.2799 102.85C86.2799 102.92 86.2399 102.92 86.1899 102.79L86.3499 103.25C86.9499 104 86.6099 102.59 86.9199 102.62C86.7799 102.5 86.6999 102.58 86.6399 102.24L86.8999 102.21L87.0099 102.61L87.4499 102.69L87.2099 102.24C87.4799 102.41 87.8699 103.19 87.7799 102.44C87.7099 102.03 87.3599 101.87 87.4799 101.65C87.8399 101.88 88.3698 102.23 88.7198 102.25C88.4798 101.73 88.5599 101.72 88.5999 101.58L88.7999 102.04C88.8499 101.27 89.3199 103.01 89.4199 102.38L89.5199 102.71L89.2099 101.71C89.1099 100.68 89.7399 102.61 89.5499 101.23C89.4599 101.36 89.0799 100.23 89.3099 100.38L89.4499 100.84C89.4899 100.71 89.4499 100.52 89.5399 100.59C89.5899 100.85 89.7799 101.25 89.8699 101.12L90.0099 101.71L89.9098 100.8C90.2799 101.21 90.3199 100.49 90.6399 101.09C90.6399 101.09 91.1399 101.25 90.9499 100.52C91.0399 100.98 91.3199 101.06 91.4599 101.59C91.3599 101.07 91.4999 100.55 91.8199 101.02V101.09C92.4599 101.45 92.2698 100.08 92.9098 100.56C92.6798 100.03 92.9999 100.24 92.6799 99.5698C92.8199 98.7298 93.9599 100.68 93.2699 98.4999C93.4099 98.3099 93.6799 98.9098 93.8199 98.9898V99.1198C94.0999 98.8098 94.1899 98.7498 94.4599 98.6998C94.5099 98.4398 94.1399 97.4498 94.4599 97.5998C94.5399 98.0198 94.5999 97.9099 94.6899 97.8799C94.6599 97.9599 94.6898 98.1098 94.9098 98.3298C94.8798 98.1998 94.8699 98.1199 94.8699 98.0499C94.8799 98.0799 94.8998 98.0999 94.9098 98.1499C94.9998 97.9599 94.9299 97.8399 94.8399 97.8099C94.8199 97.7499 94.7798 97.6698 94.7198 97.5698C95.0598 98.0198 95.1199 97.3799 95.3999 98.0499C95.7699 97.7299 95.8099 96.9099 96.0599 96.5099C96.2299 96.8399 96.2698 97.1798 96.2198 97.3598L96.4299 97.1399C96.6199 97.6399 96.3899 97.4798 96.3499 97.6098C96.9599 98.3098 96.6599 96.5599 97.2999 97.1699L97.2198 96.7499L97.2699 96.8099C97.1899 96.5999 97.1599 96.2898 97.1899 96.1998C97.4099 96.6198 97.5699 97.2098 97.7299 97.1098C98.0299 97.4798 98.0399 96.7498 98.1399 96.4498C98.0099 96.4098 97.9499 96.1598 97.9399 95.9898C98.0199 95.9398 98.2399 96.3599 98.2299 96.1499L98.4599 96.7398C98.2199 96.1998 98.4599 96.0499 98.3999 95.7999C98.6099 96.2199 98.3999 96.2299 98.5099 96.5599C98.8399 96.3699 98.6799 96.4699 99.0099 96.2799C99.0299 95.7599 98.7698 95.7399 98.6598 95.1799C98.7799 94.9999 98.7899 94.5299 99.1099 94.8099L98.8499 94.3099C99.0099 93.7899 99.2199 93.7798 99.6299 94.2298C100.38 89.0898 97.9499 88.2098 97.9499 88.2098C96.5899 87.3998 96.6799 89.0999 95.7299 89.9299L95.7198 89.9398Z" fill="#20BB65"/>
<path d="M53.0399 118.13L52.8499 117.979C52.9099 118.069 52.9699 118.14 53.0399 118.13Z" fill="#20BB65"/>
<path d="M38.1199 129.669C38.1199 129.669 38.1299 129.699 38.1399 129.719C38.1399 129.699 38.1299 129.679 38.1199 129.669Z" fill="#20BB65"/>
<path d="M46.2299 113.229C46.2299 113.229 46.2299 113.189 46.2099 113.169V113.229H46.2299Z" fill="#20BB65"/>
<path d="M49.9699 111.55C48.9199 111.87 48.0999 111.129 47.4099 112.089C46.9199 112.309 46.5899 112.83 46.2299 113.23C46.4999 114.07 45.6699 113.62 45.8399 114.37L45.4799 114.04C45.5299 114.3 45.5299 114.499 45.2999 114.339L45.2299 114.22C45.3099 114.6 45.0499 114.519 45.0999 114.709L45.0299 114.589L44.9199 114.74L44.8299 114.56C44.8299 115.02 44.6299 115.189 44.3399 115.189L44.6899 115.65C43.9099 115.41 44.4499 116.5 43.6399 116.14L43.5599 116.02C43.9899 117.59 42.2099 115.71 42.5899 117.23C42.5399 117.04 42.3899 117.01 42.3099 116.89C42.1899 117.19 42.0099 117.43 42.6899 118.35C42.5199 118.45 42.3499 118.159 42.0599 117.819C42.3599 118.219 42.3499 118.49 42.2399 118.6L42.1799 118.4L41.9299 118.8L42.5699 119.5C42.2199 119.42 41.8299 118.619 41.7899 118.939L42.2699 119.56C41.9199 119.63 41.0499 118.81 40.4499 118.54C39.1899 119.09 39.3499 121.52 37.5499 121.23L37.1299 120.81C36.5599 120.17 37.6799 122 37.1299 121.42L37.2699 121.81C37.1399 121.72 36.9699 121.649 36.8999 121.459C36.7799 121.519 36.8699 121.63 36.9599 121.89L36.5099 121.579C35.8399 121.609 36.1799 122.67 35.6299 122.87C34.4199 122.5 34.1399 124.07 34.0299 124.99C34.1899 126.59 30.9799 124.95 31.2599 126.73C31.1499 126.67 31.2799 126.92 31.3499 126.99L30.5999 127.579C30.5999 127.579 29.7399 128.35 29.8499 129.42C29.9399 130.5 31.0699 131.78 34.7599 133.04L34.8799 133.18C35.5299 133.15 35.8099 133.01 35.3599 132.12C36.2199 132.89 35.7199 131.93 36.0599 132.11L36.1199 132.18C35.6999 131.35 37.0499 132.27 36.6999 131.52C36.7599 131.59 36.9699 131.82 36.9399 131.88C36.9799 131.64 36.9999 131.26 37.4799 131.73C37.6999 131.27 38.3899 131.02 37.8899 130.04L37.9999 130.189C37.6299 129.539 38.0899 129.96 37.9899 129.55C38.0599 129.61 38.0999 129.63 38.1199 129.66C37.7799 129.01 38.4599 129.19 38.3699 128.86L38.6799 129.18L38.8999 128.839L38.7299 128.87C37.9399 127.93 39.4699 129.24 39.1399 128.47C39.4399 128.41 37.8399 126.21 38.4499 126.47C38.1699 125.95 38.9799 127.25 38.8399 126.78C39.2699 127.25 39.0399 127.14 39.4099 127.49C39.3499 127.13 40.0799 127.77 39.9699 127.29L40.2999 127.66C39.9399 126.77 41.1699 127.78 40.7599 126.99C40.7399 126.47 41.8799 127.98 41.4999 127.02L42.0299 127.449C42.2099 127.449 41.5799 126.76 41.9099 126.9C42.1799 127.23 42.2799 127.03 42.4699 127.4C43.1599 127.69 42.4199 126.22 43.4899 126.79C43.0499 126.09 43.5399 126.32 43.2099 125.79C43.4499 126.06 43.6099 125.54 43.8999 126.31C43.9199 126.37 43.8799 126.39 43.7999 126.28L44.0799 126.68C44.8599 127.24 44.1399 125.99 44.4299 125.93C44.2699 125.85 44.2099 125.95 44.0599 125.64L44.2899 125.54L44.5099 125.89L44.9399 125.85L44.5899 125.48C44.8899 125.57 45.4699 126.22 45.1799 125.53C44.9999 125.16 44.6199 125.09 44.6699 124.85C45.0699 124.98 45.6799 125.18 46.0099 125.11C45.6399 124.67 45.7199 124.64 45.7099 124.49L46.0199 124.88C45.8599 124.13 46.7799 125.68 46.6899 125.05L46.8799 125.339L46.3199 124.459C45.9499 123.499 47.0599 125.19 46.5099 123.92C46.4599 124.06 45.7999 123.08 46.0599 123.16L46.3199 123.569C46.3199 123.439 46.2299 123.26 46.3399 123.3C46.4499 123.54 46.7399 123.88 46.7899 123.74L47.0799 124.27L46.7399 123.42C47.1999 123.72 47.0499 123.03 47.5099 123.53C47.5099 123.53 48.0199 123.56 47.6599 122.91C47.8699 123.33 48.1499 123.339 48.4199 123.819C48.1999 123.339 48.1899 122.809 48.6199 123.199L48.6399 123.26C49.3399 123.46 48.8199 122.18 49.5399 122.51C49.1899 122.05 49.5399 122.18 49.0799 121.61C49.0099 120.77 50.5699 122.409 49.3899 120.439C49.4799 120.229 49.8799 120.75 50.0299 120.79L50.0599 120.92C50.2499 120.56 50.3199 120.48 50.5799 120.38C50.5699 120.12 49.9899 119.23 50.3299 119.31C50.4999 119.7 50.5399 119.58 50.6099 119.53C50.5999 119.62 50.6699 119.76 50.9299 119.92C50.8699 119.8 50.8499 119.72 50.8299 119.65C50.8499 119.68 50.8699 119.7 50.8899 119.73C50.9299 119.52 50.8399 119.43 50.7499 119.42C50.7199 119.36 50.6699 119.299 50.5799 119.209C51.0099 119.579 50.9199 118.94 51.3399 119.53C51.6199 119.14 51.4799 118.34 51.6499 117.89C51.8899 118.18 51.9999 118.5 51.9799 118.68L52.1299 118.42C52.4199 118.87 52.1699 118.76 52.1599 118.9C52.8999 119.45 52.2399 117.82 52.9799 118.28L52.8199 117.88L52.8799 117.93C52.7599 117.74 52.6599 117.44 52.6699 117.35C52.9699 117.71 53.2499 118.26 53.3899 118.13C53.7499 118.43 53.6199 117.72 53.6499 117.4C53.5199 117.39 53.4099 117.15 53.3599 116.99C53.4299 116.93 53.7199 117.289 53.6799 117.089L54.0199 117.62C53.6699 117.14 53.8799 116.949 53.7799 116.709C54.0699 117.079 53.8699 117.129 54.0399 117.439C54.3199 117.189 54.1799 117.319 54.4599 117.069C54.3799 116.559 54.1099 116.58 53.8999 116.06C53.9799 115.86 53.8999 115.4 54.2699 115.61L53.9199 115.17C53.9799 114.63 54.1799 114.579 54.6699 114.939C54.5399 112.349 53.8699 110.939 53.2099 110.189C52.5399 109.439 51.8899 109.35 51.8899 109.35C50.3799 108.82 50.7699 110.49 49.9899 111.5L49.9699 111.55Z" fill="#20BB65"/>
<path d="M21.5099 153.379L21.2699 153.359C21.3699 153.399 21.4599 153.419 21.5099 153.379Z" fill="#20BB65"/>
<path d="M14.8399 171.29C14.8399 171.29 14.8699 171.309 14.8799 171.319C14.8699 171.299 14.8499 171.29 14.8399 171.29Z" fill="#20BB65"/>
<path d="M13.1199 153.06C13.1199 153.06 13.0899 153.03 13.0699 153.02L13.1099 153.06H13.1199Z" fill="#20BB65"/>
<path d="M15.2799 149.63C14.5999 150.47 13.4998 150.3 13.4698 151.48C13.1798 151.92 13.1999 152.54 13.1199 153.05C13.8099 153.6 12.8698 153.67 13.4198 154.21L12.9399 154.13C13.1299 154.31 13.2399 154.48 12.9599 154.48L12.8299 154.42C13.1099 154.69 12.8499 154.76 12.9899 154.9L12.8598 154.84V155.03L12.6799 154.93C12.9399 155.31 12.8598 155.57 12.6098 155.71L13.1598 155.91C12.3698 156.13 13.4198 156.74 12.5398 156.87L12.4098 156.81C13.6298 157.9 11.1099 157.26 12.2499 158.34C12.1099 158.21 11.9599 158.26 11.8299 158.2C11.8899 158.51 11.8699 158.81 12.9299 159.22C12.8499 159.4 12.5399 159.24 12.1199 159.11C12.5899 159.29 12.7199 159.52 12.6899 159.67L12.5299 159.54V160.01L13.4399 160.26C13.1099 160.38 12.3398 159.91 12.4798 160.19L13.2099 160.46C12.9499 160.7 11.7799 160.46 11.1299 160.55C10.3599 161.65 11.7699 163.63 10.0699 164.3L9.49986 164.16C8.67986 163.9 10.5899 164.89 9.81987 164.67L10.1399 164.93C9.97988 164.92 9.79988 164.94 9.63988 164.81C9.56988 164.92 9.69983 164.97 9.90983 165.14L9.35985 165.1C8.79985 165.45 9.63988 166.19 9.26988 166.63C8.03988 166.9 8.59987 168.37 8.94987 169.21C9.86987 170.52 6.27987 170.61 7.37987 172.01C7.24987 172.01 7.48989 172.17 7.58989 172.19L7.20988 173.04C7.20988 173.04 6.81983 174.09 7.40983 174.98C7.98983 175.87 9.55985 176.54 13.4299 175.94L13.5998 176.01C14.1698 175.67 14.3498 175.41 13.5398 174.82C14.6598 175.09 13.7698 174.47 14.1598 174.47L14.2499 174.51C13.4799 173.97 15.1299 174.14 14.4499 173.64C14.5299 173.68 14.8399 173.77 14.8299 173.84C14.7499 173.6 14.5899 173.25 15.2399 173.44C15.2199 172.92 15.7098 172.35 14.7898 171.73L14.9599 171.81C14.3299 171.42 14.9299 171.55 14.6399 171.25C14.7299 171.27 14.7699 171.27 14.8099 171.28C14.1899 170.87 14.8799 170.7 14.6399 170.45L15.0699 170.58L15.0899 170.17L14.9499 170.28C13.7999 169.85 15.7698 170.23 15.1098 169.72C15.3398 169.52 12.8599 168.4 13.5199 168.32C13.0199 168.01 14.3699 168.73 14.0099 168.4C14.6199 168.6 14.3598 168.61 14.8598 168.73C14.6298 168.45 15.5799 168.63 15.2499 168.27L15.7198 168.42C14.9598 167.83 16.5299 168.07 15.7799 167.6C15.4999 167.16 17.2499 167.88 16.4299 167.24L17.1098 167.34C17.2598 167.24 16.3698 166.97 16.7298 166.93C17.1298 167.08 17.1198 166.85 17.4698 167.07C18.2098 166.95 16.8198 166.07 18.0398 166C17.2998 165.63 17.8399 165.57 17.2799 165.29C17.6199 165.4 17.4999 164.86 18.1399 165.38C18.1899 165.42 18.1698 165.46 18.0398 165.41L18.4899 165.61C19.4499 165.67 18.1799 164.98 18.3999 164.78C18.2199 164.8 18.2299 164.91 17.9299 164.73L18.0799 164.52L18.4499 164.71L18.7998 164.45L18.2998 164.32C18.6098 164.24 19.4399 164.48 18.8299 164.04C18.4799 163.81 18.1298 163.96 18.0398 163.73C18.4498 163.62 19.0699 163.47 19.3199 163.23C18.7699 163.06 18.8199 162.98 18.7399 162.86L19.2099 163.03C18.6799 162.48 20.2799 163.3 19.8799 162.81L20.1899 162.96L19.2499 162.51C18.4299 161.88 20.2699 162.73 19.1299 161.95C19.1599 162.1 18.0799 161.61 18.3399 161.54L18.7699 161.75C18.7099 161.63 18.5299 161.53 18.6399 161.51C18.8599 161.65 19.2799 161.79 19.2499 161.64L19.7799 161.94L19.0398 161.4C19.5898 161.4 19.0899 160.9 19.7499 161.07C19.7499 161.07 20.1998 160.81 19.5498 160.46C19.9498 160.7 20.1999 160.56 20.6799 160.82C20.2299 160.53 19.9499 160.09 20.5099 160.18L20.5599 160.22C21.2599 160.01 20.1298 159.2 20.9198 159.08C20.3798 158.88 20.7498 158.8 20.0498 158.57C19.5398 157.9 21.7299 158.42 19.6799 157.41C19.6399 157.18 20.2598 157.4 20.4098 157.35L20.4999 157.44C20.4599 157.03 20.4799 156.93 20.6399 156.7C20.4899 156.49 19.5198 156.06 19.8498 155.94C20.2098 156.18 20.1699 156.05 20.2099 155.97C20.2499 156.05 20.3799 156.13 20.6899 156.12C20.5799 156.05 20.5099 156 20.4599 155.95C20.4899 155.96 20.5199 155.97 20.5599 155.99C20.4799 155.79 20.3499 155.77 20.2699 155.81C20.2099 155.78 20.1299 155.76 20.0199 155.73C20.5799 155.8 20.1599 155.31 20.8299 155.57C20.8499 155.09 20.2899 154.49 20.1799 154.03C20.5399 154.14 20.8099 154.35 20.8999 154.51L20.8799 154.21C21.3699 154.42 21.0998 154.47 21.1698 154.59C22.0898 154.64 20.6399 153.64 21.5199 153.61L21.1598 153.37H21.2298C21.0198 153.29 20.7798 153.09 20.7298 153.01C21.1798 153.15 21.7099 153.44 21.7599 153.26C22.2299 153.31 21.7199 152.79 21.5699 152.51C21.4599 152.57 21.2298 152.44 21.0998 152.33C21.1198 152.24 21.5698 152.38 21.4198 152.23L21.9999 152.48C21.4399 152.27 21.5098 152 21.2898 151.86C21.7398 152 21.5998 152.16 21.9098 152.32C22.0098 151.95 21.9599 152.14 22.0599 151.77C21.7099 151.39 21.4999 151.56 21.0299 151.25C20.9899 151.04 20.6599 150.7 21.0899 150.67L20.5498 150.5C20.2898 150.02 20.4298 149.86 21.0398 149.89C19.4798 147.82 18.1298 147.03 17.1598 146.78C16.1798 146.55 15.5998 146.83 15.5998 146.83C14.0598 147.24 15.3199 148.38 15.2399 149.65L15.2799 149.63Z" fill="#20BB65"/>
<path d="M8.44989 200.36L8.2099 200.41C8.3199 200.42 8.40989 200.41 8.44989 200.36Z" fill="#20BB65"/>
<path d="M7.84985 219.31C7.84985 219.31 7.8799 219.309 7.8999 219.329C7.8799 219.319 7.85985 219.31 7.84985 219.31Z" fill="#20BB65"/>
<path d="M0.349854 202.57C0.349854 202.57 0.319856 202.55 0.289856 202.54L0.349854 202.57Z" fill="#20BB65"/>
<path d="M1.39991 198.61C0.989907 199.63 -0.110095 199.8 0.209905 200.94C0.0699049 201.46 0.269859 202.04 0.349859 202.56C1.16986 202.88 0.299873 203.23 0.989873 203.58L0.499883 203.65C0.729883 203.77 0.889878 203.9 0.619878 203.98L0.479863 203.96C0.829863 204.14 0.599912 204.29 0.779912 204.37L0.639898 204.35L0.689885 204.53L0.489873 204.48C0.849873 204.77 0.859866 205.03 0.669866 205.25L1.24988 205.27C0.569883 205.73 1.7599 205.99 0.959905 206.39H0.81989C2.30989 207.03 -0.280093 207.22 1.14991 207.89C0.969907 207.81 0.849905 207.91 0.709905 207.89C0.859905 208.17 0.93989 208.46 2.06989 208.52C2.04989 208.71 1.70989 208.66 1.25989 208.67C1.75989 208.69 1.95986 208.87 1.97986 209.02L1.78986 208.94L1.93989 209.39L2.8899 209.34C2.6099 209.56 1.7399 209.36 1.9599 209.59L2.73987 209.62C2.57987 209.93 1.38987 210.08 0.799871 210.38C0.419871 211.69 2.3999 213.11 1.0199 214.31L0.429876 214.36C-0.430124 214.38 1.69991 214.69 0.899907 214.74L1.28986 214.88C1.13986 214.92 0.969912 215 0.779912 214.94C0.749912 215.07 0.889907 215.07 1.14991 215.17L0.619878 215.31C0.209878 215.83 1.23986 216.26 1.03986 216.8C-0.0301391 217.48 0.999868 218.69 1.60987 219.36C2.91987 220.28 -0.420132 221.61 1.10987 222.55C0.989868 222.59 1.26988 222.66 1.36988 222.65L1.30988 223.59C1.30988 223.59 1.30988 224.73 2.17988 225.35C3.03988 225.98 4.74991 226.04 8.14991 224.12H8.33991C8.74991 223.61 8.82988 223.31 7.86988 223.04C9.01988 222.9 7.9599 222.64 8.3299 222.5H8.41987C7.51987 222.27 9.10987 221.85 8.29987 221.62C8.38987 221.62 8.70986 221.62 8.72986 221.68C8.56986 221.48 8.29985 221.22 8.96985 221.16C8.76985 220.68 9.03991 219.99 7.95991 219.72H8.14991C7.41991 219.59 8.02986 219.51 7.65986 219.32C7.74986 219.31 7.7899 219.29 7.8299 219.29C7.1099 219.12 7.69989 218.72 7.37989 218.57L7.81989 218.54L7.6999 218.15L7.60987 218.3C6.37987 218.29 8.36989 217.98 7.56989 217.72C7.71989 217.45 5.00986 217.24 5.59986 216.95C5.01986 216.83 6.52991 217.05 6.08991 216.86C6.72991 216.84 6.48988 216.94 6.99988 216.88C6.68988 216.69 7.6399 216.55 7.20991 216.32L7.70991 216.3C6.79991 216 8.35987 215.71 7.48987 215.51C7.07987 215.19 8.95987 215.28 7.98987 214.96L8.65986 214.83C8.76986 214.69 7.82986 214.73 8.15986 214.57C8.57986 214.57 8.49991 214.37 8.89991 214.46C9.55991 214.11 7.9599 213.74 9.0799 213.28C8.2599 213.17 8.74989 212.94 8.12989 212.86C8.48989 212.86 8.19985 212.39 8.96985 212.66C9.02985 212.68 9.01989 212.72 8.87989 212.72L9.36988 212.76C10.2999 212.51 8.8699 212.27 9.0199 212.01C8.8599 212.09 8.89988 212.19 8.55988 212.11L8.62989 211.87L9.03986 211.93L9.28986 211.57L8.77991 211.61C9.03991 211.44 9.90989 211.4 9.18989 211.18C8.78989 211.08 8.49991 211.33 8.33991 211.14C8.69991 210.91 9.2299 210.57 9.3899 210.27C8.8199 210.27 8.83986 210.2 8.72986 210.11H9.22986C8.54986 209.77 10.3299 210.04 9.78986 209.7L10.1399 209.74L9.09986 209.62C8.11986 209.29 10.1399 209.51 8.80988 209.13C8.88988 209.26 7.70988 209.14 7.92988 209L8.40986 209.06C8.30986 208.97 8.10985 208.93 8.21985 208.88C8.47985 208.94 8.91991 208.94 8.83991 208.81L9.43989 208.92L8.56989 208.64C9.08989 208.48 8.4599 208.15 9.1399 208.11C9.1399 208.11 9.48988 207.73 8.74988 207.6C9.20988 207.71 9.38988 207.5 9.92988 207.59C9.41988 207.46 9.00989 207.13 9.56989 207.04L9.62989 207.07C10.2199 206.66 8.89988 206.25 9.61988 205.89C9.03988 205.87 9.36989 205.68 8.62989 205.68C7.92989 205.2 10.1899 205.03 7.91987 204.7C7.80987 204.5 8.46986 204.51 8.59986 204.42L8.71985 204.48C8.55985 204.11 8.54988 204 8.61988 203.74C8.40988 203.59 7.35989 203.48 7.62989 203.26C8.03989 203.37 7.96986 203.26 7.97986 203.18C8.03986 203.24 8.18987 203.27 8.48987 203.18C8.35987 203.15 8.27985 203.12 8.21985 203.09C8.24985 203.09 8.27989 203.09 8.31989 203.09C8.18989 202.93 8.04987 202.94 7.98987 203.01C7.92987 203.01 7.83985 203 7.71985 203.01C8.27985 202.9 7.71989 202.57 8.44989 202.62C8.31989 202.16 7.60988 201.76 7.36988 201.35C7.74988 201.35 8.0599 201.47 8.19989 201.59L8.08991 201.31C8.61991 201.37 8.37986 201.49 8.47986 201.59C9.37986 201.36 7.6899 200.85 8.5199 200.56L8.10987 200.44H8.17988C7.95988 200.4 7.65986 200.29 7.59986 200.22C8.06986 200.22 8.66986 200.34 8.65986 200.16C9.11986 200.07 8.47989 199.72 8.25989 199.5C8.16989 199.59 7.91989 199.53 7.75989 199.47C7.75989 199.38 8.22991 199.38 8.02991 199.28L8.65986 199.35C8.06986 199.32 8.04987 199.03 7.79987 198.97C8.26987 198.97 8.17991 199.16 8.52991 199.23C8.51991 198.85 8.52989 199.04 8.50989 198.67C8.05989 198.42 7.90989 198.63 7.37989 198.47C7.27989 198.28 6.85989 198.05 7.25989 197.9H6.6999C6.3099 197.51 6.39988 197.32 6.99988 197.17C4.90988 195.64 3.3899 195.27 2.3899 195.32C1.3899 195.36 0.909856 195.81 0.909856 195.81C-0.450144 196.66 1.08989 197.4 1.37989 198.64L1.39991 198.61Z" fill="#20BB65"/>
<path d="M12.7799 248.43L12.5799 248.57C12.6799 248.54 12.7599 248.49 12.7799 248.43Z" fill="#20BB65"/>
<path d="M5.6199 249.65C5.6599 250.75 4.71988 251.35 5.47988 252.28C5.56988 252.81 5.97992 253.27 6.26992 253.72C7.14992 253.68 6.49992 254.36 7.26992 254.4L6.85989 254.66C7.11989 254.67 7.31989 254.73 7.10989 254.91L6.97988 254.95C7.36988 254.97 7.21989 255.2 7.41989 255.21L7.28988 255.25L7.40988 255.4L7.20993 255.44C7.65993 255.56 7.76991 255.8 7.68991 256.08L8.22988 255.86C7.79988 256.56 8.9899 256.31 8.4299 257L8.29989 257.04C9.92989 257.04 7.64987 258.26 9.21987 258.29C9.01987 258.29 8.94991 258.43 8.81991 258.48C9.06991 258.67 9.25991 258.91 10.3199 258.49C10.3799 258.68 10.0499 258.77 9.64993 258.96C10.1099 258.77 10.3699 258.86 10.4599 258.98H10.2499L10.5699 259.33L11.4099 258.89C11.2499 259.21 10.3699 259.38 10.6599 259.5L11.3799 259.2C11.3599 259.55 10.3399 260.18 9.9299 260.7C10.1299 262.05 12.5199 262.52 11.7699 264.19L11.2599 264.48C10.4899 264.86 12.5499 264.26 11.8499 264.63L12.2699 264.59C12.1499 264.69 12.0299 264.84 11.8299 264.85C11.8599 264.98 11.9799 264.93 12.2599 264.9L11.8399 265.25C11.6899 265.9 12.7999 265.86 12.8499 266.43C12.1599 267.49 13.5999 268.17 14.4399 268.52C16.0199 268.81 13.5399 271.42 15.3199 271.63C15.2299 271.72 15.5099 271.66 15.5999 271.61L15.9399 272.48C15.9399 272.48 16.4199 273.51 17.4699 273.71C18.5199 273.92 20.0899 273.26 22.3699 270.08L22.5399 270.01C22.6999 269.37 22.6399 269.06 21.6599 269.22C22.6399 268.62 21.5699 268.82 21.8499 268.54L21.9399 268.5C21.0199 268.67 22.2999 267.62 21.4599 267.75C21.5499 267.72 21.8299 267.57 21.8699 267.62C21.6499 267.51 21.2899 267.38 21.8699 267.05C21.4899 266.7 21.4399 265.96 20.3499 266.17L20.5199 266.1C19.7999 266.27 20.3199 265.94 19.8999 265.93C19.9699 265.88 20.0099 265.85 20.0399 265.83C19.3199 265.98 19.6799 265.37 19.3399 265.37L19.7299 265.16L19.4599 264.86L19.4399 265.03C18.3199 265.53 19.9899 264.42 19.1599 264.52C19.1799 264.22 16.6399 265.16 17.0499 264.64C16.4799 264.77 17.9399 264.34 17.4599 264.35C18.0299 264.07 17.8599 264.26 18.2999 263.99C17.9399 263.95 18.7499 263.42 18.2499 263.39L18.6899 263.17C17.7399 263.28 19.0299 262.36 18.1599 262.55C17.6499 262.43 19.4099 261.73 18.3799 261.84L18.9399 261.44C18.9799 261.27 18.1499 261.69 18.3799 261.42C18.7699 261.25 18.5999 261.1 19.0099 261.01C19.4699 260.41 17.8599 260.74 18.6899 259.86C17.8999 260.1 18.2499 259.69 17.6499 259.87C17.9699 259.71 17.5099 259.41 18.3299 259.34C18.3999 259.34 18.3999 259.38 18.2699 259.43L18.7299 259.26C19.4699 258.65 18.0699 259.02 18.0999 258.72C17.9799 258.86 18.0599 258.93 17.7299 259L17.6899 258.75L18.0899 258.63L18.1699 258.2L17.7199 258.45C17.8899 258.18 18.6599 257.79 17.9199 257.89C17.5099 257.96 17.3599 258.31 17.1299 258.2C17.3499 257.85 17.6999 257.31 17.7299 256.98C17.2099 257.23 17.1999 257.14 17.0599 257.11L17.5199 256.91C16.7599 256.88 18.4899 256.39 17.8599 256.3L18.1899 256.2L17.1899 256.51C16.1699 256.61 18.0899 255.98 16.7199 256.19C16.8499 256.28 15.7199 256.66 15.8699 256.43L16.3299 256.29C16.1999 256.25 16.0099 256.29 16.0799 256.2C16.3399 256.15 16.7399 255.97 16.6199 255.88L17.2099 255.74L16.2999 255.84C16.7099 255.48 15.9999 255.44 16.6099 255.12C16.6099 255.12 16.7699 254.63 16.0499 254.81C16.5099 254.72 16.5899 254.45 17.1199 254.31C16.5899 254.4 16.0899 254.27 16.5699 253.96H16.6399C17.0199 253.34 15.6399 253.51 16.1499 252.89C15.6099 253.11 15.8299 252.8 15.1599 253.1C14.3299 252.95 16.3199 251.87 14.1099 252.5C13.9299 252.36 14.5399 252.11 14.6199 251.97H14.7499C14.4499 251.7 14.3999 251.6 14.3599 251.34C14.0999 251.29 13.0999 251.61 13.2599 251.3C13.6799 251.24 13.5799 251.17 13.5499 251.08C13.6299 251.11 13.7799 251.08 14.0099 250.88C13.8799 250.91 13.7999 250.91 13.7299 250.91C13.7599 250.9 13.7799 250.89 13.8299 250.87C13.6399 250.78 13.5299 250.84 13.4899 250.93C13.4299 250.95 13.3499 250.98 13.2499 251.04C13.7199 250.72 13.0799 250.64 13.7599 250.39C13.4599 250.02 12.6399 249.95 12.2599 249.67C12.5999 249.51 12.9399 249.5 13.1099 249.56L12.8999 249.35C13.4099 249.19 13.2399 249.4 13.3699 249.45C14.0999 248.88 12.3499 249.09 12.9899 248.5L12.5599 248.55L12.6199 248.51C12.4099 248.58 12.0899 248.59 11.9999 248.56C12.4299 248.37 13.0299 248.24 12.9499 248.08C13.3299 247.81 12.6099 247.75 12.3199 247.64C12.2699 247.76 12.0199 247.81 11.8499 247.81C11.8099 247.73 12.2399 247.54 12.0299 247.53L12.6299 247.34C12.0699 247.55 11.9499 247.29 11.6899 247.34C12.1199 247.16 12.1199 247.36 12.4599 247.28C12.2999 246.94 12.3799 247.11 12.2199 246.78C11.7099 246.73 11.6599 246.98 11.0999 247.05C10.9299 246.92 10.4599 246.88 10.7699 246.58L10.2499 246.8C9.7399 246.6 9.74988 246.39 10.2299 246.02C7.69988 245.44 6.15991 245.7 5.25991 246.14C4.35991 246.58 4.09988 247.19 4.09988 247.19C3.17988 248.52 4.89989 248.59 5.66989 249.62L5.6199 249.65Z" fill="#20BB65"/>
<path d="M36.6399 290.37L36.5199 290.58C36.5999 290.51 36.6599 290.43 36.6399 290.37Z" fill="#20BB65"/>
<path d="M50.1899 303.69C50.1899 303.69 50.2199 303.67 50.2399 303.66C50.2199 303.66 50.1999 303.68 50.1899 303.69Z" fill="#20BB65"/>
<path d="M32.7999 297.84C32.7999 297.84 32.7699 297.85 32.7399 297.86L32.7999 297.84Z" fill="#20BB65"/>
<path d="M30.5899 294.39C31.0699 295.38 30.4499 296.3 31.5099 296.84C31.7999 297.29 32.3599 297.54 32.7999 297.83C33.5899 297.44 33.2699 298.32 33.9799 298.05L33.7099 298.46C33.9599 298.37 34.1499 298.34 34.0299 298.59L33.9199 298.68C34.2899 298.54 34.2399 298.81 34.4199 298.74L34.3099 298.83L34.4799 298.92L34.3099 299.03C34.7699 298.96 34.9699 299.13 34.9999 299.42L35.4098 299.01C35.2898 299.82 36.2799 299.12 36.0399 299.98L35.9299 300.07C37.4199 299.41 35.8199 301.44 37.2699 300.85C37.0899 300.93 37.0798 301.08 36.9698 301.18C37.2798 301.26 37.5398 301.4 38.3498 300.6C38.4798 300.75 38.2099 300.96 37.9199 301.29C38.2699 300.94 38.5399 300.91 38.6699 301L38.4799 301.09L38.9098 301.28L39.5099 300.55C39.4799 300.9 38.7399 301.41 39.0599 301.4L39.6099 300.84C39.7299 301.17 39.0299 302.15 38.8498 302.78C39.5598 303.94 41.9299 303.45 41.8699 305.27L41.5099 305.74C40.9399 306.39 42.6199 305.03 42.1099 305.65L42.4799 305.46C42.4099 305.6 42.3599 305.78 42.1699 305.87C42.2399 305.98 42.3399 305.88 42.5899 305.75L42.3299 306.24C42.4299 306.89 43.4399 306.43 43.7099 306.94C43.4699 308.19 45.0499 308.25 45.9599 308.27C47.5299 307.94 46.1999 311.28 47.9199 310.81C47.8699 310.92 48.1099 310.77 48.1699 310.69L48.8099 311.37C48.8099 311.37 49.6299 312.14 50.6699 311.95C51.7199 311.76 52.9499 310.57 53.8999 306.78L54.0299 306.65C53.9399 305.99 53.7698 305.73 52.9098 306.24C53.5998 305.32 52.6799 305.89 52.8299 305.53L52.8999 305.46C52.1099 305.95 52.8999 304.51 52.1799 304.94C52.2499 304.88 52.4499 304.64 52.5199 304.67C52.2699 304.65 51.8899 304.67 52.3099 304.14C51.8199 303.96 51.4999 303.28 50.5599 303.88L50.6999 303.75C50.0899 304.18 50.4499 303.68 50.0599 303.82C50.1099 303.75 50.1299 303.7 50.1499 303.68C49.5299 304.09 49.6399 303.39 49.3199 303.51L49.6099 303.17L49.2499 302.99L49.2999 303.16C48.4499 304.05 49.5798 302.39 48.8498 302.79C48.7598 302.5 46.7499 304.33 46.9399 303.7C46.4599 304.04 47.6499 303.08 47.2099 303.28C47.6299 302.8 47.5499 303.04 47.8498 302.63C47.4998 302.73 48.0499 301.93 47.5799 302.09L47.9098 301.71C47.0698 302.18 47.9099 300.83 47.1799 301.33C46.6699 301.42 48.0199 300.1 47.1099 300.59L47.4698 300.01C47.4398 299.83 46.8399 300.55 46.9399 300.2C47.2299 299.89 47.0199 299.82 47.3599 299.58C47.5499 298.85 46.1899 299.77 46.6099 298.63C45.9699 299.16 46.1299 298.64 45.6499 299.04C45.8899 298.77 45.3399 298.67 46.0699 298.29C46.1299 298.26 46.1499 298.29 46.0499 298.39L46.4098 298.06C46.8498 297.21 45.7099 298.09 45.6199 297.81C45.5599 297.98 45.6699 298.02 45.3899 298.22L45.2599 298L45.5799 297.74L45.4799 297.31L45.1598 297.71C45.2098 297.4 45.7699 296.73 45.1199 297.11C44.7699 297.34 44.7599 297.72 44.5199 297.7C44.5899 297.28 44.6999 296.66 44.5899 296.34C44.2099 296.77 44.1599 296.7 44.0199 296.72L44.3599 296.36C43.6399 296.62 45.0499 295.5 44.4299 295.66L44.6899 295.43L43.8999 296.11C42.9999 296.6 44.5199 295.27 43.3399 296C43.4899 296.03 42.6099 296.82 42.6499 296.55L43.0199 296.24C42.8899 296.25 42.7199 296.37 42.7499 296.26C42.9699 296.11 43.2599 295.79 43.1199 295.75L43.6099 295.39L42.8099 295.84C43.0499 295.34 42.3799 295.59 42.8099 295.06C42.8099 295.06 42.7699 294.54 42.1699 295C42.5599 294.74 42.5299 294.46 42.9599 294.12C42.5099 294.41 41.9899 294.49 42.3099 294.01L42.3699 293.98C42.4699 293.26 41.2699 293.96 41.4899 293.19C41.0799 293.6 41.1598 293.23 40.6598 293.78C39.8298 293.98 41.2299 292.19 39.4599 293.64C39.2399 293.58 39.6899 293.11 39.7099 292.95L39.8299 292.9C39.4499 292.76 39.3598 292.7 39.2198 292.47C38.9698 292.52 38.1699 293.23 38.1999 292.87C38.5599 292.64 38.4399 292.62 38.3799 292.56C38.4699 292.56 38.5898 292.47 38.7198 292.19C38.6098 292.27 38.5398 292.3 38.4698 292.33C38.4898 292.31 38.5099 292.29 38.5399 292.26C38.3299 292.25 38.2499 292.36 38.2499 292.45C38.1999 292.49 38.1399 292.55 38.0699 292.65C38.3699 292.17 37.7499 292.35 38.2699 291.85C37.8399 291.63 37.0699 291.89 36.6099 291.79C36.8599 291.51 37.1698 291.36 37.3498 291.34L37.0699 291.23C37.4699 290.88 37.3999 291.14 37.5399 291.13C37.9799 290.32 36.4599 291.21 36.8099 290.41L36.4399 290.63L36.4799 290.57C36.3099 290.72 36.0299 290.86 35.9399 290.86C36.2599 290.51 36.7499 290.15 36.6099 290.03C36.8499 289.63 36.1698 289.87 35.8498 289.89C35.8498 290.02 35.6399 290.16 35.4899 290.24C35.4199 290.18 35.7399 289.83 35.5399 289.91L36.0099 289.49C35.5799 289.91 35.3699 289.72 35.1499 289.87C35.4699 289.53 35.5499 289.72 35.8299 289.51C35.5399 289.27 35.6899 289.39 35.3999 289.15C34.9099 289.31 34.9699 289.56 34.4899 289.85C34.2799 289.8 33.8299 289.95 33.9899 289.55L33.6099 289.96C33.0599 289.99 32.9899 289.79 33.2799 289.25C30.7399 289.76 29.4399 290.62 28.7899 291.39C28.1499 292.16 28.1499 292.82 28.1499 292.82C27.8499 294.4 29.4499 293.76 30.5599 294.39H30.5899Z" fill="#20BB65"/>
<path d="M74.4599 320.95L74.4099 321.19C74.4599 321.1 74.4899 321.01 74.4599 320.95Z" fill="#20BB65"/>
<path d="M91.5499 329.479C91.5499 329.479 91.5699 329.459 91.5899 329.439C91.5699 329.449 91.5599 329.469 91.5499 329.479Z" fill="#20BB65"/>
<path d="M73.2198 329.25C73.2198 329.25 73.1899 329.27 73.1699 329.29L73.2198 329.25Z" fill="#20BB65"/>
<path d="M70.0398 326.71C70.8098 327.48 70.5099 328.56 71.6899 328.72C72.0999 329.05 72.7098 329.11 73.2198 329.24C73.8398 328.62 73.8098 329.55 74.4098 329.07L74.2799 329.54C74.4799 329.37 74.6599 329.29 74.6299 329.56L74.5599 329.68C74.8599 329.43 74.8999 329.7 75.0599 329.58L74.9899 329.7L75.1799 329.73L75.0599 329.89C75.4699 329.68 75.7099 329.77 75.8399 330.04L76.0998 329.52C76.2298 330.33 76.9599 329.35 76.9899 330.24L76.9198 330.36C78.1298 329.27 77.2298 331.7 78.4198 330.68C78.2698 330.81 78.3099 330.96 78.2399 331.08C78.5599 331.06 78.8499 331.11 79.3699 330.1C79.5399 330.2 79.3498 330.49 79.1698 330.89C79.3998 330.44 79.6398 330.34 79.7898 330.38L79.6399 330.52L80.1099 330.56L80.4599 329.68C80.5399 330.03 79.9898 330.73 80.2898 330.63L80.6399 329.93C80.8499 330.21 80.4899 331.35 80.5099 332.01C81.5299 332.89 83.6399 331.7 84.1299 333.45L83.9299 334C83.5899 334.79 84.7698 332.99 84.4798 333.73L84.7699 333.43C84.7399 333.58 84.7498 333.77 84.5998 333.91C84.6998 333.99 84.7699 333.87 84.9599 333.67L84.8598 334.21C85.1499 334.8 85.9699 334.05 86.3799 334.46C86.5199 335.72 88.0398 335.31 88.9098 335.05C90.3098 334.27 90.0199 337.85 91.5199 336.9C91.4999 337.02 91.6898 336.81 91.7198 336.71L92.5199 337.18C92.5199 337.18 93.5198 337.68 94.4698 337.19C95.4198 336.7 96.2599 335.22 96.0699 331.31L96.1598 331.15C95.8798 330.55 95.6398 330.34 94.9698 331.08C95.3598 330 94.6499 330.82 94.6899 330.43L94.7399 330.35C94.1199 331.05 94.4599 329.44 93.8899 330.06C93.9399 329.98 94.0599 329.69 94.1299 329.7C93.8799 329.75 93.5199 329.88 93.7699 329.25C93.2499 329.22 92.7399 328.66 92.0199 329.51L92.1098 329.35C91.6499 329.94 91.8499 329.35 91.5199 329.61C91.5499 329.53 91.5499 329.48 91.5699 329.44C91.0999 330.01 90.9998 329.31 90.7298 329.52L90.8999 329.11L90.4999 329.05L90.5998 329.2C90.0498 330.3 90.6399 328.38 90.0599 328.98C89.8799 328.73 88.5199 331.07 88.5099 330.41C88.1499 330.88 88.9999 329.61 88.6399 329.93C88.8999 329.35 88.8899 329.6 89.0599 329.12C88.7599 329.31 89.0399 328.39 88.6399 328.69L88.8399 328.23C88.1799 328.92 88.5799 327.39 88.0299 328.09C87.5599 328.33 88.4599 326.66 87.7399 327.4L87.9098 326.74C87.8298 326.58 87.4699 327.44 87.4599 327.08C87.6499 326.7 87.4199 326.69 87.6799 326.36C87.6399 325.61 86.6199 326.9 86.6799 325.68C86.2299 326.38 86.2299 325.83 85.8899 326.36C86.0299 326.03 85.4799 326.1 86.0699 325.51C86.1199 325.46 86.1499 325.49 86.0899 325.62L86.3299 325.19C86.4899 324.24 85.6699 325.43 85.4899 325.19C85.4899 325.37 85.5999 325.38 85.3899 325.65L85.1999 325.48L85.4299 325.13L85.2099 324.75L85.0299 325.23C84.9799 324.92 85.3099 324.11 84.8099 324.67C84.5499 324.99 84.6598 325.36 84.4198 325.42C84.3598 325 84.2699 324.37 84.0599 324.1C83.8299 324.63 83.7599 324.57 83.6399 324.64L83.8498 324.19C83.2498 324.66 84.2399 323.16 83.6999 323.5L83.8799 323.2L83.3299 324.09C82.6199 324.84 83.6599 323.1 82.7599 324.15C82.9099 324.13 82.3199 325.16 82.2699 324.89L82.5199 324.48C82.3999 324.53 82.2799 324.7 82.2699 324.58C82.4299 324.37 82.6099 323.97 82.4599 323.98L82.8099 323.48L82.1899 324.16C82.2599 323.62 81.6999 324.05 81.9399 323.42C81.9399 323.42 81.7399 322.94 81.3099 323.56C81.5899 323.19 81.4798 322.93 81.7898 322.48C81.4598 322.89 80.9799 323.13 81.1299 322.58L81.1799 322.54C81.0399 321.82 80.1299 322.86 80.0899 322.06C79.8299 322.58 79.7899 322.2 79.4899 322.88C78.7699 323.32 79.5199 321.19 78.2999 323.12C78.0699 323.14 78.3499 322.54 78.3199 322.39L78.4198 322.31C78.0098 322.31 77.9099 322.27 77.6999 322.09C77.4699 322.22 76.9398 323.14 76.8498 322.8C77.1198 322.47 76.9998 322.49 76.9198 322.45C76.9998 322.42 77.0899 322.29 77.1299 321.99C77.0499 322.1 76.9899 322.15 76.9399 322.2C76.9599 322.17 76.9599 322.15 76.9899 322.11C76.7899 322.17 76.7499 322.29 76.7799 322.38C76.7499 322.43 76.7098 322.51 76.6698 322.62C76.7998 322.07 76.2699 322.44 76.6099 321.8C76.1299 321.72 75.4799 322.22 75.0099 322.27C75.1599 321.92 75.3999 321.68 75.5599 321.61L75.2599 321.59C75.5299 321.12 75.5498 321.4 75.6698 321.35C75.8198 320.44 74.6699 321.77 74.7399 320.9L74.4599 321.23L74.4798 321.16C74.3698 321.35 74.1399 321.58 74.0599 321.61C74.2499 321.18 74.5999 320.68 74.4299 320.61C74.5299 320.15 73.9598 320.6 73.6598 320.72C73.7098 320.84 73.5499 321.05 73.4299 321.17C73.3399 321.14 73.5299 320.71 73.3699 320.84L73.6799 320.29C73.4099 320.82 73.1499 320.72 72.9899 320.92C73.1799 320.49 73.3199 320.65 73.5199 320.35C73.1699 320.21 73.3399 320.28 72.9899 320.14C72.5799 320.45 72.7199 320.67 72.3599 321.1C72.1499 321.12 71.7698 321.41 71.7898 320.98L71.5599 321.49C71.0499 321.69 70.9099 321.53 71.0099 320.93C68.7699 322.24 67.8398 323.49 67.4798 324.43C67.1198 325.37 67.3399 325.99 67.3399 325.99C67.5699 327.57 68.8599 326.45 70.1099 326.67L70.0398 326.71Z" fill="#20BB65"/>
<path d="M117.74 338.77L117.72 339C117.75 338.9 117.76 338.81 117.74 338.77Z" fill="#20BB65"/>
<path d="M127.08 340.94C127.08 340.94 127.09 340.91 127.1 340.89C127.09 340.91 127.08 340.92 127.08 340.94Z" fill="#20BB65"/>
<path d="M117.18 346.729C117.18 346.729 117.17 346.76 117.16 346.78L117.19 346.729H117.18Z" fill="#20BB65"/>
<path d="M115.4 345.6C115.83 346.01 115.69 347.09 116.33 346.81C116.56 346.96 116.89 346.79 117.17 346.73C117.5 345.94 117.5 346.8 117.81 346.15L117.74 346.63C117.85 346.41 117.95 346.26 117.93 346.53L117.89 346.66C118.05 346.33 118.08 346.56 118.16 346.39L118.12 346.53L118.22 346.49L118.16 346.68C118.38 346.34 118.51 346.35 118.58 346.55L118.71 345.98C118.79 346.67 119.17 345.53 119.2 346.33L119.16 346.47C119.81 345.05 119.35 347.59 119.98 346.25C119.9 346.42 119.92 346.54 119.89 346.68C120.06 346.55 120.22 346.5 120.49 345.39C120.58 345.43 120.49 345.76 120.39 346.19C120.51 345.7 120.64 345.52 120.72 345.51L120.64 345.69L120.89 345.58L121.07 344.65C121.12 344.94 120.83 345.77 120.99 345.58L121.17 344.82C121.29 345.01 121.1 346.18 121.12 346.78C121.68 347.26 122.81 345.47 123.08 346.95L122.97 347.53C122.79 348.37 123.42 346.33 123.26 347.11L123.42 346.74C123.41 346.89 123.41 347.06 123.33 347.24C123.39 347.29 123.42 347.15 123.52 346.91L123.47 347.45C123.63 347.91 124.07 346.95 124.28 347.22C124.36 348.35 125.17 347.51 125.64 347.01C126.38 345.86 126.24 349.32 127.04 347.99C127.04 348.11 127.13 347.85 127.15 347.76L127.58 347.97C127.58 347.97 128.11 348.16 128.61 347.44C129.11 346.72 129.55 345.08 129.44 341.43L129.49 341.25C129.34 340.76 129.21 340.63 128.86 341.52C129.06 340.39 128.69 341.36 128.71 340.99L128.73 340.9C128.41 341.74 128.58 340.12 128.28 340.87C128.3 340.78 128.37 340.47 128.41 340.46C128.28 340.58 128.09 340.8 128.22 340.14C127.94 340.26 127.67 339.89 127.29 340.9L127.34 340.72C127.1 341.41 127.2 340.8 127.03 341.14C127.04 341.05 127.05 341.01 127.05 340.97C126.8 341.65 126.74 341.02 126.6 341.3L126.69 340.86L126.47 340.92L126.52 341.03C126.23 342.22 126.54 340.25 126.23 340.99C126.13 340.81 125.42 343.42 125.41 342.8C125.22 343.34 125.67 341.9 125.48 342.31C125.62 341.69 125.61 341.93 125.7 341.43C125.54 341.7 125.68 340.76 125.47 341.15L125.57 340.66C125.22 341.51 125.42 339.96 125.13 340.78C124.88 341.14 125.35 339.32 124.97 340.23L125.06 339.56C125.01 339.44 124.83 340.35 124.82 340.02C124.92 339.61 124.8 339.67 124.93 339.29C124.9 338.6 124.36 340.12 124.38 338.98C124.14 339.77 124.14 339.27 123.96 339.86C124.04 339.51 123.74 339.75 124.05 339.02C124.08 338.96 124.09 338.98 124.05 339.11L124.18 338.64C124.26 337.71 123.83 339.08 123.73 338.91C123.73 339.08 123.79 339.05 123.68 339.37L123.57 339.28L123.69 338.88L123.57 338.6L123.48 339.1C123.45 338.82 123.62 337.97 123.36 338.65C123.22 339.03 123.28 339.34 123.15 339.47C123.11 339.1 123.06 338.55 122.94 338.37C122.82 338.93 122.78 338.9 122.72 339L122.83 338.51C122.51 339.14 123.03 337.43 122.74 337.93L122.84 337.6L122.55 338.6C122.17 339.52 122.72 337.58 122.24 338.85C122.32 338.78 122.01 339.92 121.98 339.69L122.11 339.23C122.04 339.32 121.98 339.51 121.98 339.41C122.07 339.16 122.16 338.73 122.08 338.8L122.27 338.23L121.94 339.06C121.97 338.54 121.67 339.13 121.8 338.46C121.8 338.46 121.68 338.09 121.46 338.8C121.61 338.36 121.54 338.16 121.71 337.65C121.53 338.14 121.28 338.52 121.35 337.97L121.38 337.91C121.3 337.3 120.81 338.57 120.78 337.85C120.65 338.41 120.62 338.08 120.46 338.8C120.07 339.46 120.46 337.25 119.81 339.44C119.68 339.53 119.83 338.89 119.81 338.77L119.86 338.66C119.64 338.8 119.58 338.8 119.46 338.72C119.34 338.92 119.06 339.94 119.01 339.66C119.15 339.26 119.09 339.32 119.04 339.31C119.09 339.25 119.13 339.11 119.15 338.82C119.11 338.94 119.08 339.02 119.05 339.08C119.05 339.05 119.06 339.02 119.07 338.98C118.96 339.1 118.94 339.23 118.96 339.3C118.94 339.36 118.92 339.44 118.9 339.56C118.96 339.01 118.68 339.54 118.85 338.84C118.59 338.94 118.24 339.63 117.98 339.85C118.06 339.48 118.18 339.18 118.27 339.05L118.1 339.15C118.24 338.63 118.25 338.87 118.32 338.78C118.39 337.9 117.78 339.53 117.8 338.71L117.65 339.11V339.04C117.6 339.26 117.48 339.54 117.43 339.6C117.53 339.14 117.71 338.56 117.61 338.56C117.66 338.11 117.35 338.72 117.19 338.94C117.22 339.03 117.14 339.28 117.07 339.43C117.02 339.43 117.12 338.98 117.03 339.16L117.19 338.55C117.05 339.13 116.9 339.14 116.82 339.38C116.92 338.92 117 339.01 117.1 338.67C116.9 338.67 117 338.67 116.81 338.68C116.59 339.11 116.67 339.26 116.48 339.78C116.36 339.88 116.16 340.28 116.16 339.88L116.04 340.43C115.76 340.8 115.68 340.71 115.73 340.14C113.29 344.19 113.8 346.06 113.8 346.06C113.96 347.39 114.65 345.89 115.34 345.62L115.4 345.6Z" fill="#20BB65"/>
</svg>
