<svg width="509" height="311" viewBox="0 0 509 311" fill="none" xmlns="http://www.w3.org/2000/svg">
<path d="M8.5293 4.62L8.29926 4.70996C8.40926 4.70996 8.4993 4.68 8.5293 4.62Z" fill="#20BB65"/>
<path d="M0.94928 8.23999C0.94928 8.23999 0.909282 8.22997 0.889282 8.21997L0.94928 8.23999Z" fill="#20BB65"/>
<path d="M1.28924 4.03001C1.04924 5.13001 -0.000730336 5.48996 0.50927 6.60996C0.44927 7.15996 0.769272 7.71997 0.949272 8.23997C1.81927 8.40997 1.02927 8.94001 1.75927 9.16001L1.29925 9.32994C1.54925 9.40993 1.72925 9.50999 1.48925 9.63999H1.34924C1.72924 9.75999 1.53924 9.95999 1.72924 10.01H1.58929L1.66924 10.1999H1.46923C1.88923 10.4099 1.93925 10.6799 1.79925 10.9399L2.36926 10.8399C1.78926 11.4399 3.01928 11.46 2.32928 12.03H2.18926C3.79926 12.39 1.28929 13.14 2.83929 13.5C2.64929 13.46 2.54923 13.58 2.40923 13.6C2.61923 13.85 2.75927 14.13 3.88927 13.92C3.90927 14.12 3.56927 14.15 3.13927 14.25C3.62927 14.16 3.86925 14.2899 3.92925 14.4399L3.72924 14.41L3.97924 14.8199L4.88927 14.55C4.66927 14.83 3.76924 14.83 4.03924 15.01L4.80926 14.85C4.72926 15.2 3.60925 15.6299 3.10925 16.0699C3.05925 17.4899 5.34925 18.3899 4.35925 19.9399L3.80926 20.15C2.98926 20.41 5.11926 20.14 4.36926 20.4L4.78924 20.43C4.64924 20.51 4.51926 20.64 4.30926 20.63C4.30926 20.77 4.44924 20.73 4.72924 20.75L4.25927 21.04C4.01927 21.68 5.13925 21.81 5.10925 22.4C4.28925 23.38 5.64928 24.29 6.45928 24.75C7.99928 25.22 5.29927 27.62 7.06927 28.04C6.96927 28.12 7.25924 28.09 7.34924 28.05L7.63927 28.98C7.63927 28.98 7.73924 29.2599 7.97924 29.5699C8.21924 29.8799 8.58924 30.23 9.10925 30.37C10.1592 30.68 11.7392 30.05 14.2192 27.05L14.3993 26.99C14.5993 26.37 14.5793 26.07 13.5893 26.17C14.6193 25.64 13.5393 25.77 13.8293 25.52L13.9192 25.49C12.9892 25.59 14.3493 24.66 13.5193 24.73C13.6093 24.7 13.8993 24.58 13.9393 24.63C13.7293 24.5 13.3893 24.3499 13.9993 24.0799C13.6493 23.7099 13.6893 22.9899 12.5893 23.0899L12.7693 23.04C12.0293 23.14 12.5893 22.87 12.1793 22.81C12.2593 22.77 12.2993 22.74 12.3293 22.73C11.5893 22.8 12.0293 22.2499 11.6793 22.2099L12.0992 22.05L11.8793 21.7199L11.8393 21.89C10.6693 22.25 12.4693 21.36 11.6293 21.36C11.6893 21.07 9.04928 21.6799 9.51928 21.2199C8.92928 21.2699 10.4393 21.04 9.95928 20.99C10.5593 20.78 10.3693 20.95 10.8393 20.74C10.4893 20.65 11.3693 20.24 10.8893 20.15L11.3592 19.99C10.3992 19.97 11.8193 19.25 10.9293 19.31C10.4393 19.13 12.2793 18.69 11.2593 18.65L11.8693 18.3399C11.9393 18.1799 11.0493 18.47 11.3193 18.24C11.7293 18.13 11.5893 17.9599 11.9993 17.9399C12.5493 17.4399 10.8993 17.52 11.8693 16.79C11.0493 16.9 11.4692 16.56 10.8492 16.64C11.1892 16.54 10.7992 16.18 11.6092 16.24C11.6792 16.24 11.6692 16.2899 11.5392 16.3199L12.0193 16.23C12.8493 15.76 11.4193 15.9 11.4893 15.62C11.3492 15.73 11.4193 15.8199 11.0693 15.8299V15.5799L11.4893 15.53L11.6393 15.13L11.1592 15.29C11.3692 15.06 12.2093 14.81 11.4593 14.78C11.0493 14.78 10.8193 15.0899 10.6293 14.9499C10.9193 14.6499 11.3593 14.2 11.4493 13.88C10.8893 14.02 10.8993 13.94 10.7693 13.88L11.2593 13.77C10.5193 13.6 12.3093 13.44 11.7093 13.25L12.0593 13.2099L11.0193 13.3299C9.99928 13.2399 12.0093 12.99 10.6293 12.93C10.7393 13.04 9.55926 13.19 9.74926 13L10.2292 12.9499C10.1092 12.8899 9.90926 12.8899 9.99926 12.8199C10.2593 12.8199 10.6893 12.72 10.5893 12.61L11.1993 12.5799L10.2892 12.51C10.7592 12.24 10.0792 12.07 10.7292 11.88C10.7292 11.88 10.9893 11.44 10.2493 11.48C10.7193 11.48 10.8593 11.24 11.3993 11.2199C10.8693 11.2099 10.3993 10.98 10.9293 10.78H10.9993C11.4993 10.28 10.1093 10.17 10.7493 9.68003C10.1793 9.78003 10.4692 9.53003 9.73925 9.68003C8.95925 9.36003 11.1392 8.74998 8.84924 8.87998C8.69924 8.70998 9.34928 8.58996 9.45928 8.47996L9.58929 8.50999C9.35929 8.17999 9.32925 8.08004 9.35925 7.81004C9.12925 7.70004 8.06925 7.79 8.29925 7.52C8.72925 7.56 8.63927 7.46998 8.62926 7.37998C8.69926 7.42998 8.85926 7.43002 9.12926 7.29002C8.99926 7.29002 8.91924 7.26998 8.84924 7.24998C8.87924 7.24998 8.90927 7.23997 8.94927 7.23997C8.78927 7.10997 8.65925 7.13995 8.60925 7.21995C8.54924 7.21995 8.45924 7.24 8.34924 7.27C8.87924 7.07 8.26925 6.83999 8.98925 6.75999C8.77925 6.33999 8.01928 6.06995 7.70928 5.71995C8.07928 5.64995 8.40927 5.72004 8.56927 5.81004L8.41924 5.56004C8.95924 5.53004 8.73924 5.68999 8.84924 5.75999C9.68924 5.38999 7.93928 5.16999 8.70928 4.75999L8.27929 4.70994L8.34924 4.68003C8.12924 4.69003 7.81925 4.62994 7.73925 4.57994C8.19925 4.49994 8.80929 4.52995 8.77929 4.34995C9.21929 4.17995 8.53929 3.95001 8.27929 3.78001C8.20929 3.89001 7.94929 3.85994 7.77929 3.82994C7.75929 3.73994 8.21928 3.66995 8.01928 3.59995L8.64928 3.56993C8.05928 3.62993 7.99925 3.35994 7.73925 3.32994C8.19925 3.25994 8.14926 3.45995 8.49926 3.46995C8.42926 3.10995 8.45927 3.29003 8.38927 2.93003C7.90927 2.75003 7.79925 2.98001 7.23925 2.91001C7.10925 2.74001 6.65924 2.57997 7.03924 2.36997L6.47924 2.44993C6.03924 2.12993 6.09924 1.91992 6.66924 1.68992C4.36924 0.479921 2.81928 0.309979 1.82928 0.499979C0.849277 0.689979 0.439262 1.21995 0.439262 1.21995C-0.790738 2.28995 0.849287 2.82001 1.33929 4.03001H1.28924Z" fill="#20BB65"/>
<path d="M29.1093 45.95L29.0193 46.1801C29.0893 46.1001 29.1293 46.01 29.1093 45.95Z" fill="#20BB65"/>
<path d="M44.9792 55.97C44.9792 55.97 44.9993 55.9501 45.0193 55.9301C44.9993 55.9401 44.9892 55.95 44.9792 55.97Z" fill="#20BB65"/>
<path d="M26.6093 53.98C26.6093 53.98 26.5793 54 26.5593 54.01L26.6193 53.98H26.6093Z" fill="#20BB65"/>
<path d="M23.7493 50.86C24.3993 51.78 23.9493 52.8099 25.1193 53.1899C25.4993 53.5999 26.1093 53.76 26.6093 53.98C27.3193 53.46 27.1793 54.39 27.8393 53.99L27.6493 54.4399C27.8793 54.3099 28.0693 54.24 27.9993 54.52L27.9092 54.63C28.2492 54.43 28.2593 54.71 28.4293 54.6L28.3393 54.71L28.5293 54.77L28.3893 54.91C28.8293 54.75 29.0693 54.89 29.1693 55.17L29.4893 54.6801C29.5393 55.5101 30.3793 54.63 30.3193 55.53L30.2393 55.64C31.5793 54.7 30.4293 57.02 31.7393 56.15C31.5793 56.26 31.5993 56.42 31.5193 56.53C31.8393 56.55 32.1393 56.6401 32.7593 55.6801C32.9193 55.8001 32.6993 56.07 32.4893 56.45C32.7593 56.03 33.0193 55.95 33.1693 56.01L33.0093 56.13L33.4793 56.23L33.9092 55.39C33.9592 55.74 33.3392 56.3899 33.6592 56.3199L34.0793 55.66C34.2693 55.96 33.7993 57.07 33.7693 57.73C34.7393 58.72 36.9592 57.71 37.3492 59.51L37.1093 60.05C36.7093 60.81 38.0293 59.1099 37.6793 59.8199L37.9893 59.55C37.9493 59.7 37.9492 59.89 37.7892 60.02C37.8892 60.11 37.9593 59.9901 38.1693 59.8101L38.0392 60.35C38.2992 60.97 39.1793 60.27 39.5693 60.71C39.6493 61.99 41.2193 61.67 42.1193 61.45C43.5593 60.74 43.1493 64.32 44.7093 63.42C44.6893 63.54 44.8793 63.33 44.9193 63.24L45.7192 63.74C45.7192 63.74 46.7293 64.2701 47.6893 63.8101C48.6593 63.3501 49.5093 61.87 49.4193 57.96L49.5093 57.8C49.2493 57.19 49.0193 56.98 48.3293 57.7C48.7493 56.63 48.0193 57.43 48.0693 57.04L48.1193 56.96C47.4793 57.65 47.8792 56.04 47.2892 56.65C47.3392 56.57 47.4792 56.29 47.5392 56.3C47.2892 56.35 46.9293 56.46 47.1993 55.84C46.6793 55.79 46.2093 55.22 45.4493 56.05L45.5493 55.89C45.0693 56.46 45.2893 55.89 44.9493 56.12C44.9793 56.04 44.9893 55.99 44.9993 55.96C44.5093 56.51 44.4392 55.8 44.1592 56.01L44.3492 55.61L43.9493 55.53L44.0392 55.6801C43.4392 56.7501 44.1193 54.8699 43.5093 55.4399C43.3493 55.1799 41.8593 57.45 41.8893 56.79C41.5093 57.24 42.4293 56.0199 42.0493 56.3199C42.3393 55.7499 42.3193 56.01 42.5093 55.53C42.1993 55.71 42.5293 54.81 42.1193 55.08L42.3393 54.64C41.6293 55.3 42.1392 53.79 41.5392 54.45C41.0592 54.66 42.0593 53.05 41.2993 53.75L41.5093 53.1C41.4393 52.94 41.0192 53.77 41.0392 53.41C41.2492 53.04 41.0393 53.02 41.3093 52.71C41.3293 51.97 40.2193 53.18 40.3793 51.97C39.8793 52.63 39.9193 52.09 39.5493 52.59C39.7193 52.27 39.1692 52.31 39.7892 51.76C39.8392 51.72 39.8692 51.75 39.7892 51.87L40.0593 51.46C40.2993 50.53 39.3893 51.66 39.2393 51.4C39.2193 51.58 39.3292 51.6 39.0992 51.85L38.9293 51.67L39.1793 51.34L38.9993 50.95L38.7793 51.41C38.7593 51.09 39.1593 50.32 38.6193 50.84C38.3293 51.14 38.4092 51.51 38.1592 51.55C38.1392 51.13 38.1093 50.51 37.9393 50.21C37.6593 50.71 37.5992 50.65 37.4692 50.7L37.7292 50.27C37.0893 50.68 38.2192 49.28 37.6592 49.58L37.8693 49.3L37.2393 50.13C36.4693 50.81 37.6693 49.18 36.6693 50.14C36.8193 50.14 36.1293 51.09 36.1093 50.83L36.3993 50.45C36.2693 50.49 36.1393 50.64 36.1393 50.53C36.3193 50.34 36.5393 49.96 36.3893 49.96L36.7892 49.5L36.1093 50.11C36.2393 49.58 35.6393 49.95 35.9493 49.35C35.9493 49.35 35.8093 48.86 35.3193 49.42C35.6393 49.08 35.5593 48.82 35.9193 48.4C35.5493 48.78 35.0493 48.9599 35.2693 48.4399L35.3193 48.4C35.2793 47.68 34.2593 48.6001 34.3293 47.8101C34.0093 48.2901 34.0193 47.91 33.6293 48.55C32.8593 48.9 33.8993 46.9 32.4293 48.65C32.1993 48.64 32.5593 48.0801 32.5593 47.9301L32.6693 47.86C32.2693 47.8 32.1793 47.7601 31.9993 47.5601C31.7593 47.6601 31.0993 48.49 31.0693 48.15C31.3893 47.86 31.2593 47.8601 31.1893 47.8101C31.2793 47.7901 31.3793 47.68 31.4593 47.38C31.3693 47.47 31.2993 47.5201 31.2393 47.5601C31.2593 47.5301 31.2693 47.51 31.2993 47.48C31.0893 47.51 31.0293 47.63 31.0493 47.72C31.0093 47.77 30.9592 47.8399 30.9092 47.9399C31.1192 47.4099 30.5493 47.7 30.9793 47.12C30.5293 46.98 29.8093 47.37 29.3393 47.36C29.5393 47.04 29.8093 46.84 29.9893 46.8L29.6993 46.74C30.0393 46.32 30.0093 46.6001 30.1393 46.5601C30.4393 45.6901 29.0993 46.82 29.3193 45.97L28.9893 46.25L29.0193 46.1801C28.8793 46.3501 28.6193 46.5401 28.5293 46.5601C28.7893 46.1701 29.2193 45.73 29.0593 45.64C29.2393 45.2 28.5993 45.56 28.2993 45.62C28.3293 45.75 28.1293 45.92 27.9893 46.02C27.9093 45.97 28.1693 45.5799 27.9893 45.6899L28.3893 45.21C28.0293 45.68 27.7892 45.54 27.5992 45.71C27.8692 45.32 27.9692 45.5 28.2192 45.25C27.9092 45.06 28.0593 45.15 27.7493 44.96C27.2893 45.19 27.3793 45.43 26.9493 45.79C26.7393 45.77 26.3193 45.9799 26.4193 45.5699L26.0992 46.03C25.5592 46.14 25.4593 45.95 25.6693 45.38C23.2193 46.22 22.0293 47.24 21.4893 48.09C20.9493 48.94 21.0593 49.6 21.0593 49.6C21.0093 51.24 22.5193 50.4 23.7393 50.88L23.7493 50.86Z" fill="#20BB65"/>
<path d="M73.0893 65.75L73.1093 65.99C73.1293 65.89 73.1393 65.79 73.0893 65.75Z" fill="#20BB65"/>
<path d="M92.0093 69.12C92.0093 69.12 92.0193 69.0899 92.0293 69.0699C92.0093 69.0899 92.0093 69.1 92.0093 69.12Z" fill="#20BB65"/>
<path d="M74.3093 74.0601C74.3093 74.0601 74.2893 74.09 74.2793 74.11L74.3193 74.0601H74.3093Z" fill="#20BB65"/>
<path d="M70.5193 72.55C71.4793 73.07 71.5092 74.19 72.6792 74C73.1692 74.2 73.7692 74.0801 74.2992 74.0601C74.7092 73.2901 74.9593 74.19 75.3893 73.55V74.04C75.5493 73.82 75.6892 73.69 75.7392 73.96L75.7093 74.09C75.9293 73.76 76.0492 74.01 76.1592 73.85L76.1293 73.99L76.3193 73.97L76.2493 74.16C76.5793 73.84 76.8392 73.86 77.0392 74.08L77.1393 73.51C77.4993 74.24 77.9093 73.0999 78.1993 73.9399L78.1692 74.08C79.0192 72.69 78.8493 75.27 79.6993 73.96C79.5893 74.12 79.6793 74.26 79.6393 74.4C79.9393 74.29 80.2293 74.26 80.4493 73.14C80.6393 73.19 80.5392 73.52 80.4892 73.96C80.5792 73.47 80.7793 73.29 80.9393 73.29L80.8393 73.47L81.2992 73.38L81.3793 72.4399C81.5593 72.7499 81.2292 73.58 81.4892 73.4L81.6293 72.63C81.9193 72.84 81.8892 74.04 82.0992 74.66C83.3192 75.22 85.0192 73.48 85.9792 75.03L85.9393 75.62C85.8293 76.47 86.4693 74.42 86.3893 75.21L86.5893 74.84C86.6093 75 86.6593 75.17 86.5593 75.35C86.6793 75.4 86.7093 75.26 86.8393 75.02L86.8993 75.5699C87.3393 76.0599 87.9292 75.11 88.4292 75.39C88.9092 76.56 90.2593 75.75 91.0293 75.26C92.1693 74.13 92.8492 77.66 94.0392 76.33C94.0592 76.45 94.1793 76.19 94.1893 76.1L95.0893 76.33C95.0893 76.33 96.1892 76.5399 96.9692 75.8199C97.7492 75.0999 98.1793 73.44 96.9493 69.72L96.9892 69.54C96.5592 69.03 96.2593 68.9 95.8193 69.79C95.9093 68.64 95.4292 69.62 95.3692 69.24L95.3893 69.15C94.9793 69.99 94.8692 68.34 94.4892 69.1C94.5092 69.01 94.5593 68.6999 94.6293 68.6899C94.3993 68.8099 94.0892 69.02 94.1592 68.36C93.6392 68.47 92.9893 68.07 92.5293 69.09L92.5793 68.91C92.2993 69.6 92.3293 68.9799 92.0793 69.3199C92.0793 69.2299 92.0793 69.18 92.0793 69.15C91.7893 69.83 91.4892 69.18 91.2892 69.46L91.3393 69.02L90.9292 69.0699L91.0593 69.1801C90.8393 70.3901 90.8692 68.38 90.4692 69.12C90.2292 68.93 89.5592 71.5601 89.3692 70.9301C89.1493 71.4801 89.6192 70.0301 89.3592 70.4301C89.4492 69.8001 89.5093 70.05 89.5293 69.54C89.2893 69.81 89.3093 68.85 88.9993 69.24L89.0593 68.75C88.6093 69.6 88.5692 68.01 88.2292 68.84C87.8492 69.2 88.2393 67.35 87.7593 68.26L87.7292 67.58C87.5992 67.45 87.4993 68.38 87.3893 68.03C87.4693 67.61 87.2393 67.67 87.3893 67.28C87.1393 66.57 86.5192 68.09 86.2292 66.91C85.9892 67.71 85.8392 67.18 85.6592 67.78C85.7092 67.42 85.1893 67.64 85.5893 66.92C85.6193 66.86 85.6593 66.88 85.6393 67.02L85.7493 66.54C85.6393 65.59 85.1793 66.96 84.9393 66.77C84.9893 66.94 85.0992 66.92 84.9792 67.24L84.7493 67.13L84.8692 66.73L84.5492 66.4301L84.5093 66.9399C84.3693 66.6499 84.4593 65.79 84.1393 66.46C83.9793 66.84 84.1892 67.17 83.9692 67.29C83.7892 66.91 83.5193 66.33 83.2493 66.12C83.1793 66.69 83.0992 66.65 82.9892 66.75L83.0693 66.26C82.6193 66.88 83.1492 65.16 82.7292 65.64L82.8193 65.3L82.5492 66.3101C82.0792 67.2301 82.5793 65.27 82.0093 66.53C82.1493 66.47 81.8693 67.62 81.7493 67.38L81.8793 66.91C81.7693 66.99 81.7092 67.19 81.6692 67.08C81.7692 66.83 81.8292 66.4 81.6792 66.45L81.8793 65.87L81.4792 66.6899C81.3892 66.1499 80.9693 66.73 81.0193 66.05C81.0193 66.05 80.6793 65.65 80.4493 66.36C80.6193 65.92 80.4292 65.7099 80.5992 65.1899C80.3992 65.6799 80.0093 66.04 79.9993 65.47L80.0392 65.41C79.6992 64.76 79.1192 66.02 78.8492 65.26C78.7492 65.83 78.5993 65.48 78.5093 66.21C77.9393 66.84 78.0492 64.58 77.4292 66.79C77.2092 66.87 77.3092 66.22 77.2392 66.08L77.3093 65.97C76.9093 66.08 76.8092 66.08 76.5492 65.97C76.3692 66.16 76.1293 67.19 75.9393 66.89C76.1093 66.49 75.9893 66.55 75.8993 66.53C75.9693 66.48 76.0193 66.33 75.9593 66.03C75.9193 66.15 75.8693 66.23 75.8393 66.29C75.8393 66.26 75.8392 66.2299 75.8592 66.1899C75.6792 66.2999 75.6792 66.44 75.7292 66.51C75.7092 66.57 75.6993 66.65 75.6993 66.77C75.6593 66.2 75.2593 66.71 75.3993 66C74.9193 66.06 74.4393 66.73 73.9993 66.91C74.0393 66.54 74.1993 66.23 74.3393 66.12L74.0492 66.1899C74.1692 65.6699 74.2692 65.92 74.3692 65.84C74.2492 64.92 73.5293 66.53 73.3393 65.67L73.1692 66.0699V66C73.1092 66.22 72.9593 66.5 72.8893 66.55C72.9393 66.08 73.1393 65.5 72.9493 65.49C72.9093 65.02 72.4893 65.6101 72.2493 65.8101C72.3293 65.9101 72.2492 66.16 72.1592 66.3C72.0692 66.3 72.1193 65.83 71.9993 66.01L72.1393 65.39C72.0393 65.98 71.7492 65.96 71.6592 66.2C71.7192 65.73 71.8993 65.84 71.9993 65.51C71.6193 65.48 71.8092 65.49 71.4292 65.46C71.1192 65.87 71.3192 66.0501 71.0992 66.5601C70.8992 66.6401 70.6193 67.02 70.5193 66.61L70.4493 67.17C70.0193 67.51 69.8393 67.4 69.7593 66.79C67.9893 68.69 67.4593 70.16 67.3893 71.16C67.3193 72.16 67.7093 72.6899 67.7093 72.6899C68.3893 74.1399 69.2993 72.69 70.5693 72.54L70.5193 72.55Z" fill="#20BB65"/>
<path d="M122.099 71.62L122.169 71.85C122.169 71.74 122.159 71.65 122.099 71.62Z" fill="#20BB65"/>
<path d="M141.429 71.5601C141.429 71.5601 141.439 71.53 141.449 71.51C141.439 71.53 141.429 71.5501 141.429 71.5601Z" fill="#20BB65"/>
<path d="M124.869 79.54C124.869 79.54 124.859 79.58 124.849 79.6L124.879 79.54H124.869Z" fill="#20BB65"/>
<path d="M120.909 78.79C121.939 79.1 122.189 80.2 123.279 79.79C123.789 79.89 124.349 79.66 124.859 79.55C125.119 78.71 125.519 79.55 125.819 78.86L125.919 79.34C126.019 79.1 126.139 78.94 126.229 79.2V79.34C126.369 78.98 126.529 79.2 126.609 79.02V79.16L126.779 79.1L126.749 79.3C127.009 78.92 127.269 78.91 127.499 79.09V78.51C127.969 79.17 128.169 77.98 128.609 78.74V78.88C129.189 77.34 129.479 79.91 130.079 78.45C130.009 78.63 130.109 78.75 130.099 78.89C130.369 78.72 130.659 78.63 130.669 77.49C130.859 77.5 130.829 77.85 130.849 78.28C130.849 77.78 131.019 77.57 131.179 77.54L131.109 77.73L131.549 77.55L131.469 76.61C131.699 76.88 131.519 77.76 131.739 77.53V76.75C132.059 76.9 132.239 78.08 132.549 78.65C133.839 78.97 135.209 76.9599 136.409 78.3199L136.469 78.91C136.499 79.77 136.789 77.6401 136.839 78.4301L136.979 78.04C137.019 78.19 137.099 78.36 137.039 78.55C137.169 78.58 137.169 78.4401 137.259 78.1801L137.399 78.71C137.909 79.12 138.329 78.08 138.869 78.29C139.529 79.37 140.719 78.36 141.399 77.76C142.339 76.47 143.569 79.87 144.529 78.39C144.569 78.51 144.639 78.24 144.639 78.14L145.559 78.25C145.559 78.25 146.669 78.32 147.329 77.5C147.989 76.69 148.169 74.99 146.389 71.46L146.409 71.27C145.899 70.82 145.589 70.73 145.279 71.67C145.189 70.52 144.869 71.5601 144.749 71.1801V71.09C144.479 71.98 144.119 70.36 143.849 71.16C143.849 71.07 143.849 70.75 143.919 70.73C143.709 70.88 143.429 71.14 143.399 70.47C142.899 70.65 142.199 70.35 141.899 71.42L141.919 71.23C141.749 71.95 141.679 71.34 141.489 71.71C141.479 71.62 141.459 71.58 141.459 71.54C141.269 72.26 140.879 71.66 140.719 71.97L140.699 71.52L140.299 71.63L140.449 71.72C140.419 72.95 140.129 70.96 139.859 71.75C139.589 71.6 139.349 74.3 139.059 73.71C138.929 74.28 139.159 72.78 138.969 73.22C138.949 72.58 139.059 72.8201 138.999 72.3101C138.809 72.6201 138.669 71.66 138.429 72.1L138.409 71.6C138.099 72.51 137.809 70.9499 137.599 71.8199C137.279 72.2299 137.369 70.3499 137.039 71.3199L136.899 70.65C136.749 70.54 136.799 71.48 136.639 71.15C136.639 70.73 136.429 70.81 136.529 70.41C136.159 69.75 135.799 71.36 135.309 70.25C135.209 71.08 134.969 70.59 134.889 71.21C134.879 70.85 134.409 71.16 134.679 70.37C134.699 70.31 134.739 70.32 134.739 70.46L134.769 69.97C134.499 69.05 134.279 70.48 133.999 70.35C134.079 70.51 134.189 70.47 134.119 70.8L133.869 70.74L133.919 70.33L133.549 70.09L133.599 70.6C133.419 70.34 133.349 69.47 133.149 70.2C133.059 70.6 133.319 70.88 133.129 71.05C132.889 70.71 132.519 70.19 132.209 70.04C132.239 70.61 132.149 70.59 132.069 70.71V70.21C131.729 70.91 131.949 69.12 131.619 69.67L131.649 69.3199L131.559 70.36C131.259 71.35 131.409 69.3301 131.069 70.6801C131.199 70.5901 131.119 71.7801 130.959 71.5601L130.999 71.08C130.909 71.18 130.879 71.38 130.819 71.29C130.879 71.03 130.849 70.59 130.719 70.67L130.809 70.0699L130.549 70.96C130.359 70.45 130.059 71.1 129.979 70.42C129.979 70.42 129.569 70.09 129.469 70.84C129.559 70.38 129.329 70.2 129.409 69.66C129.299 70.18 128.979 70.6101 128.859 70.0601L128.879 70C128.429 69.44 128.069 70.78 127.669 70.08C127.669 70.66 127.459 70.34 127.499 71.08C127.049 71.8 126.739 69.55 126.539 71.83C126.339 71.95 126.319 71.29 126.219 71.17L126.269 71.05C125.899 71.23 125.789 71.2401 125.519 71.1801C125.379 71.4001 125.329 72.4599 125.089 72.1899C125.179 71.7699 125.079 71.85 124.989 71.84C125.049 71.78 125.069 71.62 124.959 71.33C124.939 71.46 124.909 71.54 124.889 71.61C124.889 71.58 124.889 71.55 124.889 71.51C124.729 71.65 124.759 71.79 124.829 71.85C124.829 71.91 124.829 72 124.849 72.11C124.709 71.56 124.409 72.13 124.409 71.41C123.949 71.56 123.599 72.2999 123.199 72.5699C123.169 72.1999 123.269 71.87 123.379 71.73L123.099 71.86C123.119 71.32 123.269 71.56 123.349 71.45C123.049 70.57 122.659 72.29 122.299 71.49L122.209 71.91L122.189 71.84C122.189 72.06 122.089 72.3699 122.029 72.4399C121.989 71.9699 122.069 71.36 121.879 71.39C121.749 70.94 121.449 71.6 121.249 71.85C121.349 71.93 121.309 72.19 121.249 72.35C121.159 72.36 121.119 71.9 121.039 72.09V71.46C121.069 72.05 120.789 72.09 120.739 72.35C120.699 71.88 120.899 71.95 120.939 71.6C120.559 71.65 120.749 71.62 120.369 71.67C120.149 72.14 120.379 72.2699 120.269 72.8199C120.089 72.9399 119.899 73.37 119.709 72.99L119.749 73.55C119.399 73.97 119.199 73.9 118.999 73.33C116.299 77.81 118.199 79.53 118.199 79.53C119.149 80.8 119.729 79.18 120.929 78.79H120.909Z" fill="#20BB65"/>
<path d="M171.669 69.95L171.769 70.17C171.759 70.06 171.729 69.97 171.669 69.95Z" fill="#20BB65"/>
<path d="M190.959 67.79C190.959 67.79 190.959 67.76 190.969 67.74C190.959 67.76 190.959 67.78 190.959 67.79Z" fill="#20BB65"/>
<path d="M175.389 77.48C175.389 77.48 175.389 77.52 175.379 77.54L175.399 77.48H175.389Z" fill="#20BB65"/>
<path d="M171.389 77.22C172.449 77.41 172.829 78.46 173.859 77.92C174.379 77.96 174.899 77.66 175.389 77.48C175.549 76.62 176.049 77.4 176.259 76.67L176.419 77.14C176.489 76.89 176.589 76.71 176.709 76.96V77.1C176.829 76.72 177.009 76.92 177.059 76.74V76.88L177.239 76.8V77C177.439 76.59 177.699 76.5399 177.949 76.6899L177.869 76.11C178.419 76.71 178.479 75.49 178.999 76.21V76.35C179.409 74.77 179.999 77.29 180.419 75.79C180.369 75.98 180.479 76.08 180.489 76.22C180.739 76.03 181.009 75.91 180.889 74.78C181.079 74.78 181.079 75.12 181.159 75.55C181.109 75.05 181.249 74.83 181.399 74.78L181.349 74.98L181.759 74.76L181.569 73.83C181.829 74.08 181.749 74.97 181.949 74.72L181.859 73.9399C182.189 74.0599 182.499 75.22 182.869 75.76C184.179 75.95 185.319 73.82 186.659 75.05L186.779 75.63C186.899 76.48 186.959 74.33 187.099 75.11L187.189 74.7C187.249 74.85 187.349 75 187.299 75.2C187.429 75.22 187.419 75.0801 187.479 74.8101L187.679 75.3199C188.229 75.6699 188.539 74.6 189.089 74.75C189.849 75.76 190.929 74.62 191.539 73.96C192.349 72.57 193.889 75.82 194.689 74.24C194.739 74.36 194.789 74.07 194.769 73.98H195.689C195.689 73.98 200.099 73.75 195.879 67.13V66.9399C195.329 66.5499 195.009 66.49 194.789 67.47C194.589 66.33 194.369 67.4 194.209 67.05V66.96C194.019 67.88 193.499 66.31 193.309 67.13C193.309 67.04 193.279 66.72 193.339 66.7C193.149 66.87 192.889 67.16 192.789 66.5C192.309 66.74 191.569 66.52 191.379 67.62V67.4301C191.279 68.1701 191.159 67.57 190.989 67.95C190.969 67.86 190.949 67.82 190.949 67.78C190.839 68.51 190.379 67.96 190.259 68.28L190.199 67.84L189.809 67.99L189.969 68.0699C190.069 69.2899 189.579 67.34 189.379 68.17C189.089 68.05 189.129 70.76 188.779 70.2C188.709 70.79 188.779 69.26 188.639 69.72C188.559 69.09 188.689 69.3101 188.569 68.8101C188.409 69.1301 188.169 68.2 187.979 68.66L187.909 68.17C187.699 69.11 187.239 67.59 187.129 68.48C186.849 68.93 186.739 67.04 186.509 68.04L186.299 67.39C186.139 67.3 186.299 68.22 186.089 67.92C186.049 67.5 185.849 67.61 185.899 67.2C185.459 66.58 185.269 68.22 184.659 67.16C184.649 67.99 184.349 67.53 184.339 68.16C184.289 67.8 183.849 68.16 184.029 67.35C184.049 67.28 184.089 67.2901 184.099 67.4301L184.079 66.9399C183.699 66.0499 183.639 67.5 183.349 67.39C183.449 67.54 183.549 67.49 183.519 67.83L183.259 67.79V67.37L182.869 67.17L182.979 67.67C182.769 67.43 182.609 66.5799 182.479 67.3199C182.429 67.7299 182.729 67.98 182.549 68.16C182.269 67.84 181.839 67.36 181.509 67.24C181.599 67.81 181.509 67.8 181.439 67.92L181.379 67.4301C181.119 68.1501 181.139 66.3499 180.869 66.9399V66.59L180.889 67.63C180.699 68.64 180.619 66.62 180.429 68C180.549 67.9 180.609 69.08 180.429 68.89V68.41C180.339 68.52 180.329 68.72 180.259 68.63C180.289 68.37 180.209 67.93 180.089 68.03L180.109 67.42L179.959 68.33C179.709 67.84 179.479 68.51 179.329 67.85C179.329 67.85 178.889 67.5601 178.869 68.3101C178.899 67.8401 178.659 67.69 178.669 67.15C178.619 67.68 178.349 68.14 178.169 67.6L178.189 67.54C177.669 67.02 177.479 68.39 176.989 67.75C177.069 68.32 176.819 68.03 176.939 68.76C176.579 69.53 175.999 67.34 176.069 69.63C175.889 69.77 175.779 69.12 175.669 69.01L175.699 68.89C175.349 69.11 175.249 69.14 174.969 69.12C174.859 69.36 174.939 70.4101 174.669 70.1801C174.709 69.7501 174.619 69.84 174.519 69.85C174.569 69.78 174.579 69.62 174.429 69.35C174.429 69.48 174.409 69.56 174.389 69.63C174.389 69.6 174.379 69.57 174.379 69.53C174.239 69.69 174.279 69.82 174.359 69.87C174.359 69.93 174.379 70.02 174.409 70.13C174.199 69.6 173.969 70.21 173.879 69.49C173.439 69.7 173.179 70.48 172.819 70.79C172.739 70.42 172.799 70.0901 172.899 69.9301L172.639 70.09C172.589 69.56 172.769 69.77 172.839 69.65C172.439 68.82 172.249 70.5699 171.799 69.8199L171.759 70.25L171.729 70.1801C171.749 70.4001 171.689 70.71 171.639 70.79C171.539 70.33 171.549 69.72 171.359 69.76C171.169 69.33 170.959 70.02 170.789 70.29C170.899 70.36 170.889 70.62 170.859 70.79C170.769 70.81 170.669 70.3501 170.619 70.5601L170.549 69.9301C170.639 70.5201 170.359 70.59 170.349 70.85C170.259 70.39 170.459 70.44 170.449 70.08C170.079 70.17 170.259 70.13 169.889 70.22C169.729 70.71 169.979 70.81 169.929 71.37C169.759 71.51 169.629 71.96 169.389 71.6L169.499 72.15C169.199 72.61 168.999 72.56 168.719 72.02C166.609 76.77 168.719 78.27 168.719 78.27C169.819 79.42 170.189 77.75 171.329 77.21L171.389 77.22Z" fill="#20BB65"/>
<path d="M221.129 63.73L221.239 63.95C221.219 63.84 221.189 63.76 221.129 63.73Z" fill="#20BB65"/>
<path d="M240.399 60.75C240.399 60.75 240.399 60.72 240.409 60.7C240.399 60.72 240.399 60.74 240.399 60.75Z" fill="#20BB65"/>
<path d="M225.249 71.04C225.249 71.06 225.249 71.08 225.239 71.1L225.259 71.04H225.249Z" fill="#20BB65"/>
<path d="M221.269 70.99C222.329 71.12 222.759 72.15 223.749 71.55C224.269 71.56 224.769 71.23 225.239 71.03C225.349 70.16 225.889 70.9201 226.059 70.1801L226.239 70.64C226.299 70.39 226.389 70.21 226.519 70.45V70.59C226.619 70.21 226.819 70.4 226.859 70.21V70.35L227.039 70.26V70.46C227.229 70.04 227.479 69.98 227.739 70.12L227.639 69.55C228.219 70.12 228.219 68.9 228.769 69.6V69.74C229.109 68.14 229.809 70.64 230.159 69.12C230.119 69.31 230.229 69.41 230.249 69.55C230.489 69.35 230.749 69.22 230.589 68.09C230.779 68.08 230.799 68.42 230.889 68.85C230.809 68.36 230.949 68.1299 231.089 68.0699L231.049 68.27L231.449 68.04L231.229 67.12C231.499 67.35 231.459 68.25 231.639 67.99L231.519 67.22C231.859 67.33 232.209 68.47 232.599 68.99C233.909 69.13 234.959 66.96 236.339 68.14L236.479 68.71C236.629 69.55 236.609 67.4101 236.779 68.1801L236.859 67.77C236.919 67.92 237.029 68.07 236.989 68.27C237.119 68.28 237.099 68.14 237.159 67.87L237.369 68.38C237.929 68.72 238.199 67.63 238.749 67.76C239.539 68.74 240.569 67.58 241.169 66.9C241.939 65.49 243.559 68.7 244.319 67.1C244.369 67.22 244.409 66.93 244.399 66.84H245.309C245.309 66.84 249.699 66.5 245.349 59.97V59.78C244.789 59.4 244.459 59.35 244.259 60.33C244.039 59.2 243.839 60.27 243.669 59.92V59.83C243.499 60.75 242.939 59.19 242.769 60.02C242.769 59.93 242.729 59.61 242.789 59.59C242.599 59.77 242.349 60.06 242.239 59.4C241.759 59.65 241.019 59.45 240.849 60.55V60.36C240.769 61.1 240.619 60.5 240.469 60.9C240.449 60.81 240.419 60.77 240.419 60.74C240.329 61.48 239.849 60.94 239.739 61.26L239.659 60.8199L239.279 60.98L239.439 61.05C239.569 62.27 239.029 60.34 238.849 61.16C238.559 61.05 238.679 63.76 238.309 63.21C238.259 63.8 238.289 62.27 238.159 62.74C238.059 62.11 238.189 62.33 238.069 61.83C237.919 62.16 237.649 61.23 237.469 61.7L237.389 61.21C237.209 62.16 236.699 60.65 236.619 61.54C236.359 61.99 236.179 60.11 235.989 61.13L235.759 60.48C235.599 60.39 235.779 61.31 235.569 61.01C235.519 60.59 235.319 60.71 235.349 60.29C234.889 59.69 234.749 61.33 234.109 60.29C234.129 61.12 233.809 60.67 233.829 61.3C233.759 60.95 233.339 61.32 233.489 60.5C233.499 60.43 233.549 60.44 233.559 60.58L233.519 60.09C233.109 59.22 233.099 60.6699 232.809 60.5699C232.909 60.7199 233.009 60.66 232.989 61L232.729 60.97V60.55L232.309 60.37L232.439 60.87C232.219 60.64 232.019 59.79 231.929 60.54C231.899 60.95 232.209 61.19 232.039 61.38C231.739 61.07 231.299 60.61 230.959 60.51C231.069 61.07 230.989 61.0599 230.919 61.1899L230.839 60.7C230.609 61.43 230.559 59.63 230.309 60.23L230.289 59.88L230.359 60.92C230.209 61.94 230.049 59.92 229.919 61.3C230.039 61.2 230.139 62.3799 229.949 62.1899L229.919 61.71C229.849 61.82 229.849 62.0299 229.769 61.9399C229.779 61.6799 229.689 61.24 229.579 61.35V60.74L229.459 61.65C229.189 61.17 228.989 61.85 228.809 61.2C228.809 61.2 228.349 60.9301 228.369 61.6801C228.379 61.2101 228.129 61.07 228.119 60.53C228.089 61.06 227.839 61.53 227.629 61V60.9301C227.099 60.4401 226.959 61.82 226.449 61.2C226.549 61.77 226.289 61.49 226.449 62.21C226.129 63 225.439 60.84 225.619 63.12C225.439 63.27 225.309 62.63 225.189 62.52L225.219 62.39C224.879 62.63 224.779 62.67 224.489 62.66C224.389 62.9 224.519 63.95 224.239 63.74C224.259 63.31 224.169 63.4 224.079 63.42C224.129 63.35 224.119 63.1901 223.959 62.9301C223.959 63.0601 223.949 63.15 223.929 63.21C223.929 63.18 223.919 63.15 223.909 63.11C223.779 63.28 223.829 63.41 223.909 63.45C223.909 63.51 223.929 63.59 223.969 63.71C223.729 63.2 223.529 63.81 223.409 63.1C222.979 63.33 222.759 64.12 222.419 64.46C222.319 64.1 222.359 63.76 222.449 63.6L222.199 63.78C222.119 63.25 222.309 63.45 222.379 63.33C221.929 62.52 221.839 64.2801 221.349 63.5601L221.329 63.99L221.299 63.92C221.329 64.14 221.299 64.46 221.249 64.54C221.129 64.09 221.089 63.47 220.909 63.53C220.699 63.11 220.519 63.82 220.369 64.09C220.489 64.15 220.489 64.41 220.469 64.58C220.379 64.61 220.259 64.16 220.209 64.37L220.109 63.75C220.229 64.33 219.959 64.4201 219.959 64.6801C219.839 64.2301 220.049 64.26 220.019 63.91C219.649 64.02 219.839 63.97 219.469 64.08C219.339 64.58 219.589 64.66 219.579 65.22C219.419 65.37 219.309 65.83 219.049 65.48L219.199 66.02C218.929 66.5 218.719 66.4699 218.419 65.9399C216.619 70.8199 218.819 72.17 218.819 72.17C219.979 73.25 220.239 71.56 221.339 70.96L221.269 70.99Z" fill="#20BB65"/>
<path d="M270.619 56.5L270.729 56.72C270.709 56.61 270.679 56.53 270.619 56.5Z" fill="#20BB65"/>
<path d="M290.039 54.03C290.039 54.03 290.039 54 290.049 53.98C290.039 54 290.039 54.02 290.039 54.03Z" fill="#20BB65"/>
<path d="M274.619 63.91C274.619 63.91 274.619 63.95 274.609 63.97L274.629 63.91H274.619Z" fill="#20BB65"/>
<path d="M270.659 63.76C271.719 63.91 272.129 64.96 273.129 64.39C273.639 64.42 274.149 64.1 274.619 63.91C274.739 63.04 275.259 63.82 275.449 63.08L275.619 63.54C275.679 63.29 275.779 63.11 275.899 63.36V63.5C276.009 63.12 276.199 63.32 276.239 63.13V63.27L276.419 63.1899V63.39C276.609 62.98 276.869 62.9199 277.109 63.0699L277.019 62.5C277.579 63.08 277.609 61.87 278.139 62.58V62.72C278.509 61.13 279.149 63.65 279.539 62.14C279.489 62.33 279.609 62.4299 279.619 62.5699C279.859 62.3699 280.129 62.25 279.989 61.12C280.179 61.12 280.189 61.46 280.269 61.89C280.209 61.39 280.349 61.17 280.489 61.12L280.449 61.3199L280.859 61.1L280.659 60.17C280.919 60.41 280.859 61.3 281.049 61.05L280.949 60.27C281.279 60.38 281.609 61.5399 281.979 62.0699C283.269 62.2499 284.389 60.0999 285.719 61.3199L285.839 61.9C285.959 62.75 286.019 60.6 286.149 61.38L286.239 60.97C286.299 61.12 286.399 61.27 286.349 61.47C286.479 61.49 286.469 61.35 286.529 61.08L286.729 61.59C287.269 61.94 287.579 60.87 288.119 61.01C288.869 62.01 289.939 60.87 290.549 60.21C291.369 58.82 292.849 62.08 293.669 60.5C293.709 60.62 293.769 60.33 293.759 60.24H294.669C294.669 60.24 299.059 60.04 295.009 53.38V53.1899C294.469 52.7999 294.149 52.74 293.909 53.72C293.729 52.58 293.489 53.65 293.339 53.3V53.21C293.129 54.13 292.639 52.55 292.439 53.38C292.439 53.29 292.409 52.97 292.479 52.95C292.279 53.12 292.019 53.41 291.929 52.75C291.439 52.99 290.699 52.77 290.499 53.87V53.6801C290.399 54.4201 290.269 53.82 290.109 54.21C290.089 54.12 290.069 54.08 290.069 54.04C289.949 54.77 289.499 54.22 289.369 54.55L289.309 54.11L288.919 54.26L289.079 54.34C289.159 55.56 288.689 53.6099 288.489 54.4399C288.199 54.3199 288.219 57.04 287.879 56.48C287.809 57.07 287.889 55.54 287.739 56C287.659 55.37 287.789 55.59 287.679 55.09C287.519 55.42 287.279 54.4799 287.089 54.9399L287.019 54.45C286.809 55.39 286.349 53.87 286.229 54.76C285.949 55.21 285.839 53.32 285.609 54.33L285.399 53.6801C285.239 53.5901 285.399 54.51 285.189 54.21C285.149 53.79 284.949 53.9 284.989 53.49C284.549 52.88 284.349 54.52 283.739 53.46C283.739 54.29 283.429 53.83 283.429 54.46C283.369 54.1 282.939 54.46 283.119 53.65C283.139 53.58 283.179 53.59 283.189 53.73L283.169 53.24C282.779 52.36 282.729 53.81 282.439 53.7C282.539 53.85 282.639 53.79 282.609 54.14L282.349 54.11V53.6899L281.949 53.5L282.059 54C281.839 53.76 281.679 52.91 281.549 53.65C281.499 54.06 281.809 54.31 281.629 54.49C281.339 54.18 280.909 53.7 280.569 53.59C280.669 54.16 280.579 54.15 280.509 54.27L280.439 53.78C280.189 54.51 280.179 52.71 279.919 53.3V52.95L279.949 53.99C279.769 55.01 279.659 52.98 279.489 54.36C279.609 54.26 279.689 55.44 279.489 55.25L279.469 54.77C279.389 54.88 279.389 55.09 279.319 54.99C279.339 54.73 279.259 54.29 279.139 54.39V53.78L279.009 54.6899C278.749 54.1999 278.529 54.88 278.369 54.22C278.369 54.22 277.909 53.9399 277.909 54.6899C277.939 54.2199 277.689 54.08 277.679 53.53C277.639 54.06 277.369 54.52 277.179 53.99L277.199 53.92C276.659 53.41 276.499 54.79 275.989 54.16C276.079 54.73 275.819 54.45 275.969 55.17C275.629 55.95 274.979 53.7801 275.119 56.0601C274.939 56.2101 274.819 55.56 274.699 55.45L274.729 55.3199C274.379 55.5499 274.279 55.5899 273.999 55.5699C273.889 55.8099 273.999 56.86 273.729 56.64C273.759 56.21 273.659 56.3001 273.569 56.3101C273.619 56.2401 273.619 56.0799 273.459 55.8199C273.459 55.9499 273.439 56.03 273.429 56.1C273.429 56.07 273.419 56.04 273.409 56C273.279 56.17 273.319 56.29 273.399 56.34C273.399 56.4 273.419 56.49 273.459 56.6C273.229 56.08 273.019 56.69 272.909 55.98C272.469 56.2 272.239 56.9901 271.889 57.3101C271.799 56.9501 271.839 56.61 271.939 56.45L271.689 56.62C271.619 56.09 271.809 56.3001 271.879 56.1801C271.439 55.3601 271.319 57.12 270.839 56.38L270.819 56.8101L270.789 56.74C270.819 56.96 270.779 57.27 270.729 57.35C270.609 56.89 270.589 56.28 270.409 56.33C270.199 55.9 270.019 56.61 269.849 56.88C269.969 56.95 269.969 57.21 269.939 57.37C269.849 57.4 269.729 56.94 269.689 57.15L269.599 56.53C269.719 57.11 269.439 57.2 269.439 57.45C269.319 56.99 269.529 57.0301 269.509 56.6801C269.139 56.7801 269.319 56.73 268.949 56.84C268.809 57.34 269.069 57.43 269.049 57.99C268.889 58.13 268.769 58.59 268.519 58.24L268.659 58.79C268.389 59.26 268.179 59.2199 267.869 58.6899C266.009 63.5099 268.199 64.92 268.199 64.92C269.339 66.03 269.619 64.35 270.719 63.78L270.659 63.76Z" fill="#20BB65"/>
<path d="M320.579 51.39L320.669 51.62C320.669 51.51 320.639 51.42 320.579 51.39Z" fill="#20BB65"/>
<path d="M340.219 50.72C340.219 50.72 340.229 50.69 340.239 50.67C340.229 50.69 340.219 50.7 340.219 50.72Z" fill="#20BB65"/>
<path d="M323.969 59.0699C323.969 59.0699 323.959 59.11 323.949 59.13L323.969 59.0699Z" fill="#20BB65"/>
<path d="M320.049 58.64C321.089 58.86 321.409 59.9299 322.439 59.4399C322.949 59.4999 323.469 59.2299 323.959 59.0699C324.149 58.2099 324.609 59.0301 324.849 58.3101L324.979 58.78C325.059 58.53 325.169 58.36 325.279 58.62V58.76C325.409 58.39 325.579 58.6 325.639 58.42V58.5601L325.809 58.49L325.789 58.6899C326.019 58.2899 326.279 58.2601 326.509 58.4301L326.469 57.85C326.979 58.48 327.109 57.27 327.569 58.02V58.16C328.059 56.61 328.479 59.17 328.989 57.7C328.929 57.88 329.029 58 329.029 58.14C329.289 57.96 329.559 57.87 329.529 56.73C329.719 56.73 329.699 57.08 329.739 57.52C329.719 57.02 329.879 56.81 330.029 56.77L329.969 56.97L330.389 56.79L330.279 55.85C330.519 56.11 330.369 57 330.579 56.76L330.549 55.98C330.869 56.12 331.089 57.3 331.409 57.87C332.669 58.17 333.979 56.14 335.179 57.5L335.239 58.09C335.279 58.95 335.539 56.82 335.599 57.61L335.729 57.22C335.769 57.37 335.849 57.54 335.789 57.73C335.919 57.76 335.919 57.62 335.999 57.36L336.139 57.89C336.639 58.3 337.049 57.26 337.579 57.46C338.219 58.54 339.389 57.53 340.069 56.95C341.029 55.66 342.139 59.08 343.119 57.62C343.149 57.74 343.229 57.47 343.229 57.37L344.129 57.5C344.129 57.5 345.209 57.59 345.899 56.79C346.579 55.99 346.889 54.3 345.249 50.73L345.269 50.54C344.769 50.08 344.459 49.98 344.109 50.92C344.059 49.77 343.699 50.8 343.579 50.42V50.33C343.279 51.21 342.969 49.59 342.669 50.38C342.679 50.29 342.689 49.97 342.759 49.95C342.539 50.1 342.249 50.3501 342.239 49.6801C341.729 49.8601 341.009 49.54 340.679 50.62L340.699 50.4301C340.509 51.1501 340.459 50.54 340.249 50.91C340.239 50.82 340.219 50.78 340.229 50.74C340.029 51.46 339.639 50.85 339.469 51.16V50.71L339.049 50.8199L339.199 50.91C339.159 52.13 338.889 50.1399 338.599 50.9399C338.319 50.7899 338.069 53.49 337.779 52.89C337.649 53.46 337.889 51.96 337.689 52.4C337.679 51.76 337.779 52 337.719 51.49C337.519 51.79 337.389 50.84 337.139 51.27L337.119 50.77C336.809 51.68 336.499 50.12 336.299 50.99C335.969 51.41 336.049 49.52 335.719 50.5L335.569 49.83C335.419 49.72 335.479 50.66 335.309 50.33C335.309 49.91 335.099 50 335.189 49.59C334.799 48.93 334.449 50.5499 333.939 49.4399C333.849 50.2699 333.589 49.78 333.529 50.4C333.509 50.04 333.029 50.3499 333.289 49.5699C333.309 49.5099 333.349 49.52 333.349 49.66L333.369 49.17C333.069 48.25 332.869 49.69 332.589 49.55C332.679 49.71 332.779 49.66 332.719 50L332.459 49.9399L332.499 49.53L332.109 49.3L332.179 49.8101C331.989 49.5501 331.899 48.69 331.699 49.42C331.619 49.83 331.899 50.1 331.699 50.27C331.439 49.93 331.049 49.42 330.729 49.27C330.779 49.84 330.689 49.8199 330.609 49.9399L330.579 49.4399C330.259 50.1399 330.419 48.35 330.099 48.91L330.119 48.5601L330.059 49.6C329.789 50.6 329.859 48.5701 329.569 49.9301C329.699 49.8401 329.669 51.0301 329.499 50.8101L329.529 50.33C329.439 50.43 329.419 50.64 329.359 50.54C329.409 50.28 329.359 49.8401 329.229 49.9301L329.299 49.33L329.079 50.22C328.869 49.71 328.579 50.3699 328.479 49.6899C328.479 49.6899 328.049 49.37 327.979 50.12C328.049 49.66 327.809 49.49 327.859 48.95C327.769 49.48 327.469 49.91 327.319 49.36L327.339 49.3C326.839 48.75 326.559 50.1099 326.099 49.4399C326.139 50.0199 325.909 49.71 325.989 50.45C325.579 51.2 325.119 48.98 325.059 51.27C324.869 51.4 324.799 50.75 324.689 50.63L324.729 50.51C324.359 50.71 324.259 50.74 323.969 50.7C323.839 50.93 323.869 51.99 323.609 51.75C323.669 51.32 323.569 51.41 323.479 51.41C323.539 51.34 323.549 51.19 323.409 50.91C323.399 51.04 323.379 51.1199 323.349 51.1899C323.349 51.1599 323.349 51.13 323.349 51.09C323.199 51.25 323.239 51.3801 323.309 51.4301C323.309 51.4901 323.309 51.5799 323.349 51.6899C323.159 51.1499 322.899 51.75 322.849 51.03C322.389 51.22 322.099 51.98 321.719 52.29C321.659 51.92 321.729 51.5899 321.839 51.4399L321.569 51.59C321.539 51.05 321.709 51.27 321.789 51.16C321.419 50.31 321.159 52.06 320.729 51.29L320.669 51.72L320.639 51.65C320.649 51.87 320.579 52.18 320.529 52.26C320.449 51.8 320.469 51.18 320.289 51.22C320.109 50.78 319.869 51.47 319.689 51.73C319.799 51.8 319.779 52.06 319.739 52.23C319.649 52.25 319.559 51.79 319.499 51.99L319.449 51.36C319.519 51.95 319.239 52.01 319.219 52.27C319.139 51.81 319.339 51.86 319.349 51.51C318.969 51.59 319.159 51.55 318.779 51.63C318.599 52.12 318.849 52.22 318.779 52.78C318.609 52.91 318.459 53.36 318.229 53L318.329 53.55C318.019 54 317.819 53.95 317.549 53.4C315.339 58.1 317.409 59.64 317.409 59.64C318.459 60.81 318.859 59.16 319.989 58.65L320.049 58.64Z" fill="#20BB65"/>
<path d="M370.969 52.2L371.019 52.4399C371.019 52.3299 371.019 52.24 370.969 52.2Z" fill="#20BB65"/>
<path d="M390.529 54.8199C390.529 54.8199 390.549 54.79 390.559 54.77C390.539 54.79 390.539 54.7999 390.529 54.8199Z" fill="#20BB65"/>
<path d="M373.119 60.3C373.119 60.3 373.099 60.33 373.089 60.36L373.119 60.3Z" fill="#20BB65"/>
<path d="M369.339 59.28C370.319 59.66 370.479 60.7701 371.569 60.4301C372.059 60.5701 372.609 60.38 373.109 60.3C373.429 59.48 373.749 60.3599 374.099 59.6899L374.149 60.1801C374.269 59.9501 374.399 59.7999 374.469 60.0699L374.449 60.21C374.629 59.87 374.769 60.1001 374.859 59.9301L374.839 60.0699L375.019 60.03L374.969 60.22C375.259 59.87 375.519 59.8699 375.719 60.0699L375.769 59.49C376.169 60.19 376.489 59.02 376.819 59.84L376.799 59.98C377.539 58.53 377.519 61.13 378.269 59.76C378.179 59.93 378.269 60.06 378.239 60.2C378.519 60.07 378.809 60.02 378.959 58.89C379.149 58.93 379.069 59.26 379.029 59.7C379.099 59.2 379.289 59.02 379.439 59.01L379.349 59.1899L379.789 59.08L379.839 58.13C380.029 58.43 379.739 59.28 379.989 59.08L380.089 58.3101C380.379 58.5101 380.399 59.7001 380.609 60.3101C381.789 60.8201 383.429 59.05 384.369 60.59L384.329 61.1801C384.219 62.0301 384.849 59.98 384.759 60.77L384.959 60.4C384.969 60.56 385.029 60.73 384.929 60.91C385.049 60.96 385.069 60.82 385.199 60.58L385.249 61.13C385.669 61.62 386.249 60.67 386.729 60.96C387.159 62.14 388.489 61.35 389.259 60.9C390.429 59.81 390.899 63.37 392.119 62.11C392.119 62.24 392.259 61.98 392.279 61.89L393.129 62.1801C393.129 62.1801 394.169 62.4699 394.989 61.8199C395.799 61.1599 396.429 59.56 395.489 55.74L395.549 55.5601C395.149 55.0101 394.849 54.85 394.329 55.71C394.499 54.57 393.949 55.51 393.899 55.13L393.929 55.04C393.459 55.85 393.449 54.2 393.009 54.92C393.039 54.83 393.099 54.52 393.169 54.52C392.929 54.62 392.589 54.82 392.699 54.16C392.159 54.24 391.509 53.8 390.989 54.79L391.049 54.61C390.739 55.29 390.789 54.67 390.519 55C390.519 54.91 390.519 54.86 390.519 54.83C390.189 55.5 389.909 54.83 389.699 55.11L389.769 54.67L389.349 54.7L389.479 54.8199C389.219 56.0199 389.309 54.01 388.879 54.74C388.629 54.54 387.899 57.16 387.719 56.52C387.489 57.06 387.989 55.62 387.719 56.02C387.819 55.39 387.879 55.64 387.909 55.13C387.659 55.4 387.689 54.4299 387.379 54.8199L387.449 54.33C386.979 55.17 386.949 53.59 386.599 54.41C386.209 54.76 386.619 52.9199 386.119 53.8199L386.089 53.13C385.959 53 385.849 53.93 385.739 53.58C385.819 53.16 385.589 53.21 385.739 52.83C385.469 52.12 384.839 53.64 384.529 52.46C384.299 53.26 384.129 52.74 383.959 53.34C383.999 52.98 383.479 53.21 383.869 52.48C383.899 52.42 383.939 52.44 383.919 52.58L384.029 52.1C383.889 51.14 383.449 52.53 383.189 52.35C383.249 52.52 383.359 52.4999 383.239 52.8199L382.989 52.72L383.099 52.3199L382.749 52.03L382.729 52.54C382.579 52.25 382.639 51.3899 382.329 52.0699C382.179 52.4599 382.409 52.78 382.189 52.9C381.989 52.52 381.689 51.95 381.389 51.75C381.339 52.32 381.259 52.29 381.149 52.39L381.209 51.9C380.779 52.54 381.239 50.8 380.819 51.3L380.899 50.96L380.669 51.98C380.229 52.92 380.649 50.93 380.129 52.22C380.269 52.15 380.049 53.32 379.909 53.08L380.019 52.61C379.919 52.7 379.859 52.89 379.809 52.79C379.899 52.54 379.929 52.1 379.789 52.16L379.959 51.58L379.589 52.42C379.459 51.88 379.069 52.48 379.079 51.8C379.079 51.8 378.699 51.42 378.509 52.14C378.649 51.69 378.439 51.49 378.579 50.96C378.399 51.46 378.029 51.84 377.969 51.28L377.999 51.22C377.589 50.6 377.089 51.89 376.749 51.16C376.699 51.74 376.509 51.4 376.479 52.14C375.959 52.81 375.849 50.55 375.429 52.8C375.219 52.9 375.259 52.24 375.169 52.11L375.229 52C374.829 52.14 374.719 52.1499 374.449 52.0699C374.289 52.2799 374.149 53.33 373.929 53.04C374.059 52.63 373.949 52.6999 373.849 52.6899C373.919 52.6299 373.949 52.4801 373.859 52.1801C373.829 52.3101 373.789 52.38 373.759 52.45C373.759 52.42 373.759 52.39 373.759 52.35C373.589 52.48 373.599 52.6101 373.669 52.6801C373.659 52.7401 373.659 52.8299 373.669 52.9399C373.569 52.3799 373.219 52.93 373.279 52.21C372.789 52.33 372.379 53.03 371.969 53.27C371.969 52.89 372.089 52.5799 372.219 52.4399L371.929 52.55C371.989 52.02 372.119 52.26 372.219 52.16C371.979 51.26 371.459 52.95 371.149 52.12L371.029 52.53L371.009 52.46C370.989 52.68 370.869 52.98 370.809 53.04C370.809 52.57 370.919 51.97 370.729 51.98C370.619 51.52 370.279 52.16 370.059 52.39C370.159 52.48 370.099 52.73 370.039 52.89C369.939 52.89 369.929 52.43 369.839 52.62L369.889 51.99C369.869 52.58 369.579 52.6 369.519 52.86C369.509 52.39 369.709 52.47 369.759 52.13C369.369 52.15 369.569 52.14 369.179 52.16C368.929 52.61 369.159 52.76 369.009 53.3C368.819 53.41 368.609 53.8301 368.429 53.4301V53.99C368.069 54.39 367.879 54.31 367.699 53.73C366.249 55.89 365.999 57.4301 366.099 58.4301C366.199 59.4301 366.639 59.89 366.639 59.89C367.499 61.2 368.129 59.63 369.319 59.3L369.339 59.28Z" fill="#20BB65"/>
<path d="M420.439 62.49V62.74C420.469 62.64 420.479 62.54 420.439 62.49Z" fill="#20BB65"/>
<path d="M438.969 69.4399C438.969 69.4399 438.989 69.42 439.009 69.4C438.989 69.41 438.979 69.4199 438.969 69.4399Z" fill="#20BB65"/>
<path d="M420.769 70.87C420.769 70.87 420.749 70.9 420.729 70.92L420.769 70.87Z" fill="#20BB65"/>
<path d="M417.319 69.0501C418.189 69.6401 418.099 70.7501 419.229 70.6701C419.669 70.9101 420.259 70.84 420.759 70.87C421.249 70.14 421.369 71.06 421.859 70.48L421.799 70.97C421.969 70.77 422.129 70.6501 422.129 70.9301L422.079 71.0601C422.329 70.7601 422.409 71.02 422.539 70.87L422.489 71H422.669L422.579 71.1701C422.939 70.8901 423.189 70.9401 423.339 71.1701L423.519 70.62C423.749 71.38 424.329 70.3101 424.479 71.1701L424.429 71.3001C425.469 70.0501 424.879 72.5701 425.909 71.4101C425.779 71.5601 425.829 71.7 425.779 71.83C426.079 71.76 426.369 71.78 426.769 70.71C426.939 70.79 426.789 71.1001 426.659 71.5201C426.839 71.0501 427.059 70.92 427.209 70.94L427.079 71.1H427.539L427.799 70.1801C427.909 70.5101 427.439 71.28 427.729 71.14L428.009 70.4101C428.249 70.6701 427.989 71.84 428.059 72.48C429.089 73.24 431.079 71.89 431.639 73.61L431.459 74.1701C431.149 74.9701 432.239 73.12 431.979 73.87L432.249 73.5601C432.229 73.7201 432.239 73.9001 432.099 74.0501C432.199 74.1301 432.259 74.0001 432.439 73.8001L432.359 74.34C432.649 74.91 433.439 74.1201 433.829 74.5201C433.969 75.7601 435.429 75.3101 436.289 75.0501C437.689 74.2701 437.279 77.8301 438.759 76.9101C438.739 77.0301 438.929 76.82 438.969 76.73L439.719 77.22C439.719 77.22 440.649 77.75 441.609 77.32C442.559 76.88 443.569 75.4901 443.599 71.5601L443.699 71.4001C443.439 70.7701 443.189 70.54 442.479 71.24C442.919 70.17 442.159 70.96 442.209 70.57L442.259 70.49C441.609 71.16 441.999 69.5501 441.389 70.1501C441.439 70.0701 441.579 69.7901 441.649 69.8001C441.389 69.8401 441.019 69.95 441.279 69.33C440.739 69.27 440.199 68.6901 439.459 69.5301L439.559 69.37C439.089 69.95 439.289 69.37 438.949 69.62C438.979 69.54 438.979 69.49 438.999 69.46C438.519 70.03 438.409 69.3201 438.129 69.5301L438.299 69.12L437.879 69.0501L437.979 69.2C437.439 70.3 437.999 68.37 437.419 68.98C437.229 68.73 435.899 71.0901 435.869 70.4301C435.519 70.9001 436.349 69.62 435.989 69.95C436.239 69.36 436.239 69.62 436.389 69.13C436.089 69.33 436.339 68.4 435.949 68.7L436.139 68.24C435.489 68.95 435.829 67.4 435.289 68.11C434.819 68.36 435.649 66.6601 434.959 67.4201L435.089 66.75C434.989 66.59 434.669 67.47 434.649 67.11C434.819 66.72 434.589 66.72 434.829 66.38C434.729 65.62 433.769 66.96 433.729 65.74C433.319 66.46 433.269 65.92 432.969 66.46C433.089 66.12 432.529 66.22 433.079 65.6C433.129 65.55 433.159 65.58 433.109 65.71L433.319 65.2701C433.399 64.3101 432.649 65.5501 432.449 65.3101C432.469 65.4901 432.589 65.4901 432.389 65.7801L432.169 65.62L432.369 65.26L432.099 64.89L431.959 65.38C431.879 65.07 432.129 64.23 431.669 64.83C431.429 65.17 431.589 65.53 431.339 65.61C431.229 65.2 431.069 64.5701 430.819 64.3101C430.639 64.8601 430.569 64.81 430.439 64.88L430.609 64.4101C430.039 64.9301 430.879 63.34 430.369 63.73L430.519 63.4201L430.059 64.36C429.419 65.17 430.269 63.33 429.469 64.47C429.629 64.44 429.139 65.52 429.059 65.26L429.269 64.83C429.149 64.89 429.049 65.07 429.029 64.96C429.169 64.74 429.299 64.32 429.149 64.35L429.449 63.82L428.899 64.5601C428.899 64.0101 428.379 64.5 428.539 63.84C428.539 63.84 428.259 63.3801 427.909 64.0401C428.149 63.6401 427.989 63.3901 428.239 62.9101C427.959 63.3601 427.499 63.65 427.569 63.08L427.609 63.0301C427.349 62.3401 426.569 63.5 426.389 62.71C426.209 63.26 426.099 62.89 425.909 63.61C425.249 64.16 425.639 61.9401 424.729 64.0401C424.499 64.0901 424.679 63.46 424.619 63.32L424.709 63.22C424.289 63.28 424.179 63.26 423.929 63.12C423.719 63.29 423.359 64.28 423.199 63.96C423.409 63.59 423.289 63.63 423.199 63.6C423.279 63.56 423.349 63.42 423.319 63.11C423.259 63.23 423.209 63.3 423.159 63.35C423.159 63.32 423.169 63.29 423.189 63.25C422.989 63.34 422.979 63.4701 423.029 63.5501C423.009 63.6101 422.979 63.6901 422.969 63.8101C422.989 63.2401 422.529 63.7 422.739 63.01C422.239 63.01 421.679 63.6201 421.219 63.7701C421.299 63.4001 421.489 63.1201 421.639 63.0201L421.329 63.0601C421.499 62.5501 421.579 62.82 421.689 62.74C421.649 61.81 420.769 63.34 420.649 62.47L420.439 62.85V62.7801C420.369 62.9901 420.189 63.2601 420.119 63.3101C420.209 62.8501 420.459 62.29 420.269 62.25C420.269 61.77 419.789 62.33 419.519 62.5C419.599 62.61 419.479 62.84 419.389 62.99C419.289 62.97 419.389 62.5101 419.249 62.6801L419.429 62.08C419.279 62.66 418.999 62.61 418.879 62.84C418.969 62.38 419.139 62.5001 419.269 62.1801C418.889 62.1101 419.079 62.15 418.699 62.08C418.359 62.47 418.549 62.6601 418.289 63.1501C418.079 63.2101 417.779 63.5701 417.699 63.1501L417.589 63.7C417.139 64.01 416.969 63.8801 416.919 63.2701C415.049 65.0501 414.479 66.5 414.359 67.5C414.239 68.5 414.569 69.0501 414.569 69.0501C415.109 70.5401 416.069 69.14 417.289 69.09L417.319 69.0501Z" fill="#20BB65"/>
<path d="M465.949 84.79L465.879 85.03C465.939 84.94 465.979 84.86 465.949 84.79Z" fill="#20BB65"/>
<path d="M481.309 97.55C481.309 97.55 481.339 97.54 481.359 97.53C481.339 97.53 481.319 97.54 481.309 97.55Z" fill="#20BB65"/>
<path d="M463.739 92.87C463.739 92.87 463.709 92.89 463.689 92.9L463.739 92.87Z" fill="#20BB65"/>
<path d="M461.039 90.14C461.699 90.94 461.269 91.98 462.369 92.22C462.709 92.58 463.279 92.69 463.739 92.87C464.429 92.33 464.249 93.24 464.889 92.84L464.679 93.29C464.899 93.15 465.089 93.09 464.999 93.35L464.909 93.46C465.239 93.26 465.229 93.52 465.399 93.42L465.309 93.53L465.479 93.58L465.339 93.72C465.769 93.56 465.979 93.7 466.049 93.97L466.389 93.5C466.359 94.3 467.239 93.46 467.099 94.33L467.009 94.4399C468.389 93.5699 467.009 95.79 468.359 95C468.189 95.1 468.189 95.25 468.099 95.36C468.399 95.39 468.669 95.5 469.399 94.62C469.539 94.75 469.289 94.99 469.029 95.35C469.349 94.96 469.599 94.91 469.739 94.98L469.569 95.09L469.999 95.23L470.539 94.45C470.539 94.8 469.849 95.37 470.159 95.33L470.659 94.73C470.799 95.05 470.179 96.07 470.029 96.7C470.739 97.74 473.059 97.12 472.989 98.92L472.629 99.39C472.069 100.04 473.719 98.66 473.209 99.28L473.569 99.08C473.489 99.22 473.439 99.39 473.259 99.49C473.329 99.6 473.419 99.49 473.669 99.37L473.409 99.85C473.479 100.48 474.489 100 474.719 100.51C474.409 101.72 475.929 101.79 476.809 101.85C478.399 101.61 476.709 104.78 478.419 104.44C478.349 104.55 478.609 104.42 478.679 104.35L479.189 105.07C479.189 105.07 479.839 105.9 480.879 105.85C481.909 105.79 483.399 104.91 484.879 101.25L485.029 101.14C485.029 100.45 484.869 100.14 483.939 100.53C484.739 99.7 483.739 100.14 483.929 99.8L484.009 99.74C483.149 100.12 484.099 98.76 483.319 99.09C483.389 99.04 483.629 98.82 483.689 98.86C483.429 98.8 483.039 98.77 483.509 98.29C483.019 98.04 482.719 97.2901 481.729 97.8101L481.879 97.7C481.229 98.08 481.629 97.6 481.219 97.71C481.269 97.64 481.289 97.5999 481.319 97.5699C480.669 97.9299 480.809 97.2199 480.479 97.3199L480.779 96.99L480.409 96.77L480.449 96.95C479.559 97.79 480.759 96.18 479.989 96.54C479.889 96.23 477.819 97.99 478.029 97.36C477.539 97.68 478.759 96.77 478.309 96.95C478.739 96.48 478.649 96.7299 478.969 96.3199C478.619 96.3999 479.179 95.62 478.699 95.76L479.029 95.39C478.169 95.83 479.029 94.49 478.269 94.98C477.739 95.05 479.099 93.74 478.189 94.22L478.539 93.63C478.499 93.45 477.899 94.1701 477.999 93.8101C478.289 93.5001 478.069 93.4201 478.409 93.1801C478.569 92.4301 477.199 93.3599 477.579 92.1899C476.949 92.7299 477.089 92.19 476.619 92.61C476.849 92.33 476.279 92.23 477.009 91.83C477.069 91.8 477.089 91.8299 476.999 91.9399L477.349 91.6C477.739 90.71 476.619 91.64 476.499 91.35C476.459 91.53 476.569 91.57 476.289 91.77L476.129 91.55L476.439 91.27L476.299 90.83L476.009 91.25C476.039 90.93 476.549 90.22 475.909 90.63C475.569 90.87 475.599 91.27 475.339 91.26C475.369 90.83 475.419 90.18 475.259 89.85C474.909 90.31 474.859 90.24 474.719 90.27L475.029 89.88C474.319 90.19 475.629 88.96 475.019 89.16L475.269 88.91L474.529 89.65C473.659 90.21 475.059 88.7501 473.939 89.5601C474.099 89.5801 473.289 90.45 473.299 90.17L473.639 89.83C473.499 89.85 473.349 89.99 473.369 89.87C473.579 89.7 473.839 89.35 473.679 89.33L474.129 88.92L473.369 89.4399C473.539 88.9099 472.889 89.22 473.249 88.64C473.249 88.64 473.119 88.11 472.579 88.63C472.939 88.32 472.859 88.04 473.249 87.66C472.839 88 472.309 88.12 472.559 87.61L472.619 87.58C472.589 86.83 471.479 87.68 471.559 86.86C471.219 87.33 471.229 86.9401 470.819 87.5601C470.019 87.8601 471.079 85.87 469.569 87.58C469.329 87.56 469.699 87.01 469.689 86.85L469.799 86.78C469.379 86.7 469.279 86.6501 469.089 86.4301C468.839 86.5201 468.189 87.36 468.139 87C468.459 86.71 468.329 86.71 468.249 86.66C468.339 86.64 468.449 86.53 468.509 86.23C468.419 86.32 468.349 86.37 468.289 86.41C468.309 86.38 468.319 86.3599 468.349 86.3199C468.129 86.3499 468.079 86.4701 468.099 86.5601C468.059 86.6101 468.009 86.68 467.959 86.79C468.149 86.26 467.569 86.55 467.989 85.95C467.509 85.8 466.799 86.2 466.309 86.2C466.489 85.87 466.759 85.66 466.939 85.61L466.629 85.5601C466.949 85.1301 466.939 85.4 467.069 85.37C467.309 84.47 466.009 85.67 466.149 84.8L465.839 85.1L465.859 85.03C465.729 85.21 465.479 85.4099 465.389 85.4399C465.619 85.0299 466.019 84.56 465.839 84.47C465.979 84.01 465.349 84.4 465.049 84.49C465.089 84.62 464.919 84.81 464.779 84.92C464.689 84.88 464.909 84.46 464.739 84.59L465.089 84.0699C464.779 84.5799 464.519 84.45 464.339 84.64C464.559 84.23 464.689 84.4 464.909 84.12C464.559 83.95 464.729 84.03 464.379 83.86C463.939 84.13 464.069 84.37 463.679 84.77C463.459 84.77 463.069 85.03 463.109 84.6L462.849 85.1C462.329 85.27 462.199 85.1 462.319 84.51C459.999 85.69 459.049 86.93 458.649 87.85C458.249 88.77 458.409 89.38 458.409 89.38C458.499 90.93 459.819 89.86 460.999 90.15L461.039 90.14Z" fill="#20BB65"/>
<path d="M499.579 123.03L499.399 123.2C499.499 123.15 499.569 123.09 499.579 123.03Z" fill="#20BB65"/>
<path d="M492.689 125.35C492.869 126.35 491.989 127.05 492.819 127.77C492.929 128.24 493.369 128.61 493.679 128.98C494.549 128.85 493.929 129.54 494.689 129.51L494.289 129.79C494.549 129.78 494.739 129.82 494.539 130L494.409 130.05C494.799 130.04 494.659 130.26 494.849 130.25L494.719 130.3L494.839 130.43L494.639 130.48C495.089 130.55 495.199 130.77 495.119 131.04L495.649 130.81C495.219 131.48 496.399 131.2 495.839 131.87L495.709 131.92C497.339 131.87 495.029 133.07 496.579 133.07C496.389 133.07 496.309 133.2 496.179 133.24C496.419 133.42 496.599 133.64 497.669 133.26C497.719 133.44 497.389 133.52 496.979 133.69C497.449 133.52 497.699 133.6 497.779 133.73H497.579L497.879 134.07L498.739 133.68C498.559 133.98 497.669 134.11 497.959 134.24L498.699 133.98C498.649 134.32 497.589 134.87 497.139 135.33C497.199 136.57 499.489 137.25 498.489 138.73L497.939 138.94C497.119 139.19 499.249 138.89 498.489 139.15L498.899 139.17C498.759 139.25 498.619 139.37 498.419 139.35C498.419 139.48 498.559 139.44 498.829 139.46L498.349 139.73C498.069 140.3 499.179 140.42 499.099 140.97C498.189 141.82 499.439 142.68 500.139 143.21C501.609 143.86 498.469 145.61 500.089 146.24C499.979 146.29 500.259 146.32 500.359 146.3L500.399 147.18C500.399 147.18 500.499 148.23 501.399 148.75C502.299 149.26 504.029 149.33 507.259 147.07H507.449C507.819 146.48 507.859 146.14 506.869 145.96C507.989 145.7 506.909 145.52 507.259 145.34H507.349C506.419 145.19 507.959 144.56 507.119 144.41C507.209 144.41 507.519 144.35 507.559 144.41C507.369 144.22 507.059 143.98 507.719 143.83C507.439 143.35 507.599 142.55 506.479 142.45L506.669 142.43C505.919 142.4 506.509 142.21 506.099 142.08C506.179 142.05 506.219 142.02 506.259 142.02C505.519 141.97 506.019 141.45 505.679 141.36L506.109 141.25L505.919 140.87L505.859 141.04C504.659 141.27 506.539 140.56 505.689 140.45C505.769 140.14 503.079 140.51 503.589 140.09C502.999 140.09 504.519 139.98 504.049 139.89C504.669 139.73 504.459 139.89 504.939 139.71C504.599 139.59 505.489 139.22 505.009 139.09L505.489 138.95C504.529 138.86 505.959 138.18 505.059 138.19C504.579 137.97 506.419 137.58 505.389 137.49L505.999 137.18C506.059 137 505.179 137.3 505.449 137.05C505.859 136.94 505.719 136.75 506.129 136.74C506.659 136.18 505.009 136.25 505.939 135.45C505.119 135.58 505.519 135.2 504.899 135.3C505.239 135.18 504.809 134.8 505.639 134.84C505.709 134.84 505.709 134.89 505.569 134.93L506.049 134.82C506.849 134.27 505.399 134.46 505.459 134.15C505.329 134.28 505.409 134.37 505.059 134.4L505.039 134.13L505.449 134.06L505.559 133.61L505.089 133.82C505.279 133.56 506.079 133.22 505.329 133.24C504.919 133.27 504.729 133.63 504.519 133.48C504.769 133.13 505.139 132.59 505.179 132.23C504.649 132.44 504.639 132.35 504.499 132.3L504.969 132.13C504.199 132.02 505.959 131.65 505.329 131.5L505.669 131.42L504.659 131.67C503.629 131.7 505.579 131.17 504.189 131.28C504.309 131.38 503.179 131.71 503.329 131.48L503.799 131.36C503.669 131.31 503.469 131.34 503.539 131.25C503.799 131.22 504.209 131.04 504.079 130.94L504.679 130.82L503.759 130.87C504.179 130.5 503.459 130.43 504.059 130.11C504.059 130.11 504.219 129.58 503.489 129.75C503.949 129.67 504.029 129.38 504.559 129.26C504.029 129.34 503.519 129.18 503.989 128.85H504.059C504.409 128.18 503.029 128.35 503.509 127.68C502.979 127.91 503.189 127.58 502.519 127.91C501.679 127.76 503.589 126.57 501.419 127.29C501.229 127.15 501.819 126.86 501.889 126.72H502.019C501.699 126.43 501.629 126.34 501.569 126.05C501.309 126.01 500.329 126.41 500.459 126.07C500.879 125.98 500.769 125.91 500.729 125.83C500.819 125.86 500.969 125.81 501.169 125.59C501.039 125.63 500.959 125.63 500.889 125.64C500.919 125.63 500.939 125.61 500.979 125.59C500.779 125.5 500.669 125.59 500.649 125.67C500.589 125.69 500.519 125.73 500.419 125.8C500.849 125.43 500.199 125.39 500.849 125.08C500.499 124.71 499.689 124.7 499.259 124.46C499.579 124.26 499.919 124.21 500.099 124.25L499.859 124.05C500.349 123.83 500.209 124.07 500.339 124.1C500.979 123.43 499.259 123.84 499.809 123.14L499.389 123.25L499.439 123.2C499.239 123.3 498.929 123.35 498.839 123.33C499.239 123.08 499.809 122.87 499.699 122.7C500.039 122.36 499.299 122.4 498.989 122.33C498.969 122.46 498.719 122.54 498.549 122.58C498.489 122.5 498.889 122.24 498.669 122.27L499.229 121.98C498.709 122.28 498.539 122.04 498.299 122.12C498.689 121.86 498.729 122.08 499.049 121.94C498.819 121.61 498.939 121.78 498.709 121.45C498.189 121.48 498.199 121.75 497.659 121.91C497.469 121.8 496.999 121.84 497.239 121.48L496.769 121.79C496.229 121.69 496.189 121.48 496.579 121.02C493.979 120.97 492.559 121.62 491.779 122.25C490.989 122.88 490.839 123.48 490.839 123.48C490.179 124.87 491.839 124.53 492.729 125.34L492.689 125.35Z" fill="#20BB65"/>
<path d="M507.839 173.32L507.599 173.37C507.709 173.38 507.799 173.37 507.839 173.32Z" fill="#20BB65"/>
<path d="M503.879 192.97C503.879 192.97 503.909 192.99 503.919 193C503.909 192.98 503.889 192.97 503.879 192.97Z" fill="#20BB65"/>
<path d="M499.709 175.32C499.709 175.32 499.679 175.3 499.649 175.29L499.709 175.32Z" fill="#20BB65"/>
<path d="M500.769 171.67C500.399 172.63 499.279 172.76 499.609 173.82C499.459 174.29 499.639 174.83 499.709 175.32C500.519 175.66 499.629 175.94 500.299 176.3L499.809 176.33C500.039 176.46 500.179 176.59 499.909 176.64L499.769 176.61C500.109 176.8 499.869 176.92 500.039 177.02L499.899 176.99L499.939 177.16L499.749 177.1C500.099 177.4 500.079 177.65 499.869 177.83L500.449 177.91C499.729 178.27 500.889 178.64 500.059 178.92L499.919 178.89C501.339 179.69 498.739 179.53 500.069 180.34C499.899 180.24 499.769 180.31 499.629 180.28C499.749 180.56 499.779 180.84 500.899 181.07C500.849 181.25 500.519 181.15 500.079 181.09C500.569 181.19 500.739 181.38 500.739 181.53L500.559 181.43L500.639 181.87L501.579 181.98C501.269 182.14 500.439 181.81 500.619 182.06L501.389 182.22C501.179 182.49 499.979 182.43 499.359 182.59C498.779 183.7 500.409 185.45 498.799 186.23L498.219 186.13C497.379 185.94 499.369 186.75 498.589 186.59L498.929 186.82C498.769 186.82 498.589 186.85 498.419 186.74C498.359 186.85 498.489 186.89 498.719 187.04H498.169C497.639 187.39 498.539 188.05 498.189 188.49C496.979 188.78 497.619 190.15 497.979 190.96C498.929 192.25 495.339 192.23 496.429 193.58C496.309 193.57 496.539 193.73 496.629 193.77L496.229 194.55C496.229 194.55 495.799 195.51 496.319 196.41C496.849 197.3 498.319 198.2 502.249 197.83L502.419 197.92C503.029 197.6 503.229 197.32 502.459 196.67C503.569 197 502.709 196.31 503.099 196.32L503.189 196.36C502.449 195.78 504.099 195.99 503.449 195.45C503.529 195.49 503.829 195.6 503.829 195.67C503.759 195.41 503.609 195.05 504.249 195.24C504.249 194.68 504.769 194.08 503.849 193.43L504.019 193.51C503.389 193.11 503.989 193.24 503.699 192.93C503.789 192.94 503.829 192.94 503.869 192.96C503.249 192.55 503.939 192.35 503.699 192.1L504.129 192.22L504.149 191.79L504.009 191.91C502.849 191.51 504.839 191.83 504.159 191.32C504.389 191.09 501.869 190.07 502.519 189.96C502.009 189.67 503.379 190.33 503.009 190.01C503.629 190.18 503.369 190.21 503.869 190.3C503.629 190.02 504.589 190.16 504.239 189.8L504.719 189.92C503.929 189.36 505.509 189.49 504.729 189.05C504.419 188.62 506.219 189.21 505.369 188.62L506.059 188.66C506.199 188.54 505.289 188.35 505.649 188.27C506.059 188.39 506.029 188.15 506.399 188.34C507.139 188.13 505.669 187.36 506.879 187.14C506.109 186.84 506.639 186.71 506.059 186.48C506.409 186.55 506.239 186 506.929 186.46C506.989 186.5 506.959 186.54 506.829 186.5L507.299 186.65C508.269 186.58 506.919 186.02 507.129 185.78C506.949 185.83 506.969 185.95 506.659 185.8L506.779 185.56L507.169 185.71L507.489 185.38L506.979 185.32C507.279 185.19 508.139 185.32 507.479 184.94C507.109 184.76 506.769 184.97 506.659 184.74C507.059 184.57 507.649 184.3 507.859 184C507.289 183.91 507.329 183.83 507.229 183.72L507.719 183.81C507.109 183.33 508.819 183.91 508.349 183.45L508.679 183.55L507.679 183.25C506.779 182.75 508.729 183.29 507.479 182.68C507.539 182.83 506.389 182.53 506.639 182.41L507.099 182.54C507.019 182.43 506.829 182.36 506.939 182.32C507.179 182.42 507.619 182.48 507.569 182.33L508.139 182.54L507.319 182.12C507.859 182.02 507.289 181.59 507.969 181.63C507.969 181.63 508.379 181.26 507.659 181.03C508.099 181.2 508.309 180.99 508.829 181.16C508.339 180.96 507.979 180.56 508.549 180.52L508.609 180.56C509.249 180.17 507.979 179.6 508.739 179.28C508.169 179.21 508.519 179.03 507.779 178.97C507.139 178.41 509.389 178.38 507.159 177.88C507.069 177.66 507.729 177.72 507.859 177.63L507.969 177.7C507.839 177.29 507.839 177.18 507.929 176.9C507.729 176.73 506.689 176.56 506.969 176.34C507.379 176.48 507.309 176.37 507.329 176.27C507.389 176.34 507.539 176.38 507.839 176.29C507.709 176.25 507.639 176.22 507.569 176.18C507.599 176.18 507.629 176.18 507.669 176.19C507.539 176.01 507.409 176.02 507.339 176.09C507.279 176.08 507.189 176.07 507.079 176.08C507.639 175.99 507.099 175.62 507.819 175.69C507.709 175.19 507.019 174.76 506.779 174.34C507.159 174.34 507.469 174.47 507.599 174.6L507.499 174.3C508.029 174.36 507.789 174.5 507.889 174.6C508.789 174.36 507.109 173.81 507.939 173.51L507.529 173.38L507.599 173.36C507.379 173.34 507.079 173.22 507.019 173.15C507.489 173.15 508.089 173.27 508.079 173.07C508.549 172.96 507.899 172.61 507.669 172.39C507.579 172.49 507.329 172.43 507.169 172.37C507.169 172.27 507.629 172.26 507.439 172.17L508.069 172.22C507.479 172.2 507.449 171.91 507.199 171.85C507.669 171.84 507.589 172.04 507.929 172.09C507.909 171.7 507.919 171.89 507.899 171.5C507.449 171.25 507.299 171.49 506.759 171.34C506.649 171.15 506.229 170.94 506.629 170.76L506.069 170.78C505.669 170.41 505.739 170.21 506.319 170.03C504.139 168.61 502.589 168.41 501.589 168.52C500.589 168.63 500.139 169.07 500.139 169.07C498.839 169.91 500.429 170.5 500.759 171.67H500.769Z" fill="#20BB65"/>
<path d="M489.669 220.95L489.439 220.87C489.529 220.93 489.609 220.97 489.669 220.95Z" fill="#20BB65"/>
<path d="M476.279 235.72C476.279 235.72 476.289 235.75 476.299 235.77C476.299 235.75 476.289 235.73 476.279 235.72Z" fill="#20BB65"/>
<path d="M481.689 218.39C481.689 218.39 481.669 218.36 481.659 218.34L481.689 218.39Z" fill="#20BB65"/>
<path d="M484.499 215.84C483.669 216.45 482.669 215.99 482.379 217.06C482.009 217.38 481.889 217.94 481.679 218.39C482.189 219.1 481.289 218.88 481.669 219.54L481.239 219.31C481.369 219.54 481.419 219.72 481.159 219.63L481.059 219.54C481.249 219.88 480.979 219.86 481.079 220.03L480.979 219.93L480.919 220.1L480.789 219.95C480.929 220.38 480.789 220.59 480.509 220.64L480.959 221C480.169 220.93 480.959 221.85 480.099 221.67L479.999 221.57C480.789 222.99 478.659 221.52 479.379 222.9C479.289 222.73 479.139 222.72 479.039 222.62C478.989 222.92 478.869 223.18 479.719 223.95C479.579 224.08 479.349 223.82 479.009 223.55C479.379 223.89 479.419 224.15 479.349 224.28L479.249 224.1L479.089 224.53L479.839 225.11C479.489 225.09 478.949 224.37 478.979 224.69L479.559 225.22C479.229 225.34 478.239 224.67 477.619 224.5C476.549 225.17 477.049 227.52 475.259 227.38L474.809 227C474.179 226.41 475.489 228.12 474.899 227.59L475.079 227.96C474.939 227.88 474.769 227.82 474.679 227.64C474.569 227.7 474.669 227.81 474.789 228.05L474.319 227.77C473.679 227.82 474.109 228.84 473.599 229.06C472.399 228.72 472.259 230.23 472.179 231.13C472.359 232.72 469.239 230.98 469.519 232.7C469.409 232.63 469.539 232.89 469.609 232.96L468.869 233.47C468.869 233.47 468.019 234.12 468.049 235.17C468.089 236.21 468.989 237.68 472.619 239.2L472.729 239.35C473.409 239.35 473.719 239.21 473.339 238.28C474.159 239.1 473.729 238.09 474.059 238.28L474.119 238.36C473.749 237.5 475.089 238.47 474.769 237.69C474.819 237.77 475.029 238 474.999 238.06C475.059 237.81 475.109 237.42 475.569 237.9C475.829 237.42 476.569 237.14 476.079 236.14L476.189 236.29C475.829 235.64 476.289 236.04 476.189 235.63C476.259 235.69 476.299 235.71 476.319 235.74C475.979 235.08 476.679 235.24 476.579 234.91L476.899 235.22L477.119 234.86L476.939 234.9C476.129 233.98 477.699 235.24 477.359 234.46C477.669 234.38 475.989 232.25 476.609 232.48C476.309 231.98 477.179 233.23 477.009 232.77C477.459 233.22 477.219 233.12 477.619 233.45C477.549 233.09 478.309 233.68 478.189 233.2L478.549 233.55C478.139 232.68 479.449 233.58 478.989 232.82C478.939 232.29 480.199 233.71 479.749 232.77L480.319 233.15C480.499 233.12 479.809 232.49 480.159 232.6C480.449 232.91 480.549 232.69 480.769 233.04C481.509 233.23 480.639 231.84 481.789 232.26C481.269 231.61 481.789 231.77 481.409 231.28C481.679 231.52 481.799 230.96 482.169 231.7C482.199 231.76 482.169 231.78 482.059 231.69L482.389 232.05C483.249 232.48 482.389 231.32 482.679 231.22C482.499 231.17 482.459 231.28 482.269 230.99L482.499 230.85L482.759 231.17L483.199 231.05L482.789 230.74C483.109 230.78 483.789 231.33 483.409 230.67C483.179 230.32 482.789 230.33 482.809 230.08C483.239 230.13 483.879 230.21 484.219 230.08C483.779 229.71 483.849 229.66 483.829 229.52L484.199 229.85C483.929 229.13 485.089 230.5 484.919 229.87L485.159 230.13L484.449 229.36C483.929 228.46 485.329 229.93 484.559 228.77C484.529 228.93 483.709 228.08 483.979 228.1L484.309 228.45C484.299 228.31 484.169 228.16 484.279 228.18C484.439 228.39 484.779 228.67 484.809 228.51L485.189 228.98L484.709 228.2C485.229 228.4 484.959 227.73 485.519 228.12C485.519 228.12 486.059 228.02 485.559 227.45C485.849 227.82 486.139 227.76 486.499 228.17C486.179 227.74 486.079 227.21 486.579 227.48L486.609 227.54C487.359 227.54 486.579 226.41 487.379 226.52C486.929 226.16 487.319 226.19 486.719 225.75C486.449 224.94 488.399 226.09 486.759 224.5C486.799 224.27 487.329 224.66 487.479 224.65L487.539 224.76C487.639 224.35 487.699 224.24 487.919 224.06C487.839 223.81 487.029 223.12 487.389 223.08C487.659 223.41 487.669 223.28 487.729 223.21C487.739 223.3 487.849 223.41 488.149 223.49C488.059 223.39 488.019 223.32 487.979 223.26C488.009 223.28 488.029 223.29 488.059 223.32C488.049 223.1 487.929 223.04 487.829 223.06C487.779 223.02 487.709 222.97 487.609 222.91C488.139 223.13 487.869 222.53 488.449 222.97C488.619 222.49 488.239 221.76 488.269 221.27C488.589 221.47 488.789 221.74 488.829 221.92L488.899 221.62C489.319 221.95 489.039 221.94 489.069 222.07C489.959 222.34 488.819 221 489.689 221.17L489.399 220.85L489.469 220.87C489.289 220.73 489.099 220.48 489.079 220.39C489.479 220.63 489.929 221.05 490.029 220.88C490.479 221.03 490.119 220.39 490.039 220.08C489.909 220.12 489.729 219.93 489.619 219.8C489.669 219.71 490.069 219.95 489.959 219.77L490.469 220.14C489.969 219.81 490.109 219.55 489.919 219.37C490.329 219.6 490.149 219.73 490.419 219.96C490.609 219.61 490.509 219.78 490.699 219.43C490.439 218.98 490.199 219.11 489.809 218.7C489.809 218.48 489.569 218.08 489.999 218.13L489.509 217.85C489.359 217.32 489.529 217.2 490.119 217.34C488.999 214.99 487.769 214.02 486.869 213.59C485.959 213.17 485.349 213.31 485.349 213.31C483.809 213.34 484.849 214.67 484.529 215.84H484.499Z" fill="#20BB65"/>
<path d="M452.179 255.09L451.979 254.94C452.039 255.03 452.109 255.09 452.179 255.09Z" fill="#20BB65"/>
<path d="M435.639 265.81C435.639 265.81 435.639 265.84 435.649 265.86C435.649 265.84 435.649 265.82 435.639 265.81Z" fill="#20BB65"/>
<path d="M445.279 250.32C445.279 250.32 445.269 250.28 445.259 250.26V250.32H445.279Z" fill="#20BB65"/>
<path d="M448.809 248.65C447.819 249 446.979 248.26 446.369 249.22C445.909 249.43 445.609 249.94 445.279 250.32C445.559 251.15 444.749 250.69 444.919 251.43L444.559 251.09C444.619 251.34 444.619 251.54 444.389 251.38L444.319 251.26C444.409 251.64 444.149 251.55 444.199 251.74L444.129 251.62L444.019 251.77L443.929 251.59C443.929 252.05 443.739 252.21 443.459 252.19L443.799 252.66C443.039 252.38 443.559 253.49 442.769 253.08L442.699 252.96C443.079 254.54 441.399 252.56 441.729 254.09C441.689 253.9 441.539 253.86 441.469 253.73C441.339 254.01 441.159 254.23 441.769 255.19C441.599 255.28 441.449 254.97 441.189 254.62C441.459 255.04 441.439 255.3 441.329 255.41L441.279 255.21L441.009 255.58L441.589 256.33C441.249 256.22 440.919 255.39 440.859 255.7L441.279 256.36C440.929 256.4 440.139 255.5 439.579 255.18C438.349 255.57 438.259 257.97 436.539 257.42L436.189 256.95C435.719 256.23 436.579 258.2 436.129 257.55L436.219 257.95C436.109 257.84 435.949 257.74 435.909 257.54C435.789 257.58 435.859 257.7 435.909 257.97L435.519 257.59C434.879 257.5 435.059 258.59 434.499 258.68C433.399 258.07 432.909 259.53 432.619 260.38C432.439 261.97 429.759 259.59 429.659 261.34C429.569 261.25 429.639 261.53 429.689 261.61L428.849 261.95C428.849 261.95 427.869 262.41 427.679 263.45C427.489 264.48 428.079 266.1 431.289 268.36L431.359 268.53C432.019 268.68 432.349 268.61 432.179 267.62C432.799 268.59 432.599 267.52 432.879 267.78L432.919 267.87C432.739 266.95 433.839 268.19 433.689 267.36C433.729 267.44 433.879 267.72 433.829 267.77C433.939 267.54 434.069 267.17 434.419 267.74C434.779 267.33 435.549 267.23 435.289 266.14L435.359 266.31C435.149 265.59 435.509 266.09 435.509 265.67C435.559 265.74 435.599 265.77 435.619 265.8C435.429 265.08 436.069 265.4 436.059 265.05L436.299 265.43L436.599 265.13H436.419C435.839 264.05 437.079 265.63 436.919 264.8C437.239 264.79 436.089 262.33 436.639 262.7C436.459 262.14 437.019 263.56 436.959 263.08C437.299 263.62 437.089 263.47 437.389 263.88C437.399 263.52 438.009 264.27 437.999 263.77L438.269 264.19C438.069 263.25 439.129 264.43 438.859 263.58C438.929 263.06 439.819 264.72 439.609 263.71L440.079 264.21C440.259 264.22 439.739 263.45 440.049 263.64C440.259 264.01 440.399 263.82 440.529 264.21C441.199 264.58 440.679 263.01 441.689 263.7C441.339 262.94 441.809 263.23 441.549 262.66C441.749 262.96 441.999 262.45 442.179 263.26C442.189 263.33 442.149 263.34 442.079 263.22L442.309 263.65C443.039 264.28 442.469 262.95 442.779 262.92C442.619 262.83 442.549 262.92 442.439 262.6L442.689 262.52L442.859 262.9H443.309L442.989 262.49C443.289 262.61 443.809 263.31 443.599 262.58C443.469 262.19 443.079 262.1 443.159 261.85C443.559 262.01 444.159 262.25 444.509 262.2C444.179 261.73 444.259 261.7 444.269 261.56L444.549 261.97C444.459 261.2 445.249 262.82 445.229 262.18L445.389 262.49L444.899 261.57C444.619 260.58 445.599 262.35 445.149 261.03C445.079 261.17 444.499 260.14 444.759 260.23L444.989 260.66C445.009 260.53 444.929 260.34 445.029 260.39C445.129 260.64 445.389 260.99 445.449 260.85L445.699 261.4L445.429 260.52C445.879 260.85 445.779 260.13 446.219 260.66C446.219 260.66 446.749 260.71 446.429 260.03C446.609 260.46 446.899 260.48 447.139 260.97C446.949 260.47 446.979 259.94 447.399 260.33V260.4C448.129 260.61 447.669 259.3 448.409 259.64C448.069 259.17 448.439 259.31 447.979 258.72C447.939 257.87 449.489 259.52 448.349 257.53C448.449 257.32 448.849 257.84 448.999 257.88L449.029 258.01C449.239 257.64 449.319 257.56 449.579 257.45C449.579 257.19 448.989 256.3 449.339 256.37C449.509 256.76 449.549 256.64 449.629 256.59C449.619 256.68 449.689 256.82 449.949 256.98C449.889 256.86 449.869 256.78 449.849 256.71C449.869 256.74 449.889 256.76 449.909 256.79C449.959 256.58 449.859 256.49 449.769 256.48C449.739 256.42 449.689 256.36 449.599 256.28C450.039 256.64 449.949 255.99 450.379 256.58C450.669 256.18 450.529 255.37 450.689 254.92C450.939 255.2 451.049 255.53 451.039 255.71L451.189 255.44C451.489 255.88 451.229 255.78 451.219 255.92C451.989 256.45 451.289 254.82 452.059 255.25L451.879 254.86L451.939 254.9C451.809 254.72 451.709 254.42 451.709 254.32C452.019 254.67 452.319 255.21 452.459 255.07C452.839 255.35 452.679 254.64 452.699 254.32C452.569 254.32 452.449 254.09 452.389 253.92C452.459 253.85 452.769 254.2 452.719 253.99L453.089 254.5C452.719 254.04 452.919 253.83 452.809 253.6C453.119 253.95 452.919 254.01 453.099 254.32C453.379 254.05 453.239 254.19 453.519 253.92C453.409 253.41 453.149 253.46 452.909 252.95C452.989 252.75 452.869 252.29 453.259 252.48L452.879 252.06C452.899 251.51 453.099 251.45 453.619 251.77C453.309 249.19 452.489 247.86 451.769 247.16C451.049 246.47 450.409 246.41 450.409 246.41C448.909 245.97 449.449 247.58 448.759 248.6L448.809 248.65Z" fill="#20BB65"/>
<path d="M408.299 279.99L408.129 279.81C408.179 279.91 408.229 279.98 408.299 279.99Z" fill="#20BB65"/>
<path d="M406.129 273.05C405.089 273.22 404.389 272.34 403.619 273.18C403.129 273.31 402.739 273.75 402.349 274.07C402.479 274.94 401.769 274.34 401.799 275.1L401.509 274.71C401.519 274.97 401.489 275.17 401.289 274.97L401.239 274.84C401.259 275.23 401.019 275.1 401.029 275.29L400.979 275.16L400.849 275.29L400.799 275.1C400.729 275.55 400.499 275.68 400.229 275.61L400.479 276.13C399.779 275.73 400.099 276.9 399.389 276.37L399.339 276.24C399.439 277.86 398.129 275.62 398.179 277.18C398.179 276.99 398.029 276.92 397.979 276.79C397.809 277.05 397.579 277.23 398.029 278.29C397.849 278.35 397.749 278.02 397.549 277.63C397.749 278.09 397.669 278.34 397.549 278.43V278.23L397.209 278.55L397.649 279.39C397.339 279.23 397.149 278.35 397.039 278.65L397.349 279.37C396.999 279.35 396.369 278.33 395.869 277.91C394.589 278.08 394.089 280.44 392.489 279.61L392.219 279.08C391.879 278.29 392.399 280.38 392.059 279.66L392.079 280.07C391.989 279.94 391.849 279.82 391.839 279.62C391.709 279.64 391.759 279.77 391.769 280.04L391.449 279.6C390.839 279.4 390.829 280.51 390.259 280.51C389.279 279.73 388.549 281.09 388.119 281.87C387.679 283.41 385.429 280.62 385.029 282.33C384.959 282.23 384.979 282.51 385.009 282.6L384.129 282.8C384.129 282.8 383.079 283.1 382.729 284.09C382.379 285.08 382.689 286.77 385.489 289.53L385.529 289.71C386.159 289.96 386.489 289.95 386.489 288.95C386.939 290.01 386.919 288.92 387.159 289.23L387.179 289.32C387.159 288.38 388.029 289.79 388.029 288.94C388.049 289.03 388.159 289.33 388.099 289.37C388.249 289.16 388.429 288.81 388.689 289.44C389.109 289.09 389.889 289.13 389.809 288.01L389.859 288.19C389.779 287.45 390.049 288 390.109 287.58C390.149 287.66 390.179 287.69 390.189 287.73C390.119 286.99 390.699 287.41 390.749 287.07L390.919 287.48L391.259 287.24L391.079 287.21C390.679 286.05 391.639 287.82 391.629 286.97C391.939 287.01 391.219 284.4 391.699 284.85C391.619 284.27 391.929 285.76 391.959 285.28C392.199 285.87 392.019 285.69 392.249 286.14C392.319 285.79 392.789 286.63 392.869 286.14L393.059 286.6C393.019 285.64 393.869 286.98 393.749 286.1C393.909 285.6 394.509 287.39 394.459 286.36L394.839 286.93C395.019 286.98 394.629 286.13 394.909 286.37C395.059 286.77 395.229 286.61 395.289 287.02C395.889 287.5 395.639 285.86 396.509 286.72C396.299 285.92 396.709 286.28 396.549 285.67C396.699 286 397.029 285.54 397.069 286.36C397.069 286.43 397.029 286.43 396.979 286.3L397.129 286.76C397.739 287.51 397.409 286.1 397.719 286.12C397.579 286 397.499 286.08 397.439 285.74L397.699 285.7L397.809 286.1L398.259 286.18L398.019 285.73C398.289 285.9 398.689 286.68 398.609 285.93C398.539 285.52 398.179 285.36 398.299 285.14C398.659 285.36 399.209 285.71 399.569 285.72C399.319 285.2 399.409 285.19 399.439 285.05L399.639 285.51C399.689 284.74 400.179 286.47 400.279 285.83L400.389 286.16L400.069 285.17C399.969 284.14 400.619 286.06 400.409 284.69C400.319 284.82 399.919 283.7 400.159 283.84L400.309 284.3C400.349 284.17 400.309 283.97 400.399 284.04C400.449 284.3 400.649 284.69 400.739 284.57L400.889 285.16L400.779 284.25C401.159 284.65 401.189 283.93 401.529 284.52C401.529 284.52 402.049 284.66 401.839 283.94C401.939 284.4 402.229 284.47 402.379 284.99C402.269 284.47 402.399 283.95 402.739 284.41V284.48C403.409 284.81 403.179 283.44 403.849 283.9C403.599 283.38 403.929 283.58 403.589 282.92C403.699 282.08 404.929 283.97 404.159 281.82C404.289 281.63 404.589 282.21 404.739 282.28V282.41C405.009 282.09 405.099 282.02 405.379 281.96C405.419 281.7 405.009 280.72 405.339 280.86C405.439 281.28 405.499 281.17 405.579 281.13C405.549 281.22 405.599 281.36 405.829 281.57C405.789 281.44 405.779 281.36 405.779 281.29C405.789 281.32 405.809 281.34 405.829 281.38C405.909 281.18 405.829 281.07 405.739 281.05C405.719 280.99 405.679 280.92 405.609 280.82C405.979 281.25 406.009 280.6 406.319 281.25C406.679 280.9 406.679 280.09 406.909 279.67C407.099 279.99 407.159 280.33 407.109 280.51L407.309 280.27C407.529 280.76 407.289 280.62 407.259 280.75C407.919 281.4 407.519 279.68 408.199 280.24L408.099 279.82L408.149 279.87C408.059 279.67 408.009 279.35 408.029 279.26C408.269 279.66 408.479 280.24 408.639 280.13C408.969 280.48 408.939 279.75 409.009 279.43C408.879 279.4 408.799 279.15 408.779 278.98C408.859 278.93 409.109 279.33 409.089 279.11L409.359 279.68C409.079 279.16 409.319 278.99 409.239 278.74C409.489 279.14 409.269 279.17 409.399 279.5C409.719 279.29 409.559 279.39 409.879 279.18C409.859 278.66 409.589 278.66 409.449 278.11C409.559 277.92 409.529 277.45 409.879 277.71L409.579 277.23C409.699 276.69 409.909 276.67 410.359 277.08C410.519 274.48 409.969 273.03 409.379 272.21C408.789 271.4 408.179 271.23 408.179 271.23C406.779 270.53 407.019 272.21 406.149 273.09L406.129 273.05Z" fill="#20BB65"/>
<path d="M360.959 297.3L360.819 297.1C360.849 297.2 360.889 297.29 360.959 297.3Z" fill="#20BB65"/>
<path d="M359.899 290.11C358.839 290.11 358.289 289.14 357.399 289.85C356.889 289.9 356.439 290.28 355.999 290.53C355.999 291.41 355.379 290.71 355.299 291.46L355.069 291.02C355.039 291.28 354.969 291.47 354.819 291.24L354.789 291.1C354.749 291.49 354.539 291.32 354.509 291.51L354.479 291.37L354.329 291.47L354.309 291.27C354.169 291.71 353.929 291.79 353.659 291.68L353.829 292.24C353.199 291.73 353.329 292.94 352.719 292.31L352.689 292.17C352.539 293.79 351.589 291.37 351.399 292.92C351.419 292.73 351.299 292.64 351.269 292.5C351.059 292.73 350.809 292.88 351.079 293.98C350.889 294.01 350.839 293.67 350.709 293.25C350.829 293.73 350.719 293.98 350.589 294.04L350.609 293.84L350.239 294.11L350.549 295C350.259 294.79 350.219 293.9 350.059 294.17L350.249 294.93C349.909 294.86 349.449 293.75 349.019 293.26C347.729 293.23 346.869 295.49 345.409 294.41L345.229 293.85C345.009 293.02 345.199 295.16 344.979 294.4L344.939 294.81C344.869 294.67 344.749 294.53 344.779 294.32C344.649 294.32 344.679 294.45 344.649 294.73L344.399 294.24C343.829 293.95 343.639 295.05 343.089 294.96C342.239 294.04 341.309 295.27 340.769 295.98C340.099 297.44 338.299 294.33 337.649 295.96C337.589 295.85 337.569 296.13 337.589 296.23L336.689 296.29C336.689 296.29 335.609 296.42 335.109 297.35C334.609 298.27 334.659 299.99 336.999 303.14V303.33C337.589 303.68 337.929 303.71 338.079 302.72C338.359 303.84 338.509 302.75 338.699 303.1V303.19C338.829 302.26 339.469 303.78 339.599 302.95C339.599 303.04 339.669 303.35 339.599 303.39C339.779 303.2 340.019 302.89 340.169 303.54C340.639 303.26 341.399 303.42 341.499 302.3L341.519 302.49C341.549 301.74 341.729 302.33 341.859 301.93C341.889 302.01 341.909 302.05 341.919 302.09C341.969 301.35 342.479 301.85 342.569 301.52L342.679 301.95L343.049 301.76L342.879 301.7C342.669 300.49 343.349 302.39 343.459 301.55C343.759 301.64 343.459 298.94 343.859 299.47C343.859 298.88 343.949 300.41 344.049 299.93C344.199 300.55 344.049 300.34 344.209 300.83C344.339 300.49 344.669 301.39 344.819 300.92L344.939 301.4C345.049 300.44 345.679 301.9 345.689 301.01C345.919 300.54 346.239 302.4 346.359 301.37L346.639 302C346.809 302.07 346.559 301.17 346.789 301.45C346.879 301.87 347.069 301.73 347.069 302.15C347.579 302.71 347.589 301.06 348.329 302.04C348.239 301.21 348.599 301.63 348.529 301.01C348.629 301.36 349.019 300.95 348.939 301.78C348.939 301.85 348.889 301.85 348.859 301.71L348.939 302.19C349.429 303.02 349.319 301.58 349.619 301.65C349.499 301.51 349.409 301.58 349.399 301.24H349.669L349.709 301.66L350.139 301.8L349.969 301.32C350.209 301.53 350.479 302.36 350.519 301.6C350.519 301.19 350.189 300.98 350.339 300.77C350.669 301.05 351.159 301.47 351.499 301.54C351.329 300.99 351.419 300.99 351.479 300.85L351.609 301.33C351.769 300.58 351.989 302.36 352.189 301.75L352.239 302.09L352.079 301.06C352.139 300.03 352.489 302.02 352.489 300.63C352.379 300.74 352.159 299.58 352.369 299.75L352.449 300.23C352.509 300.11 352.489 299.91 352.579 299.99C352.589 300.25 352.719 300.68 352.829 300.56L352.889 301.16L352.919 300.24C353.239 300.69 353.379 299.99 353.619 300.63C353.619 300.63 354.109 300.85 354.019 300.1C354.049 300.57 354.319 300.68 354.389 301.22C354.369 300.69 354.569 300.19 354.839 300.7V300.77C355.439 301.2 355.429 299.81 356.009 300.37C355.839 299.82 356.139 300.06 355.899 299.36C356.139 298.54 357.059 300.61 356.629 298.36C356.789 298.19 356.999 298.82 357.129 298.9L357.109 299.03C357.429 298.75 357.519 298.7 357.809 298.68C357.889 298.43 357.629 297.4 357.939 297.58C357.969 298.01 358.049 297.91 358.139 297.88C358.099 297.96 358.119 298.11 358.309 298.35C358.289 298.22 358.299 298.13 358.309 298.06C358.309 298.09 358.329 298.12 358.339 298.16C358.449 297.98 358.389 297.86 358.309 297.82C358.299 297.76 358.269 297.68 358.219 297.57C358.519 298.05 358.639 297.42 358.849 298.11C359.259 297.82 359.379 297.02 359.679 296.64C359.819 296.99 359.819 297.33 359.749 297.5L359.979 297.29C360.119 297.81 359.909 297.63 359.859 297.76C360.409 298.51 360.279 296.74 360.869 297.41L360.829 296.98L360.869 297.04C360.809 296.82 360.809 296.51 360.849 296.42C361.029 296.85 361.139 297.46 361.309 297.38C361.579 297.77 361.659 297.05 361.779 296.75C361.659 296.7 361.619 296.44 361.619 296.27C361.709 296.23 361.889 296.66 361.899 296.45L362.079 297.05C361.879 296.49 362.149 296.37 362.109 296.11C362.289 296.54 362.079 296.54 362.149 296.88C362.499 296.72 362.329 296.8 362.679 296.64C362.749 296.13 362.479 296.08 362.419 295.52C362.559 295.35 362.609 294.88 362.909 295.19L362.689 294.67C362.889 294.16 363.099 294.16 363.479 294.65C364.049 292.11 363.729 290.58 363.279 289.69C362.829 288.79 362.249 288.53 362.249 288.53C360.969 287.61 360.949 289.32 359.949 290.05L359.899 290.11Z" fill="#20BB65"/>
<path d="M311.529 307.13L311.429 306.91C311.439 307.02 311.469 307.11 311.529 307.13Z" fill="#20BB65"/>
<path d="M291.939 309C291.939 309 291.939 309.03 291.919 309.05C291.929 309.03 291.939 309.01 291.939 309Z" fill="#20BB65"/>
<path d="M307.659 299.69C307.659 299.69 307.659 299.65 307.669 299.63L307.649 299.69H307.659Z" fill="#20BB65"/>
<path d="M311.579 299.87C310.529 299.71 310.139 298.67 309.149 299.23C308.639 299.2 308.139 299.51 307.659 299.69C307.519 300.56 307.019 299.77 306.819 300.51L306.659 300.05C306.589 300.3 306.499 300.48 306.379 300.23V300.09C306.269 300.47 306.089 300.27 306.039 300.46V300.32L305.869 300.4V300.2C305.669 300.61 305.419 300.66 305.179 300.51L305.259 301.09C304.709 300.49 304.659 301.71 304.149 300.99V300.85C303.749 302.43 303.179 299.9 302.749 301.4C302.799 301.21 302.689 301.11 302.679 300.96C302.439 301.15 302.169 301.26 302.269 302.4C302.079 302.4 302.079 302.06 302.019 301.62C302.069 302.12 301.919 302.34 301.779 302.38L301.829 302.18L301.419 302.39L301.589 303.32C301.339 303.07 301.429 302.18 301.229 302.43L301.299 303.21C300.969 303.09 300.679 301.92 300.329 301.38C299.049 301.16 297.869 303.25 296.589 301.97L296.489 301.39C296.399 300.54 296.259 302.68 296.159 301.89L296.049 302.29C295.999 302.14 295.909 301.98 295.959 301.78C295.829 301.76 295.839 301.9 295.769 302.16L295.599 301.64C295.079 301.26 294.729 302.32 294.189 302.15C293.489 301.11 292.379 302.18 291.739 302.81C290.859 304.15 289.549 300.8 288.659 302.32C288.619 302.2 288.549 302.48 288.559 302.58L287.659 302.5C287.659 302.5 286.569 302.47 285.929 303.3C285.299 304.14 285.079 305.84 286.919 309.31V309.5C287.429 309.93 287.749 310.02 288.049 309.06C288.159 310.21 288.469 309.16 288.599 309.52V309.61C288.849 308.71 289.259 310.31 289.509 309.51C289.509 309.6 289.509 309.92 289.449 309.94C289.659 309.78 289.939 309.51 289.989 310.18C290.489 309.98 291.229 310.24 291.489 309.16V309.35C291.619 308.62 291.709 309.23 291.899 308.85C291.919 308.94 291.929 308.98 291.929 309.02C292.089 308.29 292.519 308.87 292.659 308.56L292.699 309L293.099 308.87L292.939 308.78C292.909 307.55 293.299 309.53 293.539 308.72C293.829 308.86 293.929 306.14 294.249 306.72C294.349 306.14 294.189 307.66 294.369 307.2C294.419 307.84 294.299 307.61 294.389 308.11C294.569 307.79 294.759 308.74 294.979 308.29L295.019 308.79C295.279 307.86 295.669 309.4 295.819 308.52C296.119 308.09 296.149 309.98 296.419 308.98L296.599 309.64C296.759 309.74 296.639 308.81 296.829 309.12C296.849 309.54 297.059 309.44 296.999 309.85C297.419 310.48 297.679 308.85 298.259 309.93C298.299 309.1 298.589 309.57 298.609 308.95C298.649 309.31 299.109 308.97 298.889 309.77C298.869 309.84 298.829 309.83 298.819 309.69V310.18C299.179 311.08 299.289 309.63 299.579 309.75C299.479 309.6 299.379 309.65 299.419 309.31L299.679 309.35L299.659 309.77L300.059 309.98L299.959 309.48C300.169 309.72 300.309 310.58 300.459 309.84C300.519 309.43 300.219 309.17 300.409 309C300.689 309.32 301.109 309.81 301.439 309.94C301.359 309.37 301.439 309.38 301.519 309.26L301.569 309.76C301.849 309.04 301.789 310.84 302.079 310.26V310.61V309.57C302.289 308.56 302.339 310.58 302.549 309.21C302.429 309.31 302.389 308.12 302.569 308.32V308.8C302.649 308.69 302.669 308.49 302.739 308.58C302.709 308.84 302.779 309.28 302.899 309.18L302.869 309.79L303.039 308.89C303.279 309.38 303.529 308.71 303.669 309.38C303.669 309.38 304.119 309.67 304.139 308.92C304.099 309.39 304.349 309.54 304.339 310.08C304.399 309.55 304.679 309.09 304.859 309.63L304.839 309.69C305.369 310.21 305.569 308.83 306.069 309.48C305.989 308.91 306.249 309.2 306.119 308.47C306.479 307.7 307.079 309.88 306.999 307.59C307.189 307.45 307.289 308.1 307.409 308.2L307.379 308.33C307.729 308.1 307.839 308.07 308.119 308.09C308.229 307.85 308.139 306.8 308.409 307.02C308.379 307.45 308.469 307.36 308.559 307.35C308.509 307.42 308.509 307.58 308.659 307.85C308.659 307.72 308.679 307.64 308.699 307.57C308.699 307.6 308.709 307.63 308.709 307.67C308.849 307.5 308.809 307.38 308.729 307.33C308.729 307.27 308.709 307.18 308.679 307.07C308.899 307.59 309.119 306.98 309.219 307.7C309.669 307.48 309.909 306.7 310.269 306.38C310.359 306.74 310.309 307.08 310.209 307.24L310.469 307.07C310.529 307.6 310.349 307.4 310.279 307.51C310.709 308.33 310.849 306.57 311.329 307.31L311.359 306.88L311.389 306.95C311.359 306.73 311.409 306.41 311.459 306.34C311.569 306.8 311.589 307.41 311.769 307.36C311.969 307.79 312.169 307.09 312.329 306.81C312.209 306.75 312.219 306.48 312.239 306.31C312.329 306.28 312.439 306.74 312.489 306.53L312.579 307.15C312.469 306.57 312.749 306.48 312.749 306.22C312.859 306.68 312.649 306.64 312.669 306.99C313.039 306.88 312.859 306.94 313.229 306.83C313.369 306.33 313.119 306.24 313.149 305.68C313.309 305.54 313.429 305.08 313.679 305.43L313.539 304.88C313.819 304.41 314.029 304.44 314.319 304.98C315.269 302.56 315.179 301 314.879 300.05C314.569 299.1 314.029 298.75 314.029 298.75C312.909 297.65 312.619 299.33 311.529 299.91L311.579 299.87Z" fill="#20BB65"/>
</svg>
