<svg width="107" height="115" viewBox="0 0 107 115" fill="none" xmlns="http://www.w3.org/2000/svg">
<path d="M5.57959 71.8101C5.48959 71.5101 5.41959 71.22 5.32959 70.92C5.24959 70.63 5.1596 70.34 5.0896 70.05C4.9596 69.57 4.84956 69.09 4.73956 68.61C4.67956 68.35 4.60957 68.1 4.55957 67.84C4.54957 67.78 4.52959 67.73 4.51959 67.67C4.47959 67.49 4.44956 67.3 4.41956 67.12C4.28956 66.47 4.16957 65.8299 4.05957 65.1899C4.00957 64.8799 3.95956 64.58 3.91956 64.27C3.82956 63.69 3.75958 63.11 3.68958 62.53C3.66958 62.35 3.63957 62.18 3.61957 62C3.59957 61.83 3.58959 61.65 3.57959 61.48C3.54959 61.17 3.52957 60.8601 3.49957 60.55C3.46957 60.12 3.43956 59.7 3.41956 59.27C3.39956 58.96 3.38958 58.66 3.37958 58.35C3.36958 57.92 3.35955 57.4899 3.34955 57.0699C3.34955 56.7699 3.34955 56.4801 3.34955 56.1801C3.34955 55.7401 3.36958 55.3 3.37958 54.86C3.37958 54.58 3.38955 54.31 3.40955 54.03C3.42955 53.54 3.46958 53.0499 3.50958 52.5699C3.52958 52.3499 3.53957 52.13 3.55957 51.91C3.61957 51.21 3.69956 50.5101 3.79956 49.8101C3.80956 49.7301 3.8296 49.65 3.8396 49.58C3.9296 48.96 4.01958 48.35 4.12958 47.75C4.16958 47.51 4.21959 47.28 4.26959 47.05C4.33959 46.69 4.40955 46.32 4.47955 45.96C4.48955 45.9 4.5096 45.84 4.5296 45.77C4.7196 44.93 4.9196 44.1 5.1496 43.27C5.1896 43.11 5.23955 42.9601 5.28955 42.8101C5.48955 42.1401 5.68956 41.4701 5.91956 40.8101C5.95956 40.7001 5.9896 40.58 6.0296 40.47C6.0996 40.26 6.17958 40.06 6.25958 39.85C6.35958 39.56 6.46959 39.28 6.57959 39C6.71959 38.64 6.86958 38.2801 7.00958 37.9301C7.11958 37.6601 7.23956 37.38 7.35956 37.11C7.39956 37.01 7.43955 36.9099 7.47955 36.8199C7.63955 36.4599 7.80955 36.11 7.97955 35.76C8.03955 35.64 8.0896 35.52 8.1496 35.4C8.4096 34.88 8.66958 34.36 8.94958 33.85C8.97959 33.8 8.9996 33.76 9.0296 33.71C9.0896 33.59 9.15955 33.48 9.22955 33.36C9.46955 32.92 9.72955 32.4899 9.97955 32.0699C10.0696 31.9199 10.1596 31.77 10.2496 31.63C10.3196 31.52 10.3796 31.41 10.4496 31.3C10.5396 31.17 10.6295 31.04 10.7195 30.91C11.0395 30.41 11.3795 29.93 11.7195 29.45C11.8095 29.33 11.8795 29.2 11.9695 29.08C12.0395 28.99 12.1096 28.9001 12.1796 28.8101C12.5196 28.3501 12.8696 27.91 13.2296 27.47C13.3296 27.34 13.4296 27.21 13.5396 27.08C13.5696 27.04 13.6096 27.01 13.6396 26.97C14.1296 26.39 14.6296 25.83 15.1496 25.28C15.1496 25.28 15.1696 25.26 15.1696 25.25C15.2396 25.18 15.3196 25.11 15.3896 25.04C15.8296 24.59 16.2696 24.14 16.7296 23.71C16.7796 23.67 16.8196 23.6199 16.8696 23.5699C17.0096 23.4399 17.1596 23.3199 17.3096 23.1899C17.6696 22.8699 18.0196 22.55 18.3896 22.25C18.4796 22.18 18.5596 22.1 18.6396 22.03C18.7696 21.92 18.9196 21.82 19.0496 21.72C19.4096 21.43 19.7796 21.15 20.1496 20.88C20.2796 20.79 20.3896 20.69 20.5196 20.6C20.6296 20.52 20.7395 20.46 20.8495 20.38C21.2495 20.1 21.6596 19.8299 22.0696 19.5699C22.2296 19.4699 22.3696 19.36 22.5296 19.26C22.6396 19.19 22.7496 19.1299 22.8596 19.0699C22.9696 18.9999 23.0796 18.94 23.1896 18.88C23.6896 18.59 24.1896 18.3 24.7096 18.03C24.7296 18.02 24.7496 18.01 24.7696 18C24.8196 17.97 24.8796 17.95 24.9296 17.92C25.4296 17.66 25.9296 17.4199 26.4396 17.1899C26.5696 17.1299 26.6896 17.07 26.8196 17.02C26.9196 16.98 27.0196 16.93 27.1196 16.88C27.5896 16.68 28.0596 16.49 28.5396 16.3C28.5996 16.28 28.6696 16.25 28.7296 16.23C29.1096 16.09 29.4996 15.9501 29.8796 15.8101C30.0996 15.7401 30.3196 15.66 30.5496 15.59L39.1896 12.87C38.5696 13.06 37.9696 13.28 37.3696 13.5C37.3096 13.52 37.2396 13.5499 37.1796 13.5699C36.5996 13.7899 36.0296 14.03 35.4596 14.28C35.3296 14.34 35.1996 14.4 35.0796 14.45C34.5696 14.68 34.0696 14.9201 33.5796 15.1801C33.5296 15.2101 33.4695 15.23 33.4095 15.26C32.8795 15.54 32.3496 15.83 31.8396 16.14C31.7296 16.2 31.6196 16.27 31.5096 16.33C31.2396 16.49 30.9795 16.66 30.7195 16.83C30.3095 17.09 29.8996 17.36 29.4996 17.64C29.2596 17.8 29.0296 17.97 28.7996 18.14C28.4296 18.41 28.0596 18.7 27.6996 18.98C27.4796 19.16 27.2495 19.33 27.0396 19.51C26.6695 19.82 26.3096 20.13 25.9496 20.46C25.7596 20.63 25.5596 20.8 25.3796 20.98C24.9196 21.41 24.4696 21.8601 24.0296 22.3101C23.9496 22.3901 23.8696 22.47 23.7896 22.55C23.2696 23.1 22.7696 23.66 22.2796 24.24C22.1396 24.4 22.0096 24.57 21.8796 24.74C21.5196 25.18 21.1696 25.62 20.8296 26.08C20.6696 26.29 20.5196 26.5 20.3696 26.72C20.0296 27.2 19.6896 27.6901 19.3696 28.1801C19.2096 28.4201 19.0496 28.65 18.8996 28.9C18.8096 29.05 18.7196 29.19 18.6296 29.34C18.3696 29.77 18.1196 30.2 17.8796 30.63C17.8196 30.75 17.7496 30.86 17.6796 30.98C17.3796 31.54 17.0796 32.1 16.7996 32.67C16.7396 32.79 16.6896 32.91 16.6296 33.03C16.4096 33.48 16.2096 33.93 15.9996 34.39C15.8796 34.66 15.7696 34.93 15.6496 35.21C15.4996 35.57 15.3595 35.92 15.2195 36.28C15.1095 36.56 15.0096 36.85 14.8996 37.13C14.7796 37.45 14.6696 37.77 14.5596 38.09C14.3396 38.75 14.1296 39.42 13.9296 40.09C13.8896 40.24 13.8296 40.4 13.7896 40.55C13.5596 41.37 13.3496 42.21 13.1696 43.05C13.0796 43.47 12.9895 43.9 12.9095 44.33C12.8595 44.56 12.8096 44.8 12.7696 45.03C12.6596 45.64 12.5696 46.25 12.4796 46.86C12.4696 46.94 12.4496 47.02 12.4396 47.09C12.3496 47.78 12.2696 48.4799 12.1996 49.1899C12.1796 49.4099 12.1696 49.63 12.1496 49.85C12.1096 50.34 12.0696 50.8199 12.0496 51.3199C12.0396 51.5899 12.0296 51.87 12.0196 52.15C12.0096 52.59 11.9896 53.03 11.9896 53.47C11.9896 53.77 11.9896 54.06 11.9896 54.36C11.9896 54.79 11.9996 55.21 12.0196 55.64C12.0296 55.95 12.0496 56.2501 12.0596 56.5601C12.0796 56.9801 12.1096 57.41 12.1396 57.84C12.1596 58.15 12.1895 58.46 12.2195 58.77C12.2495 59.12 12.2896 59.4699 12.3296 59.8199C12.3996 60.3999 12.4696 60.9801 12.5596 61.5601C12.6096 61.8701 12.6496 62.17 12.6996 62.48C12.8096 63.12 12.9296 63.77 13.0596 64.41C13.1096 64.65 13.1496 64.89 13.1996 65.13C13.2596 65.39 13.3196 65.64 13.3796 65.9C13.4896 66.38 13.6096 66.86 13.7296 67.34C13.8096 67.63 13.8895 67.92 13.9695 68.21C14.1295 68.78 14.2895 69.35 14.4695 69.92C14.7295 70.75 15.0096 71.57 15.3096 72.37C15.5496 73.01 15.7896 73.65 16.0496 74.28C16.1096 74.43 16.1696 74.57 16.2396 74.72C16.4096 75.13 16.5896 75.52 16.7696 75.92C17.0296 76.5 17.2996 77.07 17.5796 77.64C17.6996 77.89 17.8296 78.15 17.9496 78.4C18.2796 79.04 18.6195 79.6701 18.9695 80.3C19.0395 80.43 19.1096 80.5601 19.1796 80.6801C19.5996 81.4101 20.0396 82.1199 20.4796 82.8199C20.6096 83.0199 20.7496 83.22 20.8796 83.41C21.1996 83.9 21.5296 84.39 21.8696 84.86C22.0496 85.11 22.2295 85.35 22.4095 85.59C22.7195 86.01 23.0296 86.43 23.3596 86.83C23.5596 87.08 23.7596 87.3199 23.9496 87.5699C24.2796 87.9699 24.6096 88.36 24.9496 88.75C25.1496 88.98 25.3496 89.2099 25.5496 89.4399C25.9496 89.8899 26.3696 90.32 26.7896 90.75C26.9496 90.91 27.0996 91.08 27.2696 91.24C27.8696 91.84 28.4796 92.42 29.1096 92.98C29.2396 93.09 29.3696 93.2001 29.4896 93.3101C30.0396 93.7901 30.5896 94.26 31.1496 94.71C31.3496 94.87 31.5396 95.02 31.7396 95.17C32.4896 95.75 33.2496 96.32 34.0196 96.85C34.0196 96.85 34.0196 96.85 34.0296 96.85C34.0396 96.86 34.0596 96.87 34.0696 96.88C34.5996 97.24 35.1396 97.5901 35.6896 97.9301C35.8696 98.0401 36.0596 98.15 36.2496 98.26C36.6196 98.48 36.9896 98.7 37.3596 98.91C37.7396 99.12 38.1096 99.32 38.4896 99.52C38.7496 99.66 39.0196 99.8001 39.2796 99.9301C39.6896 100.13 40.0996 100.32 40.5196 100.51C40.7696 100.62 41.0096 100.74 41.2596 100.85C41.4196 100.92 41.5696 100.98 41.7296 101.05C42.1596 101.23 42.5896 101.41 43.0296 101.57C43.2396 101.65 43.4495 101.72 43.6595 101.8C44.0495 101.94 44.4495 102.08 44.8495 102.21C45.0695 102.28 45.2796 102.35 45.4996 102.42C45.9196 102.55 46.3396 102.67 46.7596 102.78C46.9496 102.83 47.1296 102.89 47.3196 102.93C47.9296 103.09 48.5396 103.23 49.1496 103.36C49.1896 103.36 49.2396 103.38 49.2796 103.38C49.8496 103.49 50.4196 103.6 50.9896 103.68C51.1896 103.71 51.3896 103.74 51.5896 103.76C52.0096 103.82 52.4296 103.87 52.8596 103.92C53.0896 103.94 53.3096 103.96 53.5396 103.98C53.9496 104.02 54.3696 104.04 54.7796 104.06C54.9996 104.07 55.2096 104.08 55.4296 104.09C55.9096 104.11 56.3896 104.11 56.8696 104.11C57.0196 104.11 57.1596 104.11 57.3096 104.11C57.9296 104.1 58.5596 104.07 59.1796 104.03C59.3396 104.02 59.4896 104 59.6496 103.99C60.1196 103.95 60.5896 103.9 61.0596 103.85C61.2796 103.82 61.4995 103.79 61.7195 103.76C62.1295 103.7 62.5496 103.63 62.9596 103.56C63.1896 103.52 63.4096 103.48 63.6396 103.43C64.0696 103.34 64.4996 103.25 64.9196 103.15C65.1196 103.1 65.3196 103.06 65.5196 103.01C66.1396 102.85 66.7496 102.68 67.3696 102.49L58.7296 105.21C58.1096 105.4 57.4896 105.58 56.8696 105.74C56.6696 105.79 56.4696 105.83 56.2796 105.88C55.8496 105.98 55.4196 106.08 54.9896 106.17C54.7596 106.22 54.5396 106.26 54.3096 106.3C53.8896 106.37 53.4796 106.44 53.0596 106.5C52.8396 106.53 52.6196 106.56 52.3996 106.59C51.9296 106.65 51.4596 106.7 50.9896 106.73C50.8296 106.74 50.6796 106.76 50.5196 106.77C49.8996 106.81 49.2696 106.84 48.6496 106.85C48.4996 106.85 48.3596 106.85 48.2096 106.85C47.7296 106.85 47.2496 106.85 46.7696 106.83C46.5496 106.83 46.3396 106.81 46.1196 106.8C45.7096 106.78 45.2896 106.75 44.8796 106.72C44.6496 106.7 44.4296 106.68 44.1996 106.66C43.7796 106.62 43.3496 106.56 42.9296 106.5C42.7296 106.47 42.5296 106.45 42.3296 106.42C41.7596 106.33 41.1896 106.23 40.6196 106.12C40.5796 106.12 40.5296 106.1 40.4896 106.1C39.8796 105.97 39.2695 105.83 38.6595 105.67C38.4695 105.62 38.2895 105.57 38.0995 105.52C37.6796 105.4 37.2596 105.28 36.8396 105.16C36.6196 105.09 36.4096 105.02 36.1896 104.95C35.7896 104.82 35.3996 104.68 34.9996 104.54C34.7896 104.46 34.5796 104.39 34.3696 104.31C33.9296 104.14 33.4996 103.97 33.0696 103.79C32.9096 103.72 32.7495 103.66 32.5995 103.59C32.5595 103.57 32.5196 103.56 32.4796 103.54C32.2696 103.45 32.0696 103.34 31.8596 103.25C31.4496 103.06 31.0296 102.87 30.6196 102.67C30.3496 102.54 30.0896 102.4 29.8296 102.26C29.4496 102.06 29.0696 101.86 28.6996 101.65C28.6196 101.61 28.5396 101.57 28.4596 101.52C28.1696 101.35 27.8796 101.17 27.5896 101C27.4096 100.89 27.2196 100.78 27.0396 100.67C26.4896 100.33 25.9496 99.98 25.4196 99.62C25.4096 99.61 25.3896 99.6 25.3796 99.59C24.5996 99.06 23.8395 98.49 23.0995 97.91C23.0095 97.84 22.9096 97.77 22.8096 97.7C22.7096 97.6199 22.6096 97.53 22.5096 97.45C21.9496 97 21.3895 96.5301 20.8495 96.05C20.7495 95.9601 20.6496 95.89 20.5496 95.8C20.5196 95.7701 20.4896 95.74 20.4596 95.72C19.8296 95.16 19.2196 94.58 18.6196 93.98C18.5896 93.95 18.5496 93.91 18.5096 93.88C18.3796 93.75 18.2696 93.62 18.1396 93.49C17.7196 93.06 17.3096 92.6201 16.8996 92.1801C16.8196 92.0901 16.7296 92.01 16.6496 91.92C16.5296 91.78 16.4096 91.63 16.2896 91.49C15.9496 91.1 15.6196 90.7101 15.2896 90.3101C15.1796 90.1801 15.0596 90.05 14.9496 89.91C14.8596 89.8 14.7796 89.6799 14.6896 89.5699C14.3696 89.1599 14.0596 88.75 13.7396 88.33C13.6096 88.16 13.4796 88 13.3596 87.83C13.3096 87.75 13.2596 87.67 13.1996 87.6C12.8596 87.12 12.5296 86.64 12.2096 86.15C12.0996 85.98 11.9796 85.83 11.8696 85.66C11.8496 85.63 11.8296 85.5901 11.8096 85.5601C11.3596 84.8601 10.9196 84.15 10.5096 83.42C10.5096 83.4 10.4896 83.39 10.4796 83.37C10.4196 83.26 10.3596 83.15 10.2996 83.04C9.94956 82.42 9.5996 81.79 9.2796 81.14C9.2396 81.06 9.1896 80.98 9.1496 80.9C9.0596 80.73 8.9896 80.55 8.8996 80.38C8.6196 79.81 8.3496 79.24 8.0896 78.66C8.0196 78.51 7.94958 78.37 7.87958 78.22C7.76958 77.97 7.65957 77.71 7.55957 77.46C7.49957 77.31 7.42957 77.17 7.36957 77.02C7.12957 76.44 6.89957 75.85 6.67957 75.26C6.65957 75.21 6.64958 75.16 6.62958 75.12C6.32958 74.31 6.04955 73.5 5.78955 72.67C5.69955 72.4 5.61955 72.12 5.53955 71.85L5.57959 71.8101Z" fill="#FFAE00"/>
<path d="M67.4564 102.427C88.8941 95.6674 99.9464 70.1235 92.1426 45.3727C84.3387 20.622 60.6338 6.03706 39.1961 12.7963C17.7585 19.5556 6.70617 45.0995 14.51 69.8502C22.3139 94.6009 46.0188 109.186 67.4564 102.427Z" fill="#FFD733"/>
<path d="M69.5896 101.73C74.8796 99.7299 79.6596 96.4199 83.4896 92.2499C87.3196 88.0599 90.2096 83.0499 92.0896 77.6999C93.9696 72.3499 94.8596 66.6599 94.8196 60.9899C94.7796 55.3099 93.7896 49.65 91.9796 44.27C88.3696 33.52 81.2396 23.8799 71.6796 17.7299C66.9096 14.6599 61.5496 12.4899 55.9396 11.5799C50.3396 10.6899 44.5395 11.0999 39.1595 12.8499C44.5595 11.1799 50.3496 10.8599 55.8996 11.8299C61.4596 12.7699 66.7796 14.9399 71.4896 18.0099C80.9496 24.1699 87.9696 33.76 91.4996 44.43C93.3196 49.75 94.3296 55.3599 94.3996 60.9899C94.4696 66.6199 93.6096 72.2599 91.7696 77.5899C89.9396 82.9099 87.0796 87.8999 83.3096 92.0799C79.5596 96.2799 74.8496 99.6499 69.5896 101.73Z" fill="#EDB400"/>
</svg>
