<svg width="450" height="100" viewBox="0 0 450 100" fill="none" xmlns="http://www.w3.org/2000/svg">
<path d="M400 0H50C22.3858 0 0 22.3858 0 50C0 77.6142 22.3858 100 50 100H400C427.614 100 450 77.6142 450 50C450 22.3858 427.614 0 400 0Z" fill="#02B14F"/>
<path d="M359.655 61.43C360.285 61.43 361.44 61.255 362.525 61.01V64.825C361.65 65.14 360.04 65.35 358.745 65.35C355.385 65.35 353.53 63.495 353.53 60.1V49.775H350.31V46.03H353.53V41.97H357.555V46.03H362.105V49.775H357.555V59.33C357.555 60.59 358.395 61.43 359.655 61.43Z" fill="white"/>
<path d="M336.013 64.9999V53.7999C336.013 48.2349 338.743 45.3999 344.098 45.3999C345.463 45.3999 346.478 45.5749 347.598 46.0299V49.7749C346.723 49.4249 345.498 49.2149 344.518 49.2149C341.613 49.2149 340.038 50.9999 340.038 54.2199V64.9999H336.013Z" fill="white"/>
<path d="M322.827 65.5249C317.052 65.5249 313.132 61.4299 313.132 55.4799C313.132 49.4949 317.087 45.3999 322.827 45.3999C328.602 45.3999 332.522 49.4949 332.522 55.4799C332.522 61.4649 328.602 65.5249 322.827 65.5249ZM322.827 61.7099C326.117 61.7099 328.497 59.0849 328.497 55.4799C328.497 51.8399 326.117 49.2149 322.827 49.2149C319.537 49.2149 317.157 51.8399 317.157 55.4799C317.157 59.0849 319.537 61.7099 322.827 61.7099Z" fill="white"/>
<path d="M307.864 37.4199C308.879 37.4199 310.139 37.6299 311.854 38.1199V41.7599L311.749 41.8649C310.454 41.4799 309.159 41.2699 308.249 41.2699C306.569 41.2699 305.869 42.0749 305.869 44.1049V46.0299H311.469V49.7749H305.869V64.9999H301.844V49.7749H294.074V64.9999H290.049V49.7749H287.074V46.0299H290.049V44.0349C290.049 39.9399 292.639 37.4199 296.769 37.4199C298.239 37.4199 299.744 37.8049 300.584 38.3999C299.954 39.2399 299.499 40.3949 299.289 41.7249C298.659 41.3749 297.889 41.1999 297.014 41.1999C295.264 41.1999 294.074 42.4599 294.074 44.3849V46.0299H301.844V43.9299C301.844 39.8349 304.049 37.4199 307.864 37.4199Z" fill="white"/>
<path d="M284.777 54.7449C284.777 55.6549 284.707 56.6349 284.637 57.0199H270.917C271.477 60.0999 273.752 61.6749 277.567 61.6749C280.017 61.6749 282.432 61.0449 284.112 59.9599L284.217 60.0649V63.7049C282.502 64.8599 279.912 65.5249 277.112 65.5249C270.077 65.5249 266.647 61.2199 266.647 55.1649C266.647 48.9349 270.707 45.3999 276.027 45.3999C281.382 45.3999 284.777 48.8999 284.777 54.7449ZM270.812 53.6599H280.787C280.787 51.0349 278.862 49.1799 275.957 49.1799C273.192 49.1799 271.232 50.7899 270.812 53.6599Z" fill="white"/>
<path d="M247.8 65.5249C245.665 65.5249 243.495 65.0349 241.605 64.1249V60.2749L241.71 60.2049C243.985 61.2549 245.77 61.7099 247.8 61.7099C250.355 61.7099 251.65 61.0099 251.65 59.5749C251.65 58.4549 250.88 57.8249 248.57 57.2649L246.68 56.8099C243.355 56.0049 241.185 54.5349 241.185 51.2449C241.185 47.4999 244.02 45.3999 249.06 45.3999C251.23 45.3999 253.12 45.7849 254.485 46.4849V50.3349L254.38 50.4049C252.875 49.6349 250.775 49.1799 248.885 49.1799C246.645 49.1799 245.455 49.8449 245.455 51.1049C245.455 52.3999 246.785 52.8199 249.13 53.3449L250.67 53.6949C253.4 54.3249 255.745 55.9699 255.745 59.3649C255.745 63.1799 252.7 65.5249 247.8 65.5249Z" fill="white"/>
<path d="M235.306 43.475C233.836 43.475 232.786 42.46 232.786 41.06C232.786 39.66 233.836 38.645 235.306 38.645C236.776 38.645 237.826 39.66 237.826 41.06C237.826 42.46 236.776 43.475 235.306 43.475ZM233.311 65V46.03H237.336V65H233.311Z" fill="white"/>
<path d="M211.715 64.9999V37.8049H215.74V47.8849H215.915C217.07 46.3799 219.24 45.3999 221.48 45.3999C226.1 45.3999 228.83 48.3749 228.83 53.4849V64.9999H224.805V53.7999C224.805 51.0349 223.02 49.2499 220.255 49.2499C217.525 49.2499 215.74 51.0349 215.74 53.7999V64.9999H211.715Z" fill="white"/>
<path d="M205.641 61.43C206.271 61.43 207.426 61.255 208.511 61.01V64.825C207.636 65.14 206.026 65.35 204.731 65.35C201.371 65.35 199.516 63.495 199.516 60.1V49.775H196.296V46.03H199.516V41.97H203.541V46.03H208.091V49.775H203.541V59.33C203.541 60.59 204.381 61.43 205.641 61.43Z" fill="white"/>
<path d="M185.861 54.7449C185.861 55.6549 185.791 56.6349 185.721 57.0199H172.001C172.561 60.0999 174.836 61.6749 178.651 61.6749C181.101 61.6749 183.516 61.0449 185.196 59.9599L185.301 60.0649V63.7049C183.586 64.8599 180.996 65.5249 178.196 65.5249C171.161 65.5249 167.731 61.2199 167.731 55.1649C167.731 48.9349 171.791 45.3999 177.111 45.3999C182.466 45.3999 185.861 48.8999 185.861 54.7449ZM171.896 53.6599H181.871C181.871 51.0349 179.946 49.1799 177.041 49.1799C174.276 49.1799 172.316 50.7899 171.896 53.6599Z" fill="white"/>
<path d="M154.211 64.9999V54.0799C154.211 48.4099 157.046 45.3999 162.401 45.3999C164.011 45.3999 166.041 46.0649 167.126 46.9399C166.321 48.0949 165.936 48.7949 165.551 49.9149L165.411 50.0199C164.466 49.4949 163.381 49.2149 162.296 49.2149C159.706 49.2149 158.236 51.0699 158.236 54.4299V64.9999H154.211Z" fill="white"/>
<path d="M139.85 65.5249C134.25 65.5249 130.715 61.6399 130.715 55.5149C130.715 49.4949 134.6 45.3999 140.375 45.3999C146.29 45.3999 150.07 49.2149 150.07 55.1649V64.9999H146.15V62.1299H145.975C144.785 64.1949 142.405 65.5249 139.85 65.5249ZM140.375 61.6749C143.735 61.6749 146.045 59.0849 146.045 55.3049C146.045 51.6999 143.735 49.2149 140.375 49.2149C137.015 49.2149 134.74 51.6999 134.74 55.4099C134.74 59.1549 137.015 61.6749 140.375 61.6749Z" fill="white"/>
<path d="M110.099 64.9999V37.8049H114.124V47.8849H114.299C115.454 46.3799 117.624 45.3999 119.864 45.3999C124.484 45.3999 127.214 48.3749 127.214 53.4849V64.9999H123.189V53.7999C123.189 51.0349 121.404 49.2499 118.639 49.2499C115.909 49.2499 114.124 51.0349 114.124 53.7999V64.9999H110.099Z" fill="white"/>
<path d="M96.667 65.5249C93.832 65.5249 91.452 64.9999 88.862 63.8449V59.8199L89.002 59.7149C91.802 60.9399 94.462 61.6049 96.527 61.6049C99.747 61.6049 101.812 60.2049 101.812 58.0699C101.812 55.7949 99.432 54.9199 97.402 54.2899L95.372 53.6599C91.312 52.3999 88.792 50.8599 88.792 46.4149C88.792 42.2149 92.467 39.2749 97.717 39.2749C99.957 39.2749 102.442 39.7299 104.437 40.5349V44.3849L104.297 44.4899C102.547 43.7199 99.817 43.1949 97.647 43.1949C94.812 43.1949 93.097 44.3499 93.097 46.2399C93.097 48.2699 94.462 49.0049 97.192 49.8099L99.222 50.4049C102.652 51.4199 106.012 52.7499 106.012 57.8249C106.012 62.4799 102.337 65.5249 96.667 65.5249Z" fill="white"/>
</svg>
