<svg width="339" height="284" viewBox="0 0 339 284" fill="none" xmlns="http://www.w3.org/2000/svg">
<path d="M8.2995 2.32019L8.08954 2.37018C8.18954 2.37018 8.2695 2.35019 8.2995 2.32019Z" fill="#20BB65"/>
<path d="M1.58955 2.28019C1.35955 2.79019 0.359515 2.99015 0.799515 3.49015C0.739515 3.75015 0.989532 3.99014 1.12953 4.23014C1.91953 4.28014 1.16954 4.55016 1.82954 4.63016L1.38954 4.72013C1.61954 4.75013 1.77951 4.79014 1.53951 4.86014H1.4095C1.7495 4.91014 1.55951 5.01019 1.72951 5.03019H1.5995L1.6595 5.12015H1.4695C1.8395 5.21015 1.8695 5.33018 1.7195 5.46018L2.25954 5.40018C1.67954 5.69018 2.79951 5.67017 2.10951 5.95017H1.97951C3.41951 6.09017 1.05952 6.48015 2.42952 6.62015C2.25952 6.60015 2.15955 6.66015 2.01955 6.68015C2.18955 6.79015 2.27954 6.92016 3.32954 6.81016C3.32954 6.90016 3.0095 6.92014 2.5995 6.98014C3.0595 6.93014 3.25951 6.98016 3.29951 7.06016H3.11952L3.29951 7.23014L4.16951 7.09018C3.92951 7.23018 3.10954 7.24017 3.32954 7.32017L4.04951 7.24015C3.92951 7.41015 2.83954 7.62017 2.32954 7.83017C2.09954 8.49017 4.01954 8.89016 2.82954 9.63016L2.28951 9.73014C1.49951 9.85014 3.47953 9.73013 2.74953 9.85013H3.11952C2.97952 9.90013 2.83955 9.96018 2.64955 9.96018C2.62955 10.0302 2.75953 10.0102 2.99953 10.0202L2.51955 10.1601C2.17955 10.4601 3.14953 10.5201 2.99953 10.8001C2.04953 11.2601 3.05955 11.6902 3.64955 11.9302C4.89955 12.1802 1.86951 13.2802 3.29951 13.5102C3.18951 13.5502 3.44951 13.5402 3.53951 13.5202L3.50954 13.9701C3.50954 13.9701 3.53955 14.5102 4.33955 14.6802C5.13955 14.8602 6.6995 14.6201 9.78951 13.2301L9.95955 13.2102C10.3295 12.9102 10.3895 12.7602 9.50954 12.7702C10.5595 12.5402 9.5795 12.5702 9.9095 12.4502H9.99953C9.16953 12.4502 10.6195 12.0401 9.86952 12.0501C9.94952 12.0401 10.2395 11.9902 10.2695 12.0102C10.1195 11.9402 9.8595 11.8601 10.4695 11.7401C10.2695 11.5501 10.4995 11.1901 9.48952 11.2201L9.6595 11.2002C8.9795 11.2302 9.53953 11.1102 9.18953 11.0802C9.26953 11.0602 9.30955 11.0501 9.33955 11.0401C8.66955 11.0601 9.18955 10.8002 8.89955 10.7702L9.30952 10.7002L9.18953 10.5401L9.10951 10.6202C7.97951 10.7802 9.78951 10.3701 9.03951 10.3601C9.1595 10.2201 6.65953 10.4902 7.18953 10.2702C6.64953 10.2902 8.04953 10.1901 7.62953 10.1601C8.21953 10.0701 7.9995 10.1401 8.4695 10.0501C8.1795 10.0001 9.04953 9.81017 8.62953 9.76017L9.08955 9.69016C8.22955 9.67016 9.64955 9.33014 8.83955 9.36014C8.43955 9.27014 10.1795 9.06014 9.26955 9.04014L9.87953 8.89017C9.96953 8.81017 9.10955 8.95018 9.39955 8.84019C9.78955 8.79018 9.69953 8.70016 10.0695 8.69016C10.6595 8.44016 9.1595 8.48016 10.1595 8.13016C9.3895 8.19016 9.82954 8.02016 9.25954 8.06016C9.58954 8.01016 9.28955 7.84014 10.0195 7.86014C10.0795 7.86014 10.0695 7.88018 9.93953 7.90018L10.3895 7.85013C11.2295 7.62013 9.88954 7.69015 10.0095 7.55015C9.85954 7.60015 9.9095 7.65013 9.5995 7.66013L9.64955 7.54014L10.0296 7.52018L10.2295 7.33017L9.75954 7.41013C9.98954 7.30013 10.7895 7.17013 10.1095 7.16013C9.72951 7.16013 9.48954 7.32016 9.32954 7.25016C9.63954 7.10016 10.0995 6.88013 10.2295 6.72013C9.69951 6.80013 9.7195 6.76013 9.5995 6.72013L10.0595 6.66013C9.39952 6.59013 11.0595 6.49018 10.5395 6.40018L10.8595 6.38016L9.88954 6.45017C8.95954 6.42017 10.8395 6.27017 9.56953 6.26017C9.64953 6.31017 8.55953 6.40016 8.74953 6.31016L9.19954 6.28019C9.09954 6.25019 8.90953 6.26013 8.99953 6.22013C9.23953 6.22013 9.64952 6.16014 9.55952 6.11014L10.1195 6.09018L9.28951 6.07017C9.75951 5.93017 9.14955 5.86017 9.76955 5.76017C9.76955 5.76017 10.0595 5.55017 9.36952 5.57017C9.79952 5.57017 9.94955 5.45014 10.4595 5.42014C9.96955 5.42014 9.55953 5.32018 10.0695 5.21018H10.1295C10.6395 4.96018 9.37953 4.93015 9.99953 4.68015C9.46953 4.74015 9.74953 4.61017 9.06953 4.70017C8.37953 4.56017 10.4295 4.22019 8.30952 4.34018C8.18952 4.26019 8.79955 4.19017 8.89955 4.14017H9.00954C8.81954 4.00017 8.79955 3.95018 8.83955 3.83018C8.62955 3.79018 7.64952 3.85013 7.86952 3.72013C8.25952 3.72013 8.18952 3.69017 8.17952 3.64017C8.23952 3.66017 8.38955 3.66018 8.64955 3.58018C8.52955 3.58018 8.44954 3.58017 8.38954 3.57017C8.41954 3.57017 8.43952 3.57017 8.48952 3.57017C8.34952 3.51017 8.22951 3.53017 8.16951 3.57017C8.10951 3.57017 8.02952 3.58013 7.92952 3.60013C8.42952 3.49013 7.87951 3.40018 8.54951 3.34018C8.37951 3.14018 7.66955 3.04017 7.39955 2.89017C7.73955 2.85017 8.04953 2.87013 8.18953 2.91013L8.05952 2.80015C8.55952 2.77015 8.34954 2.85016 8.44954 2.88016C9.23954 2.68016 7.6295 2.63013 8.3495 2.41013H7.94954L8.00954 2.38016C7.79954 2.39016 7.51954 2.38013 7.44954 2.35013C7.87954 2.30013 8.44951 2.29018 8.41951 2.21018C8.82951 2.12018 8.19955 2.03018 7.95955 1.96018C7.88955 2.01018 7.64952 2.01016 7.48952 2.00016C7.46952 1.96016 7.8995 1.91017 7.7195 1.89017L8.30952 1.85013C7.75952 1.90013 7.7095 1.77018 7.4695 1.77018C7.8995 1.72018 7.84951 1.82016 8.16951 1.81016C8.10951 1.64016 8.13953 1.73016 8.06953 1.56016C7.61953 1.49016 7.51953 1.61018 6.99953 1.59018C6.87953 1.51018 6.46953 1.46018 6.81953 1.34018L6.29951 1.40018C5.88951 1.27018 5.9495 1.17014 6.4695 1.04014C4.3295 0.560136 2.8795 0.540141 1.9695 0.670141C1.0595 0.790141 0.67952 1.05015 0.67952 1.05015C-0.45048 1.59015 1.07954 1.77016 1.50954 2.31016L1.58955 2.28019Z" fill="#20BB65"/>
<path d="M17.2095 33.7603L17.0495 33.9202C17.1395 33.8702 17.1995 33.8103 17.2095 33.7603Z" fill="#20BB65"/>
<path d="M27.2495 47.6902C27.2495 47.6902 27.2795 47.6802 27.2995 47.6702C27.2795 47.6702 27.2695 47.6802 27.2495 47.6902Z" fill="#20BB65"/>
<path d="M10.9095 36.2002C11.1495 37.2002 10.4095 37.9202 11.2695 38.6302C11.4495 39.1002 11.9195 39.4401 12.2695 39.7901C13.0595 39.5801 12.6095 40.3302 13.3095 40.2102L12.9895 40.5302C13.2295 40.4902 13.4195 40.5002 13.2595 40.7102L13.1496 40.7702C13.5096 40.7102 13.4195 40.9501 13.5995 40.9201L13.4895 40.9801L13.6295 41.0902L13.4595 41.1601C13.8895 41.1801 14.0496 41.3702 14.0296 41.6402L14.4695 41.3302C14.2195 42.0502 15.2495 41.5802 14.8795 42.3302L14.7695 42.4002C16.2395 42.0502 14.4395 43.6402 15.8695 43.3402C15.6895 43.3802 15.6595 43.5202 15.5495 43.5902C15.8195 43.7102 16.0395 43.8901 16.9095 43.2901C16.9995 43.4501 16.7196 43.6001 16.3996 43.8601C16.7796 43.5901 17.0295 43.6102 17.1395 43.7102L16.9595 43.7602L17.3295 44.0002L17.9995 43.4301C17.9195 43.7501 17.1595 44.0902 17.4495 44.1402L18.0395 43.7201C18.0995 44.0401 17.3095 44.8302 17.0395 45.3802C17.5195 46.5602 19.7695 46.4502 19.4695 48.1202L19.0695 48.5002C18.4595 49.0202 20.1895 48.0002 19.6395 48.5002L20.0095 48.3702C19.9195 48.4902 19.8495 48.6402 19.6695 48.7102C19.7195 48.8202 19.8295 48.7401 20.0695 48.6601L19.7695 49.0702C19.7695 49.6902 20.7695 49.4002 20.9495 49.9002C20.5695 51.0202 22.0295 51.2802 22.8595 51.4002C24.3395 51.2802 22.7395 54.2101 24.3895 53.9701C24.3295 54.0701 24.5695 53.9502 24.6295 53.8902L25.1496 54.5902C25.1496 54.5902 25.8295 55.3902 26.8095 55.3102C27.7995 55.2402 29.0295 54.2501 30.3095 50.8601L30.4495 50.7502C30.4395 50.1402 30.3095 49.8902 29.4795 50.2802C30.2095 49.5002 29.3095 49.9402 29.4795 49.6302L29.5495 49.5802C28.7695 49.9602 29.6595 48.7101 28.9495 49.0401C29.0195 48.9901 29.2395 48.7902 29.2895 48.8202C29.0595 48.7802 28.7195 48.7502 29.1595 48.3202C28.7395 48.1002 28.5295 47.4601 27.5995 47.9101L27.7395 47.8102C27.1295 48.1402 27.5296 47.7202 27.1496 47.8102C27.1996 47.7502 27.2295 47.7102 27.2495 47.6902C26.6395 48.0002 26.8295 47.3702 26.5195 47.4502L26.8195 47.1701L26.5095 46.9701L26.5296 47.1302C25.6396 47.8402 26.8895 46.4602 26.1695 46.7502C26.1195 46.4702 24.0595 47.9201 24.3095 47.3601C23.8195 47.6101 25.0395 46.8802 24.6095 47.0102C25.0595 46.6202 24.9496 46.8301 25.2796 46.4901C24.9496 46.5401 25.5595 45.8801 25.1095 45.9701L25.4596 45.6701C24.6296 46.0001 25.5895 44.8701 24.8495 45.2401C24.3695 45.2601 25.7896 44.2202 24.8996 44.5602L25.3095 44.0802C25.3095 43.9202 24.6595 44.4902 24.7995 44.1902C25.1095 43.9502 24.9296 43.8501 25.2796 43.6801C25.5596 43.0501 24.1895 43.7101 24.7495 42.7301C24.0895 43.1301 24.3195 42.6801 23.8195 42.9801C24.0795 42.7701 23.5995 42.6101 24.3195 42.3601C24.3795 42.3401 24.3895 42.3802 24.2895 42.4502L24.6695 42.2002C25.1995 41.4902 24.0295 42.1402 23.9895 41.8702C23.9095 42.0202 23.9995 42.0702 23.7095 42.2102L23.6295 42.0002L23.9595 41.8102L23.9395 41.4101L23.5896 41.7301C23.6896 41.4501 24.2996 40.9302 23.6496 41.1902C23.2996 41.3502 23.2295 41.6902 23.0095 41.6402C23.1395 41.2802 23.3395 40.7301 23.2995 40.4201C22.8795 40.7501 22.8595 40.6801 22.7195 40.6801L23.0896 40.4002C22.3996 40.5402 23.8595 39.7201 23.2695 39.7901L23.5495 39.6202L22.7195 40.1202C21.8195 40.4402 23.4195 39.4502 22.2295 39.9402C22.3595 39.9902 21.4295 40.5702 21.5095 40.3402L21.8996 40.1101C21.7796 40.1101 21.6096 40.1902 21.6496 40.0902C21.8696 39.9902 22.1995 39.7402 22.0695 39.6902L22.5695 39.4301L21.7695 39.7201C22.0695 39.3101 21.4196 39.4302 21.8996 39.0202C21.8996 39.0202 21.9495 38.5502 21.3295 38.8702C21.7295 38.6902 21.7495 38.4302 22.1995 38.2002C21.7495 38.4002 21.2595 38.3902 21.6295 38.0102H21.6895C21.9095 37.3702 20.7095 37.8102 21.0395 37.1502C20.5995 37.4502 20.7395 37.1301 20.1895 37.5501C19.3995 37.5901 20.9995 36.2201 19.1295 37.2301C18.9395 37.1401 19.4395 36.7901 19.4895 36.6601L19.6095 36.6402C19.2895 36.4502 19.2195 36.3802 19.1395 36.1502C18.8995 36.1502 18.0395 36.6502 18.1395 36.3402C18.5095 36.2002 18.3995 36.1602 18.3595 36.0902C18.4395 36.1002 18.5695 36.0402 18.7395 35.8202C18.6295 35.8702 18.5495 35.8902 18.4895 35.9002C18.5195 35.8802 18.5295 35.8701 18.5695 35.8501C18.3795 35.8001 18.2896 35.8901 18.2796 35.9701C18.2296 36.0001 18.1595 36.0401 18.0795 36.1101C18.4395 35.7301 17.8495 35.7901 18.4195 35.4301C18.0795 35.1601 17.3195 35.2602 16.9295 35.0802C17.2095 34.8702 17.5195 34.7902 17.6795 34.8102L17.4495 34.6601C17.8795 34.4201 17.7695 34.6401 17.8895 34.6601C18.4495 34.0101 16.8995 34.5402 17.3795 33.8802L16.9995 34.0102L17.0495 33.9602C16.8695 34.0602 16.5795 34.1302 16.4995 34.1202C16.8595 33.8702 17.3795 33.6402 17.2695 33.5102C17.5695 33.2002 16.9095 33.2801 16.6195 33.2401C16.5995 33.3601 16.3695 33.4401 16.2195 33.4801C16.1695 33.4101 16.5295 33.1602 16.3295 33.2002L16.8396 32.9201C16.3696 33.2101 16.2095 33.0102 15.9895 33.0902C16.3495 32.8402 16.3795 33.0302 16.6795 32.9002C16.4795 32.6302 16.5795 32.7601 16.3695 32.4901C15.8995 32.5401 15.8896 32.7802 15.3996 32.9402C15.2196 32.8502 14.7895 32.9002 15.0095 32.5802L14.5795 32.8702C14.0795 32.7802 14.0595 32.5901 14.4295 32.1701C12.0295 32.1001 10.6595 32.5902 9.9095 33.1502C9.1595 33.7002 9.02956 34.3102 9.02956 34.3102C8.42956 35.6902 10.0096 35.4502 10.8996 36.2602L10.9095 36.2002Z" fill="#20BB65"/>
<path d="M47.9895 65.0603L47.9295 65.2803C47.9795 65.2003 48.0095 65.1103 47.9895 65.0603Z" fill="#20BB65"/>
<path d="M63.3295 73.4502C63.3295 73.4502 63.3495 73.4302 63.3695 73.4102C63.3495 73.4202 63.3395 73.4302 63.3295 73.4502Z" fill="#20BB65"/>
<path d="M46.4695 72.7002C46.4695 72.7002 46.4395 72.7202 46.4295 72.7302L46.4795 72.7002H46.4695Z" fill="#20BB65"/>
<path d="M43.6395 70.2302C44.3095 70.9802 43.9895 71.9702 45.0695 72.1602C45.4395 72.4802 45.9995 72.5603 46.4595 72.7003C47.0595 72.1403 46.9995 73.0103 47.5595 72.5803L47.4195 73.0103C47.6095 72.8603 47.7795 72.7902 47.7395 73.0402L47.6695 73.1503C47.9595 72.9303 47.9895 73.1803 48.1295 73.0703L48.0595 73.1802L48.2295 73.2202L48.1095 73.3602C48.4995 73.1702 48.7195 73.2703 48.8195 73.5203L49.0795 73.0502C49.1695 73.8002 49.8795 72.9202 49.8795 73.7502L49.8095 73.8602C50.9695 72.8802 50.0495 75.1103 51.1795 74.2003C51.0395 74.3103 51.0695 74.4603 50.9995 74.5703C51.2895 74.5603 51.5595 74.6202 52.0795 73.6902C52.2295 73.7902 52.0495 74.0502 51.8695 74.4202C52.0995 74.0102 52.3295 73.9203 52.4595 73.9603L52.3195 74.0903L52.7495 74.1503L53.1095 73.3502C53.1695 73.6702 52.6395 74.3102 52.9195 74.2202L53.2695 73.5803C53.4595 73.8503 53.0795 74.9002 53.0695 75.5002C53.9795 76.3402 55.9595 75.3002 56.3495 76.9402L56.1395 77.4503C55.7895 78.1703 56.9495 76.5403 56.6495 77.2103L56.9295 76.9402C56.8995 77.0802 56.8995 77.2502 56.7595 77.3802C56.8495 77.4602 56.9095 77.3502 57.0995 77.1702L56.9895 77.6702C57.2395 78.2302 58.0195 77.5502 58.3795 77.9402C58.4595 79.1102 59.8795 78.7702 60.6895 78.5602C62.0095 77.8702 61.5995 81.1903 63.0195 80.3403C62.9995 80.4503 63.1795 80.2602 63.2095 80.1702L63.9295 80.6202C63.9295 80.6202 64.8295 81.1102 65.7195 80.6802C66.6095 80.2602 67.4395 78.9003 67.4095 75.2703L67.4995 75.1202C67.2695 74.5502 67.0495 74.3503 66.4095 75.0203C66.8095 74.0303 66.1195 74.7702 66.1695 74.4102L66.2195 74.3303C65.6295 74.9703 65.9995 73.4802 65.4495 74.0402C65.4995 73.9702 65.6195 73.7003 65.6895 73.7103C65.4595 73.7503 65.1195 73.8602 65.3695 73.2902C64.8895 73.2402 64.4395 72.7102 63.7495 73.4902L63.8395 73.3403C63.3995 73.8703 63.5995 73.3402 63.2895 73.5602C63.3195 73.4802 63.3195 73.4402 63.3395 73.4102C62.8895 73.9302 62.8195 73.2703 62.5595 73.4603L62.7295 73.0803L62.3595 73.0103L62.4395 73.1503C61.8995 74.1503 62.5095 72.3902 61.9495 72.9402C61.7995 72.7002 60.4595 74.8402 60.4695 74.2202C60.1195 74.6402 60.9495 73.4903 60.6095 73.7803C60.8695 73.2503 60.8495 73.4802 61.0195 73.0402C60.7295 73.2102 61.0195 72.3702 60.6495 72.6302L60.8495 72.2103C60.2095 72.8403 60.6395 71.4202 60.1095 72.0602C59.6695 72.2702 60.5595 70.7502 59.8695 71.4102L60.0495 70.8002C59.9795 70.6502 59.6195 71.4402 59.6295 71.1002C59.8195 70.7502 59.6095 70.7402 59.8595 70.4402C59.8595 69.7502 58.8695 70.9102 58.9595 69.7902C58.5195 70.4302 58.5395 69.9203 58.2095 70.4003C58.3595 70.1003 57.8495 70.1502 58.3995 69.6202C58.4495 69.5802 58.4695 69.6002 58.4095 69.7202L58.6495 69.3303C58.8295 68.4603 58.0295 69.5402 57.8795 69.3102C57.8795 69.4802 57.9795 69.4902 57.7695 69.7302L57.5995 69.5703L57.8195 69.2502L57.6295 68.8903L57.4495 69.3303C57.4195 69.0403 57.7495 68.3002 57.2695 68.8002C57.0195 69.0902 57.1095 69.4402 56.8795 69.4802C56.8395 69.0902 56.7795 68.5102 56.5995 68.2502C56.3695 68.7302 56.3095 68.6802 56.1895 68.7302L56.3995 68.3203C55.8295 68.7403 56.7995 67.3802 56.2895 67.6802L56.4695 67.4102L55.9295 68.2202C55.2495 68.8902 56.2695 67.3103 55.3995 68.2603C55.5395 68.2503 54.9495 69.1802 54.9195 68.9302L55.1695 68.5602C55.0495 68.6002 54.9395 68.7503 54.9395 68.6503C55.0995 68.4603 55.2795 68.1002 55.1395 68.1002L55.4795 67.6503L54.8795 68.2603C54.9695 67.7603 54.4295 68.1502 54.6795 67.5602C54.6795 67.5602 54.5095 67.1102 54.0995 67.6702C54.3795 67.3302 54.2795 67.0902 54.5795 66.6802C54.2595 67.0502 53.8095 67.2603 53.9695 66.7603L54.0195 66.7202C53.9195 66.0602 53.0395 66.9902 53.0395 66.2402C52.7795 66.7102 52.7595 66.3602 52.4495 66.9802C51.7695 67.3702 52.5495 65.4202 51.3495 67.1702C51.1395 67.1702 51.4195 66.6302 51.3995 66.4902L51.4895 66.4202C51.1195 66.4002 51.0195 66.3703 50.8395 66.2003C50.6295 66.3103 50.0995 67.1503 50.0295 66.8303C50.2995 66.5303 50.1795 66.5502 50.1095 66.5002C50.1895 66.4802 50.2795 66.3603 50.3195 66.0803C50.2395 66.1803 50.1795 66.2303 50.1295 66.2703C50.1495 66.2403 50.1495 66.2202 50.1795 66.1902C49.9895 66.2402 49.9495 66.3502 49.9695 66.4302C49.9395 66.4802 49.8995 66.5503 49.8595 66.6503C49.9995 66.1403 49.4995 66.4703 49.8395 65.8903C49.4095 65.8003 48.7795 66.2403 48.3495 66.2803C48.4995 65.9703 48.7295 65.7502 48.8895 65.6902L48.6195 65.6702C48.8895 65.2502 48.8895 65.5003 49.0095 65.4603C49.1895 64.6203 48.0695 65.8203 48.1795 65.0103L47.9095 65.3002L47.9295 65.2302C47.8195 65.4102 47.5995 65.6002 47.5195 65.6302C47.7095 65.2402 48.0595 64.7902 47.8995 64.7202C48.0095 64.3002 47.4695 64.6902 47.1895 64.7902C47.2295 64.9002 47.0695 65.0902 46.9595 65.1902C46.8795 65.1602 47.0795 64.7703 46.9195 64.8903L47.2295 64.3903C46.9595 64.8703 46.7195 64.7703 46.5595 64.9503C46.7595 64.5603 46.8695 64.7103 47.0695 64.4503C46.7595 64.3103 46.9095 64.3802 46.5995 64.2402C46.2095 64.5102 46.3195 64.7202 45.9695 65.1002C45.7695 65.1002 45.4095 65.3602 45.4495 64.9702L45.2095 65.4302C44.7295 65.6002 44.6095 65.4403 44.7395 64.8903C42.6095 66.0103 41.6795 67.1302 41.3095 67.9802C40.9295 68.8302 41.1095 69.4102 41.1095 69.4102C41.2495 70.8902 42.4995 69.9002 43.6395 70.1602V70.2302Z" fill="#20BB65"/>
<path d="M88.8495 83.6301V83.8601C88.8795 83.7601 88.8895 83.6801 88.8495 83.6301Z" fill="#20BB65"/>
<path d="M105.799 88.4902C105.799 88.4902 105.82 88.4702 105.83 88.4502C105.81 88.4602 105.809 88.4802 105.799 88.4902Z" fill="#20BB65"/>
<path d="M89.2395 91.4001C89.2395 91.4001 89.2195 91.4301 89.2095 91.4501L89.2495 91.4001H89.2395Z" fill="#20BB65"/>
<path d="M85.9495 89.7201C86.7795 90.2701 86.7095 91.3001 87.7795 91.2201C88.2095 91.4401 88.7595 91.3702 89.2395 91.4002C89.6795 90.7202 89.8195 91.5702 90.2695 91.0202L90.2295 91.4802C90.3795 91.2902 90.5295 91.1802 90.5395 91.4302L90.4995 91.5502C90.7295 91.2702 90.8095 91.5002 90.9195 91.3602L90.8795 91.4802H91.0495L90.9695 91.6402C91.2995 91.3702 91.5295 91.4102 91.6895 91.6402L91.8295 91.1202C92.0895 91.8302 92.5695 90.8102 92.7495 91.6102L92.7095 91.7302C93.6095 90.5202 93.2095 92.8902 94.1095 91.7502C93.9995 91.8902 94.0595 92.0202 94.0195 92.1502C94.2995 92.0702 94.5695 92.0702 94.8695 91.0502C95.0395 91.1102 94.9095 91.4102 94.8195 91.8102C94.9495 91.3602 95.1495 91.2202 95.2895 91.2302L95.1795 91.3802L95.6095 91.3402L95.7795 90.4802C95.9095 90.7802 95.5295 91.5202 95.7795 91.3702L95.9795 90.6702C96.2195 90.8902 96.0795 91.9902 96.1995 92.5902C97.2495 93.2102 98.9595 91.7702 99.6695 93.3002L99.5695 93.8402C99.3795 94.6102 100.17 92.7802 100.02 93.5002L100.239 93.1802C100.239 93.3302 100.269 93.4902 100.159 93.6502C100.269 93.7102 100.3 93.5902 100.45 93.3802V93.8902C100.79 94.3802 101.42 93.5702 101.84 93.8802C102.14 95.0102 103.45 94.4002 104.2 94.0302C105.36 93.1002 105.569 96.4302 106.799 95.3402C106.799 95.4602 106.94 95.2302 106.96 95.1402L107.739 95.4502C107.739 95.4502 108.709 95.7702 109.489 95.1902C110.279 94.6102 110.87 93.1402 110.19 89.5702L110.25 89.4101C109.92 88.8901 109.66 88.7402 109.15 89.5102C109.36 88.4602 108.819 89.3102 108.799 88.9502L108.83 88.8702C108.36 89.6002 108.45 88.0701 108.01 88.7201C108.04 88.6401 108.119 88.3601 108.179 88.3501C107.959 88.4301 107.649 88.6002 107.789 87.9902C107.309 88.0302 106.759 87.6002 106.219 88.4902L106.28 88.3302C105.95 88.9402 106.05 88.3702 105.78 88.6502C105.79 88.5702 105.779 88.5202 105.799 88.4902C105.459 89.0902 105.259 88.4502 105.039 88.6902L105.14 88.2902H104.76L104.87 88.4101C104.53 89.5001 104.79 87.6502 104.34 88.3002C104.14 88.1002 103.25 90.4601 103.14 89.8501C102.88 90.3301 103.47 89.0402 103.19 89.3902C103.34 88.8202 103.37 89.0502 103.45 88.5802C103.2 88.8102 103.32 87.9202 103 88.2502L103.109 87.8002C102.609 88.5402 102.739 87.0702 102.349 87.8002C101.959 88.0902 102.519 86.4202 101.979 87.2102L102.03 86.5802C101.93 86.4502 101.739 87.2902 101.669 86.9602C101.779 86.5802 101.57 86.6102 101.76 86.2702C101.6 85.5902 100.879 86.9302 100.739 85.8102C100.439 86.5202 100.35 86.0202 100.13 86.5602C100.21 86.2402 99.7195 86.3902 100.15 85.7602C100.19 85.7102 100.219 85.7301 100.179 85.8501L100.33 85.4202C100.33 84.5302 99.7695 85.7502 99.5695 85.5602C99.5995 85.7302 99.6995 85.7102 99.5595 86.0002L99.3595 85.8802L99.5095 85.5202L99.2395 85.2102L99.1595 85.6802C99.0695 85.4002 99.2295 84.6102 98.8695 85.2002C98.6795 85.5402 98.8495 85.8602 98.6395 85.9502C98.5095 85.5802 98.3295 85.0202 98.0895 84.8002C97.9695 85.3202 97.8995 85.2802 97.7895 85.3602L97.9095 84.9101C97.4395 85.4401 98.0895 83.9002 97.6595 84.3102L97.7795 84.0102L97.4295 84.9202C96.9095 85.7202 97.5595 83.9602 96.9195 85.0802C97.0595 85.0402 96.6895 86.0702 96.5995 85.8402L96.7595 85.4202C96.6595 85.4902 96.5795 85.6602 96.5495 85.5602C96.6595 85.3402 96.7595 84.9402 96.6195 84.9802L96.8495 84.4701L96.3995 85.1902C96.3695 84.6802 95.9295 85.1802 96.0495 84.5502C96.0495 84.5502 95.7795 84.1502 95.4995 84.7802C95.6895 84.3902 95.5395 84.1802 95.7395 83.7102C95.5095 84.1502 95.1195 84.4502 95.1595 83.9202L95.1995 83.8702C94.9495 83.2402 94.2995 84.3502 94.1195 83.6302C93.9795 84.1502 93.8695 83.8102 93.7195 84.4802C93.1395 85.0102 93.4495 82.9402 92.6795 84.9202C92.4695 84.9802 92.6195 84.3802 92.5695 84.2502L92.6395 84.1601C92.2695 84.2301 92.1695 84.2201 91.9495 84.1001C91.7695 84.2601 91.4595 85.2002 91.3095 84.9002C91.4995 84.5502 91.3895 84.5902 91.3095 84.5602C91.3795 84.5202 91.4395 84.3901 91.4095 84.1001C91.3595 84.2101 91.3095 84.2802 91.2695 84.3302C91.2695 84.3002 91.2795 84.2802 91.2995 84.2402C91.1295 84.3302 91.1095 84.4502 91.1595 84.5202C91.1395 84.5802 91.1195 84.6502 91.1095 84.7602C91.1195 84.2302 90.7095 84.6702 90.8995 84.0202C90.4495 84.0402 89.9595 84.6102 89.5395 84.7502C89.6095 84.4102 89.7795 84.1402 89.9195 84.0402L89.6495 84.0802C89.8095 83.6102 89.8695 83.8502 89.9795 83.7802C89.9495 82.9202 89.1595 84.3602 89.0495 83.5502L88.8595 83.9002V83.8302C88.7995 84.0302 88.6395 84.2702 88.5695 84.3202C88.6595 83.8902 88.8795 83.3702 88.7095 83.3402C88.7095 82.9002 88.2795 83.4202 88.0395 83.5902C88.1095 83.6902 87.9995 83.9102 87.9195 84.0402C87.8295 84.0302 87.9195 83.6002 87.7995 83.7602L87.9795 83.2002C87.8395 83.7302 87.5795 83.6901 87.4795 83.9101C87.5695 83.4801 87.7195 83.6002 87.8495 83.2902C87.5095 83.2302 87.6795 83.2602 87.3395 83.2102C87.0295 83.5702 87.1995 83.7502 86.9495 84.2102C86.7595 84.2702 86.4795 84.6002 86.4095 84.2102L86.2995 84.7201C85.8795 85.0101 85.7295 84.8902 85.6995 84.3202C83.9395 85.9602 83.3495 87.2802 83.2095 88.2102C83.0695 89.1302 83.3795 89.6502 83.3795 89.6502C83.8795 91.0302 84.8195 89.7502 85.9695 89.7102L85.9495 89.7201Z" fill="#20BB65"/>
<path d="M132.789 94.5701L132.82 94.8C132.84 94.7 132.839 94.6101 132.789 94.5701Z" fill="#20BB65"/>
<path d="M150.28 97.4802C150.28 97.4802 150.289 97.4502 150.299 97.4302C150.289 97.4502 150.28 97.4602 150.28 97.4802Z" fill="#20BB65"/>
<path d="M134.159 102.23C134.159 102.23 134.14 102.26 134.13 102.28L134.159 102.23Z" fill="#20BB65"/>
<path d="M130.7 100.99C131.58 101.42 131.65 102.46 132.69 102.24C133.14 102.41 133.67 102.27 134.15 102.24C134.51 101.51 134.75 102.34 135.12 101.73L135.14 102.19C135.27 101.98 135.4 101.85 135.44 102.11L135.409 102.24C135.599 101.93 135.71 102.16 135.81 102L135.78 102.13L135.95 102.1L135.89 102.28C136.18 101.97 136.42 101.99 136.6 102.18L136.68 101.65C137.02 102.32 137.37 101.25 137.65 102.02L137.62 102.15C138.37 100.84 138.25 103.24 139 102C138.91 102.15 138.98 102.28 138.95 102.41C139.22 102.3 139.49 102.26 139.67 101.22C139.84 101.26 139.76 101.57 139.71 101.98C139.79 101.52 139.97 101.36 140.11 101.35L140.02 101.52L140.44 101.43L140.51 100.55C140.67 100.83 140.38 101.61 140.62 101.44L140.74 100.72C141 100.91 140.98 102.02 141.17 102.6C142.27 103.1 143.81 101.48 144.68 102.92L144.64 103.47C144.53 104.26 145.13 102.35 145.05 103.09L145.23 102.75C145.24 102.9 145.29 103.06 145.2 103.23C145.31 103.28 145.33 103.15 145.46 102.93L145.5 103.44C145.9 103.89 146.43 103.01 146.88 103.28C147.3 104.37 148.53 103.62 149.24 103.19C150.3 102.15 150.84 105.44 151.95 104.23C151.96 104.35 152.08 104.11 152.09 104.02L152.9 104.25C152.9 104.25 156.84 105.14 154.78 98.1601L154.83 97.9901C154.44 97.5101 154.18 97.3701 153.74 98.1901C153.85 97.1201 153.39 98.0301 153.34 97.6701L153.36 97.5901C152.97 98.3601 152.9 96.8301 152.53 97.5201C152.55 97.4401 152.6 97.1501 152.67 97.1401C152.46 97.2401 152.16 97.4401 152.24 96.8201C151.76 96.9101 151.169 96.5301 150.719 97.4701L150.77 97.3001C150.5 97.9401 150.54 97.3701 150.3 97.6701C150.3 97.5901 150.3 97.5401 150.3 97.5101C150.02 98.1401 149.75 97.5301 149.56 97.7901L149.61 97.3801L149.23 97.4201L149.35 97.5302C149.13 98.6502 149.19 96.7801 148.81 97.4701C148.59 97.2901 147.94 99.7301 147.77 99.1401C147.56 99.6501 148.01 98.3001 147.77 98.6801C147.86 98.0901 147.91 98.3301 147.94 97.8501C147.72 98.1001 147.74 97.2001 147.46 97.5701L147.52 97.1101C147.1 97.9001 147.08 96.4201 146.76 97.1901C146.4 97.5201 146.78 95.8001 146.33 96.6501L146.31 96.0101C146.19 95.8901 146.09 96.7501 146 96.4301C146.07 96.0401 145.87 96.0901 146.01 95.7301C145.78 95.0701 145.2 96.4801 144.93 95.3801C144.71 96.1201 144.57 95.6301 144.4 96.1901C144.44 95.8601 143.97 96.0601 144.33 95.3901C144.36 95.3301 144.4 95.3501 144.37 95.4801L144.469 95.0401C144.359 94.1501 143.939 95.4301 143.719 95.2601C143.769 95.4201 143.87 95.4001 143.76 95.6901L143.54 95.5901L143.65 95.2201L143.35 94.9401L143.32 95.4201C143.19 95.1501 143.269 94.3501 142.969 94.9801C142.819 95.3401 143.02 95.6401 142.82 95.7501C142.65 95.3901 142.4 94.8601 142.14 94.6701C142.08 95.2001 141.999 95.1701 141.909 95.2601L141.98 94.8001C141.57 95.3801 142.039 93.7801 141.659 94.2301L141.74 93.9201L141.5 94.8601C141.08 95.7201 141.52 93.8901 141.01 95.0701C141.14 95.0101 140.89 96.0801 140.78 95.8601L140.89 95.4301C140.79 95.5101 140.73 95.6901 140.7 95.5901C140.79 95.3601 140.84 94.9501 140.7 95.0101L140.87 94.4701L140.51 95.2401C140.42 94.7401 140.04 95.2801 140.08 94.6501C140.08 94.6501 139.76 94.2801 139.56 94.9501C139.71 94.5401 139.53 94.3401 139.68 93.8601C139.5 94.3201 139.15 94.6601 139.12 94.1301L139.15 94.0801C138.82 93.4901 138.31 94.6601 138.04 93.9701C137.96 94.5001 137.82 94.1801 137.74 94.8601C137.23 95.4601 137.28 93.3601 136.76 95.4201C136.56 95.5001 136.64 94.8901 136.57 94.7701L136.63 94.6701C136.27 94.7801 136.17 94.7801 135.93 94.6901C135.77 94.8701 135.57 95.8401 135.39 95.5601C135.53 95.1901 135.43 95.2401 135.35 95.2301C135.41 95.1801 135.46 95.0401 135.39 94.7601C135.35 94.8801 135.32 94.9501 135.28 95.0001C135.28 94.9701 135.28 94.9501 135.29 94.9001C135.13 95.0101 135.13 95.1401 135.18 95.2001C135.17 95.2601 135.159 95.3301 135.159 95.4501C135.109 94.9301 134.75 95.4101 134.86 94.7501C134.42 94.8301 133.99 95.4601 133.6 95.6501C133.62 95.3001 133.76 95.0201 133.89 94.9001L133.62 94.9801C133.71 94.4901 133.809 94.7201 133.909 94.6401C133.769 93.7901 133.16 95.3202 132.96 94.5302L132.82 94.9001V94.8301C132.77 95.0401 132.64 95.3001 132.58 95.3601C132.61 94.9201 132.77 94.3801 132.59 94.3701C132.53 93.9301 132.17 94.5001 131.95 94.7001C132.03 94.7901 131.95 95.0201 131.89 95.1601C131.8 95.1601 131.83 94.7201 131.73 94.8901L131.83 94.3101C131.76 94.8601 131.5 94.8501 131.42 95.0801C131.45 94.6401 131.62 94.7401 131.7 94.4201C131.35 94.4101 131.53 94.4201 131.18 94.4001C130.92 94.8001 131.11 94.9501 130.93 95.4401C130.75 95.5201 130.51 95.8901 130.4 95.5101L130.36 96.0302C129.98 96.3702 129.81 96.2701 129.71 95.7201C126.65 99.4401 128.13 101.3 128.13 101.3C128.8 102.6 129.56 101.21 130.69 101.01L130.7 100.99Z" fill="#20BB65"/>
<path d="M177.81 101.21L177.849 101.43C177.859 101.33 177.85 101.24 177.81 101.21Z" fill="#20BB65"/>
<path d="M195.5 103.05C195.5 103.05 195.51 103.02 195.52 103C195.51 103.02 195.5 103.03 195.5 103.05Z" fill="#20BB65"/>
<path d="M179.689 108.75C179.689 108.75 179.68 108.78 179.67 108.8L179.699 108.75H179.689Z" fill="#20BB65"/>
<path d="M176.17 107.77C177.08 108.13 177.21 109.16 178.23 108.86C178.69 108.99 179.21 108.81 179.68 108.74C179.99 107.98 180.28 108.79 180.61 108.17L180.66 108.62C180.77 108.41 180.89 108.27 180.96 108.51L180.94 108.64C181.11 108.32 181.24 108.53 181.32 108.37L181.3 108.5L181.47 108.46L181.42 108.64C181.69 108.31 181.93 108.31 182.12 108.5L182.16 107.96C182.54 108.61 182.83 107.51 183.15 108.27L183.13 108.4C183.8 107.04 183.82 109.45 184.5 108.16C184.42 108.32 184.5 108.44 184.48 108.57C184.74 108.44 185 108.39 185.12 107.34C185.29 107.37 185.23 107.69 185.2 108.09C185.25 107.63 185.42 107.45 185.56 107.44L185.48 107.61L185.89 107.5L185.91 106.62C186.09 106.89 185.85 107.69 186.07 107.5L186.15 106.78C186.42 106.95 186.47 108.06 186.69 108.63C187.82 109.06 189.26 107.36 190.2 108.74V109.29C190.13 110.08 190.61 108.15 190.58 108.89L190.74 108.54C190.76 108.69 190.82 108.85 190.74 109.02C190.85 109.06 190.87 108.93 190.98 108.7L191.05 109.21C191.47 109.64 191.96 108.73 192.42 108.98C192.89 110.05 194.08 109.24 194.76 108.77C195.76 107.68 196.47 110.95 197.51 109.69C197.53 109.81 197.63 109.56 197.64 109.47L198.45 109.67C198.45 109.67 202.42 110.41 200.03 103.51L200.07 103.34C199.66 102.87 199.39 102.75 198.99 103.58C199.05 102.51 198.63 103.43 198.56 103.07L198.58 102.98C198.22 103.77 198.08 102.24 197.75 102.94C197.77 102.86 197.8 102.56 197.87 102.55C197.66 102.66 197.38 102.87 197.42 102.25C196.94 102.36 196.33 102.01 195.94 102.96L195.98 102.79C195.74 103.44 195.75 102.87 195.53 103.19C195.53 103.11 195.52 103.06 195.53 103.03C195.28 103.67 194.99 103.08 194.81 103.34L194.84 102.93L194.47 102.99L194.6 103.09C194.44 104.22 194.4 102.35 194.06 103.06C193.83 102.89 193.31 105.36 193.11 104.78C192.93 105.3 193.31 103.93 193.08 104.32C193.14 103.73 193.2 103.96 193.21 103.48C193 103.74 192.98 102.85 192.71 103.22L192.75 102.76C192.37 103.57 192.27 102.1 191.99 102.88C191.65 103.23 191.93 101.49 191.53 102.36L191.48 101.73C191.36 101.62 191.3 102.48 191.19 102.16C191.24 101.77 191.04 101.83 191.16 101.46C190.89 100.81 190.39 102.26 190.06 101.17C189.88 101.92 189.71 101.44 189.58 102.01C189.6 101.68 189.14 101.91 189.47 101.21C189.5 101.15 189.53 101.17 189.52 101.3L189.6 100.85C189.44 99.9701 189.09 101.27 188.86 101.11C188.92 101.27 189.02 101.24 188.92 101.54L188.7 101.45L188.79 101.07L188.47 100.81V101.29C188.32 101.03 188.35 100.22 188.09 100.87C187.96 101.23 188.18 101.52 187.99 101.65C187.8 101.3 187.52 100.78 187.25 100.61C187.22 101.14 187.14 101.12 187.05 101.21L187.09 100.75C186.72 101.36 187.09 99.7301 186.73 100.2L186.79 99.8801L186.6 100.83C186.23 101.71 186.56 99.8601 186.12 101.07C186.25 101 186.06 102.09 185.94 101.87L186.03 101.43C185.94 101.52 185.89 101.7 185.85 101.6C185.93 101.37 185.95 100.96 185.82 101.02L185.96 100.47L185.64 101.26C185.52 100.77 185.17 101.33 185.17 100.7C185.17 100.7 184.83 100.35 184.67 101.03C184.79 100.61 184.6 100.43 184.72 99.9301C184.57 100.4 184.24 100.76 184.18 100.24L184.21 100.18C183.84 99.6101 183.4 100.82 183.09 100.14C183.05 100.68 182.88 100.36 182.85 101.05C182.38 101.68 182.29 99.5901 181.9 101.68C181.71 101.77 181.74 101.16 181.66 101.04L181.72 100.93C181.36 101.07 181.26 101.08 181.02 101C180.87 101.19 180.74 102.17 180.54 101.91C180.66 101.53 180.56 101.59 180.47 101.58C180.53 101.52 180.56 101.38 180.48 101.11C180.45 101.23 180.42 101.3 180.39 101.36C180.39 101.33 180.39 101.31 180.39 101.26C180.23 101.38 180.24 101.51 180.3 101.57C180.29 101.63 180.29 101.71 180.3 101.82C180.21 101.3 179.89 101.82 179.95 101.14C179.51 101.25 179.13 101.91 178.75 102.13C178.75 101.78 178.87 101.49 178.99 101.36L178.73 101.46C178.79 100.97 178.91 101.19 178.99 101.1C178.79 100.27 178.29 101.83 178.03 101.06L177.91 101.44V101.37C177.87 101.58 177.76 101.85 177.7 101.91C177.7 101.47 177.82 100.92 177.65 100.92C177.56 100.49 177.24 101.09 177.03 101.3C177.12 101.38 177.06 101.62 177 101.77C176.91 101.77 176.91 101.34 176.83 101.52L176.89 100.94C176.86 101.49 176.6 101.51 176.54 101.74C176.54 101.3 176.72 101.38 176.78 101.06C176.43 101.08 176.6 101.06 176.25 101.09C176.01 101.51 176.22 101.64 176.07 102.14C175.89 102.24 175.69 102.62 175.54 102.25V102.77C175.18 103.14 175.01 103.06 174.87 102.51C172.09 106.47 173.7 108.2 173.7 108.2C174.46 109.44 175.11 107.99 176.22 107.7L176.17 107.77Z" fill="#20BB65"/>
<path d="M223.209 105.77L223.26 105.99C223.26 105.89 223.259 105.8 223.209 105.77Z" fill="#20BB65"/>
<path d="M240.99 107.31C240.99 107.31 241 107.28 241.01 107.26C241 107.28 240.99 107.29 240.99 107.31Z" fill="#20BB65"/>
<path d="M225.28 113.28C225.28 113.28 225.27 113.31 225.26 113.33L225.29 113.28H225.28Z" fill="#20BB65"/>
<path d="M221.759 112.37C222.669 112.72 222.829 113.74 223.839 113.42C224.299 113.54 224.809 113.36 225.279 113.28C225.569 112.52 225.879 113.32 226.189 112.69L226.249 113.14C226.359 112.92 226.479 112.78 226.539 113.03L226.519 113.16C226.679 112.84 226.809 113.05 226.889 112.89L226.869 113.02L227.029 112.98L226.989 113.16C227.249 112.82 227.49 112.82 227.68 113L227.709 112.46C228.099 113.1 228.359 112 228.699 112.75L228.68 112.88C229.32 111.51 229.389 113.92 230.039 112.62C229.959 112.78 230.039 112.9 230.019 113.03C230.269 112.9 230.539 112.84 230.639 111.79C230.809 111.82 230.749 112.13 230.739 112.54C230.779 112.08 230.949 111.9 231.089 111.88L231.009 112.05L231.419 111.93V111.05C231.609 111.32 231.379 112.12 231.599 111.93L231.659 111.21C231.929 111.38 231.999 112.49 232.229 113.05C233.359 113.46 234.769 111.73 235.729 113.1V113.65C235.669 114.45 236.129 112.5 236.109 113.24L236.269 112.89C236.289 113.03 236.349 113.19 236.269 113.37C236.379 113.41 236.399 113.28 236.499 113.05L236.579 113.55C236.999 113.97 237.479 113.06 237.939 113.29C238.419 114.35 239.599 113.52 240.269 113.04C241.259 111.93 241.979 115.19 243.009 113.91C243.029 114.02 243.129 113.78 243.139 113.69L243.949 113.88C243.949 113.88 247.919 114.55 245.509 107.7L245.55 107.53C245.14 107.07 244.859 106.95 244.469 107.79C244.519 106.72 244.109 107.65 244.039 107.29L244.06 107.2C243.71 108 243.559 106.47 243.219 107.18C243.239 107.1 243.269 106.8 243.329 106.79C243.119 106.91 242.839 107.12 242.879 106.5C242.399 106.62 241.779 106.28 241.389 107.24L241.43 107.07C241.2 107.72 241.199 107.15 240.979 107.47C240.979 107.39 240.969 107.35 240.979 107.31C240.729 107.95 240.429 107.36 240.259 107.63L240.289 107.22L239.909 107.28L240.039 107.38C239.889 108.51 239.829 106.64 239.499 107.35C239.259 107.18 238.769 109.66 238.569 109.08C238.399 109.6 238.759 108.23 238.539 108.62C238.589 108.03 238.659 108.26 238.659 107.78C238.449 108.04 238.419 107.15 238.159 107.53L238.189 107.07C237.819 107.88 237.7 106.41 237.43 107.2C237.09 107.55 237.359 105.82 236.959 106.69L236.899 106.06C236.779 105.95 236.729 106.81 236.609 106.5C236.659 106.11 236.449 106.17 236.569 105.81C236.289 105.17 235.809 106.62 235.459 105.54C235.289 106.29 235.109 105.82 234.989 106.39C235.009 106.06 234.549 106.3 234.869 105.6C234.899 105.54 234.929 105.56 234.919 105.69L234.989 105.24C234.819 104.36 234.489 105.67 234.249 105.51C234.309 105.67 234.409 105.64 234.319 105.94L234.089 105.86L234.169 105.48L233.849 105.23V105.71C233.709 105.45 233.719 104.64 233.469 105.3C233.349 105.67 233.569 105.95 233.379 106.08C233.179 105.74 232.889 105.22 232.619 105.06C232.599 105.59 232.52 105.57 232.43 105.67L232.459 105.21C232.089 105.82 232.439 104.19 232.089 104.67L232.149 104.35L231.979 105.31C231.619 106.2 231.919 104.34 231.499 105.56C231.629 105.49 231.459 106.58 231.329 106.37L231.409 105.93C231.319 106.02 231.269 106.2 231.229 106.1C231.299 105.86 231.319 105.46 231.189 105.52L231.319 104.97L231.019 105.77C230.889 105.28 230.549 105.85 230.539 105.22C230.539 105.22 230.189 104.88 230.039 105.56C230.159 105.14 229.959 104.96 230.069 104.46C229.929 104.93 229.599 105.3 229.529 104.78L229.56 104.72C229.18 104.16 228.759 105.37 228.439 104.7C228.409 105.24 228.229 104.93 228.219 105.62C227.759 106.26 227.619 104.16 227.279 106.26C227.089 106.36 227.109 105.75 227.029 105.63L227.079 105.52C226.729 105.66 226.619 105.67 226.379 105.6C226.239 105.79 226.129 106.77 225.919 106.52C226.029 106.14 225.919 106.2 225.849 106.19C225.909 106.13 225.939 105.99 225.849 105.72C225.819 105.84 225.789 105.91 225.759 105.97C225.759 105.94 225.759 105.91 225.759 105.87C225.609 106 225.62 106.12 225.68 106.18C225.68 106.24 225.67 106.32 225.68 106.43C225.58 105.91 225.27 106.43 225.31 105.76C224.87 105.88 224.509 106.54 224.129 106.77C224.129 106.42 224.229 106.12 224.349 106L224.089 106.1C224.139 105.6 224.259 105.83 224.349 105.74C224.129 104.91 223.659 106.48 223.379 105.72L223.269 106.11V106.04C223.239 106.25 223.129 106.52 223.079 106.59C223.069 106.15 223.169 105.59 222.999 105.6C222.899 105.17 222.589 105.77 222.389 105.99C222.479 106.07 222.429 106.31 222.369 106.46C222.279 106.46 222.269 106.03 222.189 106.21L222.229 105.63C222.209 106.18 221.949 106.2 221.899 106.44C221.889 106 222.069 106.08 222.119 105.76C221.769 105.78 221.939 105.77 221.589 105.79C221.369 106.21 221.569 106.34 221.439 106.85C221.269 106.95 221.069 107.34 220.919 106.97V107.49C220.589 107.86 220.409 107.79 220.249 107.24C217.589 111.25 219.249 112.96 219.249 112.96C220.039 114.19 220.639 112.72 221.739 112.41L221.759 112.37Z" fill="#20BB65"/>
<path d="M268.81 110.38L268.849 110.6C268.859 110.5 268.85 110.41 268.81 110.38Z" fill="#20BB65"/>
<path d="M286.65 113.49C286.65 113.49 286.67 113.47 286.68 113.45C286.66 113.46 286.66 113.48 286.65 113.49Z" fill="#20BB65"/>
<path d="M270.5 117.97C270.5 117.97 270.479 118 270.469 118.02L270.5 117.97Z" fill="#20BB65"/>
<path d="M267.07 116.9C267.96 117.28 268.07 118.31 269.07 118.04C269.51 118.18 270.03 118.02 270.49 117.97C270.81 117.22 271.07 118.04 271.42 117.43L271.45 117.88C271.57 117.67 271.69 117.53 271.74 117.78L271.72 117.91C271.9 117.59 272.01 117.82 272.1 117.66L272.08 117.79L272.24 117.76L272.19 117.94C272.47 117.62 272.7 117.63 272.88 117.83L272.95 117.29C273.29 117.95 273.62 116.87 273.9 117.64L273.87 117.77C274.59 116.45 274.49 118.85 275.22 117.6C275.13 117.76 275.2 117.88 275.18 118.01C275.44 117.9 275.7 117.86 275.88 116.81C276.05 116.85 275.96 117.16 275.92 117.57C276 117.11 276.18 116.95 276.32 116.94L276.23 117.11L276.64 117.02L276.71 116.14C276.87 116.42 276.58 117.2 276.81 117.03L276.93 116.31C277.19 116.5 277.16 117.61 277.34 118.19C278.4 118.69 279.95 117.1 280.74 118.56L280.68 119.1C280.54 119.89 281.2 118 281.09 118.73L281.28 118.4C281.28 118.55 281.33 118.71 281.23 118.87C281.33 118.92 281.36 118.8 281.49 118.58L281.51 119.09C281.86 119.56 282.44 118.7 282.85 118.99C283.18 120.09 284.4 119.42 285.12 119.05C286.25 118.1 286.4 121.42 287.57 120.34C287.57 120.46 287.71 120.23 287.73 120.14L288.45 120.47C288.45 120.47 289.33 120.81 290.12 120.29C290.89 119.75 291.72 118.37 291.22 114.73L291.29 114.57C290.96 114.02 290.69 113.85 290.13 114.59C290.38 113.55 289.79 114.37 289.78 114.01L289.81 113.93C289.31 114.64 289.42 113.11 288.95 113.75C288.98 113.67 289.07 113.39 289.13 113.39C288.9 113.47 288.57 113.62 288.72 113.02C288.21 113.05 287.62 112.61 287.08 113.49L287.14 113.33C286.81 113.94 286.9 113.37 286.62 113.65C286.62 113.57 286.62 113.52 286.64 113.49C286.3 114.09 286.08 113.46 285.86 113.7L285.95 113.3H285.56L285.68 113.43C285.37 114.53 285.56 112.67 285.13 113.32C284.91 113.12 284.1 115.51 283.97 114.91C283.73 115.4 284.27 114.09 283.99 114.45C284.11 113.87 284.16 114.11 284.21 113.63C283.97 113.86 284.04 112.97 283.74 113.31L283.83 112.86C283.36 113.62 283.41 112.15 283.04 112.9C282.66 113.21 283.12 111.51 282.62 112.33V111.69C282.51 111.56 282.37 112.42 282.28 112.09C282.37 111.71 282.15 111.74 282.32 111.39C282.1 110.72 281.46 112.11 281.22 111C280.98 111.73 280.84 111.24 280.66 111.79C280.71 111.46 280.22 111.65 280.61 110.99C280.64 110.94 280.68 110.95 280.65 111.08L280.77 110.64C280.67 109.75 280.22 111.02 279.99 110.84C280.04 111 280.14 110.98 280.02 111.28L279.8 111.18L279.92 110.81L279.61 110.53L279.57 111C279.44 110.73 279.53 109.93 279.21 110.55C279.06 110.9 279.26 111.21 279.05 111.32C278.88 110.96 278.62 110.42 278.36 110.23C278.29 110.76 278.22 110.73 278.12 110.82L278.19 110.36C277.77 110.94 278.25 109.34 277.86 109.79L277.94 109.48L277.69 110.42C277.26 111.28 277.7 109.45 277.18 110.63C277.31 110.57 277.07 111.65 276.95 111.42L277.06 110.99C276.96 111.07 276.9 111.25 276.86 111.15C276.95 110.92 276.99 110.51 276.86 110.57L277.03 110.03L276.66 110.8C276.56 110.3 276.18 110.85 276.21 110.21C276.21 110.21 275.88 109.84 275.68 110.51C275.83 110.1 275.64 109.9 275.78 109.42C275.6 109.88 275.25 110.23 275.21 109.7L275.24 109.65C274.89 109.06 274.39 110.25 274.1 109.56C274.04 110.09 273.88 109.77 273.82 110.46C273.32 111.07 273.3 108.97 272.84 111.04C272.64 111.13 272.7 110.52 272.62 110.39L272.68 110.29C272.31 110.41 272.21 110.42 271.97 110.33C271.81 110.52 271.65 111.49 271.46 111.22C271.59 110.84 271.49 110.9 271.4 110.89C271.46 110.84 271.5 110.7 271.43 110.42C271.4 110.54 271.36 110.61 271.33 110.67C271.33 110.64 271.33 110.62 271.34 110.57C271.18 110.69 271.19 110.81 271.24 110.87C271.23 110.93 271.22 111.01 271.23 111.12C271.16 110.6 270.82 111.09 270.9 110.43C270.45 110.53 270.05 111.17 269.67 111.38C269.67 111.03 269.8 110.74 269.92 110.62L269.65 110.71C269.72 110.22 269.83 110.45 269.92 110.36C269.73 109.52 269.2 111.07 268.95 110.29L268.82 110.67V110.6C268.78 110.81 268.66 111.08 268.6 111.14C268.6 110.7 268.74 110.15 268.56 110.15C268.48 109.72 268.14 110.31 267.93 110.51C268.02 110.6 267.95 110.83 267.89 110.98C267.8 110.98 267.81 110.55 267.72 110.72L267.79 110.14C267.75 110.69 267.49 110.7 267.42 110.93C267.42 110.49 267.6 110.58 267.67 110.26C267.32 110.26 267.49 110.26 267.14 110.27C266.9 110.68 267.1 110.82 266.95 111.32C266.77 111.41 266.56 111.8 266.42 111.42V111.94C266.06 112.3 265.88 112.22 265.74 111.67C262.94 115.58 264.54 117.35 264.54 117.35C265.28 118.6 265.92 117.16 267.03 116.9H267.07Z" fill="#20BB65"/>
<path d="M311.709 127.84L311.62 128.05C311.69 127.98 311.729 127.9 311.709 127.84Z" fill="#20BB65"/>
<path d="M323.969 141.6C323.969 141.6 324 141.6 324.02 141.59C324 141.59 323.979 141.59 323.969 141.6Z" fill="#20BB65"/>
<path d="M308.719 135.01C308.719 135.01 308.69 135.02 308.67 135.04L308.719 135.01Z" fill="#20BB65"/>
<path d="M306.619 132.27C307.129 133.06 306.61 133.97 307.56 134.29C307.83 134.65 308.319 134.81 308.719 135.01C309.409 134.59 309.139 135.39 309.769 135.09L309.519 135.47C309.739 135.37 309.91 135.33 309.8 135.56L309.709 135.65C310.039 135.5 309.99 135.74 310.16 135.67L310.06 135.76L310.209 135.83L310.06 135.94C310.47 135.84 310.65 135.98 310.67 136.24L311.04 135.85C310.9 136.58 311.81 135.91 311.56 136.69L311.459 136.78C312.829 136.15 311.279 137.99 312.599 137.44C312.429 137.51 312.41 137.65 312.31 137.73C312.58 137.79 312.799 137.92 313.589 137.21C313.689 137.35 313.439 137.53 313.149 137.83C313.489 137.52 313.739 137.5 313.849 137.58L313.68 137.65L314.05 137.83L314.649 137.19C314.599 137.51 313.89 137.94 314.17 137.94L314.709 137.46C314.789 137.77 314.069 138.62 313.839 139.17C314.319 140.19 316.52 139.95 316.17 141.56L315.769 141.93C315.159 142.44 316.869 141.42 316.319 141.91L316.68 141.78C316.59 141.89 316.509 142.04 316.329 142.11C316.369 142.22 316.479 142.14 316.719 142.05L316.399 142.45C316.359 143.03 317.339 142.74 317.469 143.23C316.979 144.28 318.339 144.55 319.119 144.75C320.599 144.78 318.499 147.36 320.099 147.33C320.019 147.41 320.269 147.33 320.349 147.29L320.67 148.02C320.67 148.02 321.1 148.87 322.05 149C322.99 149.12 324.51 148.6 326.54 145.55L326.699 145.48C326.819 144.85 326.739 144.55 325.819 144.74C326.699 144.13 325.709 144.35 325.939 144.08L326.019 144.04C325.169 144.24 326.279 143.16 325.509 143.33C325.589 143.29 325.839 143.14 325.889 143.18C325.659 143.08 325.309 142.98 325.819 142.63C325.409 142.31 325.279 141.58 324.279 141.89L324.43 141.81C323.78 142.04 324.219 141.68 323.819 141.71C323.879 141.65 323.909 141.62 323.939 141.6C323.289 141.82 323.539 141.2 323.219 141.24L323.55 140.99L323.249 140.73V140.9C322.309 141.52 323.67 140.25 322.91 140.46C322.87 140.16 320.689 141.43 320.989 140.89C320.489 141.11 321.75 140.46 321.31 140.56C321.78 140.2 321.659 140.41 322.009 140.09C321.679 140.11 322.319 139.48 321.849 139.54L322.209 139.26C321.349 139.53 322.349 138.44 321.589 138.77C321.099 138.76 322.549 137.77 321.639 138.06L322.06 137.57C322.06 137.4 321.39 137.96 321.54 137.66C321.86 137.42 321.659 137.31 322.019 137.15C322.279 136.49 320.89 137.14 321.41 136.12C320.75 136.52 320.959 136.05 320.469 136.36C320.719 136.14 320.209 135.97 320.939 135.71C320.999 135.69 321.02 135.73 320.92 135.81L321.29 135.55C321.78 134.8 320.61 135.48 320.55 135.19C320.48 135.35 320.58 135.4 320.3 135.55L320.189 135.32L320.519 135.11L320.459 134.69L320.129 135.03C320.199 134.74 320.769 134.16 320.129 134.45C319.789 134.63 319.759 134.99 319.519 134.95C319.609 134.56 319.739 133.98 319.649 133.65C319.269 134.02 319.229 133.95 319.089 133.96L319.43 133.65C318.74 133.83 320.109 132.89 319.519 132.98L319.779 132.79L318.999 133.37C318.129 133.76 319.609 132.61 318.459 133.21C318.599 133.25 317.74 133.94 317.79 133.69L318.149 133.42C318.019 133.42 317.859 133.52 317.889 133.42C318.099 133.3 318.389 133 318.249 132.96L318.719 132.65L317.949 133.03C318.179 132.57 317.539 132.76 317.949 132.28C317.949 132.28 317.909 131.77 317.339 132.18C317.709 131.95 317.679 131.67 318.089 131.38C317.659 131.64 317.169 131.69 317.459 131.24L317.519 131.22C317.589 130.53 316.459 131.16 316.639 130.42C316.269 130.81 316.329 130.45 315.869 130.97C315.099 131.15 316.319 129.45 314.709 130.84C314.499 130.79 314.9 130.33 314.91 130.18L315.019 130.13C314.649 130 314.56 129.94 314.41 129.73C314.17 129.79 313.469 130.48 313.469 130.15C313.799 129.92 313.679 129.91 313.609 129.85C313.689 129.85 313.809 129.75 313.899 129.48C313.799 129.56 313.73 129.59 313.67 129.62C313.69 129.6 313.699 129.58 313.729 129.55C313.529 129.55 313.459 129.65 313.469 129.74C313.429 129.78 313.379 129.84 313.319 129.93C313.559 129.46 312.989 129.66 313.439 129.16C313.019 128.97 312.309 129.26 311.869 129.21C312.079 128.93 312.349 128.76 312.519 128.73L312.239 128.65C312.579 128.29 312.54 128.54 312.67 128.52C312.99 127.72 311.659 128.68 311.889 127.89L311.569 128.13L311.599 128.07C311.459 128.23 311.209 128.38 311.129 128.4C311.379 128.04 311.799 127.66 311.649 127.56C311.819 127.15 311.21 127.45 310.91 127.5C310.94 127.62 310.749 127.78 310.619 127.87C310.539 127.82 310.789 127.46 310.619 127.56L310.999 127.11C310.659 127.55 310.429 127.4 310.249 127.56C310.499 127.2 310.599 127.37 310.829 127.14C310.519 126.94 310.679 127.04 310.369 126.85C309.939 127.06 310.029 127.29 309.629 127.62C309.429 127.6 309.039 127.8 309.129 127.41L308.839 127.84C308.339 127.95 308.24 127.78 308.42 127.25C306.18 128.13 305.179 129.19 304.719 129.99C304.259 130.8 304.339 131.37 304.339 131.37C304.249 132.79 305.559 131.92 306.599 132.29L306.619 132.27Z" fill="#20BB65"/>
<path d="M335.339 168.03L335.14 168.15C335.24 168.13 335.319 168.09 335.339 168.03Z" fill="#20BB65"/>
<path d="M337.089 186.38C337.089 186.38 337.12 186.39 337.14 186.4C337.12 186.39 337.109 186.38 337.089 186.38Z" fill="#20BB65"/>
<path d="M328.709 172.08C328.709 172.08 328.68 172.08 328.65 172.07H328.709V172.08Z" fill="#20BB65"/>
<path d="M328.62 168.65C328.56 169.58 327.609 170.01 328.199 170.82C328.199 171.26 328.509 171.68 328.709 172.07C329.519 172.13 328.81 172.62 329.5 172.75L329.079 172.91C329.319 172.96 329.48 173.03 329.26 173.15L329.13 173.17C329.48 173.24 329.309 173.41 329.479 173.44H329.349L329.43 173.59H329.24C329.63 173.75 329.68 173.97 329.55 174.19L330.079 174.1C329.539 174.6 330.67 174.61 330.01 175.08H329.88C331.36 175.4 329.01 175.96 330.41 176.3C330.24 176.26 330.14 176.36 330.01 176.37C330.19 176.58 330.299 176.82 331.349 176.71C331.349 176.88 331.03 176.88 330.63 176.94C331.09 176.89 331.299 177.02 331.339 177.15L331.16 177.11L331.349 177.47L332.219 177.31C331.989 177.54 331.16 177.46 331.39 177.63L332.11 177.56C331.99 177.85 330.91 178.11 330.4 178.42C330.18 179.53 332.089 180.63 330.849 181.73L330.31 181.79C329.51 181.83 331.5 182.04 330.76 182.1L331.13 182.21C330.99 182.25 330.84 182.32 330.66 182.27C330.63 182.38 330.76 182.38 331 182.45L330.51 182.58C330.13 183.02 331.1 183.38 330.91 183.84C329.9 184.39 330.829 185.43 331.349 186.05C332.529 186.95 329.3 187.8 330.62 188.72C330.51 188.74 330.749 188.83 330.849 188.83L330.689 189.61C330.689 189.61 330.539 190.56 331.229 191.22C331.919 191.87 333.46 192.33 336.89 191.06L337.06 191.1C337.52 190.67 337.64 190.37 336.79 189.99C337.86 190.01 336.93 189.61 337.28 189.53L337.37 189.55C336.57 189.21 338.09 189 337.37 188.68C337.45 188.7 337.75 188.72 337.76 188.78C337.64 188.57 337.41 188.28 338.03 188.3C337.89 187.81 338.209 187.14 337.219 186.8L337.39 186.83C336.72 186.63 337.299 186.6 336.959 186.39C337.039 186.39 337.08 186.37 337.12 186.37C336.46 186.16 337.03 185.81 336.75 185.65H337.16L337.069 185.27L336.979 185.41C335.839 185.35 337.699 185.13 336.959 184.85C337.099 184.59 334.6 184.32 335.15 184.06C334.62 183.94 336.02 184.17 335.61 183.98C336.2 183.98 335.979 184.07 336.459 184.02C336.179 183.84 337.07 183.71 336.67 183.48H337.13C336.28 183.18 337.73 182.89 336.92 182.7C336.53 182.4 338.29 182.46 337.38 182.16L338 182.02C338.1 181.88 337.23 181.94 337.53 181.78C337.92 181.78 337.839 181.57 338.219 181.65C338.819 181.27 337.319 180.97 338.339 180.46C337.569 180.39 338.019 180.14 337.439 180.09C337.769 180.06 337.469 179.62 338.209 179.84C338.269 179.86 338.26 179.9 338.13 179.9H338.579C339.429 179.59 338.079 179.45 338.199 179.18C338.049 179.27 338.1 179.37 337.79 179.32L337.839 179.07L338.229 179.1L338.43 178.72L337.959 178.8C338.189 178.61 338.99 178.49 338.31 178.33C337.93 178.27 337.69 178.54 337.52 178.37C337.83 178.11 338.28 177.72 338.4 177.4C337.87 177.47 337.88 177.4 337.77 177.32L338.229 177.27C337.559 177 339.229 177.06 338.689 176.79H339.01H338.04C337.1 176.59 338.979 176.54 337.709 176.34C337.799 176.46 336.7 176.5 336.89 176.33H337.339C337.239 176.25 337.05 176.24 337.14 176.17C337.39 176.2 337.789 176.13 337.699 176.01L338.27 176.04L337.43 175.89C337.89 175.66 337.26 175.43 337.87 175.28C337.87 175.28 338.129 174.85 337.439 174.84C337.869 174.87 338.01 174.63 338.52 174.63C338.03 174.58 337.599 174.33 338.089 174.14L338.15 174.16C338.61 173.64 337.33 173.49 337.91 172.99C337.38 173.08 337.639 172.83 336.969 172.99C336.249 172.68 338.23 172.02 336.12 172.2C335.98 172.03 336.58 171.9 336.67 171.79L336.79 171.82C336.56 171.5 336.53 171.4 336.53 171.13C336.3 171.03 335.33 171.18 335.52 170.91C335.92 170.91 335.83 170.84 335.81 170.75C335.88 170.79 336.03 170.79 336.26 170.63C336.14 170.63 336.06 170.63 335.99 170.61C336.02 170.61 336.039 170.59 336.079 170.59C335.919 170.47 335.8 170.52 335.76 170.59C335.7 170.59 335.63 170.62 335.52 170.66C335.99 170.42 335.409 170.25 336.069 170.11C335.829 169.7 335.1 169.53 334.77 169.22C335.1 169.11 335.419 169.13 335.569 169.22L335.39 168.99C335.88 168.89 335.699 169.08 335.819 169.14C336.549 168.67 334.9 168.68 335.55 168.17H335.15L335.209 168.14C335.009 168.18 334.71 168.17 334.64 168.13C335.05 167.99 335.62 167.92 335.56 167.75C335.94 167.52 335.27 167.4 335 167.27C334.95 167.38 334.71 167.41 334.55 167.4C334.52 167.32 334.929 167.17 334.729 167.14L335.3 167C334.77 167.16 334.67 166.91 334.43 166.93C334.84 166.78 334.83 166.98 335.15 166.93C335.01 166.59 335.079 166.76 334.949 166.42C334.479 166.34 334.42 166.58 333.9 166.61C333.75 166.47 333.32 166.41 333.62 166.14L333.13 166.32C332.66 166.12 332.67 165.92 333.13 165.59C330.79 165 329.37 165.3 328.53 165.69C327.69 166.09 327.42 166.59 327.42 166.59C326.52 167.69 328.089 167.72 328.709 168.63L328.62 168.65Z" fill="#20BB65"/>
<path d="M331.449 214.48H331.219C331.309 214.51 331.399 214.52 331.449 214.48Z" fill="#20BB65"/>
<path d="M323.55 231C323.55 231 323.569 231.02 323.579 231.04C323.579 231.02 323.56 231.01 323.55 231Z" fill="#20BB65"/>
<path d="M323.68 214.37C323.68 214.37 323.65 214.34 323.64 214.33L323.68 214.37Z" fill="#20BB65"/>
<path d="M325.449 211.38C324.899 212.14 323.87 212 323.92 213.01C323.68 213.39 323.72 213.91 323.68 214.36C324.33 214.85 323.469 214.89 323.989 215.37L323.54 215.29C323.72 215.45 323.82 215.6 323.56 215.59L323.439 215.53C323.699 215.78 323.459 215.83 323.589 215.95L323.469 215.89V216.05L323.3 215.95C323.54 216.29 323.469 216.51 323.239 216.63L323.739 216.83C323.019 216.98 323.98 217.58 323.17 217.64L323.05 217.58C324.15 218.61 321.849 217.88 322.869 218.9C322.739 218.77 322.609 218.81 322.489 218.75C322.529 219.03 322.499 219.28 323.459 219.74C323.369 219.89 323.099 219.72 322.719 219.57C323.139 219.77 323.249 219.98 323.219 220.12L323.079 219.99L323.06 220.4L323.879 220.71C323.559 220.78 322.889 220.29 322.999 220.56L323.649 220.87C323.399 221.06 322.339 220.73 321.739 220.73C320.969 221.58 322.06 223.51 320.43 223.84L319.93 223.62C319.22 223.26 320.829 224.43 320.159 224.12L320.42 224.4C320.28 224.36 320.109 224.35 319.979 224.21C319.899 224.29 320.01 224.36 320.18 224.55L319.689 224.42C319.139 224.62 319.799 225.41 319.389 225.72C318.239 225.7 318.519 227.07 318.659 227.87C319.229 229.24 316.009 228.4 316.699 229.86C316.589 229.82 316.759 230.02 316.839 230.07L316.31 230.68C316.31 230.68 315.719 231.44 315.999 232.36C316.289 233.27 317.43 234.4 321.04 234.95L321.17 235.06C321.78 234.91 322.029 234.71 321.469 233.96C322.389 234.5 321.769 233.7 322.119 233.8L322.189 233.86C321.649 233.18 323.089 233.73 322.609 233.11C322.679 233.16 322.919 233.33 322.899 233.39C322.899 233.15 322.839 232.79 323.369 233.11C323.479 232.62 324.089 232.19 323.399 231.42L323.54 231.53C323.06 231.03 323.569 231.28 323.379 230.94C323.459 230.97 323.499 230.98 323.529 231C323.059 230.5 323.72 230.47 323.56 230.2L323.92 230.4L324.029 230.03L323.879 230.11C322.919 229.49 324.639 230.23 324.139 229.62C324.389 229.47 322.349 227.99 322.959 228.04C322.559 227.67 323.659 228.57 323.389 228.2C323.909 228.49 323.669 228.46 324.099 228.65C323.949 228.35 324.78 228.69 324.54 228.29L324.949 228.51C324.359 227.84 325.759 228.31 325.149 227.74C324.959 227.29 326.449 228.22 325.819 227.5L326.43 227.69C326.59 227.62 325.809 227.24 326.139 227.25C326.479 227.45 326.51 227.23 326.8 227.49C327.51 227.47 326.359 226.45 327.499 226.53C326.869 226.08 327.379 226.09 326.899 225.76C327.199 225.9 327.159 225.38 327.689 225.94C327.729 225.99 327.699 226.02 327.589 225.95L327.979 226.19C328.869 226.35 327.779 225.55 328.019 225.38C327.849 225.38 327.839 225.49 327.589 225.29L327.749 225.1L328.069 225.32L328.43 225.1L327.979 224.93C328.279 224.88 329.019 225.19 328.509 224.71C328.219 224.46 327.859 224.57 327.819 224.34C328.209 224.28 328.809 224.18 329.069 223.96C328.579 223.75 328.629 223.69 328.569 223.56L328.989 223.75C328.549 223.18 329.959 224.09 329.639 223.58L329.92 223.75L329.089 223.25C328.389 222.6 330.019 223.52 329.029 222.7C329.049 222.85 328.079 222.31 328.329 222.26L328.719 222.49C328.669 222.37 328.519 222.27 328.619 222.26C328.819 222.41 329.2 222.56 329.18 222.42L329.649 222.73L329.009 222.16C329.519 222.2 329.099 221.68 329.699 221.88C329.699 221.88 330.15 221.65 329.56 221.28C329.92 221.53 330.159 221.4 330.589 221.66C330.189 221.36 329.959 220.93 330.479 221.03L330.519 221.07C331.179 220.87 330.17 220.07 330.92 219.96C330.42 219.76 330.769 219.68 330.119 219.46C329.659 218.82 331.7 219.31 329.81 218.35C329.78 218.13 330.349 218.34 330.489 218.29L330.579 218.37C330.559 217.98 330.579 217.88 330.719 217.65C330.579 217.45 329.679 217.06 329.979 216.94C330.319 217.16 330.279 217.04 330.319 216.96C330.359 217.03 330.479 217.1 330.769 217.1C330.659 217.04 330.6 216.99 330.55 216.94C330.58 216.95 330.599 216.96 330.639 216.97C330.569 216.78 330.439 216.76 330.369 216.8C330.319 216.77 330.239 216.75 330.129 216.73C330.659 216.78 330.249 216.33 330.879 216.56C330.899 216.09 330.369 215.55 330.249 215.12C330.589 215.21 330.84 215.4 330.93 215.54L330.899 215.25C331.359 215.43 331.12 215.49 331.18 215.6C332.04 215.6 330.649 214.72 331.469 214.65L331.129 214.44H331.199C330.999 214.37 330.769 214.2 330.719 214.12C331.139 214.22 331.659 214.47 331.689 214.29C332.129 214.3 331.629 213.84 331.469 213.59C331.369 213.66 331.149 213.55 331.019 213.45C331.039 213.36 331.46 213.46 331.31 213.33L331.859 213.52C331.329 213.37 331.379 213.1 331.159 212.99C331.589 213.09 331.469 213.24 331.769 213.38C331.839 213.03 331.799 213.2 331.869 212.85C331.519 212.52 331.339 212.7 330.879 212.44C330.829 212.24 330.499 211.96 330.889 211.89L330.379 211.78C330.099 211.36 330.209 211.2 330.779 211.17C329.139 209.41 327.789 208.87 326.869 208.74C325.949 208.61 325.439 208.89 325.439 208.89C324.079 209.33 325.379 210.23 325.409 211.34L325.449 211.38Z" fill="#20BB65"/>
<path d="M305.53 253.13L305.329 253.02C305.399 253.09 305.47 253.14 305.53 253.13Z" fill="#20BB65"/>
<path d="M291.219 264.51C291.219 264.51 291.219 264.54 291.229 264.56C291.229 264.54 291.229 264.52 291.219 264.51Z" fill="#20BB65"/>
<path d="M298.609 249.59C298.609 249.59 298.599 249.56 298.589 249.54L298.609 249.59Z" fill="#20BB65"/>
<path d="M301.539 247.68C300.699 248.12 299.839 247.54 299.439 248.47C299.059 248.71 298.859 249.2 298.619 249.58C298.989 250.31 298.199 249.97 298.449 250.62L298.089 250.35C298.169 250.57 298.199 250.76 297.979 250.63L297.899 250.53C298.029 250.87 297.789 250.81 297.849 250.98L297.769 250.88L297.689 251.02L297.589 250.86C297.659 251.28 297.499 251.44 297.239 251.44L297.599 251.84C296.879 251.66 297.479 252.61 296.729 252.32L296.649 252.22C297.179 253.63 295.439 251.96 295.899 253.33C295.839 253.16 295.699 253.13 295.629 253.03C295.549 253.3 295.409 253.52 296.069 254.35C295.929 254.45 295.749 254.18 295.479 253.87C295.769 254.23 295.769 254.47 295.689 254.58L295.629 254.4L295.43 254.76L296.029 255.4C295.709 255.33 295.33 254.59 295.3 254.88L295.749 255.45C295.439 255.51 294.629 254.75 294.089 254.49C293.019 254.92 293.16 257.14 291.55 256.72L291.189 256.3C290.709 255.66 291.649 257.42 291.189 256.85L291.3 257.22C291.19 257.12 291.039 257.04 290.989 256.86C290.879 256.9 290.949 257.01 291.029 257.25L290.639 256.92C290.059 256.86 290.3 257.86 289.81 257.97C288.78 257.46 288.439 258.81 288.219 259.6C288.149 261.08 285.599 258.94 285.589 260.55C285.509 260.47 285.579 260.72 285.629 260.8L284.889 261.12C284.889 261.12 284.019 261.55 283.879 262.51C283.749 263.46 284.29 264.97 287.31 267.01L287.379 267.17C287.999 267.3 288.299 267.22 288.119 266.31C288.719 267.2 288.499 266.2 288.779 266.44L288.819 266.52C288.629 265.67 289.679 266.79 289.529 266.02C289.569 266.1 289.72 266.35 289.67 266.4C289.77 266.18 289.869 265.83 290.219 266.35C290.539 265.95 291.259 265.83 290.969 264.83L291.05 264.99C290.83 264.33 291.179 264.78 291.159 264.39C291.209 264.45 291.249 264.48 291.269 264.51C291.059 263.85 291.669 264.12 291.639 263.8L291.879 264.14L292.139 263.85H291.969C291.379 262.88 292.61 264.29 292.42 263.52C292.71 263.49 291.509 261.27 292.039 261.59C291.839 261.08 292.439 262.37 292.359 261.92C292.699 262.4 292.5 262.28 292.81 262.64C292.81 262.3 293.409 262.97 293.369 262.51L293.639 262.88C293.399 262.02 294.449 263.05 294.149 262.28C294.179 261.79 295.109 263.28 294.849 262.35L295.319 262.79C295.489 262.79 294.949 262.11 295.259 262.27C295.479 262.6 295.599 262.41 295.749 262.77C296.399 263.07 295.799 261.65 296.789 262.21C296.409 261.53 296.869 261.76 296.589 261.26C296.799 261.52 296.989 261.03 297.219 261.76C297.239 261.82 297.199 261.84 297.119 261.73L297.369 262.11C298.099 262.64 297.469 261.45 297.759 261.39C297.609 261.32 297.55 261.41 297.42 261.12L297.649 261.02L297.839 261.36L298.259 261.32L297.93 260.97C298.22 261.06 298.759 261.66 298.509 261C298.349 260.65 297.99 260.6 298.05 260.37C298.43 260.48 299.009 260.66 299.329 260.58C298.979 260.18 299.05 260.14 299.05 260.01L299.339 260.37C299.189 259.67 300.059 261.1 299.989 260.5L300.17 260.77L299.639 259.96C299.289 259.07 300.359 260.62 299.829 259.44C299.779 259.58 299.149 258.68 299.389 258.74L299.639 259.11C299.639 258.98 299.549 258.82 299.659 258.86C299.769 259.08 300.049 259.38 300.099 259.25L300.379 259.74L300.05 258.95C300.49 259.21 300.339 258.56 300.789 259C300.789 259 301.29 258.99 300.92 258.4C301.129 258.78 301.399 258.77 301.67 259.2C301.44 258.76 301.419 258.27 301.839 258.58L301.859 258.64C302.539 258.75 301.979 257.59 302.699 257.82C302.339 257.42 302.689 257.51 302.199 257.02C302.069 256.24 303.679 257.59 302.409 255.88C302.479 255.67 302.9 256.11 303.05 256.13L303.089 256.24C303.239 255.88 303.299 255.8 303.529 255.66C303.489 255.42 302.85 254.67 303.18 254.69C303.38 255.03 303.409 254.92 303.469 254.86C303.469 254.94 303.55 255.06 303.81 255.18C303.74 255.08 303.709 255.01 303.689 254.94C303.709 254.96 303.729 254.98 303.759 255.01C303.779 254.81 303.679 254.74 303.589 254.74C303.549 254.69 303.499 254.64 303.409 254.57C303.859 254.85 303.699 254.26 304.159 254.75C304.379 254.34 304.139 253.62 304.229 253.18C304.489 253.41 304.639 253.69 304.649 253.86L304.749 253.59C305.089 253.96 304.839 253.9 304.849 254.03C305.619 254.41 304.769 253.01 305.529 253.31L305.319 252.97L305.379 253C305.239 252.85 305.099 252.59 305.089 252.5C305.419 252.78 305.769 253.23 305.879 253.09C306.269 253.3 306.029 252.66 305.999 252.37C305.879 252.39 305.739 252.19 305.659 252.05C305.709 251.98 306.049 252.26 305.969 252.07L306.379 252.49C305.969 252.12 306.129 251.9 305.989 251.7C306.329 251.98 306.149 252.06 306.359 252.32C306.579 252.03 306.469 252.18 306.689 251.89C306.519 251.44 306.279 251.52 305.989 251.08C306.029 250.88 305.859 250.48 306.239 250.6L305.829 250.27C305.769 249.77 305.939 249.68 306.459 249.9C305.779 247.59 304.82 246.5 304.06 245.97C303.29 245.44 302.719 245.47 302.719 245.47C301.309 245.26 302.059 246.64 301.589 247.65L301.539 247.68Z" fill="#20BB65"/>
<path d="M265.469 276.78L265.329 276.6C265.359 276.69 265.409 276.77 265.469 276.78Z" fill="#20BB65"/>
<path d="M247.709 281.01C247.709 281.01 247.709 281.04 247.709 281.06C247.709 281.04 247.719 281.03 247.709 281.01Z" fill="#20BB65"/>
<path d="M264.18 270.15C263.23 270.19 262.699 269.3 261.939 269.97C261.489 270.02 261.11 270.38 260.72 270.62C260.74 271.43 260.17 270.79 260.12 271.49L259.91 271.09C259.89 271.33 259.839 271.5 259.689 271.3L259.66 271.17C259.63 271.53 259.44 271.38 259.42 271.56L259.39 271.43L259.26 271.53L259.24 271.34C259.12 271.74 258.91 271.82 258.67 271.72L258.83 272.24C258.26 271.77 258.39 272.89 257.84 272.3L257.81 272.17C257.69 273.67 256.82 271.42 256.66 272.85C256.68 272.67 256.57 272.59 256.54 272.46C256.35 272.67 256.13 272.81 256.38 273.83C256.21 273.86 256.17 273.54 256.05 273.15C256.16 273.6 256.059 273.82 255.939 273.88L255.96 273.69L255.62 273.93L255.89 274.77C255.63 274.57 255.59 273.74 255.45 273.99L255.62 274.7C255.31 274.63 254.9 273.59 254.52 273.13C253.37 273.07 252.55 275.13 251.27 274.08L251.12 273.55C250.95 272.77 251.06 274.76 250.88 274.04L250.83 274.42C250.77 274.29 250.67 274.15 250.7 273.96C250.58 273.95 250.609 274.08 250.569 274.33L250.36 273.86C249.86 273.56 249.66 274.57 249.16 274.46C248.44 273.56 247.56 274.64 247.03 275.27C246.34 276.58 244.93 273.57 244.24 275.02C244.2 274.91 244.16 275.17 244.17 275.26L243.36 275.24C243.36 275.24 242.39 275.27 241.86 276.08C241.34 276.89 241.2 278.48 243.09 281.61V281.78C243.59 282.15 243.9 282.21 244.12 281.31C244.29 282.37 244.51 281.37 244.66 281.71V281.8C244.84 280.95 245.33 282.41 245.51 281.65C245.51 281.74 245.54 282.03 245.48 282.05C245.66 281.89 245.9 281.62 246 282.23C246.45 282 247.16 282.2 247.319 281.17V281.34C247.399 280.65 247.53 281.21 247.67 280.84C247.69 280.92 247.71 280.96 247.71 280.99C247.8 280.31 248.24 280.8 248.35 280.5L248.42 280.91L248.78 280.76L248.63 280.69C248.5 279.56 249.02 281.35 249.18 280.58C249.46 280.68 249.3 278.16 249.65 278.67C249.68 278.12 249.69 279.54 249.8 279.11C249.91 279.69 249.78 279.49 249.9 279.95C250.03 279.64 250.3 280.5 250.46 280.06L250.55 280.51C250.7 279.63 251.21 281.01 251.27 280.18C251.5 279.75 251.72 281.49 251.87 280.54L252.11 281.13C252.27 281.2 252.07 280.36 252.27 280.63C252.33 281.02 252.52 280.9 252.5 281.29C252.96 281.83 253.02 280.3 253.68 281.23C253.63 280.46 253.94 280.86 253.9 280.28C253.98 280.6 254.36 280.24 254.26 281C254.26 281.06 254.209 281.06 254.189 280.93L254.25 281.38C254.68 282.17 254.62 280.82 254.9 280.9C254.79 280.77 254.7 280.83 254.7 280.51H254.95L254.98 280.9L255.38 281.04L255.23 280.59C255.45 280.79 255.69 281.56 255.74 280.86C255.74 280.48 255.44 280.27 255.59 280.09C255.89 280.35 256.34 280.76 256.66 280.82C256.51 280.31 256.6 280.31 256.66 280.18L256.77 280.63C256.93 279.93 257.11 281.59 257.31 281.02L257.36 281.34L257.22 280.38C257.28 279.42 257.59 281.28 257.61 279.99C257.51 280.1 257.32 279.01 257.51 279.17L257.58 279.61C257.64 279.5 257.62 279.31 257.7 279.39C257.7 279.64 257.83 280.03 257.93 279.92L257.98 280.48L258.02 279.63C258.31 280.05 258.45 279.4 258.67 279.99C258.67 279.99 259.13 280.19 259.04 279.5C259.07 279.93 259.32 280.04 259.38 280.54C259.36 280.05 259.55 279.59 259.8 280.06V280.12C260.36 280.52 260.34 279.22 260.9 279.74C260.74 279.23 261.02 279.45 260.79 278.81C261 278.05 261.89 279.96 261.46 277.87C261.61 277.71 261.81 278.29 261.93 278.37V278.49C262.21 278.23 262.3 278.18 262.56 278.15C262.63 277.92 262.37 276.96 262.66 277.13C262.7 277.53 262.77 277.43 262.85 277.41C262.81 277.49 262.84 277.63 263.02 277.85C263 277.73 263 277.65 263.01 277.58C263.01 277.61 263.03 277.63 263.04 277.67C263.14 277.5 263.08 277.39 263 277.35C262.99 277.29 262.96 277.22 262.91 277.12C263.2 277.56 263.3 276.97 263.51 277.6C263.88 277.32 263.97 276.57 264.24 276.21C264.38 276.53 264.39 276.85 264.33 277.01L264.54 276.81C264.69 277.29 264.489 277.13 264.439 277.25C264.979 277.93 264.8 276.29 265.36 276.89L265.31 276.49L265.35 276.55C265.28 276.35 265.27 276.06 265.3 275.98C265.48 276.38 265.61 276.93 265.77 276.85C266.03 277.2 266.09 276.53 266.18 276.25C266.06 276.21 266.02 275.97 266.01 275.81C266.09 275.77 266.27 276.16 266.28 275.96L266.47 276.51C266.26 276 266.5 275.87 266.45 275.63C266.64 276.02 266.44 276.03 266.52 276.35C266.84 276.18 266.68 276.27 267 276.1C267.04 275.62 266.79 275.59 266.71 275.07C266.83 274.91 266.85 274.47 267.14 274.74L266.91 274.27C267.07 273.79 267.26 273.78 267.63 274.21C268 271.83 267.6 270.44 267.13 269.63C266.66 268.82 266.13 268.6 266.13 268.6C264.94 267.81 265.03 269.38 264.17 270.09L264.18 270.15Z" fill="#20BB65"/>
<path d="M221.13 281.75L221.109 281.53C221.109 281.63 221.11 281.72 221.13 281.75Z" fill="#20BB65"/>
<path d="M211.92 280.73C211.92 280.73 211.92 280.76 211.9 280.78C211.9 280.76 211.91 280.75 211.92 280.73Z" fill="#20BB65"/>
<path d="M220.39 274.37C220.39 274.37 220.39 274.34 220.4 274.32L220.38 274.37H220.39Z" fill="#20BB65"/>
<path d="M222.089 275.11C221.649 274.81 221.609 273.8 221.099 274.16C220.879 274.06 220.62 274.27 220.38 274.37C220.2 275.14 220.09 274.35 219.9 275V274.55C219.83 274.77 219.76 274.92 219.74 274.67L219.76 274.54C219.66 274.87 219.61 274.66 219.56 274.83L219.579 274.7L219.5 274.75L219.53 274.57C219.38 274.91 219.26 274.93 219.18 274.75L219.13 275.29C218.97 274.67 218.78 275.77 218.65 275.04L218.67 274.91C218.27 276.3 218.379 273.9 217.979 275.22C218.03 275.06 218 274.94 218.01 274.81C217.87 274.95 217.74 275.02 217.62 276.07C217.53 276.05 217.59 275.73 217.62 275.32C217.57 275.78 217.47 275.96 217.4 275.98L217.449 275.81L217.24 275.94L217.18 276.81C217.11 276.55 217.28 275.75 217.16 275.94L217.079 276.66C216.949 276.5 217 275.4 216.93 274.85C216.4 274.47 215.549 276.23 215.189 274.89L215.24 274.35C215.34 273.56 214.93 275.5 215.01 274.77L214.9 275.12C214.9 274.98 214.889 274.82 214.939 274.65C214.889 274.61 214.87 274.74 214.79 274.97V274.47C214.63 274.06 214.299 274.98 214.089 274.75C213.949 273.71 213.29 274.55 212.89 275.03C212.27 276.14 212.27 272.92 211.61 274.2C211.61 274.09 211.54 274.33 211.52 274.42L211.13 274.24C211.13 274.24 210.659 274.08 210.219 274.76C209.789 275.44 209.369 276.97 209.579 280.36L209.54 280.53C209.7 280.99 209.83 281.1 210.14 280.27C209.99 281.33 210.31 280.41 210.31 280.76L210.29 280.85C210.57 280.06 210.47 281.57 210.73 280.87C210.71 280.95 210.66 281.24 210.63 281.25C210.75 281.13 210.929 280.92 210.829 281.54C211.099 281.42 211.389 281.76 211.689 280.8L211.65 280.97C211.84 280.32 211.78 280.89 211.93 280.57C211.93 280.65 211.92 280.69 211.92 280.73C212.12 280.09 212.209 280.67 212.329 280.4L212.27 280.81L212.469 280.74L212.41 280.64C212.61 279.52 212.449 281.37 212.689 280.66C212.799 280.82 213.299 278.36 213.349 278.93C213.489 278.41 213.169 279.78 213.319 279.39C213.239 279.98 213.22 279.75 213.18 280.22C213.31 279.96 213.24 280.84 213.42 280.46L213.36 280.92C213.63 280.11 213.56 281.56 213.77 280.78C213.98 280.42 213.679 282.15 213.969 281.28L213.949 281.91C214.009 282.02 214.1 281.16 214.14 281.47C214.08 281.86 214.189 281.79 214.099 282.16C214.189 282.8 214.57 281.34 214.66 282.4C214.81 281.65 214.87 282.11 214.98 281.55C214.94 281.88 215.2 281.63 214.98 282.34C214.96 282.4 214.939 282.38 214.959 282.25L214.89 282.7C214.91 283.57 215.19 282.26 215.3 282.41C215.28 282.26 215.22 282.29 215.3 281.98L215.41 282.06L215.339 282.44L215.49 282.68L215.52 282.21C215.58 282.46 215.509 283.27 215.689 282.61C215.779 282.24 215.69 281.97 215.8 281.83C215.88 282.17 215.99 282.67 216.13 282.83C216.18 282.3 216.22 282.32 216.27 282.22L216.219 282.68C216.459 282.06 216.16 283.7 216.38 283.21L216.329 283.53L216.49 282.57C216.74 281.68 216.46 283.53 216.76 282.31C216.69 282.38 216.85 281.29 216.9 281.5L216.829 281.94C216.879 281.85 216.919 281.67 216.939 281.76C216.889 282 216.85 282.4 216.92 282.34L216.81 282.89L217.02 282.09C217.06 282.58 217.27 282 217.24 282.63C217.24 282.63 217.4 282.96 217.53 282.28C217.44 282.7 217.529 282.88 217.449 283.37C217.549 282.89 217.75 282.52 217.75 283.04L217.729 283.1C217.899 283.65 218.189 282.42 218.329 283.08C218.379 282.54 218.45 282.85 218.5 282.16C218.77 281.51 218.74 283.59 219.02 281.48C219.13 281.38 219.08 281.99 219.12 282.1L219.089 282.21C219.279 282.05 219.339 282.04 219.459 282.1C219.549 281.9 219.65 280.92 219.74 281.17C219.67 281.56 219.72 281.49 219.76 281.49C219.73 281.55 219.7 281.69 219.74 281.96C219.76 281.84 219.78 281.77 219.8 281.71C219.8 281.74 219.8 281.76 219.8 281.81C219.89 281.68 219.88 281.56 219.86 281.5C219.86 281.44 219.87 281.36 219.87 281.25C219.9 281.76 220.08 281.23 220.03 281.91C220.26 281.77 220.479 281.1 220.689 280.85C220.689 281.2 220.61 281.5 220.55 281.63L220.689 281.51C220.649 282.01 220.59 281.79 220.54 281.89C220.63 282.71 220.93 281.12 221.05 281.87L221.12 281.48V281.55C221.14 281.34 221.21 281.06 221.24 281C221.23 281.43 221.16 282 221.24 281.98C221.28 282.4 221.459 281.79 221.569 281.56C221.529 281.48 221.569 281.24 221.589 281.09C221.639 281.08 221.63 281.51 221.68 281.33L221.64 281.91C221.67 281.36 221.799 281.33 221.839 281.09C221.839 281.52 221.739 281.46 221.709 281.78C221.889 281.74 221.8 281.76 221.99 281.72C222.12 281.29 222.009 281.17 222.099 280.66C222.189 280.55 222.3 280.15 222.37 280.51V279.99C222.56 279.6 222.649 279.66 222.719 280.2C223.449 278.13 223.599 276.69 223.569 275.77C223.549 274.85 223.349 274.45 223.349 274.45C222.989 273.27 222.659 274.77 222.099 275.13L222.089 275.11Z" fill="#20BB65"/>
</svg>
