<svg width="306" height="113" viewBox="0 0 306 113" fill="none" xmlns="http://www.w3.org/2000/svg">
<path d="M304.26 7.81995L304.03 7.75C304.12 7.81 304.2 7.84995 304.26 7.81995Z" fill="#ACDE45"/>
<path d="M290.39 22.4102C290.39 22.4102 290.4 22.4401 290.41 22.4601C290.41 22.4401 290.41 22.4202 290.39 22.4102Z" fill="#ACDE45"/>
<path d="M296.28 5.37036C296.28 5.37036 296.26 5.34031 296.25 5.32031L296.28 5.37036Z" fill="#ACDE45"/>
<path d="M299 2.84012C298.2 3.46012 297.18 3.01022 296.94 4.06022C296.58 4.38022 296.46 4.93015 296.28 5.37015C296.8 6.07015 295.9 5.85016 296.28 6.50016L295.85 6.27018C295.98 6.49018 296.04 6.68011 295.78 6.58011L295.68 6.49015C295.87 6.83015 295.61 6.81013 295.7 6.97013L295.6 6.88016L295.54 7.05021L295.41 6.90018C295.55 7.33018 295.41 7.53011 295.13 7.58011L295.58 7.95011C294.79 7.87011 295.58 8.79013 294.73 8.60013L294.63 8.50016C295.41 9.92016 293.3 8.4102 294.01 9.7902C293.92 9.6202 293.77 9.61017 293.67 9.51017C293.62 9.81017 293.51 10.0601 294.33 10.8401C294.19 10.9601 293.97 10.7002 293.63 10.4202C293.99 10.7602 294.03 11.0202 293.95 11.1402L293.86 10.9601L293.7 11.3802L294.44 11.9701C294.09 11.9401 293.57 11.2202 293.59 11.5302L294.15 12.0701C293.83 12.1801 292.86 11.4902 292.25 11.3002C291.18 11.9102 291.61 14.2602 289.84 14.0302L289.41 13.6302C288.81 13.0102 290.04 14.7701 289.47 14.2201L289.64 14.6001C289.51 14.5101 289.34 14.4402 289.26 14.2602C289.15 14.3202 289.24 14.4202 289.35 14.6702L288.9 14.3601C288.27 14.3701 288.66 15.4101 288.13 15.5901C286.97 15.1701 286.76 16.6602 286.61 17.5302C286.69 19.1302 283.72 17.1401 283.88 18.8601C283.78 18.7801 283.88 19.0502 283.94 19.1202L283.18 19.5502C283.18 19.5502 282.29 20.1102 282.23 21.1502C282.18 22.1802 282.91 23.7401 286.39 25.5901L286.48 25.7502C287.16 25.8102 287.49 25.7001 287.2 24.7301C287.94 25.6101 287.61 24.5702 287.93 24.7902L287.98 24.8702C287.69 23.9802 288.94 25.0602 288.69 24.2502C288.74 24.3302 288.93 24.5802 288.88 24.6402C288.97 24.3902 289.04 24.0002 289.47 24.5202C289.77 24.0502 290.55 23.8302 290.13 22.8002L290.23 22.9601C289.92 22.2801 290.35 22.7202 290.28 22.3002C290.34 22.3602 290.38 22.3902 290.41 22.4202C290.12 21.7402 290.8 21.9501 290.74 21.6101L291.03 21.9401L291.28 21.6001L291.1 21.6302C290.35 20.6602 291.84 22.0201 291.55 21.2201C291.87 21.1501 290.32 18.9201 290.93 19.1901C290.66 18.6701 291.45 19.9702 291.31 19.5002C291.73 19.9802 291.5 19.8601 291.87 20.2101C291.82 19.8501 292.55 20.4801 292.46 19.9901L292.8 20.3601C292.45 19.4701 293.7 20.4302 293.28 19.6402C293.26 19.1102 294.44 20.5802 294.05 19.6202L294.61 20.0202C294.8 20.0002 294.14 19.3401 294.48 19.4701C294.76 19.7901 294.87 19.5701 295.07 19.9401C295.81 20.1701 295 18.7201 296.13 19.1901C295.64 18.5201 296.17 18.7001 295.8 18.1901C296.06 18.4401 296.21 17.8802 296.54 18.6402C296.57 18.7002 296.53 18.7202 296.43 18.6202L296.74 19.0002C297.59 19.4602 296.77 18.2702 297.07 18.1702C296.9 18.1102 296.85 18.2202 296.67 17.9302L296.9 17.7902L297.15 18.1202L297.6 18.0102L297.2 17.6901C297.52 17.7401 298.18 18.3002 297.83 17.6402C297.62 17.2902 297.22 17.2902 297.25 17.0302C297.68 17.0902 298.33 17.1902 298.67 17.0502C298.24 16.6702 298.32 16.6201 298.3 16.4801L298.66 16.8201C298.41 16.0901 299.54 17.4901 299.39 16.8501L299.62 17.1101L298.94 16.3201C298.45 15.4101 299.81 16.9101 299.07 15.7301C299.04 15.8901 298.23 15.0202 298.5 15.0502L298.82 15.4102C298.82 15.2702 298.69 15.1102 298.8 15.1402C298.95 15.3602 299.29 15.6401 299.32 15.4801L299.69 15.9601L299.23 15.1602C299.74 15.3602 299.49 14.6901 300.04 15.0801C300.04 15.0801 300.58 14.9802 300.1 14.4102C300.38 14.7802 300.67 14.7202 301.03 15.1402C300.72 14.7102 300.63 14.1801 301.13 14.4501L301.16 14.5102C301.91 14.5102 301.14 13.3601 301.95 13.4701C301.5 13.1101 301.89 13.1401 301.3 12.7001C301.05 11.8901 302.99 13.0301 301.35 11.4401C301.39 11.2001 301.92 11.6001 302.07 11.5901L302.13 11.7101C302.24 11.2901 302.29 11.1902 302.51 11.0002C302.43 10.7502 301.62 10.0702 301.98 10.0302C302.26 10.3602 302.26 10.2302 302.32 10.1502C302.33 10.2402 302.44 10.3502 302.74 10.4302C302.65 10.3302 302.6 10.2601 302.57 10.2001C302.6 10.2201 302.62 10.2302 302.65 10.2602C302.63 10.0402 302.51 9.98016 302.42 10.0002C302.37 9.96016 302.3 9.91014 302.2 9.86014C302.73 10.0701 302.46 9.48019 303.04 9.91019C303.21 9.42019 302.83 8.70013 302.85 8.22013C303.17 8.41013 303.38 8.68015 303.42 8.87015L303.48 8.56022C303.9 8.89022 303.63 8.88017 303.66 9.01017C304.55 9.26017 303.39 7.93012 304.26 8.09012L303.97 7.77018L304.04 7.7902C303.86 7.6602 303.67 7.41011 303.64 7.32011C304.05 7.55011 304.5 7.9602 304.6 7.7902C305.06 7.9302 304.68 7.30015 304.6 6.99015C304.47 7.03015 304.28 6.85013 304.18 6.72013C304.22 6.63013 304.63 6.86021 304.51 6.68021L305.03 7.0402C304.53 6.7302 304.66 6.46019 304.47 6.28019C304.88 6.50019 304.71 6.64014 304.98 6.86014C305.16 6.50014 305.07 6.68011 305.25 6.33011C304.98 5.89011 304.74 6.02015 304.35 5.62015C304.35 5.40015 304.1 5.01021 304.53 5.05021L304.03 4.7902C303.87 4.2702 304.03 4.13017 304.62 4.26017C303.44 1.95017 302.18 1.02015 301.27 0.620154C300.35 0.230154 299.75 0.370154 299.75 0.370154C298.23 0.440154 299.31 1.73016 299.02 2.88016L299 2.84012Z" fill="#ACDE45"/>
<path d="M263.83 38.5901L263.66 38.4102C263.71 38.5102 263.76 38.5801 263.83 38.5901Z" fill="#ACDE45"/>
<path d="M261.63 31.6802C260.6 31.8502 259.91 30.9802 259.16 31.8002C258.67 31.9202 258.3 32.3602 257.91 32.6802C258.04 33.5402 257.33 32.9401 257.37 33.7001L257.08 33.3002C257.09 33.5602 257.05 33.7502 256.87 33.5502L256.82 33.4202C256.84 33.8102 256.6 33.6701 256.61 33.8701L256.56 33.7401L256.43 33.8601L256.38 33.6702C256.31 34.1202 256.08 34.2401 255.81 34.1601L256.05 34.6901C255.36 34.2801 255.66 35.4501 254.97 34.9101L254.92 34.7801C255 36.4001 253.73 34.1401 253.76 35.7001C253.76 35.5101 253.62 35.4402 253.57 35.3002C253.39 35.5502 253.17 35.7401 253.59 36.7901C253.41 36.8501 253.31 36.5201 253.13 36.1201C253.32 36.5801 253.24 36.8302 253.12 36.9202V36.7201L252.78 37.0301L253.21 37.8701C252.9 37.7001 252.73 36.8301 252.62 37.1201L252.91 37.8401C252.56 37.8101 251.96 36.7801 251.47 36.3601C250.2 36.5001 249.65 38.8401 248.08 37.9601L247.83 37.4302C247.51 36.6402 247.97 38.7301 247.65 38.0001V38.4101C247.57 38.2801 247.44 38.1501 247.44 37.9501C247.31 37.9601 247.36 38.0901 247.36 38.3701L247.05 37.9202C246.45 37.7002 246.41 38.8102 245.85 38.7901C244.9 37.9801 244.13 39.3101 243.68 40.0801C243.19 41.6001 241.05 38.7302 240.6 40.4202C240.53 40.3102 240.54 40.6001 240.57 40.6901L239.69 40.8501C239.69 40.8501 238.64 41.1101 238.25 42.0801C237.86 43.0501 238.1 44.7501 240.79 47.6101L240.83 47.7901C241.45 48.0702 241.78 48.0702 241.81 47.0602C242.22 48.1402 242.24 47.0401 242.47 47.3601L242.49 47.4501C242.5 46.5101 243.32 47.9501 243.35 47.1101C243.37 47.2001 243.46 47.5001 243.4 47.5401C243.56 47.3401 243.76 47.0001 243.98 47.6301C244.41 47.3001 245.19 47.3601 245.16 46.2401L245.2 46.4202C245.14 45.6802 245.39 46.2401 245.47 45.8201C245.51 45.9001 245.54 45.9401 245.55 45.9701C245.51 45.2301 246.08 45.6701 246.13 45.3301L246.29 45.7501L246.64 45.5201L246.47 45.4801C246.11 44.3101 247.01 46.1001 247.03 45.2601C247.34 45.3101 246.7 42.6801 247.17 43.1501C247.1 42.5701 247.37 44.0701 247.41 43.5801C247.63 44.1801 247.46 43.9901 247.68 44.4501C247.77 44.1001 248.21 44.9501 248.3 44.4601L248.48 44.9202C248.48 43.9602 249.28 45.3301 249.18 44.4401C249.35 43.9401 249.9 45.7501 249.89 44.7101L250.25 45.2901C250.43 45.3401 250.06 44.4801 250.33 44.7301C250.47 45.1301 250.64 44.9701 250.69 45.3801C251.27 45.8701 251.07 44.2301 251.93 45.1101C251.74 44.3001 252.14 44.6701 252 44.0701C252.14 44.4001 252.48 43.9501 252.5 44.7701C252.5 44.8401 252.46 44.8401 252.41 44.7101L252.55 45.1802C253.14 45.9402 252.85 44.5302 253.16 44.5602C253.02 44.4402 252.94 44.5202 252.89 44.1802L253.15 44.1501L253.25 44.5502L253.7 44.6301L253.47 44.1802C253.74 44.3602 254.12 45.1401 254.05 44.3901C253.99 43.9801 253.63 43.8201 253.76 43.6001C254.12 43.8301 254.66 44.1801 255.02 44.2001C254.78 43.6801 254.87 43.6701 254.91 43.5201L255.1 43.9801C255.16 43.2101 255.62 44.9502 255.73 44.3102L255.83 44.6401L255.53 43.6401C255.45 42.6101 256.07 44.5401 255.88 43.1601C255.79 43.2901 255.41 42.1702 255.65 42.3102L255.79 42.7701C255.84 42.6401 255.79 42.4401 255.88 42.5101C255.93 42.7701 256.11 43.1701 256.21 43.0401L256.35 43.6301L256.26 42.7201C256.64 43.1201 256.68 42.4101 257.01 43.0001C257.01 43.0001 257.53 43.1502 257.34 42.4202C257.44 42.8802 257.72 42.9501 257.86 43.4801C257.76 42.9601 257.9 42.4401 258.23 42.9001V42.9701C258.9 43.3101 258.69 41.9301 259.35 42.4001C259.11 41.8801 259.44 42.0802 259.1 41.4202C259.22 40.5802 260.44 42.4801 259.68 40.3201C259.82 40.1301 260.11 40.7101 260.25 40.7801V40.9101C260.53 40.5901 260.62 40.5201 260.9 40.4601C260.94 40.2001 260.53 39.2201 260.87 39.3601C260.97 39.7801 261.03 39.6701 261.11 39.6301C261.08 39.7201 261.13 39.8601 261.35 40.0701C261.31 39.9401 261.31 39.8601 261.3 39.7901C261.31 39.8201 261.33 39.8401 261.35 39.8801C261.43 39.6801 261.35 39.5702 261.26 39.5502C261.24 39.4902 261.2 39.4201 261.13 39.3201C261.5 39.7501 261.53 39.1001 261.84 39.7501C262.2 39.4001 262.2 38.5902 262.44 38.1702C262.63 38.4902 262.69 38.8301 262.64 39.0101L262.84 38.7701C263.06 39.2601 262.82 39.1201 262.79 39.2501C263.45 39.9001 263.05 38.1801 263.74 38.7401L263.64 38.3201L263.69 38.3701C263.59 38.1701 263.55 37.8501 263.57 37.7701C263.82 38.1701 264.02 38.7501 264.18 38.6401C264.51 38.9801 264.48 38.2601 264.55 37.9401C264.42 37.9101 264.34 37.6701 264.31 37.5001C264.39 37.4401 264.64 37.8401 264.62 37.6301L264.9 38.2001C264.61 37.6801 264.85 37.5101 264.78 37.2701C265.03 37.6701 264.82 37.7001 264.95 38.0201C265.27 37.8001 265.11 37.9101 265.43 37.6901C265.41 37.1701 265.14 37.1701 264.99 36.6301C265.1 36.4401 265.07 35.9701 265.42 36.2201L265.12 35.7501C265.24 35.2201 265.44 35.1801 265.9 35.5901C266.03 33.0001 265.44 31.5601 264.84 30.7501C264.24 29.9501 263.63 29.7801 263.63 29.7801C262.24 29.0901 262.51 30.7601 261.66 31.6401L261.63 31.6802Z" fill="#ACDE45"/>
<path d="M215.99 54.3599L215.86 54.1499C215.89 54.2499 215.93 54.3399 215.99 54.3599Z" fill="#ACDE45"/>
<path d="M196.9 58.5601C196.9 58.5601 196.9 58.59 196.9 58.61C196.9 58.59 196.91 58.5701 196.9 58.5601Z" fill="#ACDE45"/>
<path d="M215.23 47.15C214.18 47.11 213.66 46.12 212.74 46.79C212.23 46.82 211.77 47.18 211.32 47.42C211.28 48.3 210.69 47.5799 210.58 48.3299L210.37 47.89C210.33 48.15 210.26 48.33 210.11 48.1L210.09 47.9599C210.03 48.3499 209.83 48.17 209.8 48.36L209.77 48.22L209.62 48.3199V48.12C209.45 48.55 209.2 48.63 208.95 48.51L209.09 49.0699C208.48 48.5399 208.57 49.75 207.98 49.1L207.96 48.9599C207.75 50.57 206.89 48.13 206.64 49.67C206.67 49.48 206.55 49.39 206.52 49.25C206.3 49.47 206.05 49.61 206.28 50.72C206.09 50.74 206.05 50.4 205.94 49.98C206.05 50.47 205.93 50.7 205.79 50.77L205.82 50.5699L205.44 50.8299L205.72 51.73C205.44 51.51 205.42 50.62 205.26 50.89L205.43 51.65C205.09 51.57 204.66 50.4499 204.25 49.9499C202.95 49.8799 202.04 52.11 200.61 51L200.44 50.4399C200.25 49.6099 200.38 51.75 200.18 50.98L200.12 51.39C200.05 51.25 199.94 51.1 199.97 50.9C199.84 50.9 199.87 51.03 199.83 51.3L199.59 50.81C199.02 50.5 198.81 51.6 198.26 51.49C197.43 50.55 196.47 51.76 195.91 52.4599C195.21 53.9 193.47 50.77 192.79 52.39C192.74 52.28 192.71 52.56 192.72 52.66L191.82 52.7099C191.82 52.7099 187.47 53.19 192.04 59.55V59.74C192.62 60.09 192.95 60.13 193.11 59.15C193.38 60.27 193.53 59.19 193.72 59.53V59.62C193.86 58.69 194.48 60.23 194.62 59.39C194.62 59.48 194.68 59.7899 194.62 59.8199C194.8 59.6399 195.04 59.33 195.18 59.98C195.65 59.71 196.4 59.88 196.52 58.77V58.96C196.58 58.22 196.75 58.81 196.88 58.41C196.91 58.49 196.93 58.5299 196.94 58.5699C197 57.8299 197.5 58.35 197.6 58.02L197.7 58.4499L198.07 58.27L197.9 58.21C197.71 57 198.35 58.8999 198.48 58.0699C198.78 58.1699 198.53 55.47 198.92 56C198.94 55.41 198.99 56.93 199.1 56.46C199.23 57.08 199.09 56.87 199.24 57.36C199.38 57.03 199.69 57.93 199.84 57.46L199.95 57.9399C200.08 56.9899 200.67 58.4599 200.71 57.5699C200.95 57.0999 201.22 58.9699 201.36 57.9499L201.63 58.5799C201.8 58.6599 201.57 57.75 201.79 58.04C201.87 58.46 202.06 58.33 202.05 58.74C202.55 59.31 202.59 57.67 203.3 58.67C203.24 57.84 203.58 58.27 203.53 57.65C203.62 58 204.02 57.61 203.91 58.42C203.9 58.49 203.86 58.48 203.83 58.35L203.9 58.8299C204.36 59.6799 204.29 58.23 204.59 58.31C204.48 58.17 204.38 58.23 204.38 57.89H204.64L204.67 58.3199L205.09 58.48L204.93 57.99C205.17 58.21 205.41 59.04 205.47 58.29C205.47 57.88 205.16 57.66 205.31 57.46C205.62 57.75 206.1 58.18 206.44 58.26C206.29 57.71 206.38 57.7099 206.44 57.5799L206.55 58.06C206.74 57.31 206.9 59.1 207.11 58.5L207.15 58.84L207.02 57.81C207.11 56.78 207.4 58.78 207.44 57.4C207.33 57.51 207.15 56.34 207.35 56.52L207.41 57C207.48 56.88 207.46 56.68 207.54 56.76C207.54 57.02 207.66 57.45 207.77 57.34L207.81 57.9499L207.87 57.03C208.17 57.49 208.33 56.7999 208.55 57.4399C208.55 57.4399 209.03 57.67 208.96 56.93C208.98 57.4 209.24 57.52 209.29 58.06C209.29 57.53 209.5 57.04 209.75 57.56V57.63C210.33 58.08 210.36 56.7 210.93 57.28C210.79 56.72 211.07 56.98 210.86 56.27C211.13 55.46 211.97 57.56 211.62 55.3C211.79 55.14 211.97 55.77 212.09 55.86L212.07 55.99C212.39 55.73 212.49 55.68 212.78 55.67C212.87 55.42 212.65 54.3899 212.95 54.5799C212.97 55.0099 213.05 54.91 213.14 54.89C213.1 54.97 213.11 55.12 213.3 55.37C213.29 55.24 213.3 55.1599 213.3 55.0799C213.3 55.1099 213.32 55.14 213.33 55.18C213.45 55 213.39 54.88 213.31 54.84C213.3 54.78 213.27 54.7 213.23 54.59C213.51 55.08 213.66 54.45 213.84 55.15C214.26 54.88 214.41 54.08 214.72 53.72C214.85 54.07 214.83 54.4099 214.76 54.5799L215 54.38C215.12 54.9 214.92 54.72 214.86 54.84C215.38 55.61 215.32 53.84 215.87 54.53L215.85 54.1L215.89 54.16C215.84 53.94 215.85 53.63 215.89 53.54C216.05 53.98 216.13 54.59 216.31 54.51C216.56 54.91 216.67 54.19 216.81 53.9C216.69 53.85 216.66 53.59 216.67 53.42C216.76 53.38 216.92 53.82 216.94 53.61L217.1 54.22C216.93 53.65 217.19 53.54 217.17 53.28C217.33 53.72 217.12 53.7 217.17 54.05C217.53 53.9 217.35 53.9799 217.71 53.8299C217.8 53.3199 217.53 53.2599 217.5 52.6999C217.65 52.5399 217.71 52.07 218 52.39L217.8 51.86C218.02 51.36 218.23 51.37 218.59 51.86C219.92 46.85 217.61 45.71 217.61 45.71C216.38 44.74 216.28 46.44 215.25 47.13L215.23 47.15Z" fill="#ACDE45"/>
<path d="M166.82 63.7L166.71 63.48C166.73 63.59 166.76 63.67 166.82 63.7Z" fill="#ACDE45"/>
<path d="M147.58 66.73C147.58 66.73 147.58 66.76 147.57 66.78C147.57 66.76 147.58 66.74 147.58 66.73Z" fill="#ACDE45"/>
<path d="M162.64 56.4302C162.64 56.4302 162.64 56.3901 162.65 56.3701V56.4302H162.64Z" fill="#ACDE45"/>
<path d="M166.61 56.4599C165.55 56.3399 165.11 55.31 164.13 55.9C163.61 55.89 163.12 56.22 162.65 56.42C162.55 57.29 162.01 56.53 161.84 57.27L161.66 56.81C161.6 57.06 161.52 57.24 161.38 57L161.36 56.86C161.27 57.24 161.08 57.05 161.04 57.24L161.02 57.1L160.86 57.1899V56.99C160.67 57.41 160.42 57.4699 160.17 57.3299L160.28 57.9C159.7 57.33 159.71 58.55 159.16 57.85L159.14 57.7099C158.83 59.2999 158.11 56.8099 157.77 58.3299C157.81 58.1399 157.69 58.04 157.68 57.9C157.45 58.1 157.18 58.23 157.35 59.36C157.16 59.37 157.14 59.03 157.05 58.6C157.13 59.09 156.99 59.32 156.85 59.38L156.89 59.18L156.49 59.41L156.72 60.3299C156.45 60.0999 156.49 59.1999 156.31 59.4599L156.43 60.23C156.1 60.13 155.73 58.9899 155.34 58.4599C154.04 58.3199 153 60.49 151.62 59.31L151.48 58.74C151.33 57.9 151.35 60.04 151.19 59.27L151.11 59.68C151.05 59.53 150.94 59.38 150.98 59.18C150.85 59.17 150.87 59.3099 150.82 59.5699L150.61 59.06C150.05 58.73 149.79 59.81 149.24 59.68C148.45 58.7 147.43 59.87 146.84 60.55C146.08 61.96 144.46 58.76 143.71 60.36C143.66 60.25 143.62 60.53 143.63 60.62L142.72 60.64C142.72 60.64 138.34 60.98 142.67 67.49V67.68C143.23 68.05 143.55 68.11 143.75 67.12C143.97 68.25 144.17 67.18 144.34 67.53V67.62C144.51 66.7 145.07 68.25 145.24 67.43C145.24 67.52 145.28 67.84 145.22 67.86C145.41 67.68 145.66 67.39 145.77 68.05C146.25 67.8 146.99 68 147.15 66.89V67.0799C147.23 66.3399 147.38 66.94 147.53 66.54C147.55 66.63 147.58 66.6699 147.58 66.6999C147.67 65.9699 148.15 66.5 148.26 66.18L148.34 66.62L148.72 66.4599L148.56 66.39C148.43 65.17 148.97 67.1 149.14 66.28C149.43 66.39 149.31 63.69 149.68 64.23C149.73 63.64 149.7 65.1699 149.84 64.6999C149.94 65.3299 149.81 65.11 149.93 65.6C150.08 65.27 150.35 66.19 150.53 65.73L150.61 66.22C150.79 65.28 151.3 66.78 151.38 65.89C151.64 65.44 151.82 67.31 152.01 66.3L152.24 66.9399C152.4 67.0299 152.22 66.11 152.43 66.41C152.48 66.83 152.68 66.71 152.65 67.12C153.11 67.72 153.25 66.08 153.89 67.12C153.87 66.29 154.18 66.74 154.17 66.12C154.24 66.47 154.66 66.1 154.51 66.91C154.5 66.98 154.45 66.9699 154.44 66.8299L154.48 67.3199C154.89 68.1899 154.9 66.74 155.19 66.84C155.09 66.69 154.99 66.75 155.01 66.41L155.27 66.4399V66.85L155.69 67.03L155.56 66.54C155.78 66.77 155.98 67.62 156.08 66.87C156.11 66.46 155.8 66.22 155.97 66.03C156.27 66.34 156.71 66.8 157.05 66.9C156.93 66.34 157.02 66.35 157.09 66.22L157.18 66.7099C157.41 65.9799 157.47 67.77 157.71 67.18L157.73 67.53L157.66 66.49C157.81 65.47 157.98 67.48 158.1 66.11C157.98 66.21 157.87 65.04 158.06 65.23L158.09 65.7099C158.16 65.5999 158.16 65.39 158.24 65.48C158.23 65.74 158.32 66.1699 158.44 66.0699V66.68L158.56 65.77C158.83 66.25 159.03 65.57 159.22 66.22C159.22 66.22 159.68 66.48 159.66 65.74C159.65 66.21 159.9 66.35 159.92 66.89C159.95 66.36 160.19 65.89 160.41 66.42V66.49C160.95 66.98 161.07 65.6 161.59 66.22C161.48 65.65 161.75 65.9299 161.59 65.2099C161.91 64.4199 162.61 66.57 162.41 64.3C162.59 64.15 162.73 64.79 162.85 64.89L162.82 65.02C163.16 64.78 163.26 64.74 163.54 64.75C163.64 64.51 163.5 63.46 163.78 63.68C163.77 64.11 163.85 64.02 163.95 64C163.9 64.07 163.91 64.23 164.07 64.49C164.07 64.36 164.08 64.2799 164.09 64.2099C164.09 64.2399 164.1 64.27 164.11 64.31C164.24 64.14 164.19 64.01 164.11 63.97C164.11 63.91 164.08 63.8299 164.04 63.7099C164.28 64.2199 164.48 63.6099 164.61 64.3199C165.04 64.0799 165.25 63.2999 165.59 62.9599C165.69 63.3199 165.65 63.6599 165.57 63.8199L165.82 63.64C165.9 64.17 165.71 63.97 165.65 64.09C166.11 64.9 166.18 63.14 166.68 63.86V63.43L166.73 63.5C166.69 63.28 166.73 62.97 166.77 62.89C166.9 63.34 166.94 63.95 167.12 63.89C167.34 64.31 167.5 63.5999 167.66 63.3299C167.54 63.2699 167.54 63.01 167.55 62.84C167.64 62.81 167.77 63.26 167.81 63.05L167.92 63.67C167.79 63.09 168.06 63 168.06 62.74C168.19 63.19 167.98 63.16 168.01 63.51C168.38 63.39 168.19 63.45 168.56 63.34C168.68 62.84 168.43 62.7599 168.44 62.1999C168.6 62.0499 168.7 61.59 168.96 61.93L168.81 61.39C169.07 60.91 169.28 60.94 169.59 61.47C171.33 56.61 169.12 55.26 169.12 55.26C167.95 54.19 167.71 55.87 166.63 56.48L166.61 56.4599Z" fill="#ACDE45"/>
<path d="M117.49 71.1902L117.38 70.9702C117.4 71.0802 117.43 71.1602 117.49 71.1902Z" fill="#ACDE45"/>
<path d="M98.35 74.4004C98.35 74.4004 98.35 74.4303 98.35 74.4503C98.35 74.4303 98.36 74.4104 98.35 74.4004Z" fill="#ACDE45"/>
<path d="M113.33 63.9501C113.33 63.9501 113.33 63.9101 113.34 63.8901V63.9501H113.33Z" fill="#ACDE45"/>
<path d="M117.31 63.9401C116.25 63.8301 115.81 62.8002 114.82 63.4102C114.3 63.4102 113.8 63.7401 113.33 63.9501C113.23 64.8201 112.68 64.0702 112.52 64.8102L112.34 64.3601C112.28 64.6101 112.2 64.7902 112.06 64.5502L112.04 64.4102C111.95 64.7902 111.76 64.6002 111.72 64.7902L111.7 64.6502L111.54 64.7401V64.5402C111.35 64.9602 111.1 65.0302 110.85 64.8902L110.96 65.4601C110.37 64.9001 110.39 66.1102 109.83 65.4302L109.81 65.2902C109.5 66.8902 108.77 64.4002 108.44 65.9302C108.48 65.7402 108.36 65.6401 108.34 65.5001C108.11 65.7101 107.84 65.8401 108.02 66.9601C107.83 66.9801 107.81 66.6301 107.71 66.2001C107.79 66.6901 107.66 66.9201 107.52 66.9801L107.56 66.7802L107.16 67.0202L107.4 67.9302C107.13 67.7002 107.16 66.8101 106.98 67.0701L107.11 67.8401C106.77 67.7401 106.4 66.6001 106 66.0901C104.69 65.9701 103.67 68.1501 102.27 66.9801L102.12 66.4102C101.95 65.5702 102.01 67.7101 101.83 66.9401L101.76 67.3501C101.7 67.2101 101.59 67.0601 101.62 66.8601C101.49 66.8501 101.51 66.9902 101.46 67.2602L101.24 66.7602C100.67 66.4302 100.43 67.5102 99.87 67.3902C99.06 66.4202 98.0499 67.6002 97.4699 68.2802C96.7399 69.6902 95.04 66.5201 94.31 68.1201C94.26 68.0101 94.22 68.2902 94.24 68.3802L93.32 68.4102C93.32 68.4102 88.9299 68.7901 93.4699 75.2401V75.4302C94.0499 75.8002 94.3699 75.8501 94.5399 74.8701C94.7899 75.9901 94.9599 74.9202 95.1399 75.2702V75.3601C95.2899 74.4401 95.8899 75.9802 96.0299 75.1602C96.0299 75.2502 96.0799 75.5601 96.0299 75.5901C96.2099 75.4101 96.4499 75.1202 96.5899 75.7702C97.0599 75.5202 97.81 75.7101 97.94 74.6001V74.7902C98.01 74.0502 98.17 74.6501 98.31 74.2501C98.34 74.3301 98.36 74.3802 98.36 74.4102C98.44 73.6802 98.9199 74.2102 99.0299 73.8802L99.12 74.3201L99.5 74.1502L99.3399 74.0801C99.1799 72.8701 99.77 74.7901 99.92 73.9601C100.21 74.0701 100.03 71.3702 100.41 71.9102C100.45 71.3202 100.45 72.8502 100.57 72.3802C100.68 73.0102 100.54 72.7902 100.68 73.2802C100.82 72.9502 101.11 73.8702 101.28 73.4102L101.37 73.9002C101.53 72.9602 102.07 74.4502 102.13 73.5602C102.38 73.1002 102.59 74.9801 102.77 73.9701L103.01 74.6101C103.17 74.6901 102.98 73.7801 103.19 74.0801C103.25 74.5001 103.45 74.3802 103.42 74.7902C103.89 75.3802 104 73.7402 104.66 74.7702C104.63 73.9402 104.95 74.3902 104.92 73.7602C104.99 74.1102 105.41 73.7402 105.27 74.5502C105.26 74.6202 105.21 74.6101 105.19 74.4701L105.24 74.9601C105.66 75.8201 105.65 74.3801 105.94 74.4801C105.83 74.3301 105.74 74.3902 105.75 74.0502L106.01 74.0701L106.03 74.4801L106.44 74.6602L106.31 74.1702C106.53 74.4002 106.74 75.2401 106.83 74.4901C106.86 74.0801 106.55 73.8402 106.71 73.6502C107.01 73.9502 107.46 74.4102 107.79 74.5102C107.67 73.9502 107.75 73.9601 107.82 73.8301L107.91 74.3201C108.13 73.5901 108.21 75.3802 108.45 74.7802L108.48 75.1302L108.4 74.0901C108.54 73.0701 108.73 75.0801 108.84 73.7001C108.72 73.8001 108.6 72.6301 108.8 72.8201L108.84 73.3002C108.91 73.1902 108.91 72.9801 108.98 73.0701C108.97 73.3301 109.06 73.7602 109.18 73.6602V74.2702L109.29 73.3601C109.56 73.8401 109.76 73.1502 109.94 73.8102C109.94 73.8102 110.4 74.0701 110.37 73.3201C110.37 73.7901 110.61 73.9201 110.64 74.4701C110.66 73.9401 110.91 73.4701 111.12 74.0001V74.0701C111.66 74.5501 111.77 73.1802 112.29 73.7902C112.18 73.2202 112.45 73.5002 112.28 72.7802C112.59 71.9902 113.3 74.1301 113.09 71.8601C113.27 71.7101 113.41 72.3501 113.52 72.4501L113.49 72.5801C113.83 72.3401 113.93 72.3002 114.21 72.3102C114.31 72.0702 114.17 71.0201 114.45 71.2301C114.44 71.6601 114.52 71.5702 114.62 71.5502C114.57 71.6202 114.58 71.7802 114.74 72.0402C114.74 71.9102 114.74 71.8302 114.76 71.7602C114.76 71.7902 114.77 71.8201 114.78 71.8601C114.91 71.6901 114.86 71.5602 114.78 71.5202C114.78 71.4602 114.75 71.3802 114.71 71.2602C114.95 71.7702 115.14 71.1501 115.27 71.8601C115.7 71.6201 115.91 70.8301 116.25 70.4901C116.35 70.8501 116.31 71.1901 116.22 71.3501L116.47 71.1702C116.55 71.7002 116.36 71.5001 116.3 71.6201C116.75 72.4201 116.83 70.6602 117.33 71.3802V70.9501L117.38 71.0202C117.34 70.8002 117.38 70.4802 117.43 70.4002C117.55 70.8502 117.59 71.4602 117.77 71.4002C117.99 71.8202 118.15 71.1101 118.31 70.8301C118.19 70.7701 118.19 70.5101 118.21 70.3401C118.3 70.3101 118.43 70.7602 118.47 70.5502L118.57 71.1702C118.44 70.5902 118.72 70.5001 118.71 70.2401C118.83 70.6901 118.63 70.6602 118.66 71.0102C119.02 70.8902 118.84 70.9501 119.21 70.8301C119.34 70.3301 119.08 70.2501 119.1 69.6901C119.26 69.5401 119.36 69.0802 119.62 69.4202L119.47 68.8802C119.74 68.4002 119.94 68.4301 120.25 68.9501C122.03 64.0501 119.84 62.7301 119.84 62.7301C118.68 61.6701 118.42 63.3601 117.33 63.9801L117.31 63.9401Z" fill="#ACDE45"/>
<path d="M68.64 80.1201L68.51 79.9102C68.54 80.0102 68.58 80.1001 68.64 80.1201Z" fill="#ACDE45"/>
<path d="M67.92 72.9101C66.84 72.8701 66.32 71.8801 65.37 72.5601C64.85 72.5901 64.37 72.97 63.91 73.21C63.88 74.09 63.27 73.38 63.16 74.13L62.94 73.69C62.9 73.95 62.83 74.1301 62.67 73.9101L62.6399 73.7701C62.5899 74.1601 62.37 73.9901 62.35 74.1801L62.32 74.0401L62.16 74.1401L62.1399 73.94C61.9899 74.37 61.74 74.46 61.47 74.35L61.63 74.9101C60.99 74.4001 61.11 75.61 60.49 74.98L60.4599 74.84C60.2999 76.46 59.3399 74.05 59.1399 75.61C59.1599 75.42 59.03 75.33 59 75.19C58.78 75.42 58.53 75.5701 58.82 76.6801C58.63 76.7101 58.58 76.38 58.44 75.96C58.57 76.44 58.46 76.68 58.32 76.75L58.34 76.5501L57.9599 76.83L58.28 77.72C57.99 77.52 57.9299 76.6301 57.7699 76.9001L57.97 77.6501C57.62 77.5801 57.14 76.4901 56.69 76.0201C55.35 76.0401 54.56 78.32 53.04 77.33L52.8299 76.7801C52.5699 75.9601 52.86 78.09 52.6 77.34L52.57 77.75C52.49 77.61 52.36 77.4801 52.38 77.2801C52.25 77.2801 52.2799 77.42 52.2699 77.69L51.99 77.22C51.38 76.97 51.26 78.0701 50.69 78.0301C49.76 77.1801 48.8799 78.48 48.3899 79.25C47.8399 80.76 45.7199 77.86 45.2099 79.57C45.1399 79.47 45.15 79.75 45.18 79.84L44.2699 80.0201C44.2699 80.0201 43.18 80.3001 42.79 81.2901C42.39 82.2801 42.73 83.9501 45.44 86.7701L45.48 86.95C46.09 87.22 46.41 87.22 46.43 86.22C46.84 87.29 46.85 86.2101 47.07 86.5201L47.09 86.61C47.09 85.68 47.9 87.1101 47.92 86.2801C47.94 86.3701 48.03 86.67 47.97 86.71C48.12 86.51 48.32 86.1801 48.54 86.8101C48.96 86.4901 49.71 86.57 49.69 85.46L49.72 85.6401C49.68 84.9001 49.91 85.4701 50 85.0601C50.04 85.1401 50.06 85.18 50.07 85.21C50.05 84.47 50.5899 84.93 50.6499 84.59L50.79 85.0101L51.1399 84.8001L50.97 84.75C50.66 83.57 51.4799 85.4001 51.5199 84.5601C51.8199 84.6301 51.31 81.97 51.75 82.46C51.71 81.87 51.9 83.3801 51.97 82.9001C52.16 83.5101 52 83.3101 52.19 83.7801C52.29 83.4301 52.68 84.31 52.79 83.83L52.94 84.3001C52.98 83.3401 53.6899 84.76 53.6499 83.87C53.8499 83.39 54.27 85.22 54.32 84.2L54.63 84.8101C54.8 84.8701 54.5 83.9901 54.74 84.2601C54.85 84.6701 55.03 84.53 55.05 84.94C55.58 85.48 55.5 83.8401 56.26 84.7801C56.14 83.9601 56.5 84.37 56.41 83.75C56.52 84.09 56.89 83.68 56.84 84.5C56.84 84.57 56.79 84.5701 56.76 84.4301L56.86 84.9101C57.37 85.7201 57.2 84.29 57.49 84.36C57.37 84.23 57.28 84.3 57.26 83.95H57.5199L57.5799 84.36L58 84.49L57.82 84.0101C58.06 84.2101 58.35 85.0301 58.36 84.2801C58.34 83.8701 58.01 83.66 58.16 83.46C58.49 83.73 58.98 84.14 59.31 84.21C59.13 83.66 59.2199 83.6601 59.2699 83.5301L59.41 84.0101C59.55 83.2601 59.81 85.0301 59.98 84.4201L60.04 84.7601L59.86 83.73C59.89 82.7 60.28 84.6901 60.25 83.3001C60.15 83.4101 59.91 82.2601 60.12 82.4301L60.1999 82.9001C60.2599 82.7801 60.24 82.5801 60.32 82.6601C60.34 82.9201 60.4699 83.34 60.5799 83.23L60.6499 83.83V82.9101C60.9799 83.3601 61.1 82.6601 61.35 83.2901C61.35 83.2901 61.83 83.5101 61.73 82.7701C61.77 83.2401 62.03 83.3501 62.1 83.8901C62.07 83.3601 62.27 82.87 62.53 83.38V83.45C63.11 83.88 63.1 82.5 63.67 83.07C63.51 82.52 63.8 82.7701 63.57 82.0601C63.81 81.2501 64.69 83.32 64.29 81.08C64.45 80.91 64.6399 81.54 64.7699 81.63L64.75 81.7601C65.06 81.4901 65.16 81.4401 65.44 81.4301C65.52 81.1801 65.29 80.15 65.59 80.34C65.61 80.77 65.69 80.6701 65.78 80.6501C65.74 80.7301 65.76 80.88 65.94 81.13C65.93 81 65.94 80.92 65.94 80.84C65.94 80.87 65.96 80.9 65.97 80.94C66.08 80.76 66.03 80.64 65.94 80.6C65.93 80.54 65.9 80.46 65.85 80.35C66.13 80.84 66.2699 80.2101 66.4599 80.9101C66.8699 80.6401 67.01 79.84 67.32 79.48C67.45 79.83 67.44 80.17 67.36 80.34L67.59 80.1501C67.71 80.6701 67.5099 80.49 67.4499 80.61C67.9599 81.38 67.8999 79.6201 68.4499 80.3001L68.43 79.87L68.47 79.9301C68.42 79.7101 68.43 79.4001 68.47 79.3101C68.63 79.7501 68.7099 80.3601 68.8899 80.2901C69.1399 80.6901 69.25 79.98 69.38 79.69C69.26 79.64 69.23 79.38 69.24 79.21C69.33 79.17 69.49 79.6101 69.51 79.4001L69.66 80.0101C69.49 79.4401 69.76 79.33 69.73 79.07C69.89 79.51 69.68 79.49 69.73 79.84C70.08 79.7 69.91 79.7701 70.26 79.63C70.35 79.12 70.09 79.06 70.06 78.5C70.21 78.34 70.28 77.87 70.56 78.2L70.37 77.6701C70.6 77.1701 70.8099 77.19 71.1499 77.7C72.5999 72.72 70.31 71.5201 70.31 71.5201C69.07 70.5301 68.92 72.2301 67.86 72.9201L67.92 72.9101Z" fill="#ACDE45"/>
<path d="M22.75 96.7601L22.57 96.6001C22.63 96.6901 22.69 96.7601 22.75 96.7601Z" fill="#ACDE45"/>
<path d="M8.44995 108.43C8.44995 108.43 8.46998 108.46 8.47998 108.48C8.47998 108.46 8.45995 108.44 8.44995 108.43Z" fill="#ACDE45"/>
<path d="M16.05 91.7201C16.05 91.7201 16.05 91.6802 16.04 91.6602V91.7201H16.05Z" fill="#ACDE45"/>
<path d="M19.91 90.0901C18.83 90.3801 18.03 89.6201 17.29 90.5901C16.78 90.7901 16.43 91.3301 16.06 91.7201C16.31 92.5601 15.48 92.1002 15.63 92.8602L15.27 92.5302C15.32 92.7902 15.3099 92.9901 15.08 92.8401L15.01 92.7201C15.09 93.1101 14.82 93.0201 14.86 93.2201L14.79 93.1001L14.67 93.2602L14.58 93.0801C14.58 93.5501 14.37 93.7201 14.07 93.7101L14.42 94.1702C13.62 93.9402 14.17 95.0302 13.35 94.6702L13.27 94.5502C13.7 96.1302 11.89 94.2502 12.28 95.7902C12.23 95.6002 12.07 95.5701 11.99 95.4601C11.87 95.7601 11.68 96.0102 12.37 96.9202C12.2 97.0302 12.02 96.7402 11.73 96.4102C12.04 96.8002 12.02 97.0701 11.92 97.1901L11.86 96.9902L11.61 97.4002L12.26 98.0801C11.91 98.0101 11.5 97.2202 11.46 97.5402L11.9499 98.1502C11.5999 98.2402 10.71 97.4401 10.1 97.2001C8.81997 97.8101 9.05997 100.24 7.22997 100.09L6.78997 99.7001C6.17997 99.0901 7.4 100.86 6.82 100.32L6.97997 100.7C6.83997 100.62 6.66996 100.56 6.58996 100.37C6.46996 100.44 6.55998 100.54 6.66998 100.8L6.19994 100.52C5.51995 100.61 5.92 101.66 5.38 101.91C4.13 101.65 3.94998 103.28 3.91998 104.22C4.06998 105.03 3.28998 105.08 2.54998 105.2C1.80998 105.32 1.04998 105.47 1.29998 106.34C1.17998 106.29 1.33998 106.53 1.41998 106.59L0.739984 107.3C0.739984 107.3 0.539999 107.52 0.379999 107.89C0.219999 108.26 0.0999743 108.76 0.229974 109.28C0.469974 110.36 1.80999 111.39 5.61999 112.1L5.76 112.22C6.39 112.1 6.63 111.94 6.07 111.13C7.02 111.77 6.38999 110.9 6.74999 111.03L6.82 111.09C6.29 110.33 7.73997 111.08 7.28997 110.38C7.35997 110.44 7.59995 110.64 7.57995 110.7C7.57995 110.46 7.55996 110.09 8.08996 110.5C8.23996 110.03 8.87996 109.73 8.27996 108.81L8.40997 108.95C7.97997 108.35 8.47995 108.71 8.32995 108.33C8.39995 108.38 8.44996 108.4 8.46996 108.42C8.05997 107.81 8.74999 107.93 8.61999 107.61L8.95996 107.9L9.13995 107.55L8.96996 107.59C8.09997 106.73 9.72996 107.9 9.33996 107.16C9.61996 107.08 7.85997 105.03 8.47997 105.24C8.15997 104.75 9.06995 105.97 8.88995 105.52C9.34995 105.96 9.11 105.86 9.51 106.18C9.42 105.83 10.19 106.42 10.05 105.95L10.41 106.29C9.97997 105.44 11.27 106.35 10.81 105.6C10.75 105.09 11.98 106.51 11.54 105.59L12.1 105.99C12.27 105.98 11.6 105.33 11.94 105.46C12.22 105.77 12.31 105.58 12.52 105.93C13.22 106.19 12.39 104.77 13.47 105.29C12.99 104.61 13.4899 104.83 13.1399 104.32C13.3899 104.58 13.52 104.06 13.84 104.82C13.87 104.88 13.83 104.9 13.74 104.79L14.04 105.18C14.84 105.71 14.05 104.5 14.34 104.44C14.18 104.37 14.13 104.47 13.96 104.17L14.18 104.06L14.41 104.4L14.83 104.35L14.47 103.99C14.77 104.07 15.37 104.7 15.06 104.03C14.87 103.67 14.49 103.61 14.53 103.37C14.93 103.49 15.53 103.67 15.85 103.61C15.47 103.18 15.54 103.15 15.53 103.01L15.85 103.39C15.66 102.65 16.62 104.17 16.51 103.55L16.6999 103.84L16.12 102.98C15.73 102.03 16.87 103.7 16.29 102.45C16.24 102.59 15.57 101.62 15.83 101.7L16.09 102.1C16.09 101.97 16 101.79 16.1 101.84C16.22 102.08 16.51 102.41 16.55 102.27L16.85 102.8L16.5 101.96C16.96 102.26 16.79 101.57 17.26 102.06C17.26 102.06 17.76 102.09 17.4 101.45C17.61 101.87 17.89 101.88 18.16 102.35C17.93 101.87 17.92 101.35 18.34 101.73L18.36 101.79C19.04 102 18.51 100.72 19.24 101.05C18.89 100.59 19.24 100.73 18.78 100.15C18.71 99.3102 20.25 100.96 19.09 98.9902C19.18 98.7802 19.57 99.3101 19.72 99.3501L19.75 99.4801C19.94 99.1201 20.01 99.0501 20.26 98.9501C20.25 98.6901 19.69 97.8002 20.03 97.8802C20.19 98.2702 20.23 98.1602 20.31 98.1102C20.3 98.2002 20.37 98.3402 20.62 98.5102C20.56 98.3902 20.54 98.3102 20.52 98.2402C20.54 98.2702 20.5599 98.2901 20.58 98.3301C20.62 98.1201 20.53 98.0302 20.44 98.0202C20.41 97.9602 20.36 97.9002 20.28 97.8102C20.7 98.1802 20.62 97.5502 21.03 98.1402C21.31 97.7602 21.19 96.9602 21.37 96.5202C21.6 96.8102 21.7 97.1401 21.68 97.3201L21.83 97.0701C22.11 97.5301 21.86 97.4102 21.85 97.5402C22.57 98.1202 21.95 96.4701 22.68 96.9501L22.53 96.5502L22.58 96.6001C22.4599 96.4101 22.3799 96.1002 22.3899 96.0102C22.6699 96.3802 22.94 96.9301 23.08 96.8201C23.43 97.1301 23.32 96.4202 23.36 96.1102C23.23 96.0902 23.13 95.8501 23.09 95.6901C23.16 95.6301 23.44 96.0102 23.4 95.8002L23.72 96.3401C23.39 95.8501 23.61 95.6702 23.51 95.4302C23.79 95.8102 23.59 95.8502 23.74 96.1602C24.03 95.9302 23.88 96.0402 24.17 95.8102C24.11 95.3002 23.84 95.3102 23.65 94.7902C23.74 94.6002 23.67 94.1302 24.04 94.3602L23.71 93.9102C23.79 93.3702 24 93.3301 24.47 93.7201C24.47 91.1301 23.87 89.6902 23.24 88.9102C22.61 88.1302 21.96 88.0202 21.96 88.0202C20.45 87.4402 20.76 89.1202 19.93 90.1102L19.91 90.0901Z" fill="#ACDE45"/>
</svg>
