<svg width="223" height="146" viewBox="0 0 223 146" fill="none" xmlns="http://www.w3.org/2000/svg">
<path d="M9.51953 4.69043L9.2995 4.78046C9.4095 4.77046 9.49953 4.74043 9.51953 4.69043Z" fill="#20BB65"/>
<path d="M14.9895 21.8005C14.9895 21.8005 15.0195 21.8005 15.0395 21.7905C15.0195 21.7905 14.9995 21.7905 14.9895 21.8005Z" fill="#20BB65"/>
<path d="M2.07953 8.61078C2.07953 8.61078 2.03953 8.60082 2.01953 8.59082L2.07953 8.61078Z" fill="#20BB65"/>
<path d="M2.26955 4.26062C2.03955 5.39062 1.01954 5.80061 1.56954 6.93061C1.52954 7.50061 1.87955 8.07059 2.07955 8.60059C2.94955 8.73059 2.18953 9.32062 2.93953 9.51062L2.48952 9.71064C2.74952 9.77064 2.92954 9.87063 2.69954 10.0206L2.55953 10.0406C2.94953 10.1306 2.76955 10.3506 2.95955 10.3906L2.81954 10.4106L2.91951 10.5906H2.7195C3.1495 10.8006 3.2295 11.0706 3.0995 11.3506L3.6595 11.2106C3.1295 11.8706 4.35955 11.8006 3.70955 12.4306L3.56954 12.4606C5.19954 12.6906 2.7595 13.6606 4.3495 13.9006C4.1495 13.8706 4.06952 14.0106 3.92952 14.0406C4.16952 14.2806 4.33952 14.5506 5.42952 14.2506C5.46952 14.4506 5.1295 14.5106 4.7195 14.6606C5.1995 14.5206 5.44955 14.6406 5.51955 14.7806L5.30953 14.7606L5.5995 15.1606L6.47951 14.8006C6.28951 15.1106 5.39953 15.1906 5.68953 15.3506L6.43953 15.1206C6.39953 15.4806 5.32954 16.0306 4.88954 16.5306C4.93954 17.2506 5.58951 17.8006 6.10951 18.3506C6.61951 18.9106 7.0295 19.4706 6.6595 20.3406L6.14955 20.6306C5.37955 21.0106 7.44953 20.4406 6.74953 20.8106L7.16951 20.7806C7.04951 20.8806 6.92951 21.0306 6.72951 21.0506C6.75951 21.1906 6.88951 21.1306 7.16951 21.1106L6.74953 21.4706C6.61953 22.1506 7.74954 22.1206 7.81954 22.7306C7.18954 23.8406 8.69956 24.5606 9.58956 24.8706C10.4096 24.9806 10.2295 25.7406 10.1295 26.4906C10.0195 27.2406 9.93951 28.0206 10.8595 28.0406C10.7795 28.1406 11.0595 28.0506 11.1395 28.0006L11.6195 28.8706C11.6195 28.8706 11.7795 29.1306 12.0795 29.3906C12.3895 29.6506 12.8295 29.9106 13.3695 29.9506C14.4695 30.0406 15.8595 29.0606 17.6595 25.6206L17.8195 25.5206C17.8895 24.8806 17.8095 24.6006 16.8595 24.9006C17.7595 24.1806 16.7295 24.5206 16.9695 24.2206L17.0495 24.1706C16.1695 24.4506 17.3095 23.2906 16.5095 23.5206C16.5895 23.4806 16.8496 23.3006 16.8996 23.3406C16.6696 23.2606 16.3095 23.1806 16.8595 22.8006C16.4595 22.5106 16.3595 21.8206 15.3095 22.1306L15.4795 22.0506C14.7795 22.2806 15.2695 21.9206 14.8595 21.9406C14.9295 21.8906 14.9595 21.8506 14.9895 21.8306C14.2795 22.0406 14.6095 21.4206 14.2695 21.4406L14.6496 21.2106C14.5496 21.1206 14.4695 21.0306 14.3795 20.9406L14.3595 21.1106C13.2695 21.6706 14.8895 20.4806 14.0695 20.6406C14.0895 20.3506 11.5795 21.3906 11.9695 20.8606C11.3995 21.0106 12.8495 20.5306 12.3695 20.5606C12.9295 20.2606 12.7695 20.4506 13.1995 20.1706C12.8395 20.1506 13.6396 19.6006 13.1496 19.5906L13.5896 19.3606C12.6496 19.5006 13.9295 18.5706 13.0695 18.7706C12.5595 18.6706 14.3195 17.9606 13.2995 18.0906L13.8595 17.7006C13.9095 17.5306 13.0695 17.9506 13.3095 17.6806C13.6995 17.5106 13.5395 17.3706 13.9495 17.2906C14.4295 16.7306 12.8195 17.0406 13.6795 16.2106C12.8795 16.4406 13.2596 16.0406 12.6496 16.2106C12.9796 16.0706 12.5495 15.7706 13.3595 15.7206C13.4295 15.7206 13.4295 15.7606 13.2995 15.8006L13.7695 15.6506C14.5395 15.0906 13.1395 15.4206 13.1795 15.1406C13.0495 15.2606 13.1295 15.3406 12.7895 15.4006L12.7695 15.1606L13.1695 15.0606L13.2796 14.6606L12.8195 14.8806C12.9995 14.6306 13.8095 14.2906 13.0695 14.3606C12.6595 14.4106 12.4695 14.7406 12.2695 14.6206C12.5295 14.2906 12.9195 13.8106 12.9795 13.5006C12.4395 13.7006 12.4395 13.6206 12.2995 13.5806L12.7695 13.4206C12.0195 13.3406 13.7795 12.9906 13.1595 12.8806L13.4995 12.8006L12.4795 13.0306C11.4595 13.0506 13.4295 12.6006 12.0595 12.6906C12.1695 12.7806 11.0195 13.0506 11.1895 12.8506L11.6595 12.7506C11.5395 12.7006 11.3395 12.7306 11.4195 12.6506C11.6795 12.6306 12.0995 12.4806 11.9895 12.3906L12.5896 12.3006L11.6795 12.3206C12.1295 12.0206 11.4295 11.9206 12.0695 11.6706C12.0695 11.6706 12.2895 11.2306 11.5595 11.3206C12.0195 11.2806 12.1495 11.0406 12.6895 10.9706C12.1595 11.0006 11.6795 10.8206 12.1995 10.5806H12.2695C12.7295 10.0606 11.3395 10.0606 11.9395 9.54059C11.3795 9.67059 11.6495 9.4106 10.9295 9.6106C10.1395 9.3506 12.2695 8.62063 9.99953 8.89063C9.83953 8.73063 10.4895 8.58058 10.5795 8.47058L10.7096 8.4906C10.4596 8.1906 10.4295 8.09063 10.4495 7.83063C10.2095 7.74063 9.15953 7.8806 9.37953 7.6106C9.80953 7.6206 9.71954 7.54063 9.69954 7.45063C9.76954 7.50063 9.92953 7.49064 10.1895 7.34064C10.0595 7.34064 9.9795 7.33062 9.9095 7.32062C9.9395 7.32062 9.96954 7.3106 10.0095 7.3006C9.83954 7.1806 9.71951 7.2206 9.66951 7.3006C9.60951 7.3006 9.5195 7.3206 9.4095 7.3606C9.9295 7.1406 9.30956 6.95064 10.0296 6.84064C9.78956 6.44064 9.02955 6.21061 8.70955 5.87061C9.07955 5.79061 9.40954 5.84061 9.56954 5.93061L9.4095 5.69062C9.9395 5.64062 9.7295 5.81061 9.8495 5.87061C10.6795 5.48061 8.92952 5.33063 9.67952 4.89063L9.24953 4.85059L9.31954 4.82062C9.09954 4.84062 8.77955 4.7806 8.70955 4.7406C9.16955 4.6506 9.77952 4.66059 9.73952 4.48059C10.1795 4.31059 9.48951 4.10061 9.22951 3.93061C9.15951 4.03061 8.89951 4.0206 8.72951 3.9906C8.70951 3.9006 9.1695 3.82062 8.9695 3.76062L9.5995 3.71064C9.0095 3.78064 8.94953 3.5106 8.68953 3.4906C9.14953 3.4106 9.09954 3.6106 9.44954 3.6106C9.36954 3.2606 9.40955 3.43063 9.32955 3.08063C8.83955 2.91063 8.73952 3.14063 8.17952 3.08063C8.04952 2.91063 7.5895 2.7606 7.9695 2.5506L7.4095 2.63062C6.9695 2.32062 7.02956 2.11062 7.58956 1.88062C5.28956 0.690618 3.72953 0.510625 2.74953 0.700625C1.76953 0.890625 1.35951 1.44062 1.35951 1.44062C0.139514 2.55062 1.77952 3.08061 2.29952 4.31061L2.26955 4.26062Z" fill="#20BB65"/>
<path d="M36.4195 40.7505L36.3695 40.9905C36.4195 40.9005 36.4495 40.8105 36.4195 40.7505Z" fill="#20BB65"/>
<path d="M53.8495 48.5605C53.8495 48.5605 53.8695 48.5405 53.8895 48.5205C53.8695 48.5305 53.8595 48.5505 53.8495 48.5605Z" fill="#20BB65"/>
<path d="M35.4195 49.1006C35.4195 49.1006 35.3895 49.1206 35.3695 49.1406L35.4195 49.1006Z" fill="#20BB65"/>
<path d="M32.1095 46.6005C32.9095 47.3605 32.6495 48.4605 33.8495 48.6005C34.2795 48.9205 34.8995 48.9705 35.4195 49.0905C36.0195 48.4505 36.0295 49.3905 36.6095 48.8805L36.4995 49.3605C36.6995 49.1905 36.8795 49.0905 36.8495 49.3705L36.7796 49.4905C37.0796 49.2305 37.1296 49.5005 37.2796 49.3705L37.2096 49.4905L37.3996 49.5105L37.2796 49.6805C37.6796 49.4505 37.9395 49.5405 38.0695 49.8005L38.3095 49.2705C38.4795 50.0705 39.1695 49.0705 39.2395 49.9605L39.1695 50.0804C40.3395 48.9404 39.5495 51.4105 40.6995 50.3405C40.5595 50.4705 40.5995 50.6205 40.5395 50.7505C40.8595 50.7105 41.1595 50.7505 41.6295 49.7205C41.7995 49.8205 41.6295 50.1105 41.4695 50.5205C41.6795 50.0605 41.9195 49.9505 42.0695 49.9805L41.9295 50.1305L42.3996 50.1605L42.7096 49.2605C42.8096 49.6005 42.2896 50.3305 42.5896 50.2205L42.9095 49.5105C43.1395 49.7805 42.8295 50.9405 42.8795 51.5905C43.9495 52.4305 45.9996 51.1405 46.5796 52.8705L46.3996 53.4305C46.0896 54.2305 47.1895 52.3805 46.9295 53.1305L47.2096 52.8204C47.1896 52.9804 47.2095 53.1605 47.0595 53.3105C47.1695 53.3905 47.2195 53.2605 47.4095 53.0605L47.3396 53.6105C47.6596 54.1905 48.4495 53.4005 48.8695 53.7905C49.0695 55.0505 50.5695 54.5605 51.4295 54.2705C52.7995 53.4205 52.6595 57.0205 54.1195 56.0005C54.1095 56.1205 54.2795 55.9005 54.3195 55.8105L55.1395 56.2405C55.1395 56.2405 56.1596 56.7005 57.0796 56.1705C58.0096 55.6505 58.7995 54.1305 58.4495 50.2305L58.5296 50.0605C58.2196 49.4705 57.9696 49.2705 57.3296 50.0305C57.6796 48.9305 56.9895 49.7805 57.0095 49.3905L57.0495 49.3105C56.4595 50.0405 56.7295 48.4105 56.1795 49.0505C56.2195 48.9705 56.3395 48.6705 56.4095 48.6805C56.1595 48.7405 55.7996 48.8805 56.0296 48.2505C55.4996 48.2405 54.9596 47.7005 54.2796 48.5905L54.3695 48.4205C53.9395 49.0305 54.1095 48.4405 53.7895 48.7105C53.8095 48.6205 53.8096 48.5805 53.8296 48.5405C53.3896 49.1305 53.2495 48.4305 52.9895 48.6605L53.1395 48.2405L52.7295 48.1905L52.8296 48.3305C52.3396 49.4505 52.8296 47.5105 52.2696 48.1405C52.0796 47.9005 50.8296 50.3005 50.7796 49.6405C50.4396 50.1205 51.2295 48.8205 50.8795 49.1505C51.1095 48.5505 51.1195 48.8105 51.2595 48.3205C50.9695 48.5305 51.1995 47.5905 50.8195 47.9105L50.9995 47.4405C50.3695 48.1705 50.6895 46.6105 50.1795 47.3405C49.7195 47.6005 50.5395 45.8905 49.8595 46.6605L49.9995 45.9905C49.9095 45.8305 49.5895 46.7105 49.5695 46.3505C49.7395 45.9605 49.5095 45.9605 49.7495 45.6205C49.6695 44.8705 48.7096 46.2105 48.7096 44.9905C48.2896 45.7105 48.2695 45.1605 47.9495 45.7005C48.0795 45.3605 47.5296 45.4605 48.0896 44.8505C48.1396 44.8005 48.1695 44.8305 48.1095 44.9505L48.3296 44.5105C48.4496 43.5605 47.6795 44.7905 47.4895 44.5505C47.4895 44.7305 47.6095 44.7305 47.4095 45.0105L47.2096 44.8505L47.4195 44.4905L47.1795 44.1205L47.0196 44.6105C46.9596 44.3005 47.2496 43.4805 46.7696 44.0605C46.5196 44.3905 46.6495 44.7605 46.4095 44.8305C46.3295 44.4105 46.2095 43.7905 45.9895 43.5305C45.7795 44.0705 45.7196 44.0105 45.5896 44.0905L45.7796 43.6305C45.1996 44.1305 46.1195 42.5805 45.5995 42.9505L45.7696 42.6405L45.2696 43.5505C44.5996 44.3305 45.5495 42.5405 44.6995 43.6405C44.8495 43.6205 44.2995 44.6605 44.2495 44.4005L44.4895 43.9805C44.3695 44.0405 44.2595 44.2105 44.2495 44.0905C44.4095 43.8805 44.5695 43.4705 44.4095 43.4905L44.7395 42.9805L44.1496 43.6805C44.1896 43.1405 43.6495 43.6005 43.8695 42.9505C43.8695 42.9505 43.6495 42.4805 43.2495 43.1105C43.5195 42.7305 43.3895 42.4705 43.6795 42.0105C43.3695 42.4405 42.8996 42.6905 43.0296 42.1405L43.0796 42.0905C42.9096 41.3905 42.0395 42.4605 41.9795 41.6605C41.7395 42.1905 41.6895 41.8105 41.4095 42.5005C40.7095 42.9705 41.3795 40.8205 40.2295 42.7905C39.9995 42.8105 40.2595 42.2105 40.2295 42.0605L40.3195 41.9705C39.9095 41.9705 39.8096 41.9505 39.5896 41.7805C39.3696 41.9205 38.8696 42.8505 38.7696 42.5205C39.0296 42.1805 38.9096 42.2005 38.8296 42.1605C38.9096 42.1305 38.9996 42.0005 39.0196 41.6905C38.9496 41.8005 38.8896 41.8605 38.8296 41.9105C38.8396 41.8805 38.8495 41.8605 38.8695 41.8205C38.6695 41.8805 38.6295 42.0105 38.6695 42.1005C38.6395 42.1605 38.6095 42.2305 38.5695 42.3505C38.6795 41.7905 38.1695 42.1805 38.4795 41.5305C37.9995 41.4705 37.3696 41.9805 36.8996 42.0505C37.0396 41.7005 37.2695 41.4505 37.4395 41.3705H37.1395C37.3995 40.8905 37.4195 41.1605 37.5395 41.1105C37.6695 40.2005 36.5595 41.5605 36.6095 40.6805L36.3396 41.0105V40.9405C36.2496 41.1405 36.0295 41.3605 35.9395 41.4005C36.1195 40.9705 36.4595 40.4605 36.2895 40.4005C36.3795 39.9405 35.8196 40.4005 35.5296 40.5305C35.5796 40.6505 35.4295 40.8605 35.3095 40.9805C35.2195 40.9505 35.3995 40.5105 35.2395 40.6505L35.5395 40.1005C35.2795 40.6405 35.0195 40.5405 34.8595 40.7505C35.0395 40.3205 35.1795 40.4705 35.3695 40.1805C35.0195 40.0505 35.1995 40.1105 34.8495 39.9805C34.4395 40.2905 34.5895 40.5205 34.2295 40.9505C34.0195 40.9705 33.6495 41.2605 33.6595 40.8405L33.4395 41.3605C32.9295 41.5705 32.7895 41.4105 32.8895 40.8105C30.6595 42.1405 29.7095 43.3805 29.3595 44.3205C29.0095 45.2605 29.2395 45.8805 29.2395 45.8805C29.5095 47.4805 30.8096 46.3505 32.0796 46.5705L32.1095 46.6005Z" fill="#20BB65"/>
<path d="M82.5595 58.2207V58.4707C82.5995 58.3707 82.5995 58.2707 82.5595 58.2207Z" fill="#20BB65"/>
<path d="M101.24 63.8309C101.24 63.8309 101.26 63.811 101.27 63.791C101.25 63.801 101.24 63.8209 101.24 63.8309Z" fill="#20BB65"/>
<path d="M83.1395 66.6006C83.1295 66.6206 83.1195 66.6306 83.0995 66.6506L83.1395 66.6006Z" fill="#20BB65"/>
<path d="M79.5695 64.8409C80.4695 65.4109 80.4195 66.5309 81.5695 66.4209C82.0295 66.6509 82.6195 66.5709 83.1395 66.5909C83.6095 65.8509 83.7695 66.7709 84.2395 66.1709L84.1995 66.6609C84.3595 66.4609 84.5195 66.3309 84.5395 66.6109L84.4895 66.7409C84.7295 66.4309 84.8295 66.6909 84.9495 66.5409L84.8996 66.6709H85.0896L84.9995 66.8409C85.3495 66.5509 85.6095 66.6009 85.7695 66.8409L85.9195 66.2809C86.1995 67.0409 86.7195 65.941 86.9195 66.811L86.8695 66.9408C87.8495 65.6408 87.4095 68.1909 88.3795 66.9709C88.2595 67.1209 88.3196 67.2609 88.2796 67.4009C88.5796 67.3209 88.8795 67.3209 89.2095 66.2309C89.3895 66.3009 89.2596 66.6209 89.1496 67.0509C89.2896 66.5709 89.5095 66.4208 89.6695 66.4408L89.5495 66.6009L90.0095 66.561L90.1995 65.6309C90.3395 65.9609 89.9195 66.7509 90.1995 66.5909L90.4295 65.8409C90.6895 66.0809 90.5195 67.2709 90.6395 67.9109C91.7595 68.6009 93.6495 67.0909 94.3795 68.7509L94.2595 69.3308C94.0295 70.1608 94.9395 68.2109 94.7495 68.9809L94.9995 68.6509C94.9995 68.8109 95.0196 68.9909 94.8995 69.1509C95.0096 69.2209 95.0595 69.0909 95.2195 68.8609L95.1995 69.4109C95.5595 69.9509 96.2695 69.0908 96.7095 69.4508C96.9995 70.6808 98.4295 70.0709 99.2595 69.7109C100.56 68.7709 100.64 72.3609 102.01 71.2509C102.01 71.3809 102.17 71.1409 102.19 71.0409L103.02 71.4209C103.02 71.4209 107.13 73.0209 106.01 65.2509L106.09 65.0808C105.75 64.5008 105.48 64.3109 104.88 65.1109C105.16 63.9909 104.53 64.8809 104.52 64.4909L104.56 64.4009C104.01 65.1609 104.18 63.5108 103.67 64.1908C103.71 64.1108 103.81 63.801 103.88 63.811C103.63 63.891 103.28 64.0509 103.46 63.4009C102.92 63.4209 102.34 62.9209 101.71 63.8509L101.79 63.6809C101.4 64.3209 101.529 63.7109 101.219 64.0009C101.229 63.9109 101.23 63.8708 101.25 63.8308C100.85 64.4508 100.649 63.7709 100.409 64.0109L100.53 63.5808L100.12 63.561L100.24 63.7008C99.8295 64.8608 100.169 62.8809 99.6595 63.5509C99.4395 63.3209 98.3895 65.8209 98.2895 65.1709C97.9895 65.6809 98.6795 64.3109 98.3495 64.6809C98.5295 64.0709 98.5595 64.3208 98.6595 63.8208C98.3795 64.0508 98.5395 63.1008 98.1795 63.4408L98.3195 62.9609C97.7495 63.7409 97.9395 62.1609 97.4795 62.9309C97.0495 63.2309 97.6996 61.4509 97.0896 62.2809L97.1595 61.6009C97.0495 61.4509 96.8195 62.3609 96.7595 62.0009C96.8895 61.6009 96.6595 61.6209 96.8695 61.2609C96.7095 60.5209 95.8795 61.9409 95.7395 60.7309C95.3995 61.4909 95.3095 60.9509 95.0495 61.5209C95.1395 61.1709 94.5996 61.3209 95.0896 60.6609C95.1296 60.6109 95.1695 60.6309 95.1195 60.7609L95.2895 60.3009C95.2895 59.3409 94.6595 60.6409 94.4395 60.4209C94.4695 60.6009 94.5895 60.5909 94.4195 60.8909L94.1995 60.7509L94.3695 60.3709L94.0795 60.0309L93.9795 60.5309C93.8795 60.2309 94.0695 59.3809 93.6595 60.0109C93.4495 60.3709 93.6295 60.721 93.3895 60.811C93.2495 60.411 93.0495 59.801 92.7895 59.561C92.6495 60.121 92.5795 60.0709 92.4595 60.1609L92.5995 59.6809C92.0795 60.2409 92.7995 58.6009 92.3195 59.0309L92.4495 58.7109L92.0595 59.6809C91.4795 60.5409 92.2095 58.6409 91.4895 59.8409C91.6395 59.8009 91.2295 60.9109 91.1395 60.6509L91.3195 60.2008C91.1995 60.2708 91.1196 60.4509 91.0896 60.3409C91.2196 60.1109 91.3195 59.6809 91.1695 59.7209L91.4295 59.1709L90.9295 59.9408C90.8995 59.3908 90.4095 59.9209 90.5395 59.2509C90.5395 59.2509 90.2395 58.8109 89.9295 59.4909C90.1395 59.0709 89.9795 58.8409 90.1995 58.3409C89.9495 58.8109 89.5195 59.1209 89.5595 58.5509L89.5995 58.5009C89.3195 57.8209 88.5996 59.0109 88.3996 58.2309C88.2496 58.7909 88.1295 58.4209 87.9695 59.1509C87.3395 59.7209 87.6495 57.4809 86.8295 59.6209C86.5995 59.6809 86.7595 59.0409 86.6995 58.9009L86.7796 58.8009C86.3696 58.8709 86.2595 58.8609 86.0095 58.7309C85.8095 58.9009 85.4795 59.9109 85.3195 59.5909C85.5195 59.2109 85.3995 59.2609 85.3195 59.2309C85.3995 59.1809 85.4595 59.0409 85.4195 58.7309C85.3695 58.8509 85.3195 58.9209 85.2695 58.9809C85.2695 58.9509 85.2795 58.9209 85.2995 58.8809C85.1095 58.9809 85.0996 59.1108 85.1496 59.1908C85.1295 59.2508 85.1095 59.3308 85.0995 59.4508C85.0995 58.8808 84.6595 59.3509 84.8495 58.6609C84.3595 58.6909 83.8195 59.3009 83.3695 59.4609C83.4395 59.0909 83.6195 58.8008 83.7695 58.7008L83.4695 58.7509C83.6295 58.2409 83.7095 58.5009 83.8195 58.4209C83.7595 57.5009 82.9195 59.0509 82.7895 58.1809L82.5896 58.561V58.4909C82.5196 58.7009 82.3496 58.9709 82.2796 59.0209C82.3596 58.5609 82.5995 57.9909 82.4095 57.9609C82.3995 57.4909 81.9395 58.0509 81.6795 58.2309C81.7595 58.3409 81.6495 58.5709 81.5595 58.7209C81.4695 58.7109 81.5495 58.2509 81.4195 58.4209L81.5995 57.811C81.4595 58.391 81.1795 58.3509 81.0695 58.5909C81.1495 58.1309 81.3295 58.2509 81.4495 57.9209C81.0695 57.8709 81.2595 57.8909 80.8795 57.8409C80.5495 58.2409 80.7395 58.4209 80.4895 58.9209C80.2795 58.9909 79.9896 59.3609 79.8996 58.9309L79.7995 59.4809C79.3495 59.8009 79.1795 59.6808 79.1295 59.0708C75.4095 62.7008 76.8095 64.8709 76.8095 64.8709C77.3895 66.3409 78.3495 64.9309 79.5995 64.8609L79.5695 64.8409Z" fill="#20BB65"/>
<path d="M130.31 73.5005V73.7505C130.34 73.6505 130.35 73.5605 130.31 73.5005Z" fill="#20BB65"/>
<path d="M148.62 80.7402C148.62 80.7402 148.639 80.7202 148.659 80.7002C148.639 80.7102 148.63 80.7202 148.62 80.7402Z" fill="#20BB65"/>
<path d="M130.39 81.8906C130.39 81.8906 130.369 81.9206 130.349 81.9406L130.39 81.8906Z" fill="#20BB65"/>
<path d="M126.96 79.9504C127.82 80.5604 127.7 81.6805 128.84 81.6305C129.28 81.8905 129.87 81.8405 130.38 81.8905C130.9 81.1805 130.99 82.1105 131.5 81.5405L131.429 82.0305C131.599 81.8405 131.77 81.7205 131.77 82.0005L131.71 82.1305C131.97 81.8405 132.039 82.1004 132.179 81.9604L132.119 82.0905H132.299L132.2 82.2705C132.57 82.0005 132.82 82.0705 132.96 82.3105L133.15 81.7605C133.37 82.5405 133.96 81.4805 134.09 82.3505L134.03 82.4805C135.1 81.2505 134.46 83.7705 135.52 82.6205C135.39 82.7605 135.44 82.9105 135.38 83.0405C135.68 82.9805 135.97 83.0004 136.4 81.9404C136.57 82.0204 136.41 82.3305 136.27 82.7505C136.45 82.2805 136.68 82.1505 136.83 82.1805L136.7 82.3304H137.159L137.429 81.4205C137.539 81.7605 137.06 82.5105 137.34 82.3805L137.63 81.6505C137.86 81.9105 137.599 83.0805 137.659 83.7205C138.689 84.5005 140.7 83.1705 141.26 84.8905L141.08 85.4504C140.77 86.2504 141.869 84.4005 141.599 85.1505L141.88 84.8405C141.86 85.0005 141.869 85.1804 141.729 85.3304C141.829 85.4104 141.89 85.2804 142.07 85.0804L141.989 85.6205C142.279 86.1905 143.069 85.4105 143.469 85.8105C143.619 87.0605 145.09 86.6005 145.95 86.3405C147.35 85.5505 146.97 89.1204 148.45 88.1904C148.43 88.3104 148.619 88.1005 148.659 88.0105L149.419 88.4905C149.419 88.4905 150.37 89.0204 151.32 88.5704C152.27 88.1204 153.249 86.7105 153.219 82.7805L153.32 82.6205C153.06 81.9905 152.809 81.7705 152.099 82.4805C152.529 81.4105 151.77 82.2005 151.82 81.8105L151.869 81.7305C151.219 82.4105 151.6 80.8005 151 81.4005C151.05 81.3205 151.18 81.0405 151.25 81.0505C150.99 81.0905 150.62 81.2105 150.88 80.5905C150.34 80.5405 149.81 79.9605 149.07 80.8105L149.169 80.6505C148.709 81.2405 148.899 80.6505 148.559 80.9005C148.58 80.8105 148.589 80.7705 148.609 80.7305C148.139 81.3005 148.02 80.5905 147.75 80.8105L147.919 80.4005L147.51 80.3304L147.609 80.4805C147.069 81.5805 147.629 79.6505 147.049 80.2605C146.859 80.0105 145.53 82.3804 145.51 81.7104C145.16 82.1804 145.99 80.9005 145.63 81.2305C145.88 80.6405 145.87 80.9005 146.03 80.4105C145.73 80.6105 145.99 79.6805 145.59 79.9805L145.78 79.5205C145.13 80.2305 145.47 78.6805 144.94 79.4005C144.47 79.6505 145.309 77.9504 144.609 78.7104L144.75 78.0405C144.65 77.8805 144.33 78.7605 144.309 78.3905C144.479 78.0005 144.249 78.0005 144.489 77.6605C144.399 76.9005 143.43 78.2405 143.4 77.0205C142.99 77.7405 142.95 77.1905 142.64 77.7405C142.76 77.4005 142.2 77.5005 142.76 76.8805C142.81 76.8305 142.84 76.8605 142.78 76.9905L143 76.5505C143.09 75.5905 142.33 76.8305 142.13 76.5905C142.15 76.7705 142.26 76.7705 142.07 77.0605L141.859 76.9005L142.07 76.5405L141.799 76.1705L141.659 76.6605C141.579 76.3505 141.85 75.5205 141.38 76.1105C141.14 76.4505 141.289 76.8105 141.039 76.8905C140.939 76.4705 140.779 75.8505 140.539 75.5905C140.349 76.1305 140.279 76.0805 140.159 76.1605L140.34 75.6904C139.77 76.2104 140.629 74.6305 140.109 75.0105L140.27 74.7004L139.799 75.6305C139.149 76.4305 140.029 74.6105 139.219 75.7405C139.379 75.7105 138.869 76.7805 138.799 76.5205L139.02 76.0905C138.9 76.1505 138.8 76.3304 138.78 76.2104C138.93 75.9904 139.059 75.5705 138.909 75.6005L139.21 75.0704L138.65 75.8005C138.65 75.2505 138.129 75.7404 138.299 75.0804C138.299 75.0804 138.029 74.6205 137.669 75.2705C137.919 74.8705 137.76 74.6205 138.02 74.1405C137.73 74.5905 137.269 74.8705 137.359 74.3005L137.409 74.2505C137.169 73.5505 136.369 74.6805 136.219 73.8905C136.029 74.4405 135.929 74.0605 135.719 74.7705C135.049 75.2905 135.499 73.0805 134.539 75.1605C134.309 75.2005 134.51 74.5805 134.45 74.4305L134.539 74.3304C134.119 74.3704 134.01 74.3504 133.77 74.2104C133.56 74.3704 133.17 75.3505 133.02 75.0305C133.24 74.6605 133.12 74.7005 133.03 74.6705C133.11 74.6305 133.179 74.4905 133.169 74.1805C133.109 74.3005 133.06 74.3605 133.01 74.4205C133.02 74.3905 133.029 74.3604 133.039 74.3204C132.839 74.4104 132.819 74.5405 132.869 74.6205C132.839 74.6805 132.819 74.7605 132.799 74.8805C132.839 74.3105 132.369 74.7604 132.599 74.0704C132.099 74.0704 131.53 74.6505 131.07 74.7805C131.16 74.4205 131.36 74.1405 131.51 74.0405L131.2 74.0704C131.39 73.5704 131.46 73.8405 131.57 73.7605C131.57 72.8305 130.629 74.3404 130.549 73.4604L130.33 73.8304V73.7605C130.26 73.9705 130.069 74.2305 129.989 74.2805C130.099 73.8205 130.359 73.2705 130.169 73.2305C130.179 72.7505 129.689 73.2904 129.419 73.4604C129.489 73.5704 129.37 73.8004 129.27 73.9404C129.18 73.9204 129.28 73.4705 129.14 73.6305L129.349 73.0305C129.179 73.6005 128.9 73.5505 128.78 73.7805C128.89 73.3205 129.06 73.4505 129.2 73.1305C128.82 73.0505 129.01 73.0905 128.63 73.0205C128.28 73.4005 128.459 73.5904 128.179 74.0804C127.969 74.1404 127.66 74.4905 127.59 74.0605L127.46 74.6105C127 74.9005 126.829 74.7805 126.809 74.1705C122.929 77.6205 124.229 79.8605 124.229 79.8605C124.729 81.3505 125.749 79.9905 126.989 79.9705L126.96 79.9504Z" fill="#20BB65"/>
<path d="M175.95 95.1904L175.89 95.4305C175.95 95.3405 175.98 95.2504 175.95 95.1904Z" fill="#20BB65"/>
<path d="M192.109 106.73C192.109 106.73 192.139 106.71 192.159 106.7C192.139 106.7 192.119 106.72 192.109 106.73Z" fill="#20BB65"/>
<path d="M174.2 103.391C174.2 103.391 174.17 103.411 174.15 103.431L174.2 103.391Z" fill="#20BB65"/>
<path d="M171.33 100.801C172.04 101.571 171.67 102.63 172.78 102.82C173.15 103.16 173.72 103.241 174.2 103.401C174.86 102.821 174.739 103.741 175.349 103.301L175.169 103.76C175.379 103.61 175.569 103.531 175.499 103.801L175.419 103.911C175.739 103.691 175.749 103.95 175.909 103.84L175.83 103.95L176.01 103.99L175.869 104.141C176.289 103.951 176.509 104.08 176.599 104.35L176.909 103.86C176.939 104.66 177.759 103.771 177.679 104.651L177.599 104.76C178.919 103.81 177.709 106.11 178.999 105.23C178.839 105.34 178.85 105.49 178.77 105.6C179.08 105.61 179.35 105.701 180.01 104.771C180.16 104.891 179.929 105.151 179.689 105.521C179.979 105.111 180.229 105.04 180.369 105.1L180.2 105.22L180.64 105.33L181.119 104.521C181.139 104.871 180.499 105.491 180.799 105.431L181.249 104.791C181.409 105.101 180.87 106.161 180.77 106.801C181.57 107.791 183.829 107.001 183.919 108.801L183.599 109.301C183.089 109.991 184.619 108.491 184.179 109.141L184.53 108.911C184.47 109.051 184.43 109.23 184.26 109.34C184.34 109.44 184.429 109.341 184.659 109.181L184.439 109.681C184.569 110.311 185.529 109.75 185.809 110.24C185.619 111.47 187.14 111.421 188.03 111.401C189.59 111.021 188.23 114.34 189.9 113.84C189.84 113.95 190.08 113.8 190.15 113.72L190.739 114.391C190.739 114.391 191.49 115.15 192.52 115C193.55 114.84 194.91 113.78 196.01 110L196.15 109.88C196.07 109.2 195.9 108.911 195.01 109.391C195.73 108.481 194.769 109.031 194.929 108.671L194.999 108.61C194.189 109.08 194.999 107.631 194.249 108.041C194.319 107.981 194.53 107.741 194.59 107.771C194.33 107.741 193.939 107.74 194.359 107.22C193.849 107.02 193.489 106.311 192.549 106.921L192.689 106.791C192.079 107.231 192.43 106.72 192.03 106.87C192.08 106.8 192.089 106.75 192.119 106.72C191.509 107.14 191.58 106.431 191.26 106.551L191.53 106.2L191.15 106.021L191.21 106.19C190.4 107.11 191.449 105.4 190.719 105.83C190.599 105.53 188.69 107.47 188.84 106.82C188.38 107.18 189.51 106.17 189.08 106.38C189.47 105.88 189.399 106.13 189.679 105.69C189.329 105.8 189.829 104.971 189.359 105.161L189.659 104.76C188.839 105.27 189.579 103.871 188.869 104.421C188.349 104.541 189.599 103.121 188.719 103.671L189.02 103.051C188.97 102.871 188.429 103.641 188.499 103.281C188.769 102.951 188.539 102.88 188.859 102.62C188.959 101.86 187.68 102.9 187.96 101.71C187.38 102.3 187.469 101.76 187.039 102.21C187.249 101.91 186.679 101.861 187.369 101.411C187.429 101.371 187.449 101.411 187.369 101.521L187.689 101.151C188.019 100.241 186.97 101.25 186.83 100.97C186.8 101.15 186.919 101.181 186.659 101.411L186.489 101.2L186.78 100.901L186.609 100.48L186.349 100.921C186.349 100.601 186.81 99.8605 186.21 100.311C185.89 100.581 185.949 100.97 185.689 100.98C185.689 100.55 185.69 99.9005 185.52 99.5905C185.21 100.07 185.15 100.001 185.01 100.051L185.289 99.6405C184.609 100.001 185.829 98.6805 185.229 98.9205L185.46 98.6605L184.78 99.4504C183.96 100.07 185.239 98.5105 184.179 99.4105C184.339 99.4105 183.59 100.34 183.59 100.07L183.9 99.7004C183.77 99.7304 183.63 99.8705 183.63 99.7605C183.82 99.5805 184.06 99.2104 183.9 99.2004L184.32 98.7605L183.599 99.3304C183.739 98.8004 183.109 99.1405 183.429 98.5405C183.429 98.5405 183.27 98.0204 182.77 98.5804C183.1 98.2504 183.01 97.9704 183.38 97.5704C182.99 97.9304 182.479 98.1004 182.689 97.5704L182.749 97.5305C182.669 96.7905 181.629 97.7005 181.659 96.8905C181.349 97.3805 181.339 96.9905 180.969 97.6305C180.199 97.9805 181.129 95.9305 179.729 97.7305C179.489 97.7305 179.829 97.1505 179.809 97.0005L179.919 96.9305C179.499 96.8705 179.399 96.8305 179.189 96.6305C178.949 96.7405 178.35 97.6105 178.28 97.2605C178.58 96.9505 178.449 96.9605 178.369 96.9105C178.459 96.8905 178.559 96.7704 178.609 96.4604C178.519 96.5604 178.46 96.6105 178.4 96.6505C178.42 96.6205 178.43 96.6005 178.45 96.5605C178.24 96.6005 178.189 96.7205 178.219 96.8105C178.179 96.8605 178.139 96.9305 178.099 97.0405C178.259 96.5005 177.7 96.8204 178.08 96.2104C177.59 96.0904 176.899 96.5405 176.419 96.5605C176.579 96.2205 176.84 95.9905 177.01 95.9305L176.7 95.9005C176.99 95.4505 177 95.7305 177.13 95.6805C177.32 94.7705 176.089 96.0405 176.189 95.1605L175.9 95.4705L175.919 95.4005C175.799 95.5905 175.559 95.8004 175.479 95.8304C175.679 95.4104 176.06 94.9205 175.88 94.8405C175.99 94.3805 175.39 94.8005 175.09 94.9105C175.14 95.0305 174.969 95.2305 174.849 95.3505C174.759 95.3105 174.959 94.8905 174.789 95.0205L175.119 94.4805C174.839 95.0005 174.57 94.8905 174.4 95.0905C174.6 94.6605 174.739 94.8305 174.939 94.5405C174.579 94.3905 174.76 94.4605 174.4 94.3105C173.98 94.6105 174.119 94.8405 173.749 95.2605C173.529 95.2605 173.149 95.5505 173.169 95.1205L172.929 95.6305C172.419 95.8205 172.28 95.6705 172.38 95.0605C170.13 96.3605 169.229 97.6304 168.869 98.5704C168.519 99.5104 168.71 100.11 168.71 100.11C168.89 101.66 170.149 100.52 171.359 100.76L171.33 100.801Z" fill="#20BB65"/>
<path d="M212.74 128L212.59 128.181C212.67 128.111 212.74 128.05 212.74 128Z" fill="#20BB65"/>
<path d="M220.299 138.71C220.299 138.71 220.329 138.71 220.349 138.69C220.329 138.69 220.309 138.69 220.299 138.71Z" fill="#20BB65"/>
<path d="M207.69 134.311C207.69 134.311 207.66 134.32 207.64 134.33L207.7 134.311H207.69Z" fill="#20BB65"/>
<path d="M206.68 131.95C206.86 132.64 206.11 133.44 206.87 133.7C206.99 134.01 207.4 134.13 207.69 134.3C208.46 133.91 207.95 134.62 208.62 134.34L208.28 134.68C208.51 134.58 208.69 134.54 208.51 134.75L208.4 134.83C208.75 134.69 208.63 134.9 208.81 134.83L208.69 134.91L208.81 134.96L208.64 135.06C209.04 134.96 209.159 135.08 209.099 135.3L209.56 134.95C209.22 135.58 210.26 134.97 209.8 135.65L209.68 135.73C211.13 135.12 209.16 136.79 210.55 136.24C210.38 136.31 210.32 136.43 210.2 136.51C210.43 136.55 210.609 136.65 211.539 135.99C211.599 136.1 211.31 136.28 210.96 136.54C211.37 136.25 211.6 136.22 211.68 136.28L211.5 136.35L211.8 136.48L212.539 135.9C212.399 136.18 211.62 136.59 211.89 136.57L212.53 136.12C212.53 136.38 211.62 137.15 211.25 137.64C211.43 138.49 213.569 138.1 212.849 139.5L212.38 139.85C211.67 140.33 213.549 139.32 212.909 139.79L213.289 139.65C213.179 139.75 213.07 139.89 212.88 139.96C212.9 140.05 213.02 139.97 213.26 139.88L212.86 140.24C212.69 140.73 213.7 140.4 213.71 140.8C213.01 141.73 214.26 141.83 214.99 141.89C216.41 141.74 213.88 144.14 215.45 143.92C215.36 144 215.62 143.9 215.7 143.85L215.89 144.41C215.89 144.41 216.18 145.05 217.09 145.02C218 144.98 219.57 144.31 222.07 141.55L222.24 141.47C222.46 140.95 222.44 140.72 221.51 141C222.48 140.38 221.47 140.7 221.75 140.45L221.83 140.41C220.97 140.69 222.24 139.67 221.46 139.91C221.54 139.87 221.809 139.71 221.849 139.74C221.649 139.69 221.33 139.66 221.9 139.3C221.57 139.1 221.58 138.53 220.56 138.9L220.729 138.81C220.049 139.09 220.55 138.73 220.17 138.81C220.24 138.76 220.27 138.72 220.31 138.71C219.63 138.97 220.01 138.43 219.69 138.5L220.06 138.26L219.83 138.09L219.8 138.23C218.75 138.86 220.34 137.65 219.56 137.91C219.59 137.67 217.21 138.97 217.62 138.49C217.09 138.72 218.45 138.05 218 138.18C218.53 137.83 218.37 138.02 218.78 137.71C218.45 137.76 219.21 137.17 218.76 137.27L219.17 136.99C218.29 137.3 219.5 136.29 218.69 136.65C218.23 136.69 219.84 135.72 218.9 136.06L219.409 135.62C219.449 135.48 218.68 136.01 218.89 135.74C219.25 135.51 219.099 135.44 219.469 135.27C219.889 134.69 218.409 135.37 219.159 134.47C218.439 134.87 218.75 134.46 218.21 134.76C218.5 134.55 218.07 134.45 218.82 134.17C218.88 134.15 218.89 134.17 218.77 134.25L219.19 134C219.85 133.33 218.58 134 218.59 133.77C218.49 133.91 218.56 133.94 218.26 134.09L218.219 133.91L218.58 133.71L218.63 133.36L218.229 133.68C218.379 133.43 219.07 132.9 218.39 133.19C218.02 133.37 217.89 133.68 217.68 133.66C217.87 133.33 218.159 132.82 218.159 132.56C217.699 132.9 217.68 132.84 217.55 132.86L217.96 132.57C217.26 132.78 218.809 131.88 218.229 132L218.53 131.82L217.64 132.37C216.71 132.77 218.42 131.69 217.19 132.27C217.31 132.29 216.32 132.94 216.43 132.72L216.84 132.47C216.72 132.47 216.549 132.58 216.599 132.49C216.829 132.37 217.18 132.1 217.06 132.08L217.59 131.78L216.77 132.15C217.11 131.75 216.47 131.95 216.99 131.51C216.99 131.51 217.1 131.09 216.46 131.47C216.87 131.25 216.92 131.02 217.39 130.74C216.92 130.98 216.449 131.06 216.849 130.66L216.909 130.64C217.179 130.05 215.959 130.65 216.349 130.02C215.889 130.37 216.059 130.06 215.479 130.53C214.719 130.72 216.369 129.2 214.469 130.47C214.289 130.44 214.81 130.02 214.86 129.9L214.979 129.85C214.679 129.76 214.62 129.71 214.55 129.53C214.32 129.59 213.46 130.21 213.56 129.93C213.93 129.72 213.829 129.71 213.789 129.66C213.869 129.66 214 129.57 214.18 129.33C214.07 129.4 213.99 129.43 213.93 129.46C213.96 129.44 213.98 129.42 214.01 129.4C213.83 129.4 213.729 129.5 213.719 129.57C213.669 129.61 213.6 129.66 213.52 129.74C213.89 129.33 213.31 129.52 213.88 129.08C213.56 128.93 212.83 129.21 212.45 129.17C212.73 128.92 213.03 128.77 213.19 128.74L212.969 128.68C213.399 128.35 213.28 128.58 213.4 128.56C213.95 127.86 212.439 128.73 212.909 128.04L212.539 128.26L212.59 128.2C212.41 128.34 212.14 128.48 212.06 128.49C212.41 128.18 212.91 127.83 212.81 127.75C213.1 127.39 212.46 127.66 212.18 127.71C212.16 127.81 211.94 127.96 211.8 128.03C211.75 127.99 212.09 127.67 211.9 127.76L212.39 127.37C211.94 127.76 211.78 127.64 211.57 127.78C211.91 127.46 211.949 127.61 212.229 127.4C212.029 127.24 212.13 127.32 211.92 127.15C211.46 127.34 211.47 127.54 210.99 127.83C210.82 127.81 210.4 128 210.62 127.65L210.21 128.03C209.73 128.13 209.7 127.98 210.05 127.51C207.76 128.29 206.5 129.22 205.81 129.93C205.12 130.64 204.99 131.15 204.99 131.15C204.42 132.41 205.88 131.64 206.69 131.96L206.68 131.95Z" fill="#20BB65"/>
</svg>
