<svg width="574" height="347" viewBox="0 0 574 347" fill="none" xmlns="http://www.w3.org/2000/svg">
<path d="M415.2 1.34985V1.58984C415.2 1.48984 415.22 1.38985 415.2 1.34985Z" fill="#20BB65"/>
<path d="M424.78 3.6499C424.78 3.6499 424.79 3.61985 424.8 3.59985C424.79 3.61985 424.78 3.6299 424.78 3.6499Z" fill="#20BB65"/>
<path d="M414.87 9.34985C414.87 9.34985 414.86 9.3799 414.85 9.3999L414.87 9.34985Z" fill="#20BB65"/>
<path d="M413.14 8.25989C413.57 8.65989 413.46 9.74983 414.06 9.44983C414.28 9.59983 414.6 9.41985 414.87 9.34985C415.18 8.55985 415.18 9.41989 415.48 8.75989L415.42 9.23987C415.52 9.01987 415.61 8.86988 415.6 9.12988L415.56 9.25989C415.71 8.91989 415.74 9.14987 415.82 8.98987L415.78 9.12988L415.88 9.08984L415.82 9.27991C416.03 8.93991 416.16 8.93989 416.23 9.13989L416.36 8.56982C416.44 9.25982 416.81 8.10991 416.84 8.90991L416.8 9.04993C417.43 7.62993 416.97 10.1698 417.59 8.81982C417.51 8.98982 417.53 9.10988 417.5 9.24988C417.67 9.11988 417.82 9.06984 418.1 7.95984C418.19 7.99984 418.09 8.32989 418 8.75989C418.12 8.26989 418.25 8.08983 418.33 8.07983L418.25 8.25989L418.5 8.1499L418.69 7.21985C418.73 7.50985 418.44 8.3399 418.6 8.1499L418.79 7.38989C418.91 7.57989 418.71 8.74984 418.71 9.33984C419.23 9.80984 420.38 8.0499 420.61 9.5199L420.49 10.0999C420.29 10.9299 420.96 8.90993 420.79 9.67993L420.95 9.31982C420.93 9.46982 420.93 9.63982 420.85 9.81982C420.9 9.86982 420.94 9.72987 421.05 9.48987L420.98 10.0199C421.12 10.4799 421.58 9.53993 421.78 9.79993C421.81 10.9299 422.63 10.0999 423.11 9.61987C423.91 8.49987 423.56 11.9299 424.41 10.6299C424.39 10.7499 424.51 10.4999 424.53 10.3999L424.93 10.6299C424.93 10.6299 426.96 11.4698 427.24 4.21985L427.3 4.03992C427.18 3.53992 427.05 3.4099 426.63 4.2699C426.91 3.1499 426.46 4.10986 426.5 3.72986L426.53 3.63989C426.15 4.45989 426.42 2.84983 426.07 3.57983C426.1 3.48983 426.19 3.18993 426.22 3.17993C426.08 3.28993 425.87 3.50986 426.04 2.85986C425.74 2.96986 425.48 2.57982 425.04 3.56982L425.1 3.38989C424.82 4.06989 424.95 3.45992 424.76 3.78992C424.78 3.69992 424.79 3.65987 424.79 3.61987C424.51 4.28987 424.47 3.65993 424.31 3.92993L424.42 3.49988L424.2 3.54993L424.25 3.65991C423.91 4.83991 424.3 2.87986 423.95 3.60986C423.86 3.42986 423.03 5.99989 423.05 5.38989C422.84 5.92989 423.34 4.49991 423.13 4.90991C423.29 4.28991 423.28 4.52991 423.38 4.02991C423.21 4.29991 423.38 3.35988 423.16 3.74988L423.28 3.2699C422.89 4.1099 423.15 2.55988 422.83 3.37988C422.57 3.73988 423.09 1.91982 422.68 2.81982L422.78 2.1499C422.73 2.0299 422.52 2.93985 422.52 2.59985C422.63 2.18985 422.5 2.24987 422.65 1.86987C422.63 1.17987 422.05 2.68992 422.09 1.53992C421.83 2.32992 421.84 1.81991 421.64 2.40991C421.72 2.05991 421.41 2.28982 421.74 1.56982C421.77 1.50982 421.78 1.52991 421.74 1.65991L421.88 1.18982C421.97 0.259819 421.51 1.61983 421.41 1.44983C421.41 1.61983 421.47 1.58991 421.36 1.90991L421.25 1.80994L421.38 1.41992L421.25 1.13989L421.15 1.63989C421.12 1.35989 421.3 0.509819 421.02 1.18982C420.88 1.56982 420.94 1.87989 420.8 2.00989C420.76 1.63989 420.71 1.0899 420.59 0.899902C420.47 1.4599 420.43 1.42991 420.36 1.52991L420.48 1.04993C420.15 1.67993 420.68 -0.0301611 420.39 0.459839L420.49 0.129883L420.2 1.12988C419.82 2.04988 420.37 0.109873 419.88 1.36987C419.97 1.29987 419.65 2.43984 419.62 2.20984L419.76 1.74988C419.69 1.83988 419.63 2.02993 419.62 1.92993C419.71 1.67993 419.8 1.24982 419.72 1.31982L419.91 0.749878L419.58 1.57983C419.61 1.05983 419.3 1.64986 419.43 0.979858C419.43 0.979858 419.3 0.609824 419.08 1.31982C419.23 0.879824 419.16 0.679922 419.32 0.169922C419.14 0.659922 418.89 1.03986 418.95 0.479858L418.98 0.419922C418.88 -0.190078 418.4 1.07985 418.35 0.349854C418.22 0.909854 418.19 0.579937 418.04 1.30994C417.66 1.96994 418 -0.250171 417.39 1.94983C417.26 2.04983 417.39 1.3999 417.38 1.2699L417.43 1.15991C417.2 1.29991 417.15 1.29985 417.02 1.21985C416.9 1.41985 416.65 2.44992 416.58 2.16992C416.72 1.76992 416.65 1.82982 416.6 1.81982C416.64 1.75982 416.69 1.60982 416.69 1.31982C416.65 1.44982 416.62 1.51983 416.59 1.57983C416.59 1.54983 416.6 1.51986 416.61 1.47986C416.5 1.60986 416.48 1.73993 416.51 1.79993C416.49 1.85993 416.48 1.93994 416.46 2.05994C416.51 1.50994 416.23 2.03983 416.39 1.32983C416.12 1.43983 415.79 2.11985 415.54 2.34985C415.6 1.97985 415.72 1.66992 415.81 1.53992L415.64 1.63989C415.76 1.11989 415.79 1.35989 415.85 1.25989C415.89 0.379888 415.33 2.01983 415.32 1.19983L415.19 1.59985V1.52991C415.14 1.74991 415.03 2.03985 414.99 2.09985C415.07 1.63985 415.23 1.04994 415.13 1.05994C415.16 0.599937 414.87 1.22983 414.72 1.44983C414.75 1.53983 414.68 1.78982 414.62 1.93982C414.57 1.93982 414.65 1.47992 414.57 1.66992L414.71 1.04993C414.6 1.62993 414.45 1.63989 414.37 1.88989C414.45 1.42989 414.53 1.51993 414.62 1.17993C414.42 1.18993 414.52 1.17983 414.32 1.19983C414.12 1.63983 414.21 1.78994 414.04 2.30994C413.93 2.40994 413.74 2.81992 413.73 2.41992L413.64 2.96985C413.38 3.34985 413.3 3.26982 413.31 2.68982C411.11 6.82982 411.7 8.69983 411.7 8.69983C411.9 10.0198 412.5 8.49984 413.15 8.20984L413.14 8.25989Z" fill="#20BB65"/>
<path d="M450.61 12V12.24C450.64 12.14 450.65 12.05 450.61 12Z" fill="#20BB65"/>
<path d="M468.36 19.59L468.401 19.55C468.401 19.55 468.37 19.57 468.36 19.59Z" fill="#20BB65"/>
<path d="M450.47 20.3599C450.47 20.3599 450.451 20.3899 450.431 20.4099L450.47 20.3599Z" fill="#20BB65"/>
<path d="M447.19 18.41C448.02 19.02 447.87 20.13 448.98 20.09C449.4 20.35 449.98 20.31 450.47 20.36C450.99 19.66 451.06 20.58 451.57 20.02L451.491 20.5C451.671 20.31 451.83 20.2 451.82 20.47L451.761 20.6C452.021 20.32 452.09 20.5701 452.22 20.4301L452.161 20.5601H452.34L452.241 20.74C452.611 20.47 452.85 20.54 452.98 20.79L453.181 20.25C453.371 21.03 453.98 19.98 454.08 20.86L454.021 20.99C455.111 19.78 454.39 22.28 455.47 21.15C455.34 21.29 455.38 21.4401 455.32 21.5601C455.62 21.5101 455.9 21.53 456.35 20.49C456.51 20.58 456.35 20.88 456.2 21.29C456.4 20.83 456.631 20.7 456.771 20.73L456.631 20.88H457.08L457.381 19.99C457.481 20.33 456.981 21.0699 457.261 20.9399L457.57 20.22C457.79 20.48 457.481 21.64 457.521 22.29C458.501 23.08 460.521 21.8 460.98 23.53L460.781 24.09C460.441 24.88 461.591 23.07 461.301 23.8L461.58 23.5C461.55 23.65 461.551 23.84 461.411 23.98C461.511 24.06 461.571 23.94 461.761 23.74L461.661 24.28C461.921 24.86 462.73 24.1 463.1 24.5C463.19 25.75 464.651 25.33 465.501 25.1C466.911 24.35 466.361 27.9 467.861 27.01C467.831 27.13 468.03 26.92 468.07 26.84L468.791 27.34C468.791 27.34 469.691 27.89 470.641 27.48C471.591 27.06 472.631 25.69 472.791 21.78L472.891 21.63C472.661 21 472.43 20.77 471.7 21.46C472.17 20.41 471.39 21.17 471.46 20.79L471.511 20.71C470.841 21.37 471.291 19.77 470.671 20.35C470.721 20.27 470.87 19.99 470.94 20.01C470.69 20.05 470.31 20.15 470.6 19.54C470.07 19.47 469.571 18.88 468.811 19.7L468.911 19.54C468.431 20.11 468.651 19.54 468.301 19.77C468.331 19.69 468.33 19.64 468.35 19.61C467.86 20.17 467.781 19.46 467.501 19.66L467.681 19.25L467.281 19.17L467.371 19.3199C466.791 20.3999 467.43 18.5 466.83 19.09C466.65 18.83 465.251 21.16 465.251 20.49C464.891 20.95 465.751 19.7 465.391 20.01C465.661 19.43 465.64 19.69 465.82 19.2C465.51 19.39 465.811 18.47 465.401 18.76L465.6 18.3101C464.93 19.0001 465.341 17.47 464.781 18.16C464.311 18.4 465.2 16.73 464.48 17.47L464.641 16.8C464.551 16.64 464.2 17.51 464.19 17.14C464.38 16.76 464.141 16.75 464.401 16.42C464.341 15.66 463.331 16.97 463.361 15.75C462.931 16.46 462.91 15.9099 462.58 16.4399C462.72 16.1099 462.16 16.19 462.73 15.59C462.78 15.54 462.811 15.57 462.751 15.7L462.98 15.27C463.101 14.32 462.311 15.53 462.121 15.29C462.121 15.47 462.241 15.48 462.041 15.75L461.84 15.59L462.061 15.23L461.811 14.86L461.651 15.35C461.591 15.04 461.881 14.22 461.391 14.79C461.141 15.12 461.271 15.4901 461.031 15.5601C460.941 15.1401 460.81 14.52 460.59 14.25C460.39 14.79 460.32 14.7301 460.19 14.8101L460.381 14.35C459.801 14.85 460.701 13.3 460.181 13.67L460.34 13.36L459.85 14.28C459.19 15.07 460.111 13.27 459.271 14.37C459.421 14.34 458.89 15.4 458.83 15.14L459.061 14.71C458.941 14.77 458.83 14.94 458.82 14.83C458.97 14.61 459.12 14.2 458.97 14.22L459.291 13.7L458.71 14.42C458.74 13.87 458.201 14.3499 458.391 13.6899C458.391 13.6899 458.141 13.22 457.761 13.87C458.021 13.48 457.871 13.23 458.141 12.75C457.841 13.19 457.38 13.46 457.48 12.9L457.531 12.85C457.311 12.15 456.491 13.26 456.371 12.46C456.171 13 456.08 12.63 455.85 13.33C455.17 13.84 455.681 11.64 454.681 13.7C454.451 13.74 454.661 13.12 454.611 12.97L454.7 12.88C454.29 12.91 454.18 12.89 453.95 12.74C453.74 12.9 453.33 13.87 453.19 13.55C453.42 13.19 453.3 13.2199 453.21 13.1899C453.29 13.1499 453.361 13.01 453.361 12.71C453.301 12.83 453.24 12.8899 453.19 12.9399C453.2 12.9099 453.21 12.88 453.23 12.84C453.03 12.92 453.011 13.05 453.051 13.13C453.021 13.19 453 13.27 452.98 13.38C453.03 12.82 452.561 13.2499 452.801 12.5699C452.311 12.5599 451.731 13.13 451.281 13.26C451.381 12.9 451.58 12.62 451.73 12.53L451.431 12.5601C451.631 12.0601 451.691 12.33 451.801 12.26C451.811 11.33 450.871 12.83 450.801 11.95L450.57 12.3199V12.25C450.49 12.46 450.31 12.71 450.23 12.76C450.35 12.3 450.621 11.76 450.431 11.72C450.451 11.25 449.96 11.78 449.69 11.95C449.76 12.06 449.641 12.2901 449.541 12.4301C449.451 12.4101 449.561 11.96 449.421 12.12L449.631 11.53C449.451 12.1 449.171 12.04 449.051 12.27C449.161 11.81 449.33 11.95 449.47 11.62C449.1 11.54 449.281 11.58 448.911 11.5C448.561 11.87 448.73 12.07 448.45 12.55C448.24 12.6 447.931 12.95 447.871 12.53L447.741 13.08C447.281 13.37 447.121 13.24 447.111 12.64C445.171 14.35 444.53 15.78 444.35 16.76C444.18 17.75 444.48 18.3 444.48 18.3C444.94 19.78 445.951 18.42 447.161 18.42L447.19 18.41Z" fill="#20BB65"/>
<path d="M494.47 34.8301L494.401 35.0602C494.461 34.9702 494.5 34.8801 494.47 34.8301Z" fill="#20BB65"/>
<path d="M509.87 46.5699C509.87 46.5699 509.901 46.55 509.921 46.54C509.901 46.54 509.88 46.5599 509.87 46.5699Z" fill="#20BB65"/>
<path d="M492.36 42.9302C492.36 42.9302 492.331 42.9501 492.311 42.9601L492.36 42.9302Z" fill="#20BB65"/>
<path d="M489.641 40.27C490.301 41.06 489.89 42.0999 490.98 42.3199C491.33 42.6699 491.89 42.7701 492.35 42.9301C493.03 42.3701 492.86 43.28 493.49 42.86L493.291 43.3101C493.511 43.1701 493.69 43.1 493.61 43.36L493.521 43.47C493.841 43.26 493.84 43.52 494 43.42L493.911 43.53L494.08 43.58L493.94 43.72C494.36 43.55 494.581 43.6699 494.651 43.9399L494.98 43.46C494.98 44.26 495.82 43.39 495.7 44.26L495.61 44.37C496.95 43.46 495.66 45.71 496.97 44.87C496.81 44.97 496.81 45.13 496.72 45.24C497.02 45.26 497.29 45.35 497.98 44.45C498.12 44.57 497.881 44.8299 497.641 45.1899C497.941 44.7899 498.2 44.72 498.33 44.79L498.161 44.9L498.59 45.02L499.1 44.22C499.1 44.57 498.44 45.17 498.75 45.11L499.22 44.49C499.37 44.8 498.791 45.85 498.661 46.48C499.411 47.48 501.68 46.74 501.7 48.53L501.37 49.02C500.85 49.7 502.41 48.23 501.95 48.87L502.301 48.65C502.231 48.79 502.191 48.97 502.021 49.08C502.091 49.18 502.181 49.0801 502.421 48.9301L502.181 49.4301C502.291 50.0501 503.261 49.52 503.511 50C503.281 51.23 504.791 51.1901 505.671 51.1801C507.221 50.8101 505.79 54.1 507.46 53.62C507.4 53.73 507.64 53.58 507.71 53.51L508.281 54.1801C508.281 54.1801 509.001 54.94 510.031 54.79C511.051 54.63 512.41 53.58 513.58 49.84L513.72 49.72C513.66 49.05 513.49 48.77 512.61 49.24C513.34 48.35 512.391 48.88 512.551 48.53L512.62 48.47C511.81 48.93 512.651 47.5 511.901 47.91C511.971 47.85 512.18 47.62 512.25 47.65C511.99 47.62 511.611 47.62 512.041 47.11C511.541 46.91 511.211 46.2101 510.271 46.8101L510.411 46.6801C509.801 47.1101 510.161 46.61 509.761 46.75C509.811 46.68 509.83 46.63 509.85 46.61C509.23 47.02 509.331 46.3099 509.011 46.4399L509.291 46.09L508.921 45.91L508.97 46.08C508.14 46.98 509.23 45.3 508.5 45.72C508.39 45.43 506.44 47.3201 506.62 46.6801C506.15 47.0301 507.31 46.04 506.87 46.25C507.27 45.76 507.2 46 507.48 45.58C507.14 45.69 507.65 44.87 507.19 45.05L507.5 44.66C506.68 45.16 507.45 43.7701 506.74 44.3101C506.23 44.4201 507.51 43.0301 506.631 43.5601L506.95 42.95C506.91 42.77 506.351 43.52 506.431 43.17C506.711 42.85 506.481 42.78 506.811 42.53C506.941 41.78 505.64 42.8 505.96 41.62C505.36 42.2 505.481 41.66 505.031 42.1C505.241 41.81 504.681 41.7501 505.381 41.3101C505.441 41.2701 505.461 41.31 505.381 41.42L505.71 41.0601C506.07 40.1601 505 41.15 504.87 40.87C504.83 41.05 504.941 41.08 504.681 41.3L504.521 41.09L504.82 40.8L504.671 40.38L504.401 40.8101C504.421 40.4901 504.901 39.77 504.291 40.21C503.971 40.47 504.01 40.86 503.75 40.86C503.77 40.43 503.801 39.79 503.641 39.48C503.311 39.95 503.26 39.88 503.12 39.92L503.421 39.52C502.731 39.86 503.991 38.5801 503.391 38.8101L503.62 38.55L502.921 39.3199C502.081 39.9199 503.42 38.4 502.34 39.27C502.5 39.28 501.72 40.18 501.73 39.91L502.051 39.55C501.921 39.58 501.771 39.72 501.781 39.6C501.981 39.43 502.23 39.06 502.07 39.05L502.5 38.62L501.771 39.17C501.931 38.64 501.291 38.97 501.641 38.39C501.641 38.39 501.51 37.87 500.99 38.41C501.33 38.09 501.261 37.81 501.631 37.42C501.231 37.77 500.72 37.93 500.95 37.41L501.011 37.37C500.971 36.63 499.9 37.52 499.97 36.71C499.64 37.19 499.651 36.8001 499.261 37.4301C498.481 37.7601 499.501 35.75 498.031 37.51C497.801 37.49 498.151 36.94 498.141 36.78L498.25 36.71C497.84 36.64 497.741 36.6 497.551 36.4C497.311 36.5 496.67 37.35 496.62 37C496.93 36.7 496.8 36.71 496.73 36.66C496.82 36.64 496.92 36.52 496.99 36.22C496.9 36.32 496.831 36.37 496.771 36.41C496.791 36.38 496.8 36.3599 496.83 36.3199C496.62 36.3499 496.56 36.4801 496.59 36.5601C496.55 36.6101 496.51 36.68 496.46 36.79C496.65 36.25 496.08 36.56 496.48 35.96C496.01 35.83 495.31 36.25 494.83 36.27C495.01 35.94 495.27 35.72 495.44 35.66L495.141 35.62C495.451 35.18 495.44 35.46 495.57 35.42C495.8 34.52 494.531 35.75 494.671 34.88L494.36 35.1801L494.381 35.11C494.251 35.3 494.011 35.5 493.921 35.53C494.141 35.11 494.53 34.6401 494.36 34.5601C494.49 34.1001 493.88 34.51 493.58 34.61C493.62 34.73 493.45 34.93 493.32 35.04C493.23 35 493.451 34.58 493.281 34.71L493.631 34.1801C493.331 34.6901 493.071 34.57 492.891 34.77C493.111 34.35 493.24 34.52 493.45 34.24C493.11 34.08 493.281 34.16 492.931 34C492.501 34.28 492.63 34.51 492.24 34.92C492.02 34.92 491.641 35.19 491.681 34.76L491.421 35.26C490.901 35.44 490.781 35.2801 490.901 34.6801C488.621 35.9001 487.671 37.1401 487.271 38.0601C486.871 38.9801 487.041 39.59 487.041 39.59C487.141 41.14 488.44 40.0499 489.61 40.3199L489.641 40.27Z" fill="#20BB65"/>
<path d="M531.03 68.25L530.9 68.46C530.98 68.39 531.04 68.32 531.03 68.25Z" fill="#20BB65"/>
<path d="M542.55 83.8401C542.55 83.8401 542.58 83.8401 542.6 83.8301C542.58 83.8301 542.56 83.8301 542.55 83.8401Z" fill="#20BB65"/>
<path d="M526.76 75.4399C526.76 75.4399 526.72 75.45 526.7 75.46L526.76 75.4399Z" fill="#20BB65"/>
<path d="M524.89 72.14C525.3 73.07 524.62 73.97 525.61 74.47C525.84 74.9 526.36 75.1499 526.76 75.4399C527.56 75.0899 527.16 75.9199 527.88 75.6899L527.57 76.0699C527.82 75.9899 528.01 75.98 527.87 76.21L527.76 76.29C528.13 76.17 528.06 76.43 528.24 76.37L528.13 76.45L528.28 76.54L528.11 76.64C528.56 76.59 528.73 76.77 528.73 77.05L529.18 76.6801C528.95 77.4401 530.01 76.85 529.65 77.65L529.53 77.73C531.08 77.23 529.2 79.03 530.69 78.59C530.5 78.64 530.47 78.79 530.35 78.87C530.63 78.97 530.86 79.14 531.78 78.46C531.88 78.62 531.58 78.7899 531.24 79.0699C531.64 78.7699 531.9 78.78 532.01 78.88L531.82 78.9399L532.2 79.17L532.91 78.55C532.82 78.89 532.02 79.2801 532.32 79.3101L532.95 78.85C533.01 79.19 532.15 80.03 531.86 80.6C532.3 81.77 534.68 81.69 534.2 83.41L533.75 83.79C533.06 84.3 534.97 83.3201 534.34 83.8101L534.74 83.7C534.63 83.82 534.54 83.97 534.35 84.03C534.39 84.15 534.51 84.07 534.77 84L534.4 84.41C534.33 85.04 535.41 84.79 535.52 85.33C534.95 86.44 536.41 86.8299 537.26 87.0699C538.85 87.1599 536.55 89.9 538.29 89.92C538.2 90.01 538.48 89.93 538.56 89.88L538.91 90.6801C538.91 90.6801 539.39 91.61 540.42 91.76C541.45 91.9 543.05 91.27 545.23 88.01L545.4 87.9301C545.53 87.2701 545.45 86.95 544.47 87.16C545.42 86.51 544.36 86.75 544.61 86.46L544.7 86.42C543.79 86.63 545 85.5001 544.17 85.6801C544.25 85.6401 544.52 85.48 544.58 85.52C544.34 85.42 543.97 85.3099 544.53 84.9399C544.11 84.6099 543.99 83.84 542.91 84.15L543.08 84.0699C542.37 84.3099 542.86 83.93 542.44 83.96C542.51 83.9 542.54 83.87 542.57 83.85C541.86 84.07 542.16 83.42 541.81 83.45L542.18 83.2L541.87 82.92V83.1C540.82 83.73 542.35 82.43 541.52 82.62C541.5 82.31 539.1 83.57 539.44 83.01C538.89 83.22 540.28 82.59 539.8 82.67C540.33 82.31 540.18 82.52 540.58 82.2C540.22 82.2 540.94 81.57 540.45 81.61L540.86 81.3199C539.93 81.5699 541.06 80.46 540.23 80.77C539.71 80.73 541.33 79.75 540.33 80.02L540.81 79.53C540.81 79.35 540.07 79.91 540.25 79.59C540.6 79.36 540.41 79.23 540.8 79.08C541.13 78.4 539.6 79 540.24 77.96C539.5 78.35 539.77 77.87 539.22 78.16C539.51 77.94 538.98 77.73 539.78 77.5C539.85 77.48 539.86 77.52 539.74 77.6L540.16 77.34C540.75 76.58 539.45 77.22 539.41 76.92C539.33 77.08 539.42 77.14 539.11 77.28L539.02 77.03L539.39 76.83L539.37 76.38L538.99 76.72C539.1 76.42 539.76 75.86 539.05 76.11C538.67 76.27 538.59 76.65 538.35 76.59C538.49 76.19 538.69 75.58 538.63 75.23C538.18 75.59 538.15 75.51 538 75.51L538.4 75.21C537.64 75.35 539.21 74.46 538.57 74.52L538.87 74.34L537.98 74.88C537.01 75.22 538.72 74.14 537.43 74.67C537.58 74.73 536.58 75.37 536.66 75.11L537.07 74.86C536.93 74.85 536.76 74.94 536.8 74.84C537.04 74.73 537.38 74.45 537.23 74.39L537.77 74.1L536.91 74.4301C537.21 73.9701 536.51 74.11 537 73.64C537 73.64 537.02 73.11 536.37 73.48C536.79 73.27 536.79 72.98 537.26 72.71C536.78 72.94 536.25 72.94 536.61 72.5L536.67 72.48C536.83 71.76 535.56 72.3101 535.85 71.5601C535.4 71.9301 535.52 71.56 534.97 72.05C534.13 72.15 535.67 70.5 533.77 71.78C533.55 71.7 534.05 71.27 534.08 71.11L534.2 71.0699C533.82 70.8899 533.74 70.8199 533.61 70.5699C533.35 70.5999 532.5 71.24 532.55 70.89C532.93 70.69 532.81 70.66 532.75 70.59C532.84 70.59 532.97 70.51 533.12 70.24C533.01 70.31 532.93 70.34 532.86 70.36C532.89 70.34 532.9 70.32 532.94 70.29C532.73 70.26 532.64 70.37 532.64 70.46C532.59 70.5 532.53 70.55 532.45 70.64C532.78 70.18 532.14 70.32 532.7 69.85C532.28 69.59 531.49 69.7999 531.03 69.6899C531.29 69.4199 531.61 69.28 531.79 69.28L531.51 69.16C531.93 68.82 531.85 69.09 531.98 69.08C532.45 68.28 530.89 69.1101 531.26 68.3101L530.88 68.52L530.92 68.46C530.75 68.6 530.46 68.73 530.37 68.73C530.7 68.39 531.2 68.05 531.06 67.92C531.31 67.52 530.62 67.74 530.3 67.75C530.3 67.88 530.09 68.02 529.93 68.09C529.86 68.03 530.18 67.69 529.98 67.76L530.46 67.35C530.03 67.76 529.81 67.57 529.59 67.71C529.91 67.37 529.99 67.56 530.28 67.36C529.99 67.11 530.14 67.23 529.85 66.98C529.36 67.13 529.42 67.39 528.93 67.67C528.72 67.61 528.28 67.77 528.44 67.37L528.05 67.78C527.5 67.81 527.43 67.62 527.71 67.08C525.18 67.63 523.93 68.56 523.29 69.33C522.66 70.11 522.64 70.73 522.64 70.73C522.31 72.24 523.86 71.55 524.91 72.13L524.89 72.14Z" fill="#20BB65"/>
<path d="M556.73 110.6L556.551 110.76C556.651 110.72 556.73 110.66 556.73 110.6Z" fill="#20BB65"/>
<path d="M549.75 112.62C549.89 113.63 548.981 114.3 549.791 115.06C549.891 115.54 550.32 115.92 550.62 116.31C551.49 116.2 550.87 116.88 551.62 116.86L551.21 117.14C551.47 117.14 551.66 117.17 551.46 117.36L551.33 117.41C551.72 117.41 551.571 117.63 551.771 117.62L551.641 117.67L551.761 117.8L551.561 117.85C552.011 117.93 552.121 118.15 552.041 118.42L552.57 118.19C552.13 118.86 553.32 118.58 552.75 119.25L552.62 119.3C554.24 119.25 551.95 120.46 553.5 120.45C553.31 120.45 553.23 120.58 553.1 120.63C553.34 120.81 553.52 121.03 554.59 120.63C554.64 120.81 554.311 120.9 553.911 121.07C554.381 120.89 554.63 120.97 554.71 121.1H554.511L554.811 121.43L555.671 121.03C555.491 121.33 554.611 121.48 554.901 121.6L555.63 121.33C555.59 121.67 554.54 122.24 554.1 122.72C554.2 123.97 556.51 124.55 555.58 126.07L555.041 126.31C554.231 126.61 556.34 126.2 555.61 126.49H556.021C555.891 126.57 555.761 126.7 555.551 126.7C555.551 126.83 555.69 126.78 555.96 126.78L555.5 127.07C555.26 127.66 556.37 127.72 556.32 128.27C555.47 129.18 556.771 129.96 557.521 130.42C559.031 130.94 556.07 132.96 557.74 133.44C557.63 133.5 557.921 133.5 558.011 133.48L558.141 134.35C558.141 134.35 558.351 135.38 559.301 135.8C560.251 136.21 561.96 136.04 564.94 133.48L565.12 133.45C565.43 132.85 565.431 132.52 564.431 132.46C565.521 132.09 564.431 132.04 564.761 131.82L564.85 131.8C563.91 131.76 565.381 131 564.541 130.94C564.631 130.92 564.94 130.84 564.97 130.9C564.77 130.74 564.44 130.53 565.08 130.33C564.76 129.9 564.86 129.13 563.74 129.13L563.921 129.1C563.171 129.14 563.75 128.9 563.33 128.82C563.41 128.78 563.45 128.76 563.49 128.75C562.75 128.77 563.21 128.22 562.87 128.16L563.291 128.02L563.07 127.67L563.021 127.84C561.841 128.16 563.66 127.32 562.82 127.28C562.88 126.97 560.23 127.54 560.71 127.09C560.12 127.14 561.631 126.91 561.151 126.86C561.761 126.66 561.561 126.82 562.031 126.62C561.681 126.53 562.55 126.11 562.07 126.01L562.541 125.85C561.581 125.83 562.97 125.08 562.08 125.15C561.59 124.97 563.41 124.47 562.38 124.46L562.98 124.12C563.04 123.95 562.171 124.28 562.421 124.03C562.821 123.9 562.67 123.73 563.09 123.69C563.6 123.13 561.96 123.29 562.86 122.47C562.05 122.64 562.43 122.25 561.82 122.38C562.16 122.25 561.711 121.9 562.541 121.9C562.611 121.9 562.61 121.94 562.48 121.99L562.95 121.86C563.73 121.29 562.3 121.55 562.35 121.25C562.22 121.38 562.3 121.47 561.96 121.51L561.94 121.25L562.35 121.16L562.45 120.72L561.99 120.94C562.17 120.68 562.97 120.32 562.22 120.37C561.81 120.42 561.631 120.77 561.421 120.64C561.661 120.29 562.031 119.76 562.061 119.41C561.531 119.63 561.52 119.55 561.38 119.51L561.84 119.33C561.08 119.25 562.83 118.84 562.19 118.71L562.531 118.62L561.521 118.9C560.491 118.96 562.431 118.39 561.051 118.54C561.181 118.63 560.04 118.98 560.19 118.75L560.651 118.62C560.521 118.57 560.321 118.62 560.401 118.52C560.661 118.48 561.06 118.3 560.94 118.21L561.531 118.08L560.61 118.16C561.02 117.8 560.311 117.74 560.921 117.43C560.921 117.43 561.08 116.92 560.36 117.1C560.82 117.01 560.901 116.74 561.431 116.6C560.911 116.68 560.39 116.54 560.86 116.22H560.931C561.291 115.57 559.911 115.75 560.401 115.11C559.871 115.34 560.081 115.02 559.411 115.34C558.571 115.21 560.51 114.05 558.33 114.75C558.14 114.61 558.741 114.33 558.811 114.19H558.94C558.63 113.91 558.571 113.82 558.511 113.55C558.251 113.51 557.261 113.89 557.411 113.56C557.831 113.47 557.721 113.41 557.681 113.33C557.761 113.36 557.91 113.32 558.13 113.1C558 113.13 557.92 113.14 557.85 113.14C557.88 113.13 557.9 113.11 557.94 113.1C557.74 113.01 557.63 113.09 557.61 113.18C557.55 113.2 557.48 113.24 557.38 113.3C557.82 112.95 557.18 112.91 557.84 112.61C557.51 112.25 556.691 112.23 556.281 111.99C556.611 111.81 556.95 111.76 557.12 111.81L556.891 111.61C557.381 111.4 557.24 111.63 557.37 111.67C558.04 111.03 556.311 111.39 556.891 110.73L556.47 110.82L556.531 110.77C556.321 110.86 556.011 110.9 555.921 110.88C556.331 110.65 556.911 110.46 556.811 110.3C557.171 109.98 556.43 110 556.13 109.92C556.1 110.05 555.851 110.12 555.681 110.14C555.631 110.06 556.03 109.82 555.82 109.84L556.391 109.58C555.861 109.85 555.7 109.61 555.45 109.68C555.86 109.44 555.88 109.65 556.21 109.53C556 109.21 556.111 109.37 555.901 109.05C555.381 109.05 555.37 109.32 554.83 109.46C554.65 109.35 554.18 109.37 554.44 109.03L553.96 109.32C553.43 109.2 553.41 108.99 553.83 108.56C551.25 108.38 549.79 108.92 548.96 109.49C548.13 110.06 547.95 110.66 547.95 110.66C547.21 112.02 548.89 111.79 549.74 112.64L549.75 112.62Z" fill="#20BB65"/>
<path d="M570.1 158.26L569.88 158.37C569.99 158.35 570.07 158.32 570.1 158.26Z" fill="#20BB65"/>
<path d="M572.05 177.5C572.05 177.5 572.08 177.5 572.1 177.52C572.08 177.51 572.06 177.5 572.05 177.5Z" fill="#20BB65"/>
<path d="M562.74 162.22C562.74 162.22 562.7 162.21 562.68 162.2L562.74 162.22Z" fill="#20BB65"/>
<path d="M562.84 158.42C562.71 159.44 561.67 159.85 562.25 160.79C562.23 161.28 562.54 161.76 562.74 162.22C563.61 162.33 562.83 162.84 563.57 163.01L563.11 163.17C563.36 163.23 563.54 163.32 563.29 163.44H563.15C563.53 163.54 563.33 163.72 563.52 163.77H563.38L563.46 163.94H563.26C563.67 164.13 563.73 164.37 563.58 164.61L564.15 164.52C563.56 165.06 564.77 165.09 564.06 165.6H563.92C565.5 165.97 562.98 166.56 564.48 166.95C564.29 166.9 564.19 167.01 564.05 167.02C564.24 167.25 564.36 167.51 565.49 167.4C565.49 167.59 565.15 167.59 564.72 167.65C565.22 167.6 565.44 167.74 565.49 167.88L565.29 167.83L565.5 168.23L566.43 168.06C566.18 168.31 565.29 168.23 565.54 168.42L566.32 168.34C566.2 168.66 565.03 168.95 564.49 169.29C564.27 170.52 566.36 171.67 565.08 172.91L564.5 173C563.65 173.08 565.79 173.22 565 173.32L565.4 173.42C565.25 173.47 565.09 173.56 564.89 173.51C564.86 173.63 565.01 173.63 565.27 173.7L564.75 173.87C564.37 174.38 565.42 174.72 565.25 175.24C564.2 175.91 565.27 176.99 565.87 177.63C567.2 178.51 563.83 179.72 565.32 180.61C565.2 180.64 565.47 180.72 565.57 180.71L565.47 181.58C565.47 181.58 565.42 182.63 566.23 183.27C567.05 183.9 568.75 184.17 572.27 182.44L572.46 182.46C572.91 181.96 573 181.64 572.05 181.33C573.2 181.24 572.16 180.92 572.53 180.8H572.62C571.72 180.54 573.34 180.16 572.53 179.9C572.62 179.9 572.94 179.9 572.96 179.97C572.81 179.76 572.54 179.48 573.21 179.44C573.01 178.94 573.3 178.22 572.21 177.94H572.4C571.67 177.8 572.28 177.72 571.9 177.53C571.99 177.51 572.03 177.5 572.07 177.5C571.35 177.33 571.93 176.92 571.62 176.78L572.06 176.75L571.94 176.36L571.85 176.51C570.62 176.52 572.6 176.17 571.79 175.92C571.93 175.64 569.22 175.52 569.8 175.21C569.22 175.11 570.74 175.27 570.28 175.1C570.92 175.06 570.69 175.17 571.19 175.09C570.88 174.91 571.82 174.73 571.38 174.51L571.88 174.47C570.95 174.21 572.49 173.83 571.61 173.68C571.18 173.38 573.07 173.36 572.08 173.09L572.74 172.91C572.84 172.76 571.91 172.86 572.22 172.68C572.64 172.66 572.54 172.45 572.95 172.52C573.58 172.1 571.96 171.85 573.04 171.28C572.21 171.24 572.68 170.96 572.06 170.93C572.42 170.89 572.08 170.44 572.88 170.65C572.95 170.67 572.94 170.71 572.8 170.72H573.29C574.19 170.36 572.74 170.25 572.86 169.97C572.71 170.06 572.76 170.17 572.42 170.13L572.46 169.87L572.88 169.89L573.09 169.49L572.59 169.59C572.83 169.38 573.69 169.24 572.95 169.1C572.54 169.04 572.28 169.34 572.11 169.16C572.43 168.88 572.92 168.47 573.04 168.14C572.47 168.22 572.48 168.14 572.36 168.06L572.85 168C572.13 167.73 573.93 167.77 573.35 167.49H573.7H572.66C571.65 167.29 573.67 167.23 572.3 167.03C572.4 167.15 571.21 167.2 571.41 167.02H571.89C571.78 166.93 571.58 166.92 571.67 166.85C571.93 166.88 572.37 166.81 572.27 166.68L572.88 166.71L571.97 166.55C572.46 166.31 571.79 166.07 572.45 165.92C572.45 165.92 572.74 165.47 571.99 165.46C572.46 165.49 572.61 165.25 573.15 165.25C572.62 165.2 572.16 164.93 572.7 164.74L572.77 164.76C573.28 164.23 571.91 164.05 572.54 163.55C571.97 163.64 572.26 163.38 571.53 163.52C570.75 163.18 572.92 162.55 570.64 162.67C570.49 162.49 571.14 162.37 571.25 162.26L571.38 162.29C571.15 161.95 571.12 161.84 571.13 161.56C570.89 161.45 569.84 161.56 570.06 161.29C570.49 161.31 570.4 161.22 570.39 161.13C570.46 161.18 570.62 161.18 570.88 161.02C570.75 161.02 570.67 161 570.6 160.99C570.63 160.99 570.66 160.98 570.7 160.97C570.53 160.84 570.41 160.88 570.36 160.96C570.3 160.96 570.21 160.98 570.1 161.02C570.62 160.79 570 160.59 570.72 160.47C570.49 160.03 569.71 159.81 569.37 159.47C569.73 159.38 570.07 159.42 570.23 159.51L570.06 159.26C570.59 159.19 570.39 159.37 570.51 159.44C571.32 159 569.56 158.9 570.29 158.41L569.86 158.39L569.93 158.36C569.71 158.39 569.39 158.36 569.31 158.31C569.76 158.19 570.38 158.16 570.32 157.97C570.74 157.76 570.03 157.59 569.76 157.43C569.7 157.55 569.44 157.55 569.27 157.53C569.24 157.44 569.69 157.32 569.48 157.28L570.1 157.18C569.52 157.31 569.43 157.03 569.17 157.04C569.62 156.92 569.59 157.12 569.94 157.09C569.82 156.73 569.88 156.91 569.77 156.55C569.27 156.43 569.19 156.68 568.63 156.67C568.48 156.51 568.02 156.41 568.36 156.15L567.82 156.3C567.34 156.04 567.37 155.84 567.89 155.53C565.44 154.69 563.89 154.83 562.95 155.17C562.01 155.51 561.67 156.04 561.67 156.04C560.6 157.16 562.29 157.38 562.89 158.42H562.84Z" fill="#20BB65"/>
<path d="M570.91 207.77L570.67 207.82C570.78 207.83 570.87 207.82 570.91 207.77Z" fill="#20BB65"/>
<path d="M567.15 226.93C567.15 226.93 567.18 226.95 567.19 226.96C567.18 226.94 567.16 226.93 567.15 226.93Z" fill="#20BB65"/>
<path d="M562.75 209.6C562.75 209.6 562.72 209.58 562.69 209.57L562.74 209.6H562.75Z" fill="#20BB65"/>
<path d="M563.87 205.99C563.48 206.93 562.37 207.05 562.67 208.1C562.52 208.56 562.7 209.11 562.76 209.59C563.56 209.93 562.68 210.2 563.34 210.57L562.85 210.6C563.08 210.73 563.22 210.86 562.95 210.91L562.81 210.88C563.15 211.07 562.91 211.19 563.08 211.28L562.94 211.25L562.97 211.42L562.78 211.36C563.12 211.65 563.11 211.9 562.9 212.09L563.48 212.17C562.76 212.52 563.93 212.89 563.1 213.17L562.96 213.14C564.38 213.93 561.79 213.78 563.12 214.57C562.95 214.47 562.82 214.54 562.68 214.51C562.8 214.79 562.83 215.06 563.95 215.28C563.9 215.46 563.57 215.36 563.13 215.3C563.62 215.39 563.79 215.59 563.8 215.73L563.62 215.63L563.71 216.07L564.65 216.17C564.34 216.33 563.51 216 563.7 216.25L564.47 216.4C564.26 216.67 563.07 216.61 562.44 216.78C561.87 217.88 563.54 219.58 561.94 220.36L561.36 220.27C560.52 220.09 562.52 220.86 561.74 220.72L562.09 220.94C561.93 220.94 561.75 220.97 561.58 220.87C561.52 220.98 561.65 221.01 561.89 221.16H561.34C560.83 221.51 561.72 222.15 561.39 222.58C560.19 222.88 560.85 224.2 561.23 224.99C562.19 226.25 558.63 226.23 559.73 227.54C559.61 227.53 559.84 227.69 559.93 227.72L559.54 228.47C559.54 228.47 559.13 229.4 559.66 230.27C560.2 231.13 561.65 232.07 565.58 231.72L565.75 231.81C566.36 231.49 566.55 231.21 565.78 230.57C566.89 230.9 566.03 230.22 566.42 230.23L566.51 230.27C565.77 229.7 567.41 229.9 566.75 229.36C566.83 229.4 567.13 229.5 567.13 229.58C567.06 229.33 566.91 228.97 567.55 229.16C567.55 228.61 568.05 228 567.12 227.38L567.29 227.46C566.65 227.07 567.26 227.2 566.97 226.89C567.06 226.9 567.11 226.9 567.14 226.92C566.51 226.52 567.2 226.32 566.95 226.07L567.38 226.18V225.76L567.26 225.88C566.1 225.5 568.08 225.79 567.4 225.3C567.63 225.07 565.09 224.1 565.74 223.99C565.22 223.71 566.61 224.34 566.23 224.04C566.85 224.2 566.59 224.23 567.1 224.31C566.86 224.04 567.81 224.16 567.46 223.81L567.94 223.93C567.14 223.39 568.73 223.51 567.94 223.08C567.62 222.66 569.43 223.22 568.56 222.65L569.25 222.68C569.39 222.56 568.47 222.38 568.83 222.3C569.24 222.41 569.21 222.18 569.58 222.37C570.32 222.16 568.84 221.42 570.04 221.19C569.26 220.9 569.79 220.77 569.21 220.56C569.56 220.63 569.38 220.09 570.08 220.53C570.14 220.57 570.12 220.61 569.98 220.57L570.45 220.71C571.41 220.63 570.07 220.1 570.26 219.86C570.08 219.91 570.1 220.02 569.79 219.88L569.91 219.64L570.3 219.78L570.61 219.45L570.1 219.4C570.39 219.27 571.26 219.38 570.59 219.03C570.22 218.85 569.88 219.06 569.77 218.84C570.16 218.67 570.75 218.4 570.96 218.12C570.39 218.04 570.43 217.96 570.33 217.85L570.82 217.94C570.21 217.47 571.92 218.03 571.44 217.59L571.78 217.69L570.78 217.4C569.87 216.91 571.83 217.43 570.57 216.85C570.63 217 569.48 216.7 569.72 216.59L570.18 216.72C570.1 216.61 569.91 216.55 570.02 216.5C570.26 216.6 570.7 216.66 570.65 216.51L571.22 216.71L570.4 216.3C570.94 216.2 570.36 215.78 571.04 215.83C571.04 215.83 571.44 215.48 570.73 215.25C571.17 215.41 571.38 215.22 571.9 215.38C571.41 215.18 571.04 214.79 571.61 214.76L571.67 214.79C572.32 214.42 571.04 213.86 571.79 213.55C571.22 213.48 571.56 213.3 570.83 213.24C570.18 212.69 572.44 212.68 570.21 212.17C570.12 211.96 570.77 212.02 570.91 211.94L571.02 212.01C570.89 211.61 570.88 211.5 570.98 211.24C570.78 211.07 569.73 210.89 570.02 210.69C570.43 210.83 570.36 210.72 570.38 210.63C570.44 210.7 570.59 210.74 570.89 210.66C570.76 210.62 570.69 210.59 570.63 210.55C570.66 210.55 570.69 210.55 570.73 210.56C570.61 210.39 570.47 210.39 570.4 210.46C570.34 210.45 570.25 210.44 570.14 210.45C570.7 210.37 570.17 210.01 570.89 210.09C570.79 209.61 570.09 209.18 569.86 208.76C570.24 208.76 570.55 208.9 570.68 209.03L570.58 208.74C571.11 208.81 570.87 208.94 570.96 209.03C571.86 208.82 570.19 208.25 571.03 207.98L570.62 207.85H570.69C570.47 207.81 570.17 207.69 570.11 207.62C570.58 207.62 571.18 207.76 571.17 207.57C571.63 207.48 571 207.12 570.77 206.9C570.68 207 570.43 206.93 570.27 206.87C570.27 206.78 570.73 206.78 570.54 206.68L571.17 206.74C570.58 206.71 570.56 206.42 570.31 206.36C570.78 206.36 570.69 206.55 571.04 206.62C571.03 206.24 571.04 206.43 571.02 206.05C570.57 205.8 570.42 206.02 569.89 205.86C569.79 205.67 569.37 205.45 569.77 205.29H569.21C568.81 204.92 568.9 204.73 569.48 204.57C567.34 203.11 565.8 202.85 564.8 202.93C563.8 203.01 563.34 203.43 563.34 203.43C562.01 204.23 563.59 204.87 563.89 206.03L563.87 205.99Z" fill="#20BB65"/>
<path d="M552.2 253.66L551.97 253.58C552.06 253.64 552.14 253.68 552.2 253.66Z" fill="#20BB65"/>
<path d="M540.51 268.93C540.51 268.93 540.531 268.96 540.541 268.98C540.541 268.96 540.52 268.94 540.51 268.93Z" fill="#20BB65"/>
<path d="M544.161 251.37C544.161 251.37 544.14 251.34 544.12 251.32L544.151 251.37H544.161Z" fill="#20BB65"/>
<path d="M546.91 248.69C546.1 249.33 545.06 248.9 544.82 249.99C544.46 250.33 544.35 250.9 544.17 251.37C544.71 252.06 543.81 251.88 544.21 252.52L543.76 252.32C543.9 252.54 543.96 252.72 543.7 252.64L543.59 252.55C543.8 252.88 543.53 252.87 543.63 253.04L543.52 252.95L543.47 253.12L543.33 252.98C543.49 253.4 543.36 253.62 543.09 253.69L543.561 254.02C542.761 254.01 543.61 254.87 542.74 254.74L542.63 254.65C543.53 256.01 541.29 254.69 542.11 256.02C542.01 255.85 541.85 255.86 541.75 255.77C541.73 256.07 541.63 256.34 542.53 257.04C542.4 257.18 542.15 256.94 541.79 256.69C542.19 256.99 542.25 257.25 542.19 257.38L542.08 257.21L541.96 257.64L542.76 258.15C542.41 258.15 541.81 257.49 541.87 257.8L542.49 258.28C542.18 258.43 541.13 257.85 540.5 257.73C539.49 258.49 540.24 260.76 538.44 260.8L537.95 260.47C537.27 259.95 538.75 261.51 538.1 261.05L538.32 261.4C538.18 261.33 538 261.29 537.89 261.12C537.79 261.19 537.89 261.28 538.04 261.52L537.54 261.29C536.91 261.41 537.46 262.37 536.98 262.64C535.75 262.43 535.8 263.95 535.83 264.84C536.22 266.38 532.9 265.04 533.42 266.7C533.31 266.65 533.46 266.88 533.54 266.95L532.88 267.54C532.88 267.54 532.13 268.29 532.32 269.32C532.51 270.34 533.61 271.66 537.38 272.71L537.51 272.85C538.18 272.77 538.45 272.6 537.95 271.73C538.86 272.43 538.3 271.5 538.66 271.65L538.72 271.72C538.23 270.92 539.68 271.72 539.26 270.99C539.32 271.06 539.56 271.27 539.53 271.33C539.55 271.07 539.54 270.69 540.07 271.11C540.26 270.61 540.95 270.27 540.32 269.34L540.45 269.48C540.01 268.88 540.52 269.23 540.36 268.84C540.43 268.89 540.48 268.9 540.51 268.93C540.08 268.32 540.79 268.41 540.66 268.09L541.01 268.36L541.18 267.99L541.01 268.04C540.09 267.23 541.79 268.29 541.36 267.57C541.65 267.46 539.73 265.54 540.37 265.71C540.01 265.25 541.02 266.39 540.8 265.96C541.3 266.36 541.05 266.28 541.48 266.56C541.37 266.22 542.19 266.72 542 266.26L542.39 266.56C541.88 265.74 543.27 266.51 542.73 265.8C542.61 265.29 544.02 266.55 543.47 265.68L544.08 266C544.26 265.95 543.5 265.4 543.86 265.48C544.19 265.75 544.25 265.53 544.51 265.86C545.26 265.99 544.23 264.7 545.41 265.02C544.83 264.43 545.36 264.54 544.92 264.1C545.21 264.31 545.26 263.76 545.71 264.45C545.75 264.51 545.71 264.53 545.6 264.45L545.96 264.78C546.86 265.13 545.87 264.07 546.15 263.95C545.97 263.91 545.94 264.02 545.72 263.76L545.93 263.6L546.22 263.9L546.64 263.75L546.21 263.48C546.53 263.5 547.251 263.98 546.811 263.37C546.551 263.05 546.16 263.08 546.15 262.83C546.57 262.85 547.21 262.88 547.52 262.73C547.05 262.4 547.12 262.35 547.08 262.21L547.48 262.51C547.14 261.82 548.42 263.08 548.19 262.49L548.45 262.73L547.68 262.03C547.08 261.19 548.6 262.53 547.73 261.45C547.72 261.61 546.82 260.83 547.09 260.83L547.45 261.16C547.42 261.03 547.28 260.88 547.4 260.9C547.57 261.1 547.94 261.35 547.95 261.19L548.37 261.63L547.82 260.9C548.35 261.06 548.02 260.43 548.6 260.78C548.6 260.78 549.11 260.65 548.58 260.13C548.9 260.47 549.17 260.4 549.57 260.78C549.22 260.38 549.07 259.87 549.59 260.11L549.63 260.17C550.36 260.14 549.49 259.07 550.29 259.15C549.82 258.82 550.2 258.83 549.58 258.43C549.25 257.65 551.25 258.7 549.52 257.21C549.54 256.98 550.09 257.34 550.24 257.33L550.311 257.44C550.381 257.03 550.43 256.94 550.63 256.75C550.53 256.51 549.69 255.86 550.04 255.82C550.33 256.13 550.33 256.01 550.38 255.93C550.4 256.02 550.511 256.12 550.811 256.19C550.711 256.1 550.67 256.03 550.63 255.97C550.66 255.99 550.68 256 550.72 256.03C550.69 255.82 550.57 255.76 550.48 255.78C550.43 255.74 550.36 255.69 550.25 255.64C550.78 255.84 550.48 255.26 551.08 255.68C551.22 255.21 550.81 254.51 550.8 254.03C551.13 254.22 551.34 254.48 551.39 254.66L551.44 254.36C551.87 254.68 551.6 254.67 551.63 254.8C552.52 255.05 551.32 253.75 552.19 253.92L551.89 253.61L551.96 253.63C551.78 253.5 551.581 253.25 551.561 253.16C551.971 253.39 552.43 253.8 552.52 253.63C552.97 253.78 552.58 253.16 552.49 252.85C552.37 252.89 552.17 252.71 552.07 252.58C552.11 252.5 552.52 252.73 552.4 252.55L552.92 252.91C552.42 252.59 552.54 252.34 552.35 252.16C552.76 252.39 552.59 252.51 552.86 252.74C553.03 252.4 552.95 252.57 553.12 252.23C552.85 251.79 552.62 251.91 552.22 251.51C552.22 251.3 551.97 250.9 552.39 250.96L551.9 250.69C551.74 250.17 551.9 250.05 552.49 250.2C550.2 245.57 547.72 246.17 547.72 246.17C546.16 246.22 547.2 247.57 546.89 248.74L546.91 248.69Z" fill="#20BB65"/>
<path d="M520.07 291.06L519.85 290.95C519.93 291.03 520 291.08 520.07 291.06Z" fill="#20BB65"/>
<path d="M505.7 303.96C505.7 303.96 505.71 303.99 505.72 304.01C505.72 303.99 505.72 303.97 505.7 303.96Z" fill="#20BB65"/>
<path d="M512.541 287.41C512.541 287.41 512.52 287.37 512.51 287.35L512.531 287.41H512.541Z" fill="#20BB65"/>
<path d="M515.7 285.26C514.8 285.75 513.851 285.15 513.421 286.17C513.011 286.44 512.801 286.98 512.551 287.4C512.971 288.17 512.1 287.84 512.39 288.54L511.99 288.26C512.09 288.5 512.12 288.69 511.88 288.57L511.791 288.46C511.941 288.82 511.68 288.77 511.75 288.95L511.661 288.84L511.58 289L511.47 288.83C511.56 289.28 511.39 289.47 511.11 289.48L511.521 289.89C510.741 289.73 511.42 290.73 510.59 290.45L510.5 290.34C511.14 291.83 509.18 290.14 509.74 291.58C509.67 291.4 509.521 291.38 509.431 291.27C509.351 291.56 509.21 291.81 509.97 292.66C509.82 292.77 509.621 292.5 509.311 292.18C509.641 292.55 509.66 292.81 509.58 292.93L509.5 292.74L509.301 293.14L509.99 293.79C509.64 293.73 509.181 292.97 509.181 293.28L509.7 293.86C509.37 293.95 508.45 293.18 507.85 292.94C506.72 293.49 507.031 295.86 505.271 295.56L504.85 295.15C504.28 294.51 505.44 296.32 504.89 295.74L505.041 296.12C504.911 296.03 504.751 295.95 504.671 295.76C504.561 295.81 504.64 295.92 504.74 296.18L504.301 295.86C503.671 295.86 504.02 296.91 503.49 297.07C502.32 296.62 502.09 298.12 501.94 298.99C502.02 300.58 499.04 298.59 499.21 300.32C499.11 300.24 499.211 300.51 499.281 300.58L498.521 301.02C498.521 301.02 497.64 301.6 497.61 302.64C497.59 303.68 498.39 305.2 501.87 307L501.97 307.16C502.64 307.22 502.95 307.1 502.63 306.15C503.38 307.02 503.02 305.99 503.34 306.22L503.39 306.3C503.08 305.42 504.34 306.5 504.07 305.69C504.12 305.77 504.311 306.02 504.271 306.08C504.341 305.83 504.41 305.45 504.84 305.97C505.12 305.52 505.87 305.32 505.45 304.28L505.551 304.44C505.241 303.76 505.67 304.21 505.59 303.79C505.65 303.85 505.69 303.88 505.72 303.91C505.42 303.23 506.101 303.45 506.031 303.12L506.32 303.46L506.561 303.13L506.38 303.15C505.64 302.17 507.1 303.55 506.82 302.75C507.13 302.7 505.62 300.44 506.21 300.73C505.95 300.21 506.72 301.52 506.59 301.05C507 301.54 506.77 301.42 507.14 301.78C507.1 301.42 507.81 302.08 507.71 301.59L508.041 301.97C507.701 301.07 508.921 302.09 508.521 301.29C508.501 300.77 509.641 302.28 509.271 301.31L509.811 301.74C509.991 301.73 509.36 301.04 509.69 301.19C509.96 301.52 510.06 301.31 510.25 301.68C510.96 301.94 510.201 300.48 511.301 301.02C510.841 300.33 511.35 300.54 511 300.02C511.24 300.28 511.4 299.74 511.71 300.51C511.73 300.57 511.7 300.59 511.61 300.48L511.911 300.87C512.721 301.39 511.95 300.16 512.25 300.09C512.08 300.02 512.03 300.12 511.86 299.82L512.09 299.7L512.32 300.04L512.76 299.97L512.38 299.62C512.69 299.7 513.31 300.3 512.99 299.62C512.79 299.26 512.41 299.22 512.45 298.97C512.86 299.07 513.49 299.21 513.82 299.12C513.42 298.71 513.49 298.67 513.48 298.52L513.82 298.89C513.61 298.15 514.641 299.63 514.521 298.99L514.73 299.27L514.1 298.44C513.67 297.51 514.91 299.1 514.26 297.88C514.22 298.03 513.48 297.1 513.75 297.16L514.041 297.55C514.041 297.41 513.931 297.25 514.041 297.28C514.171 297.51 514.491 297.82 514.531 297.67L514.87 298.18L514.46 297.36C514.95 297.61 514.74 296.93 515.25 297.38C515.25 297.38 515.78 297.35 515.35 296.74C515.6 297.14 515.89 297.11 516.2 297.56C515.93 297.1 515.87 296.57 516.34 296.9L516.36 296.96C517.09 297.06 516.42 295.85 517.2 296.07C516.79 295.66 517.17 295.74 516.63 295.23C516.45 294.4 518.231 295.79 516.791 294.01C516.851 293.79 517.33 294.24 517.48 294.26L517.531 294.38C517.671 293.99 517.74 293.9 517.97 293.75C517.92 293.49 517.201 292.71 517.561 292.73C517.791 293.09 517.81 292.97 517.88 292.9C517.88 292.99 517.98 293.11 518.26 293.24C518.18 293.13 518.15 293.06 518.12 292.99C518.14 293.01 518.16 293.03 518.19 293.06C518.19 292.85 518.09 292.77 518 292.78C517.96 292.73 517.901 292.68 517.801 292.6C518.291 292.89 518.09 292.27 518.61 292.78C518.83 292.34 518.55 291.58 518.63 291.11C518.92 291.35 519.08 291.65 519.1 291.83L519.2 291.54C519.57 291.93 519.3 291.87 519.32 292.01C520.15 292.41 519.201 290.92 520.021 291.23L519.781 290.87L519.85 290.9C519.69 290.74 519.541 290.46 519.531 290.37C519.891 290.67 520.28 291.15 520.39 290.99C520.81 291.21 520.53 290.53 520.5 290.22C520.37 290.24 520.21 290.03 520.13 289.88C520.19 289.8 520.55 290.1 520.46 289.91L520.911 290.36C520.471 289.96 520.64 289.73 520.48 289.52C520.84 289.82 520.66 289.91 520.89 290.18C521.12 289.88 521 290.03 521.23 289.72C521.04 289.24 520.79 289.32 520.47 288.86C520.51 288.65 520.32 288.22 520.73 288.34L520.291 287.99C520.221 287.45 520.4 287.36 520.96 287.6C520.22 285.12 519.2 283.94 518.38 283.36C517.56 282.79 516.931 282.82 516.931 282.82C515.391 282.61 516.2 284.1 515.69 285.21L515.7 285.26Z" fill="#20BB65"/>
<path d="M480.811 321.15L480.63 320.99C480.68 321.08 480.751 321.15 480.811 321.15Z" fill="#20BB65"/>
<path d="M474.391 315.78C474.391 315.78 474.39 315.74 474.38 315.72V315.78H474.391Z" fill="#20BB65"/>
<path d="M477.95 314.47C476.96 314.73 476.191 313.91 475.531 314.8C475.071 314.96 474.741 315.43 474.391 315.78C474.611 316.63 473.85 316.09 473.96 316.84L473.641 316.47C473.681 316.73 473.66 316.92 473.46 316.74L473.401 316.62C473.451 317 473.211 316.89 473.241 317.08L473.181 316.95L473.061 317.08L472.991 316.89C472.961 317.34 472.76 317.48 472.48 317.43L472.771 317.93C472.051 317.58 472.471 318.72 471.741 318.24L471.681 318.11C471.931 319.72 470.451 317.58 470.641 319.12C470.621 318.93 470.481 318.87 470.421 318.74C470.271 319 470.07 319.21 470.6 320.22C470.43 320.29 470.3 319.97 470.08 319.59C470.31 320.03 470.261 320.29 470.151 320.39L470.121 320.19L469.83 320.53L470.33 321.33C470.01 321.19 469.761 320.33 469.671 320.63L470.031 321.32C469.691 321.32 468.99 320.35 468.47 319.96C467.24 320.21 466.94 322.57 465.32 321.82L465.021 321.31C464.631 320.54 465.291 322.59 464.911 321.89L464.96 322.3C464.86 322.18 464.72 322.06 464.7 321.86C464.58 321.88 464.631 322.01 464.661 322.28L464.311 321.85C463.701 321.68 463.77 322.79 463.22 322.81C462.21 322.07 461.6 323.45 461.23 324.25C460.89 325.81 458.551 323.09 458.261 324.81C458.181 324.71 458.221 324.99 458.261 325.08L457.411 325.3C457.411 325.3 456.41 325.62 456.11 326.61C455.81 327.6 456.171 329.28 459.041 331.96L459.09 332.14C459.72 332.38 460.051 332.35 460.001 331.35C460.491 332.39 460.421 331.3 460.671 331.6L460.7 331.69C460.63 330.76 461.561 332.13 461.521 331.28C461.551 331.37 461.66 331.66 461.61 331.71C461.75 331.49 461.91 331.14 462.19 331.75C462.59 331.39 463.36 331.39 463.23 330.28L463.281 330.46C463.161 329.72 463.461 330.26 463.501 329.85C463.551 329.93 463.58 329.96 463.59 330C463.48 329.27 464.08 329.66 464.1 329.32L464.291 329.72L464.61 329.46L464.431 329.43C463.981 328.29 465.02 330.01 464.96 329.16C465.27 329.19 464.401 326.62 464.911 327.05C464.791 326.47 465.19 327.95 465.19 327.46C465.46 328.04 465.271 327.86 465.531 328.3C465.581 327.94 466.101 328.76 466.141 328.27L466.36 328.72C466.26 327.76 467.181 329.06 467.001 328.18C467.121 327.67 467.83 329.42 467.72 328.4L468.131 328.95C468.311 328.99 467.871 328.16 468.161 328.39C468.331 328.78 468.49 328.61 468.58 329.01C469.2 329.45 468.851 327.84 469.771 328.64C469.501 327.85 469.941 328.19 469.741 327.6C469.911 327.92 470.201 327.44 470.301 328.26C470.301 328.33 470.26 328.34 470.21 328.21L470.401 328.66C471.061 329.37 470.63 327.98 470.94 327.99C470.8 327.88 470.721 327.97 470.631 327.63L470.891 327.58L471.031 327.97L471.48 328.02L471.21 327.59C471.49 327.74 471.941 328.49 471.801 327.75C471.701 327.35 471.34 327.21 471.44 326.98C471.82 327.18 472.381 327.48 472.741 327.47C472.451 326.97 472.541 326.95 472.561 326.81L472.791 327.25C472.781 326.48 473.4 328.17 473.45 327.53L473.58 327.85L473.181 326.88C473.001 325.87 473.8 327.73 473.48 326.37C473.4 326.51 472.921 325.42 473.161 325.54L473.34 325.99C473.37 325.86 473.311 325.67 473.411 325.73C473.481 325.98 473.711 326.36 473.791 326.23L473.991 326.81L473.801 325.91C474.211 326.28 474.18 325.56 474.57 326.13C474.57 326.13 475.09 326.23 474.83 325.53C474.97 325.98 475.26 326.03 475.45 326.53C475.3 326.02 475.381 325.49 475.761 325.92V325.99C476.451 326.27 476.111 324.92 476.811 325.33C476.521 324.83 476.86 325 476.46 324.38C476.49 323.53 477.881 325.32 476.921 323.24C477.031 323.04 477.381 323.6 477.531 323.65L477.551 323.78C477.791 323.44 477.871 323.37 478.141 323.28C478.151 323.02 477.651 322.08 477.991 322.18C478.131 322.59 478.181 322.47 478.261 322.42C478.241 322.51 478.301 322.65 478.541 322.84C478.491 322.72 478.47 322.63 478.46 322.56C478.48 322.59 478.491 322.61 478.511 322.65C478.571 322.44 478.481 322.34 478.391 322.33C478.361 322.27 478.321 322.2 478.241 322.11C478.651 322.51 478.61 321.86 478.98 322.48C479.3 322.11 479.221 321.3 479.411 320.86C479.631 321.16 479.72 321.49 479.69 321.67L479.86 321.42C480.13 321.89 479.88 321.77 479.86 321.9C480.57 322.49 480.01 320.82 480.73 321.31L480.59 320.9L480.641 320.95C480.531 320.76 480.45 320.45 480.46 320.36C480.74 320.74 481.001 321.29 481.151 321.17C481.511 321.49 481.4 320.76 481.44 320.45C481.31 320.44 481.211 320.19 481.161 320.03C481.231 319.97 481.52 320.34 481.48 320.13L481.811 320.67C481.481 320.18 481.7 319.99 481.59 319.75C481.87 320.12 481.67 320.17 481.83 320.49C482.12 320.25 481.981 320.37 482.271 320.13C482.201 319.62 481.93 319.64 481.73 319.11C481.82 318.91 481.74 318.45 482.11 318.67L481.771 318.22C481.831 317.68 482.031 317.63 482.511 318C482.381 315.42 481.661 314.03 481.001 313.28C480.341 312.53 479.72 312.42 479.72 312.42C478.28 311.85 478.71 313.49 477.97 314.43L477.95 314.47Z" fill="#20BB65"/>
<path d="M434.85 339.67L434.72 339.46C434.75 339.56 434.79 339.65 434.85 339.67Z" fill="#20BB65"/>
<path d="M415.83 343.3C415.83 343.3 415.83 343.33 415.82 343.35C415.83 343.33 415.83 343.31 415.83 343.3Z" fill="#20BB65"/>
<path d="M434.02 332.46C433 332.43 432.49 331.42 431.61 332.09C431.12 332.11 430.67 332.47 430.24 332.7C430.21 333.58 429.64 332.85 429.53 333.6L429.33 333.15C429.29 333.41 429.22 333.59 429.08 333.36L429.061 333.22C429.001 333.6 428.81 333.43 428.78 333.62L428.76 333.48L428.61 333.58V333.38C428.44 333.81 428.21 333.88 427.96 333.75L428.1 334.31C427.51 333.77 427.59 334.98 427.02 334.31L427 334.17C426.78 335.78 425.97 333.31 425.72 334.84C425.75 334.65 425.63 334.55 425.61 334.41C425.39 334.62 425.15 334.76 425.36 335.88C425.18 335.9 425.15 335.56 425.04 335.13C425.13 335.62 425.02 335.85 424.88 335.91L424.91 335.71L424.53 335.95L424.78 336.86C424.51 336.63 424.51 335.74 424.35 336L424.5 336.77C424.17 336.67 423.78 335.54 423.39 335.03C422.14 334.92 421.18 337.1 419.84 335.92L419.7 335.35C419.54 334.51 419.59 336.65 419.42 335.88L419.35 336.29C419.29 336.14 419.19 335.99 419.22 335.79C419.09 335.78 419.11 335.91 419.07 336.18L418.86 335.67C418.32 335.33 418.08 336.42 417.54 336.28C416.78 335.29 415.8 336.44 415.22 337.1C414.46 338.5 412.97 335.24 412.2 336.8C412.16 336.68 412.11 336.96 412.12 337.06L411.24 337.04C411.24 337.04 410.19 337.07 409.62 337.94C409.06 338.81 408.94 340.52 410.95 343.89V344.08C411.49 344.48 411.81 344.55 412.04 343.57C412.22 344.71 412.46 343.64 412.61 344V344.09C412.81 343.17 413.31 344.75 413.51 343.93C413.51 344.02 413.54 344.34 413.48 344.36C413.67 344.19 413.93 343.9 414.03 344.56C414.51 344.32 415.25 344.55 415.44 343.44V343.63C415.53 342.89 415.66 343.49 415.82 343.1C415.84 343.19 415.86 343.23 415.87 343.27C415.98 342.54 416.43 343.08 416.55 342.76L416.62 343.2L417 343.04L416.84 342.97C416.72 341.75 417.24 343.69 417.42 342.86C417.71 342.97 417.6 340.26 417.96 340.82C418.01 340.23 417.98 341.76 418.11 341.29C418.21 341.92 418.08 341.7 418.2 342.2C418.35 341.87 418.61 342.8 418.79 342.34L418.87 342.83C419.05 341.88 419.56 343.39 419.64 342.5C419.9 342.04 420.08 343.93 420.27 342.91L420.5 343.55C420.66 343.64 420.48 342.72 420.69 343.02C420.75 343.44 420.95 343.32 420.91 343.73C421.38 344.33 421.5 342.68 422.16 343.71C422.13 342.88 422.451 343.32 422.431 342.7C422.501 343.05 422.92 342.68 422.78 343.49C422.77 343.56 422.72 343.55 422.7 343.41L422.75 343.9C423.18 344.76 423.16 343.31 423.45 343.41C423.34 343.26 423.24 343.33 423.26 342.98L423.52 343L423.54 343.42L423.95 343.59L423.811 343.1C424.041 343.33 424.25 344.17 424.33 343.42C424.35 343.01 424.04 342.77 424.2 342.58C424.5 342.88 424.96 343.33 425.3 343.42C425.17 342.86 425.26 342.87 425.32 342.74L425.42 343.23C425.62 342.49 425.74 344.28 425.97 343.68L426 344.03L425.9 342.99C426.01 341.97 426.25 343.98 426.33 342.59C426.22 342.7 426.06 341.52 426.26 341.71L426.311 342.19C426.381 342.07 426.37 341.87 426.45 341.96C426.45 342.22 426.55 342.65 426.67 342.55L426.7 343.16L426.78 342.24C427.07 342.71 427.24 342.02 427.45 342.67C427.45 342.67 427.92 342.92 427.87 342.17C427.87 342.64 428.141 342.77 428.181 343.31C428.181 342.78 428.41 342.3 428.65 342.82V342.89C429.22 343.35 429.27 341.97 429.83 342.55C429.69 341.99 429.98 342.25 429.77 341.54C430.04 340.74 430.86 342.84 430.54 340.58C430.71 340.42 430.88 341.05 431.01 341.15L430.99 341.28C431.31 341.02 431.41 340.97 431.69 340.97C431.78 340.72 431.57 339.68 431.86 339.88C431.88 340.31 431.96 340.21 432.05 340.19C432.01 340.27 432.02 340.42 432.2 340.67C432.19 340.54 432.2 340.45 432.2 340.38C432.2 340.41 432.22 340.44 432.23 340.48C432.35 340.3 432.29 340.18 432.21 340.14C432.2 340.08 432.18 340 432.13 339.89C432.41 340.39 432.55 339.76 432.73 340.46C433.14 340.19 433.3 339.39 433.6 339.03C433.73 339.38 433.72 339.73 433.64 339.89L433.87 339.69C433.99 340.21 433.79 340.03 433.73 340.15C434.25 340.92 434.18 339.15 434.73 339.84L434.71 339.41L434.75 339.47C434.7 339.25 434.71 338.94 434.75 338.85C434.91 339.29 435.001 339.9 435.181 339.83C435.431 340.23 435.54 339.51 435.67 339.22C435.55 339.17 435.52 338.91 435.52 338.74C435.61 338.7 435.77 339.14 435.79 338.93L435.95 339.54C435.77 338.97 436.03 338.86 436 338.6C436.17 339.04 435.96 339.03 436.02 339.37C436.37 339.22 436.2 339.3 436.55 339.15C436.63 338.64 436.37 338.58 436.33 338.02C436.47 337.86 436.53 337.39 436.82 337.71L436.62 337.19C436.83 336.69 437.04 336.7 437.4 337.19C438.01 334.67 437.71 333.14 437.29 332.23C436.87 331.32 436.311 331.04 436.311 331.04C435.091 330.08 435.041 331.78 434.061 332.47L434.02 332.46Z" fill="#20BB65"/>
<path d="M385.65 344.87L385.58 344.64C385.58 344.75 385.6 344.84 385.65 344.87Z" fill="#20BB65"/>
<path d="M366.39 343.9C366.39 343.9 366.38 343.93 366.37 343.95C366.38 343.93 366.39 343.92 366.39 343.9Z" fill="#20BB65"/>
<path d="M382.91 336.97C382.91 336.97 382.92 336.93 382.93 336.91L382.91 336.97Z" fill="#20BB65"/>
<path d="M386.66 337.68C385.67 337.39 385.43 336.29 384.4 336.72C383.92 336.62 383.39 336.86 382.91 336.98C382.66 337.82 382.28 336.98 381.99 337.67L381.9 337.19C381.8 337.43 381.69 337.59 381.6 337.33V337.19C381.46 337.55 381.31 337.33 381.24 337.51V337.37L381.08 337.43L381.12 337.23C380.87 337.61 380.62 337.62 380.4 337.44V338.02C379.95 337.35 379.73 338.55 379.34 337.76V337.62C378.75 339.13 378.56 336.54 377.94 337.96C378.02 337.78 377.93 337.66 377.94 337.52C377.68 337.67 377.4 337.75 377.34 338.89C377.15 338.87 377.21 338.53 377.21 338.08C377.19 338.58 377.01 338.78 376.87 338.8L376.95 338.61L376.53 338.76L376.56 339.71C376.35 339.43 376.56 338.56 376.34 338.77L376.3 339.55C376 339.38 375.89 338.19 375.63 337.6C374.43 337.19 372.98 339.09 371.94 337.64V337.05C371.97 336.19 371.53 338.29 371.54 337.5L371.38 337.88C371.35 337.72 371.29 337.55 371.37 337.37C371.25 337.33 371.24 337.47 371.13 337.72L371.04 337.18C370.59 336.73 370.1 337.73 369.61 337.47C369.09 336.34 367.86 337.23 367.15 337.75C366.1 338.94 365.34 335.44 364.25 336.8C364.23 336.68 364.12 336.94 364.11 337.04L363.25 336.83C363.25 336.83 362.21 336.64 361.46 337.36C360.72 338.09 360.25 339.74 361.5 343.45L361.46 343.63C361.9 344.14 362.2 344.27 362.63 343.37C362.56 344.52 363.02 343.53 363.09 343.91L363.07 344C363.46 343.15 363.61 344.8 363.98 344.04C363.96 344.13 363.92 344.44 363.85 344.46C364.07 344.34 364.39 344.11 364.34 344.78C364.86 344.65 365.53 345.03 365.95 344L365.91 344.18C366.16 343.48 366.16 344.09 366.39 343.75C366.39 343.84 366.4 343.88 366.39 343.92C366.65 343.23 366.98 343.86 367.17 343.57L367.14 344.01L367.54 343.94L367.4 343.83C367.56 342.61 367.63 344.62 367.99 343.86C368.25 344.04 368.75 341.37 368.97 341.99C369.15 341.43 368.78 342.91 369.01 342.49C368.96 343.13 368.88 342.88 368.89 343.39C369.11 343.1 369.16 344.07 369.43 343.66L369.4 344.16C369.79 343.28 369.94 344.86 370.22 344.01C370.58 343.63 370.32 345.5 370.74 344.55L370.82 345.23C370.96 345.35 370.99 344.42 371.12 344.75C371.08 345.17 371.3 345.1 371.17 345.5C371.49 346.19 371.98 344.61 372.38 345.77C372.54 344.95 372.75 345.46 372.87 344.85C372.86 345.21 373.35 344.94 373.03 345.7C373 345.76 372.96 345.75 372.97 345.61L372.9 346.1C373.11 347.04 373.43 345.63 373.69 345.79C373.62 345.62 373.51 345.66 373.6 345.33L373.85 345.41L373.77 345.82L374.13 346.08L374.11 345.57C374.28 345.84 374.29 346.71 374.54 346C374.66 345.6 374.41 345.3 374.61 345.16C374.83 345.52 375.17 346.07 375.48 346.24C375.48 345.67 375.57 345.69 375.66 345.58L375.64 346.08C376.01 345.41 375.7 347.18 376.06 346.65L376.01 346.99L376.15 345.96C376.5 344.99 376.26 347 376.66 345.67C376.52 345.75 376.66 344.57 376.81 344.8L376.74 345.28C376.83 345.18 376.87 344.98 376.93 345.09C376.86 345.35 376.87 345.79 377 345.71L376.88 346.31L377.17 345.44C377.34 345.96 377.67 345.33 377.72 346.01C377.72 346.01 378.12 346.36 378.25 345.62C378.15 346.08 378.37 346.26 378.28 346.8C378.41 346.28 378.75 345.87 378.85 346.43L378.82 346.49C379.26 347.08 379.65 345.75 380.04 346.45C380.04 345.87 380.25 346.2 380.23 345.45C380.69 344.74 380.97 346.98 381.2 344.7C381.4 344.58 381.41 345.24 381.51 345.36L381.46 345.48C381.84 345.31 381.94 345.29 382.21 345.35C382.35 345.13 382.41 344.07 382.64 344.34C382.55 344.76 382.65 344.68 382.74 344.69C382.68 344.75 382.66 344.91 382.77 345.2C382.79 345.07 382.82 344.99 382.85 344.92C382.85 344.95 382.85 344.98 382.85 345.02C383.01 344.87 382.98 344.74 382.91 344.68C382.91 344.62 382.91 344.53 382.89 344.42C383.03 344.97 383.33 344.39 383.33 345.12C383.79 344.96 384.14 344.23 384.53 343.95C384.57 344.32 384.47 344.65 384.36 344.79L384.63 344.66C384.62 345.2 384.47 344.97 384.38 345.07C384.69 345.94 385.06 344.22 385.43 345.02L385.52 344.6L385.54 344.67C385.54 344.45 385.63 344.14 385.69 344.07C385.74 344.54 385.67 345.15 385.86 345.12C386 345.57 386.28 344.9 386.48 344.65C386.38 344.57 386.41 344.31 386.46 344.15C386.55 344.14 386.6 344.6 386.68 344.4V345.03C386.65 344.44 386.93 344.39 386.97 344.13C387.02 344.6 386.82 344.53 386.79 344.88C387.17 344.82 386.98 344.85 387.35 344.8C387.55 344.33 387.32 344.2 387.42 343.65C387.6 343.53 387.77 343.09 387.97 343.47L387.91 342.91C388.24 342.48 388.44 342.54 388.66 343.11C389.89 340.83 390 339.28 389.83 338.29C389.65 337.3 389.18 336.89 389.18 336.89C388.24 335.65 387.76 337.28 386.62 337.7L386.66 337.68Z" fill="#20BB65"/>
<path d="M336.62 339.61L336.59 339.37C336.57 339.48 336.57 339.57 336.62 339.61Z" fill="#20BB65"/>
<path d="M317.83 335.77C317.83 335.77 317.81 335.8 317.8 335.82C317.82 335.8 317.82 335.79 317.83 335.77Z" fill="#20BB65"/>
<path d="M335.22 331.36C335.22 331.36 335.24 331.33 335.25 331.31L335.22 331.36Z" fill="#20BB65"/>
<path d="M338.83 332.69C337.9 332.23 337.84 331.12 336.75 331.36C336.28 331.18 335.72 331.33 335.22 331.36C334.83 332.15 334.6 331.25 334.2 331.89V331.4C334.05 331.62 333.91 331.76 333.87 331.49L333.9 331.35C333.69 331.68 333.58 331.44 333.48 331.6L333.51 331.46L333.33 331.49L333.4 331.3C333.09 331.63 332.84 331.61 332.65 331.39L332.55 331.96C332.21 331.23 331.81 332.38 331.54 331.54L331.57 331.4C330.74 332.79 330.94 330.21 330.11 331.52C330.21 331.36 330.14 331.22 330.18 331.08C329.9 331.19 329.61 331.22 329.38 332.34C329.2 332.29 329.3 331.96 329.37 331.52C329.27 332.01 329.07 332.18 328.92 332.18L329.03 332L328.59 332.08L328.48 333.02C328.32 332.71 328.66 331.88 328.41 332.06L328.25 332.83C327.98 332.62 328.05 331.42 327.88 330.8C326.75 330.22 325.03 331.89 324.2 330.3L324.28 329.72C324.44 328.88 323.7 330.89 323.83 330.11L323.62 330.46C323.62 330.3 323.57 330.12 323.68 329.95C323.57 329.89 323.53 330.03 323.39 330.26V329.71C322.99 329.2 322.36 330.12 321.91 329.8C321.55 328.6 320.2 329.32 319.42 329.74C318.21 330.78 317.93 327.2 316.66 328.41C316.66 328.28 316.52 328.53 316.49 328.63L315.66 328.31C315.66 328.31 311.58 326.99 313.08 334.66L313.02 334.84C313.39 335.4 313.66 335.57 314.21 334.73C314 335.86 314.57 334.94 314.6 335.33L314.57 335.42C315.06 334.63 315 336.28 315.46 335.57C315.43 335.66 315.35 335.96 315.28 335.97C315.52 335.88 315.85 335.69 315.72 336.35C316.25 336.29 316.86 336.75 317.41 335.78L317.35 335.96C317.69 335.3 317.6 335.91 317.89 335.6C317.89 335.69 317.89 335.74 317.87 335.77C318.22 335.12 318.46 335.79 318.68 335.53L318.59 335.97H319L318.88 335.83C319.2 334.65 319 336.65 319.46 335.94C319.69 336.15 320.55 333.58 320.69 334.22C320.95 333.69 320.37 335.1 320.66 334.72C320.53 335.34 320.48 335.09 320.42 335.6C320.68 335.35 320.59 336.31 320.92 335.94L320.82 336.43C321.32 335.61 321.26 337.2 321.65 336.4C322.05 336.07 321.54 337.89 322.08 337.01L322.06 337.7C322.18 337.84 322.34 336.92 322.42 337.27C322.32 337.68 322.54 337.64 322.37 338.02C322.58 338.75 323.29 337.26 323.52 338.45C323.8 337.67 323.93 338.2 324.13 337.61C324.07 337.96 324.59 337.77 324.16 338.47C324.12 338.53 324.09 338.51 324.12 338.37L323.99 338.84C324.06 339.8 324.58 338.45 324.82 338.64C324.78 338.46 324.66 338.48 324.8 338.17L325.03 338.29L324.89 338.68L325.2 338.99L325.26 338.48C325.38 338.77 325.26 339.64 325.62 338.97C325.8 338.6 325.59 338.26 325.82 338.15C325.99 338.54 326.24 339.13 326.51 339.34C326.6 338.77 326.68 338.81 326.79 338.71L326.7 339.2C327.17 338.59 326.59 340.3 327.03 339.83L326.93 340.16L327.23 339.16C327.72 338.25 327.18 340.2 327.77 338.95C327.63 339.01 327.93 337.86 328.05 338.11L327.91 338.57C328.02 338.49 328.09 338.3 328.12 338.41C328.02 338.65 327.95 339.09 328.1 339.03L327.89 339.6L328.31 338.78C328.39 339.32 328.82 338.75 328.76 339.43C328.76 339.43 329.09 339.84 329.34 339.13C329.17 339.57 329.35 339.78 329.18 340.3C329.39 339.81 329.78 339.45 329.79 340.02L329.75 340.08C330.09 340.73 330.68 339.47 330.96 340.23C331.05 339.66 331.21 340.01 331.3 339.28C331.86 338.65 331.78 340.91 332.37 338.7C332.59 338.62 332.49 339.27 332.57 339.4L332.5 339.51C332.9 339.4 333 339.4 333.26 339.51C333.44 339.32 333.66 338.28 333.85 338.58C333.69 338.98 333.81 338.92 333.89 338.94C333.82 338.99 333.77 339.14 333.84 339.44C333.88 339.31 333.92 339.24 333.96 339.18C333.96 339.21 333.96 339.24 333.94 339.28C334.12 339.16 334.12 339.03 334.06 338.96C334.08 338.9 334.09 338.82 334.09 338.7C334.14 339.26 334.53 338.75 334.41 339.46C334.89 339.38 335.35 338.71 335.78 338.5C335.75 338.87 335.6 339.18 335.47 339.3L335.76 339.22C335.66 339.75 335.55 339.49 335.45 339.58C335.61 340.49 336.26 338.85 336.48 339.7L336.63 339.3V339.37C336.68 339.15 336.82 338.86 336.89 338.8C336.86 339.27 336.69 339.86 336.88 339.86C336.94 340.33 337.33 339.71 337.57 339.5C337.48 339.4 337.57 339.15 337.64 339C337.73 339 337.7 339.47 337.81 339.29L337.71 339.91C337.78 339.32 338.06 339.32 338.14 339.08C338.11 339.55 337.93 339.45 337.84 339.79C338.22 339.79 338.03 339.79 338.41 339.8C338.69 339.37 338.48 339.21 338.67 338.68C338.86 338.59 339.11 338.19 339.24 338.6L339.28 338.04C339.68 337.67 339.86 337.77 339.98 338.36C343.18 334.3 341.57 332.32 341.57 332.32C340.85 330.94 340.09 332.45 338.89 332.68L338.83 332.69Z" fill="#20BB65"/>
<path d="M288.87 328.21V327.97C288.83 328.07 288.83 328.17 288.87 328.21Z" fill="#20BB65"/>
<path d="M270.49 323.01C270.49 323.01 270.47 323.04 270.46 323.05C270.48 323.04 270.49 323.02 270.49 323.01Z" fill="#20BB65"/>
<path d="M288.16 319.84C288.16 319.84 288.18 319.81 288.19 319.79L288.15 319.84H288.16Z" fill="#20BB65"/>
<path d="M291.661 321.51C290.771 320.96 290.8 319.84 289.69 319.98C289.24 319.76 288.661 319.85 288.161 319.84C287.711 320.59 287.54 319.68 287.09 320.28L287.12 319.79C286.96 320 286.811 320.12 286.791 319.85L286.83 319.72C286.6 320.03 286.5 319.78 286.39 319.93L286.431 319.8H286.25L286.33 319.63C285.99 319.93 285.74 319.89 285.58 319.66L285.44 320.22C285.16 319.46 284.67 320.57 284.46 319.71L284.5 319.58C283.56 320.9 283.961 318.34 283.031 319.58C283.151 319.42 283.08 319.28 283.13 319.15C282.84 319.24 282.55 319.25 282.23 320.34C282.05 320.27 282.181 319.95 282.281 319.52C282.141 320 281.931 320.16 281.781 320.14L281.901 319.97L281.45 320.02L281.271 320.95C281.131 320.63 281.531 319.83 281.271 319.99L281.061 320.74C280.811 320.51 280.96 319.32 280.83 318.68C279.73 318.02 277.901 319.56 277.181 317.92L277.291 317.34C277.511 316.51 276.631 318.47 276.811 317.7L276.57 318.04C276.57 317.88 276.551 317.7 276.661 317.54C276.551 317.47 276.51 317.61 276.35 317.83L276.37 317.28C276.02 316.75 275.33 317.62 274.89 317.28C274.6 316.06 273.2 316.7 272.39 317.08C271.12 318.05 271.03 314.47 269.69 315.61C269.69 315.49 269.54 315.72 269.51 315.82L268.7 315.46C268.7 315.46 264.671 313.96 265.781 321.67L265.71 321.84C266.05 322.41 266.311 322.59 266.901 321.78C266.621 322.9 267.25 322 267.25 322.39L267.21 322.48C267.75 321.71 267.59 323.36 268.09 322.67C268.05 322.75 267.96 323.06 267.89 323.06C268.13 322.98 268.481 322.81 268.301 323.46C268.831 323.43 269.411 323.92 270.021 322.98L269.95 323.15C270.33 322.51 270.21 323.11 270.5 322.82C270.49 322.91 270.49 322.95 270.47 322.99C270.86 322.36 271.061 323.04 271.301 322.79L271.19 323.22H271.6L271.49 323.1C271.88 321.94 271.561 323.92 272.061 323.24C272.271 323.46 273.29 320.95 273.39 321.6C273.68 321.09 273.02 322.46 273.33 322.09C273.16 322.7 273.131 322.45 273.041 322.95C273.311 322.71 273.16 323.66 273.51 323.32L273.38 323.8C273.93 323.01 273.76 324.59 274.21 323.82C274.63 323.51 274.01 325.3 274.6 324.46L274.541 325.14C274.651 325.28 274.871 324.38 274.931 324.73C274.801 325.13 275.03 325.11 274.83 325.47C274.99 326.21 275.79 324.77 275.94 325.98C276.27 325.22 276.36 325.75 276.61 325.18C276.52 325.53 277.05 325.37 276.58 326.04C276.54 326.1 276.501 326.07 276.551 325.94L276.38 326.4C276.38 327.36 276.99 326.05 277.21 326.26C277.18 326.08 277.06 326.09 277.23 325.79L277.45 325.92L277.291 326.3L277.58 326.63L277.671 326.13C277.771 326.43 277.6 327.28 277.99 326.64C278.19 326.28 278.01 325.93 278.24 325.83C278.38 326.23 278.58 326.84 278.84 327.07C278.97 326.51 279.041 326.55 279.161 326.46L279.031 326.94C279.541 326.37 278.851 328.03 279.311 327.59L279.19 327.92L279.561 326.94C280.111 326.07 279.43 327.98 280.11 326.77C279.96 326.82 280.35 325.7 280.45 325.95L280.281 326.4C280.391 326.33 280.48 326.14 280.5 326.25C280.38 326.48 280.281 326.92 280.431 326.87L280.181 327.42L280.661 326.64C280.701 327.19 281.171 326.64 281.061 327.32C281.061 327.32 281.361 327.75 281.651 327.06C281.451 327.48 281.611 327.71 281.411 328.22C281.651 327.75 282.071 327.42 282.041 327.99L282 328.04C282.29 328.71 282.971 327.51 283.181 328.29C283.321 327.73 283.44 328.09 283.59 327.37C284.2 326.79 283.93 329.03 284.7 326.88C284.92 326.82 284.78 327.46 284.84 327.6L284.76 327.7C285.16 327.62 285.27 327.63 285.51 327.75C285.7 327.57 286.011 326.56 286.171 326.87C285.981 327.25 286.101 327.21 286.181 327.23C286.111 327.28 286.05 327.42 286.09 327.73C286.14 327.61 286.19 327.54 286.23 327.48C286.23 327.51 286.22 327.54 286.21 327.58C286.4 327.48 286.41 327.34 286.35 327.27C286.37 327.21 286.391 327.13 286.401 327.01C286.401 327.58 286.831 327.1 286.651 327.8C287.131 327.76 287.64 327.13 288.08 326.97C288.02 327.34 287.85 327.63 287.7 327.74L287.99 327.68C287.84 328.2 287.761 327.93 287.651 328.01C287.731 328.93 288.511 327.36 288.661 328.23L288.85 327.84V327.91C288.91 327.69 289.071 327.42 289.151 327.37C289.081 327.83 288.861 328.41 289.051 328.43C289.071 328.9 289.51 328.33 289.76 328.14C289.68 328.04 289.78 327.79 289.87 327.65C289.96 327.66 289.89 328.13 290.01 327.95L289.85 328.56C289.97 327.98 290.25 328.01 290.35 327.77C290.28 328.23 290.11 328.12 289.99 328.45C290.36 328.5 290.181 328.47 290.551 328.52C290.871 328.12 290.671 327.94 290.911 327.43C291.111 327.36 291.39 326.98 291.48 327.4L291.57 326.84C292 326.51 292.17 326.63 292.24 327.24C295.79 323.52 294.38 321.38 294.38 321.38C293.78 319.92 292.881 321.36 291.661 321.46V321.51Z" fill="#20BB65"/>
<path d="M241.92 314.42V314.18C241.89 314.28 241.88 314.38 241.92 314.42Z" fill="#20BB65"/>
<path d="M223.64 309.1C223.64 309.1 223.62 309.13 223.61 309.14C223.63 309.13 223.64 309.11 223.64 309.1Z" fill="#20BB65"/>
<path d="M241.35 306.08C241.35 306.08 241.37 306.05 241.39 306.03L241.35 306.08Z" fill="#20BB65"/>
<path d="M244.86 307.78C243.97 307.22 244.031 306.11 242.901 306.23C242.451 306 241.86 306.09 241.36 306.08C240.9 306.82 240.741 305.91 240.281 306.51L240.311 306.02C240.151 306.23 240 306.35 239.98 306.08L240.031 305.95C239.791 306.26 239.7 306.01 239.58 306.16L239.63 306.03H239.45L239.531 305.86C239.181 306.16 238.931 306.11 238.771 305.88L238.62 306.44C238.35 305.68 237.84 306.79 237.64 305.93L237.69 305.8C236.73 307.11 237.16 304.56 236.21 305.79C236.33 305.64 236.271 305.5 236.311 305.36C236.011 305.45 235.731 305.45 235.401 306.54C235.221 306.47 235.35 306.15 235.45 305.72C235.31 306.2 235.09 306.35 234.94 306.34L235.061 306.17L234.61 306.21L234.421 307.14C234.281 306.82 234.691 306.02 234.421 306.18L234.2 306.93C233.95 306.69 234.11 305.51 233.98 304.87C232.88 304.2 231.041 305.73 230.311 304.08L230.431 303.5C230.651 302.67 229.77 304.63 229.95 303.85L229.71 304.19C229.71 304.03 229.691 303.85 229.801 303.69C229.691 303.62 229.65 303.76 229.49 303.98L229.51 303.43C229.15 302.89 228.471 303.76 228.031 303.42C227.741 302.2 226.341 302.83 225.531 303.19C224.271 304.15 224.16 300.56 222.82 301.69C222.82 301.56 222.67 301.8 222.64 301.9L221.82 301.53C221.82 301.53 217.79 299.99 218.96 307.75L218.89 307.92C219.23 308.49 219.49 308.68 220.07 307.87C219.8 308.99 220.421 308.1 220.421 308.49L220.38 308.58C220.91 307.81 220.76 309.46 221.25 308.78C221.21 308.86 221.121 309.17 221.051 309.17C221.291 309.09 221.63 308.92 221.46 309.57C221.98 309.54 222.561 310.04 223.161 309.1L223.09 309.27C223.46 308.63 223.34 309.23 223.64 308.94C223.63 309.03 223.63 309.07 223.61 309.11C224 308.48 224.191 309.17 224.431 308.92L224.32 309.35H224.73L224.62 309.23C225.01 308.07 224.691 310.05 225.181 309.37C225.391 309.59 226.41 307.08 226.51 307.73C226.8 307.22 226.14 308.59 226.45 308.22C226.28 308.83 226.251 308.58 226.161 309.08C226.431 308.84 226.28 309.8 226.63 309.45L226.5 309.93C227.05 309.15 226.88 310.73 227.32 309.95C227.74 309.65 227.11 311.43 227.71 310.59L227.651 311.27C227.761 311.42 227.981 310.51 228.041 310.87C227.911 311.27 228.14 311.25 227.94 311.61C228.1 312.35 228.901 310.91 229.041 312.12C229.371 311.36 229.46 311.9 229.71 311.32C229.62 311.67 230.151 311.51 229.681 312.18C229.641 312.23 229.601 312.21 229.651 312.08L229.48 312.54C229.48 313.5 230.091 312.19 230.311 312.4C230.281 312.22 230.17 312.23 230.33 311.93L230.551 312.06L230.38 312.44L230.671 312.78L230.76 312.28C230.86 312.58 230.68 313.43 231.08 312.8C231.28 312.44 231.11 312.09 231.34 311.99C231.47 312.39 231.671 313 231.931 313.23C232.061 312.67 232.14 312.72 232.25 312.63L232.12 313.11C232.63 312.54 231.93 314.19 232.39 313.76L232.26 314.08L232.64 313.11C233.2 312.25 232.5 314.15 233.19 312.95C233.04 312.99 233.441 311.88 233.531 312.13L233.36 312.58C233.47 312.51 233.56 312.32 233.59 312.44C233.47 312.67 233.37 313.1 233.51 313.06L233.26 313.61L233.74 312.83C233.77 313.38 234.24 312.84 234.13 313.51C234.13 313.51 234.42 313.94 234.72 313.26C234.51 313.68 234.68 313.91 234.46 314.41C234.71 313.94 235.13 313.62 235.09 314.19L235.051 314.24C235.331 314.91 236.02 313.72 236.22 314.5C236.37 313.94 236.49 314.3 236.64 313.58C237.26 313 236.96 315.24 237.75 313.1C237.97 313.04 237.82 313.68 237.88 313.82L237.801 313.92C238.201 313.84 238.311 313.85 238.551 313.98C238.741 313.8 239.07 312.79 239.22 313.11C239.02 313.49 239.14 313.44 239.22 313.47C239.15 313.52 239.08 313.66 239.12 313.97C239.17 313.85 239.22 313.78 239.26 313.72C239.26 313.75 239.25 313.78 239.23 313.82C239.42 313.72 239.43 313.59 239.38 313.51C239.4 313.45 239.421 313.37 239.431 313.25C239.431 313.82 239.861 313.34 239.671 314.04C240.151 314.01 240.68 313.38 241.12 313.22C241.05 313.59 240.87 313.88 240.73 313.99L241.031 313.94C240.871 314.45 240.791 314.19 240.681 314.27C240.741 315.19 241.56 313.63 241.69 314.5L241.89 314.12V314.19C241.95 313.97 242.12 313.71 242.2 313.65C242.12 314.11 241.89 314.68 242.07 314.71C242.08 315.18 242.531 314.61 242.791 314.43C242.711 314.33 242.821 314.09 242.911 313.94C243.001 313.95 242.921 314.41 243.051 314.24L242.88 314.85C243.02 314.27 243.301 314.3 243.401 314.07C243.321 314.53 243.15 314.41 243.021 314.74C243.391 314.79 243.21 314.76 243.58 314.81C243.91 314.41 243.72 314.23 243.97 313.73C244.17 313.66 244.461 313.29 244.551 313.71L244.651 313.16C245.091 312.84 245.261 312.96 245.311 313.56C248.971 309.89 247.6 307.75 247.6 307.75C247.03 306.29 246.08 307.71 244.86 307.8V307.78Z" fill="#20BB65"/>
<path d="M195.03 301.08L195.01 300.84C194.98 300.94 194.98 301.04 195.03 301.08Z" fill="#20BB65"/>
<path d="M176.57 296.79C176.57 296.79 176.55 296.82 176.54 296.84C176.56 296.82 176.56 296.81 176.57 296.79Z" fill="#20BB65"/>
<path d="M194.11 292.76C194.11 292.76 194.13 292.73 194.14 292.71L194.1 292.76H194.11Z" fill="#20BB65"/>
<path d="M197.7 294.33C196.79 293.8 196.79 292.69 195.66 292.85C195.19 292.64 194.61 292.75 194.1 292.76C193.67 293.52 193.47 292.62 193.03 293.24V292.75C192.89 292.96 192.74 293.09 192.71 292.82L192.75 292.69C192.52 293.01 192.42 292.76 192.31 292.92L192.35 292.79L192.17 292.81L192.25 292.62C191.92 292.93 191.66 292.9 191.49 292.67L191.37 293.24C191.06 292.5 190.6 293.62 190.36 292.77L190.4 292.63C189.51 293.99 189.8 291.41 188.91 292.69C189.02 292.53 188.95 292.39 188.99 292.26C188.7 292.36 188.41 292.38 188.14 293.49C187.96 293.43 188.07 293.11 188.15 292.67C188.03 293.16 187.83 293.32 187.68 293.32L187.79 293.15L187.34 293.22L187.2 294.16C187.04 293.84 187.41 293.03 187.15 293.2L186.97 293.96C186.7 293.74 186.8 292.54 186.64 291.91C185.5 291.3 183.74 292.93 182.91 291.33L182.99 290.75C183.16 289.91 182.39 291.92 182.53 291.13L182.31 291.48C182.31 291.32 182.26 291.14 182.37 290.97C182.26 290.91 182.22 291.05 182.08 291.28V290.73C181.67 290.22 181.04 291.13 180.58 290.81C180.21 289.61 178.84 290.33 178.05 290.76C176.85 291.81 176.48 288.24 175.22 289.47C175.22 289.34 175.08 289.6 175.06 289.69L174.21 289.39C174.21 289.39 173.16 289.09 172.35 289.75C171.53 290.4 170.95 292.02 171.83 295.82L171.77 296C172.15 296.54 172.42 296.7 172.94 295.85C172.76 296.99 173.3 296.05 173.34 296.44L173.31 296.53C173.78 295.72 173.75 297.37 174.19 296.66C174.16 296.75 174.09 297.06 174.02 297.06C174.25 296.96 174.58 296.77 174.46 297.43C174.98 297.36 175.58 297.81 176.12 296.83L176.06 297.01C176.39 296.34 176.31 296.95 176.58 296.64C176.58 296.73 176.58 296.78 176.57 296.81C176.91 296.15 177.15 296.82 177.37 296.56L177.28 297L177.68 296.98L177.56 296.86C177.87 295.67 177.68 297.67 178.13 296.96C178.35 297.17 179.21 294.59 179.35 295.24C179.6 294.71 179.03 296.12 179.32 295.74C179.19 296.36 179.14 296.11 179.08 296.62C179.33 296.37 179.25 297.33 179.57 296.96L179.47 297.45C179.97 296.63 179.9 298.22 180.29 297.42C180.69 297.09 180.17 298.91 180.71 298.03L180.69 298.71C180.8 298.85 180.97 297.93 181.05 298.28C180.95 298.69 181.17 298.65 180.99 299.03C181.19 299.76 181.91 298.27 182.11 299.47C182.39 298.69 182.52 299.22 182.73 298.63C182.66 298.98 183.18 298.79 182.74 299.49C182.7 299.55 182.67 299.53 182.7 299.39L182.56 299.86C182.61 300.82 183.15 299.48 183.37 299.67C183.33 299.49 183.22 299.51 183.37 299.2L183.59 299.32L183.45 299.71L183.75 300.03L183.82 299.52C183.94 299.82 183.8 300.67 184.16 300.02C184.34 299.65 184.16 299.31 184.37 299.2C184.52 299.59 184.75 300.19 185.02 300.4C185.12 299.83 185.2 299.87 185.31 299.78L185.2 300.27C185.68 299.67 185.06 301.36 185.5 300.9L185.39 301.23L185.71 300.24C186.22 299.35 185.62 301.28 186.25 300.05C186.11 300.1 186.45 298.97 186.55 299.22L186.4 299.68C186.51 299.6 186.58 299.41 186.62 299.52C186.51 299.76 186.43 300.19 186.57 300.14L186.35 300.7L186.79 299.9C186.85 300.45 187.29 299.89 187.21 300.56C187.21 300.56 187.52 300.98 187.79 300.28C187.6 300.71 187.78 300.93 187.59 301.44C187.81 300.96 188.21 300.61 188.2 301.18L188.16 301.24C188.47 301.9 189.1 300.67 189.34 301.44C189.46 300.87 189.59 301.23 189.72 300.5C190.31 299.89 190.11 302.14 190.81 299.96C191.03 299.89 190.9 300.53 190.97 300.67L190.9 300.78C191.3 300.69 191.4 300.69 191.65 300.81C191.83 300.63 192.11 299.6 192.28 299.91C192.1 300.3 192.22 300.25 192.3 300.27C192.23 300.32 192.17 300.47 192.22 300.77C192.27 300.65 192.31 300.58 192.35 300.52C192.35 300.55 192.35 300.58 192.33 300.62C192.51 300.51 192.52 300.38 192.47 300.31C192.49 300.25 192.5 300.17 192.51 300.05C192.53 300.62 192.94 300.12 192.78 300.83C193.26 300.78 193.75 300.13 194.19 299.95C194.14 300.32 193.97 300.62 193.83 300.73L194.12 300.66C193.99 301.18 193.9 300.92 193.79 301C193.88 301.92 194.64 300.32 194.8 301.19L194.98 300.8V300.87C195.04 300.65 195.19 300.38 195.27 300.32C195.21 300.79 195 301.36 195.19 301.38C195.22 301.85 195.65 301.26 195.89 301.07C195.81 300.97 195.91 300.73 195.99 300.58C196.08 300.58 196.02 301.05 196.14 300.88L195.99 301.49C196.1 300.91 196.38 300.93 196.48 300.69C196.41 301.16 196.24 301.04 196.13 301.38C196.5 301.42 196.32 301.4 196.69 301.43C197 301.02 196.8 300.84 197.03 300.33C197.23 300.25 197.5 299.87 197.6 300.29L197.68 299.73C198.11 299.39 198.28 299.5 198.35 300.11C201.87 296.32 200.42 294.22 200.42 294.22C199.79 292.78 198.9 294.22 197.67 294.36L197.7 294.33Z" fill="#20BB65"/>
<path d="M147.48 291.56L147.44 291.32C147.43 291.43 147.44 291.52 147.48 291.56Z" fill="#20BB65"/>
<path d="M128.71 289.85C128.71 289.85 128.7 289.88 128.69 289.9C128.7 289.88 128.71 289.87 128.71 289.85Z" fill="#20BB65"/>
<path d="M145.54 283.41C145.54 283.41 145.56 283.38 145.57 283.35L145.54 283.41Z" fill="#20BB65"/>
<path d="M149.33 284.53C148.35 284.11 148.22 283.01 147.11 283.31C146.62 283.16 146.05 283.34 145.54 283.41C145.21 284.22 144.89 283.34 144.53 284.02L144.48 283.53C144.36 283.76 144.23 283.91 144.16 283.64L144.18 283.5C144 283.84 143.86 283.61 143.77 283.78L143.79 283.64L143.61 283.68L143.66 283.49C143.37 283.84 143.11 283.84 142.9 283.64L142.85 284.22C142.44 283.52 142.13 284.7 141.78 283.89L141.8 283.75C141.09 285.21 141.04 282.62 140.32 284.01C140.41 283.84 140.32 283.71 140.34 283.57C140.06 283.71 139.77 283.77 139.66 284.9C139.47 284.87 139.54 284.53 139.56 284.09C139.51 284.59 139.33 284.78 139.18 284.79L139.27 284.6L138.83 284.73V285.68C138.62 285.39 138.88 284.53 138.64 284.74L138.57 285.52C138.28 285.34 138.2 284.14 137.96 283.54C136.73 283.09 135.22 284.96 134.16 283.5V282.91C134.2 282.05 133.73 284.15 133.75 283.36L133.58 283.74C133.55 283.58 133.49 283.41 133.57 283.23C133.45 283.19 133.43 283.33 133.32 283.58L133.22 283.04C132.75 282.59 132.26 283.58 131.75 283.34C131.19 282.21 129.94 283.13 129.23 283.68C128.21 284.9 127.27 281.44 126.21 282.86C126.18 282.74 126.09 283.01 126.08 283.1L125.19 282.94C125.19 282.94 124.1 282.82 123.4 283.6C122.69 284.38 122.41 286.07 123.9 289.67L123.87 289.85C124.33 290.32 124.63 290.43 124.99 289.51C124.99 290.66 125.38 289.65 125.47 290.02V290.11C125.79 289.24 126.02 290.87 126.34 290.09C126.32 290.18 126.3 290.5 126.24 290.51C126.45 290.37 126.74 290.13 126.73 290.8C127.23 290.65 127.89 290.99 128.26 289.94L128.23 290.12C128.45 289.41 128.47 290.03 128.69 289.67C128.69 289.76 128.71 289.8 128.7 289.84C128.94 289.14 129.27 289.76 129.45 289.47L129.43 289.92L129.82 289.84L129.68 289.74C129.81 288.52 129.93 290.52 130.26 289.75C130.51 289.92 130.96 287.25 131.2 287.86C131.37 287.3 131.02 288.78 131.25 288.35C131.21 288.99 131.13 288.74 131.15 289.26C131.36 288.97 131.42 289.93 131.69 289.52L131.66 290.02C132.03 289.14 132.19 290.72 132.46 289.87C132.81 289.48 132.56 291.36 132.97 290.41L133.05 291.09C133.18 291.21 133.21 290.28 133.34 290.61C133.3 291.03 133.51 290.96 133.39 291.36C133.69 292.05 134.18 290.48 134.56 291.63C134.73 290.82 134.92 291.32 135.05 290.71C135.03 291.07 135.51 290.81 135.19 291.56C135.16 291.62 135.12 291.61 135.14 291.47L135.07 291.95C135.26 292.89 135.59 291.49 135.84 291.65C135.78 291.48 135.67 291.52 135.77 291.19L136.01 291.28L135.92 291.69L136.26 291.96V291.45C136.41 291.73 136.39 292.6 136.66 291.89C136.79 291.5 136.55 291.19 136.76 291.05C136.97 291.42 137.27 291.97 137.56 292.15C137.59 291.58 137.67 291.61 137.76 291.5L137.72 292C138.11 291.34 137.73 293.1 138.1 292.58L138.04 292.92L138.22 291.89C138.6 290.94 138.27 292.93 138.73 291.62C138.6 291.69 138.78 290.52 138.91 290.75L138.82 291.22C138.92 291.13 138.97 290.93 139.01 291.04C138.93 291.29 138.91 291.73 139.05 291.66L138.91 292.25L139.24 291.39C139.37 291.92 139.73 291.31 139.74 291.99C139.74 291.99 140.1 292.36 140.27 291.63C140.14 292.08 140.34 292.28 140.22 292.81C140.38 292.3 140.73 291.91 140.79 292.48L140.76 292.54C141.15 293.15 141.61 291.85 141.94 292.58C141.99 292 142.16 292.34 142.19 291.6C142.69 290.92 142.78 293.18 143.19 290.93C143.4 290.83 143.35 291.49 143.44 291.62L143.38 291.73C143.76 291.59 143.86 291.58 144.12 291.66C144.28 291.45 144.43 290.4 144.63 290.69C144.5 291.1 144.61 291.03 144.7 291.04C144.64 291.1 144.6 291.25 144.68 291.55C144.71 291.42 144.75 291.35 144.78 291.28C144.78 291.31 144.78 291.34 144.78 291.38C144.95 291.25 144.94 291.12 144.87 291.05C144.88 290.99 144.89 290.9 144.87 290.79C144.96 291.35 145.3 290.81 145.23 291.53C145.7 291.42 146.11 290.71 146.52 290.48C146.52 290.86 146.39 291.17 146.26 291.3L146.54 291.2C146.47 291.73 146.35 291.49 146.26 291.58C146.46 292.48 147.02 290.81 147.28 291.64L147.41 291.23V291.3C147.45 291.08 147.57 290.79 147.64 290.72C147.64 291.19 147.5 291.79 147.68 291.78C147.76 292.24 148.12 291.61 148.34 291.39C148.25 291.3 148.32 291.05 148.38 290.89C148.47 290.89 148.46 291.36 148.56 291.17L148.48 291.8C148.52 291.21 148.8 291.2 148.87 290.95C148.86 291.42 148.67 291.33 148.61 291.67C148.98 291.67 148.8 291.67 149.17 291.66C149.43 291.22 149.22 291.06 149.38 290.53C149.57 290.43 149.8 290.02 149.94 290.42V289.86C150.34 289.48 150.52 289.57 150.66 290.16C152.19 288.08 152.55 286.56 152.51 285.55C152.47 284.55 152.05 284.07 152.05 284.07C151.25 282.71 150.52 284.25 149.31 284.53H149.33Z" fill="#20BB65"/>
<path d="M99.3604 290.16L99.2704 289.94C99.2804 290.05 99.3104 290.14 99.3604 290.16Z" fill="#20BB65"/>
<path d="M95.6604 282.65C95.6604 282.65 95.6604 282.61 95.6704 282.59L95.6505 282.65H95.6604Z" fill="#20BB65"/>
<path d="M99.6405 282.9C98.5905 282.71 98.2104 281.66 97.1804 282.2C96.6604 282.17 96.1404 282.47 95.6604 282.65C95.5204 283.51 95.0105 282.74 94.8104 283.47L94.6505 283.01C94.5805 283.26 94.4904 283.44 94.3604 283.19V283.05C94.2504 283.43 94.0605 283.23 94.0105 283.42V283.28L93.8305 283.36V283.16C93.6305 283.57 93.3805 283.63 93.1305 283.48L93.2204 284.05C92.6604 283.47 92.6304 284.68 92.1004 283.97V283.83C91.7404 285.42 91.0805 282.91 90.7005 284.43C90.7505 284.24 90.6304 284.14 90.6204 284C90.3804 284.2 90.1105 284.32 90.2705 285.45C90.0805 285.46 90.0704 285.12 89.9804 284.69C90.0504 285.18 89.9205 285.41 89.7705 285.47L89.8105 285.27L89.4104 285.5L89.6305 286.42C89.3705 286.18 89.4104 285.29 89.2204 285.55L89.3405 286.32C89.0105 286.21 88.6505 285.07 88.2605 284.54C86.9405 284.4 85.9304 286.59 84.5404 285.44L84.3905 284.87C84.2205 284.03 84.2904 286.18 84.1104 285.41L84.0404 285.82C83.9804 285.68 83.8705 285.53 83.9005 285.33C83.7705 285.32 83.7905 285.46 83.7505 285.73L83.5205 285.23C82.9505 284.91 82.7204 286 82.1604 285.9C81.3304 284.95 80.3404 286.16 79.7904 286.88C79.1204 288.32 77.2905 285.23 76.6405 286.88C76.5805 286.77 76.5605 287.05 76.5805 287.15L75.6704 287.24C75.6704 287.24 74.5804 287.41 74.1104 288.36C73.6304 289.31 73.8304 291 76.2304 294.07L76.2505 294.26C76.8205 294.59 77.1304 294.62 77.2304 293.63C77.5404 294.74 77.6405 293.66 77.8305 294V294.09C77.9305 293.16 78.5804 294.67 78.6804 293.84C78.6804 293.93 78.7505 294.24 78.6905 294.27C78.8605 294.08 79.0704 293.78 79.2304 294.43C79.6704 294.16 80.3904 294.31 80.4704 293.2L80.4904 293.39C80.5104 292.65 80.6905 293.24 80.8105 292.84C80.8405 292.92 80.8604 292.96 80.8704 293C80.9104 292.26 81.4004 292.78 81.4904 292.45L81.5905 292.88L81.9505 292.7L81.7904 292.64C81.6004 291.43 82.2304 293.33 82.3504 292.5C82.6304 292.6 82.3805 289.9 82.7705 290.44C82.7905 289.85 82.8305 291.38 82.9405 290.91C83.0705 291.54 82.9305 291.32 83.0705 291.81C83.2005 291.48 83.5005 292.39 83.6505 291.92L83.7505 292.41C83.8805 291.46 84.4404 292.95 84.4804 292.06C84.7204 291.6 84.9504 293.47 85.1004 292.46L85.3405 293.1C85.5005 293.18 85.2905 292.27 85.5005 292.56C85.5605 292.98 85.7504 292.86 85.7304 293.27C86.1904 293.86 86.2704 292.22 86.9204 293.25C86.8804 292.42 87.1904 292.86 87.1604 292.24C87.2304 292.59 87.6305 292.22 87.5005 293.03C87.4905 293.1 87.4504 293.09 87.4304 292.95L87.4804 293.44C87.8904 294.31 87.8705 292.86 88.1505 292.96C88.0505 292.81 87.9504 292.87 87.9704 292.53L88.2204 292.56L88.2404 292.98L88.6305 293.16L88.5005 292.66C88.7205 292.89 88.9104 293.74 88.9904 292.99C89.0204 292.58 88.7205 292.34 88.8805 292.15C89.1705 292.45 89.6004 292.92 89.9204 293.03C89.8104 292.47 89.8905 292.48 89.9605 292.35L90.0404 292.84C90.2504 292.11 90.3204 293.91 90.5504 293.32L90.5705 293.67L90.5005 292.63C90.6405 291.61 90.8004 293.63 90.9204 292.25C90.8104 292.35 90.7105 291.17 90.8905 291.36L90.9204 291.84C90.9904 291.73 90.9904 291.52 91.0604 291.61C91.0504 291.87 91.1304 292.31 91.2404 292.21V292.82L91.3504 291.91C91.6004 292.4 91.8004 291.72 91.9704 292.38C91.9704 292.38 92.4105 292.66 92.4005 291.91C92.3805 292.38 92.6205 292.52 92.6305 293.07C92.6605 292.54 92.9104 292.07 93.1004 292.61V292.67C93.6004 293.18 93.7504 291.8 94.2304 292.44C94.1404 291.87 94.3905 292.15 94.2505 291.43C94.5805 290.65 95.1805 292.83 95.0705 290.55C95.2505 290.41 95.3604 291.06 95.4704 291.16L95.4405 291.28C95.7705 291.05 95.8705 291.02 96.1405 291.04C96.2505 290.8 96.1504 289.75 96.4204 289.98C96.3904 290.41 96.4805 290.32 96.5705 290.31C96.5205 290.38 96.5204 290.54 96.6704 290.81C96.6704 290.68 96.6905 290.6 96.7105 290.53C96.7105 290.56 96.7204 290.59 96.7204 290.63C96.8504 290.47 96.8104 290.34 96.7404 290.29C96.7404 290.23 96.7205 290.14 96.6905 290.03C96.9005 290.56 97.1105 289.95 97.2105 290.67C97.6405 290.46 97.8804 289.68 98.2204 289.36C98.3004 289.73 98.2405 290.06 98.1505 290.22L98.4005 290.06C98.4505 290.59 98.2805 290.38 98.2105 290.5C98.6005 291.33 98.7705 289.58 99.2105 290.34L99.2505 289.91L99.2805 289.98C99.2605 289.76 99.3104 289.45 99.3604 289.37C99.4504 289.83 99.4505 290.44 99.6305 290.4C99.8105 290.83 100.02 290.14 100.18 289.87C100.07 289.8 100.08 289.54 100.11 289.37C100.2 289.35 100.29 289.81 100.35 289.6L100.41 290.23C100.32 289.64 100.59 289.57 100.61 289.31C100.7 289.77 100.5 289.72 100.51 290.07C100.87 289.98 100.69 290.03 101.05 289.94C101.21 289.45 100.97 289.35 101.01 288.79C101.17 288.65 101.31 288.2 101.53 288.56L101.42 288.01C101.71 287.55 101.91 287.6 102.18 288.15C103.23 285.79 103.27 284.23 103.02 283.26C102.77 282.29 102.25 281.91 102.25 281.91C101.17 280.75 100.78 282.41 99.6505 282.94L99.6405 282.9Z" fill="#20BB65"/>
<path d="M53.0004 301.62L52.8405 301.44C52.8805 301.54 52.9404 301.62 53.0004 301.62Z" fill="#20BB65"/>
<path d="M36.3604 310.1C36.3604 310.1 36.3604 310.13 36.3704 310.15C36.3704 310.13 36.3704 310.11 36.3604 310.1Z" fill="#20BB65"/>
<path d="M51.0404 294.63C49.9804 294.77 49.2904 293.89 48.4704 294.72C47.9604 294.85 47.5605 295.3 47.1505 295.62C47.2805 296.49 46.5505 295.91 46.5905 296.67L46.2904 296.28C46.3004 296.54 46.2704 296.74 46.0704 296.54L46.0205 296.41C46.0405 296.8 45.8004 296.67 45.8104 296.87L45.7605 296.74L45.6304 296.87L45.5704 296.68C45.5004 297.14 45.2804 297.27 45.0004 297.21L45.2605 297.73C44.5405 297.35 44.8904 298.52 44.1604 298.01L44.1004 297.88C44.2604 299.5 42.8504 297.33 42.9704 298.89C42.9504 298.7 42.8104 298.64 42.7504 298.51C42.5804 298.77 42.3704 298.98 42.8704 300C42.6904 300.07 42.5704 299.75 42.3504 299.37C42.5704 299.82 42.5205 300.08 42.4005 300.17L42.3804 299.97L42.0704 300.31L42.5704 301.11C42.2504 300.97 42.0004 300.11 41.9104 300.41L42.2605 301.11C41.9104 301.11 41.2104 300.14 40.6804 299.76C39.3804 300.05 39.1104 302.44 37.4204 301.79L37.0905 301.3C36.6605 300.56 37.4104 302.57 36.9904 301.9L37.0604 302.31C36.9504 302.19 36.8005 302.09 36.7705 301.89C36.6405 301.92 36.7104 302.05 36.7504 302.32L36.3704 301.92C35.7304 301.8 35.8504 302.91 35.2904 302.98C34.2004 302.34 33.6504 303.81 33.3504 304.66C33.1704 306.24 30.4604 303.89 30.3604 305.66C30.2704 305.57 30.3405 305.85 30.3905 305.93L29.5504 306.3C29.5504 306.3 28.5704 306.81 28.4304 307.86C28.2804 308.91 29.0004 310.45 32.2504 312.61L32.3305 312.78C32.9705 312.91 33.2804 312.84 33.0604 311.87C33.7104 312.82 33.4604 311.77 33.7504 312.03L33.7904 312.12C33.5804 311.21 34.6805 312.44 34.5105 311.61C34.5505 311.69 34.7104 311.97 34.6604 312.02C34.7604 311.79 34.8604 311.43 35.2204 312C35.5504 311.6 36.2805 311.52 36.0105 310.44L36.0905 310.61C35.8805 309.9 36.2304 310.4 36.2204 309.99C36.2704 310.06 36.3105 310.09 36.3305 310.13C36.1405 309.42 36.7604 309.75 36.7504 309.41L36.9804 309.79L37.2605 309.51H37.0905C36.5205 308.41 37.7204 310.02 37.5704 309.19C37.8704 309.19 36.7804 306.72 37.3104 307.1C37.1404 306.54 37.6704 307.97 37.6204 307.49C37.9404 308.04 37.7405 307.88 38.0305 308.3C38.0505 307.94 38.6204 308.72 38.6204 308.22L38.8704 308.65C38.6904 307.7 39.6905 308.94 39.4505 308.09C39.5305 307.58 40.3504 309.28 40.1704 308.27L40.6004 308.8C40.7704 308.83 40.2905 308.03 40.5905 308.24C40.7805 308.62 40.9204 308.44 41.0404 308.84C41.6604 309.25 41.2204 307.67 42.1604 308.44C41.8604 307.67 42.3004 307.99 42.0704 307.41C42.2504 307.72 42.5105 307.24 42.6405 308.05C42.6505 308.12 42.6104 308.12 42.5504 308L42.7504 308.45C43.4104 309.14 42.9304 307.78 43.2304 307.78C43.0904 307.67 43.0204 307.76 42.9204 307.43L43.1704 307.38L43.3204 307.77L43.7504 307.82L43.4704 307.39C43.7504 307.54 44.2004 308.28 44.0404 307.55C43.9404 307.15 43.5804 307.02 43.6704 306.79C44.0404 306.99 44.5904 307.29 44.9304 307.3C44.6504 306.8 44.7304 306.78 44.7504 306.64L44.9804 307.08C44.9504 306.32 45.5804 308.01 45.6104 307.37L45.7404 307.69L45.3504 306.72C45.1604 305.71 45.9504 307.58 45.6304 306.23C45.5604 306.36 45.0904 305.27 45.3204 305.4L45.5004 305.85C45.5304 305.72 45.4704 305.53 45.5604 305.59C45.6304 305.85 45.8504 306.23 45.9204 306.1L46.1104 306.68L45.9304 305.78C46.3204 306.16 46.3004 305.45 46.6704 306.03C46.6704 306.03 47.1704 306.16 46.9304 305.45C47.0604 305.9 47.3305 305.96 47.5105 306.48C47.3705 305.97 47.4604 305.45 47.8104 305.9V305.97C48.4604 306.29 48.1705 304.94 48.8305 305.39C48.5705 304.87 48.8905 305.07 48.5305 304.42C48.6005 303.58 49.8505 305.46 49.0305 303.33C49.1505 303.14 49.4604 303.72 49.6004 303.79V303.92C49.8504 303.6 49.9405 303.54 50.2005 303.48C50.2305 303.22 49.8104 302.25 50.1304 302.38C50.2304 302.8 50.2904 302.68 50.3704 302.65C50.3504 302.73 50.3904 302.88 50.6204 303.09C50.5804 302.96 50.5704 302.88 50.5704 302.81C50.5804 302.84 50.6004 302.86 50.6204 302.9C50.6904 302.7 50.6205 302.59 50.5305 302.57C50.5105 302.51 50.4705 302.44 50.4005 302.34C50.7605 302.78 50.7805 302.13 51.0905 302.79C51.4305 302.46 51.4205 301.64 51.6505 301.24C51.8405 301.57 51.8904 301.9 51.8504 302.08L52.0404 301.85C52.2504 302.34 52.0204 302.19 51.9904 302.32C52.6204 302.99 52.2405 301.27 52.8905 301.86L52.7904 301.44L52.8405 301.5C52.7505 301.29 52.7104 300.98 52.7304 300.89C52.9604 301.3 53.1504 301.88 53.3004 301.78C53.6104 302.14 53.5904 301.41 53.6604 301.11C53.5404 301.08 53.4704 300.82 53.4404 300.66C53.5204 300.61 53.7504 301.02 53.7304 300.81L53.9804 301.39C53.7204 300.86 53.9504 300.71 53.8804 300.46C54.1104 300.87 53.9005 300.89 54.0205 301.22C54.3305 301.03 54.1804 301.12 54.4904 300.93C54.4904 300.42 54.2304 300.39 54.1104 299.85C54.2204 299.67 54.2104 299.2 54.5404 299.47L54.2705 298.98C54.4105 298.45 54.6205 298.44 55.0305 298.89C55.3105 296.32 54.8804 294.82 54.3504 293.97C53.8204 293.12 53.2005 292.92 53.2005 292.92C51.8105 292.14 51.9405 293.85 51.0205 294.7L51.0404 294.63Z" fill="#20BB65"/>
<path d="M14.0305 325.74L13.8504 325.59C13.9204 325.67 13.9905 325.74 14.0305 325.74Z" fill="#20BB65"/>
<path d="M6.88043 332.14C6.88043 332.14 6.9004 332.17 6.9104 332.18C6.9104 332.16 6.89043 332.15 6.88043 332.14Z" fill="#20BB65"/>
<path d="M7.83044 320.71C7.83044 320.71 7.81042 320.68 7.80042 320.66L7.83044 320.71Z" fill="#20BB65"/>
<path d="M9.78048 319.9C9.19048 320.02 8.39045 319.28 8.25045 319.97C7.99045 320.07 7.94047 320.44 7.83047 320.71C8.28047 321.43 7.58045 320.94 7.93045 321.57L7.58047 321.24C7.70047 321.46 7.76045 321.62 7.56045 321.45L7.47043 321.34C7.65042 321.66 7.45043 321.55 7.54043 321.72L7.45047 321.61L7.42044 321.72L7.30044 321.56C7.45044 321.94 7.37044 322.04 7.17044 321.98L7.56045 322.41C6.95045 322.08 7.66044 323.05 6.99044 322.62L6.90048 322.51C7.69048 323.85 5.88044 322.02 6.61044 323.31C6.52044 323.15 6.40045 323.1 6.31045 322.99C6.31045 323.2 6.27046 323.36 7.01046 324.22C6.93046 324.27 6.72044 324 6.42044 323.68C6.75044 324.06 6.82043 324.27 6.79043 324.34L6.69046 324.17L6.64047 324.44L7.29043 325.12C7.02043 324.99 6.51047 324.28 6.58047 324.52L7.10043 325.11C6.88043 325.1 6.03048 324.27 5.53048 323.94C4.82048 324.12 5.63046 326.07 4.26046 325.45L3.85043 325.03C3.27043 324.4 4.58048 326.08 4.03048 325.51L4.24044 325.85C4.12044 325.75 3.98046 325.66 3.88046 325.49C3.81046 325.51 3.90043 325.61 4.04043 325.84L3.63046 325.49C3.16046 325.36 3.69043 326.26 3.35043 326.29C2.38043 325.7 2.60044 326.86 2.74044 327.52C3.25044 328.79 0.510469 326.68 1.14047 328.1C1.05047 328.02 1.20047 328.25 1.27047 328.32L0.85043 328.55C0.85043 328.55 0.390457 328.88 0.690457 329.7C0.990457 330.52 2.08045 331.83 5.12045 333.84L5.24044 333.98C5.73044 334.14 5.91047 334.11 5.39047 333.31C6.20047 334.13 5.62043 333.26 5.91043 333.49L5.97043 333.56C5.47043 332.81 6.70046 333.89 6.26046 333.21C6.32046 333.28 6.53047 333.51 6.52047 333.55C6.50047 333.37 6.43047 333.09 6.89047 333.57C6.95047 333.27 7.42045 333.26 6.81045 332.37L6.93045 332.51C6.51045 331.92 6.94047 332.35 6.77047 332.01C6.83047 332.07 6.87047 332.1 6.89047 332.13C6.48047 331.54 7.03047 331.85 6.89047 331.57L7.20047 331.89L7.27047 331.68L7.15048 331.66C6.34048 330.74 7.78043 332.12 7.35043 331.44C7.55043 331.46 5.83048 329.38 6.34048 329.73C6.00048 329.26 6.92047 330.46 6.70047 330.06C7.13047 330.53 6.94044 330.39 7.30044 330.75C7.17044 330.46 7.86043 331.12 7.66043 330.72L8.00045 331.08C7.50045 330.3 8.66048 331.37 8.15048 330.65C7.99048 330.24 9.22046 331.67 8.69046 330.84L9.19046 331.3C9.32046 331.33 8.68047 330.65 8.95047 330.84C9.23047 331.16 9.25044 331.02 9.49044 331.35C10.0704 331.72 9.13045 330.41 10.0605 331.08C9.55045 330.43 9.96047 330.72 9.58047 330.23C9.82047 330.49 9.80042 330.11 10.2204 330.78C10.2504 330.84 10.2305 330.84 10.1405 330.73L10.4505 331.11C11.1705 331.71 10.2904 330.57 10.4904 330.59C10.3504 330.5 10.3405 330.56 10.1405 330.29L10.2805 330.26L10.5305 330.58L10.8305 330.64L10.4704 330.28C10.7104 330.42 11.3104 331.04 10.9104 330.43C10.6804 330.1 10.3904 329.97 10.3604 329.79C10.6804 329.97 11.1605 330.24 11.3805 330.25C10.9905 329.83 11.0404 329.82 10.9904 329.7L11.3205 330.07C10.9905 329.44 12.0904 330.85 11.8504 330.33L12.0705 330.6L11.4204 329.79C10.8804 328.95 12.1605 330.51 11.3905 329.39C11.3905 329.5 10.6404 328.58 10.8504 328.69L11.1505 329.07C11.1205 328.96 10.9905 328.8 11.0805 328.86C11.2305 329.07 11.5305 329.4 11.5205 329.29L11.8805 329.77L11.3905 329.02C11.8005 329.35 11.4905 328.76 11.9605 329.25C11.9605 329.25 12.3305 329.37 11.8805 328.78C12.1505 329.15 12.3504 329.21 12.6804 329.64C12.3804 329.21 12.2105 328.79 12.6305 329.17L12.6604 329.22C13.2004 329.5 12.4505 328.38 13.0605 328.76C12.6805 328.33 12.9605 328.5 12.4605 327.95C12.1505 327.26 13.7305 328.84 12.3105 327.05C12.3105 326.89 12.7504 327.38 12.8604 327.44L12.9204 327.55C12.9404 327.29 12.9604 327.24 13.1004 327.19C13.0104 326.98 12.3305 326.16 12.5905 326.28C12.8305 326.63 12.8204 326.54 12.8504 326.51C12.8704 326.58 12.9605 326.7 13.1905 326.88C13.1105 326.77 13.0704 326.71 13.0404 326.65C13.0604 326.68 13.0804 326.69 13.1104 326.73C13.0704 326.57 12.9804 326.48 12.9104 326.45C12.8704 326.4 12.8104 326.34 12.7304 326.26C13.1404 326.62 12.8704 326.09 13.3504 326.64C13.4204 326.36 13.0605 325.69 13.0205 325.35C13.2805 325.62 13.4505 325.9 13.5005 326.05L13.5205 325.86C13.8605 326.27 13.6605 326.15 13.7005 326.25C14.3805 326.81 13.4004 325.37 14.0504 325.86L13.8105 325.51L13.8604 325.56C13.7204 325.39 13.5505 325.13 13.5305 325.05C13.8505 325.39 14.2205 325.88 14.2705 325.8C14.6105 326.1 14.2905 325.49 14.2005 325.24C14.1105 325.21 13.9604 325 13.8704 324.86C13.9004 324.82 14.2104 325.16 14.1104 324.98L14.5205 325.46C14.1305 325.01 14.2104 324.89 14.0504 324.68C14.3704 325.02 14.2504 325.04 14.4704 325.31C14.5804 325.15 14.5205 325.23 14.6305 325.06C14.4005 324.63 14.2404 324.61 13.9204 324.16C13.9104 324.01 13.7005 323.61 14.0205 323.84L13.6405 323.43C13.4905 322.99 13.6105 322.97 14.0605 323.34C12.1505 319.02 10.3205 318.35 10.3205 318.35C9.14046 317.71 9.97043 319.14 9.79043 319.86L9.78048 319.9Z" fill="#20BB65"/>
</svg>
