<svg width="183" height="188" viewBox="0 0 183 188" fill="none" xmlns="http://www.w3.org/2000/svg">
<path d="M30.1794 50.5501C30.4494 50.1701 30.7295 49.8001 31.0095 49.4301C31.2795 49.0601 31.5495 48.6901 31.8195 48.3301C32.2695 47.7301 32.7395 47.1501 33.1995 46.5801C33.4495 46.2701 33.6995 45.9501 33.9495 45.6401C34.0095 45.5701 34.0595 45.5001 34.1095 45.4301C34.2895 45.2101 34.4894 45.0101 34.6694 44.7901C35.3094 44.0301 35.9695 43.2901 36.6295 42.5601C36.9495 42.2101 37.2695 41.8801 37.5895 41.5401C38.1995 40.9001 38.8195 40.2701 39.4395 39.6501C39.6295 39.4601 39.8095 39.2601 39.9995 39.0701C40.1895 38.8901 40.3895 38.7101 40.5795 38.5301C40.9195 38.2101 41.2595 37.8901 41.6095 37.5701C42.0895 37.1301 42.5694 36.7101 43.0494 36.2801C43.3994 35.9801 43.7495 35.6701 44.0995 35.3801C44.5995 34.9601 45.0995 34.5601 45.5995 34.1501C45.9495 33.8701 46.2995 33.5901 46.6495 33.3101C47.1795 32.9001 47.7095 32.5101 48.2495 32.1201C48.5895 31.8701 48.9195 31.6201 49.2595 31.3801C49.8595 30.9501 50.4795 30.5401 51.0895 30.1401C51.3695 29.9601 51.6394 29.7601 51.9194 29.5801C52.8194 29.0001 53.7195 28.4401 54.6295 27.9101C54.7295 27.8501 54.8395 27.7901 54.9395 27.7301C55.7495 27.2601 56.5695 26.8001 57.3895 26.3601C57.7095 26.1901 58.0295 26.0301 58.3595 25.8701C58.8595 25.6101 59.3595 25.3501 59.8595 25.1101C59.9495 25.0701 60.0395 25.0301 60.1295 24.9901C61.2995 24.4301 62.4894 23.9001 63.6794 23.4001C63.8994 23.3101 64.1295 23.2301 64.3595 23.1401C65.3395 22.7401 66.3295 22.3701 67.3195 22.0201C67.4895 21.9601 67.6595 21.8901 67.8295 21.8301C68.1395 21.7201 68.4595 21.6301 68.7795 21.5301C69.2195 21.3901 69.6495 21.2501 70.0895 21.1101C70.6495 20.9401 71.2095 20.7801 71.7695 20.6301C72.1995 20.5101 72.6294 20.3901 73.0594 20.2801C73.2194 20.2401 73.3695 20.1901 73.5195 20.1501C74.0895 20.0101 74.6695 19.8801 75.2495 19.7601C75.4495 19.7201 75.6395 19.6701 75.8395 19.6301C76.6995 19.4501 77.5694 19.2801 78.4294 19.1401C78.5094 19.1301 78.5894 19.1201 78.6694 19.1001C78.8694 19.0701 79.0595 19.0401 79.2595 19.0101C80.0095 18.8901 80.7495 18.7901 81.4995 18.7001C81.7595 18.6701 82.0195 18.6401 82.2795 18.6101C82.4695 18.5901 82.6595 18.5601 82.8495 18.5401C83.0895 18.5201 83.3295 18.5101 83.5695 18.4901C84.4595 18.4101 85.3495 18.3601 86.2395 18.3201C86.4595 18.3201 86.6895 18.2801 86.9095 18.2801C87.0795 18.2801 87.2494 18.2801 87.4194 18.2801C88.2794 18.2601 89.1395 18.2601 89.9895 18.2801C90.2395 18.2801 90.4895 18.2801 90.7395 18.2801C90.8095 18.2801 90.8895 18.2901 90.9595 18.2901C92.0995 18.3301 93.2395 18.4001 94.3695 18.5101C94.3895 18.5101 94.4094 18.5101 94.4294 18.5101C94.5794 18.5201 94.7295 18.5501 94.8895 18.5701C95.8395 18.6701 96.7795 18.7801 97.7195 18.9301C97.8195 18.9501 97.9195 18.9501 98.0095 18.9701C98.2995 19.0201 98.5795 19.0801 98.8695 19.1401C99.5795 19.2601 100.29 19.4001 101 19.5501C101.17 19.5901 101.33 19.6101 101.5 19.6501C101.75 19.7101 102 19.7901 102.26 19.8501C102.94 20.0101 103.61 20.1901 104.29 20.3701C104.52 20.4301 104.749 20.4801 104.969 20.5501C105.159 20.6101 105.35 20.6801 105.54 20.7401C106.25 20.9601 106.94 21.1901 107.64 21.4401C107.9 21.5301 108.169 21.6101 108.429 21.7001C108.609 21.7701 108.789 21.8401 108.969 21.9101C109.149 21.9801 109.33 22.0501 109.5 22.1201C110.31 22.4401 111.119 22.7701 111.919 23.1301C111.949 23.1401 111.98 23.1601 112.01 23.1701C112.09 23.2101 112.17 23.2501 112.26 23.2901C113.02 23.6401 113.78 24.0101 114.53 24.4001C114.72 24.5001 114.899 24.5901 115.089 24.6901C115.239 24.7701 115.38 24.8401 115.53 24.9201C116.21 25.2901 116.88 25.6701 117.54 26.0701C117.63 26.1201 117.709 26.1801 117.799 26.2301C118.329 26.5501 118.85 26.8701 119.37 27.2201C119.66 27.4101 119.96 27.6101 120.25 27.8101L131.54 35.5501C130.73 35.0001 129.919 34.4801 129.089 33.9701C128.999 33.9201 128.919 33.8601 128.829 33.8101C128.019 33.3301 127.21 32.8701 126.38 32.4301C126.19 32.3301 125.999 32.2301 125.819 32.1401C125.069 31.7501 124.319 31.3801 123.549 31.0301C123.469 30.9901 123.379 30.9501 123.299 30.9101C122.469 30.5301 121.63 30.1901 120.79 29.8601C120.61 29.7901 120.43 29.7201 120.26 29.6501C119.82 29.4801 119.369 29.3401 118.929 29.1801C118.229 28.9301 117.529 28.7001 116.819 28.4801C116.409 28.3501 115.989 28.2301 115.569 28.1201C114.899 27.9301 114.22 27.7601 113.54 27.5901C113.12 27.4901 112.71 27.3901 112.29 27.3001C111.58 27.1501 110.87 27.0201 110.15 26.8901C109.77 26.8201 109.39 26.7501 109 26.6901C108.06 26.5401 107.11 26.4301 106.16 26.3301C105.99 26.3101 105.83 26.2901 105.66 26.2701C104.53 26.1601 103.39 26.0901 102.25 26.0501C101.93 26.0401 101.61 26.0501 101.29 26.0401C100.43 26.0201 99.5795 26.0201 98.7195 26.0401C98.3295 26.0401 97.9295 26.0701 97.5295 26.0801C96.6395 26.1201 95.7495 26.1801 94.8595 26.2501C94.4295 26.2901 93.9995 26.3201 93.5695 26.3601C93.3095 26.3901 93.0496 26.4201 92.7896 26.4501C92.0396 26.5401 91.2994 26.6401 90.5494 26.7601C90.3494 26.7901 90.1495 26.8201 89.9595 26.8501C89.0095 27.0101 88.0695 27.1801 87.1295 27.3801C86.9395 27.4201 86.7394 27.4701 86.5494 27.5101C85.8194 27.6701 85.0895 27.8401 84.3595 28.0301C83.9295 28.1401 83.4995 28.2601 83.0695 28.3801C82.5095 28.5401 81.9495 28.6901 81.3895 28.8601C80.9495 28.9901 80.5195 29.1301 80.0795 29.2801C79.5895 29.4401 79.1095 29.6001 78.6195 29.7701C77.6295 30.1201 76.6395 30.4901 75.6595 30.8901C75.4295 30.9801 75.2095 31.0601 74.9795 31.1501C73.7895 31.6401 72.6094 32.1701 71.4294 32.7401C70.8394 33.0201 70.2495 33.3201 69.6595 33.6201C69.3395 33.7801 69.0095 33.9401 68.6895 34.1101C67.8695 34.5501 67.0495 35.0001 66.2395 35.4801C66.1395 35.5401 66.0294 35.5901 65.9294 35.6601C65.0194 36.2001 64.1095 36.7601 63.2195 37.3301C62.9395 37.5101 62.6695 37.7001 62.3895 37.8901C61.7695 38.3001 61.1594 38.7101 60.5494 39.1401C60.2094 39.3801 59.8796 39.6301 59.5396 39.8801C58.9995 40.2701 58.4695 40.6701 57.9395 41.0801C57.5895 41.3501 57.2395 41.6301 56.8895 41.9201C56.3895 42.3201 55.8895 42.7301 55.3895 43.1501C55.0395 43.4501 54.6895 43.7501 54.3395 44.0501C53.8595 44.4701 53.3795 44.9001 52.8995 45.3401C52.5495 45.6601 52.2095 45.9701 51.8695 46.3001C51.4895 46.6601 51.1095 47.0401 50.7295 47.4101C50.0995 48.0301 49.4895 48.6601 48.8795 49.3001C48.5595 49.6401 48.2394 49.9801 47.9194 50.3201C47.2494 51.0501 46.5995 51.7901 45.9595 52.5501C45.7195 52.8301 45.4695 53.1101 45.2295 53.3901C44.9795 53.7001 44.7295 54.0101 44.4795 54.3301C44.0195 54.9101 43.5495 55.4901 43.0995 56.0801C42.8195 56.4401 42.5596 56.8101 42.2896 57.1801C41.7596 57.9001 41.2295 58.6201 40.7195 59.3701C39.9795 60.4601 39.2695 61.5501 38.5895 62.6601C38.0495 63.5401 37.5195 64.4301 37.0095 65.3201C36.8895 65.5301 36.7795 65.7401 36.6595 65.9501C36.3395 66.5301 36.0295 67.1201 35.7195 67.7001C35.2695 68.5501 34.8495 69.4101 34.4395 70.2601C34.2595 70.6401 34.0695 71.0201 33.8895 71.4101C33.4295 72.4001 32.9995 73.4001 32.5895 74.3901C32.5095 74.5901 32.4095 74.8001 32.3295 75.0001C31.8595 76.1801 31.4195 77.3601 30.9995 78.5401C30.8795 78.8801 30.7795 79.2301 30.6595 79.5701C30.3795 80.4101 30.1095 81.2601 29.8595 82.1001C29.7295 82.5401 29.6095 82.9801 29.4895 83.4201C29.2795 84.1801 29.0795 84.9401 28.8895 85.7001C28.7795 86.1601 28.6695 86.6301 28.5695 87.0901C28.3995 87.8501 28.2395 88.6101 28.0995 89.3801C28.0095 89.8301 27.9295 90.2801 27.8495 90.7401C27.6995 91.6401 27.5595 92.5401 27.4395 93.4301C27.3895 93.7701 27.3394 94.1101 27.2994 94.4501C27.1494 95.7201 27.0295 96.9901 26.9395 98.2601C26.9195 98.5101 26.9195 98.7701 26.8995 99.0201C26.8395 100.12 26.7996 101.21 26.7896 102.3C26.7896 102.68 26.7896 103.06 26.7896 103.43C26.7896 104.86 26.8294 106.29 26.9194 107.71C26.9194 107.71 26.9194 107.72 26.9194 107.73C26.9194 107.76 26.9194 107.78 26.9194 107.81C26.9894 108.78 27.0694 109.75 27.1794 110.72C27.2194 111.04 27.2594 111.37 27.2994 111.69C27.3794 112.33 27.4694 112.98 27.5594 113.61C27.6594 114.25 27.7795 114.89 27.8995 115.53C27.9795 115.97 28.0595 116.42 28.1495 116.86C28.2895 117.54 28.4495 118.21 28.6095 118.88C28.7095 119.28 28.7895 119.68 28.8895 120.08C28.9595 120.33 29.0295 120.57 29.0995 120.82C29.2895 121.5 29.4795 122.18 29.6895 122.85C29.7895 123.17 29.8995 123.49 29.9995 123.81C30.1995 124.41 30.3995 125.01 30.6195 125.6C30.7395 125.92 30.8595 126.25 30.9795 126.57C31.2195 127.19 31.4695 127.8 31.7195 128.41C31.8295 128.68 31.9394 128.95 32.0594 129.22C32.4394 130.09 32.8395 130.95 33.2595 131.79C33.2895 131.85 33.3195 131.91 33.3495 131.97C33.7395 132.75 34.1595 133.52 34.5795 134.29C34.7295 134.56 34.8896 134.82 35.0396 135.08C35.3596 135.64 35.6896 136.19 36.0396 136.73C36.2196 137.02 36.4095 137.31 36.5995 137.6C36.9395 138.12 37.2995 138.64 37.6595 139.15C37.8495 139.42 38.0395 139.69 38.2295 139.95C38.6595 140.53 39.0994 141.11 39.5494 141.68C39.6894 141.85 39.8195 142.03 39.9595 142.2C40.5495 142.93 41.1694 143.65 41.7994 144.35C41.9594 144.53 42.1296 144.7 42.2896 144.87C42.7696 145.39 43.2695 145.91 43.7695 146.41C44.0095 146.65 44.2495 146.88 44.4895 147.11C44.9495 147.55 45.4095 147.98 45.8895 148.4C46.1495 148.63 46.4094 148.86 46.6794 149.09C47.1794 149.52 47.6895 149.94 48.2095 150.35C48.4495 150.54 48.6894 150.74 48.9294 150.93C49.6894 151.52 50.4695 152.09 51.2795 152.64C51.2795 152.64 51.2796 152.64 51.2896 152.64L39.9995 144.9C39.1895 144.35 38.4095 143.77 37.6395 143.18C37.3995 142.99 37.1594 142.8 36.9194 142.61C36.3994 142.2 35.8795 141.78 35.3795 141.34C35.1195 141.11 34.8595 140.88 34.5995 140.65C34.1195 140.23 33.6595 139.79 33.1995 139.36C32.9595 139.13 32.7195 138.9 32.4795 138.67C31.9695 138.16 31.4795 137.65 30.9895 137.12C30.8295 136.95 30.6595 136.78 30.4995 136.6C29.8695 135.9 29.2495 135.18 28.6595 134.45C28.5195 134.28 28.3895 134.1 28.2595 133.93C27.8095 133.36 27.3595 132.79 26.9395 132.2C26.7495 131.93 26.5595 131.67 26.3695 131.4C26.0095 130.89 25.6494 130.37 25.3094 129.84C25.1194 129.55 24.9395 129.27 24.7495 128.98C24.4095 128.43 24.0795 127.88 23.7495 127.32C23.5995 127.06 23.4396 126.8 23.2896 126.53C22.8596 125.77 22.4494 124.99 22.0594 124.21C22.0294 124.15 21.9995 124.09 21.9695 124.03C21.5495 123.18 21.1495 122.33 20.7695 121.46C20.6495 121.19 20.5394 120.92 20.4294 120.65C20.1694 120.04 19.9195 119.43 19.6895 118.81C19.5695 118.49 19.4495 118.17 19.3295 117.84C19.1095 117.25 18.9095 116.65 18.7095 116.05C18.5995 115.73 18.4995 115.41 18.3995 115.09C18.1895 114.42 17.9994 113.74 17.8094 113.06C17.7394 112.81 17.6695 112.57 17.5995 112.32C17.5795 112.26 17.5594 112.19 17.5494 112.13C17.4594 111.8 17.3995 111.46 17.3195 111.13C17.1595 110.46 16.9995 109.79 16.8595 109.11C16.7695 108.67 16.6895 108.23 16.6095 107.78C16.4895 107.14 16.3695 106.51 16.2695 105.87C16.2495 105.73 16.2195 105.6 16.1995 105.46C16.1295 104.96 16.0695 104.45 16.0095 103.94C15.9695 103.62 15.9195 103.3 15.8895 102.97C15.7795 102.01 15.6895 101.04 15.6295 100.06C15.6295 100.03 15.6295 100.01 15.6295 99.9801C15.6295 99.9801 15.6295 99.9701 15.6295 99.9601C15.5395 98.5401 15.4995 97.1101 15.4995 95.6801C15.4995 95.5001 15.4795 95.3201 15.4795 95.1401C15.4795 94.9401 15.4995 94.7501 15.4995 94.5501C15.5095 93.4601 15.5495 92.3601 15.6095 91.2701C15.6195 91.0801 15.6095 90.8801 15.6295 90.6901C15.6295 90.6301 15.6395 90.5701 15.6495 90.5101C15.7395 89.2401 15.8595 87.9701 16.0095 86.7001C16.0095 86.6301 16.0195 86.5501 16.0295 86.4801C16.0595 86.2101 16.1195 85.9401 16.1495 85.6801C16.2695 84.7801 16.3994 83.8801 16.5594 82.9901C16.5894 82.8101 16.6095 82.6301 16.6395 82.4601C16.6895 82.1901 16.7594 81.9101 16.8094 81.6401C16.9594 80.8801 17.1095 80.1201 17.2795 79.3501C17.3395 79.0901 17.3795 78.8401 17.4395 78.5801C17.4895 78.3701 17.5495 78.1601 17.5995 77.9501C17.7895 77.1901 17.9895 76.4301 18.1995 75.6701C18.2795 75.3601 18.3495 75.0601 18.4395 74.7501C18.4795 74.6201 18.5295 74.4801 18.5695 74.3501C18.8195 73.5001 19.0895 72.6601 19.3695 71.8201C19.4695 71.5301 19.5395 71.2501 19.6395 70.9601C19.6595 70.9001 19.6795 70.8501 19.6995 70.7901C20.1095 69.6001 20.5495 68.4201 21.0295 67.2501C21.0395 67.2201 21.0494 67.1901 21.0594 67.1701C21.1294 66.9901 21.2196 66.8201 21.2896 66.6401C21.6996 65.6401 22.1295 64.6501 22.5895 63.6601C22.6495 63.5401 22.6895 63.4101 22.7495 63.2901C22.8695 63.0301 23.0095 62.7701 23.1395 62.5101C23.5495 61.6501 23.9794 60.8001 24.4194 59.9501C24.5294 59.7301 24.6295 59.5101 24.7495 59.2901C24.9495 58.9201 25.1595 58.5601 25.3595 58.1901C25.4795 57.9801 25.5895 57.7701 25.7095 57.5601C26.1795 56.7301 26.6595 55.9101 27.1595 55.0901C27.1995 55.0301 27.2395 54.9601 27.2795 54.9001C27.9595 53.7901 28.6695 52.7001 29.4095 51.6101C29.6595 51.2501 29.8995 50.9001 30.1495 50.5401L30.1794 50.5501Z" fill="#FFAA00"/>
<path d="M142.148 128.857C164.307 96.5197 159.568 54.7484 131.562 35.5586C103.557 16.3688 62.8918 27.0273 40.7331 59.3649C18.5745 91.7026 23.3139 133.474 51.3189 152.664C79.3239 171.853 119.99 161.195 142.148 128.857Z" fill="#FFDA3E"/>
<path d="M135.203 124.098C154.327 96.1885 150.237 60.1379 126.068 43.5767C101.899 27.0155 66.8032 36.215 47.6789 64.1243C28.5547 92.0337 32.6442 128.084 56.8132 144.645C80.9822 161.207 116.078 152.007 135.203 124.098Z" stroke="#FFAE00" stroke-width="1.85" stroke-miterlimit="10"/>
<path d="M54.2395 154.52C61.5495 158.94 69.9295 161.54 78.4695 162.21C87.0095 162.86 95.6695 161.63 103.77 158.87C111.89 156.12 119.479 151.88 126.189 146.55C132.899 141.21 138.709 134.76 143.419 127.6C152.839 113.29 157.649 95.84 156.059 78.7401C155.269 70.2201 152.849 61.8101 148.709 54.3101C144.559 46.8201 138.659 40.3 131.569 35.54C138.589 40.41 144.36 46.9901 148.38 54.4901C152.45 61.9701 154.809 70.32 155.559 78.79C157.049 95.77 152.18 113.05 142.79 127.19C138.16 134.31 132.429 140.73 125.799 146.06C119.169 151.38 111.659 155.62 103.609 158.4C95.5695 161.18 86.9895 162.43 78.4995 161.84C70.0095 161.3 61.6195 158.84 54.2495 154.52H54.2395Z" fill="#EDB400"/>
<path d="M93.7795 66.5204L65.3195 108.05L59.5895 104.12L83.1895 69.6804L74.3595 67.3604L74.3195 67.0004L78.6295 60.7104L88.8195 63.1204L93.7695 66.5104L93.7795 66.5204Z" fill="#F2A100"/>
<path d="M84.2195 91.4102C94.0195 77.1002 104.62 72.6702 113.9 79.0202C122.74 85.0702 122.67 96.7302 113.74 109.76C103.94 124.07 93.3896 128.53 84.1596 122.21C75.2296 116.09 75.2495 104.49 84.2295 91.4002L84.2195 91.4102ZM107.669 106.12C114.229 96.5402 114.79 89.3802 109.35 85.6602C103.77 81.8302 97.1195 85.0802 90.3195 95.0002C83.8795 104.4 83.2595 111.86 88.6995 115.59C94.1895 119.35 100.909 115.99 107.669 106.12Z" fill="#F2A100"/>
</svg>
