<svg width="218" height="129" viewBox="0 0 218 129" fill="none" xmlns="http://www.w3.org/2000/svg">
<path d="M216.78 4.9707L216.54 5.03076C216.65 5.04076 216.74 5.0307 216.78 4.9707Z" fill="#20BB65"/>
<path d="M209.88 24.4404C209.88 24.4404 209.9 24.4705 209.91 24.4805C209.91 24.4605 209.89 24.4504 209.88 24.4404Z" fill="#20BB65"/>
<path d="M208.61 6.72046C208.61 6.72046 208.58 6.70043 208.56 6.69043L208.61 6.72046Z" fill="#20BB65"/>
<path d="M209.69 3.38076C209.34 4.27076 208.21 4.37072 208.54 5.34072C208.38 5.76072 208.54 6.26073 208.61 6.72073C209.42 7.08073 208.5 7.2808 209.15 7.6708H208.66C208.88 7.8008 209.02 7.93072 208.75 7.96072L208.62 7.9208C208.95 8.1208 208.71 8.2207 208.87 8.3207L208.73 8.28079L208.76 8.45071L208.57 8.38076C208.9 8.69076 208.86 8.9207 208.64 9.0707L209.21 9.20071C208.47 9.46071 209.59 9.93074 208.74 10.1107L208.61 10.0707C209.95 10.9907 207.38 10.5207 208.61 11.4407C208.46 11.3207 208.32 11.3707 208.18 11.3307C208.27 11.6107 208.27 11.8808 209.35 12.2508C209.28 12.4208 208.96 12.2708 208.54 12.1508C209.01 12.3108 209.16 12.5308 209.14 12.6708L208.98 12.5508L209 12.9807L209.91 13.2207C209.58 13.3307 208.81 12.8808 208.95 13.1508L209.68 13.4208C209.43 13.6508 208.26 13.4007 207.63 13.4507C207.26 13.9207 207.41 14.6308 207.44 15.3008C207.44 15.9608 207.33 16.5708 206.49 16.7608L205.94 16.5408C205.16 16.1808 206.94 17.3708 206.21 17.0508L206.5 17.3407C206.35 17.3007 206.17 17.3008 206.02 17.1508C205.94 17.2408 206.06 17.3008 206.25 17.5008L205.72 17.3708C205.14 17.5807 205.88 18.4207 205.45 18.7407C204.22 18.7207 204.55 20.1508 204.69 21.0108C205 21.7408 204.28 21.8808 203.58 22.0008C202.88 22.1308 202.23 22.2508 202.55 23.0408C202.43 22.9908 202.61 23.2108 202.69 23.2708L202.1 23.8808C202.1 23.8808 201.94 24.0808 201.8 24.3908C201.66 24.7008 201.55 25.1408 201.67 25.6508C201.93 26.6408 203.02 27.9908 206.89 28.7908L207.02 28.9208C207.7 28.7808 207.99 28.5707 207.44 27.7207C208.4 28.3507 207.79 27.4408 208.16 27.5608L208.23 27.6208C207.69 26.8507 209.22 27.5108 208.75 26.8008C208.82 26.8608 209.07 27.0508 209.05 27.1208C209.06 26.8507 209.02 26.4508 209.58 26.8108C209.74 26.2608 210.42 25.7908 209.71 24.9208L209.85 25.0408C209.34 24.4808 209.89 24.7708 209.7 24.3808C209.78 24.4208 209.83 24.4307 209.86 24.4507C209.37 23.8907 210.09 23.8608 209.92 23.5608L210.31 23.7808L210.44 23.3607L210.27 23.4507C209.24 22.7807 211.1 23.5708 210.57 22.9008C210.85 22.7208 208.65 21.1308 209.31 21.1808C208.88 20.7808 210.06 21.7407 209.78 21.3507C210.34 21.6607 210.08 21.6307 210.55 21.8307C210.39 21.5007 211.29 21.8508 211.04 21.4208L211.48 21.6508C210.85 20.9308 212.35 21.3908 211.69 20.7908C211.48 20.2908 213.11 21.2607 212.41 20.4907L213.08 20.6708C213.25 20.5808 212.39 20.2007 212.77 20.1907C213.15 20.3907 213.17 20.1408 213.49 20.4108C214.27 20.3408 212.99 19.2708 214.23 19.2708C213.53 18.8208 214.09 18.7907 213.56 18.4507C213.89 18.5907 213.83 17.9907 214.42 18.5807C214.47 18.6307 214.44 18.6707 214.31 18.6107L214.74 18.8407C215.72 18.9407 214.5 18.1308 214.74 17.9108C214.56 17.9308 214.55 18.0507 214.27 17.8507L214.44 17.6208L214.8 17.8307L215.18 17.5408L214.69 17.4008C215.01 17.3108 215.84 17.5707 215.26 17.0907C214.93 16.8407 214.55 17.0108 214.48 16.7508C214.91 16.6408 215.55 16.4508 215.8 16.1708C215.25 16.0008 215.3 15.9208 215.23 15.7908L215.7 15.9507C215.18 15.3607 216.77 16.2008 216.39 15.6608L216.71 15.8108L215.76 15.3607C214.94 14.7207 216.8 15.5407 215.65 14.7407C215.68 14.9007 214.59 14.4407 214.85 14.3507L215.29 14.5508C215.23 14.4308 215.05 14.3308 215.16 14.3008C215.39 14.4408 215.81 14.5608 215.78 14.3908L216.32 14.6808L215.57 14.1408C216.12 14.1008 215.61 13.5807 216.28 13.7107C216.28 13.7107 216.74 13.3708 216.06 13.0508C216.47 13.2708 216.72 13.0808 217.21 13.3108C216.75 13.0408 216.45 12.5907 217.01 12.6107L217.06 12.6508C217.74 12.2908 216.54 11.5808 217.33 11.3108C216.76 11.1908 217.13 11.0308 216.4 10.9108C215.82 10.2908 218.06 10.4007 215.88 9.72073C215.81 9.49073 216.46 9.59076 216.59 9.50076L216.7 9.58071C216.6 9.14071 216.61 9.03075 216.72 8.74075C216.53 8.55075 215.5 8.33075 215.79 8.12075C216.19 8.28075 216.13 8.16081 216.15 8.06081C216.2 8.13081 216.35 8.18073 216.65 8.10073C216.52 8.06073 216.45 8.02074 216.39 7.98074C216.42 7.98074 216.45 7.98076 216.49 8.00076C216.37 7.81076 216.24 7.82076 216.17 7.88076C216.11 7.86076 216.03 7.86074 215.91 7.86074C216.47 7.79074 215.95 7.38074 216.67 7.48074C216.58 6.95074 215.92 6.4908 215.68 6.0508C216.05 6.0508 216.37 6.19071 216.5 6.33071L216.4 6.02078C216.93 6.09078 216.69 6.23071 216.78 6.33071C217.68 6.09071 216.01 5.5007 216.84 5.1907L216.43 5.06081L216.5 5.04079C216.28 5.02079 215.98 4.89071 215.92 4.83071C216.39 4.83071 216.99 4.95075 216.99 4.74075C217.46 4.62075 216.81 4.26079 216.57 4.03079C216.48 4.14078 216.23 4.08078 216.07 4.02078C216.07 3.92078 216.53 3.9008 216.33 3.8008L216.96 3.84072C216.37 3.84072 216.34 3.53073 216.08 3.47073C216.55 3.44073 216.47 3.65071 216.82 3.70071C216.79 3.29071 216.8 3.49071 216.77 3.08071C216.31 2.84071 216.17 3.08071 215.63 2.95071C215.52 2.76071 215.09 2.56074 215.48 2.36074L214.92 2.40078C214.5 2.04078 214.56 1.84075 215.13 1.62075C212.87 0.310751 211.31 0.270697 210.33 0.440697C209.34 0.620697 208.92 1.04079 208.92 1.04079C207.68 1.86079 209.29 2.31078 209.65 3.40078L209.69 3.38076Z" fill="#20BB65"/>
<path d="M186.67 45.9412L186.49 45.7812C186.54 45.8713 186.61 45.9412 186.67 45.9412Z" fill="#20BB65"/>
<path d="M180.31 40.4907C180.31 40.4907 180.31 40.4507 180.3 40.4307V40.4907H180.31Z" fill="#20BB65"/>
<path d="M183.87 39.2409C182.88 39.4909 182.12 38.661 181.47 39.541C181.01 39.691 180.67 40.1509 180.32 40.4909C180.52 41.3509 179.78 40.781 179.86 41.541L179.55 41.1609C179.58 41.4208 179.55 41.6109 179.36 41.4209L179.3 41.291C179.34 41.681 179.11 41.5509 179.13 41.7509L179.07 41.6211L178.95 41.7509L178.89 41.561C178.85 42.011 178.64 42.141 178.36 42.081L178.63 42.591C177.93 42.211 178.29 43.371 177.58 42.861L177.52 42.7309C177.69 44.3509 176.31 42.1409 176.43 43.6909C176.42 43.5009 176.28 43.431 176.22 43.301C176.06 43.561 175.85 43.751 176.31 44.791C176.13 44.851 176.02 44.5308 175.82 44.1408C176.03 44.6008 175.96 44.8509 175.84 44.9409L175.82 44.7409L175.51 45.061L175.97 45.8908C175.66 45.7308 175.45 44.8608 175.35 45.1608L175.67 45.8711C175.32 45.8511 174.68 44.8409 174.19 44.4309C172.94 44.6009 172.46 46.951 170.88 46.101L170.62 45.571C170.29 44.781 170.79 46.8708 170.46 46.1408L170.48 46.551C170.39 46.421 170.26 46.301 170.25 46.091C170.12 46.101 170.17 46.2409 170.18 46.5109L169.86 46.061C169.26 45.851 169.24 46.9609 168.68 46.9409C167.72 46.1409 166.99 47.4709 166.54 48.2409C166.06 49.7709 163.91 46.891 163.47 48.591C163.4 48.481 163.41 48.771 163.44 48.861L162.56 49.021C162.56 49.021 161.51 49.2709 161.12 50.2509C160.73 51.2209 160.96 52.931 163.65 55.801L163.69 55.9809C164.31 56.2609 164.65 56.2609 164.68 55.2509C165.09 56.3309 165.11 55.231 165.34 55.551L165.36 55.6408C165.37 54.7008 166.2 56.141 166.23 55.291C166.25 55.381 166.34 55.6809 166.28 55.7209C166.44 55.5109 166.64 55.171 166.87 55.801C167.3 55.471 168.09 55.5308 168.05 54.4008L168.09 54.581C168.03 53.831 168.29 54.4009 168.36 53.9809C168.4 54.0609 168.43 54.1008 168.44 54.1308C168.4 53.3908 168.97 53.8209 169.02 53.4809L169.18 53.9008L169.53 53.6709L169.35 53.6308C168.98 52.4608 169.9 54.2508 169.91 53.4008C170.23 53.4508 169.56 50.821 170.03 51.281C169.96 50.701 170.24 52.2009 170.28 51.7109C170.51 52.3109 170.33 52.121 170.56 52.581C170.64 52.231 171.1 53.081 171.18 52.581L171.36 53.041C171.34 52.081 172.17 53.431 172.06 52.541C172.23 52.041 172.8 53.841 172.78 52.801L173.15 53.3808C173.33 53.4308 172.95 52.571 173.23 52.821C173.38 53.221 173.55 53.0609 173.61 53.4709C174.21 53.9509 173.98 52.3109 174.86 53.1609C174.65 52.3609 175.07 52.721 174.91 52.111C175.06 52.441 175.4 51.981 175.43 52.801C175.43 52.871 175.39 52.8709 175.34 52.7409L175.49 53.2009C176.11 53.9509 175.78 52.531 176.09 52.551C175.95 52.431 175.86 52.5209 175.8 52.1809L176.07 52.1408L176.18 52.541L176.64 52.611L176.39 52.1608C176.67 52.3308 177.07 53.101 176.99 52.351C176.92 51.941 176.55 51.791 176.68 51.561C177.05 51.781 177.61 52.1111 177.98 52.1211C177.72 51.6111 177.81 51.5909 177.85 51.4509L178.06 51.9008C178.1 51.1308 178.62 52.8509 178.72 52.2109L178.83 52.541L178.49 51.551C178.37 50.521 179.07 52.431 178.83 51.061C178.74 51.191 178.32 50.0809 178.56 50.2109L178.72 50.6709C178.76 50.5409 178.71 50.3408 178.81 50.4108C178.87 50.6708 179.07 51.0609 179.16 50.9309L179.32 51.521L179.19 50.601C179.59 50.991 179.6 50.261 179.96 50.851C179.96 50.851 180.49 50.9709 180.27 50.2609C180.39 50.7109 180.68 50.771 180.85 51.291C180.73 50.771 180.85 50.2509 181.21 50.6909V50.7609C181.91 51.0609 181.63 49.6911 182.33 50.1211C182.06 49.6111 182.41 49.7908 182.03 49.1508C182.11 48.3008 183.44 50.1209 182.56 48.0109C182.69 47.8109 183.02 48.3809 183.17 48.4309V48.561C183.44 48.221 183.53 48.151 183.81 48.061C183.83 47.801 183.36 46.8509 183.71 46.9609C183.83 47.3709 183.89 47.2509 183.97 47.2109C183.95 47.3009 184 47.4408 184.25 47.6308C184.2 47.5108 184.19 47.421 184.18 47.351C184.2 47.381 184.21 47.4009 184.23 47.4409C184.3 47.2309 184.22 47.131 184.12 47.111C184.09 47.051 184.05 46.9808 183.97 46.8908C184.37 47.2908 184.36 46.641 184.72 47.271C185.06 46.891 185.01 46.0808 185.22 45.6408C185.44 45.9408 185.52 46.2809 185.49 46.4609L185.67 46.2009C185.93 46.6709 185.67 46.5509 185.65 46.6909C186.37 47.2809 185.84 45.591 186.57 46.091L186.43 45.6809L186.49 45.7309C186.38 45.5409 186.3 45.2308 186.32 45.1408C186.6 45.5208 186.85 46.0809 187.01 45.9509C187.37 46.2709 187.28 45.5409 187.33 45.2109C187.2 45.2009 187.1 44.961 187.05 44.791C187.13 44.731 187.41 45.1008 187.37 44.8908L187.7 45.4309C187.37 44.9409 187.59 44.7509 187.49 44.5109C187.78 44.8809 187.56 44.9309 187.72 45.2509C188.03 45.0009 187.87 45.1211 188.18 44.8711C188.12 44.3611 187.84 44.381 187.64 43.851C187.73 43.651 187.66 43.1808 188.03 43.4008L187.68 42.9609C187.74 42.4109 187.95 42.3609 188.44 42.7209C188.3 40.1209 187.54 38.761 186.86 38.021C186.18 37.281 185.57 37.171 185.57 37.171C184.14 36.611 184.6 38.2409 183.86 39.1809L183.87 39.2409Z" fill="#20BB65"/>
<path d="M138.96 62.7507L138.82 62.5508C138.85 62.6508 138.89 62.7407 138.96 62.7507Z" fill="#20BB65"/>
<path d="M137.94 55.5507C136.87 55.5607 136.32 54.5907 135.4 55.3107C134.88 55.3707 134.43 55.7606 133.98 56.0206C133.98 56.9006 133.35 56.2106 133.27 56.9706L133.04 56.5406C133.01 56.8006 132.95 56.9906 132.78 56.7706L132.75 56.6305C132.71 57.0205 132.49 56.8607 132.47 57.0507L132.44 56.9105L132.29 57.0206L132.26 56.8207C132.12 57.2607 131.88 57.3606 131.61 57.2506L131.79 57.8007C131.14 57.3107 131.3 58.5205 130.66 57.9005L130.63 57.7606C130.51 59.3906 129.5 57.0007 129.34 58.5607C129.36 58.3707 129.23 58.2805 129.2 58.1405C128.99 58.3705 128.74 58.5305 129.05 59.6305C128.86 59.6705 128.8 59.3305 128.66 58.9105C128.8 59.3905 128.69 59.6406 128.56 59.7106V59.5006L128.21 59.7806L128.55 60.6605C128.26 60.4605 128.18 59.5707 128.03 59.8507L128.25 60.6007C127.9 60.5407 127.4 59.4506 126.94 58.9806C125.62 59.0106 124.86 61.3007 123.33 60.3007L123.12 59.7506C122.86 58.9306 123.16 61.0607 122.89 60.3107L122.87 60.7206C122.79 60.5806 122.67 60.4506 122.68 60.2406C122.55 60.2406 122.58 60.3805 122.57 60.6505L122.29 60.1805C121.69 59.9205 121.57 61.0306 121 60.9706C120.08 60.1006 119.21 61.3905 118.71 62.1405C118.14 63.6305 116.08 60.6707 115.55 62.3507C115.48 62.2407 115.48 62.5307 115.51 62.6207L114.6 62.7506C114.6 62.7506 110.27 63.6406 115.54 69.5306L115.57 69.7106C116.18 70.0106 116.5 70.0206 116.56 69.0206C116.94 70.1106 116.99 69.0207 117.2 69.3507L117.22 69.4405C117.26 68.5105 118.03 69.9805 118.08 69.1405C118.1 69.2305 118.18 69.5407 118.12 69.5707C118.28 69.3707 118.49 69.0505 118.69 69.6905C119.13 69.3805 119.89 69.4907 119.9 68.3707L119.93 68.5507C119.9 67.8107 120.13 68.3806 120.22 67.9706C120.26 68.0506 120.28 68.0905 120.29 68.1305C120.29 67.3905 120.82 67.8606 120.89 67.5306L121.03 67.9506L121.39 67.7406L121.22 67.6905C120.92 66.5005 121.73 68.3406 121.78 67.5006C122.08 67.5706 121.59 64.9105 122.03 65.4005C122 64.8105 122.18 66.3307 122.25 65.8507C122.44 66.4607 122.27 66.2606 122.47 66.7306C122.58 66.3906 122.97 67.2706 123.08 66.7906L123.23 67.2606C123.28 66.3006 123.99 67.7207 123.95 66.8307C124.15 66.3507 124.58 68.1905 124.63 67.1605L124.95 67.7706C125.12 67.8306 124.82 66.9506 125.07 67.2206C125.18 67.6306 125.36 67.4905 125.38 67.9005C125.92 68.4405 125.83 66.7906 126.61 67.7406C126.48 66.9206 126.85 67.3206 126.75 66.7106C126.86 67.0506 127.23 66.6306 127.19 67.4606C127.19 67.5306 127.14 67.5305 127.11 67.3905L127.21 67.8707C127.73 68.6807 127.55 67.2407 127.85 67.3107C127.73 67.1807 127.64 67.2505 127.61 66.9005H127.87L127.93 67.3007L128.36 67.4305L128.17 66.9506C128.42 67.1506 128.72 67.9706 128.72 67.2106C128.7 66.8006 128.36 66.6005 128.51 66.3905C128.84 66.6605 129.34 67.0607 129.69 67.1207C129.5 66.5807 129.59 66.5705 129.64 66.4405L129.79 66.9205C129.92 66.1605 130.21 67.9407 130.38 67.3207L130.45 67.6605L130.25 66.6405C130.27 65.6105 130.69 67.5906 130.64 66.2006C130.54 66.3206 130.28 65.1607 130.49 65.3307L130.58 65.8007C130.64 65.6807 130.61 65.4807 130.7 65.5607C130.72 65.8207 130.87 66.2407 130.97 66.1207L131.05 66.7206V65.8007C131.37 66.2407 131.49 65.5405 131.75 66.1705C131.75 66.1705 132.24 66.3805 132.13 65.6405C132.18 66.1105 132.44 66.2106 132.53 66.7506C132.49 66.2206 132.68 65.7206 132.95 66.2206V66.2906C133.55 66.7106 133.5 65.3207 134.09 65.8707C133.91 65.3207 134.21 65.5607 133.96 64.8607C134.18 64.0407 135.13 66.0907 134.66 63.8507C134.82 63.6807 135.03 64.3005 135.16 64.3905V64.5206C135.45 64.2406 135.55 64.1905 135.83 64.1605C135.9 63.9105 135.64 62.8807 135.94 63.0607C135.98 63.4907 136.05 63.3907 136.14 63.3607C136.1 63.4407 136.13 63.5907 136.32 63.8307C136.3 63.7007 136.3 63.6206 136.32 63.5406C136.33 63.5706 136.34 63.6005 136.35 63.6405C136.46 63.4505 136.4 63.3407 136.31 63.3007C136.3 63.2407 136.27 63.1607 136.22 63.0507C136.52 63.5307 136.64 62.8907 136.85 63.5807C137.25 63.2907 137.37 62.4807 137.66 62.1007C137.8 62.4507 137.8 62.7906 137.73 62.9606L137.96 62.7506C138.1 63.2706 137.89 63.0906 137.84 63.2206C138.38 63.9706 138.25 62.2007 138.83 62.8607L138.79 62.4305L138.83 62.4906C138.77 62.2706 138.77 61.9607 138.81 61.8707C138.99 62.3107 139.09 62.9107 139.27 62.8307C139.53 63.2207 139.62 62.5006 139.74 62.2006C139.62 62.1506 139.58 61.8906 139.58 61.7206C139.67 61.6806 139.84 62.1105 139.86 61.9005L140.04 62.5106C139.85 61.9506 140.11 61.8207 140.07 61.5707C140.25 62.0107 140.04 62.0007 140.11 62.3407C140.46 62.1807 140.28 62.2607 140.63 62.1007C140.7 61.5907 140.44 61.5406 140.38 60.9806C140.52 60.8106 140.57 60.3405 140.87 60.6505L140.66 60.1305C140.87 59.6205 141.08 59.6307 141.45 60.1107C142.66 55.0307 140.32 53.9606 140.32 53.9606C139.04 53.0406 138.98 54.7506 137.96 55.4906L137.94 55.5507Z" fill="#20BB65"/>
<path d="M91.2997 77.2109L91.1498 77.021C91.1898 77.121 91.2297 77.2009 91.2997 77.2109Z" fill="#20BB65"/>
<path d="M89.8297 70.091C88.7597 70.161 88.1397 69.2309 87.2597 70.0009C86.7397 70.0909 86.3097 70.5009 85.8797 70.7909C85.9397 71.6709 85.2597 71.0209 85.2297 71.7809L84.9697 71.361C84.9597 71.621 84.9097 71.811 84.7297 71.601L84.6897 71.4709C84.6697 71.8609 84.4497 71.7108 84.4397 71.9108L84.3998 71.7809L84.2497 71.9008L84.2098 71.7008C84.0998 72.1508 83.8598 72.2608 83.5898 72.1708L83.7997 72.7108C83.1197 72.2708 83.3597 73.4608 82.6797 72.8808L82.6397 72.7509C82.6397 74.3809 81.4498 72.0708 81.3998 73.6408C81.3998 73.4408 81.2697 73.3709 81.2297 73.2409C81.0397 73.4909 80.7997 73.6709 81.1897 74.7409C80.9997 74.7909 80.9197 74.4609 80.7397 74.0509C80.9097 74.5209 80.8297 74.771 80.6897 74.851V74.6408L80.3398 74.9508L80.7397 75.8109C80.4297 75.6309 80.2897 74.7509 80.1597 75.0409L80.4297 75.7709C80.0797 75.7309 79.4897 74.6909 79.0097 74.2509C77.6897 74.3809 77.0997 76.731 75.4997 75.871L75.2397 75.341C74.9097 74.551 75.3797 76.6408 75.0597 75.9208V76.341C74.9797 76.211 74.8398 76.0908 74.8398 75.8808C74.7098 75.8908 74.7597 76.0309 74.7597 76.3009L74.4397 75.851C73.8197 75.641 73.7798 76.7609 73.2098 76.7609C72.2198 75.9809 71.4597 77.3408 71.0197 78.1408C70.5897 79.6908 68.2697 76.9308 67.8797 78.6708C67.7997 78.5708 67.8297 78.8508 67.8697 78.9508L66.9797 79.1808C66.9797 79.1808 65.9198 79.5209 65.5898 80.5309C65.2598 81.5409 65.6697 83.201 68.5497 85.861L68.5997 86.0409C69.2297 86.2709 69.5497 86.2509 69.5097 85.2509C69.9897 86.3009 69.9297 85.2109 70.1797 85.5109L70.2098 85.601C70.1598 84.661 71.0598 86.0508 71.0298 85.2108C71.0498 85.3008 71.1697 85.6008 71.1097 85.6408C71.2497 85.4308 71.4197 85.0808 71.6897 85.7008C72.0897 85.3508 72.8597 85.3809 72.7597 84.2709L72.8097 84.4508C72.7197 83.7108 72.9897 84.261 73.0497 83.851C73.0897 83.931 73.1197 83.9609 73.1297 84.0009C73.0597 83.2609 73.6297 83.681 73.6697 83.341L73.8398 83.7509L74.1697 83.5109L73.9997 83.4809C73.5997 82.3209 74.5597 84.0809 74.5397 83.2409C74.8497 83.2909 74.1297 80.671 74.6097 81.121C74.5297 80.541 74.8397 82.0309 74.8597 81.5509C75.0997 82.1409 74.9198 81.9608 75.1498 82.4108C75.2298 82.0608 75.6897 82.9008 75.7597 82.4108L75.9497 82.871C75.9197 81.911 76.7397 83.2708 76.6297 82.3808C76.7897 81.8808 77.3597 83.6808 77.3297 82.6508L77.6897 83.2309C77.8597 83.2809 77.4897 82.4208 77.7597 82.6708C77.8997 83.0708 78.0697 82.911 78.1297 83.321C78.7097 83.811 78.4897 82.1809 79.3297 83.0609C79.1397 82.2509 79.5397 82.6309 79.3897 82.0209C79.5297 82.3509 79.8597 81.9009 79.8797 82.7309C79.8797 82.8009 79.8397 82.8008 79.7897 82.6708L79.9297 83.1408C80.5097 83.9108 80.2197 82.4909 80.5197 82.5309C80.3897 82.4109 80.2997 82.4808 80.2497 82.1408L80.5097 82.111L80.5997 82.5109L81.0397 82.601L80.8097 82.1408C81.0697 82.3208 81.4397 83.111 81.3797 82.361C81.3297 81.951 80.9797 81.7809 81.0997 81.5609C81.4497 81.8009 81.9797 82.1608 82.3197 82.2008C82.0897 81.6708 82.1797 81.6609 82.2197 81.5209L82.3998 81.9809C82.4698 81.2209 82.8897 82.971 83.0097 82.341L83.0997 82.6808L82.8197 81.6708C82.7597 80.6408 83.3297 82.5808 83.1697 81.2108C83.0797 81.3308 82.7298 80.201 82.9598 80.351L83.0898 80.821C83.1398 80.691 83.0897 80.491 83.1897 80.571C83.2297 80.831 83.3997 81.241 83.4997 81.111L83.6197 81.7008L83.5497 80.7809C83.9097 81.2009 83.9698 80.491 84.2798 81.101C84.2798 81.101 84.7797 81.2709 84.6197 80.5409C84.6997 81.0009 84.9697 81.091 85.0997 81.621C85.0197 81.091 85.1697 80.5809 85.4797 81.0609V81.1308C86.1097 81.5108 85.9698 80.1308 86.5898 80.6408C86.3798 80.1008 86.6897 80.3208 86.3897 79.6508C86.5497 78.8208 87.6397 80.801 87.0197 78.601C87.1697 78.421 87.4197 79.031 87.5497 79.101V79.2309C87.8297 78.9309 87.9297 78.871 88.1997 78.831C88.2497 78.571 87.9197 77.5709 88.2397 77.7309C88.2997 78.1509 88.3698 78.0509 88.4598 78.0209C88.4298 78.1009 88.4597 78.2509 88.6697 78.4809C88.6397 78.3509 88.6397 78.2708 88.6397 78.2008C88.6497 78.2308 88.6597 78.2509 88.6797 78.3009C88.7797 78.1109 88.7097 77.9908 88.6197 77.9608C88.5997 77.9008 88.5697 77.8209 88.5097 77.7209C88.8397 78.1809 88.9197 77.5409 89.1797 78.2209C89.5597 77.9109 89.6198 77.0908 89.8998 76.7008C90.0598 77.0408 90.0898 77.3809 90.0298 77.5509L90.2397 77.331C90.4097 77.841 90.1898 77.6709 90.1498 77.8009C90.7398 78.5109 90.4997 76.7608 91.1197 77.3908L91.0597 76.9608L91.0997 77.0209C91.0297 76.8109 91.0097 76.4908 91.0397 76.4108C91.2397 76.8308 91.3897 77.431 91.5597 77.341C91.8497 77.721 91.8897 76.9908 91.9897 76.6908C91.8597 76.6508 91.8097 76.3909 91.7997 76.2209C91.8797 76.1809 92.0898 76.6008 92.0898 76.3908L92.2997 76.9809C92.0697 76.4309 92.3197 76.2909 92.2697 76.0409C92.4697 76.4609 92.2697 76.4709 92.3497 76.8109C92.6897 76.6309 92.5197 76.7209 92.8597 76.5409C92.8997 76.0309 92.6297 75.9908 92.5497 75.4308C92.6797 75.2608 92.6997 74.781 93.0197 75.081L92.7798 74.571C92.9598 74.051 93.1697 74.0509 93.5597 74.5109C94.4697 69.3909 92.0697 68.4508 92.0697 68.4508C90.7297 67.6008 90.7697 69.311 89.7897 70.101L89.8297 70.091Z" fill="#20BB65"/>
<path d="M45.3998 96.1006L45.2297 95.9204C45.2797 96.0204 45.3398 96.0906 45.3998 96.1006Z" fill="#20BB65"/>
<path d="M28.5698 105.271C28.5698 105.271 28.5698 105.301 28.5798 105.321C28.5798 105.301 28.5798 105.281 28.5698 105.271Z" fill="#20BB65"/>
<path d="M43.1098 89.2005C42.0498 89.4005 41.3298 88.5404 40.5498 89.4104C40.0498 89.5604 39.6598 90.0306 39.2598 90.3706C39.4198 91.2306 38.6698 90.6805 38.7298 91.4405L38.4198 91.0606C38.4398 91.3206 38.4198 91.5206 38.2098 91.3306L38.1498 91.2005C38.1798 91.5905 37.9398 91.4704 37.9498 91.6704L37.8898 91.5406L37.7598 91.6804L37.6998 91.4905C37.6398 91.9505 37.4198 92.0906 37.1298 92.0406L37.4098 92.5506C36.6698 92.2006 37.0598 93.3506 36.3098 92.8706L36.2498 92.7405C36.4498 94.3605 34.9698 92.2306 35.1198 93.7906C35.0998 93.6006 34.9498 93.5404 34.8898 93.4104C34.7298 93.6804 34.5098 93.8904 35.0398 94.9004C34.8598 94.9804 34.7298 94.6605 34.5098 94.2805C34.7398 94.7205 34.6898 94.9906 34.5698 95.0806L34.5398 94.8804L34.2298 95.2405L34.7498 96.0305C34.4198 95.9005 34.1598 95.0406 34.0698 95.3506L34.4398 96.0406C34.0898 96.0506 33.3598 95.1005 32.8098 94.7405C31.4998 95.0705 31.2498 97.4804 29.5198 96.8904L29.1798 96.4104C28.7298 95.6804 29.5198 97.6805 29.0898 97.0105L29.1598 97.4204C29.0498 97.3104 28.8898 97.2105 28.8598 97.0005C28.7298 97.0405 28.7998 97.1604 28.8498 97.4304L28.4598 97.0406C27.7998 96.9506 27.9398 98.0504 27.3698 98.1504C26.2498 97.5504 25.6998 99.0504 25.4198 99.9304C25.2698 101.53 22.4398 99.3006 22.3798 101.111C22.2798 101.031 22.3598 101.3 22.4198 101.38L21.5698 101.811C21.5698 101.811 20.5798 102.4 20.4698 103.47C20.3498 104.54 21.1898 106.03 24.5698 107.98L24.6598 108.14C25.3098 108.23 25.6098 108.14 25.3498 107.19C26.0398 108.11 25.7398 107.071 26.0498 107.311L26.0898 107.39C25.8398 106.49 26.9898 107.661 26.7898 106.851C26.8298 106.931 26.9998 107.201 26.9598 107.251C27.0498 107.021 27.1498 106.65 27.5298 107.2C27.8398 106.79 28.5698 106.681 28.2698 105.611L28.3498 105.781C28.1198 105.071 28.4898 105.57 28.4598 105.15C28.5198 105.22 28.5498 105.251 28.5698 105.281C28.3598 104.571 28.9998 104.881 28.9698 104.541L29.2098 104.91L29.4898 104.611H29.3198C28.7198 103.531 29.9698 105.101 29.7998 104.281C30.1098 104.281 28.9498 101.82 29.4998 102.19C29.3198 101.63 29.8798 103.051 29.8198 102.571C30.1498 103.111 29.9498 102.961 30.2498 103.371C30.2598 103.011 30.8598 103.771 30.8398 103.271L31.0998 103.69C30.9098 102.75 31.9398 103.961 31.6798 103.111C31.7498 102.591 32.6098 104.281 32.4098 103.271L32.8598 103.791C33.0398 103.811 32.5398 103.02 32.8398 103.23C33.0398 103.6 33.1798 103.421 33.2998 103.821C33.9398 104.221 33.4698 102.64 34.4298 103.39C34.1198 102.62 34.5598 102.931 34.3298 102.351C34.5198 102.661 34.7698 102.17 34.9198 102.98C34.9298 103.05 34.8898 103.06 34.8198 102.93L35.0298 103.371C35.7098 104.051 35.2098 102.69 35.5098 102.69C35.3598 102.59 35.2898 102.671 35.1898 102.351L35.4398 102.291L35.5898 102.68L36.0298 102.71L35.7398 102.291C36.0198 102.431 36.4898 103.16 36.3298 102.43C36.2198 102.03 35.8498 101.91 35.9398 101.68C36.3198 101.87 36.8898 102.16 37.2298 102.15C36.9298 101.66 37.0198 101.641 37.0398 101.491L37.2798 101.93C37.2398 101.17 37.8998 102.84 37.9298 102.2L38.0698 102.521L37.6598 101.561C37.4598 100.551 38.2798 102.401 37.9398 101.051C37.8698 101.191 37.3698 100.11 37.6198 100.22L37.8098 100.66C37.8398 100.53 37.7698 100.34 37.8698 100.4C37.9398 100.65 38.1698 101.03 38.2498 100.9L38.4498 101.47L38.2598 100.571C38.6698 100.941 38.6298 100.231 39.0198 100.791C39.0198 100.791 39.5298 100.9 39.2698 100.2C39.4098 100.65 39.6898 100.7 39.8798 101.21C39.7298 100.7 39.8098 100.171 40.1798 100.611V100.68C40.8598 100.98 40.5398 99.6306 41.2198 100.061C40.9398 99.5506 41.2798 99.7306 40.8998 99.1006C40.9498 98.2506 42.2798 100.09 41.3898 97.9805C41.5098 97.7805 41.8398 98.3504 41.9798 98.4104V98.5406C42.2398 98.2106 42.3198 98.1406 42.5898 98.0706C42.6098 97.8106 42.1598 96.8505 42.4998 96.9705C42.6198 97.3805 42.6698 97.2705 42.7498 97.2305C42.7298 97.3205 42.7798 97.4604 43.0098 97.6604C42.9698 97.5404 42.9598 97.4504 42.9498 97.3804C42.9698 97.4104 42.9798 97.4305 42.9998 97.4705C43.0698 97.2705 42.9898 97.1604 42.8998 97.1404C42.8698 97.0804 42.8298 97.0104 42.7598 96.9104C43.1398 97.3304 43.1398 96.6806 43.4798 97.3206C43.8198 96.9706 43.7798 96.1505 44.0098 95.7305C44.2098 96.0505 44.2798 96.3806 44.2398 96.5606L44.4298 96.3206C44.6598 96.8006 44.4298 96.6706 44.3998 96.8006C45.0698 97.4406 44.6198 95.7305 45.3098 96.2805L45.1998 95.8606L45.2498 95.9104C45.1498 95.7104 45.0898 95.4006 45.1098 95.3106C45.3598 95.7106 45.5798 96.2804 45.7298 96.1704C46.0598 96.5104 46.0098 95.7805 46.0798 95.4705C45.9498 95.4405 45.8698 95.2005 45.8398 95.0305C45.9198 94.9805 46.1698 95.3704 46.1498 95.1604L46.4298 95.7205C46.1398 95.2005 46.3698 95.0406 46.2898 94.7906C46.5398 95.1906 46.3298 95.2206 46.4598 95.5406C46.7798 95.3205 46.6198 95.4305 46.9298 95.2205C46.9098 94.7005 46.6398 94.7004 46.4898 94.1604C46.5998 93.9704 46.5598 93.5005 46.9098 93.7505L46.6098 93.2705C46.7298 92.7305 46.9298 92.7106 47.3798 93.1206C47.6798 87.9306 45.1798 87.2805 45.1798 87.2805C43.7498 86.5905 43.9898 88.2805 43.1198 89.1905L43.1098 89.2005Z" fill="#20BB65"/>
<path d="M9.57977 122.911L9.36975 122.801C9.45975 122.861 9.53977 122.901 9.57977 122.911Z" fill="#20BB65"/>
<path d="M7.15973 127.591C7.15973 127.591 7.18978 127.601 7.20978 127.621L7.15973 127.591Z" fill="#20BB65"/>
<path d="M2.42975 119.57C2.42975 119.57 2.39976 119.55 2.37976 119.53L2.42975 119.57Z" fill="#20BB65"/>
<path d="M3.62978 118.831C3.21978 118.961 2.24978 118.461 2.43978 118.991C2.27978 119.091 2.39977 119.371 2.42977 119.571C3.11977 120.071 2.3298 119.761 2.8998 120.201L2.46974 119.991C2.65974 120.141 2.78976 120.25 2.54976 120.15L2.42977 120.081C2.71977 120.301 2.5098 120.241 2.6498 120.351L2.5298 120.281L2.55977 120.361L2.38979 120.251C2.67979 120.511 2.65974 120.601 2.46974 120.571L2.97975 120.851C2.33975 120.661 3.35977 121.311 2.61977 121.051L2.49977 120.981C3.74977 121.881 1.44978 120.721 2.62978 121.581C2.47978 121.471 2.35976 121.441 2.23976 121.371C2.33976 121.521 2.37978 121.641 3.37978 122.191C3.33978 122.231 3.0398 122.061 2.6498 121.861C3.0898 122.101 3.24977 122.241 3.24977 122.301L3.0898 122.191L3.17977 122.39L4.01979 122.811C3.74979 122.741 2.99976 122.281 3.16976 122.451L3.85976 122.821C3.67976 122.831 2.60976 122.32 2.04976 122.14C1.55976 122.35 3.13977 123.641 1.74977 123.351L1.21974 123.101C0.449744 122.731 2.3098 123.76 1.5898 123.42L1.91976 123.63C1.77976 123.57 1.61979 123.52 1.45979 123.42C1.40979 123.44 1.53978 123.5 1.75978 123.64L1.25978 123.441C0.819783 123.401 1.67976 123.971 1.41976 124.031C0.349756 123.751 1.0898 124.521 1.5298 124.961C2.5798 125.751 -0.690198 124.701 0.529802 125.581C0.409802 125.541 0.649773 125.671 0.749773 125.711L0.529802 125.931C0.529802 125.931 0.319763 126.221 0.989763 126.721C1.64976 127.231 3.20976 127.891 6.66976 128.821L6.8398 128.9C7.3098 128.95 7.42975 128.921 6.59975 128.461C7.66975 128.891 6.74976 128.411 7.10976 128.521L7.19978 128.561C6.41978 128.141 7.93976 128.701 7.23976 128.311C7.31976 128.351 7.60977 128.481 7.61977 128.501C7.50977 128.391 7.30976 128.221 7.91976 128.481C7.80976 128.291 8.16975 128.241 7.22975 127.731L7.3998 127.811C6.7598 127.471 7.32979 127.711 7.01979 127.511C7.09979 127.541 7.13977 127.561 7.17977 127.571C6.54977 127.221 7.13979 127.381 6.88979 127.211L7.29976 127.39L7.24977 127.251H7.1498C6.0398 126.721 7.87978 127.491 7.18977 127.091C7.35978 127.091 4.9498 125.871 5.5298 126.051C5.0298 125.771 6.35975 126.481 5.97975 126.241C6.55975 126.511 6.32976 126.44 6.79976 126.64C6.54976 126.46 7.42978 126.841 7.06978 126.591L7.51979 126.801C6.73979 126.331 8.17977 126.941 7.42977 126.511C7.09977 126.251 8.77979 127.101 7.94978 126.591L8.56978 126.861C8.67978 126.871 7.8398 126.471 8.1498 126.581C8.5298 126.771 8.47979 126.68 8.82979 126.88C9.45979 127.09 8.07979 126.28 9.13979 126.67C8.41979 126.27 8.8798 126.44 8.3398 126.14C8.6598 126.3 8.44976 126.051 9.10976 126.471C9.15976 126.501 9.14979 126.511 9.01979 126.441L9.44979 126.67C10.2998 127.03 9.05974 126.321 9.21974 126.321C9.06974 126.261 9.08976 126.31 8.79976 126.14L8.88979 126.111L9.24977 126.311L9.50978 126.331L9.04976 126.111C9.29976 126.191 10.0798 126.581 9.45979 126.191C9.10979 125.981 8.82979 125.911 8.70979 125.791C9.0498 125.891 9.55975 126.051 9.72975 126.051C9.21975 125.791 9.24975 125.781 9.15975 125.701L9.59975 125.931C9.02975 125.531 10.5798 126.421 10.1398 126.081L10.4398 126.251L9.5298 125.741C8.6998 125.201 10.4598 126.201 9.31978 125.481C9.37978 125.551 8.34977 124.971 8.55977 125.031L8.97975 125.271C8.89975 125.201 8.72978 125.1 8.81978 125.13C9.03978 125.27 9.42977 125.47 9.36977 125.4L9.88979 125.711L9.1498 125.231C9.6298 125.431 9.09978 125.051 9.69979 125.361C9.69979 125.361 10.0397 125.431 9.40975 125.041C9.79975 125.281 9.97978 125.321 10.4498 125.601C10.0098 125.321 9.67977 125.041 10.1798 125.281L10.2298 125.321C10.7798 125.501 9.65977 124.751 10.3098 125.001C9.80977 124.721 10.1098 124.821 9.45979 124.471C8.8898 124.001 10.8597 125.041 8.90975 123.861C8.82975 123.751 9.39979 124.081 9.51979 124.111L9.61977 124.181C9.50977 124.001 9.5098 123.961 9.5898 123.931C9.4198 123.781 8.50978 123.241 8.75978 123.311C9.10978 123.541 9.05978 123.481 9.06978 123.461C9.11978 123.511 9.24978 123.591 9.50978 123.711C9.39978 123.641 9.3398 123.591 9.2798 123.551C9.3098 123.571 9.32977 123.581 9.36977 123.601C9.25977 123.491 9.1498 123.43 9.0898 123.41C9.0298 123.38 8.95976 123.341 8.85976 123.281C9.34976 123.521 8.88978 123.161 9.50978 123.531C9.42978 123.341 8.83975 122.87 8.65975 122.63C8.97975 122.82 9.24976 123.011 9.35976 123.111L9.2798 122.981C9.7398 123.261 9.51975 123.181 9.59975 123.251C10.3797 123.631 8.95978 122.641 9.68978 122.971L9.3398 122.731L9.3998 122.761C9.2098 122.641 8.95975 122.46 8.90975 122.41C9.30975 122.65 9.81978 122.98 9.81978 122.92C10.2198 123.13 9.68978 122.701 9.50978 122.521C9.42978 122.501 9.20979 122.361 9.07979 122.261C9.07979 122.231 9.47978 122.471 9.31978 122.341L9.84975 122.681C9.33975 122.371 9.34978 122.28 9.12978 122.13C9.52978 122.37 9.44976 122.381 9.73976 122.581C9.73976 122.461 9.73976 122.52 9.73976 122.4C9.36976 122.1 9.2298 122.091 8.7798 121.761C8.6998 121.651 8.35979 121.371 8.70979 121.531L8.22975 121.241C7.91975 120.921 7.99978 120.91 8.50978 121.17C6.79978 119.62 5.53977 118.711 4.68977 118.211C3.83978 117.711 3.3998 117.611 3.3998 117.611C2.1898 117.201 3.45978 118.231 3.62978 118.781V118.831Z" fill="#20BB65"/>
</svg>
