<svg width="43" height="48" viewBox="0 0 43 48" fill="none" xmlns="http://www.w3.org/2000/svg">
<path d="M30.4196 2.16016L3.11963 38.4301L0.359619 36.3502L22.9896 6.27014L17.9097 5.92017L17.9696 5.65015L22.0996 0.160156L28.0297 0.360138L30.4196 2.16016Z" fill="#F2A100"/>
<path d="M18.8196 22.7002C28.2196 10.2102 35.9297 5.12017 40.3997 8.48017C44.8697 11.8402 42.0196 20.5902 33.4596 31.9802C24.0596 44.4702 16.3696 49.5802 11.9196 46.2302C7.61958 42.9902 10.2096 34.1302 18.8196 22.7002ZM30.4196 30.1702C36.7096 21.8102 38.6597 16.2502 36.0397 14.2802C33.4197 12.3102 28.4097 15.8002 21.8897 24.4602C15.7097 32.6702 13.6597 38.4702 16.2797 40.4402C18.9197 42.4302 23.9396 38.7902 30.4196 30.1702Z" fill="#F2A100"/>
</svg>
