<svg width="298" height="28" viewBox="0 0 298 28" fill="none" xmlns="http://www.w3.org/2000/svg">
<g opacity="0.57">
<path d="M1.44922 25.13C2.36922 25.66 3.94922 25.7102 5.44922 25.8002C4.29922 25.2902 3.06922 25.07 1.44922 25.13Z" fill="#43C554"/>
<path d="M5.47919 25.8101H5.49921C5.47921 25.8101 5.45922 25.8101 5.44922 25.8101C5.45922 25.8101 5.46919 25.8101 5.47919 25.8201V25.8101Z" fill="#43C554"/>
<path d="M296.49 1.71997C296.12 1.72997 295.69 1.74 295.26 1.75C295.67 1.77 296.09 1.76997 296.49 1.71997Z" fill="#43C554"/>
<path d="M78.1397 27.29L78.3697 26.4099C81.9297 26.3899 79.4096 27.42 82.6996 27.2C83.9896 25.95 88.1697 27.3199 89.2997 26.6599C89.2697 26.7599 90.8897 26.7999 90.7797 27.1899C91.2697 26.5099 92.4396 27.0301 93.4496 26.8601C93.8196 26.6701 93.1797 26.66 92.8997 26.45L95.2297 26.21C96.1397 26.43 96.3597 26.8299 95.3797 26.8999C101.46 27.1399 130.67 27.7599 137.22 27.4199C136.38 26.9099 134.35 27.26 133.59 26.45C135.32 26 136.14 26.6099 136.9 26.1299C137.57 27.3299 140.71 26.4099 142.02 27.6299L142.52 26.95L143.38 27.3601C151 26.6501 145.12 27.0099 151.87 27.1699C155.78 27.0599 157.64 26.12 159.81 26.47C159.49 26.47 158.62 26.0501 159.64 25.8701C159.81 26.4701 162.34 25.44 162.83 26.04C163.82 25.96 167.03 26.04 165.95 25.22C166.5 25.63 169.36 25.7899 167.66 26.1399C168.63 26.1599 169.56 26.2801 170.26 26.1001L169.02 25.8701C172.29 25.7501 174.07 26.3799 176.19 25.6399L174.98 25.3201C176.93 25.2701 178.57 25.2 179.33 26.01L177.33 26.26C180.57 26.24 182.52 26.18 185.22 25.75L184.26 25.73C187.7 24.92 205.69 24.24 208.85 23.23L207.39 22.6101L210.11 22.0801C209.79 22.0801 208.8 24.1099 208.53 23.9099C214.37 23.8499 244.74 23.34 250.13 23.76C252.31 24.1 250.52 24.7501 250.5 24.8501C253.15 24.6101 251.64 24.19 253.89 24.24C254.5 24.35 253.76 24.7301 253.42 24.8201C254.41 24.7501 255.32 24.9599 255.4 24.6699C254.17 24.4399 254.69 23.6699 254.17 23.1599L257.07 23.22L256.94 23.71C257.59 23.72 258.58 22.3699 261.42 22.6299C266.22 22.8399 271.43 22.66 276.26 22.77C276.19 23.06 275.17 23.2399 274.16 23.4099C274.81 23.4199 275.79 23.3501 276.39 23.5601C275.22 23.0401 278.41 23.21 277.5 22.99C281.03 21.79 285.61 22.8801 288.73 22.0601C289 20.9801 295.4 3.55002 295.4 2.27002C296.37 2.29002 297.33 2.30992 297.63 2.41992C297.38 2.11992 295.48 1.9799 294.46 2.1499L294.29 2.84009C291.96 3.08009 293.74 2.42998 291.47 2.47998C291.35 1.91998 293.44 1.79999 295.28 1.73999C293.62 1.67999 291.97 1.26988 291.29 1.87988C289.73 1.64988 291.46 1.18995 289.59 0.949951C288.25 1.11995 286.5 1.67009 284.96 1.34009L284.99 1.23999C281.26 0.65999 279.28 2.10003 275.86 1.53003L276.23 1.34009C275.02 1.02009 272.65 1.45011 270.47 1.11011C271.09 1.22011 271.63 1.62995 270.32 1.69995C267.82 1.34995 266.11 1.70002 264.28 1.27002L262.53 1.82007C253.82 1.72007 219.42 2.53012 210.67 2.62012L211.01 2.53003C197.68 2.82003 170.31 2.79006 156.54 3.56006C154.41 3.02006 151.47 3.15 149.25 3C150.49 3.22 150.06 3.61009 149.1 3.59009C142.33 3.53009 148.64 3.95995 141.79 4.19995C133.9 4.70995 103.71 4.15995 96.7096 3.69995C92.9496 4.49995 88.2496 3.89991 84.5696 4.40991L84.9396 4.21997C80.9796 4.51997 58.5797 3.80009 53.9797 4.09009L54.5997 4.19995C50.5897 4.69995 51.1397 3.83006 47.9697 3.56006C48.3897 4.45006 44.9497 4.97003 43.6397 5.03003L43.6897 4.83008C41.7097 4.98008 37.2397 5.75989 33.9697 5.88989L34.0997 5.3999C31.3797 5.9299 26.2597 5.71002 24.2997 5.77002C19.8297 5.57002 12.9197 4.71988 6.93969 5.37988L3.06969 3.98999L2.49968 4.12988C2.49968 4.12988 -3.71031 20.9901 4.18969 24.5801L4.05968 25.0701L5.61968 25.01C7.48968 25.25 8.35966 24.6799 8.22966 25.1699L5.65966 25.1101C7.53966 25.2501 6.22969 25.51 5.50969 25.79C6.29969 25.84 7.05969 25.89 7.68969 26.04C8.05969 25.85 7.41968 25.84 7.11968 25.73C8.12968 25.56 9.53971 25.1001 10.7797 25.3201C12.7097 25.3601 10.8997 26.1099 13.1497 26.1599C25.0197 26.5299 36.5197 27.09 48.5197 26.97C48.7897 27.17 48.4697 27.17 48.1197 27.26C51.7297 27.05 54.9497 27.1199 58.2397 26.8999C59.1497 27.1199 59.3997 27.4201 59.6697 27.6201C59.1297 27.2101 77.8397 27.16 78.1397 27.27V27.29Z" fill="#43C554"/>
</g>
</svg>
