<svg width="54" height="43" viewBox="0 0 54 43" fill="none" xmlns="http://www.w3.org/2000/svg">
<path d="M1.83972 4.06999C2.02972 4.32999 2.4197 4.00997 2.3197 4.04997C2.2897 3.86997 1.91972 4.06999 1.83972 4.06999Z" fill="#00B14F"/>
<path d="M4.09973 10.8798C3.94973 11.1398 3.97973 10.6098 4.09973 10.8798V10.8798Z" fill="#00B14F"/>
<path d="M5.15979 14.53C5.30979 14.5 5.4998 14.2699 5.6698 14.1799L5.40979 13.97C5.35979 14.14 5.35979 14.44 5.15979 14.53Z" fill="#00B14F"/>
<path d="M5.67981 14.1798L6.0697 14.4999C5.9697 14.1299 5.82981 14.0998 5.67981 14.1798Z" fill="#00B14F"/>
<path d="M5.6897 16.0901L5.27979 15.98L5.92981 16.21L5.6897 16.0901Z" fill="#00B14F"/>
<path d="M6.10974 17.1002C5.76974 17.0302 5.72975 17.5 5.48975 17.38C5.63975 17.64 5.95976 17.8 6.24976 17.94C6.04976 17.75 5.99974 17.5002 6.10974 17.1002Z" fill="#00B14F"/>
<path d="M6.6897 18.1899C6.5797 18.0999 6.41976 18.0199 6.24976 17.9399C6.35976 18.0399 6.4897 18.1299 6.6897 18.1899Z" fill="#00B14F"/>
<path d="M5.9397 15.6899L6.28979 15.3899C6.28979 15.3899 6.25975 15.28 6.23975 15.23C6.15975 15.29 5.9597 15.4299 5.9397 15.6899Z" fill="#00B14F"/>
<path d="M6.2998 15.3701H6.28979C6.33979 15.5601 6.36977 15.68 6.38977 15.73C6.37977 15.68 6.3498 15.5701 6.2998 15.3701Z" fill="#00B14F"/>
<path d="M6.22974 15.1799V15.22C6.22974 15.22 6.28974 15.1799 6.22974 15.1799Z" fill="#00B14F"/>
<path d="M6.20972 14.4399L6.64978 14.8L6.58972 14.3401C6.48972 14.3901 6.35972 14.5199 6.20972 14.4399Z" fill="#00B14F"/>
<path d="M6.85974 14.97L6.65979 14.8L6.67981 14.98L6.85974 14.97Z" fill="#00B14F"/>
<path d="M6.80982 17.3201C7.04982 17.4401 7.13976 17.6401 7.24976 17.8601C7.24976 17.5901 7.19975 17.3101 7.10975 17.0701C6.96975 17.0801 6.70982 17.0501 6.80982 17.3101V17.3201Z" fill="#00B14F"/>
<path d="M6.59973 16.3602L6.63977 16.39C6.63977 16.39 6.66973 16.3302 6.59973 16.3602Z" fill="#00B14F"/>
<path d="M8.03979 20.1299C8.03979 20.1299 8.07973 20.0901 8.09973 20.0701L8.02979 20.0901V20.1399L8.03979 20.1299Z" fill="#00B14F"/>
<path d="M7.15979 17.01C7.16979 16.8 7.02975 16.7199 6.86975 16.6599C6.95975 16.7799 7.03973 16.9201 7.09973 17.0801C7.15973 17.0801 7.19979 17.07 7.15979 17.01Z" fill="#00B14F"/>
<path d="M7.09969 18.76C7.14969 18.63 7.17967 18.5001 7.20967 18.3601C7.11967 18.5001 6.97969 18.76 7.09969 18.76Z" fill="#00B14F"/>
<path d="M6.53978 16.5L6.50975 16.48C6.44975 16.57 6.47978 16.55 6.53978 16.5Z" fill="#00B14F"/>
<path d="M6.53979 16.5C6.62979 16.58 6.75975 16.6199 6.86975 16.6599C6.79975 16.5599 6.71976 16.4699 6.62976 16.3999C6.60976 16.4299 6.56979 16.47 6.53979 16.5Z" fill="#00B14F"/>
<path d="M7.84973 19.24L7.73975 19.0801C7.73975 19.3001 7.64971 19.5001 7.44971 19.8701C7.73971 20.1001 7.89979 20.1101 8.02979 20.0901L7.77979 19.21L7.85974 19.25L7.84973 19.24Z" fill="#00B14F"/>
<path d="M7.86975 20.28L7.40979 20.3401L8.14978 20.53L7.86975 20.28Z" fill="#00B14F"/>
<path d="M7.84973 21.27L8.15979 21.4199L8.23975 21.1699L7.84973 21.27Z" fill="#00B14F"/>
<path d="M21.0697 39.4399C21.5997 39.5399 22.4098 39.7101 22.1598 39.3401L21.8397 39.03C21.5597 39.3 21.2997 39.4099 21.0697 39.4399Z" fill="#00B14F"/>
<path d="M11.6398 30.3501C11.5698 30.6601 11.5698 30.8901 11.6198 31.0801C11.7498 30.6901 12.0098 30.3201 11.6398 30.3501Z" fill="#00B14F"/>
<path d="M48.5398 21.8101C48.6098 21.6701 48.5598 21.6001 48.4298 21.5701C48.3598 21.7001 48.3598 21.8001 48.5398 21.8101Z" fill="#00B14F"/>
<path d="M11.6198 31.0701C11.5298 31.3601 11.5098 31.6601 11.8798 31.8101C11.9098 31.7501 11.9098 31.6999 11.9298 31.6399C11.7998 31.4799 11.6698 31.3101 11.6198 31.0701Z" fill="#00B14F"/>
<path d="M7.6698 2.17993C7.7598 2.17993 7.89979 2.23002 8.02979 2.27002C7.97979 2.22002 7.8698 2.18993 7.6698 2.17993Z" fill="#00B14F"/>
<path d="M9.33976 24.8601C9.24976 24.6801 9.27976 24.8501 9.33976 24.8601V24.8601Z" fill="#00B14F"/>
<path d="M9.4198 24.5C9.3998 24.59 9.37976 24.69 9.37976 24.79C9.39976 24.74 9.4098 24.65 9.4198 24.5Z" fill="#00B14F"/>
<path d="M9.2398 24.6101C9.2398 24.5401 9.22979 24.4799 9.21979 24.4299C9.13979 24.4299 9.1098 24.4701 9.2398 24.6101Z" fill="#00B14F"/>
<path d="M9.44971 25.1201C9.39971 25.0101 9.38976 24.9 9.37976 24.8C9.36976 24.85 9.34971 24.8701 9.32971 24.8701C9.34971 24.9201 9.38971 24.9999 9.44971 25.1299V25.1201Z" fill="#00B14F"/>
<path d="M52.2698 17.79L52.6398 17.75C51.7398 17.33 50.6498 17.3399 49.6698 17.3899C49.6298 17.2699 50.0397 17.26 50.1997 17.23C49.2397 16.57 48.7698 16.47 46.6498 16.54L47.1298 16.1799C46.7898 16.2099 46.4998 15.91 45.9298 15.54C45.3798 15.18 44.5297 14.76 43.5997 14.74C43.6497 14.7 43.7298 14.6201 43.8998 14.6101C43.3698 14.5801 42.9197 14.4099 42.4497 14.1699C42.1297 13.9799 41.8697 13.75 41.5897 13.55C41.0497 13.16 40.5498 12.95 40.0398 13.72L39.1298 13.8701C40.0798 14.3501 38.7298 14.56 39.0298 14.98C38.5998 14.94 38.1997 14.1199 38.7097 14.1899L38.7598 14.3C39.2398 13.47 37.6398 13.56 37.8698 12.96C35.8997 12.33 34.1697 11.17 32.3597 10.5L32.3297 11.26L31.7097 11C31.5997 10.78 31.6698 10.3801 32.1198 10.5701C32.0198 10.1001 31.2398 10.63 31.1798 10.78C30.3898 10.19 31.8098 10.1 31.5398 9.97998L31.1498 9.8999L31.2097 10.01C30.8097 10.19 30.6798 10.48 30.1498 10.25C29.8498 9.99 30.1197 9.75994 29.9897 9.68994C30.0097 9.63994 29.9698 9.6001 29.7898 9.6001L29.0098 9.26001L29.1298 9.86011C28.8298 9.89011 28.0698 9.54007 27.2898 9.32007C26.5398 9.02007 25.7198 8.83988 25.4998 8.62988L25.9597 8.22998L25.1298 8.02002C24.9798 7.91002 24.9298 7.91997 24.9098 7.96997C24.7598 7.94997 24.8397 8.30007 24.4397 8.32007C23.8797 8.17007 23.9497 7.85998 23.7397 7.47998L23.8497 7.42993L23.4897 7.25C23.2097 7.18 24.2798 8.1201 23.2898 8.1001C23.3298 7.9501 23.0398 7.05011 22.6698 7.36011C22.9998 7.45011 22.9998 7.65006 22.8898 7.81006C22.7098 7.69006 22.5198 7.55007 22.3998 7.32007L22.5198 7.15991C22.4598 7.13991 22.3997 7.13012 22.3497 7.12012C22.3397 7.07012 22.3198 7.03999 22.3098 6.98999C22.3198 7.03999 22.3198 7.08011 22.3098 7.11011C21.5198 6.88011 20.6797 6.71005 19.8397 6.55005C19.0797 6.20005 18.3298 5.56988 17.4198 5.37988C17.3498 5.50988 17.4197 5.75992 17.2297 5.91992C17.1697 5.89992 17.1098 5.89012 17.0498 5.87012L16.7097 4.94995C16.4297 4.94995 16.1398 5.83009 15.8798 5.09009C15.8998 5.25009 15.9197 5.49999 15.7297 5.48999C15.3297 5.18999 14.9097 4.97003 14.4597 4.78003C14.4197 4.08003 13.9397 3.95994 13.3397 3.93994C12.9997 3.92994 12.6498 3.94991 12.2798 3.90991C11.7698 3.81991 11.2997 3.67988 10.8597 3.37988C10.9797 3.48988 10.9998 3.59992 11.0098 3.66992C10.5398 3.31992 9.99977 3.13002 9.50977 3.02002C9.06977 2.74002 8.65979 2.39996 8.27979 1.95996C8.51978 2.39996 8.27976 2.35002 7.99976 2.27002C8.12976 2.39002 7.91972 2.62009 7.83972 2.84009C7.79972 2.84009 7.75973 2.83007 7.71973 2.82007L6.94971 1.91992C6.61971 2.36992 6.06971 1.87995 5.69971 1.94995C5.23971 1.71995 4.83977 1.65012 4.25977 1.62012C4.36977 1.74012 4.68971 2.00007 4.57971 2.07007C3.82971 1.44007 2.96976 0.760049 1.99976 0.550049L2.26978 0.800049L0.969727 0.310059L1.09973 0.73999C2.34973 1.91999 2.18976 2.16012 2.12976 2.62012C2.05976 3.07012 2.10974 3.78002 3.35974 4.77002C2.82974 4.62002 3.07977 5.70989 3.00977 6.13989C3.08977 6.17989 3.1897 6.24988 3.3197 6.37988C2.9097 6.46988 3.17979 7.02004 3.53979 7.54004C3.8998 8.08004 4.3498 8.5699 4.4198 8.8999C4.3698 9.3199 4.01978 9.13989 3.64978 8.88989C4.18978 9.40989 4.21973 10.0199 4.21973 10.6799C4.21973 10.7799 4.21973 10.87 4.21973 10.97C4.18973 10.93 4.15975 10.8801 4.11975 10.8201C4.09975 10.8601 4.0897 10.8799 4.0697 10.8999C4.0897 10.9599 4.11978 11.0299 4.14978 11.1799C4.16978 11.1599 4.18972 11.1499 4.20972 11.1499C4.20972 11.3099 4.20972 11.4701 4.20972 11.6101C4.20972 11.7201 4.21974 11.8199 4.22974 11.8899C4.22974 11.9099 4.24977 11.9199 4.25977 11.9399C4.19977 12.0899 4.22973 12.31 4.09973 12.25C4.34973 12.57 4.47978 12.4599 4.64978 12.1799C4.75978 12.1599 4.86975 12.1 4.98975 12.05L5.11975 12.1699C5.19975 12.0899 5.33973 12.02 5.09973 12.01C5.15973 11.99 5.21979 11.98 5.27979 11.98C5.29979 12.1 5.26973 12.19 5.21973 12.26L5.11975 12.1599C5.11975 12.1599 5.0697 12.25 5.1897 12.29C4.8997 12.59 4.11972 12.47 4.83972 13.02C4.85972 12.89 4.83971 12.68 4.94971 12.72C5.14971 12.96 6.41978 13.02 6.76978 13.28C6.55978 13.33 6.4198 13.49 6.0498 13.3C6.1998 13.38 6.36979 13.5101 6.53979 13.5601C6.6298 13.8501 6.98978 14.07 7.26978 14.26C7.20978 14.37 7.14973 14.48 7.09973 14.53C7.19973 14.46 7.27974 14.3901 7.35974 14.3301C7.59974 14.5101 7.69981 14.6701 7.30981 14.8601L6.83972 14.97C7.82972 15.83 6.83977 15.4899 7.75977 16.3899L7.82971 16.3501C7.91971 16.8601 8.5797 16.9099 7.9397 17.4099L7.77979 17.28C7.84979 17.55 7.90973 17.7101 7.96973 17.8501C7.91973 17.8301 7.85981 17.81 7.80981 17.76C8.19981 18.56 7.49974 17.6 7.47974 18.28C7.34974 18.14 7.27972 18.0001 7.20972 17.8701C7.20972 18.0401 7.20981 18.2001 7.17981 18.3701L7.19971 18.3401C7.23971 18.2901 7.26976 18.2601 7.24976 18.3101L7.25977 18.3201C7.31977 18.3101 7.36981 18.3 7.42981 18.3C7.42981 18.57 7.33977 18.3701 7.25977 18.3201C7.23977 18.3201 7.21971 18.3201 7.19971 18.3301L7.71973 19.0901C7.71973 18.8901 7.6297 18.68 7.4397 18.3C7.7497 18.3 7.99975 18.4599 8.23975 18.4299C8.24975 18.4599 8.25979 18.48 8.27979 18.51C8.23979 18.61 8.2398 18.94 8.4198 18.96C8.1298 19.08 8.17971 19.4501 8.32971 19.8301C8.23971 19.9101 8.14971 19.9901 8.07971 20.0701C8.18971 20.0401 8.29971 20.0201 8.44971 20.0901C8.58971 20.3701 8.73979 20.61 8.78979 20.71C8.69979 20.2 9.03972 20.3299 9.33972 20.3799C8.94972 20.8399 8.96973 21.0501 9.46973 21.3101C9.21973 21.4301 8.95975 21.5499 8.73975 21.6899C8.71975 21.6199 8.69971 21.55 8.69971 21.47C8.33971 21.8 8.56976 21.7001 8.49976 21.8701C8.22976 22.1101 8.08972 22.4 8.20972 22.8C8.27972 22.64 8.26972 22.43 8.45972 22.45C8.63972 22.47 8.53977 22.71 8.50977 22.79C8.64977 22.81 8.70974 22.63 8.85974 22.55C8.87974 22.6 8.88979 22.6499 8.90979 22.6899C8.73979 23.0499 8.88981 23.27 9.05981 23.54C9.05981 23.72 9.03971 23.93 8.82971 24.25C9.01971 24.17 9.12971 23.9399 9.19971 24.4199C9.25971 24.4199 9.34978 24.44 9.39978 24.46C9.39978 24.48 9.39978 24.48 9.39978 24.5V24.47C9.39978 24.47 9.4598 24.47 9.4198 24.46C9.4698 24.32 9.53976 24.1999 9.62976 24.1299C9.68976 24.1299 9.75981 24.1599 9.80981 24.1799C9.43981 24.5199 10.9698 24.85 9.86975 24.96C10.0998 25.19 10.2797 25.48 10.4497 25.78C10.2697 26.03 10.1497 26.2799 9.8197 25.9099L9.99976 26.48C9.87976 26.89 9.94973 27.3801 10.2197 27.6001C10.2197 27.9001 10.9298 28.11 10.5098 27.99L11.0797 28.78L10.9797 28.8301C11.2297 29.7201 12.3098 30.3799 11.8998 31.6399C12.1098 31.8999 12.3498 32.1499 12.3998 32.6899L12.0697 32.9099C12.3297 33.2399 12.0998 34.17 12.5398 34.2C12.1198 34.59 12.2097 35.0201 12.4597 35.5601C12.8297 36.4601 13.2998 37.31 13.4298 37.97L13.8597 37.6599C14.1097 38.4499 14.4897 39.1 14.9497 39.79L15.0997 39.5C15.1397 39.73 15.1697 39.99 15.1997 40.25C15.3197 41.17 15.5097 42.2199 15.9397 42.4199C15.9397 42.4199 15.9397 42.4199 15.9397 42.4299C15.9497 42.4299 15.9597 42.4299 15.9697 42.4299C15.9797 42.4299 15.9898 42.44 15.9998 42.45C16.4598 42.5499 17.2498 41.8299 17.9098 41.1799C18.6198 40.4799 19.1898 39.8599 19.7798 39.9099C20.0598 39.5399 20.2597 39.48 20.4897 39.46C20.4597 39.48 20.4398 39.5 20.4198 39.53C20.4498 39.52 20.4998 39.49 20.5398 39.46C20.6898 39.46 20.8498 39.4599 21.0198 39.4399C20.8598 39.4099 20.7197 39.3999 20.5997 39.4199C20.8297 39.2699 21.1597 38.9899 21.4497 38.6799L21.7898 39.04C21.7898 39.04 21.8398 39 21.8698 38.98C22.2998 38.92 22.0397 38.6099 21.7097 38.3799C21.8397 38.2099 21.9397 38.0301 21.9897 37.8601C22.6597 38.3601 22.4298 37.2701 23.1298 37.8101C23.0598 37.3801 24.0497 36.8701 23.7097 36.0801C23.7797 36.1701 23.8698 36.17 23.7598 36.25C24.0498 36.18 24.3398 36.11 24.4298 35.77L24.8597 36.22L24.9397 35.1899C25.4597 35.3099 25.6998 35.41 25.6398 36C26.0098 34.91 26.1098 35.3801 26.3698 34.3701L26.5498 34.72C26.7698 34.56 26.8598 33.8801 27.1698 34.0701C28.0898 34.3801 29.7797 32.55 31.4797 32.3C30.5997 31.48 32.3697 32.3501 31.9497 31.5601C32.1697 31.7401 32.4397 31.7601 32.3497 32.1001C32.8797 31.4501 33.5998 31.8299 33.6598 30.8899C33.8898 31.0799 33.7298 31.3199 33.8898 31.4199C33.9098 31.3299 33.9798 31.0799 34.1398 31.1799C34.2998 31.2799 34.1598 31.4401 34.1198 31.6101C34.7897 31.1301 34.3998 30.3699 34.0298 29.6699C34.5798 29.7699 34.7297 29.61 34.6997 29.01C34.9597 29.15 35.3098 29.2601 34.9298 29.6101C35.1898 29.4901 36.6098 29 36.2898 28.45C36.4498 28.54 36.6498 28.2799 36.6798 28.1699C37.2398 27.8599 37.3197 27.88 37.8197 27.49H37.6198C37.4198 26.71 37.9697 27.07 38.3497 26.72L38.3798 26.79C39.6598 26.64 38.6597 26.3 39.9697 26.22L39.6598 25.8501C39.1998 24.9201 40.8397 25.8199 41.1997 25.1299L40.8497 25.03C40.9697 24.54 42.4597 25.6701 42.8397 25.5901C42.9597 25.6201 42.8098 25.7799 42.7498 25.8899C43.8798 25.8899 42.5198 25.29 43.0498 24.79C43.3398 25.01 43.3698 25.6099 43.8098 25.4099C43.8498 25.4199 43.8997 25.4101 43.9397 25.3701C43.9897 25.3101 44.0498 25.2399 44.1298 25.1599C44.3098 24.9499 44.4897 24.6899 44.6897 24.4299C45.0897 23.9099 45.4897 23.4401 46.2297 23.3601C45.7897 23.3301 45.3997 23.2699 45.6097 22.8999C45.8597 22.6799 46.5198 22.5601 47.1298 22.3601C47.7298 22.1601 48.2798 21.8901 48.0098 21.5801C48.1898 21.5501 48.3098 21.5601 48.3998 21.5801C48.6098 21.2001 49.4597 20.49 48.9597 20.28C50.5497 20.25 51.0298 19.7201 51.2498 19.3201C51.4898 18.9101 51.5097 18.62 53.2097 18.45L53.5697 18.1899L52.2397 17.79H52.2698ZM10.2097 20.8999C10.2397 20.8399 10.2698 20.78 10.2998 20.71C10.0998 20.93 9.91979 21.08 9.77979 21.02L9.8197 20.26C9.9997 20.33 10.1898 20.44 10.3898 20.48C10.3598 20.56 10.3198 20.64 10.2898 20.71C10.3498 20.65 10.4197 20.57 10.4797 20.5C10.5397 20.5 10.6098 20.5 10.6698 20.5L10.7798 20.8101C10.5998 20.9601 10.3997 21.0299 10.1997 20.9099L10.2097 20.8999ZM11.8998 23.9299C11.8998 23.9299 11.8798 23.9299 11.8698 23.9299C11.8698 23.8899 11.8698 23.8601 11.8698 23.8201L11.9098 23.9199L11.8998 23.9299ZM16.3998 36.7L16.4497 36.8401C16.3897 36.9301 16.3198 37.0101 16.2598 37.0901C16.2998 36.9601 16.3498 36.83 16.3998 36.7ZM19.0697 37.75L19.1897 37.6799C19.1597 37.7899 19.1097 37.91 19.0697 38.02C19.0697 37.93 19.0697 37.84 19.0697 37.75ZM6.88977 13.46C6.88977 13.46 6.88978 13.46 6.89978 13.45C6.89978 13.45 6.89978 13.46 6.89978 13.47H6.88977V13.46ZM10.4397 26.8101C10.4397 26.8101 10.4597 26.8101 10.4697 26.8101C10.3997 27.1801 10.4297 27.0501 10.4397 26.8101ZM16.1498 42.3C16.1498 42.3 16.1797 42.26 16.1997 42.23L16.1298 42.3101C16.1298 42.3101 16.0598 42.3501 16.0298 42.3601C16.0098 42.3301 15.9897 42.3 15.9797 42.26V42.1599C15.9797 42.1599 15.9797 42.22 15.9797 42.25C15.9297 42.14 15.8998 42.0001 15.9298 41.8301C15.9398 41.8701 15.9597 41.8999 15.9697 41.9399C15.9897 42.0499 16.0198 42.15 16.0398 42.25C16.0498 42.25 16.0697 42.23 16.0797 42.22C16.0797 42.23 16.0897 42.25 16.0997 42.27C16.1797 42.21 16.2697 42.1301 16.3497 42.0701C16.3797 42.0501 16.4097 42.04 16.4497 42.01C16.3697 42.17 16.2598 42.2601 16.1598 42.3201L16.1498 42.3ZM29.8397 9.8501L29.9198 10.01C29.5898 10.04 29.7097 9.9501 29.8397 9.8501ZM24.4897 34.3301L24.9198 34.0601L24.9697 35.0801C24.8897 34.8701 24.6997 34.6101 24.4897 34.3301ZM33.9998 29.25C33.8598 29.21 33.8098 28.9799 33.7798 28.6899C33.7598 28.7599 33.7397 28.8399 33.7397 28.8999C33.5897 28.8799 33.4998 28.7999 33.4298 28.6899L33.7598 28.48C33.7598 28.55 33.7698 28.6199 33.7798 28.6899C33.7998 28.6099 33.8297 28.5199 33.8497 28.4299L33.9998 28.3401C34.2098 28.4301 34.3898 28.51 34.4998 28.53L33.9897 29.25H33.9998Z" fill="#00B14F"/>
<path d="M8.42981 22.95L8.6897 23.3201C8.5997 23.1301 8.66972 23.0199 8.70972 22.8899C8.60972 22.9399 8.47981 23.0699 8.42981 22.9399V22.95Z" fill="#00B14F"/>
<path d="M9.86979 25.3798C9.91979 25.2098 9.34978 25.47 9.47978 25.33C8.93978 25.35 10.3898 26.0398 9.86979 25.3798Z" fill="#00B14F"/>
<path d="M6.42981 1.16992L6.11975 0.830078L6.24976 1.23999L6.42981 1.16992Z" fill="#00B14F"/>
<path d="M5.4397 1.62012L5.55981 0.97998L5.13977 1.44995C5.23977 1.44995 5.4197 1.45012 5.4397 1.62012Z" fill="#00B14F"/>
<path d="M2.80981 6.24989C2.95981 6.34989 3.0198 6.27977 3.0498 6.12977C2.9198 6.06977 2.83981 6.09989 2.80981 6.24989Z" fill="#00B14F"/>
</svg>
