<svg width="258" height="317" viewBox="0 0 258 317" fill="none" xmlns="http://www.w3.org/2000/svg">
<path d="M256.54 4.52026L256.31 4.48022C256.41 4.52022 256.5 4.54026 256.54 4.52026Z" fill="#20BB65"/>
<path d="M252.39 13.8403C252.39 13.8403 252.41 13.8604 252.43 13.8704C252.42 13.8504 252.4 13.8503 252.39 13.8403Z" fill="#20BB65"/>
<path d="M248.68 3.13013C248.68 3.13013 248.65 3.1101 248.63 3.1001L248.68 3.13013Z" fill="#20BB65"/>
<path d="M249.91 1.65029C249.48 2.01029 248.42 1.75025 248.66 2.36025C248.49 2.55025 248.64 2.87027 248.68 3.13027C249.43 3.54027 248.58 3.42031 249.19 3.80031L248.73 3.67031C248.94 3.80031 249.07 3.91025 248.81 3.86025L248.68 3.81032C248.99 4.01032 248.76 4.00024 248.92 4.10024L248.79 4.0403L248.82 4.14028L248.64 4.05031C248.95 4.30031 248.93 4.43022 248.73 4.46022L249.27 4.67031C248.58 4.63031 249.66 5.17032 248.87 5.06032L248.74 5.00026C250.05 5.84026 247.62 4.9603 248.85 5.7903C248.7 5.6903 248.57 5.68026 248.44 5.62026C248.54 5.80026 248.57 5.96031 249.61 6.42031C249.56 6.50031 249.25 6.34031 248.85 6.17031C249.31 6.37031 249.46 6.53025 249.46 6.61025L249.3 6.50026L249.37 6.76027L250.25 7.11025C249.96 7.10025 249.19 6.66024 249.36 6.85024L250.07 7.17031C249.87 7.25031 248.75 6.83023 248.17 6.72023C247.62 7.11023 249.13 8.56021 247.65 8.45021L247.11 8.21022C246.34 7.83022 248.18 8.92022 247.46 8.58022L247.78 8.81032C247.64 8.76032 247.47 8.72024 247.31 8.60024C247.25 8.64024 247.38 8.70025 247.59 8.86025L247.09 8.67031C246.61 8.69031 247.44 9.34022 247.14 9.46022C246.04 9.21022 246.66 10.1703 247.01 10.7403C247.9 11.7803 244.67 10.5403 245.71 11.6703C245.6 11.6203 245.81 11.7902 245.9 11.8402L245.58 12.1403C245.58 12.1403 245.25 12.5302 245.76 13.2302C246.28 13.9202 247.62 14.9702 251.1 16.1002L251.25 16.2102C251.78 16.2302 251.95 16.1303 251.23 15.4903C252.23 16.0603 251.44 15.3703 251.79 15.5103L251.87 15.5603C251.19 14.9703 252.67 15.6503 252.07 15.1203C252.15 15.1703 252.42 15.3303 252.42 15.3703C252.35 15.2003 252.21 14.9403 252.79 15.2703C252.77 14.9503 253.23 14.7702 252.38 14.1002L252.54 14.2002C251.96 13.7602 252.51 14.0403 252.24 13.7603C252.32 13.8003 252.36 13.8102 252.39 13.8302C251.82 13.3902 252.44 13.5103 252.22 13.2803L252.61 13.4903V13.2603L252.5 13.2803C251.44 12.6703 253.25 13.5103 252.63 12.9903C252.83 12.9303 250.52 11.5402 251.12 11.6902C250.65 11.3602 251.91 12.1803 251.57 11.8803C252.14 12.1803 251.9 12.1102 252.36 12.3202C252.14 12.0902 253.02 12.4803 252.69 12.1603L253.13 12.3903C252.4 11.8203 253.86 12.4103 253.13 11.9103C252.84 11.5703 254.5 12.4803 253.71 11.8803L254.34 12.1203C254.47 12.1003 253.63 11.7003 253.96 11.7703C254.34 11.9703 254.31 11.8203 254.65 12.0503C255.33 12.1703 253.98 11.2703 255.1 11.5403C254.38 11.1303 254.88 11.2303 254.34 10.9203C254.67 11.0703 254.5 10.7103 255.14 11.1803C255.19 11.2203 255.17 11.2303 255.05 11.1803L255.48 11.4103C256.38 11.6803 255.14 10.9403 255.33 10.8803C255.16 10.8503 255.18 10.9203 254.89 10.7403L255.01 10.6503L255.37 10.8502L255.67 10.7703L255.2 10.5802C255.48 10.6002 256.28 10.9403 255.67 10.5303C255.33 10.3103 255.01 10.3203 254.91 10.1603C255.28 10.1903 255.84 10.2303 256.05 10.1403C255.52 9.91028 255.56 9.8803 255.47 9.7903L255.93 9.99025C255.38 9.54025 256.95 10.3803 256.53 9.99025L256.84 10.1503L255.91 9.68032C255.08 9.13031 256.89 10.0203 255.73 9.31032C255.78 9.41032 254.72 8.89029 254.95 8.90029L255.38 9.12026C255.31 9.03026 255.13 8.94021 255.23 8.95021C255.46 9.08021 255.86 9.25029 255.82 9.15029L256.35 9.4402L255.6 8.96022C256.11 9.07022 255.59 8.67029 256.22 8.90029C256.22 8.90029 256.61 8.83025 255.95 8.49025C256.36 8.71025 256.57 8.67031 257.05 8.92031C256.6 8.66031 256.27 8.34025 256.81 8.49025L256.86 8.53029C257.48 8.52029 256.31 7.83028 257.03 7.89028C256.49 7.68028 256.83 7.69032 256.13 7.43032C255.54 6.94032 257.68 7.60031 255.6 6.67031C255.52 6.53031 256.14 6.76026 256.27 6.75026L256.37 6.82021C256.27 6.57021 256.27 6.51028 256.37 6.39028C256.19 6.24028 255.21 5.84021 255.49 5.82021C255.87 6.01021 255.81 5.93028 255.83 5.89028C255.88 5.94028 256.02 6.01031 256.31 6.05031C256.19 5.99031 256.12 5.95031 256.06 5.92031C256.09 5.93031 256.12 5.94022 256.16 5.96022C256.05 5.83022 255.92 5.80032 255.86 5.81032C255.8 5.78032 255.72 5.76024 255.61 5.73024C256.15 5.85024 255.66 5.50026 256.34 5.75026C256.27 5.46026 255.63 5.04026 255.44 4.75026C255.8 4.86026 256.09 5.02026 256.21 5.12026L256.13 4.9402C256.63 5.1302 256.39 5.12021 256.48 5.20021C257.35 5.34021 255.79 4.5703 256.61 4.6603L256.23 4.48024H256.3C256.09 4.42024 255.82 4.27023 255.76 4.22023C256.21 4.35023 256.77 4.59025 256.78 4.49025C257.23 4.57025 256.64 4.20028 256.44 4.02028C256.35 4.05028 256.11 3.94025 255.96 3.86025C255.96 3.81025 256.41 3.94022 256.23 3.83022L256.83 4.0403C256.26 3.8603 256.27 3.71024 256.03 3.60024C256.48 3.73024 256.38 3.80031 256.71 3.93032C256.72 3.72031 256.71 3.83026 256.73 3.62026C256.32 3.36026 256.16 3.44022 255.66 3.21022C255.57 3.08022 255.19 2.86027 255.58 2.88027L255.04 2.73024C254.68 2.43024 254.78 2.35032 255.35 2.43032C253.39 1.11031 251.92 0.580247 250.96 0.360247C249.99 0.140247 249.53 0.220232 249.53 0.220232C248.22 0.260232 249.69 0.990295 249.91 1.6603V1.65029Z" fill="#20BB65"/>
<path d="M234.02 34.6102L233.82 34.4702C233.89 34.5502 233.96 34.6202 234.02 34.6102Z" fill="#20BB65"/>
<path d="M227.05 30.0103C227.05 30.0103 227.04 29.9702 227.03 29.9502L227.05 30.0103Z" fill="#20BB65"/>
<path d="M230.31 28.3603C229.38 28.7203 228.54 28.0003 228.02 28.9403C227.59 29.1403 227.34 29.6403 227.05 30.0103C227.36 30.8203 226.56 30.3603 226.76 31.0903L226.4 30.7503C226.47 31.0003 226.47 31.1903 226.25 31.0303L226.18 30.9103C226.28 31.2903 226.03 31.1903 226.08 31.3803L226.01 31.2603L225.91 31.4003L225.82 31.2203C225.84 31.6703 225.66 31.8204 225.38 31.7904L225.72 32.2603C224.98 31.9703 225.51 33.0703 224.75 32.6503L224.68 32.5303C225.07 34.1003 223.43 32.0903 223.76 33.6003C223.72 33.4103 223.58 33.3603 223.51 33.2403C223.39 33.5103 223.21 33.7203 223.81 34.6903C223.65 34.7703 223.5 34.4603 223.24 34.1003C223.5 34.5203 223.48 34.7803 223.37 34.8803L223.32 34.6804L223.06 35.0404L223.62 35.8004C223.29 35.6804 222.97 34.8503 222.92 35.1503L223.33 35.8203C222.99 35.8403 222.24 34.9303 221.69 34.5703C220.51 34.8803 220.37 37.2503 218.73 36.5903L218.41 36.1003C217.98 35.3603 218.75 37.3604 218.33 36.6804L218.4 37.0903C218.3 36.9703 218.15 36.8603 218.11 36.6603C217.99 36.6903 218.05 36.8103 218.11 37.0803L217.75 36.6704C217.14 36.5304 217.27 37.6204 216.73 37.6704C215.7 36.9804 215.17 38.3704 214.84 39.1804C214.57 40.7404 212.14 38.1203 211.93 39.8303C211.85 39.7303 211.89 40.0103 211.93 40.1003L211.1 40.3503C211.1 40.3503 210.12 40.7003 209.86 41.7003C209.6 42.7003 210 44.3703 212.95 46.9503L213.01 47.1303C213.65 47.3503 213.98 47.3104 213.89 46.3104C214.42 47.3404 214.31 46.2504 214.57 46.5404L214.6 46.6303C214.5 45.7003 215.48 47.0403 215.4 46.2003C215.43 46.2903 215.56 46.5803 215.5 46.6203C215.63 46.4003 215.78 46.0403 216.08 46.6403C216.46 46.2603 217.24 46.2303 217.07 45.1303L217.13 45.3104C216.98 44.5804 217.3 45.1103 217.32 44.6903C217.37 44.7603 217.4 44.8003 217.42 44.8303C217.28 44.1003 217.9 44.4703 217.91 44.1203L218.12 44.5103L218.43 44.2403L218.25 44.2203C217.75 43.1003 218.87 44.7704 218.77 43.9304C219.08 43.9404 218.1 41.4103 218.62 41.8203C218.47 41.2503 218.94 42.7003 218.92 42.2203C219.22 42.7803 219.02 42.6204 219.3 43.0504C219.33 42.6904 219.89 43.4803 219.9 42.9903L220.14 43.4304C220 42.4804 220.98 43.7303 220.76 42.8603C220.85 42.3403 221.65 44.0604 221.49 43.0404L221.93 43.5703C222.11 43.6003 221.63 42.7903 221.93 43.0003C222.12 43.3803 222.27 43.2003 222.38 43.6003C223.03 44.0103 222.58 42.4103 223.56 43.1503C223.25 42.3803 223.7 42.6903 223.47 42.1103C223.66 42.4203 223.93 41.9203 224.07 42.7303C224.08 42.8003 224.04 42.8104 223.97 42.6804L224.18 43.1203C224.88 43.7803 224.37 42.4303 224.68 42.4103C224.53 42.3103 224.46 42.4103 224.35 42.0803L224.6 42.0103L224.76 42.3903H225.21L224.91 41.9903C225.2 42.1203 225.7 42.8403 225.52 42.1003C225.4 41.7003 225.02 41.6003 225.11 41.3603C225.5 41.5303 226.09 41.8003 226.45 41.7603C226.13 41.2803 226.21 41.2603 226.23 41.1103L226.5 41.5303C226.43 40.7603 227.17 42.4003 227.18 41.7503L227.34 42.0604L226.87 41.1203C226.61 40.1203 227.55 41.9103 227.13 40.5903C227.06 40.7303 226.5 39.6904 226.75 39.7904L226.97 40.2203C226.99 40.0903 226.91 39.9003 227.02 39.9503C227.11 40.2003 227.36 40.5604 227.44 40.4204L227.68 40.9803L227.43 40.1003C227.87 40.4303 227.79 39.7203 228.22 40.2503C228.22 40.2503 228.76 40.3003 228.44 39.6303C228.62 40.0603 228.91 40.0903 229.14 40.5803C228.95 40.0803 228.99 39.5503 229.4 39.9503V40.0203C230.13 40.2303 229.67 38.9203 230.41 39.2503C230.07 38.7803 230.44 38.9203 229.98 38.3303C229.94 37.4803 231.5 39.1203 230.34 37.1503C230.43 36.9303 230.84 37.4603 230.99 37.4903L231.02 37.6203C231.22 37.2503 231.3 37.1704 231.56 37.0504C231.55 36.7904 230.95 35.9103 231.3 35.9803C231.48 36.3703 231.52 36.2503 231.59 36.1903C231.59 36.2803 231.66 36.4203 231.92 36.5703C231.86 36.4503 231.83 36.3704 231.81 36.3004C231.83 36.3304 231.85 36.3403 231.87 36.3803C231.91 36.1703 231.81 36.0803 231.72 36.0703C231.69 36.0203 231.63 35.9503 231.55 35.8703C232 36.2203 231.89 35.5803 232.33 36.1503C232.61 35.7403 232.44 34.9403 232.58 34.4903C232.84 34.7603 232.96 35.0803 232.96 35.2603L233.1 34.9903C233.42 35.4203 233.16 35.3303 233.15 35.4703C233.94 35.9703 233.17 34.3703 233.96 34.7703L233.77 34.3803L233.83 34.4204C233.69 34.2404 233.58 33.9503 233.58 33.8603C233.91 34.2003 234.23 34.7203 234.37 34.5803C234.77 34.8403 234.58 34.1403 234.57 33.8203C234.44 33.8203 234.31 33.6003 234.24 33.4403C234.3 33.3703 234.64 33.7003 234.57 33.5003L234.97 33.9903C234.57 33.5503 234.77 33.3303 234.63 33.1103C234.96 33.4403 234.77 33.5204 234.96 33.8104C235.22 33.5304 235.09 33.6703 235.35 33.3803C235.21 32.8803 234.95 32.9403 234.68 32.4503C234.74 32.2403 234.6 31.7903 235 31.9603L234.6 31.5703C234.58 31.0303 234.77 30.9503 235.3 31.2403C234.78 28.7003 233.84 27.4603 233.07 26.8203C232.3 26.1803 231.69 26.1503 231.69 26.1503C230.22 25.7703 230.91 27.3103 230.33 28.3303L230.31 28.3603Z" fill="#20BB65"/>
<path d="M189.19 55.3501L189.05 55.1501C189.08 55.2501 189.12 55.3401 189.19 55.3501Z" fill="#20BB65"/>
<path d="M188.05 48.1802C187.03 48.1802 186.48 47.2102 185.62 47.9202C185.13 47.9702 184.7 48.3501 184.28 48.6001C184.28 49.4801 183.68 48.7801 183.61 49.5301L183.38 49.1001C183.36 49.3601 183.29 49.5501 183.14 49.3201L183.11 49.1802C183.07 49.5702 182.87 49.4001 182.85 49.5901L182.82 49.4501L182.67 49.5502L182.65 49.3501C182.52 49.7801 182.29 49.8701 182.03 49.7601L182.2 50.3201C181.58 49.8101 181.72 51.0201 181.12 50.3801L181.09 50.2401C180.96 51.8601 180.01 49.4401 179.85 50.9901C179.87 50.8001 179.75 50.7101 179.72 50.5701C179.52 50.7901 179.28 50.9502 179.56 52.0502C179.38 52.0802 179.33 51.7401 179.19 51.3201C179.31 51.8001 179.21 52.0401 179.08 52.1101L179.1 51.9102L178.74 52.1802L179.05 53.0701C178.77 52.8601 178.71 51.9701 178.56 52.2401L178.75 53.0001C178.42 52.9301 177.95 51.8201 177.53 51.3301C176.27 51.3001 175.46 53.5501 174.03 52.4801L173.84 51.9202C173.62 51.0902 173.84 53.2301 173.6 52.4701L173.56 52.8801C173.49 52.7401 173.37 52.6001 173.39 52.4001C173.26 52.4001 173.29 52.5302 173.27 52.8102L173.02 52.3201C172.46 52.0301 172.29 53.1302 171.75 53.0402C170.91 52.1202 170.02 53.3502 169.5 54.0602C168.87 55.5202 167.07 52.4202 166.46 54.0602C166.4 53.9502 166.38 54.2301 166.41 54.3301L165.53 54.4001C165.53 54.4001 161.3 54.9701 165.96 61.2401L165.98 61.4302C166.55 61.7702 166.87 61.8102 167 60.8102C167.3 61.9202 167.41 60.8402 167.6 61.1802V61.2701C167.71 60.3401 168.36 61.8601 168.47 61.0201C168.47 61.1101 168.54 61.4201 168.48 61.4501C168.65 61.2601 168.87 60.9501 169.03 61.6001C169.48 61.3201 170.22 61.4701 170.3 60.3601L170.32 60.5502C170.34 59.8002 170.53 60.3901 170.64 59.9901C170.67 60.0701 170.69 60.1101 170.7 60.1501C170.73 59.4101 171.24 59.9101 171.32 59.5801L171.43 60.0101L171.79 59.8201L171.63 59.7601C171.41 58.5501 172.09 60.4401 172.19 59.6101C172.49 59.7001 172.14 57.0101 172.55 57.5301C172.55 56.9401 172.65 58.4601 172.74 57.9901C172.89 58.6101 172.74 58.4001 172.91 58.8901C173.03 58.5501 173.37 59.4501 173.5 58.9801L173.62 59.4601C173.72 58.5101 174.34 59.9601 174.35 59.0701C174.57 58.6001 174.9 60.4602 175 59.4302L175.28 60.0502C175.45 60.1202 175.19 59.2201 175.42 59.5001C175.51 59.9101 175.69 59.7801 175.7 60.2001C176.21 60.7601 176.19 59.1101 176.92 60.0901C176.83 59.2601 177.17 59.6802 177.1 59.0602C177.2 59.4102 177.58 59.0001 177.5 59.8201C177.5 59.8901 177.45 59.8901 177.42 59.7501L177.5 60.2301C177.98 61.0601 177.86 59.6201 178.15 59.6901C178.03 59.5501 177.94 59.6201 177.93 59.2801H178.19L178.24 59.7001L178.66 59.8401L178.49 59.3601C178.73 59.5701 179 60.4001 179.03 59.6401C179.03 59.2301 178.7 59.0202 178.84 58.8102C179.16 59.0902 179.64 59.5101 179.98 59.5801C179.81 59.0301 179.9 59.0301 179.95 58.9001L180.08 59.3801C180.23 58.6301 180.47 60.4102 180.65 59.8002L180.71 60.1401L180.54 59.1101C180.58 58.0801 180.95 60.0701 180.94 58.6901C180.84 58.8001 180.61 57.6402 180.82 57.8102L180.9 58.2902C180.96 58.1702 180.94 57.9702 181.02 58.0502C181.03 58.3102 181.17 58.7301 181.27 58.6201L181.34 59.2201L181.36 58.3002C181.67 58.7502 181.8 58.0501 182.05 58.6901C182.05 58.6901 182.53 58.9102 182.43 58.1702C182.47 58.6402 182.73 58.7502 182.8 59.2902C182.77 58.7602 182.96 58.2701 183.23 58.7701V58.8401C183.82 59.2701 183.79 57.8801 184.37 58.4401C184.2 57.8901 184.5 58.1302 184.25 57.4302C184.47 56.6202 185.4 58.6802 184.95 56.4302C185.11 56.2602 185.31 56.8901 185.44 56.9701V57.1001C185.73 56.8201 185.83 56.7701 186.1 56.7501C186.17 56.5001 185.91 55.4701 186.21 55.6501C186.25 56.0801 186.32 55.9801 186.41 55.9501C186.37 56.0301 186.4 56.1802 186.59 56.4202C186.57 56.2902 186.57 56.2101 186.59 56.1301C186.6 56.1601 186.61 56.1901 186.62 56.2301C186.73 56.0501 186.67 55.9301 186.58 55.8901C186.57 55.8301 186.54 55.7501 186.49 55.6401C186.79 56.1201 186.9 55.4902 187.11 56.1802C187.5 55.8902 187.61 55.0901 187.9 54.7101C188.04 55.0601 188.05 55.4001 187.98 55.5701L188.2 55.3701C188.34 55.8901 188.14 55.7101 188.09 55.8401C188.64 56.5901 188.49 54.8301 189.07 55.4901L189.03 55.0602L189.07 55.1201C189.01 54.9001 189 54.5901 189.04 54.5001C189.22 54.9301 189.34 55.5401 189.51 55.4601C189.78 55.8501 189.85 55.1301 189.96 54.8301C189.84 54.7801 189.8 54.5301 189.79 54.3601C189.87 54.3201 190.06 54.7502 190.07 54.5402L190.26 55.1401C190.06 54.5801 190.31 54.4601 190.27 54.2001C190.45 54.6301 190.25 54.6301 190.32 54.9701C190.66 54.8101 190.49 54.8901 190.83 54.7301C190.89 54.2201 190.63 54.1701 190.56 53.6101C190.69 53.4401 190.73 52.9701 191.03 53.2801L190.81 52.7601C191 52.2501 191.2 52.2501 191.58 52.7301C192.09 50.2001 191.74 48.6701 191.28 47.7801C190.82 46.8901 190.25 46.6301 190.25 46.6301C189 45.7201 189.01 47.4201 188.05 48.1501V48.1802Z" fill="#20BB65"/>
<path d="M141.51 65.9404L141.39 65.7305C141.41 65.8405 141.45 65.9204 141.51 65.9404Z" fill="#20BB65"/>
<path d="M141.07 58.6903C140.03 58.6003 139.57 57.5803 138.63 58.2003C138.13 58.2003 137.65 58.5504 137.2 58.7604C137.13 59.6304 136.58 58.8904 136.44 59.6404L136.25 59.1903C136.2 59.4503 136.13 59.6304 135.98 59.3904L135.96 59.2504C135.89 59.6304 135.69 59.4504 135.66 59.6404L135.64 59.5004L135.48 59.5903V59.3904C135.3 59.8104 135.06 59.8804 134.81 59.7504L134.94 60.3203C134.35 59.7703 134.41 60.9804 133.84 60.3104L133.82 60.1704C133.57 61.7704 132.78 59.3003 132.51 60.8303C132.54 60.6403 132.42 60.5404 132.4 60.4004C132.18 60.6104 131.92 60.7504 132.13 61.8704C131.94 61.8904 131.91 61.5504 131.81 61.1204C131.9 61.6104 131.78 61.8404 131.65 61.9004L131.68 61.7003L131.3 61.9403L131.56 62.8503C131.29 62.6203 131.29 61.7303 131.12 61.9903L131.27 62.7604C130.94 62.6604 130.54 61.5404 130.14 61.0204C128.86 60.9204 127.93 63.1203 126.54 61.9803L126.38 61.4104C126.2 60.5704 126.31 62.7203 126.11 61.9403L126.05 62.3503C125.98 62.2103 125.88 62.0603 125.9 61.8603C125.77 61.8503 125.8 61.9904 125.76 62.2604L125.53 61.7604C124.97 61.4404 124.76 62.5304 124.21 62.4204C123.4 61.4604 122.45 62.6603 121.9 63.3503C121.22 64.7803 119.5 61.6303 118.83 63.2403C118.78 63.1303 118.75 63.4104 118.77 63.5104L117.88 63.5504C117.88 63.5504 113.62 64.0104 118.16 70.3904V70.5803C118.73 70.9403 119.05 70.9804 119.2 70.0004C119.47 71.1204 119.61 70.0404 119.79 70.3904V70.4803C119.92 69.5603 120.53 71.0904 120.66 70.2604C120.66 70.3504 120.72 70.6603 120.66 70.6903C120.84 70.5103 121.06 70.2103 121.21 70.8603C121.66 70.6003 122.4 70.7804 122.5 69.6704V69.8603C122.55 69.1203 122.72 69.7104 122.85 69.3104C122.88 69.3904 122.9 69.4403 122.9 69.4703C122.96 68.7303 123.44 69.2604 123.54 68.9304L123.63 69.3704L123.99 69.2003L123.83 69.1304C123.65 67.9204 124.27 69.8304 124.39 69.0004C124.68 69.1004 124.44 66.4003 124.82 66.9403C124.84 66.3503 124.88 67.8804 124.99 67.4104C125.12 68.0404 124.98 67.8204 125.12 68.3104C125.25 67.9804 125.55 68.8904 125.71 68.4304L125.81 68.9204C125.94 67.9704 126.51 69.4603 126.55 68.5703C126.79 68.1103 127.04 69.9803 127.18 68.9603L127.43 69.6003C127.59 69.6803 127.38 68.7704 127.59 69.0604C127.66 69.4804 127.85 69.3604 127.83 69.7704C128.31 70.3604 128.37 68.7103 129.04 69.7303C128.99 68.9003 129.31 69.3403 129.27 68.7203C129.35 69.0703 129.75 68.6904 129.63 69.5104C129.62 69.5804 129.58 69.5704 129.55 69.4304L129.61 69.9204C130.05 70.7804 129.99 69.3304 130.28 69.4204C130.17 69.2804 130.08 69.3403 130.08 68.9903L130.34 69.0104L130.37 69.4204L130.78 69.5903L130.63 69.1003C130.86 69.3203 131.08 70.1604 131.14 69.4204C131.15 69.0104 130.84 68.7803 131 68.5903C131.3 68.8903 131.75 69.3404 132.08 69.4304C131.94 68.8704 132.03 68.8804 132.09 68.7504L132.19 69.2403C132.38 68.5003 132.51 70.2903 132.73 69.6903L132.77 70.0404L132.66 69.0004C132.76 67.9804 133.01 69.9903 133.07 68.6003C132.96 68.7103 132.81 67.5303 133 67.7203L133.05 68.2003C133.12 68.0803 133.11 67.8803 133.18 67.9703C133.18 68.2303 133.28 68.6604 133.39 68.5604L133.42 69.1704L133.49 68.2604C133.77 68.7304 133.94 68.0403 134.14 68.6903C134.14 68.6903 134.6 68.9403 134.55 68.2003C134.55 68.6703 134.81 68.8003 134.85 69.3403C134.85 68.8103 135.08 68.3303 135.3 68.8603V68.9304C135.84 69.4004 135.91 68.0204 136.44 68.6304C136.31 68.0704 136.59 68.3404 136.4 67.6204C136.68 66.8204 137.44 68.9504 137.17 66.6804C137.34 66.5204 137.49 67.1604 137.61 67.2604L137.59 67.3904C137.91 67.1404 138.01 67.1003 138.28 67.1003C138.37 66.8603 138.19 65.8104 138.48 66.0204C138.48 66.4504 138.56 66.3503 138.65 66.3403C138.61 66.4203 138.62 66.5703 138.79 66.8303C138.79 66.7003 138.79 66.6204 138.8 66.5504C138.8 66.5804 138.82 66.6104 138.82 66.6504C138.94 66.4804 138.89 66.3504 138.82 66.3104C138.82 66.2504 138.79 66.1704 138.75 66.0504C139 66.5604 139.17 65.9304 139.32 66.6404C139.73 66.3904 139.91 65.6004 140.23 65.2504C140.34 65.6104 140.32 65.9503 140.23 66.1103L140.47 65.9304C140.57 66.4604 140.38 66.2604 140.32 66.3804C140.79 67.1704 140.8 65.4104 141.31 66.1204V65.6903L141.34 65.7604C141.3 65.5404 141.32 65.2204 141.36 65.1404C141.5 65.5904 141.56 66.2004 141.73 66.1404C141.96 66.5604 142.09 65.8404 142.24 65.5604C142.12 65.5004 142.11 65.2403 142.12 65.0703C142.21 65.0403 142.35 65.4904 142.38 65.2804L142.51 65.9004C142.36 65.3204 142.63 65.2303 142.61 64.9703C142.75 65.4203 142.54 65.3903 142.59 65.7403C142.94 65.6103 142.77 65.6804 143.12 65.5504C143.23 65.0504 142.97 64.9704 142.96 64.4104C143.11 64.2604 143.19 63.7904 143.46 64.1304L143.29 63.5903C143.53 63.1003 143.73 63.1304 144.06 63.6504C145.61 58.7304 143.41 57.4403 143.41 57.4403C142.24 56.4003 142.05 58.0903 141.01 58.7303L141.07 58.6903Z" fill="#20BB65"/>
<path d="M93.9902 75.3901L93.8602 75.1802C93.8902 75.2802 93.9302 75.3701 93.9902 75.3901Z" fill="#20BB65"/>
<path d="M93.2102 68.1703C92.1602 68.1303 91.6401 67.1403 90.7201 67.8103C90.2101 67.8403 89.7502 68.2202 89.3002 68.4602C89.2802 69.3402 88.6802 68.6303 88.5802 69.3803L88.3602 68.9402C88.3302 69.2002 88.2601 69.3803 88.1001 69.1603L88.0702 69.0203C88.0202 69.4103 87.8102 69.2403 87.7901 69.4303L87.7602 69.2903L87.6102 69.3903L87.5902 69.1902C87.4402 69.6202 87.2002 69.7103 86.9402 69.6003L87.1001 70.1603C86.4701 69.6503 86.6002 70.8603 85.9902 70.2203L85.9602 70.0802C85.8202 71.7002 84.8602 69.2903 84.6802 70.8403C84.7002 70.6503 84.5702 70.5603 84.5402 70.4203C84.3302 70.6503 84.0802 70.8003 84.3802 71.9003C84.1902 71.9303 84.1402 71.5903 84.0002 71.1803C84.1302 71.6603 84.0302 71.9003 83.8902 71.9703L83.9101 71.7703L83.5502 72.0503L83.8802 72.9402C83.5902 72.7402 83.5202 71.8403 83.3802 72.1203L83.5902 72.8703C83.2502 72.8003 82.7602 71.7103 82.3202 71.2303C81.0202 71.2403 80.2702 73.5203 78.7702 72.5303L78.5602 71.9803C78.3002 71.1603 78.6102 73.2903 78.3402 72.5403L78.3202 72.9502C78.2402 72.8102 78.1202 72.6803 78.1302 72.4703C78.0002 72.4703 78.0402 72.6103 78.0202 72.8803L77.7402 72.4103C77.1502 72.1503 77.0302 73.2603 76.4802 73.2102C75.5602 72.3502 74.7202 73.6503 74.2502 74.4203C73.7302 75.9203 71.6302 73.0203 71.1402 74.7203C71.0702 74.6103 71.0802 74.9003 71.1102 74.9903L70.2201 75.1603C70.2201 75.1603 69.1602 75.4303 68.7902 76.4203C68.4102 77.4003 68.7602 79.0803 71.4302 81.9103L71.4701 82.0903C72.0601 82.3603 72.3802 82.3703 72.3902 81.3703C72.8102 82.4503 72.8002 81.3603 73.0202 81.6803L73.0402 81.7703C73.0402 80.8403 73.8301 82.2802 73.8501 81.4402C73.8701 81.5302 73.9601 81.8303 73.9101 81.8703C74.0601 81.6703 74.2402 81.3403 74.4602 81.9703C74.8702 81.6503 75.6002 81.7403 75.5702 80.6303L75.6102 80.8103C75.5602 80.0703 75.8002 80.6403 75.8702 80.2303C75.9102 80.3103 75.9302 80.3503 75.9402 80.3903C75.9102 79.6503 76.4502 80.1103 76.5002 79.7803L76.6402 80.2002L76.9802 79.9903L76.8102 79.9402C76.5002 78.7602 77.3201 80.5903 77.3501 79.7503C77.6401 79.8203 77.1102 77.1603 77.5502 77.6503C77.5102 77.0603 77.7102 78.5803 77.7702 78.1003C77.9602 78.7103 77.8002 78.5103 77.9902 78.9803C78.0902 78.6303 78.4802 79.5103 78.5802 79.0303L78.7302 79.5003C78.7602 78.5403 79.4702 79.9602 79.4202 79.0702C79.6102 78.5902 80.0402 80.4303 80.0802 79.4003L80.3902 80.0103C80.5502 80.0703 80.2502 79.1902 80.5002 79.4602C80.6102 79.8702 80.7802 79.7303 80.8102 80.1403C81.3302 80.6803 81.2402 79.0403 81.9902 79.9903C81.8602 79.1703 82.2202 79.5802 82.1202 78.9602C82.2302 79.3003 82.5902 78.8903 82.5502 79.7102C82.5502 79.7802 82.5001 79.7803 82.4701 79.6403L82.5702 80.1203C83.0802 80.9403 82.8902 79.5002 83.1802 79.5702C83.0602 79.4302 82.9702 79.5003 82.9502 79.1603H83.2002L83.2602 79.5702L83.6702 79.7002L83.4802 79.2203C83.7202 79.4203 84.0102 80.2403 84.0102 79.4903C83.9902 79.0803 83.6602 78.8703 83.8002 78.6703C84.1202 78.9403 84.6002 79.3503 84.9302 79.4203C84.7502 78.8703 84.8402 78.8703 84.8902 78.7403L85.0302 79.2203C85.1602 78.4703 85.4302 80.2503 85.5902 79.6303L85.6502 79.9703L85.4602 78.9402C85.4802 77.9102 85.8802 79.9003 85.8402 78.5103C85.7402 78.6203 85.5002 77.4703 85.7002 77.6303L85.7901 78.1003C85.8501 77.9803 85.8202 77.7803 85.9002 77.8603C85.9202 78.1203 86.0501 78.5403 86.1601 78.4303L86.2302 79.0303V78.1103C86.5402 78.5603 86.6601 77.8603 86.9101 78.5003C86.9101 78.5003 87.3802 78.7203 87.2802 77.9803C87.3202 78.4503 87.5802 78.5603 87.6502 79.1003C87.6202 78.5703 87.8002 78.0803 88.0602 78.5903V78.6603C88.6302 79.1003 88.6002 77.7103 89.1702 78.2803C89.0102 77.7203 89.2902 77.9803 89.0602 77.2703C89.2902 76.4603 90.1702 78.5403 89.7602 76.2903C89.9202 76.1203 90.1102 76.7503 90.2302 76.8403V76.9703C90.5202 76.7003 90.6102 76.6503 90.8802 76.6403C90.9502 76.3903 90.7202 75.3603 91.0102 75.5503C91.0402 75.9803 91.1102 75.8803 91.2002 75.8603C91.1602 75.9403 91.1802 76.0903 91.3602 76.3403C91.3402 76.2103 91.3502 76.1303 91.3602 76.0503C91.3602 76.0803 91.3802 76.1103 91.3902 76.1503C91.5002 75.9703 91.4402 75.8503 91.3602 75.8103C91.3502 75.7503 91.3202 75.6703 91.2702 75.5603C91.5502 76.0503 91.6802 75.4203 91.8702 76.1203C92.2602 75.8503 92.4002 75.0502 92.6902 74.6902C92.8202 75.0402 92.8102 75.3803 92.7402 75.5503L92.9602 75.3603C93.0802 75.8803 92.8902 75.7002 92.8302 75.8202C93.3402 76.5902 93.2602 74.8303 93.8002 75.5103L93.7802 75.0802L93.8202 75.1403C93.7702 74.9203 93.7802 74.6103 93.8202 74.5203C93.9802 74.9603 94.0702 75.5703 94.2402 75.5003C94.4802 75.9003 94.5902 75.1903 94.7102 74.9003C94.5902 74.8503 94.5602 74.5903 94.5702 74.4203C94.6602 74.3803 94.8102 74.8303 94.8402 74.6103L94.9902 75.2203C94.8202 74.6503 95.0802 74.5403 95.0502 74.2803C95.2102 74.7203 95.0002 74.7003 95.0602 75.0503C95.4002 74.9103 95.2302 74.9803 95.5702 74.8403C95.6502 74.3303 95.4002 74.2702 95.3602 73.7102C95.5002 73.5503 95.5702 73.0803 95.8402 73.4103L95.6502 72.8803C95.8702 72.3803 96.0702 72.4003 96.4202 72.9103C97.7702 67.9203 95.5302 66.7303 95.5302 66.7303C94.3102 65.7403 94.1801 67.4403 93.1601 68.1303L93.2102 68.1703Z" fill="#20BB65"/>
<path d="M49.2702 91.6403L49.0902 91.4802C49.1402 91.5702 49.2102 91.6403 49.2702 91.6403Z" fill="#20BB65"/>
<path d="M34.8402 102.64C34.8402 102.64 34.8502 102.67 34.8602 102.69C34.8602 102.67 34.8502 102.65 34.8402 102.64Z" fill="#20BB65"/>
<path d="M42.7002 86.4603C42.7002 86.4603 42.7002 86.4204 42.6902 86.4004V86.4603H42.7002Z" fill="#20BB65"/>
<path d="M46.4702 84.9401C45.4202 85.2101 44.6302 84.4302 43.9102 85.3602C43.4102 85.5602 43.0702 86.0702 42.7002 86.4502C42.9402 87.2902 42.1402 86.8101 42.2802 87.5701L41.9302 87.2302C41.9802 87.4902 41.9702 87.6902 41.7502 87.5302L41.6802 87.4102C41.7502 87.8002 41.5002 87.7002 41.5302 87.9002L41.4602 87.7802L41.3402 87.9303L41.2602 87.7502C41.2602 88.2102 41.0502 88.3702 40.7602 88.3602L41.1002 88.8302C40.3302 88.5702 40.8502 89.6702 40.0502 89.2902L39.9802 89.1702C40.3902 90.7402 38.6402 88.8302 39.0002 90.3602C38.9502 90.1702 38.8002 90.1402 38.7202 90.0202C38.6002 90.3102 38.4102 90.5502 39.0802 91.4802C38.9102 91.5802 38.7402 91.2801 38.4602 90.9401C38.7602 91.3401 38.7402 91.6102 38.6402 91.7202L38.5802 91.5202L38.3302 91.9202L38.9602 92.6302C38.6202 92.5502 38.2302 91.7403 38.1902 92.0603L38.6602 92.6803C38.3202 92.7503 37.4502 91.9102 36.8502 91.6502C35.5902 92.1902 35.7802 94.6102 33.9802 94.3302L33.5602 93.9202C32.9802 93.2802 34.1302 95.1002 33.5802 94.5302L33.7302 94.9202C33.6002 94.8302 33.4302 94.7601 33.3602 94.5701C33.2402 94.6301 33.3302 94.7402 33.4302 95.0002L32.9702 94.6901C32.3102 94.7301 32.6602 95.7802 32.1202 95.9902C30.9002 95.6402 30.6702 97.2202 30.6002 98.1302C30.8202 99.7002 27.5602 98.1902 27.9202 99.9602C27.8102 99.9002 27.9502 100.15 28.0302 100.22L27.3202 100.84C27.3202 100.84 27.1102 101.04 26.9302 101.37C26.7502 101.71 26.5902 102.18 26.6802 102.7C26.8402 103.77 28.0502 104.95 31.7702 106.05L31.9002 106.19C32.5402 106.13 32.7902 105.99 32.3002 105.14C33.2002 105.87 32.6402 104.94 32.9902 105.11L33.0502 105.18C32.5802 104.38 33.9702 105.25 33.5702 104.52C33.6302 104.59 33.8602 104.81 33.8302 104.87C33.8602 104.63 33.8502 104.26 34.3502 104.71C34.5402 104.26 35.1902 104 34.6502 103.05L34.7702 103.2C34.3802 102.57 34.8502 102.97 34.7302 102.57C34.8002 102.62 34.8402 102.65 34.8702 102.67C34.5002 102.03 35.1802 102.21 35.0702 101.88L35.3902 102.19L35.5802 101.86L35.4102 101.89C34.5902 100.97 36.1502 102.25 35.8002 101.49C36.0902 101.43 34.4402 99.2802 35.0502 99.5302C34.7602 99.0202 35.6002 100.29 35.4402 99.8402C35.8802 100.3 35.6502 100.2 36.0302 100.54C35.9602 100.19 36.6902 100.81 36.5702 100.34L36.9102 100.7C36.5202 99.8302 37.7602 100.82 37.3302 100.04C37.2902 99.5302 38.4602 101.01 38.0502 100.07L38.5802 100.5C38.7502 100.5 38.1102 99.8102 38.4402 99.9602C38.7102 100.29 38.8002 100.1 39.0002 100.46C39.6802 100.75 38.9202 99.3002 39.9702 99.8802C39.5202 99.1802 40.0002 99.4202 39.6702 98.8902C39.9102 99.1602 40.0602 98.6502 40.3502 99.4202C40.3702 99.4802 40.3402 99.5002 40.2502 99.3902L40.5402 99.7902C41.3202 100.35 40.5802 99.1101 40.8602 99.0701C40.7002 98.9901 40.6502 99.0802 40.4902 98.7802L40.7102 98.6901L40.9302 99.0402L41.3502 99.0102L41.0002 98.6402C41.3002 98.7402 41.8702 99.3902 41.5802 98.7002C41.4002 98.3302 41.0302 98.2602 41.0802 98.0202C41.4802 98.1602 42.0702 98.3703 42.3902 98.3103C42.0202 97.8703 42.1002 97.8402 42.0902 97.7002L42.4002 98.0902C42.2302 97.3502 43.1502 98.9002 43.0602 98.2802L43.2502 98.5701L42.6902 97.6901C42.3202 96.7301 43.4202 98.4302 42.8702 97.1702C42.8202 97.3102 42.1702 96.3202 42.4302 96.4002L42.6802 96.8103C42.6802 96.6803 42.5902 96.5002 42.7002 96.5503C42.8102 96.7902 43.0902 97.1302 43.1402 96.9902L43.4302 97.5202L43.1002 96.6702C43.5502 96.9802 43.4002 96.2902 43.8502 96.8003C43.8502 96.8003 44.3502 96.8501 43.9902 96.1901C44.1902 96.6101 44.4602 96.6302 44.7302 97.1102C44.5102 96.6302 44.5102 96.1102 44.9202 96.5002L44.9402 96.5603C45.6102 96.7903 45.1102 95.5002 45.8202 95.8502C45.4802 95.3802 45.8202 95.5301 45.3802 94.9401C45.3202 94.1101 46.8202 95.7902 45.7002 93.8003C45.7902 93.5903 46.1802 94.1303 46.3202 94.1803L46.3502 94.3103C46.5402 93.9603 46.6102 93.8903 46.8602 93.8003C46.8602 93.5402 46.3002 92.6402 46.6402 92.7302C46.8002 93.1302 46.8402 93.0102 46.9102 92.9602C46.9002 93.0502 46.9702 93.1902 47.2102 93.3702C47.1502 93.2502 47.1302 93.1702 47.1202 93.1002C47.1402 93.1302 47.1602 93.1501 47.1802 93.1901C47.2202 92.9901 47.1302 92.8902 47.0502 92.8802C47.0202 92.8202 46.9702 92.7602 46.8902 92.6702C47.3102 93.0502 47.2302 92.4202 47.6202 93.0202C47.9002 92.6502 47.7802 91.8402 47.9502 91.4202C48.1802 91.7202 48.2702 92.0502 48.2602 92.2202L48.4102 91.9702C48.6802 92.4302 48.4402 92.3101 48.4302 92.4401C49.1402 93.0301 48.5302 91.3702 49.2502 91.8802L49.1002 91.4802L49.1502 91.5302C49.0402 91.3402 48.9502 91.0301 48.9602 90.9401C49.2402 91.3201 49.5002 91.8702 49.6402 91.7602C49.9902 92.0802 49.8702 91.3703 49.9102 91.0603C49.7802 91.0403 49.6802 90.8002 49.6402 90.6402C49.7102 90.5802 49.9902 90.9602 49.9502 90.7502L50.2702 91.2902C49.9502 90.7902 50.1602 90.6202 50.0602 90.3802C50.3302 90.7602 50.1402 90.8002 50.2902 91.1202C50.5702 90.8902 50.4302 91.0102 50.7202 90.7802C50.6602 90.2702 50.4002 90.2802 50.2102 89.7502C50.3002 89.5602 50.2302 89.0902 50.5902 89.3302L50.2702 88.8702C50.3502 88.3402 50.5502 88.3001 51.0102 88.6901C50.9902 86.1101 50.4102 84.6602 49.7802 83.8802C49.1602 83.0902 48.5202 82.9602 48.5202 82.9602C47.0402 82.3502 47.3602 84.0302 46.5402 85.0002L46.4702 84.9401Z" fill="#20BB65"/>
<path d="M20.2502 126.79L20.0102 126.77C20.1102 126.81 20.2002 126.83 20.2502 126.79Z" fill="#20BB65"/>
<path d="M14.2902 144.44C14.2902 144.44 14.3202 144.46 14.3402 144.47C14.3302 144.45 14.3102 144.44 14.2902 144.44Z" fill="#20BB65"/>
<path d="M11.8802 126.65C11.8802 126.65 11.8502 126.62 11.8302 126.61L11.8802 126.65Z" fill="#20BB65"/>
<path d="M13.9102 123.24C13.2602 124.08 12.1602 123.94 12.1702 125.09C11.9002 125.53 11.9402 126.13 11.8802 126.64C12.5802 127.16 11.6602 127.25 12.2202 127.77L11.7302 127.7C11.9202 127.88 12.0402 128.04 11.7602 128.04L11.6302 127.99C11.9202 128.25 11.6602 128.33 11.8102 128.46L11.6802 128.41V128.59L11.5002 128.49C11.7702 128.86 11.7102 129.11 11.4602 129.26L12.0102 129.44C11.2402 129.67 12.3102 130.25 11.4302 130.4L11.3002 130.35C12.5502 131.39 10.0202 130.82 11.2002 131.85C11.0502 131.72 10.9102 131.78 10.7802 131.73C10.8502 132.03 10.8402 132.33 11.9102 132.71C11.8302 132.88 11.5202 132.74 11.1002 132.62C11.5702 132.78 11.7102 133.01 11.6902 133.16L11.5302 133.03L11.5502 133.49L12.4702 133.72C12.1402 133.84 11.3602 133.4 11.5102 133.68L12.2502 133.93C12.0002 134.17 10.8302 133.96 10.1802 134.07C9.45018 135.17 10.9302 137.07 9.27021 137.76L8.69019 137.63C7.86019 137.39 9.80022 138.32 9.03022 138.12L9.36018 138.37C9.20018 138.37 9.02018 138.39 8.86018 138.27C8.79018 138.38 8.92022 138.43 9.15022 138.59L8.60017 138.56C8.06017 138.92 8.9202 139.62 8.5702 140.06C7.3502 140.35 7.97017 141.78 8.35017 142.6C9.32017 143.86 5.74021 144.03 6.89021 145.37C6.76021 145.37 7.01017 145.52 7.10017 145.54L6.7602 146.38C6.7602 146.38 6.41022 147.42 7.03022 148.27C7.65022 149.13 9.2402 149.74 13.0702 149.05L13.2402 149.12C13.7902 148.77 13.9702 148.51 13.1402 147.96C14.2702 148.2 13.3502 147.61 13.7402 147.6L13.8302 147.63C13.0502 147.12 14.6902 147.24 14.0002 146.77C14.0902 146.8 14.3902 146.89 14.3902 146.96C14.3002 146.73 14.1302 146.39 14.7802 146.55C14.7402 146.04 15.2102 145.47 14.2702 144.89L14.4402 144.96C13.7902 144.59 14.4002 144.71 14.1002 144.42C14.1902 144.43 14.2302 144.43 14.2702 144.44C13.6402 144.06 14.3202 143.87 14.0702 143.63L14.5002 143.74V143.34L14.3802 143.45C13.2202 143.06 15.2002 143.39 14.5202 142.9C14.7402 142.7 12.2302 141.67 12.8802 141.58C12.3702 141.29 13.7402 141.96 13.3702 141.64C13.9802 141.82 13.7302 141.84 14.2302 141.94C13.9902 141.67 14.9402 141.83 14.6002 141.48L15.0802 141.62C14.3002 141.06 15.8702 141.26 15.1102 140.81C14.8102 140.39 16.5802 141.04 15.7502 140.44L16.4302 140.52C16.5802 140.42 15.6702 140.18 16.0302 140.13C16.4302 140.27 16.4102 140.05 16.7702 140.25C17.5102 140.12 16.0902 139.29 17.3002 139.19C16.5502 138.84 17.0802 138.77 16.5202 138.51C16.8702 138.61 16.7202 138.09 17.3802 138.58C17.4302 138.62 17.4102 138.65 17.2802 138.61L17.7402 138.79C18.7002 138.83 17.4102 138.18 17.6202 137.98C17.4402 138 17.4502 138.11 17.1502 137.94L17.2902 137.73L17.6702 137.91L18.0102 137.64L17.5102 137.53C17.8102 137.45 18.6502 137.66 18.0302 137.24C17.6802 137.03 17.3302 137.18 17.2302 136.95C17.6402 136.84 18.2502 136.67 18.4902 136.44C17.9402 136.28 17.9802 136.21 17.9002 136.1L18.3702 136.25C17.8202 135.72 19.4402 136.49 19.0202 136.02L19.3402 136.16L18.3802 135.74C17.5402 135.15 19.4102 135.93 18.2402 135.19C18.2802 135.34 17.1802 134.89 17.4402 134.81L17.8802 135.01C17.8102 134.9 17.6302 134.8 17.7502 134.78C17.9802 134.91 18.4002 135.04 18.3702 134.89L18.9102 135.17L18.1502 134.65C18.7002 134.65 18.1802 134.16 18.8502 134.31C18.8502 134.31 19.2902 134.05 18.6202 133.72C19.0302 133.95 19.2702 133.8 19.7602 134.05C19.3002 133.78 19.0002 133.35 19.5702 133.43L19.6202 133.47C20.3102 133.25 19.1502 132.49 19.9302 132.35C19.3802 132.17 19.7502 132.08 19.0402 131.87C18.5002 131.22 20.7102 131.69 18.6302 130.74C18.5802 130.52 19.2102 130.72 19.3502 130.67L19.4502 130.75C19.4002 130.35 19.4102 130.25 19.5602 130.02C19.4002 129.82 18.4202 129.42 18.7402 129.29C19.1102 129.51 19.0702 129.39 19.1002 129.31C19.1402 129.39 19.2802 129.46 19.5902 129.45C19.4702 129.39 19.4102 129.34 19.3502 129.29C19.3802 129.3 19.4102 129.31 19.4502 129.32C19.3602 129.13 19.2302 129.11 19.1502 129.15C19.0902 129.12 19.0102 129.1 18.9002 129.08C19.4602 129.13 19.0202 128.67 19.7002 128.91C19.7002 128.44 19.1202 127.87 19.0002 127.42C19.3602 127.52 19.6402 127.72 19.7302 127.87L19.7002 127.58C20.2002 127.78 19.9302 127.83 20.0002 127.95C20.9202 127.98 19.4302 127.03 20.3102 126.99L19.9402 126.76H20.0102C19.8002 126.68 19.5502 126.49 19.5002 126.42C19.9502 126.55 20.5002 126.82 20.5402 126.65C21.0102 126.69 20.4802 126.19 20.3202 125.92C20.2102 125.98 19.9802 125.86 19.8502 125.75C19.8702 125.66 20.3202 125.79 20.1602 125.65L20.7502 125.88C20.1902 125.69 20.2502 125.42 20.0202 125.29C20.4702 125.42 20.3402 125.57 20.6602 125.73C20.7402 125.37 20.7002 125.55 20.7802 125.19C20.4102 124.83 20.2202 125 19.7402 124.7C19.6902 124.49 19.3502 124.17 19.7702 124.13L19.2302 123.97C18.9502 123.5 19.0902 123.35 19.7002 123.36C18.0702 121.36 16.6902 120.62 15.7102 120.4C14.7302 120.18 14.1602 120.47 14.1602 120.47C12.6402 120.9 13.9402 122 13.9102 123.24Z" fill="#20BB65"/>
<path d="M9.0202 172.97L8.78021 173.03C8.89021 173.03 8.9802 173.03 9.0202 172.97Z" fill="#20BB65"/>
<path d="M1.01019 175.4C1.01019 175.4 0.980195 175.38 0.950195 175.37L1.01019 175.4Z" fill="#20BB65"/>
<path d="M1.91016 171.49C1.54016 172.5 0.450185 172.7 0.810185 173.81C0.690185 174.32 0.910197 174.88 1.0102 175.39C1.8402 175.67 0.99018 176.05 1.68018 176.36L1.2002 176.45C1.4402 176.56 1.6002 176.68 1.3302 176.76H1.19019C1.55019 176.91 1.32019 177.06 1.50019 177.14H1.36017L1.41016 177.31L1.21021 177.27C1.59021 177.54 1.60017 177.8 1.42017 178.02H2.00019C1.34019 178.49 2.54019 178.7 1.75019 179.12H1.61017C3.12017 179.7 0.550177 179.97 1.99018 180.58C1.81018 180.51 1.69018 180.61 1.55018 180.6C1.71018 180.87 1.80019 181.15 2.94019 181.17C2.92019 181.36 2.5802 181.32 2.1402 181.34C2.6402 181.34 2.84018 181.51 2.87018 181.66L2.68018 181.59L2.85016 182.02L3.79017 181.94C3.52017 182.16 2.64018 181.99 2.87018 182.21H3.65021C3.50021 182.52 2.31018 182.71 1.74018 183.02C1.41018 184.31 3.43016 185.62 2.10016 186.84L1.5102 186.91C0.650197 186.96 2.79019 187.19 2.00019 187.27L2.40021 187.39C2.25021 187.43 2.0902 187.52 1.8902 187.46C1.8602 187.59 2.00021 187.59 2.27021 187.67L1.74018 187.83C1.35018 188.35 2.40016 188.73 2.22016 189.27C1.17016 189.97 2.24019 191.11 2.88019 191.75C4.22019 192.6 0.930168 194.02 2.48017 194.88C2.36017 194.92 2.64018 194.98 2.74018 194.97L2.71021 195.89C2.71021 195.89 2.7502 197 3.6402 197.57C4.5202 198.16 6.23019 198.15 9.57019 196.14H9.7602C10.1502 195.62 10.2202 195.32 9.25019 195.1C10.3902 194.93 9.33019 194.7 9.69019 194.55H9.78022C8.87022 194.36 10.4502 193.89 9.6402 193.7C9.7302 193.7 10.0502 193.68 10.0702 193.74C9.91019 193.56 9.63017 193.31 10.2902 193.23C10.0702 192.77 10.3202 192.08 9.23017 191.86H9.42017C8.69017 191.75 9.30016 191.65 8.91016 191.48C9.00016 191.46 9.0402 191.45 9.0802 191.44C8.3502 191.3 8.93017 190.89 8.61017 190.76L9.05017 190.72L8.92017 190.35L8.8302 190.5C7.6002 190.53 9.58021 190.16 8.77021 189.94C8.91021 189.67 6.20022 189.57 6.78022 189.26C6.20022 189.16 7.7202 189.32 7.2602 189.15C7.9002 189.11 7.67017 189.22 8.17017 189.14C7.86017 188.97 8.80017 188.8 8.36017 188.59L8.86017 188.55C7.94017 188.29 9.49017 187.95 8.61017 187.79C8.19017 187.49 10.0802 187.52 9.09021 187.23L9.7602 187.08C9.8602 186.94 8.93019 187.01 9.25019 186.85C9.67019 186.85 9.58018 186.64 9.99018 186.72C10.6402 186.35 9.03019 186.05 10.1302 185.56C9.30019 185.48 9.78017 185.24 9.17017 185.18C9.53017 185.16 9.22019 184.72 10.0002 184.96C10.0602 184.98 10.0502 185.02 9.91016 185.02L10.4002 185.04C11.3202 184.76 9.88021 184.58 10.0202 184.32C9.86021 184.4 9.90019 184.5 9.57019 184.44L9.63019 184.2L10.0402 184.24L10.2702 183.88L9.7602 183.94C10.0202 183.76 10.8802 183.69 10.1602 183.5C9.76016 183.41 9.48018 183.67 9.31018 183.49C9.66018 183.25 10.1802 182.9 10.3302 182.61C9.7602 182.64 9.78016 182.56 9.66016 182.48H10.1602C9.47016 182.15 11.2602 182.36 10.7002 182.04L11.0502 182.07L10.0102 181.98C9.0202 181.69 11.0402 181.83 9.7002 181.51C9.7802 181.63 8.60019 181.56 8.82019 181.41L9.30017 181.45C9.20017 181.36 9.00016 181.33 9.10016 181.28C9.36016 181.33 9.80016 181.31 9.72016 181.19L10.3202 181.28L9.44019 181.04C9.96019 180.86 9.32018 180.57 9.99018 180.5C9.99018 180.5 10.3302 180.12 9.59021 180.01C10.0502 180.1 10.2302 179.89 10.7702 179.96C10.2502 179.85 9.8302 179.54 10.3902 179.43L10.4502 179.45C11.0302 179.03 9.6902 178.67 10.3902 178.3C9.8102 178.3 10.1302 178.1 9.3902 178.13C8.6802 177.69 10.9202 177.44 8.65021 177.2C8.53021 177.01 9.19019 177 9.32019 176.91L9.44019 176.96C9.27019 176.6 9.25019 176.5 9.32019 176.24C9.10019 176.1 8.05019 176.02 8.32019 175.8C8.74019 175.9 8.66017 175.8 8.67017 175.71C8.73017 175.77 8.89018 175.8 9.18018 175.7C9.05018 175.68 8.97016 175.65 8.91016 175.62C8.94016 175.62 8.9702 175.62 9.0102 175.62C8.8702 175.47 8.74018 175.48 8.68018 175.55C8.62018 175.55 8.53017 175.55 8.42017 175.55C8.97017 175.43 8.41019 175.12 9.13019 175.15C8.99019 174.7 8.2602 174.34 8.0102 173.95C8.3802 173.93 8.71021 174.04 8.84021 174.16L8.72016 173.89C9.25016 173.93 9.02018 174.06 9.12018 174.15C10.0102 173.9 8.30018 173.45 9.12018 173.15L8.7002 173.04L8.77021 173.02C8.55021 173 8.25018 172.9 8.18018 172.84C8.65018 172.82 9.25018 172.92 9.24018 172.74C9.70018 172.63 9.05018 172.32 8.81018 172.11C8.72018 172.2 8.47018 172.15 8.31018 172.09C8.31018 172 8.7702 171.98 8.5802 171.9L9.21021 171.94C8.62021 171.93 8.59021 171.65 8.34021 171.6C8.81021 171.59 8.7302 171.77 9.0802 171.83C9.0502 171.46 9.07016 171.65 9.04016 171.28C8.58016 171.05 8.44021 171.26 7.90021 171.12C7.79021 170.94 7.3702 170.73 7.7602 170.57H7.2002C6.8002 170.22 6.88016 170.03 7.47016 169.87C5.32016 168.44 3.79017 168.13 2.79017 168.21C1.79017 168.29 1.3302 168.74 1.3302 168.74C0.000204384 169.61 1.57016 170.28 1.91016 171.49Z" fill="#20BB65"/>
<path d="M14.8602 219.68L14.6602 219.83C14.7602 219.79 14.8402 219.75 14.8602 219.68Z" fill="#20BB65"/>
<path d="M7.74019 221.16C7.80019 222.23 6.88017 222.86 7.66017 223.74C7.76017 224.26 8.18018 224.69 8.48018 225.12C9.35018 225.05 8.73019 225.74 9.49019 225.75L9.08022 226.02C9.34022 226.02 9.54022 226.07 9.33022 226.26L9.20021 226.3C9.59021 226.3 9.45021 226.54 9.64021 226.54L9.51021 226.59L9.6302 226.73L9.43019 226.77C9.88019 226.87 10.0002 227.1 9.92018 227.38L10.4502 227.15C10.0302 227.85 11.2202 227.56 10.6702 228.26L10.5402 228.31C12.1602 228.24 9.92019 229.53 11.4902 229.5C11.3002 229.5 11.2302 229.65 11.1002 229.7C11.3602 229.88 11.5502 230.11 12.6002 229.66C12.6602 229.84 12.3302 229.95 11.9402 230.14C12.4002 229.94 12.6502 230.01 12.7402 230.14H12.5302L12.8602 230.48L13.6902 230.02C13.5302 230.34 12.6602 230.54 12.9602 230.64L13.6702 230.32C13.6602 230.67 12.6502 231.32 12.2502 231.84C12.4802 233.15 14.8602 233.53 14.1402 235.19L13.6402 235.5C12.8802 235.9 14.9202 235.23 14.2302 235.62L14.6402 235.57C14.5202 235.67 14.4102 235.82 14.2102 235.84C14.2402 235.97 14.3602 235.91 14.6402 235.88L14.2202 236.24C14.0802 236.88 15.1802 236.8 15.2502 237.36C14.5802 238.43 16.0202 239.03 16.8702 239.35C18.4402 239.57 16.0202 242.22 17.7902 242.37C17.7002 242.46 17.9802 242.39 18.0602 242.34L18.4102 243.19C18.4102 243.19 18.9002 244.18 19.9402 244.35C20.9902 244.52 22.5402 243.81 24.7602 240.62L24.9302 240.54C25.0802 239.9 25.0102 239.6 24.0402 239.8C25.0102 239.17 23.9502 239.41 24.2202 239.12L24.3102 239.08C23.4002 239.28 24.6502 238.2 23.8302 238.36C23.9102 238.32 24.1902 238.17 24.2402 238.22C24.0202 238.12 23.6602 238.01 24.2402 237.66C23.8502 237.33 23.8002 236.6 22.7102 236.85L22.8802 236.78C22.1602 236.97 22.6802 236.63 22.2602 236.64C22.3302 236.59 22.3602 236.55 22.4002 236.54C21.6802 236.71 22.0402 236.1 21.6902 236.11L22.0802 235.89L21.8102 235.6L21.7902 235.77C20.6802 236.3 22.3302 235.16 21.5002 235.28C21.5202 234.98 19.0002 235.99 19.4102 235.47C18.8402 235.62 20.2902 235.14 19.8102 235.17C20.3702 234.87 20.2102 235.07 20.6402 234.79C20.2802 234.76 21.0802 234.22 20.5902 234.21L21.0302 233.97C20.0802 234.11 21.3602 233.16 20.4902 233.38C19.9802 233.28 21.7202 232.53 20.7002 232.68L21.2502 232.27C21.2902 232.1 20.4702 232.55 20.6902 232.27C21.0702 232.09 20.9102 231.95 21.3102 231.85C21.7602 231.25 20.1602 231.63 20.9702 230.73C20.1802 231 20.5302 230.58 19.9302 230.78C20.2502 230.62 19.7902 230.34 20.6002 230.24C20.6702 230.24 20.6702 230.27 20.5502 230.33L21.0102 230.15C21.7302 229.52 20.3502 229.94 20.3702 229.65C20.2602 229.79 20.3402 229.86 20.0002 229.94L19.9602 229.7L20.3502 229.57L20.4202 229.15L19.9802 229.41C20.1402 229.14 20.9102 228.73 20.1702 228.85C19.7702 228.94 19.6202 229.29 19.3902 229.18C19.6102 228.82 19.9402 228.29 19.9602 227.96C19.4502 228.22 19.4302 228.14 19.2902 228.11L19.7402 227.9C18.9802 227.9 20.6902 227.35 20.0702 227.29L20.4002 227.17L19.4102 227.52C18.3902 227.66 20.2902 226.97 18.9302 227.22C19.0602 227.3 17.9502 227.71 18.0802 227.49L18.5402 227.33C18.4102 227.29 18.2202 227.35 18.2902 227.25C18.5502 227.19 18.9402 227 18.8202 226.91L19.4002 226.75L18.5002 226.89C18.9002 226.52 18.2002 226.51 18.7902 226.18C18.7902 226.18 18.9402 225.69 18.2202 225.9C18.6802 225.79 18.7502 225.53 19.2802 225.37C18.7602 225.48 18.2502 225.37 18.7202 225.05H18.7902C19.1502 224.43 17.7902 224.65 18.2802 224.02C17.7502 224.25 17.9602 223.94 17.3002 224.26C16.4702 224.15 18.4202 223.01 16.2402 223.71C16.0602 223.58 16.6602 223.31 16.7302 223.18H16.8602C16.5602 222.92 16.5002 222.83 16.4602 222.57C16.2002 222.53 15.2102 222.88 15.3602 222.57C15.7802 222.49 15.6702 222.43 15.6402 222.35C15.7202 222.38 15.8702 222.35 16.1002 222.13C15.9702 222.16 15.8902 222.17 15.8202 222.17C15.8502 222.16 15.8702 222.14 15.9202 222.13C15.7302 222.05 15.6202 222.11 15.5802 222.2C15.5202 222.22 15.4402 222.25 15.3402 222.31C15.8002 221.98 15.1602 221.92 15.8302 221.66C15.5202 221.31 14.7002 221.27 14.3202 221.01C14.6602 220.85 15.0002 220.82 15.1702 220.87L14.9602 220.67C15.4702 220.49 15.3002 220.71 15.4302 220.75C16.1402 220.17 14.4002 220.44 15.0302 219.83L14.6002 219.9L14.6602 219.86C14.4502 219.93 14.1302 219.96 14.0502 219.93C14.4702 219.73 15.0702 219.58 14.9802 219.42C15.3602 219.14 14.6402 219.11 14.3402 219.02C14.3002 219.14 14.0402 219.19 13.8702 219.21C13.8302 219.13 14.2502 218.93 14.0402 218.93L14.6402 218.72C14.0902 218.94 13.9602 218.7 13.7002 218.75C14.1302 218.55 14.1302 218.75 14.4702 218.66C14.3002 218.34 14.3902 218.5 14.2202 218.18C13.7102 218.15 13.6702 218.4 13.1102 218.49C12.9402 218.37 12.4702 218.34 12.7702 218.04L12.2602 218.27C11.7502 218.1 11.7502 217.89 12.2202 217.51C9.68017 217.04 8.15021 217.36 7.26021 217.82C6.37021 218.28 6.12019 218.89 6.12019 218.89C5.24019 220.22 6.95019 220.22 7.74019 221.2V221.16Z" fill="#20BB65"/>
<path d="M39.1402 260.05L39.0202 260.26C39.1002 260.19 39.1502 260.11 39.1402 260.05Z" fill="#20BB65"/>
<path d="M52.5502 272.85C52.5502 272.85 52.5802 272.83 52.6002 272.82C52.5802 272.82 52.5702 272.84 52.5502 272.85Z" fill="#20BB65"/>
<path d="M35.3802 267.53C35.3802 267.53 35.3502 267.54 35.3202 267.55L35.3802 267.53Z" fill="#20BB65"/>
<path d="M33.1702 264.19C33.6502 265.15 33.0402 266.08 34.0902 266.58C34.3802 267.02 34.9402 267.25 35.3702 267.52C36.1402 267.11 35.8302 267.99 36.5402 267.7L36.2702 268.11C36.5102 268.01 36.7102 267.98 36.5902 268.23L36.4902 268.32C36.8502 268.17 36.8102 268.44 36.9902 268.37L36.8902 268.46L37.0602 268.54L36.9002 268.66C37.3502 268.57 37.5502 268.74 37.5902 269.03L37.9902 268.61C37.8702 269.41 38.8502 268.69 38.6102 269.55L38.5102 269.65C39.9802 268.96 38.4002 271.01 39.8302 270.38C39.6502 270.46 39.6402 270.61 39.5402 270.71C39.8402 270.78 40.1102 270.91 40.9002 270.1C41.0202 270.25 40.7602 270.46 40.4702 270.8C40.8202 270.44 41.0802 270.41 41.2102 270.49L41.0302 270.58L41.4602 270.75L42.0502 270.01C42.0202 270.36 41.2902 270.88 41.6102 270.86L42.1502 270.29C42.2702 270.62 41.5802 271.6 41.4002 272.23C42.1002 273.35 44.4402 272.81 44.3902 274.61L44.0302 275.08C43.4702 275.73 45.1202 274.35 44.6302 274.97L44.9902 274.77C44.9202 274.91 44.8702 275.09 44.6902 275.18C44.7602 275.29 44.8602 275.18 45.1002 275.05L44.8502 275.54C44.9502 276.18 45.9502 275.7 46.2102 276.2C45.9702 277.44 47.5302 277.47 48.4302 277.46C49.9802 277.1 48.6702 280.44 50.3702 279.93C50.3202 280.04 50.5602 279.88 50.6202 279.81L51.2502 280.47C51.2502 280.47 52.0602 281.22 53.0902 281C54.1202 280.79 55.3402 279.59 56.2802 275.81L56.4102 275.68C56.3202 275.03 56.1502 274.77 55.3102 275.3C55.9902 274.37 55.0802 274.96 55.2302 274.6L55.3002 274.53C54.5202 275.04 55.3002 273.59 54.5902 274.03C54.6602 273.97 54.8602 273.72 54.9202 273.75C54.6702 273.74 54.3002 273.75 54.7102 273.23C54.2302 273.06 53.9102 272.4 52.9902 273.02L53.1302 272.89C52.5302 273.33 52.8902 272.82 52.5002 272.98C52.5502 272.91 52.5702 272.86 52.5902 272.84C51.9802 273.26 52.0902 272.56 51.7702 272.69L52.0502 272.34L51.6902 272.17L51.7402 272.34C50.9102 273.24 52.0202 271.57 51.2902 271.99C51.2002 271.7 49.2202 273.57 49.4102 272.93C48.9402 273.28 50.1102 272.3 49.6702 272.51C50.0802 272.02 50.0002 272.27 50.3002 271.85C49.9602 271.95 50.4902 271.15 50.0302 271.33L50.3502 270.95C49.5202 271.43 50.3502 270.08 49.6302 270.59C49.1202 270.69 50.4602 269.35 49.5602 269.86L49.9102 269.27C49.8802 269.1 49.2802 269.82 49.3902 269.47C49.6802 269.16 49.4702 269.09 49.8102 268.85C50.0002 268.13 48.6602 269.07 49.0702 267.93C48.4402 268.47 48.6002 267.95 48.1302 268.36C48.3602 268.09 47.8302 268 48.5502 267.61C48.6102 267.58 48.6302 267.61 48.5302 267.71L48.8802 267.37C49.3102 266.52 48.1902 267.42 48.1002 267.14C48.0502 267.31 48.1502 267.35 47.8702 267.55L47.7402 267.34L48.0602 267.07L47.9602 266.65L47.6502 267.06C47.7002 266.75 48.2502 266.08 47.6102 266.47C47.2702 266.7 47.2602 267.08 47.0202 267.07C47.0902 266.66 47.1902 266.04 47.0902 265.72C46.7102 266.15 46.6702 266.08 46.5302 266.11L46.8702 265.74C46.1602 266.02 47.5502 264.87 46.9402 265.05L47.2002 264.82L46.4202 265.51C45.5302 266.02 47.0302 264.66 45.8602 265.41C46.0102 265.44 45.1402 266.24 45.1802 265.98L45.5402 265.66C45.4102 265.67 45.2502 265.8 45.2802 265.69C45.5002 265.54 45.7902 265.21 45.6402 265.18L46.1202 264.81L45.3302 265.28C45.5602 264.78 44.9002 265.04 45.3302 264.51C45.3302 264.51 45.2902 264 44.7002 264.46C45.0802 264.19 45.0502 263.91 45.4802 263.57C45.0402 263.87 44.5202 263.96 44.8302 263.48L44.8902 263.45C44.9802 262.74 43.8102 263.45 44.0202 262.69C43.6202 263.11 43.7002 262.74 43.2102 263.29C42.3902 263.51 43.7602 261.7 42.0202 263.19C41.8002 263.14 42.2502 262.66 42.2702 262.51L42.3902 262.46C42.0102 262.34 41.9202 262.28 41.7802 262.05C41.5302 262.11 40.7402 262.83 40.7702 262.48C41.1302 262.25 41.0102 262.23 40.9502 262.16C41.0402 262.16 41.1602 262.06 41.2902 261.78C41.1802 261.86 41.1102 261.89 41.0402 261.92C41.0602 261.9 41.0802 261.88 41.1102 261.85C40.9002 261.85 40.8202 261.95 40.8302 262.04C40.7802 262.08 40.7202 262.14 40.6502 262.24C40.9402 261.76 40.3302 261.95 40.8502 261.45C40.4302 261.24 39.6602 261.52 39.2002 261.45C39.4502 261.17 39.7502 261.01 39.9302 260.99L39.6502 260.89C40.0502 260.53 39.9802 260.79 40.1102 260.78C40.5402 259.96 39.0402 260.89 39.3802 260.09L39.0202 260.32L39.0602 260.26C38.8902 260.41 38.6102 260.56 38.5202 260.56C38.8302 260.21 39.3202 259.84 39.1802 259.73C39.4202 259.32 38.7402 259.58 38.4302 259.61C38.4302 259.74 38.2202 259.89 38.0702 259.96C38.0002 259.9 38.3102 259.55 38.1202 259.63L38.5802 259.2C38.1602 259.62 37.9502 259.45 37.7302 259.6C38.0402 259.25 38.1202 259.44 38.4002 259.22C38.1202 258.99 38.2602 259.1 37.9702 258.87C37.4902 259.04 37.5502 259.29 37.0702 259.59C36.8602 259.54 36.4202 259.71 36.5802 259.31L36.2002 259.72C35.6602 259.76 35.5802 259.57 35.8702 259.03C33.3602 259.6 32.0802 260.5 31.4402 261.28C30.8102 262.06 30.8202 262.71 30.8202 262.71C30.5302 264.28 32.1102 263.6 33.2102 264.18L33.1702 264.19Z" fill="#20BB65"/>
<path d="M76.3902 289.48L76.3402 289.72C76.3902 289.63 76.4202 289.54 76.3902 289.48Z" fill="#20BB65"/>
<path d="M93.1002 297.72C93.1002 297.72 93.1202 297.7 93.1402 297.68C93.1202 297.69 93.1102 297.71 93.1002 297.72Z" fill="#20BB65"/>
<path d="M75.1302 297.75C75.1302 297.75 75.1002 297.77 75.0802 297.79L75.1302 297.75Z" fill="#20BB65"/>
<path d="M72.0202 295.28C72.7702 296.04 72.4802 297.11 73.6302 297.25C74.0302 297.57 74.6302 297.62 75.1302 297.74C75.7402 297.11 75.7101 298.04 76.2901 297.55L76.1601 298.02C76.3601 297.85 76.5402 297.76 76.5002 298.04L76.4301 298.16C76.7301 297.91 76.7701 298.18 76.9201 298.05L76.8501 298.17L77.0302 298.2L76.9101 298.36C77.3101 298.14 77.5501 298.24 77.6701 298.5L77.9201 297.98C78.0501 298.78 78.7601 297.8 78.7901 298.68L78.7201 298.8C79.9101 297.7 79.0202 300.13 80.1902 299.1C80.0402 299.23 80.0802 299.38 80.0102 299.5C80.3202 299.47 80.6102 299.52 81.1302 298.51C81.2902 298.61 81.1101 298.9 80.9301 299.3C81.1501 298.85 81.4001 298.74 81.5401 298.78L81.3902 298.92L81.8501 298.96L82.2002 298.08C82.2802 298.42 81.7402 299.13 82.0302 299.03L82.3802 298.33C82.5902 298.61 82.2301 299.75 82.2401 300.4C83.2301 301.26 85.3102 300.05 85.7802 301.79L85.5802 302.34C85.2402 303.13 86.4102 301.33 86.1201 302.06L86.4101 301.76C86.3801 301.91 86.3801 302.1 86.2401 302.24C86.3401 302.32 86.4002 302.2 86.5902 302L86.4901 302.54C86.7701 303.12 87.5801 302.37 87.9701 302.77C88.1001 304.02 89.5902 303.6 90.4502 303.33C91.8302 302.54 91.5202 306.11 93.0002 305.14C92.9802 305.26 93.1602 305.04 93.2002 304.95L93.9801 305.41C93.9801 305.41 94.9602 305.9 95.8802 305.41C96.8102 304.92 97.6401 303.42 97.4801 299.53L97.5702 299.37C97.3002 298.77 97.0701 298.57 96.4101 299.31C96.8001 298.22 96.1002 299.05 96.1302 298.66L96.1801 298.58C95.5701 299.29 95.9101 297.67 95.3501 298.3C95.4001 298.22 95.5202 297.93 95.5902 297.94C95.3502 298 94.9901 298.12 95.2401 297.5C94.7301 297.47 94.2302 296.93 93.5202 297.78L93.6101 297.62C93.1601 298.21 93.3602 297.62 93.0302 297.88C93.0602 297.8 93.0602 297.75 93.0802 297.72C92.6202 298.3 92.5202 297.6 92.2502 297.81L92.4201 297.4L92.0302 297.34L92.1201 297.48C91.5801 298.58 92.1602 296.66 91.5902 297.27C91.4202 297.02 90.0702 299.38 90.0602 298.72C89.7102 299.19 90.5502 297.92 90.1902 298.24C90.4502 297.66 90.4401 297.91 90.6001 297.43C90.3001 297.63 90.5802 296.71 90.1902 297L90.3902 296.54C89.7302 297.24 90.1402 295.7 89.5902 296.41C89.1302 296.65 90.0202 294.98 89.3102 295.73L89.4801 295.07C89.4001 294.91 89.0401 295.78 89.0401 295.42C89.2301 295.04 89.0102 295.03 89.2602 294.7C89.2302 293.95 88.2202 295.25 88.2802 294.04C87.8402 294.74 87.8402 294.2 87.5002 294.73C87.6402 294.4 87.1001 294.48 87.6801 293.89C87.7301 293.84 87.7602 293.87 87.7002 293.99L87.9402 293.56C88.1002 292.62 87.2901 293.81 87.1201 293.56C87.1201 293.74 87.2302 293.75 87.0202 294.02L86.8302 293.85L87.0501 293.5L86.8302 293.13L86.6502 293.61C86.6102 293.3 86.9302 292.49 86.4402 293.06C86.1802 293.38 86.2901 293.75 86.0501 293.81C85.9901 293.4 85.9102 292.77 85.7102 292.5C85.4802 293.03 85.4201 292.97 85.2901 293.04L85.5002 292.59C84.9102 293.07 85.8801 291.56 85.3601 291.91L85.5401 291.61L85.0002 292.5C84.3002 293.25 85.3302 291.51 84.4402 292.57C84.5902 292.55 84.0002 293.58 83.9602 293.31L84.2102 292.9C84.0902 292.95 83.9701 293.12 83.9701 293C84.1301 292.79 84.3101 292.39 84.1601 292.4L84.5102 291.9L83.9002 292.58C83.9702 292.04 83.4201 292.48 83.6601 291.84C83.6601 291.84 83.4601 291.37 83.0401 291.98C83.3201 291.61 83.2102 291.35 83.5102 290.9C83.1802 291.32 82.7201 291.56 82.8701 291.01L82.9201 290.96C82.7901 290.25 81.8901 291.3 81.8501 290.5C81.6001 291.02 81.5602 290.64 81.2602 291.32C80.5502 291.77 81.3002 289.64 80.0902 291.58C79.8602 291.6 80.1401 291 80.1101 290.85L80.2102 290.77C79.8102 290.77 79.7102 290.74 79.5002 290.57C79.2802 290.7 78.7501 291.63 78.6701 291.29C78.9401 290.96 78.8201 290.98 78.7401 290.94C78.8201 290.91 78.9102 290.78 78.9502 290.48C78.8702 290.59 78.8102 290.65 78.7602 290.69C78.7802 290.66 78.7802 290.64 78.8102 290.6C78.6102 290.66 78.5701 290.79 78.6001 290.87C78.5701 290.93 78.5301 291 78.4901 291.11C78.6201 290.56 78.1001 290.94 78.4301 290.29C77.9601 290.22 77.3201 290.73 76.8601 290.79C77.0101 290.44 77.2401 290.2 77.4101 290.13H77.1201C77.3801 289.65 77.4002 289.92 77.5202 289.87C77.6702 288.96 76.5401 290.31 76.6101 289.44L76.3302 289.77L76.3501 289.7C76.2401 289.9 76.0201 290.12 75.9301 290.16C76.1201 289.73 76.4601 289.23 76.2901 289.16C76.3901 288.7 75.8301 289.16 75.5401 289.28C75.5901 289.4 75.4302 289.61 75.3102 289.73C75.2202 289.7 75.4102 289.27 75.2502 289.41L75.5602 288.86C75.2902 289.39 75.0402 289.3 74.8802 289.5C75.0702 289.07 75.2002 289.22 75.4002 288.93C75.0602 288.8 75.2302 288.86 74.8802 288.73C74.4702 289.04 74.6102 289.26 74.2502 289.69C74.0402 289.71 73.6702 290.01 73.6902 289.58L73.4602 290.09C72.9602 290.3 72.8201 290.14 72.9201 289.54C70.7201 290.88 69.7902 292.14 69.4402 293.08C69.0902 294.02 69.3001 294.63 69.3001 294.63C69.5201 296.2 70.7902 295.06 72.0202 295.26V295.28Z" fill="#20BB65"/>
<path d="M118.74 306.77L118.72 307C118.75 306.9 118.76 306.81 118.74 306.77Z" fill="#20BB65"/>
<path d="M128.08 308.94C128.08 308.94 128.09 308.91 128.1 308.89C128.09 308.91 128.08 308.92 128.08 308.94Z" fill="#20BB65"/>
<path d="M118.18 314.73C118.18 314.73 118.17 314.76 118.16 314.78L118.19 314.73H118.18Z" fill="#20BB65"/>
<path d="M116.4 313.6C116.83 314.01 116.69 315.09 117.33 314.81C117.56 314.96 117.89 314.79 118.17 314.73C118.5 313.94 118.5 314.8 118.81 314.15L118.74 314.63C118.85 314.41 118.95 314.26 118.93 314.53L118.89 314.66C119.05 314.33 119.08 314.56 119.16 314.39L119.12 314.53L119.22 314.49L119.16 314.68C119.38 314.34 119.51 314.35 119.58 314.55L119.71 313.98C119.79 314.67 120.17 313.53 120.2 314.33L120.16 314.47C120.81 313.05 120.35 315.59 120.98 314.25C120.9 314.42 120.92 314.54 120.89 314.68C121.06 314.55 121.22 314.5 121.49 313.39C121.58 313.43 121.49 313.76 121.39 314.19C121.51 313.7 121.64 313.52 121.72 313.51L121.64 313.69L121.89 313.58L122.07 312.65C122.12 312.94 121.83 313.77 121.99 313.58L122.17 312.82C122.29 313.01 122.1 314.18 122.12 314.78C122.68 315.26 123.81 313.47 124.08 314.95L123.97 315.53C123.79 316.37 124.42 314.33 124.26 315.11L124.42 314.74C124.41 314.89 124.41 315.06 124.33 315.24C124.39 315.29 124.42 315.15 124.52 314.91L124.47 315.45C124.63 315.91 125.07 314.96 125.28 315.22C125.36 316.35 126.17 315.51 126.64 315.01C127.38 313.86 127.24 317.32 128.04 315.99C128.04 316.11 128.13 315.85 128.15 315.76L128.58 315.97C128.58 315.97 129.11 316.16 129.61 315.44C130.11 314.72 130.55 313.08 130.44 309.43L130.49 309.25C130.34 308.76 130.21 308.63 129.86 309.52C130.06 308.39 129.69 309.36 129.71 308.99L129.73 308.9C129.41 309.74 129.58 308.12 129.28 308.87C129.3 308.78 129.37 308.47 129.41 308.46C129.28 308.58 129.09 308.8 129.22 308.14C128.94 308.26 128.67 307.89 128.29 308.9L128.34 308.72C128.1 309.41 128.2 308.8 128.03 309.14C128.04 309.05 128.05 309.01 128.05 308.97C127.8 309.65 127.74 309.02 127.6 309.3L127.69 308.86L127.47 308.92L127.52 309.03C127.23 310.22 127.54 308.25 127.23 308.99C127.13 308.81 126.42 311.42 126.41 310.8C126.22 311.35 126.67 309.9 126.48 310.31C126.62 309.69 126.61 309.93 126.7 309.43C126.54 309.7 126.68 308.76 126.47 309.15L126.57 308.66C126.22 309.51 126.42 307.96 126.13 308.78C125.88 309.14 126.35 307.32 125.97 308.23L126.06 307.56C126.01 307.44 125.83 308.35 125.82 308.02C125.92 307.61 125.8 307.67 125.93 307.29C125.9 306.6 125.36 308.12 125.38 306.98C125.14 307.77 125.14 307.27 124.96 307.86C125.04 307.51 124.74 307.75 125.05 307.02C125.08 306.96 125.09 306.98 125.05 307.11L125.18 306.64C125.26 305.71 124.83 307.08 124.73 306.91C124.73 307.08 124.79 307.05 124.68 307.37L124.57 307.28L124.69 306.88L124.57 306.6L124.48 307.1C124.45 306.82 124.62 305.97 124.36 306.65C124.22 307.03 124.28 307.34 124.15 307.47C124.11 307.1 124.06 306.55 123.94 306.37C123.82 306.93 123.78 306.9 123.72 307L123.83 306.51C123.51 307.14 124.03 305.43 123.74 305.93L123.84 305.6L123.55 306.6C123.17 307.52 123.72 305.58 123.24 306.85C123.32 306.78 123.01 307.92 122.98 307.69L123.11 307.23C123.04 307.32 122.98 307.51 122.98 307.41C123.07 307.16 123.16 306.73 123.08 306.8L123.27 306.23L122.94 307.06C122.97 306.54 122.67 307.13 122.8 306.46C122.8 306.46 122.68 306.09 122.46 306.8C122.61 306.36 122.54 306.16 122.71 305.65C122.53 306.14 122.28 306.52 122.35 305.97L122.38 305.91C122.3 305.3 121.81 306.57 121.78 305.85C121.65 306.41 121.62 306.08 121.46 306.8C121.07 307.46 121.46 305.25 120.81 307.44C120.68 307.53 120.83 306.89 120.81 306.77L120.86 306.66C120.64 306.8 120.58 306.8 120.46 306.72C120.34 306.92 120.06 307.94 120.01 307.66C120.15 307.26 120.09 307.32 120.04 307.31C120.09 307.25 120.13 307.11 120.15 306.82C120.11 306.94 120.08 307.02 120.05 307.08C120.05 307.05 120.06 307.02 120.07 306.98C119.96 307.1 119.94 307.24 119.96 307.3C119.94 307.36 119.92 307.44 119.9 307.56C119.96 307.01 119.68 307.54 119.85 306.84C119.59 306.94 119.24 307.63 118.98 307.85C119.06 307.48 119.18 307.18 119.27 307.05L119.1 307.15C119.24 306.63 119.25 306.87 119.32 306.78C119.39 305.9 118.78 307.53 118.8 306.71L118.65 307.11V307.04C118.6 307.26 118.48 307.54 118.43 307.6C118.53 307.14 118.71 306.56 118.61 306.56C118.66 306.11 118.35 306.72 118.19 306.94C118.22 307.03 118.14 307.28 118.07 307.43C118.02 307.43 118.12 306.98 118.03 307.16L118.19 306.55C118.05 307.13 117.9 307.14 117.82 307.38C117.92 306.92 118 307.01 118.1 306.67C117.9 306.67 118 306.67 117.81 306.68C117.59 307.11 117.67 307.26 117.48 307.78C117.36 307.88 117.16 308.28 117.16 307.88L117.04 308.43C116.76 308.8 116.68 308.71 116.73 308.14C114.29 312.19 114.8 314.06 114.8 314.06C114.96 315.39 115.65 313.89 116.34 313.63L116.4 313.6Z" fill="#20BB65"/>
</svg>
