<svg width="109" height="161" viewBox="0 0 109 161" fill="none" xmlns="http://www.w3.org/2000/svg">
<path d="M18.1599 3.32031L18.2499 3.55029C18.2499 3.44029 18.2199 3.35031 18.1599 3.32031Z" fill="#ACDE45"/>
<path d="M38.2899 3.32056C38.2899 3.32056 38.2998 3.29051 38.3098 3.27051C38.2998 3.29051 38.2899 3.30056 38.2899 3.32056Z" fill="#ACDE45"/>
<path d="M21.4099 11.2402C21.4099 11.2402 21.3999 11.2803 21.3899 11.3003L21.4099 11.2402Z" fill="#ACDE45"/>
<path d="M17.4398 10.7102C18.4898 10.9702 18.7998 12.0603 19.8498 11.5803C20.3598 11.6603 20.8999 11.3902 21.3999 11.2402C21.6199 10.3702 22.0598 11.2202 22.3198 10.4902L22.4398 10.9802C22.5298 10.7302 22.6399 10.5603 22.7499 10.8203V10.9602C22.8799 10.5902 23.0499 10.8104 23.1199 10.6204V10.7603L23.2899 10.6902L23.2599 10.8901C23.5099 10.4901 23.7699 10.4601 23.9999 10.6401L23.9698 10.0503C24.4698 10.7103 24.6398 9.47025 25.0898 10.2603V10.4001C25.6298 8.83015 25.9798 11.4602 26.5498 9.97021C26.4798 10.1602 26.5798 10.2702 26.5798 10.4202C26.8398 10.2502 27.1299 10.1602 27.1299 9.00024C27.3199 9.02024 27.2898 9.3603 27.3098 9.8103C27.3098 9.3003 27.4799 9.0903 27.6299 9.0603L27.5598 9.26025L27.9999 9.09033L27.9198 8.13013C28.1498 8.41013 27.9798 9.30031 28.1998 9.07031V8.27026C28.5198 8.43026 28.6999 9.64022 29.0099 10.2302C30.2799 10.5802 31.6898 8.56023 32.8498 9.99023L32.8899 10.5903C32.8899 11.4703 33.2499 9.30035 33.2699 10.1104L33.4198 9.71021C33.4598 9.8702 33.5298 10.0402 33.4598 10.2302C33.5898 10.2702 33.5898 10.1204 33.6898 9.86035L33.8098 10.4102C34.2998 10.8402 34.7599 9.81028 35.2799 10.0403C35.8799 11.1703 37.1098 10.1901 37.8298 9.63013C38.8698 8.37013 39.8199 11.9002 40.8799 10.4702C40.8999 10.6002 40.9999 10.3202 41.0099 10.2202L41.9099 10.4001C41.9099 10.4001 42.9999 10.5603 43.7399 9.78027C44.4699 9.01027 44.9098 7.3003 43.4398 3.5603L43.4798 3.37036C42.9998 2.87036 42.6799 2.75018 42.2599 3.68018C42.2799 2.50018 41.8499 3.53015 41.7499 3.15015L41.7699 3.05029C41.3999 3.93029 41.1698 2.26029 40.8198 3.05029C40.8398 2.96029 40.8598 2.64036 40.9298 2.62036C40.6998 2.75036 40.3899 3.00031 40.4099 2.32031C39.8699 2.47031 39.1499 2.12019 38.7599 3.19019L38.7899 3.00024C38.5599 3.73024 38.5398 3.1002 38.3098 3.46021C38.3098 3.37021 38.2899 3.32028 38.2899 3.29028C38.0499 4.01028 37.6799 3.38018 37.4899 3.68018V3.23022L37.0798 3.32031L37.2298 3.42017C37.1298 4.67017 36.9499 2.62017 36.6099 3.42017C36.3299 3.25017 35.9498 6.00013 35.6798 5.38013C35.5198 5.96013 35.8299 4.43013 35.6099 4.88013C35.6199 4.23013 35.7198 4.4702 35.6798 3.9502C35.4698 4.2502 35.3698 3.27021 35.0998 3.71021V3.2002C34.7498 4.1202 34.4999 2.51014 34.2599 3.39014C33.9099 3.80014 34.0698 1.88035 33.6898 2.86035L33.5698 2.17017C33.4198 2.06017 33.4399 3.01017 33.2799 2.67017C33.2999 2.24017 33.0698 2.32016 33.1798 1.91016C32.8098 1.22016 32.3899 2.8502 31.8999 1.7002C31.7799 2.5402 31.5298 2.04017 31.4398 2.67017C31.4398 2.30017 30.9298 2.6003 31.2298 1.8103C31.2598 1.7503 31.2999 1.76015 31.2899 1.90015L31.3298 1.40015C31.0598 0.450146 30.7999 1.91025 30.5199 1.76025C30.5999 1.93025 30.7099 1.88022 30.6399 2.23022L30.3799 2.16016L30.4398 1.74023L30.0498 1.49023L30.0998 2.01025C29.9098 1.74025 29.8499 0.860332 29.6299 1.59033C29.5299 2.00033 29.8098 2.2902 29.5998 2.4502C29.3498 2.0902 28.9599 1.56015 28.6399 1.40015C28.6699 1.99015 28.5799 1.96032 28.4899 2.08032V1.57031C28.1299 2.28031 28.3599 0.450254 28.0099 1.01025L28.0399 0.660156L27.9498 1.72021C27.6398 2.73021 27.7798 0.670283 27.4398 2.04028C27.5798 1.95028 27.4998 3.16019 27.3398 2.94019L27.3799 2.4502C27.2899 2.5502 27.2598 2.76016 27.1898 2.66016C27.2498 2.40016 27.2198 1.95027 27.0798 2.03027L27.1698 1.42017L26.9099 2.32031C26.7099 1.79031 26.3898 2.46025 26.3098 1.76025C26.3098 1.76025 25.8799 1.42018 25.7799 2.18018C25.8599 1.71018 25.6298 1.53022 25.6898 0.980225C25.5798 1.51022 25.2599 1.95013 25.1199 1.38013L25.1399 1.32031C24.6499 0.740313 24.3099 2.12017 23.8699 1.42017C23.8999 2.01017 23.6599 1.69019 23.7298 2.44019C23.2899 3.19019 22.8799 0.920244 22.7599 3.25024C22.5599 3.38024 22.5099 2.71033 22.3999 2.59033L22.4498 2.47021C22.0698 2.67021 21.9598 2.69014 21.6698 2.64014C21.5298 2.87014 21.5299 3.9502 21.2699 3.7002C21.3399 3.2702 21.2399 3.35034 21.1499 3.35034C21.2099 3.28034 21.2198 3.12033 21.0898 2.84033C21.0798 2.97033 21.0499 3.06036 21.0299 3.12036C21.0299 3.09036 21.0299 3.06025 21.0299 3.01025C20.8699 3.17025 20.9098 3.30035 20.9798 3.36035C20.9798 3.43035 20.9799 3.51013 21.0099 3.63013C20.8299 3.08013 20.5499 3.68019 20.5099 2.94019C20.0399 3.12019 19.7098 3.90019 19.3198 4.19019C19.2598 3.81019 19.3498 3.47031 19.4598 3.32031L19.1798 3.47021C19.1698 2.92021 19.3298 3.15028 19.4198 3.04028C19.0598 2.16028 18.7498 3.94014 18.3298 3.14014L18.2599 3.57031L18.2298 3.50024C18.2298 3.73024 18.1598 4.04036 18.0998 4.12036C18.0298 3.65036 18.0699 3.0203 17.8799 3.0603C17.7099 2.6103 17.4499 3.30031 17.2599 3.57031C17.3699 3.65031 17.3498 3.91032 17.2998 4.08032C17.1998 4.10032 17.1298 3.63032 17.0598 3.83032L17.0299 3.19019C17.0899 3.79019 16.7999 3.85036 16.7699 4.12036C16.6999 3.65036 16.9098 3.70033 16.9198 3.34033C16.5298 3.41033 16.7298 3.3802 16.3398 3.4502C16.1498 3.9402 16.3998 4.06036 16.3198 4.62036C16.1398 4.75036 15.9799 5.21032 15.7499 4.83032L15.8398 5.40015C15.5098 5.85015 15.3098 5.80022 15.0498 5.23022C13.8698 7.61022 13.8099 9.2002 14.0399 10.2002C14.2699 11.2002 14.7799 11.6003 14.7799 11.6003C15.8199 12.8203 16.2598 11.1401 17.4298 10.6501L17.4398 10.7102Z" fill="#ACDE45"/>
<path d="M69.6998 7.77051L69.7198 8.02051C69.7498 7.91051 69.7498 7.82051 69.6998 7.77051Z" fill="#ACDE45"/>
<path d="M88.8799 15.6902C88.8799 15.6902 88.9098 15.6702 88.9298 15.6602C88.9098 15.6602 88.8999 15.6802 88.8799 15.6902Z" fill="#ACDE45"/>
<path d="M70.4099 16.29C70.4099 16.29 70.3899 16.3201 70.3699 16.3401L70.4099 16.29Z" fill="#ACDE45"/>
<path d="M66.9198 14.6502C67.8298 15.1702 67.7799 16.3302 68.8899 16.1602C69.3399 16.3702 69.8999 16.2903 70.3999 16.3003C70.8699 15.5403 71.0098 16.4604 71.4798 15.8604L71.4298 16.3604C71.5898 16.1504 71.7499 16.0303 71.7599 16.3103L71.7098 16.4402C71.9598 16.1302 72.0399 16.3902 72.1599 16.2302L72.1098 16.3604H72.2899L72.1998 16.5403C72.5498 16.2403 72.7998 16.3003 72.9498 16.5403L73.1198 15.9702C73.3498 16.7502 73.9198 15.6503 74.0598 16.5303L74.0099 16.6602C75.0499 15.3702 74.4398 17.9403 75.4698 16.7503C75.3398 16.9003 75.3898 17.0502 75.3298 17.1802C75.6298 17.1102 75.9098 17.1303 76.3398 16.0403C76.5098 16.1203 76.3498 16.4304 76.2098 16.8604C76.3898 16.3804 76.6199 16.2503 76.7699 16.2703L76.6299 16.4302H77.0898L77.3698 15.5003C77.4798 15.8403 76.9799 16.6102 77.2699 16.4802L77.5698 15.7402C77.7998 16.0102 77.5098 17.1903 77.5498 17.8503C78.5198 18.6203 80.5798 17.3304 80.9798 19.1104L80.7599 19.6702C80.3899 20.4602 81.6199 18.6501 81.2899 19.3901L81.5898 19.0903C81.5498 19.2503 81.5499 19.4303 81.3999 19.5803C81.4899 19.6603 81.5599 19.5403 81.7599 19.3403L81.6198 19.8801C81.8398 20.4801 82.6899 19.7402 83.0299 20.1702C82.9999 21.4402 84.4698 21.0902 85.3398 20.9502C86.0698 20.6502 86.2198 21.3603 86.3298 22.0803C86.4398 22.8003 86.5498 23.4601 87.3598 23.1301C87.3098 23.2501 87.5398 23.0702 87.5998 22.9902L88.1898 23.6003C88.1898 23.6003 88.3798 23.7702 88.6898 23.9102C88.9998 24.0602 89.4298 24.1803 89.9398 24.0703C90.4498 23.9603 91.0499 23.6303 91.6599 22.8503C92.2599 22.0703 92.8898 20.8403 93.3298 18.8503L93.4698 18.7202C93.3498 18.0002 93.1198 17.7102 92.2298 18.2402C92.8998 17.2702 91.9498 17.8702 92.0798 17.4902L92.1499 17.4202C91.3499 17.9502 92.0498 16.3904 91.2998 16.8704C91.3598 16.8004 91.5599 16.5403 91.6299 16.5703C91.3499 16.5603 90.9398 16.5903 91.3098 16.0203C90.7498 15.8403 90.2598 15.1304 89.3598 15.8604L89.4798 15.7102C88.9098 16.2202 89.1998 15.6604 88.8098 15.8604C88.8498 15.7804 88.8599 15.7302 88.8799 15.7002C88.3099 16.2002 88.2798 15.4504 87.9698 15.6204L88.1998 15.2302L87.7699 15.1003L87.8598 15.2703C87.1698 16.3103 87.9799 14.4302 87.2899 14.9702C87.1099 14.6802 85.4799 16.9202 85.5299 16.2402C85.1199 16.6802 86.0998 15.4703 85.6998 15.7603C86.0098 15.1903 85.9898 15.4502 86.1898 14.9702C85.8598 15.1302 86.2099 14.2202 85.7699 14.4802L85.9999 14.0303C85.2599 14.6803 85.7398 13.1303 85.1198 13.8103C84.6198 14.0203 85.6098 12.3603 84.8198 13.0703L84.9999 12.3901C84.9099 12.2201 84.5199 13.0902 84.5099 12.7102C84.7199 12.3302 84.4598 12.3002 84.7398 11.9802C84.6698 11.1902 83.5898 12.4802 83.6098 11.2202C83.1498 11.9302 83.1199 11.3702 82.7699 11.9102C82.9099 11.5702 82.3098 11.6403 82.9198 11.0403C82.9698 10.9903 83.0098 11.0202 82.9398 11.1502L83.1798 10.7102C83.2998 9.73021 82.4599 10.9502 82.2499 10.7002C82.2599 10.8902 82.3898 10.9002 82.1798 11.1802L81.9598 11.0003L82.1798 10.6401L81.8999 10.2402L81.7398 10.7402C81.6598 10.4102 81.9498 9.57016 81.4498 10.1602C81.1898 10.5002 81.3498 10.8802 81.0898 10.9402C80.9798 10.5102 80.8198 9.86034 80.5598 9.59034C80.3698 10.1403 80.2899 10.0902 80.1599 10.1602L80.3398 9.69019C79.7398 10.2002 80.6398 8.60023 80.0898 8.98023L80.2499 8.66016L79.7599 9.61036C79.0799 10.4304 79.9799 8.57021 79.1399 9.71021C79.2999 9.68021 78.7898 10.7803 78.7098 10.5103L78.9298 10.0703C78.7998 10.1303 78.6998 10.3102 78.6698 10.1902C78.8198 9.96019 78.9599 9.54031 78.7899 9.56031L79.0998 9.02027L78.5199 9.76026C78.5199 9.19026 77.9699 9.69026 78.1399 9.01026C78.1399 9.01026 77.8398 8.53021 77.4798 9.21021C77.7298 8.80021 77.5598 8.5503 77.8098 8.0503C77.5198 8.5103 77.0498 8.81023 77.1098 8.23023L77.1599 8.18018C76.8699 7.46018 76.0799 8.64032 75.8799 7.82032C75.7099 8.39032 75.5899 8.01024 75.3999 8.74024C74.7299 9.30024 75.0698 7.02018 74.1898 9.18018C73.9498 9.23018 74.1198 8.58018 74.0498 8.43018L74.1399 8.33033C73.6999 8.39033 73.5898 8.37024 73.3198 8.24024C73.1098 8.41024 72.7698 9.44037 72.5998 9.12037C72.8098 8.73037 72.6798 8.78025 72.5898 8.75025C72.6698 8.70025 72.7298 8.56024 72.6898 8.24024C72.6298 8.36024 72.5799 8.43024 72.5399 8.49024C72.5399 8.46024 72.5498 8.43014 72.5698 8.39014C72.3698 8.49014 72.3599 8.6302 72.4099 8.7002C72.3899 8.7602 72.3698 8.84022 72.3598 8.97022C72.3598 8.39022 71.8998 8.87016 72.0898 8.16016C71.5698 8.18016 71.0198 8.82024 70.5598 8.99024C70.6198 8.61024 70.7998 8.3102 70.9498 8.2002L70.6299 8.26026C70.7799 7.73026 70.8698 8.00017 70.9898 7.92017C70.8898 6.98017 70.0699 8.58019 69.8999 7.69019L69.7098 8.09034V8.01026C69.6498 8.23026 69.4799 8.51031 69.3999 8.56031C69.4699 8.08031 69.6898 7.50022 69.4898 7.47022C69.4498 6.99022 68.9998 7.58028 68.7298 7.78028C68.8198 7.89028 68.7199 8.13028 68.6299 8.28028C68.5299 8.28028 68.5898 7.80023 68.4698 7.98023L68.6198 7.35035C68.5098 7.95035 68.2098 7.92017 68.1098 8.17017C68.1698 7.69017 68.3598 7.81022 68.4698 7.47022C68.0698 7.43022 68.2698 7.45016 67.8698 7.41016C67.5498 7.83016 67.7599 8.01028 67.5299 8.53028C67.3199 8.61028 67.0398 9.00032 66.9198 8.57032L66.8498 9.14014C66.4098 9.49014 66.2299 9.38027 66.1299 8.77027C64.3499 10.7403 63.8998 12.2703 63.8598 13.2903C63.8198 14.3103 64.1898 14.8403 64.1898 14.8403C64.8298 16.2803 65.6899 14.7701 66.9099 14.6301L66.9198 14.6502Z" fill="#ACDE45"/>
<path d="M106.3 43.2705L106.07 43.3804C106.18 43.3704 106.27 43.3405 106.3 43.2705Z" fill="#ACDE45"/>
<path d="M103.84 64.1504C103.84 64.1504 103.87 64.1704 103.88 64.1904C103.87 64.1704 103.85 64.1604 103.84 64.1504Z" fill="#ACDE45"/>
<path d="M98.4799 46.6899C98.4799 46.6899 98.4398 46.6799 98.4198 46.6699L98.4799 46.6899Z" fill="#ACDE45"/>
<path d="M98.8899 43.1202C98.7099 44.0802 97.6298 44.4002 98.1298 45.3102C98.0698 45.7602 98.3298 46.2401 98.4798 46.6801C99.3398 46.8801 98.4998 47.2701 99.2198 47.5201L98.7298 47.6202C98.9798 47.7102 99.1398 47.82 98.8698 47.9H98.7298C99.0998 48.03 98.8698 48.1801 99.0598 48.2401H98.9198L98.9798 48.39L98.7799 48.3602C99.1699 48.6002 99.1798 48.8402 98.9898 49.0502H99.5798C98.8998 49.4802 100.12 49.7102 99.2998 50.0802L99.1599 50.0602C100.69 50.7002 98.0398 50.7901 99.4698 51.4501C99.2898 51.3701 99.1599 51.4501 99.0199 51.4301C99.1699 51.6901 99.2298 51.9702 100.38 52.1002C100.34 52.2802 99.9998 52.2101 99.5498 52.1801C100.06 52.2401 100.25 52.4202 100.26 52.5702L100.07 52.4801L100.19 52.91L101.15 52.9501C100.85 53.1401 99.9798 52.8602 100.18 53.1002L100.97 53.2001C100.77 53.4901 99.5498 53.5101 98.9298 53.7101C98.4198 54.8201 100.19 56.5102 98.5798 57.3302L97.9798 57.2501C97.1198 57.0801 99.1798 57.8301 98.3798 57.6901L98.7398 57.9C98.5798 57.9 98.3998 57.9402 98.2198 57.8302C98.1598 57.9402 98.2999 57.9702 98.5399 58.1202H97.9798C97.4598 58.4702 98.3798 59.1102 98.0498 59.5402C96.8298 59.8202 97.4998 61.1401 97.8498 61.9601C98.3298 62.6001 97.6398 62.9101 96.9898 63.1801C96.3298 63.4601 95.6998 63.72 96.2098 64.42C96.0798 64.4 96.3099 64.5802 96.3999 64.6202L95.9498 65.3402C95.9498 65.3402 95.4599 66.22 95.9099 67.16C96.3699 68.06 97.7299 69.2401 101.79 69.2001L101.95 69.3002C102.6 69.0102 102.85 68.7201 102.12 67.9901C103.22 68.4101 102.41 67.63 102.81 67.66L102.89 67.7101C102.18 67.0501 103.85 67.3601 103.22 66.7501C103.3 66.8001 103.6 66.9201 103.59 67.0001C103.54 66.7201 103.41 66.3302 104.06 66.5602C104.1 65.9702 104.67 65.32 103.75 64.63L103.92 64.7201C103.29 64.2901 103.9 64.4402 103.62 64.1002C103.71 64.1202 103.76 64.12 103.79 64.13C103.17 63.69 103.88 63.4901 103.64 63.2201L104.08 63.3502L104.11 62.9L103.97 63.0302C102.79 62.6102 104.82 62.94 104.13 62.4C104.37 62.15 101.8 61.1201 102.46 61.0001C101.93 60.7101 103.34 61.3702 102.97 61.0502C103.6 61.2102 103.34 61.2502 103.85 61.3402C103.61 61.0602 104.59 61.1802 104.23 60.8102L104.72 60.9301C103.91 60.3701 105.53 60.4601 104.72 60.0201C104.39 59.5801 106.24 60.1302 105.36 59.5402H106.06C106.2 59.4202 105.26 59.25 105.63 59.15C106.05 59.25 106.02 59.0001 106.39 59.1901C107.14 58.9301 105.62 58.19 106.84 57.89C106.03 57.62 106.57 57.4501 105.97 57.2501C106.33 57.3001 106.12 56.74 106.85 57.17C106.91 57.2101 106.89 57.2501 106.75 57.2201L107.23 57.3502C108.21 57.2202 106.82 56.7101 107.01 56.4501C106.83 56.5101 106.86 56.6301 106.53 56.5001L106.64 56.2401L107.05 56.3702L107.36 56.0001L106.84 55.9701C107.14 55.8101 108.02 55.8802 107.33 55.5402C106.94 55.3802 106.61 55.62 106.48 55.39C106.88 55.18 107.46 54.8501 107.66 54.5201C107.07 54.4701 107.11 54.3801 107 54.2701L107.51 54.3302C106.86 53.8702 108.64 54.34 108.13 53.9L108.48 53.9801L107.44 53.7501C106.48 53.3001 108.51 53.69 107.18 53.17C107.25 53.32 106.06 53.1101 106.3 52.9601L106.78 53.0602C106.69 52.9502 106.49 52.9002 106.6 52.8402C106.86 52.9302 107.31 52.9502 107.24 52.7902L107.84 52.9501L106.97 52.5802C107.51 52.4202 106.89 52.0201 107.58 52.0001C107.58 52.0001 107.96 51.57 107.21 51.4C107.67 51.53 107.87 51.29 108.42 51.4C107.9 51.23 107.49 50.8501 108.06 50.7501L108.12 50.7802C108.74 50.2902 107.39 49.84 108.11 49.4C107.52 49.4 107.85 49.1601 107.1 49.1901C106.38 48.6901 108.66 48.3402 106.33 48.1202C106.21 47.9002 106.88 47.8701 107 47.7601L107.12 47.8102C106.94 47.4002 106.91 47.2801 106.96 46.9701C106.73 46.8201 105.65 46.8102 105.91 46.5402C106.34 46.6202 106.26 46.51 106.26 46.41C106.33 46.47 106.49 46.4902 106.77 46.3502C106.64 46.3302 106.55 46.3102 106.48 46.2802C106.51 46.2802 106.54 46.2802 106.59 46.2802C106.43 46.1102 106.3 46.1501 106.24 46.2301C106.17 46.2301 106.09 46.2301 105.97 46.2601C106.52 46.0701 105.92 45.7801 106.65 45.7301C106.47 45.2201 105.68 44.9001 105.37 44.5101C105.75 44.4401 106.09 44.51 106.24 44.63L106.08 44.3402C106.63 44.3102 106.4 44.4902 106.52 44.5802C107.38 44.1602 105.59 43.91 106.36 43.42L105.92 43.3702L105.99 43.3402C105.76 43.3602 105.44 43.3001 105.37 43.2401C105.84 43.1401 106.46 43.1401 106.42 42.9301C106.86 42.7201 106.14 42.4802 105.86 42.3002C105.79 42.4202 105.53 42.42 105.35 42.39C105.32 42.29 105.79 42.1702 105.58 42.1202L106.22 42.0302C105.62 42.1402 105.54 41.8402 105.27 41.8402C105.74 41.7202 105.7 41.9401 106.06 41.9301C105.94 41.5201 106 41.7302 105.88 41.3202C105.37 41.1702 105.28 41.45 104.71 41.42C104.56 41.25 104.09 41.1402 104.44 40.8602L103.89 41.0201C103.39 40.7401 103.42 40.5401 103.95 40.2001C101.42 39.3501 99.8399 39.6401 98.8999 40.0201C97.9499 40.4001 97.6198 40.9 97.6198 40.9C96.5398 41.96 98.2498 42.0802 98.8198 43.0902L98.8899 43.1202Z" fill="#ACDE45"/>
<path d="M82.9398 89.0703L82.7499 88.9102C82.8099 89.0002 82.8698 89.0703 82.9398 89.0703Z" fill="#ACDE45"/>
<path d="M76.3098 83.6904C76.3098 83.6904 76.3098 83.6504 76.2998 83.6304V83.6904H76.3098Z" fill="#ACDE45"/>
<path d="M79.8599 82.3307C78.8699 82.6107 78.0798 81.7905 77.4398 82.6905C76.9798 82.8505 76.6598 83.3305 76.3098 83.6805C76.5298 84.5405 75.7599 83.9906 75.8699 84.7506L75.5498 84.3707C75.5898 84.6307 75.5699 84.8305 75.3599 84.6405L75.2998 84.5106C75.3498 84.9006 75.1099 84.7806 75.1399 84.9806L75.0799 84.8507L74.9599 84.9906L74.8899 84.8007C74.8599 85.2607 74.6399 85.4007 74.3599 85.3407L74.6499 85.8607C73.9199 85.4907 74.3299 86.6605 73.5899 86.1605L73.5299 86.0306C73.7299 87.6706 72.2898 85.4506 72.4398 87.0306C72.4198 86.8306 72.2799 86.7705 72.2199 86.6405C72.0599 86.9105 71.8499 87.1105 72.3499 88.1605C72.1699 88.2305 72.0499 87.9006 71.8399 87.5006C72.0599 87.9606 71.9999 88.2207 71.8799 88.3107L71.8599 88.1007L71.5498 88.4405L72.0299 89.2806C71.7099 89.1306 71.4799 88.2407 71.3799 88.5507L71.7199 89.2706C71.3699 89.2706 70.6898 88.2507 70.1698 87.8307C68.8998 88.0407 68.4598 90.4507 66.8198 89.6207L66.5399 89.0907C66.1799 88.2907 66.7499 90.4105 66.3899 89.6805L66.4198 90.1007C66.3198 89.9707 66.1798 89.8505 66.1698 89.6405C66.0398 89.6605 66.0899 89.7907 66.1099 90.0707L65.7699 89.6207C65.1499 89.4207 65.1599 90.5607 64.5799 90.5607C63.5699 89.7807 62.8498 91.1706 62.4198 91.9806C61.9898 93.5606 59.6599 90.7306 59.2699 92.4906C59.1899 92.3906 59.2199 92.6806 59.2499 92.7706L58.3499 92.9906C58.3499 92.9906 54.0499 94.2807 59.8299 99.8307L59.8799 100.011C60.5199 100.261 60.8599 100.241 60.8399 99.2206C61.3199 100.301 61.2699 99.1806 61.5199 99.4906L61.5399 99.5807C61.4999 98.6207 62.4099 100.051 62.3999 99.1905C62.4199 99.2805 62.5299 99.5805 62.4799 99.6305C62.6299 99.4105 62.8099 99.0605 63.0799 99.6905C63.4999 99.3305 64.2999 99.3606 64.2099 98.2206L64.2599 98.4005C64.1699 97.6405 64.4499 98.2106 64.5099 97.7806C64.5499 97.8606 64.5799 97.9005 64.5999 97.9305C64.5199 97.1805 65.1199 97.6006 65.1599 97.2506L65.3399 97.6705L65.6898 97.4205L65.5099 97.3905C65.0899 96.2105 66.0898 98.0005 66.0698 97.1405C66.3898 97.1805 65.6199 94.5206 66.1199 94.9706C66.0299 94.3806 66.3699 95.9005 66.3899 95.4005C66.6399 96.0005 66.4598 95.8106 66.6998 96.2806C66.7698 95.9206 67.2599 96.7706 67.3299 96.2706L67.5299 96.7406C67.4799 95.7606 68.3599 97.1206 68.2299 96.2206C68.3799 95.7006 69.0199 97.5206 68.9699 96.4706L69.3599 97.0507C69.5399 97.0907 69.1298 96.2306 69.4198 96.4706C69.5798 96.8706 69.7498 96.7007 69.8198 97.1207C70.4398 97.5907 70.1599 95.9306 71.0799 96.7806C70.8499 95.9606 71.2799 96.3206 71.0999 95.7106C71.2599 96.0406 71.5899 95.5605 71.6499 96.4005C71.6499 96.4705 71.6098 96.4807 71.5498 96.3407L71.7199 96.8107C72.3699 97.5607 71.9998 96.1305 72.3198 96.1405C72.1698 96.0205 72.0899 96.1106 72.0199 95.7706L72.2899 95.7206L72.4099 96.1305L72.8699 96.1905L72.6099 95.7406C72.8999 95.9006 73.3199 96.6805 73.2199 95.9205C73.1399 95.5005 72.7599 95.3607 72.8799 95.1207C73.2599 95.3307 73.8399 95.6705 74.2099 95.6605C73.9399 95.1405 74.0298 95.1206 74.0598 94.9806L74.2799 95.4405C74.2999 94.6505 74.8698 96.4006 74.9498 95.7406L75.0698 96.0707L74.6998 95.0707C74.5598 94.0207 75.3099 95.9507 75.0399 94.5607C74.9499 94.7007 74.4999 93.5806 74.7499 93.7006L74.9198 94.1605C74.9598 94.0305 74.8999 93.8305 74.9999 93.8905C75.0599 94.1505 75.2799 94.5505 75.3699 94.4105L75.5498 95.0006L75.3999 94.0707C75.8099 94.4507 75.8198 93.7207 76.1898 94.3007C76.1898 94.3007 76.7399 94.4105 76.4899 93.6905C76.6199 94.1505 76.9199 94.2006 77.0999 94.7306C76.9699 94.2006 77.0798 93.6607 77.4498 94.1107V94.1805C78.1698 94.4705 77.8599 93.0806 78.5899 93.5006C78.2999 92.9906 78.6599 93.1606 78.2599 92.5206C78.3199 91.6506 79.7299 93.4907 78.7799 91.3507C78.8999 91.1407 79.2599 91.7106 79.4099 91.7706V91.9005C79.6799 91.5405 79.7698 91.4705 80.0598 91.3805C80.0798 91.1105 79.5798 90.1506 79.9298 90.2606C80.0598 90.6806 80.1199 90.5606 80.2099 90.5106C80.1899 90.6006 80.2499 90.7505 80.4999 90.9405C80.4499 90.8105 80.4398 90.7305 80.4198 90.6605C80.4398 90.6905 80.4499 90.7106 80.4799 90.7506C80.5499 90.5406 80.4599 90.4305 80.3599 90.4205C80.3299 90.3605 80.2799 90.2906 80.2099 90.2006C80.6299 90.6006 80.5999 89.9307 80.9799 90.5707C81.3199 90.1707 81.2498 89.3405 81.4498 88.8905C81.6798 89.1905 81.7699 89.5306 81.7399 89.7206L81.9198 89.4506C82.1998 89.9206 81.9398 89.8106 81.9198 89.9506C82.6698 90.5306 82.0799 88.8207 82.8499 89.3107L82.6998 88.9005L82.7599 88.9506C82.6399 88.7606 82.5498 88.4407 82.5698 88.3507C82.8698 88.7307 83.1398 89.2905 83.2998 89.1605C83.6798 89.4705 83.5699 88.7305 83.5999 88.4005C83.4599 88.4005 83.3498 88.1506 83.2998 87.9806C83.3798 87.9106 83.6799 88.2807 83.6299 88.0707L83.9799 88.6107C83.6199 88.1207 83.8499 87.9205 83.7399 87.6705C84.0499 88.0405 83.8299 88.1005 83.9999 88.4205C84.3099 88.1505 84.1499 88.2806 84.4599 88.0106C84.3799 87.4906 84.0999 87.5206 83.8699 86.9906C83.9599 86.7806 83.8699 86.3106 84.2599 86.5206L83.8899 86.0807C83.9399 85.5207 84.1399 85.4607 84.6599 85.8007C84.4099 83.1507 83.5499 81.8107 82.8299 81.0907C82.0999 80.3707 81.4799 80.2806 81.4799 80.2806C80.0199 79.7606 80.5699 81.3907 79.8599 82.3707V82.3307Z" fill="#ACDE45"/>
<path d="M36.1399 109.75L35.9598 109.58C36.0098 109.68 36.0699 109.75 36.1399 109.75Z" fill="#ACDE45"/>
<path d="M20.8999 120.89C20.8999 120.89 20.9098 120.92 20.9298 120.94C20.9298 120.92 20.9199 120.9 20.8999 120.89Z" fill="#ACDE45"/>
<path d="M29.5698 104.24C29.5698 104.24 29.5698 104.2 29.5598 104.18V104.24H29.5698Z" fill="#ACDE45"/>
<path d="M33.5899 102.79C32.4799 103.03 31.6999 102.21 30.8899 103.15C30.3599 103.34 29.9699 103.86 29.5699 104.24C29.7799 105.11 28.9599 104.61 29.0699 105.39L28.7199 105.03C28.7599 105.3 28.7399 105.5 28.5099 105.33L28.4399 105.2C28.4999 105.6 28.2299 105.5 28.2599 105.7L28.1899 105.57L28.0599 105.72L27.9799 105.53C27.9499 106 27.7298 106.17 27.4198 106.15L27.7499 106.64C26.9499 106.36 27.4499 107.5 26.6199 107.09L26.5499 106.97C26.8999 108.6 25.1699 106.61 25.4699 108.19C25.4299 107.99 25.2699 107.96 25.1999 107.83C25.0599 108.13 24.8499 108.37 25.5099 109.33C25.3299 109.43 25.1599 109.12 24.8899 108.77C25.1799 109.19 25.16 109.47 25.04 109.59L24.9899 109.39L24.7099 109.8L25.3399 110.53C24.9799 110.44 24.6099 109.61 24.5599 109.93L25.0199 110.58C24.6599 110.64 23.7898 109.78 23.1698 109.5C21.8298 110.06 21.9399 112.56 20.0699 112.3L19.6399 111.88C19.0499 111.23 20.2099 113.1 19.6399 112.52L19.79 112.92C19.66 112.83 19.48 112.76 19.41 112.56C19.28 112.63 19.3699 112.74 19.4699 113L18.9999 112.69C18.2999 112.74 18.6399 113.82 18.0899 114.07C16.8199 113.73 16.5499 115.4 16.4699 116.35C16.5699 117.17 15.7899 117.21 15.0199 117.29C14.2499 117.37 13.4599 117.48 13.6799 118.39C13.5599 118.34 13.72 118.59 13.79 118.65L13.0499 119.34C13.0499 119.34 12.83 119.55 12.66 119.92C12.48 120.29 12.3299 120.79 12.4299 121.33C12.6199 122.44 13.93 123.57 17.79 124.49L17.9299 124.62C18.5799 124.53 18.8299 124.37 18.2999 123.52C19.2399 124.23 18.6399 123.3 19.0099 123.46L19.0799 123.53C18.5699 122.72 20.0299 123.57 19.5899 122.83C19.6499 122.9 19.8899 123.12 19.8699 123.18C19.8899 122.93 19.87 122.56 20.4 123C20.59 122.53 21.2498 122.26 20.6698 121.28L20.79 121.43C20.38 120.8 20.8699 121.19 20.7399 120.79C20.8099 120.84 20.8499 120.87 20.8799 120.89C20.4899 120.24 21.1999 120.41 21.0799 120.08L21.41 120.39L21.5999 120.04L21.4299 120.07C20.5899 119.14 22.1799 120.42 21.8199 119.65C22.1199 119.59 20.4199 117.4 21.0499 117.65C20.7499 117.13 21.6099 118.43 21.4499 117.96C21.8999 118.43 21.6599 118.32 22.0499 118.67C21.9799 118.31 22.7299 118.94 22.6099 118.46L22.9599 118.83C22.5599 117.93 23.84 118.94 23.4 118.15C23.36 117.62 24.55 119.14 24.15 118.18L24.6899 118.62C24.8699 118.62 24.2199 117.92 24.5499 118.07C24.8199 118.41 24.9199 118.2 25.1199 118.58C25.8199 118.88 25.0499 117.39 26.1299 117.99C25.6799 117.27 26.1699 117.52 25.8299 116.97C26.0699 117.25 26.2299 116.72 26.5199 117.51C26.5399 117.58 26.5098 117.59 26.4198 117.48L26.7099 117.89C27.4899 118.47 26.7599 117.2 27.0599 117.15C26.8999 117.07 26.8399 117.16 26.6899 116.85L26.9198 116.76L27.1399 117.12L27.5699 117.1L27.2199 116.72C27.5199 116.83 28.0999 117.5 27.8099 116.79C27.6399 116.41 27.2599 116.33 27.3099 116.09C27.7099 116.23 28.31 116.45 28.65 116.41C28.28 115.95 28.3599 115.92 28.3599 115.78L28.66 116.19C28.51 115.43 29.3999 117.03 29.3299 116.39L29.5099 116.7L28.9599 115.78C28.6099 114.79 29.69 116.56 29.16 115.24C29.11 115.38 28.4699 114.35 28.7299 114.44L28.9799 114.87C28.9899 114.73 28.8999 114.55 29.0099 114.6C29.1199 114.85 29.3899 115.2 29.4499 115.06L29.7299 115.61L29.4198 114.73C29.8699 115.06 29.7399 114.35 30.1899 114.88C30.1899 114.88 30.6999 114.94 30.3599 114.26C30.5499 114.7 30.8299 114.73 31.0799 115.22C30.8699 114.72 30.8899 114.18 31.2999 114.6L31.3199 114.67C32.0099 114.92 31.5399 113.59 32.2599 113.97C31.9299 113.48 32.2799 113.64 31.8399 113.02C31.8099 112.15 33.2899 113.93 32.2199 111.86C32.3199 111.65 32.6999 112.21 32.8499 112.26L32.8699 112.39C33.0799 112.04 33.1598 111.97 33.4198 111.88C33.4198 111.61 32.8999 110.67 33.2399 110.77C33.3899 111.18 33.4299 111.06 33.5099 111.02C33.4899 111.11 33.5599 111.25 33.7999 111.45C33.7499 111.33 33.7299 111.24 33.7199 111.17C33.7399 111.2 33.75 111.22 33.78 111.26C33.84 111.05 33.75 110.95 33.66 110.93C33.63 110.87 33.5799 110.8 33.5099 110.71C33.9199 111.12 33.8799 110.46 34.2599 111.1C34.5699 110.73 34.4799 109.89 34.6899 109.46C34.9099 109.77 34.9899 110.11 34.9599 110.29L35.1299 110.04C35.3899 110.52 35.1399 110.39 35.1299 110.53C35.8299 111.16 35.2999 109.44 36.0099 109.98L35.8799 109.56L35.9299 109.61C35.8199 109.41 35.7499 109.09 35.7699 109C36.0399 109.4 36.2799 109.97 36.4299 109.86C36.7699 110.2 36.6899 109.46 36.7499 109.14C36.6199 109.12 36.5299 108.87 36.4899 108.7C36.5699 108.64 36.8299 109.04 36.7999 108.83L37.0999 109.4C36.7899 108.88 37.0199 108.71 36.9299 108.46C37.1899 108.86 36.9899 108.89 37.1299 109.22C37.4399 109 37.2799 109.11 37.5899 108.88C37.5499 108.36 37.2799 108.35 37.1199 107.81C37.2199 107.62 37.18 107.14 37.54 107.39L37.2299 106.91C37.3399 106.36 37.5499 106.33 38.0099 106.75C38.1299 104.1 37.5899 102.6 36.9899 101.78C36.3899 100.95 35.7299 100.8 35.7299 100.8C34.2299 100.12 34.4599 101.86 33.5599 102.83L33.5899 102.79Z" fill="#ACDE45"/>
<path d="M8.77991 145.25H8.53992C8.64992 145.27 8.73991 145.28 8.77991 145.25Z" fill="#ACDE45"/>
<path d="M7.74988 156.71C7.74988 156.71 7.7798 156.71 7.7998 156.72C7.7798 156.72 7.75988 156.71 7.74988 156.71Z" fill="#ACDE45"/>
<path d="M0.579834 145.76C0.579834 145.76 0.549897 145.74 0.519897 145.74L0.579834 145.76Z" fill="#ACDE45"/>
<path d="M1.65994 143.32C1.25994 143.93 0.12986 143.92 0.44986 144.7C0.30986 145.02 0.489865 145.42 0.579865 145.76C1.40987 146.04 0.52988 146.19 1.21988 146.48H0.729889C0.969889 146.58 1.11988 146.67 0.849885 146.7L0.70987 146.68C1.05987 146.83 0.829919 146.9 1.00992 146.97L0.869904 146.95L0.919831 147.07L0.71988 147.02C1.08988 147.24 1.08992 147.41 0.889924 147.53L1.47989 147.59C0.77989 147.82 1.97983 148.09 1.16983 148.27L1.02994 148.25C2.53994 148.79 -0.100125 148.7 1.33987 149.23C1.15987 149.16 1.02992 149.22 0.889924 149.2C1.03992 149.39 1.10993 149.58 2.26993 149.7C2.23993 149.82 1.89986 149.76 1.44986 149.73C1.95986 149.78 2.15984 149.91 2.17984 150.01L1.9899 149.95L2.12991 150.24L3.08987 150.28C2.79987 150.4 1.91992 150.2 2.13992 150.36L2.92984 150.43C2.74984 150.61 1.53985 150.62 0.93985 150.76C0.51985 151.56 2.48995 152.57 1.03995 153.24H0.43985C-0.43015 153.2 1.71994 153.52 0.909943 153.51L1.29984 153.62C1.13984 153.64 0.969938 153.68 0.779938 153.62C0.739938 153.7 0.879933 153.71 1.14993 153.78L0.599885 153.84C0.159885 154.14 1.19988 154.47 0.96988 154.8C-0.16012 155.16 0.839831 155.98 1.41983 156.42C2.71983 157.05 -0.79013 157.72 0.70987 158.38C0.58987 158.4 0.85987 158.45 0.95987 158.45L0.829865 159.03C0.829865 159.03 0.749865 159.73 1.57987 160.16C2.40987 160.59 4.13991 160.69 7.74991 159.65H7.93985C8.39985 159.36 8.49995 159.18 7.53995 158.98C8.71995 158.95 7.65995 158.74 8.03995 158.67H8.13992C7.23992 158.49 8.88986 158.31 8.07986 158.13C8.16987 158.13 8.49993 158.14 8.51993 158.18C8.36993 158.05 8.10984 157.88 8.79984 157.88C8.62984 157.58 8.94989 157.17 7.85989 156.95L8.04984 156.97C7.30984 156.84 7.93986 156.83 7.56986 156.69C7.65986 156.69 7.7099 156.68 7.7399 156.69C7.0199 156.55 7.63986 156.34 7.32986 156.23H7.77994L7.67984 156L7.57986 156.09C6.32986 156.02 8.36985 155.93 7.55985 155.73C7.71985 155.58 4.97988 155.3 5.59988 155.15C5.01988 155.04 6.54988 155.26 6.09988 155.12C6.74988 155.14 6.50994 155.19 7.02994 155.18C6.72994 155.05 7.69993 155.01 7.26993 154.85L7.77994 154.87C6.85994 154.64 8.45986 154.55 7.57986 154.38C7.16987 154.16 9.08989 154.33 8.10989 154.07L8.79984 154.03C8.91984 153.95 7.95984 153.92 8.29984 153.84C8.72984 153.87 8.64985 153.74 9.05985 153.82C9.74985 153.65 8.11995 153.32 9.28995 153.12C8.44995 153 8.95988 152.89 8.33988 152.8C8.70988 152.82 8.41986 152.52 9.19986 152.74C9.25986 152.76 9.2499 152.78 9.10989 152.77L9.60989 152.83C10.5599 152.74 9.10993 152.5 9.26993 152.35C9.09993 152.38 9.13984 152.45 8.79984 152.38L8.87991 152.24L9.29984 152.3L9.55985 152.1H9.03995C9.31995 152 10.1999 152.04 9.47989 151.86C9.06989 151.77 8.7699 151.9 8.6199 151.77C8.9899 151.66 9.53987 151.49 9.70987 151.32C9.11987 151.28 9.14995 151.24 9.03995 151.17L9.54984 151.21C8.85984 150.95 10.6699 151.25 10.1299 151L10.4799 151.05L9.42984 150.9C8.44984 150.63 10.4899 150.91 9.13992 150.58C9.21992 150.67 8.01991 150.5 8.24991 150.43L8.7399 150.5C8.6399 150.44 8.43995 150.4 8.53995 150.37C8.79995 150.43 9.24983 150.46 9.16983 150.37L9.77994 150.48L8.89993 150.24C9.43993 150.18 8.7999 149.94 9.4899 149.97C9.4899 149.97 9.84989 149.77 9.10989 149.63C9.56989 149.73 9.76985 149.63 10.3098 149.72C9.78985 149.6 9.37986 149.36 9.94986 149.36L10.0099 149.38C10.6199 149.18 9.27992 148.82 10.0099 148.67C9.41992 148.6 9.75992 148.52 9.00992 148.45C8.30992 148.1 10.5899 148.2 8.28995 147.79C8.17995 147.66 8.84989 147.73 8.97989 147.69L9.09988 147.73C8.93989 147.49 8.92992 147.42 9.00992 147.27C8.79992 147.16 7.72992 146.98 8.00992 146.88C8.42992 146.99 8.3599 146.92 8.3699 146.87C8.4299 146.91 8.58991 146.95 8.87991 146.92C8.74991 146.89 8.6699 146.86 8.60989 146.84C8.63989 146.84 8.66988 146.84 8.71988 146.85C8.57988 146.74 8.44991 146.73 8.37991 146.76C8.31991 146.75 8.22989 146.74 8.10989 146.73C8.66989 146.73 8.10989 146.46 8.84988 146.57C8.72989 146.28 7.99992 145.96 7.75992 145.68C8.13992 145.72 8.45988 145.83 8.59988 145.92L8.4899 145.74C9.0299 145.83 8.77991 145.88 8.87991 145.95C9.77991 145.91 8.07983 145.41 8.91983 145.33L8.49991 145.21H8.56986C8.33986 145.17 8.04989 145.06 7.97989 145.02C8.44989 145.07 9.05984 145.22 9.04984 145.11C9.51984 145.11 8.86992 144.82 8.63992 144.66C8.54992 144.71 8.28991 144.64 8.12991 144.58C8.12991 144.52 8.59994 144.58 8.40994 144.5L9.03995 144.62C8.43995 144.53 8.42983 144.35 8.16983 144.28C8.63983 144.34 8.55994 144.44 8.90994 144.53C8.89994 144.3 8.90992 144.41 8.88992 144.19C8.43992 143.98 8.28991 144.09 7.74991 143.92C7.64991 143.79 7.22991 143.6 7.62991 143.55L7.05985 143.47C6.65985 143.18 6.75988 143.07 7.34988 143.06C5.23988 141.83 3.70986 141.37 2.69986 141.26C1.68986 141.15 1.20987 141.38 1.20987 141.38C-0.17013 141.76 1.38984 142.45 1.67984 143.28L1.65994 143.32Z" fill="#ACDE45"/>
</svg>
