<svg width="456" height="169" viewBox="0 0 456 169" fill="none" xmlns="http://www.w3.org/2000/svg">
<path d="M8.63019 2.20044L8.41016 2.27051C8.52016 2.25051 8.61019 2.23044 8.63019 2.20044Z" fill="#20BB65"/>
<path d="M11.2109 10.7104C11.2109 10.7104 11.2409 10.7104 11.2609 10.7004C11.2409 10.7004 11.2309 10.7004 11.2109 10.7104Z" fill="#20BB65"/>
<path d="M1.43051 2.73036C1.22051 3.33036 0.180535 3.66033 0.710535 4.19033C0.670535 4.49033 0.980538 4.76039 1.15054 5.01039C2.00054 4.98039 1.23054 5.37028 1.96054 5.39028L1.50051 5.55043C1.75051 5.55043 1.92051 5.58032 1.68051 5.69032L1.54049 5.71034C1.91049 5.71034 1.72049 5.85048 1.91049 5.85048L1.77053 5.88027L1.85049 5.96034L1.65054 5.99037C2.06054 6.05037 2.11048 6.18048 1.97048 6.35048L2.53054 6.21034C1.96054 6.62034 3.15054 6.44049 2.46054 6.86049L2.32052 6.89028C3.87052 6.82028 1.4305 7.63045 2.9205 7.57045C2.7305 7.57045 2.64051 7.66033 2.50051 7.70033C2.70051 7.80033 2.8205 7.93027 3.9205 7.63027C3.9305 7.73027 3.60051 7.81032 3.18051 7.94032C3.66051 7.81032 3.88052 7.8403 3.94052 7.9103L3.7405 7.93032L3.97048 8.11049L4.8605 7.81044C4.6305 8.00044 3.76053 8.16034 4.02053 8.21034L4.77053 7.99037C4.67053 8.19037 3.56051 8.63034 3.06051 8.96034C2.95051 9.76034 5.08051 9.82028 4.00051 10.8903L3.46054 11.1205C2.66054 11.4305 4.71049 10.8503 3.98049 11.1503L4.37051 11.0805C4.23051 11.1505 4.10054 11.2504 3.90054 11.2904C3.90054 11.3704 4.03049 11.3204 4.29049 11.2704L3.82052 11.5304C3.54052 11.9404 4.58051 11.7903 4.50051 12.1403C3.63051 12.8803 4.82051 13.1204 5.50051 13.2204C6.87051 13.1504 4.06052 15.1804 5.63052 15.0404C5.53052 15.1104 5.79052 15.0304 5.88052 14.9804L6.00051 15.4804C6.00051 15.4804 6.22049 16.0604 7.10049 15.9904C7.99049 15.9404 9.49048 15.1404 12.2205 12.7504L12.3905 12.6703C12.6805 12.2603 12.7005 12.0903 11.8005 12.3903C12.8105 11.8303 11.8205 12.1703 12.1305 11.9503L12.2205 11.9103C11.3705 12.1903 12.7505 11.3305 11.9805 11.5705C12.0605 11.5305 12.3505 11.3903 12.3805 11.4103C12.2105 11.3903 11.9205 11.3905 12.5205 11.0805C12.2705 10.9505 12.4105 10.5405 11.3805 10.8605L11.5505 10.7904C10.8605 11.0204 11.4105 10.7404 11.0405 10.8004C11.1205 10.7604 11.1605 10.7404 11.1905 10.7204C10.5005 10.9304 10.9805 10.5205 10.6705 10.5805L11.0805 10.4003L10.9105 10.2704L10.8505 10.3705C9.72049 10.8405 11.5005 9.94027 10.7205 10.1303C10.8205 9.96027 8.27053 10.8804 8.77053 10.5204C8.21053 10.6804 9.65054 10.2204 9.21054 10.3004C9.80054 10.0504 9.60051 10.1904 10.0605 9.97035C9.74051 10.0004 10.6005 9.58028 10.1605 9.64028L10.6205 9.45033C9.72051 9.65033 11.1305 8.95032 10.2905 9.18032C9.85049 9.18032 11.6305 8.56039 10.6705 8.76039L11.2805 8.47035C11.3605 8.37035 10.4905 8.72041 10.7705 8.53041C11.1705 8.39041 11.0605 8.33036 11.4505 8.23036C12.0205 7.85036 10.4505 8.2303 11.4405 7.6603C10.6505 7.8903 11.0705 7.63042 10.4805 7.79042C10.8205 7.67042 10.4705 7.56032 11.2405 7.43032C11.3005 7.42032 11.3005 7.44036 11.1605 7.48036L11.6305 7.34047C12.4705 6.93047 11.0805 7.30028 11.1805 7.14028C11.0405 7.22028 11.0905 7.26046 10.7605 7.33046L10.7905 7.20033L11.1905 7.09047L11.3705 6.86049L10.8905 7.04042C11.1105 6.88042 11.9305 6.59036 11.2105 6.73036C10.8105 6.81036 10.5805 7.01035 10.4005 6.97035C10.7005 6.76035 11.1505 6.45041 11.2605 6.28041C10.7105 6.46041 10.7205 6.4103 10.6005 6.4103L11.0805 6.26039C10.3705 6.31039 12.1205 5.90031 11.5505 5.92031L11.8905 5.84047L10.8805 6.09047C9.89052 6.23047 11.8505 5.74035 10.5205 5.97035C10.6205 6.00035 9.47049 6.2903 9.66049 6.1603L10.1305 6.05043C10.0205 6.04043 9.82049 6.08041 9.91049 6.03041C10.1705 5.98041 10.5905 5.86045 10.4905 5.82045L11.0805 5.70033L10.2005 5.83046C10.6805 5.61046 10.0205 5.65032 10.6605 5.44032C10.6605 5.44032 10.9305 5.18046 10.2005 5.33046C10.6605 5.25046 10.8005 5.11039 11.3305 5.01039C10.8105 5.10039 10.3705 5.0605 10.8905 4.8705H10.9505C11.4605 4.5405 10.1105 4.7005 10.7405 4.3705C10.1805 4.5105 10.4605 4.34041 9.75051 4.53041C8.99051 4.49041 11.1505 3.8704 8.90054 4.2704C8.76054 4.2104 9.40052 4.06037 9.51052 3.99037H9.63052C9.41052 3.86037 9.38049 3.82032 9.41049 3.68032C9.18049 3.66032 8.14051 3.85033 8.37051 3.69033C8.79051 3.65033 8.71053 3.62045 8.70053 3.57045C8.77053 3.58045 8.92052 3.57034 9.19052 3.46034C9.06052 3.48034 8.98049 3.48036 8.91049 3.48036C8.94049 3.48036 8.97052 3.47034 9.01052 3.46034C8.85052 3.42034 8.7205 3.46038 8.6705 3.50038C8.6105 3.51038 8.53049 3.53044 8.41049 3.56044C8.93049 3.39044 8.3405 3.36036 9.0505 3.23036C8.8505 3.05036 8.08054 3.03028 7.78054 2.89028C8.14054 2.81028 8.48052 2.80046 8.63052 2.83046L8.48049 2.73036C9.01049 2.65036 8.80049 2.7504 8.91049 2.7704C9.74049 2.4904 8.01053 2.60043 8.77053 2.30043L8.35049 2.33046L8.4205 2.31044C8.2005 2.34044 7.89051 2.35046 7.81051 2.33046C8.27051 2.24046 8.88053 2.18048 8.83053 2.10048C9.26053 1.97048 8.58052 1.94027 8.32052 1.88027C8.25052 1.94027 7.99052 1.96034 7.82052 1.96034C7.80052 1.92034 8.2605 1.83045 8.0505 1.82045L8.6705 1.73036C8.0805 1.82036 8.02052 1.70034 7.76052 1.71034C8.22052 1.63034 8.17053 1.73032 8.52053 1.69032C8.44053 1.52032 8.48054 1.61032 8.40054 1.44032C7.92054 1.40032 7.81052 1.53043 7.26052 1.55043C7.13052 1.48043 6.68049 1.45044 7.04049 1.31044L6.4905 1.40029C6.0405 1.29029 6.10054 1.18039 6.65054 1.01039C4.32054 0.630393 2.76049 0.660481 1.79049 0.850481C0.820491 1.03048 0.430506 1.35048 0.430506 1.35048C-0.749494 2.04048 0.910496 2.16038 1.4205 2.75038L1.43051 2.73036Z" fill="#20BB65"/>
<path d="M29.7502 29.5605L29.7002 29.8005C29.7502 29.7105 29.7802 29.6205 29.7502 29.5605Z" fill="#20BB65"/>
<path d="M47.9902 37.6404C47.9902 37.6404 48.0103 37.6206 48.0203 37.6006C48.0003 37.6106 47.9902 37.6304 47.9902 37.6404Z" fill="#20BB65"/>
<path d="M28.7199 37.9604C28.7199 37.9604 28.6899 37.9805 28.6699 38.0005L28.7199 37.9604Z" fill="#20BB65"/>
<path d="M25.2203 35.2605C26.0603 36.0705 25.7803 37.1904 27.0503 37.3904C27.5103 37.7404 28.1603 37.8305 28.7103 37.9705C29.3403 37.3505 29.3603 38.3005 29.9603 37.8105L29.8503 38.2905C30.0603 38.1205 30.2403 38.0406 30.2203 38.3206L30.1503 38.4404C30.4603 38.1904 30.5203 38.4606 30.6703 38.3306L30.6003 38.4504L30.8003 38.4805L30.6803 38.6404C31.1003 38.4204 31.3703 38.5305 31.5103 38.8005L31.7503 38.2705C31.9403 39.0905 32.6503 38.1005 32.7503 39.0005L32.6803 39.1206C33.8903 38.0006 33.1103 40.4804 34.2903 39.4304C34.1403 39.5604 34.2003 39.7206 34.1303 39.8406C34.4603 39.8106 34.7803 39.8606 35.2603 38.8206C35.4403 38.9206 35.2603 39.2204 35.1103 39.6304C35.3203 39.1704 35.5703 39.0606 35.7303 39.1006L35.5803 39.2505L36.0703 39.2905L36.3703 38.3904C36.4803 38.7404 35.9603 39.4706 36.2703 39.3606L36.5803 38.6404C36.8303 38.9204 36.5403 40.0805 36.6203 40.7405C37.7703 41.6105 39.8903 40.3205 40.5703 42.0605L40.4103 42.6304C40.1203 43.4404 41.2003 41.5806 40.9603 42.3306L41.2403 42.0205C41.2203 42.1805 41.2403 42.3605 41.1103 42.5205C41.2303 42.6005 41.2803 42.4705 41.4703 42.2705L41.4203 42.8206C41.7803 43.4006 42.5803 42.6005 43.0403 43.0005C43.3103 44.2705 44.8803 43.7604 45.7603 43.4604C47.1503 42.5804 47.2103 46.2204 48.6903 45.1504C48.6903 45.2804 48.8603 45.0404 48.8903 44.9504L49.7803 45.3706C49.7803 45.3706 50.8903 45.8005 51.8203 45.2505C52.7603 44.7005 53.4903 43.1505 52.8803 39.2405L52.9603 39.0706C52.6103 38.4806 52.3303 38.3006 51.7103 39.0806C52.0103 37.9706 51.3503 38.8404 51.3503 38.4404L51.3903 38.3506C50.8203 39.1006 51.0103 37.4506 50.4703 38.1106C50.5103 38.0306 50.6203 37.7305 50.6903 37.7305C50.4403 37.8005 50.0703 37.9505 50.2703 37.3105C49.7203 37.3105 49.1303 36.7804 48.4703 37.6904L48.5503 37.5205C48.1303 38.1405 48.2803 37.5406 47.9603 37.8206C47.9803 37.7306 47.9803 37.6904 47.9903 37.6504C47.5603 38.2504 47.3803 37.5505 47.1203 37.7805L47.2603 37.3606L46.8303 37.3206L46.9403 37.4604C46.4803 38.6004 46.9003 36.6305 46.3503 37.2805C46.1403 37.0405 44.9403 39.4805 44.8703 38.8105C44.5403 39.3005 45.3103 37.9806 44.9603 38.3206C45.1703 37.7206 45.1903 37.9805 45.3203 37.4805C45.0203 37.6905 45.2303 36.7506 44.8403 37.0706L45.0003 36.6006C44.3703 37.3406 44.6503 35.7705 44.1403 36.5105C43.6803 36.7705 44.4603 35.0506 43.7803 35.8306L43.9003 35.1504C43.8003 34.9904 43.5003 35.8805 43.4603 35.5205C43.6203 35.1305 43.3903 35.1305 43.6203 34.7905C43.5203 34.0405 42.5603 35.3904 42.5203 34.1604C42.1103 34.8804 42.0703 34.3304 41.7603 34.8804C41.8803 34.5404 41.3203 34.6405 41.8703 34.0205C41.9203 33.9705 41.9503 34.0004 41.9003 34.1304L42.1203 33.6904C42.2103 32.7304 41.4603 33.9705 41.2503 33.7305C41.2603 33.9105 41.3803 33.9104 41.1903 34.2004L40.9803 34.0405L41.1903 33.6804L40.9303 33.3105L40.7803 33.8005C40.7103 33.4805 40.9903 32.6605 40.5103 33.2405C40.2603 33.5705 40.4003 33.9405 40.1603 34.0105C40.0603 33.5905 39.9303 32.9604 39.6903 32.7004C39.4903 33.2404 39.4203 33.1805 39.2903 33.2605L39.4803 32.8005C38.8903 33.3005 39.8103 31.7506 39.2803 32.1206L39.4503 31.8105L38.9503 32.7205C38.2703 33.5005 39.2203 31.7105 38.3603 32.8005C38.5203 32.7805 37.9703 33.8305 37.9003 33.5605L38.1403 33.1404C38.0103 33.1904 37.9003 33.3705 37.8903 33.2505C38.0503 33.0405 38.2003 32.6304 38.0503 32.6404L38.3803 32.1304L37.7803 32.8306C37.8203 32.2806 37.2603 32.7406 37.4703 32.0906C37.4703 32.0906 37.2303 31.6105 36.8303 32.2405C37.1003 31.8605 36.9703 31.6004 37.2603 31.1404C36.9403 31.5704 36.4703 31.8105 36.5903 31.2605L36.6403 31.2104C36.4603 30.5004 35.5703 31.5605 35.5003 30.7505C35.2603 31.2805 35.2003 30.8906 34.9203 31.5806C34.1903 32.0306 34.8803 29.8806 33.7003 31.8406C33.4603 31.8606 33.7303 31.2606 33.7003 31.1006L33.8003 31.0205C33.3803 31.0205 33.2703 30.9805 33.0503 30.8005C32.8203 30.9305 32.3103 31.8605 32.2003 31.5105C32.4703 31.1805 32.3403 31.2004 32.2603 31.1504C32.3403 31.1204 32.4303 30.9904 32.4603 30.6804C32.3803 30.7904 32.3203 30.8504 32.2703 30.8904C32.2803 30.8604 32.2903 30.8405 32.3203 30.8005C32.1103 30.8605 32.0703 30.9906 32.1103 31.0706C32.0803 31.1306 32.0403 31.2005 32.0103 31.3105C32.1203 30.7605 31.5903 31.1305 31.9203 30.4805C31.4303 30.4005 30.7703 30.8904 30.2803 30.9404C30.4203 30.5904 30.6703 30.3505 30.8403 30.2805L30.5303 30.2605C30.8003 29.7905 30.8203 30.0705 30.9503 30.0205C31.0903 29.1105 29.9303 30.4405 29.9903 29.5505L29.7103 29.8804L29.7303 29.8105C29.6203 30.0005 29.3903 30.2205 29.3003 30.2605C29.4903 29.8305 29.8503 29.3305 29.6703 29.2605C29.7703 28.8005 29.1803 29.2406 28.8803 29.3506C28.9303 29.4706 28.7703 29.6805 28.6403 29.7905C28.5503 29.7505 28.7403 29.3304 28.5703 29.4604L28.8903 28.9204C28.6203 29.4504 28.3403 29.3405 28.1803 29.5405C28.3803 29.1105 28.5203 29.2805 28.7203 28.9905C28.3603 28.8405 28.5403 28.9105 28.1803 28.7605C27.7503 29.0605 27.9003 29.2904 27.5203 29.7004C27.3003 29.7004 26.9103 29.9905 26.9303 29.5505L26.6903 30.0605C26.1603 30.2505 26.0203 30.0705 26.1303 29.4705C23.8003 30.6705 22.7803 31.8605 22.4003 32.7905C22.0203 33.7205 22.2603 34.3706 22.2603 34.3706C22.5203 36.0306 23.9103 34.9605 25.2403 35.2705L25.2203 35.2605Z" fill="#20BB65"/>
<path d="M78.6406 45.6206L78.6806 45.8606C78.7006 45.7506 78.7006 45.6606 78.6406 45.6206Z" fill="#20BB65"/>
<path d="M98.751 48.8105C98.751 48.8105 98.771 48.7805 98.781 48.7605C98.761 48.7805 98.761 48.7905 98.751 48.8105Z" fill="#20BB65"/>
<path d="M80.3112 53.9004C80.3112 53.9004 80.2912 53.9304 80.2812 53.9504L80.3212 53.9004H80.3112Z" fill="#20BB65"/>
<path d="M76.3108 52.5105C77.3408 52.9905 77.4208 54.1204 78.6308 53.8904C79.1508 54.0804 79.7708 53.9404 80.3108 53.9004C80.7108 53.1104 81.0008 54.0106 81.4208 53.3706L81.4509 53.8606C81.5909 53.6406 81.7408 53.5005 81.8008 53.7705L81.7709 53.9104C81.9809 53.5804 82.1208 53.8204 82.2208 53.6604L82.1908 53.8005L82.3808 53.7705L82.3108 53.9604C82.6408 53.6304 82.9208 53.6506 83.1208 53.8606L83.2009 53.2805C83.6009 54.0105 83.9909 52.8604 84.3209 53.6904L84.2908 53.8306C85.1308 52.4206 85.0408 55.0104 85.8808 53.6804C85.7808 53.8504 85.8609 53.9806 85.8309 54.1206C86.1309 54.0006 86.4408 53.9706 86.6308 52.8406C86.8308 52.8906 86.7408 53.2204 86.6908 53.6604C86.7708 53.1704 86.9809 52.9905 87.1409 52.9905L87.0408 53.1704L87.5209 53.0806L87.5809 52.1304C87.7709 52.4404 87.4608 53.2806 87.7208 53.0906L87.8409 52.3206C88.1409 52.5306 88.1508 53.7306 88.3808 54.3506C89.6608 54.8906 91.4008 53.1504 92.4308 54.6904L92.4009 55.2805C92.3009 56.1305 92.9308 54.0806 92.8608 54.8706L93.0608 54.5005C93.0808 54.6605 93.1408 54.8305 93.0408 55.0105C93.1708 55.0605 93.1909 54.9204 93.3309 54.6804L93.3909 55.2305C93.8609 55.7205 94.4508 54.7705 94.9808 55.0505C95.4908 56.2205 96.8908 55.4104 97.6908 54.9404C98.8808 53.8104 99.6009 57.3605 100.841 56.0405C100.861 56.1605 100.981 55.9105 100.991 55.8105L101.931 56.0605C101.931 56.0605 106.491 56.9805 103.901 49.4805L103.951 49.3005C103.491 48.7805 103.181 48.6405 102.711 49.5305C102.801 48.3805 102.301 49.3605 102.231 48.9705L102.251 48.8804C101.821 49.7204 101.701 48.0605 101.291 48.8105C101.311 48.7205 101.361 48.4104 101.431 48.4004C101.191 48.5204 100.861 48.7305 100.931 48.0605C100.381 48.1605 99.6909 47.7605 99.2109 48.7705L99.2609 48.5906C98.9709 49.2806 99.0008 48.6605 98.7308 49.0005C98.7308 48.9105 98.7308 48.8606 98.7308 48.8306C98.4208 49.5106 98.1009 48.8604 97.8909 49.1304L97.9408 48.6904L97.5109 48.7305L97.6509 48.8506C97.4209 50.0606 97.4409 48.0505 97.0309 48.7905C96.7709 48.6005 96.1009 51.2306 95.8909 50.5906C95.6709 51.1406 96.1508 49.6906 95.8708 50.0906C95.9508 49.4606 96.0308 49.7104 96.0408 49.2004C95.7908 49.4704 95.8008 48.5104 95.4808 48.9004L95.5408 48.4104C95.0808 49.2604 95.0108 47.6705 94.6708 48.5005C94.2708 48.8605 94.6608 47.0104 94.1608 47.9204L94.1208 47.2305C93.9808 47.1005 93.8909 48.0304 93.7709 47.6804C93.8409 47.2604 93.6109 47.3104 93.7709 46.9304C93.4909 46.2204 92.8609 47.7405 92.5309 46.5605C92.3009 47.3605 92.1208 46.8304 91.9408 47.4304C91.9808 47.0704 91.4408 47.3006 91.8508 46.5706C91.8808 46.5106 91.9209 46.5304 91.9009 46.6704L92.0109 46.1904C91.8709 45.2304 91.4208 46.6104 91.1608 46.4304C91.2208 46.6004 91.3409 46.5804 91.2109 46.9004L90.9609 46.7905L91.0809 46.3904L90.7308 46.0906L90.7009 46.6006C90.5509 46.3106 90.6208 45.4404 90.2908 46.1304C90.1308 46.5104 90.3609 46.8404 90.1409 46.9604C89.9409 46.5804 89.6409 46.0005 89.3409 45.8005C89.2809 46.3705 89.2009 46.3404 89.0909 46.4404L89.1608 45.9504C88.7008 46.5804 89.2109 44.8506 88.7809 45.3406L88.8708 45.0005L88.6108 46.0105C88.1408 46.9305 88.6108 44.9605 88.0508 46.2405C88.2008 46.1805 87.9408 47.3306 87.8008 47.0906L87.9208 46.6206C87.8108 46.7006 87.7509 46.9005 87.7009 46.7905C87.8009 46.5405 87.8409 46.1004 87.7009 46.1604L87.8909 45.5806L87.4908 46.4104C87.3808 45.8704 86.9608 46.4505 86.9908 45.7705C86.9908 45.7705 86.6209 45.3706 86.4009 46.0906C86.5609 45.6506 86.3609 45.4404 86.5109 44.9104C86.3109 45.4104 85.9208 45.7704 85.8808 45.2004L85.9208 45.1404C85.5308 44.5004 84.9609 45.7605 84.6509 45.0105C84.5709 45.5805 84.4009 45.2305 84.3309 45.9705C83.7609 46.6105 83.7708 44.3506 83.2208 46.5706C82.9908 46.6506 83.0708 46.0006 82.9908 45.8706L83.0608 45.7605C82.6508 45.8805 82.5309 45.8805 82.2609 45.7705C82.0809 45.9605 81.8708 47.0004 81.6608 46.7104C81.8208 46.3104 81.7008 46.3706 81.6008 46.3506C81.6708 46.3006 81.7209 46.1506 81.6409 45.8506C81.6009 45.9806 81.5609 46.0506 81.5209 46.1106C81.5209 46.0806 81.5208 46.0505 81.5408 46.0105C81.3608 46.1305 81.3608 46.2606 81.4208 46.3306C81.4008 46.3906 81.4009 46.4706 81.4009 46.5906C81.3309 46.0206 80.9308 46.5406 81.0508 45.8306C80.5408 45.9106 80.0708 46.5805 79.6208 46.7805C79.6408 46.4105 79.8008 46.1005 79.9408 45.9805L79.6308 46.0605C79.7308 45.5305 79.8509 45.7904 79.9509 45.7004C79.7809 44.7904 79.1008 46.4205 78.8608 45.5605L78.7009 45.9604V45.8904C78.6509 46.1104 78.5008 46.3904 78.4308 46.4504C78.4608 45.9804 78.6408 45.3904 78.4308 45.3804C78.3608 44.9104 77.9509 45.5205 77.7009 45.7305C77.7909 45.8305 77.7008 46.0805 77.6308 46.2305C77.5308 46.2305 77.5609 45.7604 77.4509 45.9404L77.5608 45.3206C77.4808 45.9106 77.1808 45.9004 77.1008 46.1404C77.1308 45.6704 77.3308 45.7804 77.4208 45.4304C77.0208 45.4104 77.2209 45.4304 76.8209 45.4004C76.5209 45.8304 76.7408 45.9905 76.5408 46.5105C76.3308 46.5905 76.0708 46.9906 75.9308 46.5806L75.8909 47.1404C75.4609 47.5004 75.2609 47.3905 75.1409 46.7905C73.4009 48.7605 72.9408 50.2605 72.9308 51.2605C72.9208 52.2605 73.3508 52.7805 73.3508 52.7805C74.1408 54.2005 75.0008 52.7105 76.3108 52.5205V52.5105Z" fill="#20BB65"/>
<path d="M130.54 52.3904L130.6 52.6304C130.6 52.5204 130.6 52.4304 130.54 52.3904Z" fill="#20BB65"/>
<path d="M150.94 53.9304C150.94 53.9304 150.95 53.9004 150.96 53.8804C150.95 53.9004 150.94 53.9104 150.94 53.9304Z" fill="#20BB65"/>
<path d="M132.98 60.4504C132.98 60.4504 132.96 60.4805 132.95 60.5105L132.98 60.4504Z" fill="#20BB65"/>
<path d="M128.9 59.4905C129.96 59.8605 130.15 60.9606 131.32 60.6106C131.85 60.7406 132.44 60.5404 132.98 60.4504C133.3 59.6304 133.67 60.4905 134.03 59.8105L134.1 60.3005C134.22 60.0705 134.36 59.9104 134.44 60.1804L134.42 60.3206C134.6 59.9706 134.76 60.2005 134.85 60.0205L134.83 60.1604L135.02 60.1106L134.97 60.3105C135.27 59.9505 135.54 59.9404 135.77 60.1404L135.8 59.5605C136.26 60.2505 136.55 59.0606 136.95 59.8706L136.93 60.0105C137.64 58.5305 137.77 61.1205 138.49 59.7205C138.4 59.8905 138.49 60.0204 138.48 60.1604C138.77 60.0204 139.08 59.9506 139.17 58.8206C139.37 58.8506 139.31 59.1904 139.3 59.6304C139.34 59.1304 139.53 58.9404 139.69 58.9204L139.6 59.1106L140.07 58.9805V58.0305C140.28 58.3205 140.03 59.1805 140.27 58.9705L140.33 58.1904C140.65 58.3704 140.75 59.5704 141.02 60.1704C142.33 60.6104 143.93 58.7404 145.06 60.2104V60.8005C145.03 61.6605 145.51 59.5606 145.5 60.3606L145.68 59.9805C145.71 60.1405 145.78 60.3105 145.69 60.4905C145.82 60.5305 145.84 60.3904 145.95 60.1404L146.05 60.6804C146.55 61.1404 147.07 60.1404 147.61 60.4004C148.2 61.5404 149.53 60.6406 150.29 60.1206C151.4 58.9206 152.34 62.4205 153.49 61.0405C153.52 61.1605 153.62 60.9005 153.63 60.8005L154.58 61.0005C154.58 61.0005 159.17 61.7006 156.15 54.3306L156.19 54.1504C155.7 53.6504 155.38 53.5304 154.96 54.4404C154.98 53.2904 154.54 54.2904 154.45 53.9104L154.47 53.8206C154.09 54.6806 153.87 53.0305 153.51 53.8005C153.53 53.7105 153.56 53.3904 153.63 53.3804C153.4 53.5104 153.08 53.7406 153.11 53.0706C152.57 53.2006 151.85 52.8306 151.43 53.8706L151.47 53.6904C151.22 54.4004 151.21 53.7804 150.97 54.1304C150.97 54.0404 150.95 54.0004 150.96 53.9604C150.7 54.6604 150.34 54.0205 150.14 54.3105L150.16 53.8606L149.73 53.9304L149.88 54.0405C149.73 55.2605 149.62 53.2505 149.26 54.0205C148.99 53.8405 148.49 56.5104 148.24 55.8904C148.06 56.4504 148.43 54.9704 148.19 55.3904C148.23 54.7504 148.32 55.0005 148.3 54.4905C148.07 54.7805 148.01 53.8105 147.72 54.2205L147.75 53.7205C147.35 54.6005 147.17 53.0206 146.88 53.8606C146.5 54.2406 146.76 52.3705 146.33 53.3105L146.24 52.6304C146.1 52.5104 146.07 53.4406 145.92 53.1006C145.96 52.6806 145.73 52.7506 145.86 52.3506C145.53 51.6606 145.01 53.2306 144.59 52.0706C144.42 52.8806 144.2 52.3705 144.07 52.9805C144.08 52.6205 143.56 52.8804 143.91 52.1304C143.94 52.0704 143.98 52.0805 143.97 52.2205L144.04 51.7405C143.82 50.8005 143.48 52.2005 143.2 52.0405C143.27 52.2105 143.39 52.1705 143.29 52.5005L143.03 52.4104L143.12 52.0005L142.74 51.7305V52.2405C142.58 51.9605 142.58 51.0905 142.31 51.8005C142.18 52.1905 142.44 52.5004 142.22 52.6404C141.99 52.2704 141.64 51.7205 141.33 51.5405C141.31 52.1105 141.23 52.0904 141.13 52.2004L141.16 51.7004C140.75 52.3604 141.12 50.6006 140.73 51.1206L140.79 50.7805L140.61 51.8105C140.21 52.7705 140.53 50.7706 140.07 52.0806C140.21 52.0106 140.04 53.1804 139.89 52.9504L139.97 52.4705C139.87 52.5605 139.82 52.7604 139.77 52.6604C139.85 52.4104 139.86 51.9705 139.71 52.0405L139.85 51.4504L139.52 52.3105C139.36 51.7805 138.99 52.4005 138.96 51.7205C138.96 51.7205 138.55 51.3506 138.39 52.0906C138.52 51.6406 138.29 51.4404 138.41 50.9104C138.25 51.4204 137.89 51.8205 137.8 51.2605L137.83 51.2004C137.39 50.6004 136.92 51.9104 136.54 51.1904C136.51 51.7704 136.3 51.4404 136.3 52.1804C135.78 52.8704 135.6 50.6204 135.24 52.8804C135.02 52.9904 135.04 52.3304 134.94 52.2004L135 52.0806C134.59 52.2406 134.48 52.2504 134.2 52.1704C134.04 52.3804 133.92 53.4304 133.68 53.1604C133.8 52.7504 133.68 52.8205 133.59 52.8105C133.66 52.7505 133.69 52.6005 133.59 52.3005C133.56 52.4305 133.53 52.5106 133.49 52.5706C133.49 52.5406 133.49 52.5105 133.49 52.4705C133.32 52.6105 133.33 52.7405 133.4 52.8005C133.4 52.8605 133.39 52.9505 133.4 53.0605C133.28 52.5005 132.93 53.0606 132.97 52.3406C132.47 52.4706 132.06 53.1904 131.63 53.4304C131.62 53.0504 131.74 52.7306 131.87 52.6006L131.57 52.7104C131.62 52.1804 131.76 52.4206 131.86 52.3206C131.6 51.4306 131.08 53.1305 130.75 52.3005L130.63 52.7205L130.61 52.6504C130.59 52.8704 130.47 53.1705 130.41 53.2405C130.4 52.7705 130.51 52.1704 130.31 52.1804C130.19 51.7204 129.84 52.3706 129.62 52.6006C129.72 52.6906 129.66 52.9406 129.6 53.1006C129.5 53.1006 129.49 52.6406 129.39 52.8306L129.44 52.2004C129.42 52.7904 129.12 52.8206 129.06 53.0706C129.05 52.6006 129.25 52.6806 129.31 52.3306C128.91 52.3606 129.11 52.3406 128.71 52.3706C128.45 52.8306 128.69 52.9705 128.54 53.5105C128.34 53.6205 128.12 54.0404 127.94 53.6504L127.96 54.2104C127.57 54.6104 127.36 54.5304 127.18 53.9504C124.12 58.2804 126.04 60.1006 126.04 60.1006C126.96 61.4106 127.65 59.8405 128.93 59.5005L128.9 59.4905Z" fill="#20BB65"/>
<path d="M182.931 56.0706L183.001 56.3105C183.001 56.2005 182.991 56.1106 182.931 56.0706Z" fill="#20BB65"/>
<path d="M203.44 57.0806C203.44 57.0806 203.45 57.0505 203.46 57.0305C203.45 57.0505 203.44 57.0606 203.44 57.0806Z" fill="#20BB65"/>
<path d="M185.64 64.0706C185.64 64.0706 185.63 64.1004 185.62 64.1304L185.65 64.0706H185.64Z" fill="#20BB65"/>
<path d="M181.54 63.2104C182.61 63.5504 182.84 64.6505 183.99 64.2705C184.52 64.3905 185.111 64.1706 185.641 64.0706C185.941 63.2406 186.33 64.0904 186.66 63.4004L186.751 63.8804C186.861 63.6404 186.991 63.4905 187.081 63.7505V63.8904C187.241 63.5404 187.4 63.7606 187.48 63.5806V63.7205L187.651 63.6704L187.61 63.8706C187.9 63.5006 188.171 63.4904 188.401 63.6804V63.1006C188.891 63.7806 189.141 62.5804 189.561 63.3804V63.5205C190.221 62.0205 190.41 64.6104 191.1 63.1904C191.01 63.3704 191.12 63.4904 191.1 63.6304C191.39 63.4804 191.691 63.4105 191.761 62.2705C191.961 62.3005 191.91 62.6406 191.91 63.0806C191.94 62.5806 192.121 62.3806 192.281 62.3606L192.201 62.5505L192.66 62.4004L192.621 61.4504C192.851 61.7304 192.62 62.6004 192.86 62.3904L192.901 61.6106C193.221 61.7806 193.351 62.9706 193.641 63.5706C194.961 63.9806 196.5 62.0605 197.68 63.5005L197.701 64.0906C197.681 64.9506 198.111 62.8404 198.121 63.6404L198.29 63.2605C198.32 63.4205 198.401 63.5805 198.321 63.7705C198.451 63.8105 198.461 63.6704 198.571 63.4204L198.68 63.9604C199.19 64.4004 199.69 63.4004 200.23 63.6404C200.84 64.7604 202.151 63.8305 202.901 63.2905C203.981 62.0605 204.99 65.5404 206.11 64.1304C206.14 64.2504 206.24 63.9804 206.24 63.8904L207.191 64.0605C207.191 64.0605 211.801 64.6406 208.651 57.3506L208.68 57.1704C208.18 56.6904 207.861 56.5705 207.451 57.4905C207.451 56.3405 207.03 57.3505 206.93 56.9705L206.951 56.8804C206.591 57.7504 206.33 56.1104 205.99 56.8804C206.01 56.7904 206.03 56.4704 206.1 56.4604C205.87 56.5904 205.551 56.8304 205.571 56.1604C205.031 56.3104 204.301 55.9605 203.901 57.0105L203.93 56.8306C203.7 57.5406 203.67 56.9205 203.43 57.2805C203.43 57.1905 203.41 57.1506 203.41 57.1106C203.16 57.8106 202.78 57.1905 202.6 57.4805V57.0305L202.18 57.1106L202.331 57.2104C202.211 58.4304 202.051 56.4304 201.701 57.2104C201.421 57.0404 200.98 59.7206 200.72 59.1106C200.55 59.6706 200.89 58.1906 200.66 58.6206C200.69 57.9806 200.781 58.2304 200.751 57.7104C200.531 58.0004 200.44 57.0404 200.16 57.4604L200.18 56.9604C199.8 57.8504 199.581 56.2704 199.311 57.1304C198.941 57.5204 199.16 55.6406 198.74 56.6006L198.641 55.9204C198.491 55.8004 198.491 56.7404 198.331 56.4004C198.361 55.9804 198.131 56.0504 198.251 55.6504C197.901 54.9704 197.41 56.5504 196.97 55.4004C196.81 56.2204 196.58 55.7106 196.47 56.3306C196.47 55.9706 195.96 56.2405 196.29 55.4805C196.32 55.4205 196.36 55.4306 196.35 55.5706L196.41 55.0806C196.17 54.1406 195.851 55.5604 195.581 55.4004C195.661 55.5704 195.77 55.5306 195.68 55.8606L195.42 55.7805L195.501 55.3706L195.121 55.1106L195.151 55.6206C194.971 55.3506 194.951 54.4804 194.691 55.1904C194.571 55.5904 194.841 55.8905 194.621 56.0305C194.381 55.6705 194.021 55.1304 193.691 54.9604C193.691 55.5404 193.601 55.5106 193.501 55.6206L193.521 55.1206C193.131 55.7906 193.451 54.0205 193.071 54.5505L193.121 54.2004L192.97 55.2305C192.6 56.2005 192.86 54.1905 192.43 55.5205C192.57 55.4405 192.431 56.6204 192.281 56.3904L192.35 55.9104C192.25 56.0104 192.211 56.2106 192.151 56.1006C192.221 55.8406 192.221 55.4005 192.071 55.4805L192.201 54.8804L191.891 55.7505C191.721 55.2205 191.361 55.8504 191.311 55.1704C191.311 55.1704 190.891 54.8205 190.751 55.5505C190.861 55.0905 190.63 54.9106 190.73 54.3706C190.59 54.8806 190.231 55.2905 190.131 54.7305L190.16 54.6704C189.7 54.0804 189.271 55.4004 188.871 54.6904C188.861 55.2704 188.64 54.9404 188.66 55.6804C188.16 56.3804 187.91 54.1404 187.61 56.4104C187.39 56.5204 187.39 55.8605 187.29 55.7405L187.35 55.6206C186.95 55.7906 186.83 55.8005 186.55 55.7305C186.39 55.9405 186.311 57.0005 186.071 56.7305C186.181 56.3105 186.07 56.3904 185.97 56.3804C186.04 56.3204 186.061 56.1606 185.951 55.8706C185.921 56.0006 185.89 56.0804 185.86 56.1404C185.86 56.1104 185.86 56.0805 185.86 56.0405C185.69 56.1805 185.711 56.3106 185.781 56.3706C185.781 56.4306 185.78 56.5204 185.79 56.6304C185.65 56.0804 185.321 56.6404 185.341 55.9204C184.841 56.0604 184.451 56.7905 184.031 57.0505C184.011 56.6805 184.12 56.3504 184.24 56.2104L183.941 56.3306C183.971 55.7906 184.12 56.0304 184.22 55.9304C183.93 55.0504 183.46 56.7604 183.11 55.9404L183.001 56.3606L182.98 56.2905C182.97 56.5105 182.86 56.8104 182.8 56.8804C182.77 56.4104 182.86 55.8106 182.66 55.8206C182.53 55.3606 182.2 56.0205 181.98 56.2605C182.09 56.3405 182.04 56.6005 181.98 56.7605C181.88 56.7705 181.851 56.3005 181.761 56.5005L181.79 55.8706C181.79 56.4706 181.491 56.5005 181.441 56.7505C181.411 56.2805 181.62 56.3605 181.66 56.0105C181.26 56.0505 181.461 56.0306 181.061 56.0706C180.821 56.5306 181.06 56.6704 180.93 57.2104C180.73 57.3204 180.531 57.7506 180.331 57.3606L180.371 57.9204C179.991 58.3304 179.781 58.2604 179.581 57.6804C176.691 62.0904 178.67 63.8606 178.67 63.8606C179.64 65.1506 180.271 63.5504 181.521 63.1804L181.54 63.2104Z" fill="#20BB65"/>
<path d="M235.53 58.9004L235.6 59.1404C235.6 59.0304 235.59 58.9404 235.53 58.9004Z" fill="#20BB65"/>
<path d="M256.07 60.0405C256.07 60.0405 256.08 60.0105 256.09 59.9905C256.08 60.0105 256.07 60.0205 256.07 60.0405Z" fill="#20BB65"/>
<path d="M238.23 66.9104C238.23 66.9104 238.22 66.9405 238.21 66.9705L238.24 66.9104H238.23Z" fill="#20BB65"/>
<path d="M234.14 66.0305C235.21 66.3805 235.43 67.4806 236.58 67.1006C237.11 67.2206 237.7 67.0004 238.23 66.9104C238.53 66.0804 238.92 66.9405 239.25 66.2505L239.34 66.7405C239.46 66.5005 239.58 66.3506 239.67 66.6106V66.7505C239.83 66.4005 239.99 66.6204 240.07 66.4504V66.5906L240.24 66.5405L240.2 66.7405C240.49 66.3705 240.76 66.3605 240.99 66.5505V65.9705C241.48 66.6505 241.74 65.4605 242.15 66.2505V66.3904C242.81 64.9004 243 67.4906 243.69 66.0706C243.6 66.2506 243.7 66.3705 243.69 66.5105C243.98 66.3605 244.28 66.2904 244.35 65.1504C244.55 65.1804 244.49 65.5204 244.49 65.9604C244.52 65.4604 244.71 65.2605 244.87 65.2405L244.79 65.4304L245.25 65.2905L245.22 64.3406C245.44 64.6306 245.22 65.4905 245.46 65.2805L245.5 64.5005C245.82 64.6705 245.95 65.8704 246.23 66.4604C247.54 66.8704 249.1 64.9704 250.26 66.4204L250.28 67.0105C250.25 67.8705 250.7 65.7605 250.7 66.5605L250.87 66.1804C250.9 66.3404 250.98 66.5004 250.89 66.6904C251.02 66.7304 251.03 66.5906 251.15 66.3406L251.26 66.8804C251.76 67.3304 252.27 66.3206 252.82 66.5706C253.42 67.7006 254.73 66.7705 255.5 66.2405C256.6 65.0205 257.56 68.5006 258.69 67.1006C258.72 67.2206 258.82 66.9606 258.83 66.8606L259.77 67.0405C259.77 67.0405 264.37 67.6406 261.33 60.3406L261.37 60.1604C260.88 59.6704 260.56 59.5605 260.13 60.4705C260.15 59.3205 259.71 60.3304 259.61 59.9504L259.63 59.8606C259.25 60.7306 259.02 59.0906 258.66 59.8606C258.68 59.7706 258.71 59.4504 258.78 59.4404C258.55 59.5704 258.22 59.8104 258.25 59.1404C257.7 59.2804 256.98 58.9305 256.57 59.9805L256.61 59.8005C256.37 60.5105 256.35 59.8905 256.11 60.2505C256.11 60.1605 256.09 60.1206 256.1 60.0806C255.84 60.7806 255.47 60.1504 255.28 60.4504L255.3 60.0005L254.87 60.0806L255.02 60.1804C254.89 61.4004 254.75 59.3904 254.39 60.1704C254.11 60.0004 253.64 62.6805 253.39 62.0605C253.21 62.6205 253.57 61.1406 253.33 61.5706C253.36 60.9306 253.45 61.1804 253.43 60.6604C253.2 60.9504 253.13 59.9904 252.84 60.4004L252.86 59.9004C252.47 60.7904 252.27 59.2105 251.99 60.0605C251.62 60.4505 251.85 58.5705 251.43 59.5205L251.33 58.8406C251.18 58.7206 251.17 59.6606 251.02 59.3206C251.06 58.9006 250.82 58.9706 250.95 58.5706C250.6 57.8906 250.1 59.4605 249.66 58.3105C249.5 59.1305 249.27 58.6205 249.15 59.2305C249.15 58.8705 248.64 59.1404 248.98 58.3804C249.01 58.3204 249.05 58.3305 249.04 58.4705L249.1 57.9805C248.87 57.0405 248.54 58.4605 248.26 58.3005C248.34 58.4705 248.45 58.4305 248.36 58.7605L248.1 58.6804L248.18 58.2705L247.8 58.0105L247.82 58.5205C247.64 58.2505 247.63 57.3806 247.36 58.0906C247.24 58.4906 247.5 58.7904 247.29 58.9304C247.05 58.5704 246.69 58.0206 246.37 57.8506C246.37 58.4206 246.28 58.4005 246.18 58.5105L246.2 58.0105C245.8 58.6805 246.14 56.9104 245.75 57.4404L245.8 57.1006L245.64 58.1304C245.26 59.1004 245.53 57.0904 245.1 58.4104C245.24 58.3304 245.1 59.5105 244.94 59.2805L245.01 58.8005C244.91 58.9005 244.87 59.0905 244.81 58.9905C244.88 58.7305 244.88 58.2906 244.74 58.3706L244.87 57.7805L244.55 58.6504C244.38 58.1204 244.02 58.7506 243.97 58.0706C243.97 58.0706 243.55 57.7104 243.41 58.4504C243.53 58.0004 243.29 57.8005 243.4 57.2705C243.26 57.7805 242.9 58.1904 242.79 57.6304L242.82 57.5706C242.36 56.9706 241.93 58.3006 241.52 57.5806C241.51 58.1606 241.29 57.8306 241.3 58.5706C240.8 59.2706 240.55 57.0205 240.25 59.2905C240.03 59.4005 240.03 58.7406 239.93 58.6206L239.99 58.5005C239.59 58.6605 239.47 58.6806 239.18 58.6106C239.02 58.8206 238.94 59.8806 238.69 59.6106C238.8 59.1906 238.69 59.2705 238.59 59.2605C238.66 59.2005 238.68 59.0405 238.57 58.7505C238.54 58.8805 238.51 58.9605 238.48 59.0205C238.48 58.9905 238.48 58.9604 238.48 58.9204C238.31 59.0604 238.33 59.1905 238.4 59.2505C238.4 59.3105 238.4 59.4005 238.41 59.5205C238.27 58.9705 237.94 59.5205 237.96 58.8005C237.46 58.9405 237.07 59.6604 236.65 59.9204C236.63 59.5404 236.74 59.2206 236.87 59.0806L236.57 59.2004C236.6 58.6604 236.75 58.9005 236.85 58.8005C236.56 57.9105 236.09 59.6205 235.73 58.8005L235.62 59.2205L235.6 59.1504C235.59 59.3704 235.48 59.6705 235.42 59.7405C235.39 59.2705 235.48 58.6704 235.28 58.6804C235.15 58.2204 234.82 58.8806 234.6 59.1206C234.71 59.2106 234.66 59.4606 234.6 59.6206C234.5 59.6206 234.47 59.1606 234.38 59.3606L234.41 58.7305C234.41 59.3305 234.11 59.3506 234.06 59.6106C234.03 59.1406 234.24 59.2206 234.28 58.8706C233.88 58.9006 234.08 58.8904 233.68 58.9204C233.44 59.3804 233.68 59.5205 233.55 60.0605C233.35 60.1705 233.15 60.6004 232.95 60.2104L232.99 60.7705C232.61 61.1805 232.4 61.1105 232.2 60.5305C229.32 64.9205 231.3 66.7104 231.3 66.7104C232.27 68.0104 232.89 66.4105 234.15 66.0505L234.14 66.0305Z" fill="#20BB65"/>
<path d="M288.182 62.5605L288.242 62.8005C288.242 62.6905 288.242 62.6005 288.182 62.5605Z" fill="#20BB65"/>
<path d="M308.701 64.5706C308.701 64.5706 308.711 64.5405 308.731 64.5205C308.711 64.5405 308.711 64.5506 308.701 64.5706Z" fill="#20BB65"/>
<path d="M290.6 70.6904C290.6 70.6904 290.58 70.7205 290.57 70.7505L290.6 70.6904Z" fill="#20BB65"/>
<path d="M286.561 69.6404C287.611 70.0304 287.801 71.1405 288.951 70.8105C289.471 70.9505 290.061 70.7604 290.591 70.6804C290.921 69.8604 291.271 70.7405 291.631 70.0605L291.701 70.5505C291.821 70.3205 291.961 70.1704 292.031 70.4404L292.011 70.5806C292.191 70.2306 292.341 70.4705 292.441 70.2905L292.421 70.4304L292.611 70.3904L292.561 70.5906C292.861 70.2306 293.131 70.2404 293.351 70.4304L293.391 69.8506C293.841 70.5506 294.141 69.3704 294.521 70.1804L294.501 70.3206C295.231 68.8606 295.311 71.4506 296.061 70.0706C295.971 70.2406 296.061 70.3705 296.041 70.5105C296.331 70.3705 296.641 70.3204 296.751 69.1804C296.951 69.2204 296.881 69.5505 296.861 69.9905C296.911 69.4905 297.101 69.3005 297.271 69.2905L297.181 69.4705L297.651 69.3506V68.4004C297.871 68.6904 297.601 69.5506 297.851 69.3506L297.931 68.5706C298.241 68.7606 298.321 69.9505 298.581 70.5605C299.871 71.0305 301.511 69.1904 302.591 70.6804V71.2705C302.511 72.1205 303.061 70.0406 303.021 70.8406L303.211 70.4705C303.231 70.6305 303.301 70.8005 303.211 70.9805C303.341 71.0305 303.361 70.8904 303.481 70.6404L303.561 71.1804C304.041 71.6504 304.601 70.6704 305.121 70.9304C305.661 72.0804 307.021 71.2104 307.801 70.7104C308.961 69.5404 309.741 73.0504 310.941 71.7004C310.961 71.8204 311.081 71.5604 311.091 71.4604L312.021 71.6804C312.021 71.6804 316.581 72.4705 313.941 65.0605L313.991 64.8804C313.521 64.3804 313.211 64.2404 312.731 65.1404C312.811 63.9904 312.321 64.9806 312.241 64.6006L312.261 64.5105C311.841 65.3605 311.691 63.7105 311.291 64.4705C311.311 64.3805 311.361 64.0705 311.431 64.0605C311.191 64.1805 310.851 64.4005 310.921 63.7405C310.361 63.8605 309.651 63.4805 309.191 64.5005L309.231 64.3206C308.951 65.0206 308.971 64.4005 308.701 64.7405C308.701 64.6505 308.691 64.6106 308.701 64.5706C308.411 65.2606 308.071 64.6204 307.861 64.9004L307.901 64.4604L307.471 64.5205L307.621 64.6304C307.431 65.8404 307.391 63.8306 306.991 64.5906C306.721 64.4106 306.121 67.0604 305.891 66.4304C305.681 66.9904 306.121 65.5204 305.861 65.9304C305.921 65.2904 306.001 65.5405 306.011 65.0305C305.771 65.3105 305.741 64.3505 305.441 64.7505L305.481 64.2505C305.041 65.1205 304.921 63.5306 304.601 64.3706C304.211 64.7406 304.531 62.8805 304.061 63.8105L303.991 63.1304C303.851 63.0104 303.791 63.9406 303.651 63.6006C303.711 63.1806 303.471 63.2406 303.611 62.8506C303.291 62.1506 302.721 63.7105 302.331 62.5405C302.131 63.3505 301.931 62.8304 301.781 63.4404C301.801 63.0804 301.271 63.3306 301.641 62.5806C301.671 62.5206 301.711 62.5404 301.701 62.6704L301.791 62.1904C301.601 61.2404 301.211 62.6405 300.931 62.4705C301.001 62.6405 301.121 62.6104 301.011 62.9404L300.751 62.8506L300.851 62.4504L300.481 62.1704V62.6804C300.311 62.4004 300.341 61.5305 300.041 62.2305C299.901 62.6205 300.151 62.9306 299.931 63.0706C299.711 62.7006 299.371 62.1404 299.051 61.9504C299.021 62.5204 298.941 62.4906 298.831 62.6006L298.871 62.1006C298.451 62.7506 298.851 61.0005 298.441 61.5105L298.511 61.1704L298.311 62.2004C297.891 63.1504 298.241 61.1504 297.761 62.4604C297.911 62.3904 297.711 63.5606 297.571 63.3306L297.661 62.8606C297.561 62.9506 297.501 63.1505 297.451 63.0405C297.531 62.7905 297.551 62.3504 297.401 62.4204L297.551 61.8306L297.201 62.6804C297.051 62.1504 296.661 62.7606 296.651 62.0706C296.651 62.0706 296.251 61.7004 296.071 62.4204C296.201 61.9704 295.981 61.7705 296.101 61.2405C295.941 61.7505 295.561 62.1406 295.481 61.5706L295.511 61.5105C295.071 60.8905 294.591 62.2005 294.211 61.4705C294.171 62.0505 293.971 61.7104 293.961 62.4504C293.431 63.1304 293.261 60.8704 292.881 63.1304C292.661 63.2304 292.681 62.5704 292.591 62.4404L292.651 62.3306C292.241 62.4806 292.131 62.4904 291.841 62.4004C291.671 62.6104 291.551 63.6604 291.321 63.3804C291.441 62.9704 291.321 63.0405 291.231 63.0305C291.301 62.9705 291.331 62.8205 291.231 62.5205C291.201 62.6505 291.161 62.7305 291.131 62.7905C291.131 62.7605 291.131 62.7304 291.131 62.6904C290.951 62.8204 290.971 62.9605 291.041 63.0205C291.041 63.0805 291.031 63.1705 291.041 63.2905C290.921 62.7305 290.571 63.2805 290.611 62.5605C290.111 62.6805 289.691 63.3904 289.261 63.6304C289.251 63.2504 289.371 62.9305 289.501 62.8005L289.201 62.9104C289.251 62.3804 289.391 62.6205 289.491 62.5205C289.231 61.6205 288.701 63.3105 288.371 62.4805L288.251 62.8904L288.231 62.8206C288.211 63.0406 288.091 63.3404 288.031 63.4004C288.011 62.9304 288.131 62.3306 287.931 62.3406C287.811 61.8806 287.461 62.5205 287.231 62.7505C287.331 62.8405 287.281 63.0905 287.211 63.2505C287.111 63.2505 287.091 62.7805 287.001 62.9805L287.051 62.3506C287.041 62.9506 286.731 62.9604 286.671 63.2104C286.651 62.7404 286.861 62.8305 286.921 62.4805C286.521 62.5005 286.721 62.4805 286.311 62.5105C286.061 62.9605 286.301 63.1104 286.151 63.6504C285.951 63.7504 285.731 64.1705 285.551 63.7705L285.571 64.3306C285.181 64.7306 284.971 64.6405 284.791 64.0505C281.781 68.3205 283.711 70.2004 283.711 70.2004C284.631 71.5404 285.301 69.9704 286.561 69.6604V69.6404Z" fill="#20BB65"/>
<path d="M340.699 69.1006L340.739 69.3406C340.759 69.2306 340.749 69.1406 340.699 69.1006Z" fill="#20BB65"/>
<path d="M361.01 73.2405C361.01 73.2405 361.03 73.2104 361.04 73.1904C361.02 73.2004 361.01 73.2205 361.01 73.2405Z" fill="#20BB65"/>
<path d="M342.39 77.3706C342.39 77.3706 342.37 77.4004 342.36 77.4204L342.4 77.3706H342.39Z" fill="#20BB65"/>
<path d="M338.48 76.0205C339.49 76.4805 339.58 77.6006 340.75 77.3606C341.26 77.5406 341.86 77.4006 342.39 77.3606C342.79 76.5706 343.06 77.4706 343.48 76.8306L343.5 77.3206C343.64 77.1006 343.79 76.9605 343.84 77.2405L343.81 77.3804C344.02 77.0504 344.15 77.3004 344.26 77.1304L344.23 77.2705L344.42 77.2405L344.35 77.4304C344.68 77.1004 344.95 77.1306 345.15 77.3406L345.24 76.7705C345.61 77.5005 346.03 76.3604 346.33 77.2004L346.3 77.3406C347.17 75.9506 346.99 78.5405 347.86 77.2305C347.75 77.3905 347.83 77.5304 347.8 77.6704C348.1 77.5604 348.41 77.5404 348.64 76.4204C348.83 76.4804 348.73 76.8005 348.67 77.2405C348.77 76.7505 348.98 76.5806 349.14 76.5806L349.03 76.7505L349.5 76.6704L349.6 75.7305C349.78 76.0405 349.43 76.8704 349.7 76.6904L349.86 75.9204C350.15 76.1404 350.1 77.3405 350.29 77.9705C351.51 78.5705 353.33 76.9205 354.23 78.5305L354.15 79.1206C353.99 79.9606 354.76 77.9505 354.63 78.7405L354.86 78.3904C354.86 78.5504 354.91 78.7304 354.8 78.9004C354.92 78.9604 354.96 78.8306 355.11 78.5906L355.13 79.1404C355.55 79.6604 356.21 78.7606 356.7 79.0806C357.09 80.2906 358.53 79.6004 359.36 79.2104C360.65 78.2004 360.95 81.8004 362.3 80.6304C362.3 80.7604 362.45 80.5104 362.48 80.4204L363.36 80.7705C363.36 80.7705 364.44 81.1405 365.33 80.5505C366.22 79.9505 366.96 78.4005 366.17 74.5105L366.24 74.3406C365.85 73.7606 365.55 73.5804 364.95 74.4004C365.19 73.2704 364.56 74.1805 364.53 73.7805L364.57 73.6904C364.04 74.4704 364.11 72.8105 363.61 73.5005C363.64 73.4105 363.73 73.1106 363.8 73.1106C363.54 73.2006 363.18 73.3704 363.33 72.7104C362.76 72.7504 362.1 72.2605 361.51 73.2205L361.58 73.0505C361.22 73.7005 361.31 73.0904 361 73.4004C361 73.3104 361 73.2605 361.02 73.2305C360.64 73.8705 360.38 73.1904 360.14 73.4404L360.23 73.0005H359.79L359.92 73.1304C359.58 74.3104 359.78 72.3105 359.3 73.0105C359.05 72.7905 358.14 75.3504 357.99 74.7004C357.72 75.2304 358.33 73.8204 358.02 74.2004C358.16 73.5804 358.21 73.8306 358.27 73.3206C358 73.5706 358.08 72.6105 357.73 72.9705L357.83 72.4805C357.29 73.2905 357.35 71.7005 356.94 72.4905C356.51 72.8105 357.04 71.0006 356.47 71.8606V71.1704C356.35 71.0304 356.19 71.9506 356.09 71.5906C356.19 71.1806 355.95 71.2106 356.14 70.8406C355.9 70.1106 355.16 71.5904 354.89 70.3804C354.6 71.1604 354.45 70.6304 354.24 71.2104C354.3 70.8604 353.74 71.0406 354.19 70.3406C354.23 70.2806 354.27 70.3004 354.24 70.4404L354.38 69.9705C354.29 69.0105 353.75 70.3504 353.49 70.1504C353.54 70.3304 353.66 70.3106 353.52 70.6206L353.27 70.5005L353.41 70.1106L353.06 69.7905L353.01 70.3005C352.87 70.0005 352.98 69.1405 352.61 69.8005C352.43 70.1705 352.65 70.5106 352.41 70.6206C352.22 70.2306 351.94 69.6304 351.64 69.4104C351.55 69.9804 351.47 69.9405 351.35 70.0305L351.44 69.5405C350.95 70.1405 351.53 68.4404 351.07 68.9104L351.17 68.5806L350.87 69.5806C350.36 70.4806 350.91 68.5305 350.29 69.7805C350.45 69.7205 350.13 70.8706 350.01 70.6206L350.15 70.1604C350.04 70.2404 349.96 70.4306 349.92 70.3206C350.03 70.0806 350.09 69.6404 349.93 69.6904L350.14 69.1206L349.7 69.9304C349.6 69.3804 349.15 69.9505 349.2 69.2705C349.2 69.2705 348.83 68.8605 348.59 69.5605C348.77 69.1305 348.56 68.9104 348.74 68.3904C348.53 68.8804 348.11 69.2304 348.08 68.6604L348.12 68.6006C347.74 67.9506 347.13 69.2004 346.82 68.4304C346.73 69.0004 346.56 68.6504 346.47 69.3804C345.88 70.0104 345.92 67.7504 345.33 69.9604C345.1 70.0404 345.18 69.3905 345.1 69.2505L345.17 69.1404C344.75 69.2504 344.63 69.2504 344.35 69.1404C344.16 69.3304 343.95 70.3706 343.74 70.0706C343.9 69.6706 343.78 69.7304 343.68 69.7104C343.75 69.6604 343.8 69.5104 343.73 69.2104C343.69 69.3404 343.65 69.4105 343.61 69.4705C343.61 69.4405 343.61 69.4106 343.63 69.3706C343.44 69.4906 343.45 69.6204 343.51 69.6904C343.49 69.7504 343.49 69.8304 343.49 69.9504C343.42 69.3804 343.02 69.9004 343.13 69.1804C342.61 69.2604 342.13 69.9304 341.68 70.1304C341.7 69.7504 341.85 69.4506 342 69.3306L341.69 69.4104C341.79 68.8804 341.91 69.1405 342.02 69.0505C341.83 68.1405 341.16 69.7804 340.9 68.9204L340.74 69.3206V69.2505C340.69 69.4705 340.55 69.7606 340.48 69.8206C340.5 69.3506 340.67 68.7605 340.47 68.7505C340.39 68.2805 339.99 68.8906 339.74 69.1106C339.84 69.2106 339.76 69.4606 339.68 69.6106C339.58 69.6106 339.6 69.1406 339.49 69.3206L339.59 68.7004C339.53 69.2904 339.22 69.2905 339.14 69.5305C339.16 69.0605 339.36 69.1606 339.45 68.8206C339.04 68.8106 339.25 68.8205 338.84 68.8005C338.55 69.2305 338.78 69.3904 338.58 69.9204C338.37 70.0104 338.12 70.4105 337.97 70.0005L337.94 70.5605C337.52 70.9305 337.32 70.8305 337.18 70.2305C333.83 74.2905 335.6 76.2805 335.6 76.2805C336.41 77.6705 337.2 76.1504 338.48 75.9304V76.0205Z" fill="#20BB65"/>
<path d="M391.97 83.6006L391.95 83.8506C391.99 83.7506 392.01 83.6606 391.97 83.6006Z" fill="#20BB65"/>
<path d="M410.291 94.2905C410.291 94.2905 410.321 94.2805 410.341 94.2605C410.321 94.2605 410.301 94.2805 410.291 94.2905Z" fill="#20BB65"/>
<path d="M391.471 92.0305C391.471 92.0305 391.441 92.0606 391.431 92.0706L391.481 92.0305H391.471Z" fill="#20BB65"/>
<path d="M388.131 89.7805C388.981 90.4605 388.771 91.5706 389.931 91.6206C390.361 91.9106 390.951 91.9305 391.461 92.0305C392.051 91.3705 392.061 92.3105 392.631 91.7905L392.511 92.2705C392.701 92.1005 392.881 92.0005 392.851 92.2705L392.781 92.3904C393.071 92.1304 393.121 92.3905 393.271 92.2705L393.201 92.3904L393.391 92.4104L393.271 92.5706C393.671 92.3406 393.921 92.4404 394.041 92.7004L394.291 92.1804C394.431 92.9804 395.151 92.0104 395.181 92.8904L395.111 93.0105C396.331 91.9305 395.401 94.3406 396.601 93.3506C396.451 93.4706 396.481 93.6305 396.411 93.7505C396.721 93.7405 397.011 93.8005 397.581 92.8105C397.741 92.9205 397.541 93.2006 397.351 93.5906C397.601 93.1506 397.851 93.0606 398.001 93.1106L397.841 93.2405L398.311 93.3105L398.711 92.4504C398.781 92.8004 398.191 93.4704 398.501 93.3904L398.891 92.7104C399.091 93.0104 398.661 94.1305 398.631 94.7805C399.541 95.7005 401.791 94.7606 402.031 96.5806L401.751 97.1006C401.291 97.8306 402.731 96.2204 402.321 96.9104L402.651 96.6604C402.601 96.8104 402.571 96.9906 402.411 97.1106C402.501 97.2106 402.581 97.0904 402.801 96.9304L402.611 97.4504C402.781 98.0804 403.721 97.4804 404.031 97.9504C403.911 99.2004 405.441 99.0805 406.341 99.0605C407.921 98.6605 406.621 102.01 408.291 101.51C408.231 101.62 408.471 101.47 408.541 101.4L409.131 102.091C409.131 102.091 409.321 102.28 409.641 102.46C409.951 102.64 410.391 102.81 410.921 102.76C411.951 102.63 413.421 101.691 414.531 97.8406L414.671 97.7205C414.581 97.0005 414.381 96.7004 413.471 97.1404C414.191 96.2404 413.211 96.7504 413.361 96.3904L413.431 96.3306C412.601 96.7706 413.391 95.3104 412.621 95.7104C412.691 95.6504 412.901 95.4104 412.971 95.4504C412.691 95.4104 412.281 95.4006 412.701 94.8706C412.151 94.6406 411.731 93.8905 410.781 94.5105L410.911 94.3804C410.301 94.8204 410.631 94.3004 410.231 94.4504C410.271 94.3704 410.291 94.3305 410.311 94.3005C409.701 94.7305 409.731 93.9806 409.401 94.1206L409.661 93.7605L409.241 93.5806L409.321 93.7505C408.541 94.6905 409.511 92.9404 408.781 93.3804C408.631 93.0704 406.791 95.0704 406.901 94.4104C406.451 94.7904 407.551 93.7304 407.111 93.9604C407.481 93.4404 407.431 93.6905 407.681 93.2505C407.331 93.3705 407.771 92.5204 407.301 92.7104L407.581 92.3005C406.771 92.8405 407.411 91.3804 406.731 91.9604C406.201 92.0904 407.371 90.6004 406.501 91.1904L406.751 90.5505C406.681 90.3705 406.191 91.1705 406.231 90.8005C406.481 90.4505 406.231 90.3906 406.541 90.1206C406.561 89.3406 405.341 90.4505 405.491 89.2205C404.951 89.8505 404.981 89.3005 404.581 89.7705C404.761 89.4605 404.151 89.4304 404.831 88.9404C404.891 88.9004 404.921 88.9405 404.841 89.0505L405.131 88.6604C405.361 87.7104 404.381 88.7905 404.211 88.5105C404.211 88.7005 404.321 88.7205 404.081 88.9705L403.881 88.7605L404.151 88.4404L403.921 88.0105L403.701 88.4705C403.661 88.1405 404.051 87.3606 403.471 87.8606C403.171 88.1506 403.281 88.5506 403.011 88.5706C402.961 88.1306 402.871 87.4704 402.651 87.1604C402.391 87.6704 402.321 87.6104 402.181 87.6604L402.421 87.2205C401.751 87.6305 402.851 86.2005 402.261 86.4905L402.461 86.2104L401.851 87.0605C401.071 87.7505 402.211 86.0705 401.221 87.0605C401.391 87.0605 400.741 88.0505 400.691 87.7705L400.971 87.3706C400.831 87.4106 400.711 87.5704 400.701 87.4504C400.881 87.2504 401.071 86.8606 400.901 86.8606L401.281 86.3804L400.611 87.0205C400.681 86.4705 400.071 86.8705 400.321 86.2305C400.321 86.2305 400.081 85.7206 399.631 86.3206C399.931 85.9606 399.791 85.6805 400.111 85.2405C399.761 85.6405 399.251 85.8505 399.381 85.3005L399.431 85.2605C399.241 84.5105 398.291 85.5204 398.191 84.7004C397.941 85.2204 397.871 84.8305 397.581 85.5205C396.831 85.9505 397.481 83.7905 396.301 85.7405C396.051 85.7505 396.311 85.1505 396.271 84.9905L396.371 84.9104C395.931 84.8904 395.811 84.8604 395.561 84.6804C395.331 84.8104 394.841 85.7604 394.711 85.4104C394.971 85.0704 394.841 85.0905 394.751 85.0505C394.841 85.0205 394.921 84.8906 394.931 84.5806C394.861 84.6906 394.801 84.7505 394.741 84.8005C394.751 84.7705 394.761 84.7404 394.781 84.7004C394.561 84.7604 394.531 84.8905 394.581 84.9805C394.551 85.0405 394.521 85.1105 394.491 85.2305C394.571 84.6605 394.041 85.0504 394.331 84.3904C393.811 84.3204 393.161 84.8504 392.671 84.9304C392.781 84.5704 393.011 84.3105 393.181 84.2305H392.851C393.081 83.7405 393.131 84.0204 393.261 83.9604C393.301 83.0204 392.241 84.4405 392.191 83.5405L391.941 83.8904V83.8206C391.861 84.0206 391.651 84.2605 391.561 84.3005C391.701 83.8505 392.011 83.3205 391.811 83.2605C391.851 82.7805 391.301 83.2804 391.001 83.4304C391.071 83.5504 390.931 83.7704 390.821 83.9004C390.721 83.8704 390.861 83.4206 390.701 83.5806L390.951 83.0005C390.751 83.5605 390.451 83.4804 390.311 83.7004C390.441 83.2504 390.621 83.4006 390.781 83.0806C390.381 82.9706 390.581 83.0204 390.181 82.9104C389.791 83.2604 389.981 83.4704 389.661 83.9404C389.441 83.9804 389.091 84.3006 389.041 83.8706L388.881 84.4104C388.381 84.6704 388.211 84.5304 388.211 83.9204C386.111 85.5104 385.411 86.9004 385.201 87.8904C385.001 88.8704 385.301 89.4504 385.301 89.4504C385.741 90.9704 386.841 89.6705 388.111 89.7605L388.131 89.7805Z" fill="#20BB65"/>
<path d="M427.98 120.021L427.771 120.121C427.871 120.091 427.96 120.061 427.98 120.021Z" fill="#20BB65"/>
<path d="M420.901 121.42C420.751 121.94 419.721 122.32 420.261 122.66C420.221 122.9 420.52 123.07 420.7 123.26C421.55 123.18 420.771 123.541 421.491 123.521L421.031 123.67C421.281 123.67 421.45 123.671 421.2 123.771L421.061 123.801C421.431 123.801 421.231 123.9 421.421 123.9L421.281 123.92L421.361 123.98L421.161 124.01C421.561 124.05 421.6 124.161 421.45 124.291L422.021 124.17C421.421 124.5 422.621 124.37 421.901 124.7L421.761 124.72C423.311 124.72 420.801 125.281 422.271 125.301C422.091 125.301 421.98 125.36 421.84 125.38C422.02 125.47 422.131 125.59 423.261 125.42C423.261 125.51 422.921 125.541 422.481 125.621C422.971 125.551 423.191 125.59 423.231 125.66H423.031L423.231 125.831L424.161 125.66C423.911 125.81 423.021 125.85 423.271 125.92L424.041 125.811C423.911 125.981 422.75 126.22 422.19 126.43C421.93 127.03 423.981 127.46 422.661 128.13L422.08 128.2C421.23 128.28 423.36 128.241 422.57 128.331L422.971 128.361C422.821 128.391 422.66 128.44 422.46 128.42C422.43 128.48 422.57 128.47 422.83 128.49L422.301 128.591C421.911 128.841 422.941 128.97 422.751 129.23C421.681 129.58 422.701 130.061 423.301 130.371C424.591 130.801 421.191 131.371 422.651 131.811C422.531 131.821 422.801 131.861 422.901 131.861L422.781 132.281C422.781 132.281 422.691 132.781 423.491 133.121C424.291 133.451 425.981 133.7 429.551 132.91L429.741 132.93C430.201 132.68 430.311 132.511 429.361 132.311C430.511 132.291 429.481 132.091 429.851 132.041H429.94C429.05 131.881 430.681 131.711 429.891 131.561C429.981 131.561 430.3 131.561 430.32 131.601C430.18 131.491 429.92 131.331 430.59 131.321C430.41 131.051 430.711 130.66 429.641 130.51H429.83C429.11 130.44 429.721 130.391 429.351 130.291C429.441 130.291 429.481 130.271 429.521 130.271C428.801 130.181 429.4 129.96 429.09 129.89L429.531 129.871L429.421 129.66L429.33 129.74C428.11 129.76 430.091 129.55 429.291 129.43C429.441 129.27 426.73 129.271 427.32 129.091C426.74 129.051 428.251 129.091 427.811 129.021C428.451 128.981 428.211 129.05 428.721 128.99C428.411 128.9 429.361 128.78 428.921 128.68L429.421 128.64C428.501 128.53 430.051 128.28 429.181 128.22C428.761 128.08 430.641 127.99 429.661 127.88L430.33 127.76C430.43 127.67 429.5 127.76 429.82 127.66C430.24 127.63 430.151 127.521 430.551 127.541C431.201 127.281 429.581 127.221 430.671 126.851C429.841 126.871 430.32 126.69 429.7 126.71C430.06 126.67 429.731 126.44 430.521 126.51C430.581 126.51 430.58 126.541 430.44 126.551L430.931 126.521C431.831 126.271 430.401 126.3 430.521 126.13C430.361 126.19 430.41 126.25 430.08 126.24L430.131 126.101L430.541 126.081L430.751 125.851L430.251 125.94C430.501 125.81 431.351 125.67 430.621 125.64C430.211 125.64 429.951 125.82 429.781 125.73C430.111 125.56 430.611 125.291 430.731 125.091C430.161 125.181 430.181 125.131 430.061 125.101L430.551 125.031C429.841 124.941 431.631 124.81 431.051 124.71L431.401 124.68L430.361 124.781C429.361 124.761 431.371 124.541 430.011 124.561C430.101 124.621 428.931 124.75 429.131 124.63L429.611 124.581C429.501 124.551 429.301 124.56 429.401 124.51C429.661 124.51 430.091 124.421 430.001 124.361L430.601 124.321H429.71C430.2 124.131 429.54 124.07 430.2 123.92C430.2 123.92 430.491 123.64 429.751 123.71C430.211 123.68 430.371 123.53 430.911 123.47C430.391 123.5 429.941 123.4 430.471 123.23H430.531C431.051 122.87 429.68 122.931 430.32 122.581C429.75 122.701 430.04 122.52 429.32 122.69C428.56 122.6 430.71 121.971 428.46 122.341C428.32 122.261 428.961 122.111 429.061 122.031H429.181C428.961 121.871 428.92 121.82 428.94 121.66C428.71 121.63 427.671 121.85 427.891 121.66C428.311 121.61 428.22 121.581 428.21 121.531C428.28 121.551 428.44 121.53 428.7 121.4C428.57 121.42 428.491 121.42 428.421 121.42C428.451 121.42 428.481 121.41 428.521 121.4C428.361 121.35 428.231 121.4 428.181 121.44C428.121 121.45 428.041 121.47 427.931 121.51C428.441 121.31 427.841 121.291 428.541 121.121C428.321 120.911 427.551 120.911 427.231 120.781C427.591 120.671 427.92 120.64 428.07 120.66L427.901 120.551C428.421 120.421 428.22 120.551 428.33 120.581C429.13 120.201 427.401 120.441 428.121 120.051L427.7 120.111L427.771 120.081C427.551 120.141 427.251 120.17 427.171 120.16C427.611 120.01 428.211 119.891 428.161 119.801C428.571 119.611 427.891 119.631 427.611 119.601C427.551 119.671 427.291 119.72 427.131 119.74C427.101 119.7 427.54 119.551 427.34 119.561L427.95 119.39C427.38 119.57 427.301 119.43 427.041 119.48C427.481 119.33 427.451 119.451 427.791 119.371C427.681 119.191 427.731 119.281 427.621 119.101C427.131 119.131 427.051 119.28 426.511 119.38C426.371 119.32 425.921 119.36 426.261 119.15L425.731 119.341C425.271 119.301 425.301 119.18 425.811 118.91C423.441 118.96 421.951 119.401 421.031 119.771C420.111 120.151 419.781 120.48 419.781 120.48C418.721 121.25 420.341 120.98 420.901 121.38V121.42Z" fill="#20BB65"/>
<path d="M402.221 136.65C402.481 136.83 402.751 136.41 402.671 136.48C402.591 136.31 402.301 136.63 402.221 136.65Z" fill="#00B14F"/>
<path d="M406.561 142.37C406.501 142.67 406.361 142.15 406.561 142.37Z" fill="#00B14F"/>
<path d="M408.74 145.48C408.87 145.41 408.98 145.13 409.11 144.98L408.791 144.86C408.791 145.04 408.9 145.32 408.73 145.48H408.74Z" fill="#00B14F"/>
<path d="M409.12 144.98L409.59 145.16C409.38 144.84 409.23 144.86 409.12 144.98Z" fill="#00B14F"/>
<path d="M409.75 146.79L409.32 146.81L410.01 146.83L409.75 146.79Z" fill="#00B14F"/>
<path d="M410.47 147.61C410.13 147.65 410.24 148.11 409.98 148.07C410.2 148.27 410.56 148.32 410.88 148.36C410.63 148.25 410.5 148.02 410.48 147.61H410.47Z" fill="#00B14F"/>
<path d="M411.37 148.45C411.24 148.4 411.06 148.38 410.88 148.35C411.01 148.41 411.17 148.45 411.37 148.45Z" fill="#00B14F"/>
<path d="M409.85 146.32L410.08 145.92C410.08 145.92 410.01 145.83 409.98 145.78C409.93 145.86 409.78 146.06 409.85 146.31V146.32Z" fill="#00B14F"/>
<path d="M410.09 145.91C410.19 146.08 410.27 146.18 410.3 146.23C410.27 146.19 410.21 146.1 410.1 145.91H410.09Z" fill="#00B14F"/>
<path d="M409.96 145.75L409.99 145.78C409.99 145.78 410.02 145.72 409.96 145.75Z" fill="#00B14F"/>
<path d="M409.71 145.05L410.25 145.25L410.04 144.83C409.96 144.91 409.88 145.07 409.71 145.05Z" fill="#00B14F"/>
<path d="M410.49 145.35L410.25 145.25L410.32 145.41L410.49 145.35Z" fill="#00B14F"/>
<path d="M411.2 147.59C411.47 147.63 411.61 147.79 411.79 147.96C411.69 147.7 411.56 147.46 411.4 147.26C411.27 147.31 411.01 147.37 411.2 147.59Z" fill="#00B14F"/>
<path d="M410.69 146.75L410.74 146.77C410.74 146.77 410.74 146.7 410.69 146.75Z" fill="#00B14F"/>
<path d="M413.27 149.85C413.27 149.85 413.3 149.8 413.31 149.77L413.25 149.81L413.28 149.85H413.27Z" fill="#00B14F"/>
<path d="M411.431 147.18C411.371 146.97 411.221 146.95 411.051 146.94C411.171 147.03 411.291 147.13 411.401 147.26C411.461 147.24 411.491 147.21 411.441 147.18H411.431Z" fill="#00B14F"/>
<path d="M411.94 148.85C411.94 148.71 411.941 148.58 411.911 148.44C411.871 148.6 411.83 148.89 411.94 148.85Z" fill="#00B14F"/>
<path d="M410.68 146.89H410.65C410.62 146.99 410.65 146.95 410.68 146.89Z" fill="#00B14F"/>
<path d="M410.681 146.89C410.791 146.93 410.921 146.93 411.051 146.93C410.951 146.86 410.841 146.8 410.731 146.76C410.731 146.8 410.701 146.85 410.681 146.88V146.89Z" fill="#00B14F"/>
<path d="M412.811 149.07L412.661 148.95C412.741 149.16 412.711 149.38 412.641 149.79C412.981 149.91 413.141 149.87 413.261 149.81L412.741 149.06H412.831L412.811 149.07Z" fill="#00B14F"/>
<path d="M413.15 150.05L412.74 150.26L413.5 150.19L413.15 150.05Z" fill="#00B14F"/>
<path d="M413.46 150.99L413.8 151.04L413.79 150.77L413.46 150.99Z" fill="#00B14F"/>
<path d="M431.83 163.94C432.37 163.86 433.19 163.76 432.83 163.5L432.43 163.31C432.25 163.65 432.04 163.84 431.84 163.94H431.83Z" fill="#00B14F"/>
<path d="M419.971 158.36C420.001 158.68 420.081 158.89 420.181 159.05C420.181 158.64 420.301 158.2 419.971 158.36Z" fill="#00B14F"/>
<path d="M452.16 138.4C452.18 138.25 452.11 138.19 451.98 138.21C451.95 138.36 451.99 138.45 452.16 138.4Z" fill="#00B14F"/>
<path d="M420.181 159.06C420.181 159.36 420.271 159.65 420.671 159.68C420.671 159.62 420.671 159.57 420.671 159.5C420.491 159.39 420.321 159.27 420.191 159.06H420.181Z" fill="#00B14F"/>
<path d="M407.13 132.98C407.22 132.95 407.36 132.95 407.5 132.95C407.43 132.92 407.32 132.92 407.13 132.98Z" fill="#00B14F"/>
<path d="M416.021 153.91C415.961 153.91 415.871 153.77 416.021 153.91Z" fill="#00B14F"/>
<path d="M415.98 153.55C415.98 153.64 416.001 153.74 416.041 153.83C416.041 153.78 416.02 153.69 415.98 153.55Z" fill="#00B14F"/>
<path d="M415.85 153.71C415.82 153.64 415.8 153.59 415.77 153.54C415.7 153.56 415.68 153.61 415.85 153.71Z" fill="#00B14F"/>
<path d="M416.21 154.12C416.13 154.03 416.08 153.94 416.04 153.83C416.04 153.88 416.04 153.91 416.01 153.91C416.05 153.95 416.11 154.01 416.2 154.12H416.21Z" fill="#00B14F"/>
<path d="M454.39 133.39L454.73 133.24C453.75 133.13 452.71 133.49 451.8 133.85C451.72 133.75 452.11 133.6 452.25 133.53C451.13 133.21 450.65 133.28 448.66 134.02L449 133.53C448.69 133.67 448.31 133.48 447.66 133.31C447.03 133.15 446.08 133.02 445.19 133.31C445.22 133.25 445.28 133.16 445.43 133.09C444.92 133.23 444.44 133.22 443.92 133.14C443.56 133.06 443.23 132.93 442.91 132.83C442.27 132.63 441.73 132.59 441.5 133.49L440.69 133.93C441.74 134.08 440.53 134.71 440.96 135.01C440.55 135.11 439.9 134.46 440.4 134.37L440.48 134.46C440.67 133.52 439.18 134.12 439.21 133.48C437.14 133.51 435.13 132.98 433.2 132.92L433.42 133.65L432.75 133.6C432.57 133.43 432.52 133.03 433 133.06C432.75 132.64 432.19 133.4 432.18 133.56C431.24 133.26 432.55 132.71 432.27 132.69L431.88 132.74L431.97 132.83C431.65 133.13 431.62 133.44 431.04 133.4C430.67 133.25 430.86 132.95 430.71 132.92C430.71 132.87 430.66 132.84 430.49 132.9L429.64 132.83L429.95 133.36C429.67 133.49 428.84 133.4 428.04 133.44C427.23 133.4 426.4 133.49 426.12 133.36L426.43 132.83L425.58 132.9C425.41 132.85 425.36 132.87 425.36 132.92C425.22 132.95 425.4 133.25 425.03 133.4C424.45 133.44 424.42 133.12 424.1 132.83L424.19 132.74L423.8 132.69C423.51 132.71 424.83 133.26 423.89 133.56C423.88 133.4 423.32 132.64 423.06 133.06C423.4 133.04 423.47 133.23 423.41 133.41C423.2 133.35 422.97 133.28 422.79 133.11L422.85 132.92C422.79 132.92 422.73 132.93 422.67 132.93C422.64 132.89 422.61 132.86 422.59 132.82C422.62 132.86 422.63 132.9 422.64 132.94C421.81 132.98 420.97 133.09 420.12 133.2C419.29 133.12 418.38 132.76 417.45 132.87C417.43 133.02 417.57 133.23 417.45 133.45C417.39 133.45 417.32 133.45 417.26 133.45L416.64 132.69C416.37 132.77 416.38 133.7 415.9 133.09C415.97 133.24 416.07 133.46 415.89 133.52C415.42 133.37 414.94 133.29 414.46 133.25C414.2 132.59 413.7 132.64 413.13 132.81C412.81 132.91 412.48 133.04 412.12 133.12C411.6 133.2 411.12 133.21 410.61 133.07C410.76 133.14 410.82 133.23 410.85 133.29C410.3 133.11 409.73 133.1 409.22 133.16C408.72 133.04 408.21 132.85 407.72 132.55C408.09 132.89 407.84 132.93 407.56 132.94C407.72 133.01 407.6 133.3 407.59 133.53C407.55 133.54 407.51 133.54 407.47 133.55L406.45 132.95C406.28 133.48 405.61 133.19 405.28 133.38C404.77 133.31 404.37 133.38 403.81 133.53C403.95 133.61 404.34 133.75 404.26 133.85C403.35 133.49 402.31 133.13 401.33 133.24L401.67 133.39L400.28 133.34L400.54 133.7C402.1 134.41 402.02 134.69 402.12 135.15C402.2 135.59 402.48 136.26 403.98 136.79C403.43 136.82 404.01 137.77 404.09 138.2C404.18 138.21 404.3 138.25 404.46 138.33C404.1 138.54 404.54 138.98 405.04 139.36C405.56 139.75 406.14 140.08 406.31 140.36C406.39 140.78 406.01 140.71 405.58 140.6C406.25 140.92 406.48 141.48 406.69 142.11C406.72 142.2 406.75 142.29 406.78 142.38C406.74 142.35 406.69 142.32 406.64 142.27C406.64 142.32 406.63 142.33 406.62 142.36C406.66 142.41 406.71 142.47 406.78 142.59C406.8 142.57 406.81 142.55 406.83 142.54C406.88 142.7 406.93 142.85 406.98 142.98C407.02 143.08 407.06 143.17 407.09 143.24C407.1 143.26 407.12 143.26 407.14 143.27C407.14 143.43 407.23 143.63 407.09 143.61C407.43 143.83 407.51 143.68 407.58 143.36C407.67 143.3 407.77 143.21 407.86 143.13L408.02 143.2C408.07 143.1 408.18 142.99 407.95 143.06C408 143.02 408.05 142.99 408.11 142.97C408.17 143.08 408.17 143.18 408.14 143.26L408.01 143.2C407.98 143.26 408 143.3 408.12 143.3C407.95 143.68 407.17 143.82 408.03 144.11C408.01 143.98 407.92 143.79 408.04 143.79C408.31 143.96 409.52 143.6 409.95 143.73C409.77 143.84 409.69 144.05 409.28 143.98C409.45 144 409.66 144.08 409.82 144.07C410 144.32 410.41 144.4 410.73 144.5C410.71 144.63 410.69 144.74 410.66 144.81C410.73 144.72 410.78 144.62 410.84 144.53C411.12 144.62 411.27 144.74 410.96 145.05L410.55 145.3C411.77 145.79 410.71 145.8 411.88 146.35L411.93 146.29C412.18 146.74 412.82 146.58 412.37 147.26L412.18 147.19C412.34 147.43 412.44 147.55 412.54 147.67C412.48 147.67 412.42 147.67 412.36 147.64C412.99 148.27 412.01 147.59 412.22 148.24C412.06 148.15 411.94 148.04 411.84 147.94C411.9 148.1 411.94 148.26 411.97 148.42V148.39C411.99 148.32 412.01 148.29 412.01 148.35C412.01 148.35 412.02 148.35 412.03 148.35C412.08 148.32 412.13 148.3 412.18 148.28C412.27 148.54 412.12 148.38 412.03 148.35C412.01 148.36 411.99 148.37 411.97 148.38L412.7 148.93C412.63 148.75 412.48 148.57 412.18 148.27C412.48 148.17 412.77 148.24 412.98 148.14C413 148.16 413.01 148.18 413.04 148.2C413.03 148.3 413.14 148.62 413.32 148.59C413.08 148.8 413.26 149.13 413.51 149.44C413.45 149.55 413.39 149.65 413.35 149.75C413.44 149.69 413.54 149.63 413.71 149.65C413.93 149.87 414.15 150.05 414.23 150.13C413.98 149.68 414.35 149.69 414.64 149.64C414.42 150.2 414.51 150.4 415.06 150.48C414.86 150.67 414.65 150.87 414.49 151.07C414.44 151.01 414.41 150.95 414.38 150.88C414.15 151.3 414.33 151.14 414.32 151.32C414.14 151.63 414.1 151.95 414.35 152.29C414.36 152.12 414.29 151.92 414.47 151.88C414.65 151.84 414.63 152.1 414.62 152.19C414.76 152.16 414.76 151.98 414.88 151.85C414.91 151.89 414.94 151.93 414.97 151.97C414.93 152.37 415.14 152.53 415.39 152.73C415.45 152.91 415.5 153.1 415.4 153.48C415.55 153.34 415.59 153.09 415.8 153.52C415.86 153.5 415.95 153.49 416 153.49C416 153.51 416 153.51 416 153.52V153.48C416 153.48 416.05 153.48 416 153.47C416 153.33 416.03 153.19 416.09 153.09C416.15 153.08 416.22 153.08 416.28 153.09C416.04 153.53 417.6 153.35 416.59 153.81C416.88 153.96 417.14 154.17 417.4 154.4C417.31 154.7 417.28 154.97 416.85 154.73L417.2 155.21C417.22 155.64 417.44 156.08 417.77 156.2C417.87 156.48 418.6 156.45 418.17 156.48L418.97 157.04L418.89 157.12C419.42 157.88 420.65 158.15 420.67 159.49C420.95 159.66 421.26 159.83 421.48 160.32L421.24 160.64C421.59 160.87 421.68 161.82 422.1 161.71C421.83 162.22 422.05 162.59 422.46 163.02C423.1 163.75 423.82 164.41 424.16 164.99L424.47 164.56C424.96 165.23 425.53 165.72 426.19 166.23L426.24 165.91C426.35 166.12 426.46 166.35 426.58 166.59C426.99 167.42 427.51 168.36 427.98 168.4C427.98 168.4 427.98 168.4 427.98 168.41C427.99 168.41 428 168.41 428.01 168.41C428.02 168.41 428.03 168.41 428.04 168.41C428.04 168.41 428.04 168.41 428.04 168.4C428.51 168.35 429.03 167.41 429.44 166.59C429.89 165.7 430.22 164.93 430.8 164.78C430.94 164.34 431.12 164.22 431.33 164.13C431.31 164.16 431.3 164.19 431.29 164.22C431.32 164.2 431.35 164.16 431.38 164.11C431.52 164.06 431.67 164.01 431.83 163.93C431.67 163.96 431.53 163.99 431.43 164.04C431.59 163.82 431.82 163.45 431.99 163.06L432.42 163.29C432.42 163.29 432.45 163.24 432.47 163.21C432.86 163.01 432.51 162.8 432.12 162.7C432.19 162.49 432.22 162.3 432.22 162.12C433.01 162.38 432.45 161.42 433.28 161.71C433.07 161.32 433.84 160.53 433.27 159.89C433.36 159.95 433.45 159.93 433.37 160.04C433.62 159.88 433.88 159.72 433.85 159.38L434.4 159.67L434.15 158.67C434.68 158.61 434.94 158.63 435.07 159.21C435.07 158.06 435.32 158.47 435.24 157.43L435.52 157.71C435.68 157.49 435.54 156.82 435.9 156.89C436.87 156.89 437.88 154.61 439.41 153.83C438.31 153.33 440.27 153.59 439.61 152.98C439.88 153.08 440.14 153.01 440.17 153.36C440.46 152.57 441.27 152.7 441.02 151.79C441.29 151.89 441.23 152.18 441.41 152.22C441.41 152.13 441.38 151.87 441.56 151.91C441.74 151.95 441.67 152.15 441.68 152.32C442.16 151.66 441.55 151.06 440.97 150.51C441.52 150.43 441.61 150.23 441.39 149.67C441.68 149.72 442.05 149.71 441.8 150.16C442.01 149.96 443.19 149.04 442.72 148.62C442.9 148.65 443.01 148.34 443 148.23C443.43 147.76 443.51 147.75 443.86 147.22L443.67 147.29C443.23 146.61 443.87 146.77 444.11 146.32L444.16 146.38C445.32 145.83 444.27 145.82 445.49 145.33L445.08 145.08C444.35 144.35 446.19 144.67 446.31 143.91H445.95C445.9 143.42 447.68 144.02 448.01 143.81C448.13 143.81 448.04 144 448.02 144.13C449.1 143.77 447.61 143.64 447.94 142.99C448.29 143.1 448.5 143.66 448.85 143.33C448.9 143.33 448.93 143.3 448.96 143.25C448.99 143.18 449.03 143.09 449.07 142.99C449.17 142.74 449.26 142.42 449.37 142.12C449.58 141.49 449.81 140.93 450.48 140.61C450.05 140.73 449.66 140.79 449.75 140.37C449.92 140.08 450.5 139.76 451.02 139.37C451.53 138.99 451.96 138.56 451.6 138.34C451.76 138.26 451.88 138.22 451.97 138.21C452.04 137.78 452.63 136.84 452.08 136.8C453.58 136.26 453.86 135.6 453.94 135.16C454.03 134.7 453.96 134.42 455.52 133.71L455.78 133.35L454.39 133.4V133.39ZM415.57 149.88C415.58 149.82 415.59 149.74 415.6 149.67C415.48 149.94 415.36 150.14 415.21 150.13L415 149.4C415.19 149.41 415.41 149.45 415.62 149.42C415.62 149.5 415.61 149.59 415.6 149.67C415.64 149.59 415.68 149.5 415.71 149.41C415.77 149.4 415.83 149.37 415.89 149.34L416.09 149.59C415.96 149.79 415.8 149.92 415.57 149.87V149.88ZM418.15 152.21C418.15 152.21 418.13 152.22 418.12 152.23C418.11 152.2 418.09 152.16 418.08 152.13L418.15 152.22V152.21ZM426.52 162.85L426.61 162.97C426.58 163.07 426.54 163.17 426.51 163.27C426.51 163.13 426.51 162.99 426.51 162.86L426.52 162.85ZM429.39 162.98L429.48 162.87C429.48 162.99 429.48 163.11 429.48 163.23C429.45 163.15 429.42 163.06 429.4 162.97L429.39 162.98ZM410.04 143.91C410.04 143.91 410.04 143.9 410.04 143.89C410.04 143.89 410.04 143.89 410.04 143.91ZM417.7 155.41C417.7 155.41 417.72 155.41 417.73 155.41C417.79 155.79 417.77 155.65 417.7 155.41ZM428.1 168.23C428.1 168.23 428.12 168.18 428.13 168.15L428.09 168.25C428.09 168.25 428.04 168.31 428.01 168.33C427.98 168.31 427.95 168.28 427.93 168.25L427.89 168.15C427.89 168.15 427.91 168.2 427.92 168.23C427.84 168.14 427.76 168.02 427.74 167.85C427.76 167.88 427.79 167.91 427.81 167.94C427.87 168.03 427.92 168.13 427.98 168.21C427.99 168.2 428 168.18 428.01 168.17C428.02 168.18 428.03 168.2 428.04 168.21C428.1 168.12 428.15 168.03 428.21 167.94C428.23 167.91 428.26 167.89 428.28 167.85C428.26 168.02 428.18 168.14 428.1 168.23ZM430.61 133.1L430.74 133.23C430.44 133.37 430.52 133.24 430.61 133.1ZM433.43 158L433.75 157.61L434.13 158.56C433.98 158.39 433.72 158.2 433.43 158.01V158ZM440.8 150.13C440.66 150.14 440.54 149.94 440.41 149.67C440.41 149.75 440.42 149.82 440.44 149.88C440.3 149.91 440.18 149.86 440.08 149.78L440.33 149.48C440.36 149.54 440.39 149.61 440.41 149.67C440.41 149.59 440.4 149.49 440.39 149.4L440.5 149.26C440.73 149.28 440.93 149.29 441.04 149.28L440.79 150.13H440.8Z" fill="#00B14F"/>
<path d="M414.551 152.4L414.921 152.67C414.771 152.52 414.811 152.39 414.801 152.26C414.721 152.34 414.641 152.5 414.551 152.4Z" fill="#00B14F"/>
<path d="M416.69 154.23C416.69 154.05 416.23 154.48 416.3 154.31C415.79 154.5 417.39 154.69 416.69 154.23Z" fill="#00B14F"/>
<path d="M405.641 132.42L405.23 132.2L405.49 132.55L405.641 132.42Z" fill="#00B14F"/>
<path d="M404.85 133.17L404.76 132.52L404.51 133.11C404.6 133.08 404.78 133.03 404.85 133.17Z" fill="#00B14F"/>
<path d="M403.84 138.4C404.01 138.44 404.05 138.36 404.02 138.21C403.88 138.19 403.81 138.25 403.84 138.4Z" fill="#00B14F"/>
</svg>
