<svg width="501" height="118" viewBox="0 0 501 118" fill="none" xmlns="http://www.w3.org/2000/svg">
<path d="M8.4599 2.85986L8.22986 2.89966C8.33986 2.89966 8.4299 2.88986 8.4599 2.85986Z" fill="#20BB65"/>
<path d="M0.649902 4.52954C0.649902 4.52954 0.609905 4.52953 0.589905 4.51953H0.649902V4.52954Z" fill="#20BB65"/>
<path d="M1.24985 2.37964C0.959848 2.92964 -0.110135 3.09969 0.329865 3.67969C0.249865 3.95969 0.509872 4.25979 0.649872 4.52979C1.49987 4.62979 0.669862 4.88977 1.38986 5.00977L0.909821 5.08985C1.14982 5.12985 1.31985 5.18976 1.06985 5.24976H0.92984C1.29984 5.30976 1.07987 5.4097 1.26987 5.4397H1.12985L1.19986 5.5398H0.999848C1.38985 5.6498 1.41986 5.78968 1.25986 5.91968L1.83987 5.86988C1.20987 6.17988 2.41983 6.18974 1.66983 6.47974H1.52988C3.07988 6.66974 0.519848 7.04975 1.99985 7.23975C1.81985 7.21975 1.69985 7.2798 1.55985 7.2898C1.73985 7.4198 1.83982 7.55972 2.96982 7.45972C2.96982 7.55972 2.61985 7.57964 2.18985 7.62964C2.68985 7.57964 2.89985 7.64974 2.93985 7.72974L2.73984 7.70972L2.92984 7.91968L3.85983 7.77979C3.59983 7.92979 2.71987 7.92978 2.95987 8.01978L3.73984 7.9397C3.59984 8.1197 2.43986 8.34984 1.88986 8.57984C1.63986 9.31984 3.70986 9.76986 2.44986 10.5999L1.86984 10.7197C1.02984 10.8697 3.14984 10.6898 2.36984 10.8398H2.76987C2.61987 10.8998 2.46987 10.9697 2.26987 10.9597C2.24987 11.0297 2.38987 11.0098 2.64987 11.0198L2.13986 11.1797C1.77986 11.5197 2.82984 11.5697 2.67984 11.8897C1.67984 12.4297 2.77985 12.8996 3.43985 13.1296C4.78985 13.3396 1.61984 14.7297 3.17984 14.9097C3.06984 14.9597 3.33985 14.9297 3.43985 14.9097V15.4197C3.43985 15.4197 3.52982 16.0297 4.40982 16.1497C5.28982 16.2897 6.92984 15.8599 10.1198 14.1199L10.2998 14.0798C10.6698 13.7398 10.7298 13.5797 9.78983 13.6697C10.8998 13.3497 9.85986 13.4598 10.1999 13.3098L10.2898 13.2898C9.39983 13.3798 10.9299 12.8297 10.1299 12.8997C10.2199 12.8797 10.5298 12.8098 10.5498 12.8298C10.3898 12.7698 10.1099 12.6998 10.7599 12.5398C10.5399 12.3598 10.7598 11.9798 9.68985 12.0698L9.86984 12.0398C9.14984 12.1198 9.73983 11.9597 9.35983 11.9397C9.43983 11.9197 9.48987 11.8997 9.51987 11.8897C8.79987 11.9497 9.34983 11.6496 9.03983 11.6296L9.46982 11.5298L9.32986 11.3699L9.24985 11.4597C8.04985 11.6797 9.96983 11.1697 9.16983 11.1897C9.29983 11.0397 6.61984 11.4197 7.17984 11.1697C6.59984 11.2097 8.10987 11.0498 7.64987 11.0398C8.27987 10.9198 8.04984 11.0097 8.54984 10.8897C8.22984 10.8497 9.15982 10.6198 8.71982 10.5798L9.20987 10.4897C8.28987 10.4997 9.80985 10.0997 8.93985 10.1497C8.50985 10.0697 10.3799 9.79982 9.38986 9.80982L10.0398 9.63965C10.1398 9.55965 9.21988 9.72986 9.52988 9.59986C9.94988 9.53986 9.84985 9.44969 10.2498 9.42969C10.8798 9.16969 9.26987 9.23986 10.3399 8.84986C9.51987 8.91986 9.98984 8.7398 9.36984 8.7898C9.71984 8.7298 9.39985 8.55984 10.1898 8.57984C10.2499 8.57984 10.2498 8.59988 10.1098 8.61988L10.5998 8.56983C11.4998 8.31983 10.0698 8.41978 10.1898 8.26978C10.0299 8.32978 10.0798 8.36964 9.74985 8.37964L9.79984 8.25977L10.2099 8.22974L10.4298 8.02979L9.92984 8.11988C10.1798 7.99988 11.0298 7.86987 10.3098 7.85987C9.89985 7.85987 9.63982 8.01971 9.46982 7.94971C9.79982 7.78971 10.2998 7.56967 10.4398 7.40967C9.86985 7.48967 9.88987 7.44967 9.76987 7.40967L10.2599 7.34986C9.55986 7.26986 11.3399 7.17985 10.7799 7.08985L11.1299 7.06983L10.0899 7.13965C9.08987 7.09965 11.1099 6.95971 9.75986 6.94971C9.84986 6.99971 8.66985 7.08975 8.87985 6.98975L9.35983 6.95972C9.25983 6.92972 9.04987 6.92966 9.14987 6.89966C9.40987 6.89966 9.84986 6.8498 9.75986 6.7898L10.3598 6.76978L9.46982 6.73975C9.97982 6.60975 9.31984 6.51969 9.98984 6.42969C9.98984 6.42969 10.2998 6.21974 9.55984 6.22974C10.0198 6.22974 10.1898 6.10986 10.7298 6.09986C10.2098 6.09986 9.76985 5.97964 10.3199 5.87964H10.3799C10.9299 5.63964 9.57985 5.57985 10.2498 5.33985C9.66985 5.37985 9.97985 5.25985 9.24985 5.33985C8.50985 5.17985 10.7299 4.8997 8.44986 4.9397C8.31986 4.8497 8.97987 4.79976 9.08987 4.74976L9.20987 4.76978C9.01987 4.60978 8.98983 4.55969 9.03983 4.42969C8.81983 4.36969 7.75986 4.39979 8.00986 4.27979C8.42986 4.29979 8.34982 4.25972 8.34982 4.20972C8.41982 4.23972 8.56982 4.23968 8.84982 4.16968C8.71982 4.16968 8.63985 4.15966 8.56985 4.14966C8.59985 4.14966 8.62983 4.14966 8.66983 4.14966C8.51983 4.07966 8.38986 4.09964 8.32986 4.12964C8.26986 4.12964 8.17985 4.12966 8.06985 4.14966C8.60985 4.05966 8.02985 3.93967 8.74985 3.90967C8.56985 3.69967 7.81983 3.55988 7.53983 3.36988C7.90983 3.33988 8.23986 3.37969 8.38986 3.42969L8.24985 3.29981C8.78985 3.29981 8.55983 3.36967 8.66983 3.40967C9.53983 3.24967 7.79987 3.09968 8.58987 2.91968L8.16983 2.87964H8.23984C8.01984 2.87964 7.70986 2.82981 7.63986 2.79981C8.10986 2.76981 8.71985 2.79972 8.68985 2.70972C9.13985 2.63972 8.46987 2.50968 8.20987 2.41968C8.12987 2.46968 7.86987 2.44969 7.70987 2.42969C7.68987 2.37969 8.15987 2.35984 7.95987 2.32984H8.58987C7.99987 2.33984 7.94985 2.2097 7.68985 2.1897C8.15985 2.1697 8.08985 2.25979 8.43985 2.27979C8.37985 2.09979 8.40982 2.18977 8.34982 2.00977C7.87982 1.90977 7.74986 2.00973 7.19986 1.96973C7.07986 1.87973 6.63987 1.78971 7.01987 1.69971L6.45987 1.71973C6.02987 1.54973 6.09983 1.44986 6.66983 1.34986C4.40983 0.669857 2.85984 0.519847 1.86984 0.589847C0.879843 0.649847 0.45987 0.909671 0.45987 0.909671C-0.79013 1.41967 0.829857 1.74964 1.25986 2.37964H1.24985Z" fill="#20BB65"/>
<path d="M22.3499 33.1104L22.2499 33.3303C22.3199 33.2503 22.3699 33.1704 22.3499 33.1104Z" fill="#20BB65"/>
<path d="M37.8599 43.0098C37.8599 43.0098 37.8799 42.9897 37.8999 42.9697C37.8799 42.9797 37.8699 42.9898 37.8599 43.0098Z" fill="#20BB65"/>
<path d="M19.6299 41.0498C19.6299 41.0498 19.5999 41.0698 19.5799 41.0798L19.6399 41.0498H19.6299Z" fill="#20BB65"/>
<path d="M16.8399 37.8501C17.4699 38.7801 16.9799 39.82 18.1499 40.22C18.5199 40.63 19.1199 40.83 19.6299 41.05C20.3499 40.54 20.1899 41.4701 20.8599 41.0901L20.6599 41.54C20.8899 41.41 21.0799 41.3501 21.0099 41.6201L20.9199 41.73C21.2599 41.53 21.2699 41.81 21.4399 41.71L21.3499 41.8201L21.5399 41.8799L21.3999 42.02C21.8399 41.87 22.0799 42.01 22.1699 42.29L22.4899 41.8101C22.5199 42.6401 23.3699 41.7699 23.3099 42.6599L23.2199 42.77C24.5699 41.84 23.3899 44.16 24.7099 43.29C24.5499 43.4 24.5699 43.5599 24.4899 43.6699C24.8099 43.6799 25.1099 43.7701 25.7399 42.8201C25.8999 42.9401 25.6799 43.2101 25.4599 43.5901C25.7299 43.1701 25.9899 43.0899 26.1399 43.1499L25.9799 43.27L26.4399 43.3701L26.8799 42.53C26.9299 42.88 26.3099 43.53 26.6199 43.46L27.0399 42.8C27.2299 43.1 26.7599 44.2001 26.7299 44.8601C27.6899 45.8601 29.8999 44.8401 30.2899 46.6201L30.0499 47.1599C29.6599 47.9199 30.9599 46.2099 30.6199 46.9299L30.9299 46.6599C30.8899 46.8099 30.8899 46.9999 30.7299 47.1299C30.8299 47.2199 30.8999 47.0999 31.1099 46.9199L30.9799 47.46C31.2399 48.08 32.1199 47.36 32.4999 47.8C32.5799 49.08 34.1499 48.73 35.0299 48.52C36.4599 47.78 36.0599 51.38 37.6099 50.45C37.5899 50.57 37.7799 50.36 37.8199 50.27L38.6199 50.76C38.6199 50.76 39.6199 51.28 40.5699 50.8C41.5299 50.33 42.3699 48.8399 42.2599 44.9399L42.3499 44.78C42.0899 44.17 41.8599 43.97 41.1799 44.7C41.5999 43.62 40.8699 44.43 40.9199 44.05L40.9699 43.97C40.3399 44.66 40.7299 43.0599 40.1499 43.6699C40.1999 43.5899 40.3299 43.3101 40.3999 43.3101C40.1599 43.3601 39.7899 43.4801 40.0599 42.8601C39.5499 42.8101 39.0799 42.2501 38.3399 43.0801L38.4399 42.9199C37.9699 43.4999 38.1899 42.9199 37.8499 43.1699C37.8799 43.0899 37.8899 43.04 37.8999 43.01C37.4199 43.57 37.3499 42.8601 37.0699 43.0601L37.2599 42.6599L36.8699 42.5801L36.9599 42.73C36.3699 43.8 37.0399 41.91 36.4399 42.5C36.2799 42.25 34.8099 44.5301 34.8399 43.8601C34.4599 44.3101 35.3699 43.0899 34.9899 43.3899C35.2799 42.8199 35.2499 43.0801 35.4399 42.6001C35.1299 42.7801 35.4599 41.8799 35.0599 42.1499L35.2799 41.71C34.5799 42.37 35.0799 40.87 34.4899 41.54C34.0199 41.75 35.0099 40.1401 34.2599 40.8401L34.4699 40.1899C34.3999 40.0299 33.9899 40.86 34.0099 40.5C34.2199 40.13 34.0099 40.11 34.2799 39.8C34.2999 39.05 33.1999 40.2901 33.3599 39.0801C32.8599 39.7501 32.9099 39.2 32.5399 39.7C32.7099 39.38 32.1699 39.4201 32.7899 38.8701C32.8399 38.8301 32.8699 38.86 32.7899 38.98L33.0599 38.5701C33.3099 37.6401 32.3999 38.77 32.2499 38.52C32.2299 38.7 32.3399 38.71 32.1099 38.97L31.9399 38.79L32.1899 38.46L32.0099 38.0701L31.7899 38.53C31.7799 38.21 32.1799 37.44 31.6399 37.96C31.3499 38.26 31.4199 38.6299 31.1799 38.6699C31.1599 38.2499 31.1399 37.6201 30.9799 37.3401C30.6999 37.8401 30.6399 37.7801 30.5099 37.8401L30.7699 37.4099C30.1399 37.8299 31.2599 36.42 30.7099 36.72L30.9199 36.4399L30.2899 37.27C29.5199 37.95 30.7299 36.32 29.7299 37.28C29.8799 37.28 29.1799 38.23 29.1699 37.97L29.4699 37.5901C29.3399 37.6301 29.2099 37.7799 29.2199 37.6699C29.3999 37.4799 29.6299 37.1001 29.4799 37.1001L29.8799 36.6399L29.1999 37.25C29.3399 36.72 28.7299 37.11 29.0499 36.5C29.0499 36.5 28.9199 36.0101 28.4299 36.5701C28.7499 36.2301 28.6799 35.9701 29.0399 35.5601C28.6599 35.9401 28.1799 36.1201 28.3999 35.6001L28.4499 35.5601C28.4199 34.8601 27.3899 35.77 27.4799 34.98C27.1499 35.46 27.1699 35.08 26.7799 35.71C26.0099 36.05 27.0799 34.0701 25.5899 35.8101C25.3699 35.8001 25.7399 35.2501 25.7299 35.1001L25.8399 35.03C25.4499 34.97 25.3599 34.92 25.1899 34.72C24.9499 34.82 24.2799 35.64 24.2499 35.29C24.5699 35.01 24.4499 35.01 24.3799 34.96C24.4699 34.94 24.5699 34.83 24.6599 34.54C24.5699 34.63 24.4999 34.68 24.4399 34.72C24.4599 34.69 24.4699 34.6699 24.4999 34.6399C24.2899 34.6699 24.2299 34.7901 24.2499 34.8701C24.2099 34.9201 24.1599 34.9901 24.0999 35.0901C24.3199 34.5701 23.7499 34.85 24.1899 34.28C23.7499 34.13 23.0299 34.51 22.5699 34.49C22.7799 34.18 23.0599 33.9799 23.2299 33.9399L22.9399 33.8799C23.2899 33.4699 23.2499 33.74 23.3799 33.71C23.7099 32.86 22.3399 33.9601 22.5899 33.1201L22.2499 33.3899L22.2799 33.3201C22.1299 33.4901 21.8699 33.6599 21.7799 33.6799C22.0499 33.2999 22.4999 32.88 22.3399 32.78C22.5399 32.35 21.8899 32.69 21.5799 32.75C21.5999 32.87 21.3999 33.0399 21.2599 33.1399C21.1799 33.0899 21.4599 32.7101 21.2799 32.8101L21.6999 32.3401C21.3199 32.8001 21.0999 32.6501 20.8999 32.8201C21.1799 32.4401 21.2699 32.6199 21.5299 32.3799C21.2299 32.1799 21.3799 32.2801 21.0799 32.0801C20.6199 32.3001 20.6999 32.5399 20.2499 32.8799C20.0399 32.8499 19.6099 33.0499 19.7299 32.6499L19.3899 33.1001C18.8499 33.1901 18.7599 32.9999 18.9999 32.4399C16.5299 33.1899 15.2799 34.13 14.7099 34.96C14.1299 35.78 14.2199 36.45 14.2199 36.45C14.0999 38.1 15.6699 37.3201 16.8699 37.8501H16.8399Z" fill="#20BB65"/>
<path d="M65.6899 52.5698L65.7099 52.8098C65.7299 52.7098 65.7399 52.6098 65.6899 52.5698Z" fill="#20BB65"/>
<path d="M84.3799 56.1699C84.3799 56.1699 84.3899 56.1401 84.4099 56.1201C84.3899 56.1401 84.3899 56.1499 84.3799 56.1699Z" fill="#20BB65"/>
<path d="M66.8099 60.8799C66.8099 60.8799 66.7899 60.9099 66.7799 60.9299L66.8199 60.8799H66.8099Z" fill="#20BB65"/>
<path d="M63.0999 59.3599C64.0399 59.8799 64.0598 60.9998 65.2198 60.8198C65.6998 61.0198 66.2899 60.8996 66.8099 60.8796C67.2299 60.1096 67.4599 61.0096 67.8899 60.3796V60.8699C68.0399 60.6499 68.1899 60.5198 68.2299 60.7898L68.1899 60.9197C68.4099 60.5997 68.5199 60.8397 68.6299 60.6797L68.5899 60.8198L68.7799 60.7998L68.7099 60.9897C69.0399 60.6697 69.2999 60.6997 69.4899 60.9197L69.5899 60.3499C69.9299 61.0899 70.3599 59.9498 70.6299 60.7898L70.5999 60.9297C71.4599 59.5397 71.2599 62.1298 72.1099 60.8198C71.9999 60.9798 72.0799 61.1198 72.0499 61.2598C72.3399 61.1498 72.6399 61.1198 72.8699 59.9998C73.0599 60.0498 72.9499 60.3798 72.8899 60.8198C72.9899 60.3298 73.1899 60.1597 73.3399 60.1597L73.2299 60.3398L73.6899 60.2598L73.7899 59.3198C73.9599 59.6298 73.6199 60.4598 73.8799 60.2798L74.0299 59.5098C74.3099 59.7198 74.2599 60.9198 74.4599 61.5398C75.6499 62.1098 77.3499 60.3997 78.2699 61.9597L78.2198 62.5498C78.0898 63.3998 78.7599 61.3597 78.6699 62.1497L78.8699 61.7898C78.8799 61.9498 78.9299 62.1198 78.8299 62.2998C78.9499 62.3498 78.9799 62.2197 79.1099 61.9797L79.1499 62.5298C79.5699 63.0298 80.1699 62.0796 80.6599 62.3796C81.0999 63.5596 82.4498 62.7698 83.2198 62.2998C84.3698 61.1898 84.9499 64.7397 86.1599 63.4297C86.1699 63.5497 86.2999 63.2997 86.3099 63.1997L87.1899 63.4497C87.1899 63.4497 88.2599 63.6897 89.0499 62.9897C89.8399 62.2897 90.3199 60.6497 89.2099 56.8997L89.2599 56.7197C88.8499 56.1997 88.5599 56.0597 88.0899 56.9397C88.2099 55.7897 87.7099 56.7596 87.6599 56.3796L87.6799 56.2898C87.2499 57.1198 87.1899 55.4697 86.7899 56.2097C86.8099 56.1197 86.8699 55.8098 86.9399 55.7998C86.7099 55.9098 86.3899 56.1197 86.4799 55.4597C85.9599 55.5597 85.3299 55.1397 84.8499 56.1497L84.8999 55.9697C84.6099 56.6597 84.6499 56.0399 84.3899 56.3699C84.3899 56.2799 84.3899 56.2297 84.3899 56.1997C84.0799 56.8697 83.7999 56.2197 83.5999 56.4897L83.6599 56.0498L83.2499 56.0898L83.3799 56.2097C83.1299 57.4097 83.2099 55.3996 82.7999 56.1396C82.5599 55.9396 81.8499 58.5597 81.6699 57.9197C81.4399 58.4597 81.9399 57.0197 81.6699 57.4197C81.7699 56.7897 81.8299 57.0398 81.8599 56.5298C81.6199 56.7998 81.6599 55.8297 81.3499 56.2197L81.4199 55.7297C80.9599 56.5697 80.9499 54.9898 80.5999 55.7998C80.2099 56.1498 80.6399 54.3097 80.1399 55.2097V54.5198C80.0099 54.3898 79.8799 55.3097 79.7899 54.9697C79.8699 54.5497 79.6499 54.5997 79.8099 54.2197C79.5699 53.5097 78.9299 55.0198 78.6599 53.8298C78.4099 54.6198 78.2699 54.0997 78.0799 54.6897C78.1299 54.3297 77.6199 54.5498 78.0299 53.8298C78.0599 53.7698 78.0999 53.7897 78.0699 53.9297L78.1899 53.4497C78.0899 52.4897 77.6199 53.8597 77.3799 53.6697C77.4299 53.8397 77.5399 53.8196 77.4099 54.1396L77.1799 54.0298L77.3099 53.6296L76.9899 53.3198L76.9499 53.8298C76.8199 53.5398 76.9199 52.6799 76.5899 53.3499C76.4199 53.7299 76.6299 54.0597 76.4099 54.1797C76.2399 53.7897 75.9799 53.2098 75.7099 53.0098C75.6299 53.5798 75.5499 53.5396 75.4499 53.6396L75.5399 53.1497C75.0899 53.7697 75.6299 52.0498 75.2099 52.5298L75.2999 52.1897L75.0199 53.1897C74.5399 54.0997 75.0699 52.1497 74.4899 53.3997C74.6299 53.3397 74.3398 54.4898 74.2198 54.2498L74.3499 53.7898C74.2399 53.8698 74.1799 54.0597 74.1399 53.9597C74.2399 53.7197 74.2999 53.2798 74.1599 53.3398L74.3599 52.7698L73.9499 53.5898C73.8699 53.0498 73.4499 53.6197 73.5099 52.9397C73.5099 52.9397 73.1799 52.5297 72.9399 53.2397C73.1099 52.7997 72.9299 52.5898 73.0999 52.0698C72.8899 52.5598 72.4999 52.9199 72.4999 52.3499L72.5399 52.2898C72.2099 51.6398 71.6199 52.8896 71.3599 52.1296C71.2599 52.6996 71.1099 52.3498 71.0099 53.0798C70.4399 53.6998 70.5699 51.4497 69.9399 53.6497C69.7199 53.7297 69.8299 53.0797 69.7599 52.9397L69.8299 52.8298C69.4399 52.9298 69.3299 52.9298 69.0799 52.8298C68.8999 53.0198 68.6498 54.0498 68.4698 53.7498C68.6398 53.3598 68.5299 53.4096 68.4399 53.3896C68.5099 53.3396 68.5599 53.1896 68.5099 52.8896C68.4699 53.0096 68.4199 53.0897 68.3799 53.1497C68.3799 53.1197 68.3799 53.0898 68.3999 53.0498C68.2199 53.1598 68.2199 53.2999 68.2699 53.3699C68.2499 53.4299 68.2399 53.5096 68.2399 53.6296C68.2099 53.0596 67.8099 53.5699 67.9499 52.8599C67.4699 52.9199 66.9899 53.5798 66.5599 53.7698C66.5999 53.3998 66.7599 53.0997 66.8999 52.9797L66.6099 53.0498C66.7299 52.5298 66.8299 52.7797 66.9299 52.6997C66.8199 51.7797 66.0899 53.3898 65.9099 52.5298L65.7399 52.9197V52.8499C65.6799 53.0699 65.5299 53.3497 65.4599 53.3997C65.5199 52.9297 65.7099 52.3498 65.5299 52.3398C65.4899 51.8698 65.0699 52.4597 64.8299 52.6597C64.9099 52.7597 64.8199 53.0097 64.7399 53.1497C64.6499 53.1497 64.7099 52.6799 64.5899 52.8599L64.7299 52.2498C64.6199 52.8398 64.3399 52.8098 64.2499 53.0598C64.3099 52.5898 64.4899 52.6999 64.5899 52.3699C64.2199 52.3399 64.3999 52.3498 64.0299 52.3198C63.7199 52.7298 63.9199 52.9097 63.6999 53.4197C63.4999 53.4997 63.2299 53.8797 63.1199 53.4697L63.0499 54.0298C62.6199 54.3698 62.4499 54.2597 62.3699 53.6497C60.6099 55.5497 60.0799 57.0198 60.0099 58.0198C59.9399 59.0198 60.3199 59.5498 60.3199 59.5498C60.9799 60.9998 61.8899 59.5497 63.1399 59.3997L63.0999 59.3599Z" fill="#20BB65"/>
<path d="M114.05 59.7998L114.11 60.0398C114.11 59.9298 114.11 59.8398 114.05 59.7998Z" fill="#20BB65"/>
<path d="M133.16 61.0198C133.16 61.0198 133.17 60.9897 133.18 60.9697C133.17 60.9897 133.16 60.9998 133.16 61.0198Z" fill="#20BB65"/>
<path d="M116.36 67.8496C116.36 67.8496 116.35 67.8794 116.34 67.9094L116.37 67.8496H116.36Z" fill="#20BB65"/>
<path d="M112.52 66.8997C113.52 67.2697 113.7 68.3698 114.8 68.0198C115.3 68.1498 115.86 67.9399 116.36 67.8499C116.66 67.0299 117.01 67.8897 117.34 67.1997L117.41 67.6897C117.52 67.4597 117.65 67.2998 117.73 67.5698L117.71 67.7097C117.88 67.3597 118.03 67.5897 118.11 67.4097L118.09 67.5498L118.27 67.4998L118.23 67.6997C118.51 67.3297 118.77 67.3298 118.98 67.5198L119 66.9397C119.44 67.6197 119.7 66.4397 120.08 67.2397L120.06 67.3796C120.72 65.8896 120.86 68.4798 121.53 67.0698C121.45 67.2498 121.53 67.3698 121.53 67.5098C121.8 67.3598 122.09 67.2997 122.17 66.1597C122.36 66.1897 122.3 66.5297 122.29 66.9697C122.32 66.4697 122.5 66.2798 122.65 66.2498L122.57 66.4397L123.01 66.2998L122.99 65.3499C123.2 65.6399 122.97 66.4998 123.2 66.2898L123.25 65.5098C123.55 65.6898 123.65 66.8797 123.92 67.4697C125.16 67.8897 126.64 65.9797 127.72 67.4297L127.74 68.0198C127.71 68.8798 128.14 66.7698 128.14 67.5698L128.3 67.1897C128.33 67.3397 128.4 67.5097 128.32 67.6997C128.44 67.7397 128.46 67.5999 128.56 67.3499L128.66 67.8896C129.13 68.3296 129.62 67.3298 130.13 67.5698C130.7 68.6898 131.94 67.7597 132.65 67.2197C133.67 65.9897 134.61 69.4598 135.67 68.0398C135.7 68.1598 135.79 67.8898 135.8 67.7998L136.69 67.9697C136.69 67.9697 141.02 68.4998 138.05 61.2498L138.08 61.0698C137.61 60.5898 137.31 60.4797 136.93 61.3997C136.93 60.2497 136.54 61.2596 136.44 60.8796L136.46 60.7898C136.12 61.6598 135.89 60.0198 135.56 60.7998C135.58 60.7098 135.6 60.3896 135.66 60.3796C135.44 60.5196 135.15 60.7598 135.16 60.0898C134.65 60.2398 133.98 59.8897 133.6 60.9497L133.63 60.7698C133.41 61.4798 133.39 60.8597 133.17 61.2197C133.17 61.1297 133.15 61.0898 133.16 61.0498C132.92 61.7498 132.58 61.1297 132.4 61.4297V60.9797L132.01 61.0598L132.15 61.1597C132.03 62.3797 131.89 60.3797 131.56 61.1597C131.3 60.9897 130.87 63.6698 130.63 63.0598C130.46 63.6198 130.8 62.1398 130.58 62.5698C130.61 61.9298 130.7 62.1797 130.67 61.6597C130.46 61.9497 130.39 60.9897 130.12 61.4097L130.14 60.9097C129.77 61.7997 129.59 60.2198 129.33 61.0798C128.98 61.4698 129.2 59.5898 128.81 60.5398L128.72 59.8599C128.58 59.7399 128.57 60.6798 128.43 60.3398C128.47 59.9198 128.25 59.9898 128.37 59.5898C128.05 58.9098 127.58 60.4798 127.18 59.3398C127.03 60.1598 126.82 59.6498 126.7 60.2698C126.71 59.9098 126.22 60.1797 126.54 59.4197C126.57 59.3597 126.61 59.3698 126.6 59.5098L126.66 59.0198C126.45 58.0798 126.14 59.4998 125.88 59.3398C125.95 59.5098 126.06 59.4698 125.97 59.7998L125.73 59.7197L125.81 59.3098L125.46 59.0498L125.48 59.5598C125.32 59.2898 125.31 58.4196 125.06 59.1296C124.94 59.5296 125.19 59.8297 124.98 59.9697C124.76 59.6097 124.43 59.0596 124.13 58.8896C124.13 59.4596 124.04 59.4398 123.94 59.5498L123.96 59.0498C123.59 59.7198 123.91 57.9497 123.55 58.4797L123.6 58.1396L123.44 59.1697C123.08 60.1297 123.35 58.1297 122.93 59.4497C123.07 59.3697 122.92 60.5498 122.77 60.3198L122.84 59.8398C122.75 59.9398 122.7 60.1298 122.65 60.0298C122.72 59.7698 122.73 59.3297 122.59 59.4097L122.72 58.8198L122.41 59.6897C122.26 59.1597 121.91 59.7899 121.88 59.0999C121.88 59.0999 121.5 58.7397 121.35 59.4697C121.46 59.0197 121.25 58.8198 121.35 58.2898C121.21 58.7998 120.87 59.2096 120.78 58.6396L120.81 58.5798C120.39 57.9798 119.97 59.2998 119.61 58.5798C119.59 59.1598 119.39 58.8298 119.39 59.5698C118.91 60.2698 118.73 58.0098 118.4 60.2798C118.2 60.3898 118.21 59.7299 118.12 59.5999L118.18 59.4797C117.8 59.6397 117.69 59.6498 117.43 59.5798C117.28 59.7898 117.17 60.8498 116.95 60.5698C117.06 60.1598 116.95 60.2297 116.87 60.2197C116.93 60.1597 116.96 60.0097 116.87 59.7097C116.84 59.8397 116.81 59.9197 116.78 59.9797C116.78 59.9497 116.78 59.9196 116.78 59.8796C116.62 60.0196 116.63 60.1497 116.7 60.2097C116.7 60.2697 116.7 60.3597 116.7 60.4697C116.59 59.9097 116.26 60.4698 116.3 59.7498C115.83 59.8798 115.45 60.5999 115.05 60.8499C115.04 60.4699 115.15 60.1498 115.28 60.0198L115 60.1296C115.05 59.5996 115.18 59.8397 115.27 59.7397C115.02 58.8497 114.54 60.5497 114.23 59.7197L114.12 60.1396L114.1 60.0698C114.08 60.2898 113.97 60.5897 113.91 60.6597C113.9 60.1897 114 59.5899 113.82 59.5999C113.71 59.1399 113.38 59.7898 113.17 60.0198C113.27 60.1098 113.21 60.3598 113.15 60.5198C113.06 60.5198 113.04 60.0598 112.95 60.2498L113 59.6199C112.99 60.2099 112.7 60.2397 112.65 60.4897C112.64 60.0197 112.83 60.0998 112.88 59.7498C112.5 59.7798 112.69 59.7598 112.32 59.7898C112.08 60.2498 112.3 60.3897 112.16 60.9297C111.97 61.0397 111.76 61.4598 111.6 61.0598V61.6199C111.25 62.0199 111.05 61.9399 110.88 61.3599C108 65.6699 109.79 67.5098 109.79 67.5098C110.66 68.8298 111.31 67.2497 112.51 66.9197L112.52 66.8997Z" fill="#20BB65"/>
<path d="M163.13 62.1094L163.2 62.3394C163.2 62.2294 163.18 62.1394 163.13 62.1094Z" fill="#20BB65"/>
<path d="M182.32 62.2395C182.32 62.2395 182.33 62.2095 182.34 62.1895C182.33 62.2095 182.32 62.2195 182.32 62.2395Z" fill="#20BB65"/>
<path d="M165.94 69.9893C165.94 69.9893 165.93 70.0293 165.92 70.0493L165.94 69.9893Z" fill="#20BB65"/>
<path d="M162.06 69.3096C163.07 69.5996 163.32 70.6895 164.39 70.2595C164.89 70.3495 165.44 70.1095 165.93 69.9795C166.18 69.1395 166.58 69.9795 166.87 69.2695L166.97 69.7495C167.07 69.5095 167.18 69.3496 167.28 69.6096V69.7495C167.42 69.3895 167.58 69.6094 167.65 69.4294V69.5696L167.82 69.5095L167.79 69.7095C168.05 69.3295 168.3 69.3095 168.52 69.4795V68.8994C168.98 69.5494 169.18 68.3494 169.6 69.1294V69.2695C170.16 67.7495 170.45 70.3194 171.04 68.8794C170.97 69.0594 171.07 69.1796 171.06 69.3196C171.32 69.1596 171.6 69.0694 171.62 67.9294C171.81 67.9494 171.77 68.2895 171.79 68.7295C171.79 68.2295 171.96 68.0195 172.11 67.9995L172.04 68.1895L172.47 68.0195L172.4 67.0796C172.62 67.3496 172.44 68.2295 172.66 67.9995V67.2195C172.98 67.3795 173.15 68.5594 173.44 69.1394C174.69 69.4894 176.07 67.5094 177.22 68.8994L177.27 69.4895C177.28 70.3495 177.6 68.2195 177.64 69.0195L177.78 68.6294C177.82 68.7794 177.9 68.9494 177.83 69.1394C177.96 69.1694 177.96 69.0295 178.05 68.7795L178.18 69.3096C178.67 69.7296 179.1 68.7094 179.62 68.9194C180.24 70.0194 181.43 69.0295 182.11 68.4495C183.07 67.1795 184.17 70.6094 185.16 69.1494C185.19 69.2694 185.27 68.9994 185.27 68.8994L186.17 69.0295C186.17 69.0295 190.51 69.4095 187.23 62.2595L187.25 62.0696C186.76 61.6096 186.46 61.5095 186.12 62.4395C186.07 61.2895 185.72 62.3195 185.61 61.9395V61.8496C185.32 62.7296 185.01 61.1094 184.72 61.8994C184.73 61.8094 184.74 61.4895 184.8 61.4695C184.59 61.6095 184.3 61.8695 184.29 61.1995C183.79 61.3695 183.1 61.0496 182.77 62.1196L182.79 61.9294C182.6 62.6494 182.55 62.0294 182.35 62.3994C182.34 62.3094 182.33 62.2695 182.33 62.2295C182.13 62.9395 181.75 62.3294 181.59 62.6394V62.1895L181.19 62.2896L181.34 62.3894C181.28 63.6094 181.05 61.6194 180.75 62.4094C180.48 62.2494 180.19 64.9496 179.91 64.3496C179.77 64.9196 180.03 63.4196 179.83 63.8596C179.83 63.2196 179.93 63.4595 179.88 62.9495C179.68 63.2495 179.56 62.2895 179.32 62.7195V62.2195C178.99 63.1295 178.73 61.5594 178.51 62.4194C178.18 62.8294 178.31 60.9394 177.96 61.9094L177.84 61.2395C177.7 61.1295 177.73 62.0595 177.57 61.7395C177.58 61.3195 177.37 61.3995 177.47 60.9995C177.11 60.3295 176.73 61.9296 176.26 60.8096C176.15 61.6296 175.91 61.1395 175.83 61.7595C175.83 61.3995 175.35 61.6994 175.63 60.9194C175.65 60.8594 175.69 60.8695 175.69 61.0095L175.73 60.5195C175.47 59.5895 175.23 61.0194 174.96 60.8794C175.04 61.0394 175.14 60.9996 175.07 61.3396L174.82 61.2695L174.88 60.8596L174.51 60.6196L174.56 61.1294C174.38 60.8694 174.33 59.9995 174.11 60.7195C174.01 61.1195 174.27 61.4096 174.08 61.5696C173.84 61.2196 173.48 60.6896 173.17 60.5396C173.19 61.1096 173.11 61.0895 173.02 61.2095V60.7095C172.68 61.3995 172.91 59.6094 172.58 60.1594L172.61 59.8096L172.51 60.8496C172.2 61.8296 172.36 59.8194 172.02 61.1594C172.15 61.0794 172.07 62.2596 171.91 62.0396L171.96 61.5596C171.87 61.6596 171.84 61.8595 171.78 61.7595C171.84 61.4995 171.82 61.0594 171.69 61.1394L171.79 60.5396L171.53 61.4194C171.35 60.8994 171.04 61.5496 170.97 60.8696C170.97 60.8696 170.57 60.5295 170.46 61.2695C170.55 60.8095 170.33 60.6296 170.4 60.0896C170.29 60.6096 169.97 61.0295 169.85 60.4795L169.87 60.4194C169.42 59.8494 169.07 61.1895 168.66 60.4895C168.66 61.0695 168.46 60.7495 168.5 61.4895C168.06 62.2195 167.74 59.9795 167.55 62.2595C167.35 62.3795 167.33 61.7196 167.23 61.5996L167.28 61.4795C166.91 61.6595 166.8 61.6794 166.53 61.6294C166.39 61.8494 166.35 62.9094 166.11 62.6494C166.2 62.2294 166.1 62.3096 166 62.3096C166.06 62.2396 166.08 62.0896 165.97 61.8096C165.95 61.9396 165.92 62.0196 165.9 62.0896C165.9 62.0596 165.9 62.0295 165.9 61.9895C165.75 62.1395 165.77 62.2696 165.84 62.3296C165.84 62.3896 165.84 62.4796 165.86 62.5896C165.71 62.0396 165.42 62.6194 165.41 61.8994C164.95 62.0594 164.61 62.8096 164.22 63.0796C164.18 62.7096 164.28 62.3795 164.39 62.2295L164.12 62.3596C164.13 61.8196 164.28 62.0495 164.37 61.9495C164.07 61.0795 163.69 62.8095 163.33 62.0095L163.24 62.4294L163.22 62.3596C163.22 62.5796 163.13 62.8895 163.07 62.9595C163.03 62.4895 163.1 61.8794 162.91 61.9094C162.77 61.4594 162.49 62.1294 162.29 62.3794C162.39 62.4594 162.35 62.7194 162.31 62.8794C162.22 62.8894 162.17 62.4294 162.1 62.6294V61.9995C162.13 62.5895 161.85 62.6394 161.81 62.8994C161.77 62.4294 161.96 62.4994 161.99 62.1494C161.61 62.1994 161.8 62.1795 161.43 62.2295C161.22 62.6995 161.45 62.8294 161.35 63.3794C161.17 63.4994 160.99 63.9396 160.8 63.5596L160.85 64.1196C160.51 64.5496 160.31 64.4794 160.1 63.9094C157.53 68.4394 159.44 70.1294 159.44 70.1294C160.39 71.3794 160.93 69.7496 162.1 69.3296L162.06 69.3096Z" fill="#20BB65"/>
<path d="M212.37 62.25L212.45 62.48C212.45 62.37 212.43 62.28 212.37 62.25Z" fill="#20BB65"/>
<path d="M231.6 61.8994C231.6 61.8994 231.61 61.8696 231.62 61.8496C231.61 61.8696 231.6 61.8894 231.6 61.8994Z" fill="#20BB65"/>
<path d="M215.41 70.0498C215.41 70.0498 215.4 70.0899 215.39 70.1099L215.41 70.0498Z" fill="#20BB65"/>
<path d="M211.52 69.4697C212.54 69.7397 212.82 70.8199 213.88 70.3599C214.38 70.4399 214.92 70.1798 215.41 70.0498C215.63 69.1998 216.06 70.0298 216.33 69.3198L216.44 69.7998C216.53 69.5598 216.64 69.3897 216.74 69.6497V69.7898C216.87 69.4198 217.04 69.6397 217.11 69.4597V69.5999L217.28 69.5398L217.25 69.7397C217.49 69.3497 217.75 69.3198 217.98 69.4998L217.95 68.9197C218.44 69.5597 218.6 68.3599 219.05 69.1199V69.2598C219.58 67.7198 219.93 70.2898 220.48 68.8298C220.41 69.0098 220.51 69.1298 220.51 69.2698C220.77 69.0998 221.05 69.0099 221.04 67.8699C221.23 67.8799 221.2 68.2197 221.23 68.6597C221.23 68.1597 221.39 67.9497 221.53 67.9197L221.46 68.1099L221.88 67.9297L221.78 66.9897C222.01 67.2597 221.85 68.1397 222.07 67.9097V67.1296C222.37 67.2796 222.57 68.4598 222.88 69.0298C224.14 69.3498 225.46 67.3297 226.65 68.6897L226.71 69.2798C226.74 70.1398 227.01 68.0098 227.07 68.7998L227.2 68.4097C227.24 68.5597 227.32 68.7297 227.26 68.9197C227.39 68.9497 227.39 68.8098 227.47 68.5498L227.61 69.0798C228.11 69.4898 228.52 68.4497 229.04 68.6497C229.68 69.7297 230.85 68.7099 231.52 68.1199C232.45 66.8299 233.62 70.2197 234.58 68.7397C234.61 68.8597 234.69 68.5897 234.69 68.4897L235.59 68.5999C235.59 68.5999 239.94 68.8698 236.52 61.8098L236.54 61.6199C236.04 61.1699 235.73 61.0798 235.41 62.0198C235.34 60.8698 235.01 61.9098 234.89 61.5398V61.4497C234.62 62.3397 234.27 60.7198 234 61.5198C234 61.4298 234.01 61.1098 234.08 61.0898C233.87 61.2398 233.59 61.4998 233.56 60.8298C233.06 61.0098 232.36 60.7098 232.06 61.7898L232.08 61.5999C231.91 62.3299 231.85 61.7098 231.65 62.0798C231.64 61.9898 231.62 61.9497 231.62 61.9097C231.43 62.6297 231.04 62.0298 230.88 62.3398L230.86 61.8896L230.47 61.9998L230.62 62.0898C230.59 63.3198 230.31 61.3299 230.03 62.1199C229.76 61.9699 229.52 64.6698 229.23 64.0798C229.11 64.6498 229.33 63.1498 229.14 63.5898C229.12 62.9498 229.23 63.1897 229.17 62.6797C228.98 62.9897 228.84 62.0297 228.6 62.4697L228.58 61.9697C228.28 62.8797 227.98 61.3197 227.78 62.1897C227.46 62.6097 227.54 60.7197 227.22 61.6897L227.08 61.0198C226.93 60.9098 226.99 61.8498 226.82 61.5198C226.82 61.0998 226.61 61.1798 226.7 60.7798C226.33 60.1198 225.98 61.7299 225.48 60.6199C225.39 61.4499 225.14 60.9598 225.07 61.5798C225.05 61.2198 224.59 61.5298 224.85 60.7498C224.87 60.6898 224.91 60.6998 224.91 60.8398L224.94 60.3499C224.65 59.4299 224.45 60.8697 224.18 60.7297C224.26 60.8897 224.37 60.8497 224.3 61.1797L224.05 61.1199L224.1 60.7097L223.72 60.4697L223.78 60.9797C223.59 60.7197 223.52 59.8498 223.32 60.5798C223.23 60.9798 223.5 61.2597 223.32 61.4297C223.07 61.0897 222.7 60.5697 222.38 60.4197C222.42 60.9897 222.33 60.9698 222.25 61.0898L222.23 60.5898C221.91 61.2898 222.09 59.4998 221.77 60.0498L221.79 59.6997L221.72 60.7397C221.44 61.7297 221.55 59.7098 221.24 61.0598C221.37 60.9698 221.32 62.1597 221.15 61.9397L221.18 61.4597C221.09 61.5597 221.07 61.7597 221.01 61.6697C221.06 61.4097 221.03 60.9698 220.9 61.0498L220.98 60.4497L220.75 61.3398C220.55 60.8298 220.26 61.4798 220.17 60.7998C220.17 60.7998 219.76 60.4697 219.67 61.2197C219.75 60.7597 219.52 60.5898 219.58 60.0398C219.48 60.5598 219.17 60.9897 219.04 60.4397L219.06 60.3796C218.59 59.8196 218.28 61.1697 217.85 60.4797C217.88 61.0597 217.65 60.7497 217.72 61.4797C217.3 62.2197 216.92 59.9898 216.79 62.2698C216.6 62.3998 216.55 61.7399 216.45 61.6199L216.5 61.4998C216.14 61.6898 216.03 61.7197 215.76 61.6697C215.63 61.8897 215.62 62.9597 215.37 62.6997C215.44 62.2797 215.35 62.3599 215.25 62.3599C215.31 62.2899 215.32 62.1399 215.2 61.8599C215.18 61.9899 215.16 62.0696 215.14 62.1396C215.14 62.1096 215.14 62.0798 215.14 62.0398C214.99 62.1898 215.02 62.3196 215.09 62.3796C215.09 62.4396 215.09 62.5296 215.12 62.6396C214.96 62.0996 214.68 62.6797 214.65 61.9597C214.19 62.1297 213.88 62.8897 213.5 63.1697C213.45 62.7997 213.54 62.4698 213.65 62.3198L213.38 62.4597C213.38 61.9197 213.53 62.1498 213.61 62.0398C213.28 61.1798 212.96 62.9099 212.57 62.1199L212.5 62.5398L212.48 62.4697C212.48 62.6897 212.4 62.9998 212.35 63.0698C212.29 62.5998 212.35 61.9898 212.16 62.0198C212.01 61.5698 211.74 62.2498 211.55 62.5098C211.65 62.5898 211.62 62.8498 211.58 63.0098C211.49 63.0298 211.43 62.5598 211.36 62.7598L211.34 62.1296C211.38 62.7196 211.1 62.7698 211.07 63.0298C211.01 62.5598 211.21 62.6298 211.23 62.2698C210.86 62.3298 211.04 62.2999 210.67 62.3699C210.47 62.8499 210.71 62.9698 210.62 63.5198C210.44 63.6498 210.28 64.0897 210.07 63.7097L210.14 64.2698C209.81 64.7098 209.61 64.6498 209.38 64.0798C206.95 68.6698 208.92 70.3098 208.92 70.3098C209.91 71.5298 210.39 69.8997 211.55 69.4497L211.52 69.4697Z" fill="#20BB65"/>
<path d="M261.71 61.4395L261.79 61.6694C261.79 61.5594 261.77 61.4695 261.71 61.4395Z" fill="#20BB65"/>
<path d="M280.97 60.9895C280.97 60.9895 280.98 60.9595 280.99 60.9395C280.98 60.9595 280.97 60.9795 280.97 60.9895Z" fill="#20BB65"/>
<path d="M264.82 69.2197C264.82 69.2197 264.81 69.2598 264.8 69.2798L264.82 69.2197Z" fill="#20BB65"/>
<path d="M260.92 68.6597C261.94 68.9197 262.23 69.9998 263.28 69.5398C263.79 69.6198 264.32 69.3597 264.81 69.2197C265.03 68.3697 265.46 69.1997 265.72 68.4797L265.84 68.9597C265.93 68.7197 266.04 68.5498 266.14 68.8098V68.9497C266.27 68.5797 266.44 68.7999 266.5 68.6099V68.7498L266.67 68.6797L266.64 68.8796C266.88 68.4896 267.14 68.4596 267.36 68.6296L267.33 68.0498C267.82 68.6898 267.98 67.4797 268.43 68.2397V68.3796C268.95 66.8396 269.32 69.4097 269.85 67.9397C269.78 68.1197 269.89 68.2396 269.88 68.3796C270.14 68.2096 270.41 68.1197 270.4 66.9797C270.59 66.9897 270.56 67.3298 270.59 67.7698C270.58 67.2698 270.74 67.0598 270.89 67.0298L270.83 67.2197L271.25 67.0398L271.15 66.0999C271.38 66.3699 271.23 67.2498 271.44 67.0198L271.42 66.2397C271.73 66.3897 271.94 67.5696 272.25 68.1396C273.51 68.4496 274.82 66.4298 276.02 67.7898L276.08 68.3796C276.12 69.2396 276.38 67.0997 276.44 67.8997L276.57 67.5098C276.61 67.6598 276.69 67.8298 276.63 68.0198C276.76 68.0498 276.76 67.9097 276.84 67.6497L276.99 68.1797C277.49 68.5797 277.9 67.5498 278.42 67.7498C279.07 68.8298 280.23 67.7997 280.9 67.2097C281.83 65.9097 283.01 69.2998 283.96 67.8198C283.99 67.9398 284.07 67.6698 284.07 67.5698L284.97 67.6697C284.97 67.6697 289.32 67.9199 285.88 60.8699L285.9 60.6797C285.4 60.2297 285.09 60.1398 284.77 61.0898C284.69 59.9398 284.37 60.9799 284.24 60.6099V60.5198C283.97 61.4098 283.62 59.7898 283.35 60.5898C283.35 60.4998 283.35 60.1797 283.43 60.1597C283.22 60.3097 282.94 60.5697 282.91 59.8997C282.41 60.0897 281.71 59.7899 281.41 60.8599L281.43 60.6697C281.26 61.3997 281.2 60.7797 281 61.1497C280.99 61.0597 280.97 61.0197 280.97 60.9797C280.78 61.6997 280.39 61.0997 280.23 61.4097L280.21 60.9697L279.81 61.0798L279.96 61.1697C279.93 62.3997 279.65 60.4097 279.37 61.2097C279.1 61.0597 278.87 63.7697 278.58 63.1697C278.46 63.7497 278.68 62.2397 278.49 62.6797C278.47 62.0397 278.58 62.2798 278.51 61.7698C278.32 62.0798 278.18 61.1198 277.94 61.5598L277.92 61.0598C277.62 61.9698 277.31 60.4198 277.12 61.2898C276.8 61.7098 276.87 59.8198 276.55 60.7998L276.41 60.1296C276.26 60.0196 276.32 60.9596 276.16 60.6296C276.16 60.2096 275.95 60.2996 276.04 59.8896C275.66 59.2296 275.32 60.8497 274.82 59.7297C274.73 60.5597 274.48 60.0697 274.42 60.6897C274.4 60.3297 273.94 60.6399 274.19 59.8599C274.21 59.7999 274.25 59.8097 274.25 59.9497L274.27 59.4597C273.98 58.5397 273.78 59.9798 273.51 59.8398C273.59 59.9998 273.7 59.9598 273.63 60.2898L273.38 60.2297L273.42 59.8198L273.04 59.5898L273.1 60.0999C272.91 59.8399 272.83 58.9797 272.64 59.6997C272.55 60.0997 272.83 60.3798 272.64 60.5498C272.39 60.2098 272.01 59.6898 271.7 59.5398C271.74 60.1098 271.66 60.0897 271.57 60.2097L271.55 59.7097C271.23 60.4097 271.41 58.6197 271.09 59.1697L271.11 58.8198L271.04 59.8599C270.76 60.8499 270.86 58.8297 270.56 60.1797C270.69 60.0897 270.64 61.2798 270.48 61.0598L270.51 60.5798C270.42 60.6798 270.4 60.8898 270.34 60.7898C270.39 60.5298 270.35 60.0897 270.23 60.1697L270.31 59.5698L270.08 60.4597C269.88 59.9497 269.59 60.5997 269.5 59.9197C269.5 59.9197 269.08 59.5998 269 60.3398C269.07 59.8798 268.84 59.7097 268.9 59.1597C268.8 59.6797 268.5 60.1198 268.36 59.5598L268.38 59.4998C267.9 58.9398 267.6 60.2899 267.17 59.6099C267.2 60.1899 266.97 59.8799 267.04 60.6099C266.62 61.3499 266.23 59.1197 266.11 61.4097C265.92 61.5397 265.87 60.8798 265.76 60.7598L265.8 60.6396C265.44 60.8296 265.33 60.8598 265.06 60.8098C264.93 61.0398 264.93 62.0998 264.68 61.8398C264.75 61.4198 264.65 61.4998 264.56 61.4998C264.62 61.4298 264.63 61.2798 264.51 60.9998C264.5 61.1298 264.47 61.2098 264.45 61.2798C264.45 61.2498 264.45 61.2197 264.45 61.1797C264.3 61.3297 264.33 61.4598 264.4 61.5198C264.4 61.5798 264.4 61.6698 264.43 61.7798C264.26 61.2398 263.99 61.8199 263.96 61.0999C263.5 61.2799 263.19 62.0298 262.82 62.3198C262.77 61.9498 262.85 61.6197 262.96 61.4697L262.69 61.6099C262.69 61.0699 262.84 61.2997 262.92 61.1897C262.58 60.3297 262.27 62.0698 261.88 61.2798L261.81 61.7097L261.79 61.6396C261.79 61.8596 261.72 62.1697 261.66 62.2397C261.6 61.7697 261.64 61.1597 261.46 61.1997C261.3 60.7497 261.04 61.4297 260.86 61.6897C260.97 61.7697 260.94 62.0297 260.9 62.1897C260.81 62.2097 260.74 61.7397 260.68 61.9397L260.66 61.3098C260.71 61.8998 260.43 61.9597 260.4 62.2097C260.34 61.7397 260.54 61.8097 260.55 61.4497C260.18 61.5197 260.36 61.4798 259.99 61.5498C259.8 62.0298 260.04 62.1397 259.95 62.6997C259.78 62.8297 259.61 63.2696 259.4 62.8896L259.47 63.4497C259.15 63.8897 258.95 63.8298 258.71 63.2698C256.32 67.8698 258.31 69.4998 258.31 69.4998C259.31 70.7198 259.78 69.0799 260.93 68.6199L260.92 68.6597Z" fill="#20BB65"/>
<path d="M311.12 60.6494L311.2 60.8794C311.2 60.7694 311.18 60.6794 311.12 60.6494Z" fill="#20BB65"/>
<path d="M330.41 60.4797C330.41 60.4797 330.42 60.4497 330.43 60.4297C330.42 60.4497 330.41 60.4697 330.41 60.4797Z" fill="#20BB65"/>
<path d="M314.14 68.4795C314.14 68.4795 314.13 68.5196 314.12 68.5396L314.14 68.4795Z" fill="#20BB65"/>
<path d="M310.26 67.8599C311.28 68.1399 311.56 69.2198 312.61 68.7798C313.11 68.8698 313.65 68.6097 314.14 68.4797C314.37 67.6297 314.78 68.4698 315.06 67.7498L315.17 68.2297C315.26 67.9897 315.37 67.8198 315.47 68.0798V68.2197C315.6 67.8597 315.77 68.0696 315.84 67.8896V68.0298L316.01 67.9697L315.98 68.1697C316.22 67.7797 316.48 67.7597 316.71 67.9297L316.69 67.3499C317.17 67.9999 317.34 66.7898 317.78 67.5598V67.6997C318.31 66.1697 318.65 68.7398 319.21 67.2798C319.14 67.4598 319.24 67.5797 319.24 67.7197C319.5 67.5497 319.78 67.4698 319.78 66.3198C319.97 66.3298 319.94 66.6799 319.96 67.1199C319.96 66.6199 320.12 66.4096 320.27 66.3796L320.2 66.5698L320.62 66.3997L320.53 65.4597C320.76 65.7297 320.59 66.6096 320.81 66.3796V65.5999C321.12 65.7499 321.3 66.9398 321.61 67.5098C322.86 67.8398 324.2 65.8397 325.37 67.2097L325.42 67.7998C325.44 68.6598 325.74 66.5298 325.78 67.3198L325.92 66.9297C325.96 67.0797 326.04 67.2497 325.97 67.4397C326.1 67.4697 326.1 67.3298 326.19 67.0698L326.33 67.5999C326.83 68.0099 327.24 66.9797 327.77 67.1897C328.4 68.2697 329.57 67.2697 330.25 66.6797C331.21 65.3897 332.31 68.7998 333.29 67.3298C333.32 67.4498 333.4 67.1798 333.4 67.0798L334.29 67.1997C334.29 67.1997 338.62 67.5097 335.35 60.4197L335.37 60.2297C334.88 59.7797 334.57 59.6799 334.23 60.6199C334.18 59.4699 333.83 60.4996 333.71 60.1296V60.0398C333.42 60.9298 333.11 59.3099 332.82 60.0999C332.83 60.0099 332.84 59.6897 332.9 59.6697C332.69 59.8197 332.4 60.0697 332.39 59.3997C331.89 59.5797 331.19 59.2698 330.86 60.3398L330.88 60.1497C330.7 60.8697 330.64 60.2596 330.44 60.6296C330.43 60.5396 330.41 60.4997 330.42 60.4597C330.22 61.1697 329.84 60.5696 329.68 60.8796V60.4297L329.27 60.5398L329.42 60.6296C329.37 61.8596 329.12 59.8597 328.83 60.6597C328.56 60.5097 328.28 63.2099 328 62.6099C327.87 63.1799 328.12 61.6799 327.92 62.1199C327.92 61.4799 328.01 61.7197 327.96 61.2097C327.76 61.5097 327.64 60.5597 327.4 60.9897V60.4897C327.08 61.3997 326.79 59.8397 326.58 60.7097C326.26 61.1197 326.36 59.2297 326.02 60.2097L325.89 59.5398C325.74 59.4298 325.79 60.3698 325.63 60.0398C325.63 59.6198 325.43 59.6998 325.52 59.2998C325.15 58.6398 324.78 60.2396 324.3 59.1296C324.2 59.9496 323.96 59.4698 323.88 60.0898C323.87 59.7298 323.4 60.0298 323.66 59.2498C323.68 59.1898 323.72 59.1998 323.72 59.3398L323.75 58.8499C323.47 57.9299 323.25 59.3597 322.98 59.2197C323.06 59.3797 323.17 59.3397 323.1 59.6697L322.85 59.6099L322.9 59.1997L322.52 58.9597L322.57 59.4697C322.39 59.2097 322.32 58.3398 322.11 59.0698C322.02 59.4698 322.29 59.7597 322.09 59.9197C321.84 59.5697 321.47 59.0497 321.16 58.8997C321.19 59.4697 321.11 59.4498 321.02 59.5698V59.0698C320.68 59.7598 320.88 57.9798 320.55 58.5298L320.58 58.1797L320.5 59.2197C320.21 60.2097 320.33 58.1898 320.01 59.5398C320.14 59.4498 320.08 60.6397 319.92 60.4197L319.96 59.9397C319.87 60.0397 319.84 60.2396 319.78 60.1396C319.83 59.8796 319.8 59.4398 319.67 59.5198L319.75 58.9197L319.51 59.8098C319.32 59.2998 319.02 59.9398 318.94 59.2698C318.94 59.2698 318.53 58.9397 318.44 59.6797C318.52 59.2197 318.29 59.0398 318.35 58.4998C318.25 59.0198 317.93 59.4497 317.81 58.8997L317.83 58.8398C317.36 58.2698 317.04 59.6197 316.62 58.9297C316.64 59.5097 316.42 59.1897 316.48 59.9297C316.05 60.6597 315.68 58.4297 315.54 60.7197C315.34 60.8397 315.3 60.1898 315.2 60.0698L315.25 59.9497C314.88 60.1397 314.78 60.1599 314.5 60.1099C314.37 60.3299 314.35 61.3896 314.11 61.1396C314.19 60.7196 314.09 60.7998 314 60.7998C314.06 60.7298 314.07 60.5798 313.95 60.2998C313.93 60.4298 313.91 60.5098 313.88 60.5798C313.88 60.5498 313.88 60.5197 313.88 60.4797C313.73 60.6297 313.76 60.7598 313.83 60.8198C313.83 60.8798 313.83 60.9698 313.86 61.0798C313.7 60.5398 313.42 61.1196 313.39 60.3896C312.93 60.5596 312.61 61.3098 312.23 61.5898C312.18 61.2198 312.27 60.8897 312.38 60.7397L312.11 60.8796C312.11 60.3396 312.26 60.5697 312.35 60.4597C312.02 59.5897 311.69 61.3298 311.31 60.5298L311.24 60.9497L311.22 60.8796C311.22 61.0996 311.14 61.4097 311.09 61.4797C311.03 61.0097 311.09 60.3997 310.9 60.4297C310.75 59.9797 310.48 60.6597 310.29 60.9097C310.4 60.9897 310.36 61.2497 310.32 61.4097C310.23 61.4297 310.17 60.9597 310.1 61.1597L310.08 60.5298C310.12 61.1198 309.84 61.1697 309.81 61.4297C309.75 60.9597 309.95 61.0297 309.97 60.6797C309.59 60.7397 309.78 60.7098 309.41 60.7698C309.21 61.2498 309.45 61.3697 309.36 61.9197C309.18 62.0397 309.02 62.4799 308.81 62.1099L308.88 62.6697C308.55 63.1097 308.35 63.0397 308.12 62.4797C305.7 67.0497 307.67 68.7097 307.67 68.7097C308.65 69.9397 309.14 68.3099 310.29 67.8699L310.26 67.8599Z" fill="#20BB65"/>
<path d="M360.6 60.9194L360.67 61.1494C360.67 61.0394 360.65 60.9494 360.6 60.9194Z" fill="#20BB65"/>
<path d="M379.92 61.5496C379.92 61.5496 379.93 61.5195 379.94 61.4995C379.93 61.5195 379.92 61.5296 379.92 61.5496Z" fill="#20BB65"/>
<path d="M363.34 68.8696C363.34 68.8696 363.33 68.9094 363.32 68.9294L363.35 68.8696H363.34Z" fill="#20BB65"/>
<path d="M359.5 68.0896C360.51 68.4096 360.75 69.4996 361.81 69.0996C362.31 69.2096 362.85 68.9796 363.34 68.8596C363.6 68.0196 363.98 68.8694 364.28 68.1694L364.37 68.6494C364.47 68.4094 364.59 68.2495 364.68 68.5095V68.6494C364.82 68.2894 364.98 68.5096 365.05 68.3396V68.4795L365.21 68.4194L365.17 68.6196C365.43 68.2396 365.68 68.2294 365.9 68.4094V67.8296C366.36 68.4996 366.57 67.2996 366.98 68.0896V68.2295C367.57 66.7195 367.8 69.2996 368.41 67.8696C368.33 68.0496 368.43 68.1696 368.41 68.3096C368.68 68.1496 368.96 68.0795 369 66.9395C369.19 66.9595 369.14 67.2995 369.15 67.7395C369.17 67.2395 369.34 67.0395 369.49 67.0095L369.42 67.1995L369.85 67.0496L369.8 66.0996C370.01 66.3796 369.81 67.2495 370.04 67.0295L370.07 66.2495C370.38 66.4195 370.51 67.5995 370.79 68.1895C372.02 68.5695 373.45 66.6296 374.55 68.0396L374.58 68.6294C374.57 69.4894 374.96 67.3694 374.97 68.1694L375.12 67.7795C375.15 67.9295 375.22 68.0996 375.15 68.2896C375.27 68.3296 375.28 68.1894 375.38 67.9294L375.49 68.4695C375.96 68.8995 376.43 67.8896 376.94 68.1196C377.51 69.2296 378.73 68.2695 379.44 67.7195C380.46 66.4795 381.39 69.9295 382.43 68.4995C382.46 68.6195 382.55 68.3495 382.56 68.2495L383.44 68.3994C383.44 68.3994 387.75 68.8894 384.85 61.6694L384.88 61.4895C384.41 61.0195 384.11 60.9096 383.72 61.8296C383.72 60.6796 383.32 61.6996 383.23 61.3196L383.25 61.2295C382.9 62.0995 382.67 60.4695 382.34 61.2495C382.36 61.1595 382.38 60.8396 382.45 60.8296C382.23 60.9696 381.93 61.2096 381.95 60.5396C381.44 60.6996 380.75 60.3594 380.38 61.4194L380.41 61.2395C380.19 61.9495 380.17 61.3395 379.94 61.6995C379.94 61.6095 379.92 61.5695 379.92 61.5295C379.69 62.2395 379.33 61.6194 379.15 61.9194V61.4695L378.76 61.5596L378.9 61.6594C378.79 62.8794 378.64 60.8794 378.31 61.6594C378.05 61.4994 377.64 64.1796 377.39 63.5696C377.23 64.1396 377.55 62.6396 377.33 63.0796C377.35 62.4396 377.44 62.6794 377.41 62.1694C377.2 62.4694 377.12 61.5094 376.86 61.9294V61.4294C376.52 62.3294 376.31 60.7496 376.06 61.6096C375.72 62.0096 375.91 60.1296 375.52 61.0896L375.42 60.4094C375.28 60.2994 375.28 61.2294 375.13 60.8994C375.16 60.4794 374.94 60.5494 375.05 60.1594C374.71 59.4794 374.27 61.0695 373.84 59.9395C373.7 60.7595 373.48 60.2594 373.38 60.8794C373.38 60.5194 372.9 60.7995 373.2 60.0295C373.23 59.9695 373.27 59.9796 373.26 60.1196L373.31 59.6294C373.07 58.6994 372.79 60.1195 372.53 59.9695C372.6 60.1395 372.71 60.0994 372.63 60.4294L372.38 60.3496L372.45 59.9395L372.08 59.6895L372.11 60.1995C371.94 59.9295 371.91 59.0595 371.67 59.7795C371.56 60.1795 371.82 60.4696 371.62 60.6196C371.39 60.2596 371.04 59.7296 370.73 59.5596C370.73 60.1296 370.65 60.1095 370.56 60.2195V59.7195C370.21 60.3995 370.49 58.6194 370.14 59.1594L370.18 58.8096L370.05 59.8496C369.72 60.8296 369.93 58.8094 369.55 60.1494C369.68 60.0694 369.57 61.2495 369.42 61.0295L369.48 60.5496C369.39 60.6496 369.35 60.8495 369.29 60.7495C369.35 60.4895 369.34 60.0494 369.21 60.1294L369.32 59.5295L369.04 60.4094C368.87 59.8894 368.54 60.5196 368.49 59.8396C368.49 59.8396 368.09 59.4895 367.97 60.2295C368.07 59.7695 367.85 59.5896 367.93 59.0496C367.81 59.5696 367.48 59.9794 367.37 59.4194L367.4 59.3596C366.95 58.7796 366.58 60.1094 366.18 59.3994C366.18 59.9794 365.97 59.6594 366 60.3994C365.54 61.1094 365.26 58.8694 365.03 61.1494C364.83 61.2694 364.81 60.6095 364.71 60.4895L364.76 60.3696C364.39 60.5396 364.28 60.5595 364.01 60.4995C363.87 60.7195 363.81 61.7795 363.58 61.5095C363.67 61.0895 363.57 61.1694 363.48 61.1594C363.54 61.0994 363.56 60.9394 363.45 60.6494C363.43 60.7794 363.4 60.8594 363.37 60.9194C363.37 60.8894 363.37 60.8596 363.37 60.8196C363.21 60.9596 363.24 61.0994 363.31 61.1594C363.31 61.2194 363.31 61.3094 363.33 61.4194C363.19 60.8694 362.89 61.4395 362.89 60.7195C362.43 60.8695 362.08 61.6096 361.69 61.8696C361.66 61.4996 361.76 61.1695 361.87 61.0295L361.6 61.1594C361.62 60.6194 361.76 60.8595 361.85 60.7495C361.55 59.8695 361.16 61.5895 360.8 60.7795L360.71 61.1995L360.69 61.1294C360.69 61.3494 360.59 61.6595 360.53 61.7295C360.49 61.2595 360.56 60.6494 360.37 60.6794C360.23 60.2194 359.94 60.8894 359.74 61.1294C359.84 61.2094 359.8 61.4694 359.75 61.6294C359.66 61.6394 359.61 61.1696 359.54 61.3696V60.7395C359.57 61.3395 359.29 61.3694 359.25 61.6294C359.21 61.1594 359.4 61.2294 359.44 60.8794C359.06 60.9194 359.25 60.8995 358.87 60.9495C358.66 61.4195 358.89 61.5496 358.78 62.0996C358.6 62.2196 358.42 62.6495 358.22 62.2595L358.27 62.8196C357.93 63.2396 357.73 63.1696 357.52 62.5996C354.96 67.0596 356.87 68.7996 356.87 68.7996C357.81 70.0696 358.34 68.4596 359.51 68.0696L359.5 68.0896Z" fill="#20BB65"/>
<path d="M410.12 63.75L410.17 63.99C410.17 63.88 410.17 63.79 410.12 63.75Z" fill="#20BB65"/>
<path d="M429.4 66.1897C429.4 66.1897 429.42 66.1596 429.43 66.1396C429.41 66.1596 429.41 66.1697 429.4 66.1897Z" fill="#20BB65"/>
<path d="M412.22 71.8599C412.22 71.8599 412.2 71.8897 412.19 71.9197L412.22 71.8599Z" fill="#20BB65"/>
<path d="M408.47 70.8198C409.45 71.1998 409.6 72.3097 410.68 71.9797C411.16 72.1197 411.72 71.9299 412.22 71.8499C412.54 71.0399 412.86 71.9097 413.21 71.2397L413.26 71.7297C413.38 71.4997 413.51 71.3499 413.57 71.6199L413.55 71.7598C413.73 71.4198 413.86 71.6497 413.95 71.4797L413.93 71.6199L414.11 71.5798L414.06 71.7698C414.35 71.4198 414.6 71.4199 414.8 71.6199L414.85 71.0398C415.25 71.7398 415.56 70.5696 415.9 71.3796L415.88 71.5198C416.61 70.0598 416.6 72.6598 417.34 71.2898C417.25 71.4598 417.34 71.5897 417.31 71.7297C417.59 71.5997 417.87 71.5497 418.02 70.4197C418.21 70.4597 418.13 70.7897 418.1 71.2297C418.16 70.7297 418.35 70.5498 418.5 70.5398L418.41 70.7197L418.85 70.6099L418.89 69.6597C419.08 69.9597 418.8 70.8099 419.04 70.6099L419.14 69.8298C419.43 70.0198 419.45 71.2198 419.67 71.8298C420.85 72.3198 422.45 70.5298 423.4 72.0598L423.37 72.6497C423.27 73.4997 423.87 71.4397 423.8 72.2297L423.99 71.8599C424.01 72.0199 424.06 72.1899 423.97 72.3699C424.09 72.4199 424.11 72.2798 424.24 72.0398L424.29 72.5898C424.71 73.0698 425.28 72.1197 425.75 72.3997C426.2 73.5697 427.49 72.7598 428.25 72.2998C429.4 71.1898 429.91 74.7397 431.1 73.4497C431.11 73.5697 431.24 73.3197 431.25 73.2197L432.1 73.4897C432.1 73.4897 433.14 73.7598 433.94 73.0898C434.73 72.4198 435.33 70.7998 434.33 67.0098L434.39 66.8298C433.98 66.2898 433.69 66.1398 433.19 67.0098C433.34 65.8698 432.81 66.8197 432.76 66.4297L432.79 66.3398C432.34 67.1598 432.3 65.4997 431.88 66.2397C431.91 66.1497 431.97 65.8398 432.04 65.8298C431.81 65.9398 431.48 66.1397 431.57 65.4797C431.04 65.5697 430.39 65.1397 429.89 66.1497L429.94 65.9697C429.64 66.6497 429.69 66.0399 429.42 66.3699C429.42 66.2799 429.42 66.2297 429.42 66.1997C429.11 66.8697 428.82 66.2197 428.61 66.4897L428.67 66.0498L428.26 66.0898L428.39 66.2097C428.15 67.4097 428.21 65.3996 427.8 66.1396C427.55 65.9496 426.86 68.5697 426.68 67.9297C426.46 68.4797 426.94 67.0297 426.68 67.4297C426.77 66.7997 426.83 67.0498 426.86 66.5398C426.62 66.8098 426.64 65.8497 426.33 66.2397L426.39 65.7498C425.94 66.5998 425.89 65.0098 425.55 65.8398C425.17 66.1998 425.55 64.3498 425.07 65.2598L425.04 64.5698C424.91 64.4398 424.82 65.3698 424.7 65.0298C424.77 64.6098 424.55 64.6698 424.7 64.2798C424.43 63.5698 423.83 65.1097 423.5 63.9297C423.28 64.7297 423.11 64.2098 422.94 64.8098C422.98 64.4498 422.46 64.6897 422.84 63.9497C422.87 63.8897 422.91 63.9098 422.89 64.0498L422.99 63.5698C422.84 62.6198 422.42 63.9998 422.17 63.8298C422.23 63.9998 422.34 63.9698 422.22 64.2998L421.98 64.1997L422.09 63.7998L421.75 63.5098L421.73 64.0198C421.58 63.7398 421.63 62.8698 421.33 63.5598C421.18 63.9498 421.41 64.2597 421.2 64.3997C421 64.0197 420.7 63.4598 420.41 63.2598C420.36 63.8298 420.28 63.7997 420.18 63.9097L420.23 63.4097C419.81 64.0497 420.25 62.3098 419.85 62.8098L419.92 62.4697L419.7 63.4897C419.28 64.4297 419.67 62.4397 419.17 63.7397C419.31 63.6697 419.09 64.8399 418.96 64.5999L419.06 64.1296C418.96 64.2196 418.9 64.4198 418.86 64.3098C418.95 64.0598 418.98 63.6197 418.84 63.6897L419 63.0999L418.64 63.9497C418.51 63.4097 418.13 64.0198 418.14 63.3398C418.14 63.3398 417.77 62.9597 417.58 63.6797C417.72 63.2297 417.51 63.0298 417.64 62.4998C417.47 62.9998 417.1 63.3898 417.04 62.8198L417.07 62.7598C416.67 62.1398 416.18 63.4397 415.84 62.6997C415.79 63.2797 415.61 62.9397 415.57 63.6797C415.05 64.3597 414.95 62.0999 414.54 64.3499C414.33 64.4499 414.37 63.7897 414.28 63.6597L414.34 63.5498C413.95 63.6898 413.84 63.6999 413.57 63.6199C413.41 63.8299 413.27 64.8799 413.05 64.5999C413.18 64.1899 413.07 64.2598 412.98 64.2498C413.05 64.1898 413.08 64.0397 412.99 63.7397C412.96 63.8697 412.92 63.9498 412.89 64.0098C412.89 63.9798 412.89 63.9497 412.89 63.9097C412.72 64.0397 412.73 64.1697 412.8 64.2397C412.79 64.2997 412.79 64.3898 412.8 64.5098C412.7 63.9498 412.35 64.4998 412.41 63.7798C411.93 63.8998 411.52 64.5998 411.11 64.8398C411.11 64.4598 411.23 64.1498 411.36 64.0098L411.07 64.1199C411.13 63.5899 411.26 63.8297 411.35 63.7297C411.12 62.8297 410.59 64.5197 410.3 63.6897L410.18 64.0999L410.16 64.0298C410.14 64.2498 410.02 64.5499 409.96 64.6099C409.96 64.1399 410.07 63.5398 409.88 63.5498C409.78 63.0898 409.44 63.7297 409.22 63.9597C409.32 64.0497 409.26 64.2997 409.19 64.4597C409.1 64.4597 409.09 63.9997 409 64.1897L409.05 63.5598C409.03 64.1498 408.74 64.1697 408.68 64.4297C408.68 63.9597 408.87 64.0497 408.92 63.6997C408.54 63.7197 408.73 63.7097 408.35 63.7297C408.1 64.1797 408.33 64.3299 408.18 64.8699C407.99 64.9699 407.78 65.3898 407.61 64.9998V65.5598C407.25 65.9598 407.05 65.8798 406.89 65.2898C404 69.5898 405.78 71.4397 405.78 71.4397C406.62 72.7597 407.27 71.1899 408.45 70.8699L408.47 70.8198Z" fill="#20BB65"/>
<path d="M459.13 73.3301V73.5801C459.16 73.4801 459.17 73.3801 459.13 73.3301Z" fill="#20BB65"/>
<path d="M477.28 81.4397C477.28 81.4397 477.3 81.4197 477.32 81.4097C477.3 81.4097 477.29 81.4297 477.28 81.4397Z" fill="#20BB65"/>
<path d="M459.29 81.6997C459.29 81.6997 459.27 81.7298 459.25 81.7498L459.29 81.6997Z" fill="#20BB65"/>
<path d="M455.98 79.8796C456.83 80.4496 456.72 81.5697 457.82 81.4797C458.25 81.7197 458.81 81.6596 459.3 81.6996C459.8 80.9796 459.88 81.8998 460.38 81.3298L460.31 81.8097C460.48 81.6197 460.64 81.4997 460.63 81.7797L460.58 81.9096C460.84 81.6196 460.9 81.8797 461.03 81.7297L460.97 81.8598H461.15L461.05 82.0397C461.41 81.7697 461.65 81.8298 461.79 82.0698L461.99 81.5197C462.18 82.2897 462.79 81.2398 462.89 82.1098L462.83 82.2397C463.9 81.0297 463.2 83.5196 464.26 82.3896C464.13 82.5296 464.17 82.6797 464.11 82.7997C464.4 82.7497 464.68 82.7697 465.14 81.7297C465.3 81.8197 465.14 82.1197 464.98 82.5297C465.18 82.0697 465.41 81.9397 465.55 81.9697L465.41 82.1198H465.86L466.17 81.2297C466.26 81.5697 465.76 82.2996 466.04 82.1796L466.35 81.4596C466.57 81.7196 466.24 82.8797 466.27 83.5197C467.21 84.3097 469.25 83.0798 469.63 84.8298L469.41 85.3796C469.04 86.1496 470.26 84.3898 469.94 85.1198L470.24 84.8298C470.2 84.9798 470.19 85.1597 470.05 85.2997C470.14 85.3797 470.21 85.2598 470.41 85.0698L470.28 85.5998C470.5 86.1898 471.33 85.4696 471.67 85.8896C471.66 87.1196 473.1 86.7996 473.96 86.6396C475.43 86.0296 474.47 89.4697 476.02 88.7397C475.98 88.8597 476.19 88.6798 476.25 88.5898L476.87 89.1696C476.87 89.1696 477.07 89.3297 477.38 89.4597C477.69 89.5896 478.13 89.6897 478.62 89.5597C479.59 89.2797 480.92 88.1597 481.65 84.2697L481.78 84.1296C481.63 83.4496 481.41 83.1797 480.58 83.7497C481.19 82.7697 480.3 83.4097 480.41 83.0297L480.47 82.9596C479.71 83.5096 480.34 81.9797 479.64 82.4697C479.7 82.3997 479.88 82.1396 479.95 82.1596C479.68 82.1596 479.29 82.2096 479.64 81.6396C479.1 81.4896 478.63 80.8298 477.78 81.5698L477.9 81.4196C477.36 81.9296 477.63 81.3798 477.26 81.5798C477.3 81.4998 477.31 81.4496 477.33 81.4196C476.78 81.9196 476.76 81.1996 476.45 81.3796L476.67 80.9897L476.26 80.8698L476.35 81.0297C475.69 82.0597 476.47 80.2097 475.81 80.7497C475.64 80.4697 474.07 82.6797 474.11 82.0197C473.71 82.4597 474.67 81.2597 474.28 81.5497C474.58 80.9897 474.56 81.2497 474.76 80.7797C474.44 80.9497 474.78 80.0497 474.36 80.3097L474.59 79.8698C473.87 80.5098 474.36 78.9996 473.75 79.6596C473.26 79.8596 474.24 78.2496 473.47 78.9496L473.66 78.2897C473.57 78.1197 473.18 78.9698 473.18 78.6098C473.38 78.2398 473.15 78.2096 473.42 77.8996C473.38 77.1396 472.31 78.3796 472.36 77.1596C471.9 77.8496 471.89 77.2998 471.54 77.8198C471.69 77.4898 471.11 77.5497 471.71 76.9697C471.76 76.9197 471.79 76.9498 471.73 77.0798L471.97 76.6596C472.11 75.6996 471.28 76.8896 471.08 76.6396C471.08 76.8196 471.21 76.8298 470.99 77.0998L470.78 76.9296L471.01 76.5798L470.76 76.1996L470.59 76.6796C470.53 76.3596 470.83 75.5498 470.33 76.1198C470.07 76.4498 470.21 76.8196 469.96 76.8796C469.87 76.4596 469.74 75.8197 469.5 75.5497C469.29 76.0897 469.22 76.0298 469.09 76.0998L469.28 75.6396C468.68 76.1296 469.61 74.5896 469.07 74.9496L469.24 74.6396L468.74 75.5597C468.06 76.3397 469 74.5496 468.14 75.6396C468.3 75.6196 467.76 76.6696 467.7 76.4096L467.93 75.9897C467.8 76.0497 467.7 76.2198 467.68 76.0998C467.83 75.8798 467.98 75.4697 467.83 75.4897L468.15 74.9697L467.56 75.6796C467.58 75.1296 467.04 75.5996 467.23 74.9396C467.23 74.9396 466.96 74.4698 466.59 75.1198C466.85 74.7298 466.7 74.4697 466.96 73.9997C466.66 74.4397 466.19 74.7096 466.28 74.1496L466.33 74.0998C466.09 73.3898 465.27 74.4996 465.12 73.7096C464.93 74.2496 464.83 73.8798 464.61 74.5898C463.93 75.1098 464.39 72.8897 463.42 74.9697C463.19 75.0097 463.39 74.3797 463.33 74.2397L463.42 74.1396C463 74.1796 462.89 74.1697 462.64 74.0197C462.43 74.1797 462.04 75.1698 461.9 74.8398C462.12 74.4698 462 74.5097 461.91 74.4797C461.99 74.4397 462.06 74.2997 462.04 73.9897C461.98 74.1097 461.93 74.1697 461.88 74.2297C461.89 74.1997 461.89 74.1696 461.91 74.1296C461.71 74.2196 461.69 74.3496 461.74 74.4296C461.71 74.4896 461.69 74.5696 461.67 74.6896C461.7 74.1196 461.23 74.5696 461.46 73.8796C460.96 73.8796 460.39 74.4798 459.94 74.6098C460.02 74.2398 460.22 73.9598 460.37 73.8598L460.06 73.8996C460.24 73.3896 460.31 73.6598 460.43 73.5898C460.4 72.6598 459.5 74.1797 459.4 73.3097L459.19 73.6896V73.6198C459.12 73.8298 458.94 74.0896 458.86 74.1396C458.96 73.6796 459.21 73.1198 459.02 73.0898C459.02 72.6198 458.54 73.1698 458.27 73.3498C458.35 73.4598 458.23 73.6898 458.14 73.8398C458.04 73.8198 458.14 73.3597 458.01 73.5297L458.2 72.9296C458.05 73.5096 457.76 73.4596 457.65 73.6996C457.74 73.2396 457.92 73.3597 458.05 73.0397C457.67 72.9797 457.86 73.0096 457.48 72.9396C457.14 73.3296 457.33 73.5197 457.07 74.0097C456.86 74.0697 456.56 74.4297 456.48 74.0097L456.37 74.5597C455.92 74.8697 455.75 74.7496 455.7 74.1496C453.84 75.9596 453.28 77.4096 453.16 78.4096C453.04 79.4096 453.37 79.9396 453.37 79.9396C453.9 81.3996 454.84 79.9796 456.04 79.9196L455.98 79.8796Z" fill="#20BB65"/>
<path d="M496.53 103.899L496.32 104.01C496.42 103.98 496.51 103.939 496.53 103.899Z" fill="#20BB65"/>
<path d="M489.56 105.79C489.44 106.31 488.44 106.75 489 107.04C488.98 107.27 489.28 107.42 489.47 107.59C490.31 107.46 489.55 107.86 490.27 107.79L489.82 107.959C490.06 107.939 490.24 107.94 490 108.05L489.86 108.08C490.23 108.05 490.04 108.169 490.22 108.159L490.08 108.189L490.16 108.25L489.96 108.29C490.36 108.3 490.41 108.41 490.26 108.54L490.82 108.399C490.24 108.759 491.43 108.559 490.72 108.919L490.58 108.949C492.13 108.869 489.64 109.54 491.11 109.49C490.93 109.49 490.82 109.56 490.68 109.59C490.87 109.67 490.97 109.78 492.09 109.56C492.09 109.65 491.75 109.7 491.32 109.79C491.81 109.7 492.03 109.73 492.07 109.79H491.87L492.07 109.959L492.99 109.75C492.74 109.9 491.86 109.98 492.11 110.04L492.88 109.899C492.76 110.069 491.61 110.36 491.06 110.59C490.82 111.18 492.88 111.54 491.57 112.24L490.99 112.33C490.14 112.43 492.27 112.329 491.48 112.439L491.88 112.459C491.73 112.489 491.57 112.55 491.37 112.54C491.34 112.6 491.48 112.59 491.75 112.6L491.23 112.709C490.84 112.969 491.88 113.07 491.69 113.32C490.63 113.68 491.66 114.139 492.25 114.429C493.55 114.839 490.15 115.44 491.62 115.85C491.5 115.87 491.77 115.899 491.87 115.899L491.75 116.31C491.75 116.31 491.66 116.799 492.46 117.139C493.26 117.459 494.95 117.719 498.52 116.919L498.71 116.939C499.17 116.679 499.28 116.51 498.33 116.32C499.48 116.3 498.45 116.1 498.82 116.04H498.91C498.02 115.89 499.65 115.7 498.85 115.55C498.94 115.55 499.26 115.55 499.28 115.59C499.14 115.48 498.88 115.32 499.55 115.3C499.37 115.03 499.67 114.62 498.59 114.49H498.78C498.06 114.42 498.67 114.37 498.3 114.27C498.39 114.27 498.43 114.25 498.47 114.25C497.75 114.17 498.34 113.94 498.03 113.87L498.47 113.84L498.36 113.629L498.27 113.719C497.05 113.759 499.03 113.509 498.23 113.399C498.37 113.239 495.67 113.28 496.26 113.1C495.68 113.07 497.19 113.1 496.75 113.02C497.39 112.97 497.15 113.039 497.66 112.969C497.35 112.889 498.3 112.749 497.86 112.649L498.36 112.6C497.44 112.51 498.99 112.219 498.11 112.179C497.68 112.039 499.57 111.92 498.58 111.83L499.24 111.689C499.34 111.599 498.41 111.72 498.73 111.6C499.15 111.56 499.05 111.449 499.46 111.459C500.1 111.179 498.48 111.16 499.56 110.75C498.73 110.8 499.2 110.599 498.58 110.639C498.94 110.589 498.6 110.369 499.4 110.409C499.47 110.409 499.46 110.439 499.32 110.459L499.81 110.409C500.7 110.129 499.27 110.2 499.39 110.03C499.24 110.1 499.29 110.149 498.95 110.159L498.99 110.01L499.4 109.979L499.61 109.729L499.11 109.83C499.35 109.69 500.2 109.52 499.47 109.51C499.06 109.52 498.81 109.709 498.63 109.629C498.95 109.439 499.44 109.149 499.56 108.949C499 109.059 499.01 109.009 498.89 108.979L499.38 108.889C498.66 108.819 500.45 108.63 499.87 108.54L500.21 108.5L499.18 108.639C498.18 108.649 500.18 108.359 498.82 108.419C498.92 108.479 497.75 108.66 497.94 108.53L498.42 108.459C498.31 108.429 498.11 108.459 498.2 108.399C498.46 108.379 498.89 108.279 498.8 108.229L499.4 108.169L498.51 108.199C499 107.989 498.33 107.96 498.98 107.78C498.98 107.78 499.26 107.48 498.52 107.58C498.98 107.53 499.13 107.37 499.66 107.29C499.14 107.34 498.68 107.26 499.21 107.07H499.27C499.77 106.68 498.41 106.799 499.03 106.409C498.47 106.559 498.75 106.36 498.04 106.56C497.28 106.51 499.39 105.76 497.16 106.24C497.01 106.17 497.64 105.979 497.74 105.899H497.86C497.63 105.739 497.59 105.69 497.6 105.53C497.37 105.52 496.34 105.79 496.55 105.59C496.97 105.52 496.88 105.489 496.86 105.439C496.93 105.449 497.08 105.42 497.34 105.28C497.21 105.31 497.13 105.31 497.06 105.32C497.09 105.32 497.12 105.3 497.16 105.29C496.99 105.25 496.87 105.3 496.83 105.35C496.77 105.37 496.69 105.389 496.58 105.439C497.08 105.209 496.48 105.22 497.17 105.01C496.94 104.81 496.17 104.86 495.84 104.75C496.19 104.62 496.52 104.56 496.67 104.58L496.5 104.479C497.01 104.319 496.82 104.469 496.94 104.479C497.71 104.049 496 104.389 496.69 103.949L496.27 104.04L496.33 104.01C496.12 104.08 495.81 104.129 495.74 104.129C496.17 103.949 496.76 103.789 496.7 103.699C497.1 103.479 496.41 103.55 496.14 103.53C496.08 103.61 495.83 103.679 495.67 103.709C495.64 103.669 496.07 103.49 495.87 103.52L496.46 103.31C495.91 103.53 495.81 103.399 495.56 103.469C495.99 103.289 495.97 103.41 496.3 103.3C496.17 103.13 496.24 103.21 496.11 103.04C495.63 103.1 495.56 103.259 495.02 103.399C494.87 103.349 494.43 103.419 494.75 103.189L494.24 103.419C493.78 103.409 493.8 103.299 494.28 102.979C491.92 103.209 490.47 103.779 489.59 104.219C488.71 104.669 488.39 105.01 488.39 105.01C487.39 105.84 488.98 105.44 489.56 105.79Z" fill="#20BB65"/>
</svg>
