<svg width="235" height="109" viewBox="0 0 235 109" fill="none" xmlns="http://www.w3.org/2000/svg">
<path d="M9.18005 2.25049L9.00006 2.41052C9.10006 2.37052 9.17005 2.31049 9.18005 2.25049Z" fill="#ACDE45"/>
<path d="M18.7601 17.6304C18.7601 17.6304 18.7901 17.6204 18.8101 17.6104C18.7901 17.6104 18.7701 17.6104 18.7601 17.6304Z" fill="#ACDE45"/>
<path d="M2.36007 4.15033C2.51007 5.24033 1.68005 5.93034 2.52005 6.78033C2.67005 7.30033 3.14007 7.71031 3.48007 8.13031C4.32007 7.99031 3.79007 8.74025 4.54007 8.69025L4.17007 9.00031C4.43007 8.9803 4.62009 9.01028 4.44009 9.22028L4.3201 9.28033C4.7001 9.25033 4.59006 9.50029 4.78006 9.48029L4.66006 9.54034L4.80008 9.67035L4.61007 9.73029C5.06007 9.79029 5.20007 10.0204 5.17007 10.3004L5.66006 10.0203C5.35006 10.7603 6.46005 10.3603 6.02005 11.1203L5.90005 11.1804C7.47005 10.9504 5.46008 12.4803 6.99008 12.2903C6.80008 12.3203 6.75009 12.4603 6.63009 12.5303C6.91009 12.6803 7.13004 12.8903 8.08004 12.3303C8.17004 12.5103 7.8601 12.6503 7.5101 12.8903C7.9301 12.6403 8.19007 12.6804 8.29007 12.8004L8.09005 12.8403L8.46005 13.1303L9.20004 12.5803C9.10004 12.9103 8.28004 13.2203 8.58004 13.2903L9.23007 12.8903C9.27007 13.2403 8.39004 14.0103 8.08004 14.5803C8.52004 15.8803 10.9001 15.9402 10.5101 17.6902L10.08 18.0703C9.42004 18.5803 11.2801 17.6203 10.6801 18.1103L11.0701 18.0003C10.9701 18.1203 10.89 18.2803 10.7 18.3403C10.75 18.4603 10.8601 18.3904 11.1201 18.3104L10.7901 18.7303C10.7801 19.3903 11.8401 19.1402 12.0101 19.6902C11.5801 20.8502 13.1101 21.2303 14.0001 21.4003C15.5601 21.3403 13.82 24.3903 15.58 24.2103C15.51 24.3103 15.7701 24.2003 15.8401 24.1303L16.3801 24.8903C16.3801 24.8903 17.1001 25.7703 18.1501 25.7103C19.2101 25.6703 20.5 24.6303 21.89 21.0903L22.0301 20.9803C22.0301 20.3403 21.9 20.0703 21.02 20.4603C21.81 19.6603 20.8501 20.1003 21.0401 19.7803L21.1101 19.7303C20.2801 20.1003 21.2501 18.8203 20.5001 19.1403C20.5701 19.0903 20.8101 18.8903 20.8601 18.9203C20.6301 18.8703 20.2601 18.8303 20.7401 18.3903C20.3101 18.1503 20.1001 17.4703 19.1201 17.9103L19.27 17.8104C18.62 18.1304 19.0501 17.7103 18.6501 17.7903C18.7101 17.7303 18.7301 17.6903 18.7601 17.6703C18.1001 17.9703 18.3201 17.3203 18.0001 17.3903L18.33 17.1103L18.0101 16.8803L18.0301 17.0504C17.0701 17.7604 18.4401 16.3603 17.6601 16.6303C17.6201 16.3403 15.3901 17.7604 15.6801 17.1804C15.1601 17.4204 16.4701 16.7103 16.0101 16.8203C16.5001 16.4303 16.3701 16.6504 16.7401 16.3104C16.3901 16.3404 17.05 15.6803 16.58 15.7603L16.96 15.4603C16.08 15.7503 17.1401 14.6303 16.3401 14.9703C15.8301 14.9603 17.3801 13.9503 16.4201 14.2603L16.8801 13.7703C16.8801 13.6003 16.1701 14.1703 16.3401 13.8603C16.6801 13.6303 16.5001 13.5103 16.8701 13.3503C17.2001 12.7003 15.7301 13.3203 16.3701 12.3303C15.6501 12.7103 15.9201 12.2503 15.3801 12.5403C15.6601 12.3303 15.18 12.1303 15.95 11.9203C16.01 11.9003 16.0201 11.9403 15.9101 12.0203L16.3201 11.7803C16.9301 11.0703 15.6601 11.6803 15.6301 11.3903C15.5401 11.5403 15.6301 11.6003 15.3201 11.7303L15.2401 11.5003L15.6001 11.3203V10.9003L15.2201 11.2103C15.3401 10.9303 16.0201 10.4203 15.3201 10.6503C14.9401 10.7903 14.8501 11.1503 14.6201 11.0803C14.7801 10.7003 15.0301 10.1403 15.0101 9.82025C14.5501 10.1403 14.53 10.0604 14.39 10.0504L14.8001 9.79034C14.0601 9.89034 15.6501 9.13034 15.0301 9.16034L15.33 9.01031L14.4201 9.47028C13.4501 9.74028 15.2001 8.8303 13.9201 9.2403C14.0501 9.3003 13.03 9.84028 13.14 9.60028L13.5601 9.39032C13.4301 9.37032 13.2501 9.45028 13.3101 9.35028C13.5501 9.26028 13.9101 9.02027 13.7801 8.96027L14.3201 8.73029L13.46 8.97028C13.8 8.56028 13.1201 8.6403 13.6501 8.2403C13.6501 8.2403 13.7401 7.75034 13.0701 8.04034C13.5001 7.88034 13.5401 7.62034 14.0301 7.41034C13.5401 7.58034 13.04 7.53034 13.46 7.16034H13.52C13.8 6.51034 12.5001 6.87028 12.9101 6.22028C12.4201 6.50028 12.5901 6.18036 11.9801 6.56036C11.1601 6.53036 12.9501 5.23031 10.9001 6.13031C10.7101 6.02031 11.2601 5.70036 11.3201 5.56036H11.4401C11.1201 5.32036 11.0501 5.2403 10.9901 4.9903C10.7401 4.9703 9.80008 5.41027 9.93008 5.09027C10.3301 4.98027 10.2201 4.93028 10.1901 4.85028C10.2701 4.87028 10.4101 4.82028 10.6101 4.60028C10.4901 4.64028 10.4101 4.65034 10.3401 4.66034C10.3701 4.65034 10.3901 4.63029 10.4301 4.61029C10.2401 4.54029 10.1301 4.62027 10.1101 4.71027C10.0501 4.73027 9.98004 4.77027 9.89004 4.84027C10.3 4.47027 9.68009 4.48034 10.3101 4.16034C9.98009 3.84034 9.18006 3.87032 8.78006 3.64032C9.09006 3.45032 9.42005 3.40025 9.59005 3.44025L9.37008 3.26032C9.85008 3.05032 9.70004 3.27035 9.83004 3.30035C10.48 2.68035 8.81008 3.07036 9.37008 2.43036L8.96005 2.53033L9.0101 2.48029C8.8101 2.57029 8.50007 2.61027 8.42007 2.59027C8.82007 2.36027 9.38007 2.18033 9.29007 2.03033C9.64007 1.73033 8.94004 1.75036 8.64004 1.68036C8.61004 1.80036 8.36004 1.87032 8.20004 1.89032C8.15004 1.81032 8.55006 1.59028 8.35006 1.60028L8.91006 1.36029C8.39006 1.61029 8.24009 1.38026 8.00009 1.45026C8.40009 1.23026 8.41008 1.43025 8.74008 1.32025C8.55008 1.01025 8.65005 1.17029 8.46005 0.860291C7.96005 0.860291 7.93005 1.11029 7.40005 1.23029C7.22005 1.12029 6.76006 1.12035 7.03006 0.800354L6.55008 1.06036C6.04008 0.910364 6.03006 0.700354 6.47006 0.300354C3.96006 -0.0396457 2.48004 0.320252 1.64004 0.820252C0.800042 1.32025 0.600064 1.95026 0.600064 1.95026C-0.169936 3.35026 1.51008 3.28029 2.37008 4.23029L2.36007 4.15033Z" fill="#ACDE45"/>
<path d="M40.92 35.5605L40.8701 35.7905C40.9201 35.7005 40.95 35.6105 40.92 35.5605Z" fill="#ACDE45"/>
<path d="M57.85 43.1304C57.85 43.1304 57.8701 43.1103 57.8801 43.0903C57.8601 43.1003 57.85 43.1204 57.85 43.1304Z" fill="#ACDE45"/>
<path d="M39.9 43.6904C39.9 43.6904 39.87 43.7105 39.86 43.7305L39.91 43.6904H39.9Z" fill="#ACDE45"/>
<path d="M36.6801 41.2404C37.4501 41.9904 37.1901 43.0503 38.3601 43.2003C38.7801 43.5203 39.39 43.5603 39.89 43.6903C40.48 43.0703 40.4901 43.9804 41.0601 43.5004L40.95 43.9703C41.14 43.8003 41.3201 43.7103 41.2901 43.9803L41.2201 44.1003C41.5101 43.8503 41.56 44.1104 41.71 43.9904L41.64 44.1104L41.83 44.1404L41.7201 44.3004C42.1201 44.0804 42.3601 44.1704 42.4901 44.4204L42.7201 43.9004C42.8801 44.6804 43.5601 43.7103 43.6301 44.5803L43.5701 44.7003C44.7201 43.5903 43.9401 46.0003 45.0601 44.9603C44.9201 45.0903 44.96 45.2404 44.9 45.3604C45.21 45.3304 45.5001 45.3704 45.9701 44.3604C46.1401 44.4504 45.9701 44.7404 45.8101 45.1404C46.0101 44.7004 46.25 44.5804 46.4 44.6204L46.2601 44.7604L46.7201 44.7904L47.02 43.9204C47.12 44.2504 46.61 44.9703 46.9 44.8503L47.21 44.1504C47.43 44.4204 47.1301 45.5504 47.1801 46.1804C48.2301 47.0004 50.2401 45.7404 50.8101 47.4204L50.64 47.9703C50.35 48.7503 51.4101 46.9504 51.1601 47.6804L51.4301 47.3804C51.4101 47.5304 51.4301 47.7104 51.2901 47.8604C51.4001 47.9404 51.4501 47.8104 51.6301 47.6104L51.5601 48.1404C51.8801 48.7004 52.6401 47.9304 53.0601 48.3104C53.2701 49.5304 54.74 49.0504 55.58 48.7504C56.9 47.9104 56.8401 51.4204 58.2501 50.4004C58.2501 50.5204 58.4101 50.3003 58.4401 50.2103L59.2601 50.6204C59.2601 50.6204 60.2801 51.0504 61.1601 50.5104C62.0501 49.9804 62.7801 48.4803 62.34 44.6903L62.4201 44.5304C62.1101 43.9604 61.8601 43.7804 61.2601 44.5304C61.5701 43.4504 60.9301 44.2904 60.9401 43.9104L60.9801 43.8303C60.4201 44.5503 60.65 42.9603 60.14 43.6003C60.18 43.5203 60.2901 43.2303 60.3501 43.2303C60.1101 43.3003 59.7701 43.4403 59.9701 42.8203C59.4601 42.8203 58.9301 42.3104 58.2801 43.1804L58.3601 43.0204C57.9501 43.6204 58.1101 43.0404 57.8001 43.3104C57.8201 43.2304 57.82 43.1804 57.84 43.1504C57.42 43.7404 57.27 43.0604 57.02 43.2804L57.1601 42.8704L56.7601 42.8303L56.8601 42.9703C56.3901 44.0703 56.8601 42.1704 56.3201 42.7904C56.1301 42.5604 54.94 44.9204 54.89 44.2704C54.57 44.7404 55.3201 43.4604 54.9901 43.8004C55.2101 43.2204 55.2201 43.4704 55.3501 42.9904C55.0701 43.2004 55.2901 42.2903 54.9201 42.5903L55.09 42.1304C54.48 42.8504 54.7901 41.3204 54.2901 42.0404C53.8501 42.2904 54.6301 40.6304 53.9701 41.3804L54.1001 40.7203C54.0101 40.5703 53.7101 41.4303 53.6801 41.0803C53.8401 40.7003 53.6201 40.7004 53.8501 40.3704C53.7701 39.6504 52.85 40.9504 52.84 39.7604C52.4401 40.4604 52.4101 39.9303 52.1101 40.4603C52.2301 40.1303 51.7001 40.2304 52.2401 39.6304C52.2801 39.5804 52.3201 39.6103 52.2601 39.7303L52.4701 39.3004C52.5801 38.3704 51.8401 39.5703 51.6601 39.3403C51.6601 39.5203 51.7801 39.5204 51.59 39.7904L51.4 39.6304L51.6001 39.2804L51.3701 38.9204L51.2201 39.4004C51.1601 39.1004 51.4401 38.3004 50.9801 38.8704C50.7401 39.1904 50.8601 39.5504 50.6301 39.6204C50.5501 39.2204 50.4301 38.6103 50.2301 38.3503C50.0301 38.8703 49.9601 38.8204 49.84 38.8904L50.0301 38.4403C49.4701 38.9303 50.3601 37.4204 49.8601 37.7804L50.02 37.4803L49.5301 38.3704C48.8701 39.1304 49.8101 37.3903 48.9801 38.4603C49.1301 38.4403 48.5901 39.4603 48.5401 39.2003L48.77 38.7904C48.65 38.8504 48.5401 39.0104 48.5301 38.9004C48.6801 38.6904 48.8401 38.2904 48.6901 38.3104L49.0101 37.8104L48.4401 38.4904C48.4901 37.9604 47.9601 38.4104 48.1701 37.7804C48.1701 37.7804 47.9601 37.3203 47.5601 37.9403C47.8201 37.5703 47.7001 37.3204 47.9801 36.8704C47.6701 37.2904 47.2201 37.5404 47.3501 37.0004L47.4 36.9503C47.25 36.2603 46.39 37.3004 46.33 36.5204C46.1 37.0304 46.04 36.6703 45.77 37.3303C45.08 37.7903 45.7501 35.6904 44.6201 37.6104C44.4001 37.6304 44.6601 37.0404 44.6201 36.9004L44.71 36.8203C44.31 36.8203 44.2101 36.8004 44.0001 36.6304C43.7801 36.7604 43.29 37.6703 43.2 37.3403C43.46 37.0103 43.3401 37.0304 43.2601 36.9904C43.3401 36.9604 43.42 36.8304 43.45 36.5304C43.38 36.6404 43.32 36.6904 43.27 36.7404C43.28 36.7104 43.2901 36.6904 43.3101 36.6504C43.1101 36.7104 43.0801 36.8404 43.1101 36.9204C43.0801 36.9704 43.0501 37.0504 43.0101 37.1604C43.1201 36.6204 42.6201 36.9904 42.9301 36.3604C42.4701 36.3004 41.84 36.8004 41.39 36.8604C41.53 36.5204 41.7601 36.2803 41.9201 36.2103H41.6301C41.8801 35.7403 41.9 36.0103 42.02 35.9603C42.15 35.0703 41.0601 36.3904 41.1101 35.5404L40.84 35.8604V35.7904C40.75 35.9804 40.53 36.2004 40.45 36.2404C40.63 35.8204 40.9601 35.3204 40.7901 35.2604C40.8801 34.8104 40.3301 35.2604 40.0501 35.3804C40.1001 35.5004 39.95 35.7003 39.83 35.8203C39.74 35.7903 39.92 35.3704 39.77 35.5004L40.0701 34.9603C39.8101 35.4803 39.56 35.3903 39.4 35.5903C39.58 35.1703 39.7201 35.3204 39.9101 35.0304C39.5701 34.9004 39.74 34.9703 39.4 34.8403C39 35.1403 39.1401 35.3604 38.7901 35.7804C38.5801 35.8004 38.2201 36.0804 38.2301 35.6704L38.0101 36.1704C37.5201 36.3704 37.3801 36.2104 37.4701 35.6304C35.2901 36.9104 34.37 38.1304 34.02 39.0404C33.67 39.9504 33.9 40.5604 33.9 40.5604C34.15 42.1204 35.4201 41.0204 36.6601 41.2404H36.6801Z" fill="#ACDE45"/>
<path d="M86.04 50.9902L86.0701 51.2302C86.0901 51.1302 86.09 51.0402 86.04 50.9902Z" fill="#ACDE45"/>
<path d="M104.62 54.0802C104.62 54.0802 104.63 54.0503 104.64 54.0303C104.63 54.0503 104.62 54.0602 104.62 54.0802Z" fill="#ACDE45"/>
<path d="M87.4301 59.0605C87.4301 59.0605 87.41 59.0905 87.4 59.1105L87.4301 59.0605Z" fill="#ACDE45"/>
<path d="M83.74 57.6902C84.68 58.1702 84.7401 59.2503 85.8701 59.0403C86.3501 59.2203 86.9301 59.0903 87.4401 59.0503C87.8301 58.2903 88.08 59.1603 88.48 58.5303L88.5001 59.0103C88.6401 58.8003 88.7801 58.6603 88.8201 58.9303L88.79 59.0603C89 58.7403 89.11 58.9803 89.22 58.8103L89.1901 58.9402L89.3701 58.9103L89.3101 59.1002C89.6201 58.7802 89.8801 58.8003 90.0701 59.0103L90.15 58.4502C90.51 59.1602 90.8901 58.0402 91.1901 58.8502L91.16 58.9802C91.96 57.6102 91.84 60.1302 92.64 58.8402C92.54 59.0002 92.62 59.1303 92.59 59.2703C92.87 59.1603 93.16 59.1203 93.36 58.0303C93.54 58.0803 93.45 58.4002 93.4 58.8302C93.48 58.3502 93.68 58.1803 93.83 58.1703L93.73 58.3402L94.1801 58.2502L94.2501 57.3302C94.4301 57.6302 94.1201 58.4403 94.3701 58.2603L94.49 57.5103C94.77 57.7103 94.76 58.8802 94.96 59.4802C96.15 60.0102 97.78 58.3003 98.72 59.8103L98.6801 60.3802C98.5701 61.2102 99.19 59.2102 99.11 59.9802L99.3 59.6202C99.31 59.7702 99.37 59.9402 99.27 60.1202C99.39 60.1702 99.41 60.0403 99.54 59.8003L99.59 60.3302C100.02 60.8002 100.58 59.8803 101.07 60.1503C101.53 61.2903 102.84 60.5003 103.59 60.0303C104.7 58.9303 105.34 62.3802 106.5 61.0902C106.52 61.2102 106.63 60.9602 106.64 60.8602L107.51 61.1002C107.51 61.1002 108.57 61.3202 109.33 60.6302C110.1 59.9402 110.55 58.3302 109.4 54.6902L109.45 54.5103C109.03 54.0103 108.75 53.8702 108.3 54.7402C108.4 53.6202 107.92 54.5702 107.86 54.2002L107.88 54.1102C107.47 54.9302 107.38 53.3203 107 54.0503C107.02 53.9603 107.07 53.6603 107.14 53.6503C106.92 53.7603 106.6 53.9702 106.68 53.3202C106.17 53.4202 105.54 53.0303 105.08 54.0203L105.13 53.8402C104.85 54.5102 104.89 53.9102 104.64 54.2402C104.64 54.1502 104.64 54.1102 104.64 54.0702C104.35 54.7302 104.06 54.1002 103.86 54.3702L103.91 53.9402L103.51 53.9802L103.64 54.0902C103.42 55.2602 103.46 53.3103 103.07 54.0303C102.83 53.8403 102.18 56.4103 101.99 55.7903C101.78 56.3203 102.24 54.9103 101.99 55.3103C102.08 54.6903 102.14 54.9402 102.16 54.4402C101.93 54.7002 101.94 53.7603 101.65 54.1503L101.71 53.6703C101.27 54.5003 101.23 52.9503 100.9 53.7603C100.52 54.1103 100.9 52.3002 100.44 53.1902L100.41 52.5203C100.29 52.3903 100.19 53.3002 100.08 52.9602C100.15 52.5502 99.93 52.6002 100.08 52.2302C99.83 51.5402 99.2301 53.0202 98.9401 51.8702C98.7101 52.6502 98.56 52.1402 98.39 52.7202C98.43 52.3702 97.9301 52.5902 98.3201 51.8802C98.3501 51.8202 98.3901 51.8402 98.3701 51.9702L98.48 51.5002C98.36 50.5702 97.9201 51.9102 97.6901 51.7302C97.7401 51.9002 97.85 51.8702 97.73 52.1902L97.5001 52.0902L97.6201 51.7002L97.3 51.4103L97.27 51.9103C97.14 51.6303 97.21 50.7902 96.9 51.4502C96.75 51.8202 96.9601 52.1403 96.7501 52.2603C96.5701 51.8903 96.3 51.3202 96.03 51.1302C95.96 51.6902 95.89 51.6502 95.79 51.7502L95.86 51.2703C95.43 51.8803 95.92 50.2003 95.52 50.6703L95.6 50.3402L95.35 51.3302C94.9 52.2302 95.37 50.3103 94.83 51.5503C94.97 51.4903 94.71 52.6102 94.59 52.3802L94.71 51.9203C94.61 52.0003 94.5501 52.1902 94.5101 52.0902C94.6001 51.8502 94.6501 51.4202 94.5101 51.4802L94.6901 50.9203L94.3101 51.7302C94.2101 51.2002 93.81 51.7702 93.85 51.1102C93.85 51.1102 93.51 50.7203 93.3 51.4203C93.46 50.9903 93.27 50.7803 93.42 50.2803C93.23 50.7603 92.86 51.1203 92.83 50.5603L92.86 50.5002C92.51 49.8702 91.9601 51.1102 91.6901 50.3702C91.6101 50.9302 91.4501 50.5903 91.3701 51.3003C90.8301 51.9303 90.89 49.7202 90.33 51.8802C90.12 51.9602 90.2001 51.3302 90.1301 51.1902L90.2 51.0802C89.81 51.1902 89.71 51.1902 89.46 51.0902C89.29 51.2802 89.07 52.2902 88.89 52.0002C89.04 51.6102 88.93 51.6703 88.85 51.6503C88.92 51.6003 88.96 51.4503 88.9 51.1603C88.86 51.2803 88.82 51.3503 88.78 51.4103C88.78 51.3803 88.78 51.3503 88.8 51.3103C88.63 51.4203 88.6301 51.5502 88.6801 51.6202C88.6601 51.6802 88.66 51.7602 88.65 51.8802C88.6 51.3302 88.22 51.8303 88.34 51.1403C87.87 51.2103 87.41 51.8703 86.99 52.0603C87.02 51.7003 87.17 51.4003 87.3 51.2803L87.0101 51.3602C87.1101 50.8502 87.2201 51.1003 87.3201 51.0103C87.1801 50.1203 86.5201 51.7102 86.3101 50.8802L86.15 51.2703V51.2002C86.1 51.4102 85.96 51.6902 85.89 51.7502C85.93 51.2902 86.1 50.7202 85.92 50.7102C85.87 50.2502 85.47 50.8403 85.24 51.0403C85.32 51.1403 85.24 51.3803 85.17 51.5203C85.08 51.5203 85.1201 51.0602 85.0101 51.2402L85.1301 50.6403C85.0501 51.2103 84.7701 51.2002 84.6801 51.4402C84.7201 50.9802 84.9 51.0902 84.99 50.7502C84.62 50.7302 84.8001 50.7502 84.4301 50.7202C84.1401 51.1302 84.35 51.3003 84.14 51.8003C83.95 51.8803 83.6901 52.2702 83.5701 51.8602L83.52 52.4103C83.11 52.7603 82.93 52.6502 82.84 52.0702C81.18 53.9802 80.7201 55.4303 80.6901 56.4103C80.6601 57.3903 81.05 57.8903 81.05 57.8903C81.75 59.2803 82.5901 57.8303 83.8101 57.6503L83.74 57.6902Z" fill="#ACDE45"/>
<path d="M134.03 57.5605L134.08 57.7905C134.08 57.6905 134.08 57.5905 134.03 57.5605Z" fill="#ACDE45"/>
<path d="M152.98 59.3605C152.98 59.3605 152.99 59.3305 153 59.3105C152.99 59.3305 152.98 59.3405 152.98 59.3605Z" fill="#ACDE45"/>
<path d="M136.15 65.4502C136.15 65.4502 136.13 65.4802 136.12 65.5002L136.15 65.4502Z" fill="#ACDE45"/>
<path d="M132.41 64.4603C133.38 64.8303 133.54 65.9103 134.61 65.5903C135.09 65.7203 135.65 65.5303 136.14 65.4603C136.45 64.6603 136.77 65.5103 137.12 64.8503L137.18 65.3303C137.3 65.1003 137.42 64.9603 137.49 65.2203L137.47 65.3503C137.65 65.0103 137.78 65.2403 137.87 65.0703L137.85 65.2103L138.03 65.1704L137.98 65.3604C138.26 65.0104 138.52 65.0103 138.72 65.2003L138.76 64.6404C139.17 65.3204 139.46 64.1703 139.81 64.9603L139.79 65.1003C140.49 63.6703 140.53 66.2003 141.24 64.8403C141.15 65.0103 141.24 65.1304 141.22 65.2704C141.49 65.1304 141.77 65.0803 141.9 63.9703C142.08 64.0003 142.01 64.3304 141.99 64.7604C142.04 64.2804 142.22 64.0903 142.37 64.0703L142.28 64.2504L142.71 64.1304L142.73 63.2103C142.92 63.4903 142.67 64.3304 142.9 64.1304L142.98 63.3704C143.27 63.5504 143.33 64.7104 143.56 65.3004C144.75 65.7504 146.29 63.9504 147.29 65.3904V65.9603C147.21 66.7903 147.73 64.7604 147.69 65.5304L147.86 65.1604C147.88 65.3104 147.94 65.4804 147.86 65.6604C147.98 65.7004 148 65.5703 148.11 65.3303L148.19 65.8604C148.63 66.3104 149.15 65.3504 149.64 65.6104C150.14 66.7304 151.4 65.8704 152.13 65.3704C153.21 64.2204 153.92 67.6404 155.04 66.3104C155.06 66.4304 155.17 66.1703 155.18 66.0803L156.04 66.2804C156.04 66.2804 160.26 67.0203 157.81 59.8203L157.85 59.6404C157.42 59.1504 157.13 59.0204 156.69 59.9004C156.76 58.7804 156.31 59.7504 156.24 59.3704L156.26 59.2804C155.87 60.1104 155.74 58.5104 155.36 59.2504C155.38 59.1604 155.42 58.8603 155.49 58.8403C155.27 58.9603 154.96 59.1804 155.02 58.5304C154.51 58.6504 153.85 58.2804 153.42 59.2904L153.46 59.1104C153.2 59.7904 153.22 59.1904 152.97 59.5304C152.97 59.4404 152.96 59.4004 152.97 59.3604C152.7 60.0304 152.39 59.4103 152.19 59.6903L152.23 59.2604L151.83 59.3203L151.97 59.4304C151.79 60.6104 151.76 58.6604 151.39 59.4004C151.14 59.2204 150.58 61.8103 150.37 61.2003C150.18 61.7403 150.59 60.3103 150.34 60.7203C150.4 60.1003 150.47 60.3403 150.48 59.8403C150.25 60.1103 150.23 59.1803 149.95 59.5703L149.99 59.0903C149.58 59.9403 149.47 58.4003 149.18 59.2203C148.82 59.5903 149.12 57.7704 148.69 58.6804L148.63 58.0204C148.5 57.9004 148.44 58.8103 148.32 58.4803C148.37 58.0703 148.16 58.1304 148.29 57.7504C148 57.0704 147.46 58.5903 147.11 57.4603C146.92 58.2503 146.74 57.7503 146.59 58.3403C146.62 57.9903 146.12 58.2404 146.47 57.5104C146.5 57.4504 146.54 57.4703 146.52 57.6003L146.6 57.1304C146.43 56.2104 146.06 57.5704 145.81 57.4104C145.87 57.5704 145.98 57.5404 145.88 57.8604L145.64 57.7704L145.73 57.3804L145.39 57.1104V57.6104C145.23 57.3404 145.26 56.4904 144.98 57.1704C144.85 57.5504 145.08 57.8504 144.87 57.9904C144.67 57.6304 144.36 57.0904 144.07 56.9104C144.04 57.4704 143.96 57.4404 143.86 57.5504L143.9 57.0703C143.5 57.7103 143.9 56.0004 143.51 56.5004L143.57 56.1704L143.38 57.1704C142.99 58.1004 143.33 56.1504 142.87 57.4304C143.01 57.3604 142.82 58.5004 142.68 58.2704L142.77 57.8104C142.67 57.9004 142.62 58.0904 142.57 57.9904C142.65 57.7404 142.67 57.3204 142.53 57.3804L142.68 56.8104L142.35 57.6404C142.22 57.1204 141.85 57.7204 141.84 57.0504C141.84 57.0504 141.47 56.6904 141.3 57.4004C141.43 56.9604 141.22 56.7704 141.34 56.2504C141.18 56.7504 140.83 57.1303 140.76 56.5803L140.79 56.5204C140.39 55.9204 139.93 57.2004 139.59 56.4904C139.55 57.0504 139.37 56.7303 139.34 57.4503C138.84 58.1203 138.72 55.9204 138.33 58.1204C138.12 58.2204 138.16 57.5803 138.07 57.4503L138.13 57.3403C137.75 57.4903 137.64 57.5004 137.38 57.4204C137.22 57.6204 137.1 58.6504 136.88 58.3804C137 57.9804 136.89 58.0404 136.8 58.0404C136.86 57.9804 136.9 57.8304 136.8 57.5504C136.77 57.6804 136.74 57.7504 136.71 57.8104C136.71 57.7804 136.71 57.7503 136.71 57.7103C136.55 57.8403 136.56 57.9704 136.62 58.0304C136.62 58.0904 136.61 58.1704 136.62 58.2904C136.52 57.7504 136.18 58.2903 136.24 57.5803C135.77 57.7003 135.38 58.3904 134.97 58.6304C134.97 58.2604 135.09 57.9503 135.21 57.8203L134.93 57.9304C134.99 57.4104 135.11 57.6504 135.21 57.5504C134.98 56.6804 134.47 58.3204 134.18 57.5204L134.06 57.9204L134.04 57.8503C134.02 58.0703 133.91 58.3604 133.84 58.4204C133.84 57.9604 133.95 57.3804 133.76 57.3904C133.66 56.9404 133.32 57.5704 133.11 57.7904C133.2 57.8804 133.15 58.1204 133.09 58.2804C133 58.2804 132.99 57.8304 132.9 58.0204L132.95 57.4104C132.93 57.9904 132.65 58.0104 132.59 58.2504C132.59 57.7904 132.77 57.8704 132.83 57.5404C132.46 57.5604 132.64 57.5503 132.27 57.5703C132.03 58.0103 132.25 58.1504 132.1 58.6804C131.91 58.7804 131.7 59.1904 131.54 58.8004V59.3503C131.18 59.7403 130.99 59.6603 130.83 59.0903C127.96 63.2703 129.71 65.0803 129.71 65.0803C130.54 66.3703 131.19 64.8404 132.37 64.5304L132.41 64.4603Z" fill="#ACDE45"/>
<path d="M182.68 64.4404V64.6805C182.72 64.5805 182.73 64.4904 182.68 64.4404Z" fill="#ACDE45"/>
<path d="M201.03 71.1005C201.03 71.1005 201.05 71.0805 201.07 71.0605C201.05 71.0705 201.04 71.0805 201.03 71.1005Z" fill="#ACDE45"/>
<path d="M183.37 72.5801C183.37 72.5801 183.35 72.6101 183.34 72.6301L183.38 72.5801H183.37Z" fill="#ACDE45"/>
<path d="M179.99 70.9904C180.86 71.5004 180.82 72.6003 181.9 72.4503C182.33 72.6703 182.89 72.5704 183.37 72.5804C183.82 71.8504 183.96 72.7504 184.41 72.1604L184.37 72.6404C184.53 72.4404 184.67 72.3204 184.69 72.5904L184.64 72.7204C184.87 72.4204 184.96 72.6704 185.07 72.5204L185.02 72.6504H185.2L185.11 72.8203C185.45 72.5303 185.69 72.5803 185.84 72.8203L186 72.2804C186.24 73.0204 186.77 71.9604 186.93 72.8004L186.88 72.9304C187.86 71.6804 187.33 74.1604 188.3 72.9904C188.18 73.1404 188.23 73.2704 188.18 73.4004C188.47 73.3304 188.75 73.3404 189.12 72.2904C189.29 72.3604 189.14 72.6704 189.02 73.0804C189.18 72.6204 189.4 72.4804 189.54 72.5004L189.42 72.6504L189.86 72.6304L190.1 71.7404C190.22 72.0604 189.77 72.8104 190.04 72.6804L190.3 71.9604C190.53 72.2004 190.3 73.3504 190.37 73.9704C191.36 74.6904 193.28 73.3604 193.8 75.0304L193.62 75.5804C193.32 76.3604 194.38 74.5604 194.12 75.2904L194.39 74.9904C194.37 75.1404 194.37 75.3204 194.24 75.4704C194.34 75.5504 194.39 75.4204 194.57 75.2204L194.48 75.7504C194.75 76.3104 195.52 75.5404 195.89 75.9304C196 77.1404 197.4 76.7104 198.23 76.4904C199.62 75.7604 199.05 79.2104 200.51 78.3604C200.48 78.4804 200.67 78.2803 200.72 78.1903L201.41 78.6903C201.41 78.6903 202.26 79.2504 203.2 78.8804C204.13 78.5004 205.25 77.2404 205.49 73.4004L205.6 73.2504C205.38 72.6104 205.14 72.3704 204.4 73.0204C204.89 72.0104 204.09 72.7204 204.16 72.3504L204.21 72.2704C203.54 72.8904 203.99 71.3304 203.36 71.8804C203.41 71.8104 203.56 71.5404 203.63 71.5504C203.37 71.5804 202.99 71.6704 203.28 71.0804C202.74 71.0004 202.23 70.4003 201.47 71.1903L201.57 71.0404C201.09 71.5904 201.31 71.0304 200.96 71.2604C200.99 71.1804 200.99 71.1304 201.01 71.1004C200.52 71.6404 200.43 70.9404 200.15 71.1404L200.33 70.7404L199.92 70.6604L200.02 70.8105C199.47 71.8705 200.06 70.0004 199.47 70.5804C199.28 70.3304 197.94 72.6104 197.93 71.9604C197.58 72.4104 198.41 71.1804 198.05 71.4904C198.3 70.9204 198.3 71.1703 198.45 70.7003C198.15 70.8903 198.41 69.9804 198.02 70.2704L198.21 69.8203C197.56 70.5003 197.91 69.0003 197.38 69.6903C196.92 69.9303 197.74 68.2804 197.05 69.0104L197.18 68.3504C197.08 68.1904 196.77 69.0503 196.74 68.6903C196.91 68.3103 196.68 68.3104 196.92 67.9804C196.82 67.2404 195.87 68.5404 195.83 67.3404C195.43 68.0404 195.38 67.5104 195.08 68.0404C195.2 67.7104 194.64 67.8103 195.18 67.2003C195.23 67.1503 195.26 67.1804 195.21 67.3004L195.42 66.8704C195.49 65.9304 194.76 67.1504 194.55 66.9204C194.57 67.1004 194.69 67.1004 194.5 67.3804L194.28 67.2304L194.48 66.8704L194.21 66.5104L194.08 66.9904C194 66.6804 194.23 65.8703 193.79 66.4503C193.56 66.7803 193.72 67.1404 193.48 67.2104C193.37 66.8004 193.19 66.2003 192.94 65.9503C192.77 66.4903 192.7 66.4404 192.58 66.5104L192.74 66.0504C192.19 66.5704 192.99 65.0004 192.49 65.3904L192.63 65.0804L192.2 66.0004C191.59 66.8004 192.38 65.0004 191.62 66.1204C191.77 66.0904 191.32 67.1504 191.24 66.9004L191.44 66.4704C191.32 66.5304 191.23 66.7104 191.2 66.6004C191.34 66.3804 191.45 65.9704 191.3 66.0004L191.58 65.4804L191.05 66.2104C191.03 65.6704 190.53 66.1704 190.67 65.5204C190.67 65.5204 190.38 65.0804 190.05 65.7304C190.27 65.3304 190.11 65.0904 190.34 64.6204C190.07 65.0604 189.64 65.3604 189.69 64.8004L189.73 64.7504C189.45 64.0804 188.72 65.2203 188.52 64.4403C188.37 64.9803 188.25 64.6203 188.08 65.3203C187.45 65.8603 187.75 63.6804 186.94 65.7604C186.72 65.8204 186.87 65.1904 186.81 65.0504L186.89 64.9503C186.48 65.0103 186.37 65.0004 186.12 64.8704C185.92 65.0404 185.61 66.0204 185.44 65.7104C185.63 65.3404 185.52 65.3804 185.43 65.3604C185.5 65.3104 185.57 65.1804 185.53 64.8804C185.48 65.0004 185.43 65.0604 185.39 65.1204C185.39 65.0904 185.4 65.0604 185.42 65.0204C185.23 65.1204 185.22 65.2503 185.27 65.3203C185.25 65.3803 185.23 65.4603 185.22 65.5703C185.22 65.0203 184.78 65.4804 184.96 64.8004C184.47 64.8304 183.95 65.4304 183.51 65.6004C183.57 65.2404 183.74 64.9504 183.89 64.8504L183.59 64.9104C183.73 64.4104 183.82 64.6604 183.93 64.5804C183.84 63.6804 183.06 65.2104 182.9 64.3704L182.71 64.7504V64.6804C182.65 64.8904 182.49 65.1604 182.42 65.2104C182.49 64.7604 182.7 64.2004 182.51 64.1804C182.48 63.7204 182.04 64.2804 181.79 64.4704C181.87 64.5704 181.77 64.8103 181.69 64.9503C181.6 64.9503 181.66 64.4904 181.54 64.6604L181.69 64.0605C181.58 64.6305 181.29 64.6004 181.2 64.8404C181.26 64.3904 181.44 64.5004 181.55 64.1704C181.17 64.1304 181.36 64.1504 180.98 64.1104C180.67 64.5104 180.87 64.6804 180.64 65.1804C180.44 65.2504 180.17 65.6204 180.06 65.2104L179.99 65.7504C179.57 66.0804 179.39 65.9704 179.31 65.3804C177.59 67.2404 177.13 68.6904 177.07 69.6704C177.01 70.6504 177.37 71.1504 177.37 71.1504C177.98 72.5404 178.82 71.1104 180 70.9804L179.99 70.9904Z" fill="#ACDE45"/>
<path d="M224.58 89.3809L224.44 89.5708C224.52 89.5008 224.58 89.4409 224.58 89.3809Z" fill="#ACDE45"/>
<path d="M219.82 95.7505C219.82 95.7505 219.79 95.7605 219.77 95.7705L219.83 95.7505H219.82Z" fill="#ACDE45"/>
<path d="M218.67 93.2306C218.9 93.9606 218.18 94.7507 218.96 95.0607C219.1 95.3907 219.51 95.5406 219.82 95.7406C220.58 95.3906 220.08 96.1006 220.76 95.8606L220.42 96.1906C220.65 96.1106 220.83 96.0806 220.66 96.2806L220.55 96.3506C220.9 96.2306 220.79 96.4406 220.96 96.3806L220.84 96.4506L220.96 96.5206L220.79 96.6106C221.19 96.5406 221.31 96.6806 221.26 96.9006L221.72 96.5806C221.38 97.2106 222.43 96.6706 221.97 97.3406L221.85 97.4106C223.32 96.9406 221.31 98.4607 222.72 98.0507C222.54 98.1007 222.48 98.2206 222.36 98.2906C222.6 98.3606 222.77 98.4807 223.72 97.9207C223.78 98.0507 223.48 98.1907 223.12 98.4307C223.54 98.1807 223.77 98.1806 223.85 98.2606L223.66 98.3107L223.96 98.4906L224.72 97.9706C224.57 98.2506 223.77 98.5706 224.04 98.5906L224.7 98.2106C224.68 98.4806 223.75 99.1706 223.36 99.6306C223.49 100.541 225.67 100.501 224.84 101.851L224.34 102.131C223.59 102.511 225.55 101.791 224.87 102.161L225.26 102.081C225.14 102.171 225.02 102.291 224.83 102.331C224.83 102.421 224.96 102.371 225.22 102.321L224.79 102.631C224.58 103.111 225.61 102.961 225.57 103.391C224.79 104.221 225.99 104.581 226.7 104.831C228.12 105.031 225.29 106.931 226.85 107.081C226.75 107.141 227.02 107.111 227.11 107.081L227.2 107.721C227.2 107.721 227.36 108.471 228.25 108.701C229.14 108.911 230.81 108.701 233.72 106.421L233.9 106.381C234.2 105.871 234.22 105.591 233.26 105.631C234.31 105.231 233.26 105.291 233.58 105.081L233.67 105.061C232.78 105.121 234.19 104.351 233.38 104.391C233.47 104.371 233.76 104.271 233.79 104.311C233.6 104.201 233.28 104.061 233.89 103.831C233.59 103.511 233.66 102.861 232.6 103.001L232.77 102.951C232.06 103.071 232.6 102.811 232.21 102.791C232.29 102.751 232.32 102.721 232.36 102.711C231.65 102.821 232.08 102.321 231.76 102.311L232.16 102.141L231.95 101.881L231.91 102.031C230.79 102.451 232.51 101.521 231.71 101.601C231.76 101.341 229.26 102.191 229.71 101.761C229.16 101.891 230.58 101.481 230.12 101.511C230.69 101.251 230.51 101.421 230.94 101.181C230.61 101.161 231.42 100.691 230.96 100.681L231.4 100.471C230.49 100.611 231.78 99.7706 230.94 99.9706C230.47 99.9106 232.17 99.2006 231.19 99.3606L231.74 98.9806C231.78 98.8306 230.98 99.2506 231.21 99.0006C231.59 98.8306 231.44 98.7106 231.82 98.6006C232.27 98.0406 230.73 98.4706 231.53 97.6306C230.78 97.9206 231.11 97.5306 230.55 97.7506C230.86 97.5806 230.42 97.3706 231.2 97.2206C231.26 97.2106 231.27 97.2407 231.15 97.3007L231.58 97.1006C232.27 96.4806 230.96 96.9606 230.97 96.7006C230.86 96.8306 230.94 96.8906 230.62 96.9906L230.58 96.7806L230.95 96.6306L231.01 96.2506L230.59 96.5206C230.74 96.2706 231.46 95.8106 230.76 96.0006C230.38 96.1206 230.24 96.4506 230.03 96.3806C230.23 96.0406 230.53 95.5306 230.53 95.2306C230.06 95.5306 230.04 95.4606 229.9 95.4506L230.32 95.2006C229.6 95.3006 231.19 94.5806 230.59 94.6106L230.89 94.4606L229.98 94.9106C229.03 95.1906 230.78 94.2806 229.51 94.7206C229.63 94.7706 228.61 95.3106 228.73 95.0906L229.15 94.8806C229.03 94.8706 228.85 94.9506 228.91 94.8606C229.15 94.7706 229.51 94.5306 229.38 94.4806L229.92 94.2406L229.08 94.5106C229.43 94.1206 228.76 94.2406 229.29 93.8406C229.29 93.8406 229.39 93.3806 228.73 93.7006C229.15 93.5206 229.19 93.2706 229.67 93.0306C229.19 93.2206 228.7 93.2306 229.11 92.8506L229.17 92.8306C229.43 92.2006 228.17 92.6906 228.55 92.0406C228.09 92.3606 228.24 92.0406 227.67 92.4806C226.89 92.5906 228.52 91.1206 226.61 92.2806C226.42 92.2206 226.93 91.8306 226.98 91.7006L227.1 91.6606C226.78 91.5206 226.71 91.4606 226.63 91.2506C226.39 91.2906 225.54 91.8706 225.63 91.5706C226 91.3806 225.89 91.3607 225.85 91.3007C225.93 91.3007 226.06 91.2206 226.23 90.9806C226.12 91.0406 226.04 91.0706 225.98 91.1006C226.01 91.0806 226.03 91.0706 226.06 91.0406C225.87 91.0306 225.78 91.1206 225.77 91.2006C225.72 91.2306 225.66 91.2906 225.57 91.3706C225.92 90.9606 225.33 91.1107 225.89 90.6807C225.54 90.4807 224.8 90.7106 224.4 90.6306C224.67 90.3806 224.97 90.2406 225.13 90.2306L224.89 90.1406C225.31 89.8206 225.21 90.0507 225.33 90.0507C225.84 89.3307 224.33 90.1407 224.76 89.4307L224.4 89.6406L224.44 89.5806C224.27 89.7206 223.99 89.8506 223.91 89.8606C224.24 89.5406 224.73 89.2106 224.62 89.1106C224.89 88.7406 224.24 88.9806 223.95 89.0206C223.95 89.1306 223.73 89.2706 223.58 89.3406C223.52 89.2906 223.85 88.9707 223.66 89.0507L224.13 88.6606C223.7 89.0506 223.52 88.9106 223.31 89.0406C223.63 88.7206 223.69 88.8807 223.96 88.6807C223.72 88.4807 223.84 88.5806 223.61 88.3906C223.15 88.5606 223.18 88.7806 222.72 89.0706C222.54 89.0406 222.13 89.2106 222.31 88.8506L221.93 89.2406C221.44 89.3206 221.39 89.1707 221.69 88.6707C219.39 89.4107 218.22 90.3806 217.58 91.1106C216.95 91.8506 216.86 92.3706 216.86 92.3706C216.39 93.6606 217.81 92.8806 218.66 93.2406L218.67 93.2306Z" fill="#ACDE45"/>
</svg>
