<svg width="298" height="28" viewBox="0 0 298 28" fill="none" xmlns="http://www.w3.org/2000/svg">
<g opacity="0.57">
<path d="M1.44971 25.1302C2.36971 25.6602 3.94971 25.7104 5.44971 25.8004C4.29971 25.2904 3.06971 25.0702 1.44971 25.1302Z" fill="#43C554"/>
<path d="M5.47968 25.8103H5.49969C5.47969 25.8103 5.45971 25.8103 5.44971 25.8103C5.45971 25.8103 5.46968 25.8103 5.47968 25.8203V25.8103Z" fill="#43C554"/>
<path d="M296.49 1.72021C296.12 1.73021 295.69 1.74024 295.26 1.75024C295.67 1.77024 296.09 1.77021 296.49 1.72021Z" fill="#43C554"/>
<path d="M78.1397 27.2903L78.3697 26.4102C81.9297 26.3902 79.4096 27.4202 82.6996 27.2002C83.9896 25.9502 88.1697 27.3202 89.2997 26.6602C89.2697 26.7602 90.8897 26.8002 90.7797 27.1902C91.2697 26.5102 92.4396 27.0304 93.4496 26.8604C93.8196 26.6704 93.1797 26.6602 92.8997 26.4502L95.2297 26.2102C96.1397 26.4302 96.3597 26.8301 95.3797 26.9001C101.46 27.1401 130.67 27.7602 137.22 27.4202C136.38 26.9102 134.35 27.2602 133.59 26.4502C135.32 26.0002 136.14 26.6101 136.9 26.1301C137.57 27.3301 140.71 26.4101 142.02 27.6301L142.52 26.9502L143.38 27.3604C151 26.6504 145.12 27.0102 151.87 27.1702C155.78 27.0602 157.64 26.1202 159.81 26.4702C159.49 26.4702 158.62 26.0504 159.64 25.8704C159.81 26.4704 162.34 25.4403 162.83 26.0403C163.82 25.9603 167.03 26.0402 165.95 25.2202C166.5 25.6302 169.36 25.7901 167.66 26.1401C168.63 26.1601 169.56 26.2803 170.26 26.1003L169.02 25.8704C172.29 25.7504 174.07 26.3801 176.19 25.6401L174.98 25.3203C176.93 25.2703 178.57 25.2003 179.33 26.0103L177.33 26.2603C180.57 26.2403 182.52 26.1802 185.22 25.7502L184.26 25.7302C187.7 24.9202 205.69 24.2402 208.85 23.2302L207.39 22.6104L210.11 22.0803C209.79 22.0803 208.8 24.1102 208.53 23.9102C214.37 23.8502 244.74 23.3403 250.13 23.7603C252.31 24.1003 250.52 24.7503 250.5 24.8503C253.15 24.6103 251.64 24.1902 253.89 24.2402C254.5 24.3502 253.76 24.7303 253.42 24.8203C254.41 24.7503 255.32 24.9602 255.4 24.6702C254.17 24.4402 254.69 23.6702 254.17 23.1602L257.07 23.2202L256.94 23.7102C257.59 23.7202 258.58 22.3701 261.42 22.6301C266.22 22.8401 271.43 22.6603 276.26 22.7703C276.19 23.0603 275.17 23.2402 274.16 23.4102C274.81 23.4202 275.79 23.3503 276.39 23.5603C275.22 23.0403 278.41 23.2102 277.5 22.9902C281.03 21.7902 285.61 22.8803 288.73 22.0603C289 20.9803 295.4 3.55026 295.4 2.27026C296.37 2.29026 297.33 2.31017 297.63 2.42017C297.38 2.12017 295.48 1.98015 294.46 2.15015L294.29 2.84033C291.96 3.08033 293.74 2.43022 291.47 2.48022C291.35 1.92022 293.44 1.80023 295.28 1.74023C293.62 1.68023 291.97 1.27013 291.29 1.88013C289.73 1.65013 291.46 1.1902 289.59 0.950195C288.25 1.1202 286.5 1.67033 284.96 1.34033L284.99 1.24023C281.26 0.660234 279.28 2.10027 275.86 1.53027L276.23 1.34033C275.02 1.02033 272.65 1.45035 270.47 1.11035C271.09 1.22035 271.63 1.6302 270.32 1.7002C267.82 1.3502 266.11 1.70026 264.28 1.27026L262.53 1.82031C253.82 1.72031 219.42 2.53036 210.67 2.62036L211.01 2.53027C197.68 2.82027 170.31 2.7903 156.54 3.5603C154.41 3.0203 151.47 3.15024 149.25 3.00024C150.49 3.22024 150.06 3.61033 149.1 3.59033C142.33 3.53033 148.64 3.9602 141.79 4.2002C133.9 4.7102 103.71 4.1602 96.7096 3.7002C92.9496 4.5002 88.2496 3.90016 84.5696 4.41016L84.9396 4.22021C80.9796 4.52021 58.5797 3.80033 53.9797 4.09033L54.5997 4.2002C50.5897 4.7002 51.1397 3.8303 47.9697 3.5603C48.3897 4.4503 44.9497 4.97027 43.6397 5.03027L43.6897 4.83032C41.7097 4.98032 37.2397 5.76014 33.9697 5.89014L34.0997 5.40015C31.3797 5.93015 26.2597 5.71026 24.2997 5.77026C19.8297 5.57026 12.9197 4.72013 6.93969 5.38013L3.06969 3.99023L2.49968 4.13013C2.49968 4.13013 -3.71031 20.9903 4.18969 24.5803L4.05968 25.0703L5.61968 25.0103C7.48968 25.2503 8.35966 24.6802 8.22966 25.1702L5.65966 25.1104C7.53966 25.2504 6.22969 25.5103 5.50969 25.7903C6.29969 25.8403 7.05969 25.8903 7.68969 26.0403C8.05969 25.8503 7.41968 25.8402 7.11968 25.7302C8.12968 25.5602 9.53971 25.1003 10.7797 25.3203C12.7097 25.3603 10.8997 26.1102 13.1497 26.1602C25.0197 26.5302 36.5197 27.0902 48.5197 26.9702C48.7897 27.1702 48.4697 27.1703 48.1197 27.2603C51.7297 27.0503 54.9497 27.1201 58.2397 26.9001C59.1497 27.1201 59.3997 27.4204 59.6697 27.6204C59.1297 27.2104 77.8397 27.1603 78.1397 27.2703V27.2903Z" fill="#43C554"/>
</g>
</svg>
