<svg width="654" height="191" viewBox="0 0 654 191" fill="none" xmlns="http://www.w3.org/2000/svg">
<path d="M121.029 27.41C129.059 20.01 142.319 21.79 148.089 31.09C153.369 39.41 150.899 50.43 142.569 55.71L90.4894 88.7L95.2994 80.51L86.8794 124.27L82.6794 114.44L105.439 131.28C115.629 139.29 104.719 154.51 93.8494 147.42L70.6294 131.22C67.5694 129.11 65.8594 125.27 66.4294 121.38L70.5194 77C70.7694 74.4 71.9394 71.86 74.0194 69.98L75.3394 68.79L121.039 27.4V27.42L121.029 27.41Z" fill="#E48544"/>
<path d="M148.189 41.54C155.029 37.1 164.429 39.61 168.119 46.91C171.619 53.76 168.939 62.15 162.079 65.67L102.379 96.31L107.669 88.21L106.369 116.59L101.869 105.65L121.999 125.87C129.819 133.99 119.729 146.54 110.069 140.5L86.2094 124.87C82.8494 122.66 80.9194 118.61 81.6294 114.39L81.7094 113.93L86.4494 85.91C86.9594 82.7 88.7794 79.71 91.7394 77.81L148.179 41.55V41.53L148.189 41.54Z" fill="#E48544"/>
<path d="M153.129 49.71C160.779 44.59 171.399 47.27 175.689 55.42C179.779 63.1 176.869 72.61 169.209 76.68L127.489 98.89L133.589 90.75L127.939 118.03L123.569 103.32L136.999 123.6C142.139 131.36 133.449 141.11 125.099 136.69L103.619 125.26C99.2194 122.93 96.9794 117.74 98.5294 112.82L99.2394 110.57C99.2394 110.57 107.579 83.96 107.629 83.94C108.649 80.75 110.709 77.86 113.729 75.86L153.099 49.72H153.119L153.129 49.71Z" fill="#E48544"/>
<path d="M251.839 97.98C238.379 102.85 222.689 122.3 198.899 133.3C149.929 159.54 158.619 113.13 152.129 91.57C145.639 70.01 80.5194 51.37 78.9494 44.7C77.3794 38.03 132.679 16.8 150.289 13.62C167.899 10.44 210.949 18.8 228.779 18.11C246.609 17.42 265.299 93.11 251.839 97.98Z" fill="#FDB47E"/>
<path d="M155.589 19.98C168.409 17.82 180.509 27.64 180.979 40.64C181.499 52.71 172.119 62.93 160.049 63.45L67.0294 67.47L73.5794 65.34L13.5294 92.27C3.07939 96.73 -5.08064 82.77 3.99936 75.87L57.1394 37.05C58.3194 36.2 59.7393 35.56 61.2993 35.31L63.6894 34.92L155.599 20V19.98H155.589Z" fill="#FDB47E"/>
<path d="M186.349 86.37C197.069 75.49 216.019 77.72 223.849 90.9C230.819 102.24 227.249 117.09 215.909 124.03L164.769 155.37L167.469 152.72L131.789 187.3C122.149 196.35 107.529 184.56 114.439 173.19L141.059 131.22L143.759 128.57L186.379 86.35L186.349 86.38V86.37Z" fill="#FDB47E"/>
<path d="M105.919 72.69L92.9294 82.94C92.9294 82.94 85.6693 112.5 88.2193 116.64C90.7693 120.78 107.229 128.16 109.139 139.77" stroke="#C66E34" stroke-width="3.78" stroke-miterlimit="10" stroke-linecap="round"/>
<path d="M122.479 79.38L110.349 88.26C110.349 88.26 101.489 106.89 108.939 113C116.379 119.11 125.849 125.46 124.369 136.56" stroke="#C66E34" stroke-width="3.78" stroke-miterlimit="10" stroke-linecap="round"/>
<path d="M288.129 98.05C291.439 99.06 654 152 654 152V0L231.739 18.57L238.999 97L288.129 98.05Z" fill="#FFB57F"/>
</svg>
