<svg width="472" height="387" viewBox="0 0 472 387" fill="none" xmlns="http://www.w3.org/2000/svg">
<path d="M260.809 322.6C260.639 325.3 260.929 328.08 260.809 330.78L288.489 331.28C289.989 330.78 289.019 325.3 288.869 323.77C298.569 324.03 308.409 323.88 318.089 324.35C320.699 324.48 325.249 325.52 327.729 325.52H336.499C338.929 325.52 343.389 325.91 346.139 326.1C348.649 326.27 351.419 326.49 354.019 326.69C367.379 327.7 380.799 329.13 394.059 330.77C393.019 335.41 392.429 340.21 391.139 344.79L409.759 346.46C410.549 345.97 410.959 335.32 410.999 333.48C411.139 332.94 411.789 333.15 412.179 333.11C415.649 332.73 427.309 335.46 431.479 336.31C440.259 338.09 466.479 343.5 470.859 351.27C472.969 355 471.299 356.94 468.579 359.42C456.269 370.66 408.869 376.68 391.419 378.69C319.239 386.98 242.509 387.15 169.949 384.52C125.259 382.9 71.2393 380.53 28.1993 369.06C9.91926 364.19 -12.6708 353.8 18.5592 342.45C34.1992 336.77 51.6093 334.77 67.9493 331.94C67.9493 332.02 68.5892 332.56 68.5592 333.36C68.4792 335.93 67.3893 339.03 67.9493 341.88L92.4992 339.54C92.7792 335.99 92.2192 332.52 91.9092 329.02C101.449 328.32 110.979 327.06 120.549 326.68C121.719 326.63 123.259 326.68 124.349 326.68H139.539C143.149 326.68 147.449 325.48 150.939 324.93C156.209 324.1 162.429 324 167.889 323.76C182.359 323.13 197.299 322.8 211.719 322.59C228.069 322.35 244.459 322.77 260.809 322.59V322.6Z" fill="#A0D92A"/>
<path d="M228.67 60.1999C208.77 62.1499 192.12 79.11 190.66 99.04C189.67 112.54 197.35 124.41 191 137.37C189.1 141.25 185.41 144.96 183.2 148.86C177.85 158.29 176.74 167.51 177.24 178.26C177.27 178.84 177.2 179.43 177.24 180.01C164.92 182.47 154.83 179.11 145.67 170.96C141.92 167.62 139.07 163.41 135.47 160.12C118.5 144.63 94.7397 143.34 74.9697 154.29C80.1497 138 88.2398 132.23 98.6498 120.4C111.05 106.3 105.02 86.1699 110.04 68.9599C114.38 54.0799 122.26 48.2499 131.07 37.0999C143.05 21.9299 153.65 3.15002 175.8 1.18002C211.69 -2.01998 222.47 31.6899 228.68 60.1999H228.67Z" fill="#A0D92A"/>
<path d="M409.25 115.13C381.75 124.11 377.03 143.85 368.93 168.9C357.98 168.82 346.07 166.3 338.16 158.17C331.64 151.47 331.62 145.07 328.62 137.03C321.42 117.72 302.94 106.38 282.44 108.7C282.36 108.53 281.96 108.35 281.86 108.12C281.76 107.89 281.35 107.71 281.28 107.54C277.71 99.56 274.95 91.3199 270.76 83.5799C271.75 82.9699 271.85 81.9999 271.94 80.9599C272.89 70.7199 270.97 63.9799 274.84 53.4699C293.56 2.54993 389.24 10.0999 398 65.3299C400.31 79.8699 395.25 91.5 403.12 105.8C404.93 109.09 407.79 111.64 409.27 115.14L409.25 115.13Z" fill="#A0D92A"/>
<path d="M270.749 83.5699C274.939 91.3199 277.7 99.55 281.27 107.53L281.849 108.11C281.959 108.35 282.359 108.52 282.429 108.69C285.199 114.89 287.15 121.46 290.39 127.91C296.27 139.6 304.52 150.16 309.9 161.88C297.86 176.98 284.129 192.3 263.429 194.01C229.849 196.79 226.989 165.95 197.409 168.89C189.709 169.66 183.669 174.58 177.239 178.24C176.739 167.49 177.84 158.27 183.2 148.84C185.41 144.95 189.099 141.23 190.999 137.35C197.349 124.39 189.669 112.52 190.659 99.02C192.119 79.09 208.769 62.1301 228.669 60.1801C247.699 58.3101 261.989 67.3501 270.749 83.5601V83.5699Z" fill="#28BD3B"/>
<path d="M410.42 115.13L411 115.71C434.46 115.23 448.74 132.5 450.18 155.13C450.59 161.5 449.58 166.98 451.15 173.45C453.39 182.67 460.1 186.5 464.28 194.22C471.63 207.77 471.83 222.72 468.27 237.27C465.52 237.21 463.02 235.86 460.31 235.59C441.8 233.73 438.34 250.63 424.01 256.42C414.94 260.08 405.78 259.53 397.17 254.91C384.8 248.27 374.31 226.95 357.68 233.34C354.64 234.51 352.53 237.18 349.64 238.45C349.52 236.97 348.95 235.81 349.06 233.77C349.43 226.41 352.46 217.91 354.9 210.98C359.86 196.91 364.36 183.01 368.93 168.9C377.03 143.85 381.75 124.11 409.25 115.13C409.49 115.05 410.07 115.12 410.42 115.13Z" fill="#28BD3B"/>
<path d="M110.029 68.96C105.009 86.16 111.039 106.29 98.6393 120.4C88.2393 132.23 80.1393 138 74.9593 154.29C69.9493 170.03 69.8393 189.42 76.7093 204.55C48.4193 221.26 17.0093 203.41 0.739258 178.84C3.09926 160.44 9.62929 157.2 19.3393 143.97C29.1693 130.58 25.5893 122.03 27.6993 107.33C33.2593 68.68 77.7493 58.95 110.019 68.97L110.029 68.96Z" fill="#28BD3B"/>
<path d="M76.7196 204.55C79.7496 211.23 91.3297 221.02 97.9497 224.52C100.29 225.76 108.05 228.23 108.86 229.68C108.99 229.92 108.82 230.76 109.19 231.37C112.8 237.32 117.94 242.19 121.13 248.38C119.06 248.31 114.45 250.5 111.8 251.03C104.61 252.47 95.7597 252.04 88.9897 248.96C83.2697 246.36 80.6497 242.42 73.2097 241.95C66.1197 241.5 58.3497 245.51 50.9997 244.87C48.4597 244.65 43.0996 243.67 40.4796 243.12C11.0396 236.89 -2.85034 206.82 0.739658 178.83C17.0097 203.41 48.4197 221.26 76.7097 204.54L76.7196 204.55Z" fill="#027D40"/>
<path d="M468.279 237.28C463.159 258.22 441.629 284.92 417.439 277.02C413.429 275.71 411.909 273.73 406.919 272.93C400.539 271.91 397.019 274.8 391.139 275.27C388.589 275.48 385.509 275.06 382.959 274.69C368.579 272.59 356.109 262.15 351.399 248.39C350.029 244.38 349.969 242.56 349.649 238.45C352.539 237.18 354.649 234.51 357.689 233.34C374.319 226.95 384.809 248.27 397.179 254.91C405.789 259.53 414.949 260.08 424.019 256.42C438.349 250.64 441.819 233.73 460.319 235.59C463.029 235.86 465.529 237.21 468.279 237.27V237.28Z" fill="#027D40"/>
<path d="M88.9895 248.96C88.0195 249.57 88.4095 251.18 88.3995 252.17C88.2695 262.3 88.4295 272.46 88.4295 282.59C88.4295 298.07 90.5395 313.59 91.9095 329.03C92.2195 332.53 92.7795 336.01 92.4995 339.55L67.9495 341.89C67.3895 339.04 68.4795 335.93 68.5595 333.37C68.5895 332.57 67.9395 332.03 67.9495 331.95C68.2195 326.04 69.6795 320.09 69.0895 314.1L70.7795 287.94L43.7095 262.39L40.4795 243.12C43.0995 243.67 48.4595 244.65 50.9995 244.87C51.4595 249.07 51.8795 253.48 53.3095 257.46C58.5295 261.34 63.3895 265.77 68.5895 269.65C69.1395 270.06 71.6295 272.22 72.0295 271.75L73.1995 241.95C80.6395 242.42 83.2595 246.36 88.9795 248.96H88.9895Z" fill="#BE6632"/>
<path d="M417.43 277.02L411.579 329.34L412.17 333.12C411.78 333.16 411.13 332.95 410.99 333.49C410.95 335.33 410.54 345.98 409.75 346.47L391.13 344.8C392.43 340.21 393.02 335.41 394.05 330.78C395.98 322.14 398.7 313.63 399.9 304.8L384.569 285.6L382.939 274.67C385.489 275.04 388.57 275.46 391.12 275.25C391.43 277.1 391.33 280.74 392 282.26C392.76 283.96 398.24 288.95 399.87 290.75C401.13 292.15 401.22 294.46 403.39 293.96L406.9 272.92C411.89 273.72 413.41 275.7 417.42 277.01L417.43 277.02Z" fill="#BE6632"/>
<path d="M411.01 115.72L410.43 115.14C410.87 115.15 410.97 115.73 411.01 115.72Z" fill="#A0D92A"/>
<path d="M188.339 224.42L191.269 288.12C193.559 286.16 199.279 283.76 200.239 281.02C201.769 264.97 207.099 247.57 208.229 231.69C208.309 230.57 208.249 229.48 207.629 228.51C208.379 228.68 209.219 228.9 209.969 229.09C213.379 229.97 216.119 231.64 219.319 232.6L217.569 251.3L239.019 238.28L240.359 233.18C244.319 232.09 247.499 229.42 251.459 228.5C250.039 232.47 249.499 240.98 246.789 243.99L217.359 264.82L216.069 266.45L212.899 301.27L211.729 322.6C197.309 322.81 182.369 323.13 167.899 323.77C168.669 301.64 169.859 279.6 170.219 257.45L160.929 244.66C159.769 243.22 159.689 245.17 159.139 245.73C156.969 247.99 147.799 257.62 147.459 259.81C147.119 262 147.999 263.62 148.039 265.59C148.419 284.93 148.169 304.19 149.139 323.51L150.939 324.93C147.449 325.48 143.159 326.68 139.539 326.68H124.349C123.259 326.68 121.719 326.63 120.549 326.68L129.659 257.98C127.919 256.38 122.879 248.43 121.129 248.37C117.939 242.18 112.799 237.31 109.189 231.36C108.819 230.75 108.989 229.91 108.859 229.67C109.429 228.56 110.829 229.29 111.679 229.47C115.329 230.23 119.169 231.17 122.879 231.42C124.029 233.31 129.819 241.16 131.349 241.37C132.559 241.54 132.659 239.47 132.749 238.66C133.029 236.27 132.699 233.81 132.819 231.42C136.819 231.06 142.859 229.55 146.849 228.5L147.719 241.35C149.079 240.4 153.379 237 153.759 235.67C154.449 233.3 151.969 229.72 151.519 227.33C156.809 225.76 161.449 223.17 167.299 222.07C167.679 224.34 164.229 228.33 164.359 229.92C164.429 230.82 170.529 239 171.099 239.01C171.729 239.01 171.939 237.6 172.009 237C172.539 232.18 171.559 226.42 171.979 221.48C180.019 221.13 181.529 222.54 188.339 224.4V224.42ZM192.439 322.6C193.559 322.4 193.409 321.38 193.629 320.58C195.259 314.66 195.549 307.1 196.819 300.99C195.939 301.97 192.939 303.99 192.389 304.73C190.409 307.41 193.119 318.8 192.439 322.6Z" fill="#BE6632"/>
<path d="M339.71 206.3L341.47 240.2C344.25 238.52 345.93 234.83 349.06 233.77C348.96 235.8 349.53 236.96 349.64 238.45C349.97 242.55 350.02 244.37 351.39 248.39L343.18 256.25C341.59 259.01 343.07 266.45 343.21 269.73C344 288.54 345.04 307.33 346.14 326.12C343.39 325.93 338.92 325.54 336.5 325.54H327.73C325.24 325.54 320.7 324.5 318.09 324.37C319.44 316.76 319.28 308.98 319.85 301.29C321.41 280.41 323.34 259.69 323.96 238.77C324.28 227.94 323.86 217.11 324.52 206.31C330.11 204.8 331.81 203.86 338.14 205.28C339.04 205.48 339.57 206.28 339.71 206.31V206.3Z" fill="#BE6632"/>
<path d="M283.599 221.5L280.069 250.4C282.999 274.83 286.339 299.31 288.859 323.78C289.019 325.31 289.979 330.79 288.479 331.29L260.799 330.79C260.919 328.08 260.639 325.31 260.799 322.61C260.799 322.52 261.359 321.95 261.409 321.2C263.059 294.92 264.209 268.69 265.949 242.37C265.729 240.94 256.999 230.49 255.329 228.43C254.709 227.66 254.519 226.67 253.199 226.76C256.359 224.17 259.509 222.85 263.719 222.67C264.209 223.61 266.839 228.18 267.239 228.51C268.959 229.95 268.169 224.24 268.979 223.25C272.339 223.26 280.509 222.42 283.589 221.5H283.599Z" fill="#BE6632"/>
<path d="M177.24 180C178.65 199.6 191.63 217.88 208.42 227.45C209.21 227.9 210.29 227.64 209.96 229.09C209.21 228.9 208.37 228.67 207.62 228.51C201.2 227.07 194.75 226.17 188.33 224.42C181.51 222.56 180 221.14 171.97 221.5C170.11 221.58 169.07 221.75 167.29 222.08C161.44 223.18 156.8 225.77 151.51 227.34C150.2 227.73 148.32 228.12 146.83 228.51C142.84 229.57 136.8 231.07 132.8 231.43C129.99 231.68 125.71 231.62 122.86 231.43C119.14 231.18 115.3 230.24 111.66 229.48C110.81 229.3 109.4 228.57 108.84 229.68C108.03 228.23 100.27 225.76 97.9299 224.52C91.3099 221.02 79.7299 211.23 76.6999 204.55C69.8299 189.42 69.9399 170.03 74.9499 154.29C94.7199 143.34 118.49 144.63 135.45 160.12C139.05 163.41 141.9 167.62 145.65 170.96C154.81 179.11 164.9 182.47 177.22 180.01L177.24 180Z" fill="#62B529"/>
<path d="M309.9 161.89C315.1 173.22 315.31 186.27 310 197.93L301.72 210.39C299.32 210.66 296.05 214.38 293.61 216.02C291.56 217.4 285.5 220.93 283.6 221.5C280.51 222.42 272.35 223.27 268.99 223.25C267.69 223.25 265.78 222.58 263.73 222.67C259.52 222.85 256.37 224.17 253.21 226.76C252.45 227.38 252.26 226.26 251.46 228.51C247.49 229.43 244.31 232.1 240.36 233.19C233.42 235.1 226.19 234.65 219.32 232.61C216.12 231.66 213.38 229.98 209.97 229.1C210.29 227.65 209.21 227.91 208.43 227.46C191.64 217.89 178.66 199.61 177.25 180.01C177.21 179.43 177.28 178.84 177.25 178.26C183.67 174.6 189.72 169.68 197.42 168.91C227 165.96 229.86 196.81 263.44 194.03C284.15 192.32 297.87 177 309.91 161.9L309.9 161.89Z" fill="#027D40"/>
<path d="M282.43 108.7C302.94 106.38 321.41 117.72 328.61 137.03C331.61 145.07 331.63 151.47 338.15 158.17C346.06 166.3 357.97 168.82 368.92 168.9C364.35 183.01 359.86 196.9 354.89 210.98C349.99 208.94 344.76 207.61 339.7 206.3C339.56 206.26 339.03 205.47 338.13 205.27C331.79 203.86 330.09 204.79 324.51 206.3C324.18 206.39 323.68 206.21 323.34 206.3L322.76 206.88C315.01 208.92 309.57 209.51 301.72 210.39L310 197.93C315.3 186.27 315.1 173.21 309.9 161.89C304.52 150.18 296.27 139.61 290.39 127.92C287.15 121.47 285.2 114.9 282.43 108.7Z" fill="#62B529"/>
<path d="M281.849 108.12L281.27 107.54C281.35 107.72 281.749 107.89 281.849 108.12Z" fill="#62B529"/>
<path d="M132.82 231.43C132.7 233.82 133.03 236.28 132.75 238.67C132.66 239.47 132.56 241.55 131.35 241.38C129.82 241.17 124.03 233.32 122.88 231.43C125.73 231.62 130.01 231.68 132.82 231.43Z" fill="#027D40"/>
<path d="M322.76 206.89L323.34 206.31C323.17 206.36 322.94 206.85 322.76 206.89Z" fill="#BE6632"/>
</svg>
