<svg width="247" height="177" viewBox="0 0 247 177" fill="none" xmlns="http://www.w3.org/2000/svg">
<path d="M8.74976 6.08008L8.50977 6.12988C8.61977 6.13988 8.70976 6.13008 8.74976 6.08008Z" fill="#20BB65"/>
<path d="M0.649841 8.33008C0.649841 8.33008 0.619844 8.31005 0.589844 8.30005L0.649841 8.33008Z" fill="#20BB65"/>
<path d="M1.7302 4.21989C1.3002 5.25989 0.190229 5.4298 0.510229 6.6298C0.360229 7.1698 0.550244 7.77999 0.650244 8.31999C1.47024 8.63999 0.610207 9.02004 1.30021 9.37004L0.810217 9.45988C1.04022 9.57988 1.20021 9.70997 0.930212 9.79997H0.790198C1.1502 9.95997 0.920195 10.1199 1.1002 10.2099H0.960241L1.01023 10.3898L0.810217 10.35C1.18022 10.64 1.20023 10.9098 1.01023 11.1498H1.59025C0.920246 11.6498 2.11025 11.87 1.34025 12.33H1.20023C2.73023 12.93 0.150195 13.2698 1.6002 13.8798C1.4202 13.8098 1.30019 13.9198 1.16019 13.9098C1.32019 14.1898 1.43023 14.4999 2.57023 14.4699C2.57023 14.6699 2.22025 14.6399 1.78025 14.6799C2.28025 14.6699 2.49025 14.8399 2.53025 14.9899L2.33024 14.9198L2.51023 15.37L3.45023 15.2499C3.19023 15.4999 2.3002 15.36 2.5402 15.58L3.32023 15.54C3.18023 15.87 2.00023 16.1299 1.45023 16.4899C1.20023 17.9099 3.32023 19.15 2.14023 20.57L1.57023 20.7099C0.730227 20.8599 2.8802 20.88 2.1002 21.04L2.51023 21.1298C2.36023 21.1898 2.22023 21.3099 2.01023 21.2599C2.00023 21.3999 2.14019 21.3799 2.41019 21.4399L1.91019 21.6698C1.58019 22.2898 2.7002 22.5598 2.6002 23.1598C1.6502 24.0598 2.95022 25.1499 3.69022 25.7099C4.45022 26.0499 4.08023 26.7198 3.76023 27.4198C3.45023 28.1098 3.1802 28.84 4.0402 29.12C3.9402 29.19 4.23023 29.1898 4.32023 29.1598L4.56022 30.1298C4.56022 30.1298 4.6502 30.4199 4.8602 30.7599C5.0902 31.0999 5.45024 31.4798 5.96024 31.6498C6.48024 31.8298 7.14022 31.8 8.00022 31.34C8.86022 30.89 9.90021 30 11.2402 28.61L11.4202 28.56C11.6502 27.97 11.6702 27.6799 10.6702 27.7199C11.7302 27.2699 10.6502 27.33 10.9602 27.1L11.0502 27.08C10.1102 27.12 11.5502 26.3 10.7202 26.31C10.8102 26.29 11.1102 26.1899 11.1502 26.2499C10.9502 26.1199 10.6302 25.9399 11.2602 25.7199C10.9402 25.3399 11.0702 24.6498 9.96024 24.6498L10.1402 24.62C9.40023 24.65 9.98023 24.44 9.57023 24.35C9.65023 24.32 9.6902 24.29 9.7302 24.28C8.9802 24.28 9.48024 23.7799 9.15024 23.7099L9.58024 23.59L9.39023 23.2499L9.33024 23.4098C8.13024 23.6498 10.0102 22.9598 9.18021 22.8798C9.27021 22.6098 6.5702 22.9099 7.1102 22.5099C6.5202 22.4999 8.04024 22.44 7.58024 22.33C8.20024 22.2 7.9902 22.3299 8.4802 22.1899C8.1502 22.0599 9.06019 21.76 8.60019 21.62L9.09025 21.5199C8.14025 21.3899 9.63021 20.86 8.74021 20.81C8.29021 20.57 10.1702 20.3699 9.16019 20.2099L9.81022 19.9899C9.90022 19.8399 8.98025 20.02 9.28025 19.82C9.70025 19.77 9.59022 19.59 10.0002 19.61C10.6102 19.2 8.96025 19.0599 10.0302 18.4799C9.20025 18.4799 9.6602 18.1999 9.0402 18.1999C9.4002 18.1499 9.04019 17.7498 9.85019 17.9198C9.92019 17.9298 9.91024 17.9699 9.77024 17.9899L10.2602 17.9699C11.1502 17.6299 9.70023 17.57 9.82023 17.31C9.66023 17.4 9.72022 17.4899 9.38022 17.4599L9.43021 17.2199H9.84025L10.0602 16.87L9.56022 16.9599C9.81022 16.7699 10.6702 16.6499 9.93021 16.5099C9.52021 16.4499 9.26024 16.72 9.08024 16.55C9.41024 16.3 9.9102 15.9298 10.0402 15.6298C9.4702 15.6898 9.49021 15.61 9.37021 15.53L9.87021 15.4999C9.17021 15.2199 10.9602 15.34 10.4002 15.06H10.7502L9.71024 15.03C8.71024 14.79 10.7402 14.85 9.38022 14.58C9.47022 14.7 8.28022 14.6699 8.50022 14.5099L8.9802 14.54C8.8802 14.46 8.67024 14.4398 8.77024 14.3798C9.03024 14.4198 9.47022 14.3799 9.38022 14.2699L9.9802 14.34L9.09025 14.1298C9.60025 13.9398 8.95022 13.67 9.63022 13.59C9.63022 13.59 9.96019 13.21 9.22019 13.12C9.68019 13.2 9.86024 12.99 10.4002 13.05C9.88024 12.95 9.45023 12.65 10.0102 12.54L10.0702 12.56C10.6302 12.14 9.31023 11.7999 10.0102 11.4299C9.43023 11.4299 9.75023 11.2299 9.01023 11.2599C8.30023 10.8099 10.5402 10.59 8.26023 10.32C8.14023 10.12 8.81021 10.13 8.93021 10.04L9.05021 10.09C8.89021 9.73001 8.87023 9.62004 8.95023 9.37004C8.74023 9.22004 7.68023 9.12983 7.95023 8.90983C8.36023 9.01983 8.29021 8.91 8.30021 8.83C8.36021 8.89 8.51022 8.92 8.81022 8.83C8.68022 8.8 8.6002 8.76991 8.5402 8.73991C8.5702 8.73991 8.60023 8.73991 8.64023 8.73991C8.50023 8.57991 8.37022 8.59983 8.31022 8.65983C8.25022 8.65983 8.16021 8.65983 8.05021 8.65983C8.60021 8.54983 8.05024 8.22994 8.77024 8.26994C8.65024 7.81994 7.94023 7.42994 7.70023 7.01994C8.08023 7.01994 8.39025 7.13993 8.53025 7.25993L8.4202 6.9799C8.9502 7.0399 8.71022 7.15992 8.81022 7.24992C9.70022 7.03992 8.02019 6.51991 8.85019 6.23991L8.44022 6.11003H8.51023C8.29023 6.07003 8.00021 5.94981 7.93021 5.88981C8.40021 5.88981 9.00021 6.03001 8.99021 5.84001C9.46021 5.76001 8.82019 5.40986 8.60019 5.18986C8.51019 5.27986 8.26019 5.20982 8.10019 5.14982C8.10019 5.05982 8.57022 5.06989 8.38022 4.96989L9.01023 5.04997C8.42023 4.99997 8.41019 4.72983 8.16019 4.65983C8.63019 4.66983 8.54022 4.85985 8.88022 4.92985C8.88022 4.55985 8.88021 4.7498 8.87021 4.3798C8.43021 4.1198 8.28021 4.32982 7.74021 4.14982C7.64021 3.95982 7.23023 3.72 7.64023 3.58L7.08024 3.55998C6.71024 3.16998 6.80024 2.98002 7.40024 2.85002C5.36024 1.25002 3.8602 0.80999 2.8502 0.81999C1.8502 0.82999 1.3502 1.27995 1.3502 1.27995C-0.0398049 2.11995 1.46021 2.91988 1.74021 4.20988L1.7302 4.21989Z" fill="#20BB65"/>
<path d="M26.6801 46.0901L26.6201 46.3301C26.6801 46.2401 26.7101 46.1501 26.6801 46.0901Z" fill="#20BB65"/>
<path d="M43.8008 53.6799C43.8008 53.6799 43.8208 53.6499 43.8308 53.6399C43.8108 53.6499 43.8008 53.6699 43.8008 53.6799Z" fill="#20BB65"/>
<path d="M25.3107 54.3799C25.3107 54.3799 25.2807 54.3999 25.2607 54.4199L25.3107 54.3799Z" fill="#20BB65"/>
<path d="M22.0104 51.6599C22.7904 52.4799 22.4805 53.59 23.7105 53.8C24.1405 54.15 24.7804 54.2499 25.3104 54.3899C25.9404 53.7699 25.9305 54.72 26.5305 54.24L26.4005 54.72C26.6105 54.56 26.7904 54.47 26.7604 54.75L26.6904 54.8701C27.0004 54.6201 27.0505 54.89 27.2005 54.77L27.1304 54.8899L27.3204 54.9199L27.2005 55.0801C27.6205 54.8601 27.8704 54.96 28.0104 55.23L28.2604 54.7C28.4304 55.52 29.1305 54.5299 29.2105 55.4199L29.1405 55.54C30.3305 54.41 29.5305 56.8901 30.7005 55.8301C30.5505 55.9601 30.6004 56.11 30.5404 56.24C30.8604 56.2 31.1705 56.24 31.6505 55.21C31.8305 55.31 31.6504 55.6 31.4904 56.01C31.7004 55.55 31.9405 55.44 32.0905 55.47L31.9505 55.6201L32.4304 55.6499L32.7304 54.75C32.8304 55.09 32.3204 55.83 32.6204 55.71L32.9304 54.99C33.1604 55.27 32.8704 56.4201 32.9304 57.0801C34.0404 57.9201 36.0904 56.6001 36.7304 58.3101L36.5704 58.8799C36.2904 59.6899 37.3404 57.8101 37.1004 58.5701L37.3704 58.25C37.3504 58.41 37.3704 58.59 37.2404 58.75C37.3504 58.83 37.4005 58.7 37.5805 58.49L37.5305 59.04C37.8805 59.62 38.6505 58.7899 39.0905 59.1699C39.3505 60.4199 40.8605 59.87 41.7105 59.54C43.0405 58.62 43.1304 62.2401 44.5404 61.1201C44.5404 61.2501 44.7004 61.0099 44.7204 60.9099L45.5805 61.29C45.5805 61.29 46.6505 61.6801 47.5305 61.0901C48.4205 60.5001 49.0805 58.9301 48.4505 55.0601L48.5205 54.8899C48.1805 54.3199 47.9105 54.15 47.3305 54.96C47.6005 53.84 46.9804 54.7301 46.9804 54.3401L47.0205 54.25C46.4905 55.02 46.6505 53.37 46.1505 54.05C46.1905 53.97 46.2804 53.6599 46.3504 53.6599C46.1104 53.7399 45.7605 53.91 45.9505 53.26C45.4305 53.28 44.8704 52.78 44.2404 53.71L44.3204 53.54C43.9304 54.17 44.0604 53.5701 43.7604 53.8601C43.7804 53.7701 43.7804 53.7299 43.7904 53.6899C43.3804 54.3099 43.2105 53.6101 42.9605 53.8501L43.0905 53.4199L42.6904 53.3899L42.8004 53.53C42.3604 54.68 42.7604 52.7101 42.2404 53.3701C42.0404 53.1401 40.9005 55.5999 40.8305 54.9399C40.5105 55.4399 41.2504 54.1 40.9104 54.45C41.1104 53.85 41.1304 54.1001 41.2504 53.6001C40.9704 53.8201 41.1704 52.88 40.8004 53.21L40.9605 52.74C40.3605 53.49 40.6305 51.9299 40.1405 52.6799C39.7005 52.9499 40.4504 51.22 39.8004 52.02L39.9104 51.3401C39.8204 51.1901 39.5304 52.08 39.4904 51.72C39.6504 51.33 39.4205 51.33 39.6505 50.99C39.5605 50.25 38.6404 51.6199 38.6204 50.3999C38.2304 51.1299 38.1905 50.5899 37.8905 51.1299C38.0105 50.7899 37.4804 50.9 38.0104 50.28C38.0504 50.23 38.0905 50.2499 38.0305 50.3799L38.2404 49.9399C38.3404 48.9899 37.6104 50.23 37.4204 50.01C37.4304 50.19 37.5404 50.19 37.3504 50.47L37.1505 50.3201L37.3504 49.96L37.1104 49.6001L36.9605 50.0901C36.9005 49.7801 37.1805 48.96 36.7105 49.55C36.4705 49.89 36.6004 50.2501 36.3604 50.3201C36.2804 49.9101 36.1604 49.29 35.9404 49.03C35.7404 49.57 35.6704 49.5201 35.5504 49.5901L35.7404 49.1299C35.1704 49.6399 36.0704 48.08 35.5704 48.46L35.7404 48.1499L35.2404 49.0701C34.5804 49.8501 35.5204 48.0599 34.6804 49.1599C34.8304 49.1299 34.2804 50.1899 34.2304 49.9199L34.4605 49.5C34.3405 49.56 34.2304 49.7301 34.2204 49.6101C34.3704 49.4001 34.5305 48.98 34.3905 49.01L34.7204 48.5L34.1405 49.21C34.1905 48.67 33.6504 49.13 33.8704 48.49C33.8704 48.49 33.6604 48.0199 33.2604 48.6499C33.5304 48.2699 33.4105 48.02 33.7005 47.55C33.3905 47.98 32.9304 48.2299 33.0604 47.6799L33.1104 47.6299C32.9604 46.9299 32.0904 48 32.0504 47.2C31.8004 47.72 31.7604 47.35 31.4704 48.03C30.7604 48.49 31.5004 46.3601 30.3004 48.3101C30.0704 48.3301 30.3504 47.7301 30.3204 47.5801L30.4204 47.5C30.0204 47.5 29.9204 47.47 29.7204 47.29C29.5004 47.42 28.9704 48.34 28.8804 48C29.1504 47.67 29.0305 47.6899 28.9505 47.6499C29.0305 47.6199 29.1204 47.4899 29.1604 47.1899C29.0804 47.2999 29.0204 47.3499 28.9704 47.3999C28.9904 47.3699 28.9905 47.3501 29.0205 47.3101C28.8205 47.3701 28.7804 47.5001 28.8104 47.5801C28.7804 47.6301 28.7405 47.7101 28.7005 47.8201C28.8305 47.2701 28.3105 47.64 28.6505 47C28.1905 46.92 27.5404 47.41 27.0704 47.46C27.2304 47.12 27.4705 46.8801 27.6405 46.8101L27.3405 46.79C27.6205 46.33 27.6304 46.6 27.7504 46.55C27.9304 45.66 26.7504 46.9601 26.8604 46.0901L26.5704 46.4099L26.5905 46.3401C26.4705 46.5301 26.2404 46.75 26.1604 46.78C26.3604 46.36 26.7404 45.87 26.5704 45.8C26.6904 45.34 26.1104 45.7799 25.8104 45.8899C25.8504 46.0099 25.6804 46.2101 25.5604 46.3301C25.4804 46.2901 25.6905 45.87 25.5205 46L25.8604 45.47C25.5704 45.99 25.3105 45.8801 25.1405 46.0701C25.3505 45.6501 25.4804 45.81 25.6904 45.53C25.3604 45.38 25.5204 45.45 25.1904 45.3C24.7604 45.59 24.8904 45.81 24.5004 46.22C24.2904 46.22 23.9005 46.4901 23.9505 46.0701L23.6904 46.5701C23.1704 46.7501 23.0404 46.57 23.1904 45.98C20.8604 47.12 19.7904 48.2499 19.3604 49.1599C18.9304 50.0599 19.1304 50.72 19.1304 50.72C19.2904 52.37 20.7104 51.3499 21.9904 51.6799L22.0104 51.6599Z" fill="#20BB65"/>
<path d="M73.0605 60.1201L73.1005 60.3601C73.1105 60.2501 73.1005 60.1601 73.0605 60.1201Z" fill="#20BB65"/>
<path d="M92.2705 62.25C92.2705 62.25 92.2805 62.22 92.2905 62.2C92.2805 62.22 92.2705 62.23 92.2705 62.25Z" fill="#20BB65"/>
<path d="M74.9607 68.3C74.9607 68.3 74.9407 68.3301 74.9307 68.3601L74.9607 68.3Z" fill="#20BB65"/>
<path d="M71.1005 67.1201C72.0905 67.5501 72.2205 68.6599 73.3505 68.3799C73.8505 68.5399 74.4306 68.36 74.9506 68.3C75.3006 67.49 75.6105 68.37 75.9805 67.71L76.0306 68.2C76.1606 67.97 76.2905 67.8201 76.3605 68.0901L76.3406 68.23C76.5306 67.89 76.6706 68.12 76.7606 67.95L76.7405 68.0901L76.9205 68.05L76.8605 68.24C77.1605 67.89 77.4206 67.9001 77.6306 68.1001L77.6805 67.52C78.0905 68.23 78.4206 67.0501 78.7606 67.8701L78.7405 68.01C79.4805 66.56 79.5006 69.15 80.2506 67.78C80.1606 67.95 80.2505 68.08 80.2205 68.22C80.5005 68.09 80.8005 68.0299 80.9305 66.8999C81.1205 66.9399 81.0506 67.27 81.0206 67.71C81.0806 67.21 81.2705 67.03 81.4205 67.01L81.3306 67.1899L81.7806 67.0701L81.8005 66.1201C82.0005 66.4201 81.7305 67.2701 81.9705 67.0701L82.0606 66.29C82.3606 66.48 82.4106 67.68 82.6506 68.28C83.8906 68.75 85.4706 66.9199 86.5106 68.4099V69C86.4406 69.86 86.9605 67.7701 86.9205 68.5601L87.1005 68.1799C87.1205 68.3399 87.1905 68.5099 87.1005 68.6899C87.2205 68.7399 87.2405 68.6001 87.3605 68.3501L87.4406 68.8899C87.9006 69.3499 88.4306 68.3699 88.9406 68.6299C89.4706 69.7799 90.7606 68.8999 91.5106 68.3799C92.5906 67.1999 93.4106 70.7001 94.5306 69.3301C94.5506 69.4501 94.6605 69.1901 94.6705 69.0901L95.5706 69.29C95.5706 69.29 99.9306 69.9899 97.2006 62.6299L97.2405 62.45C96.7905 61.96 96.4906 61.83 96.0706 62.74C96.1206 61.59 95.6806 62.59 95.5906 62.2L95.6105 62.1101C95.2305 62.9701 95.0606 61.3201 94.7006 62.0901C94.7206 62.0001 94.7506 61.6899 94.8206 61.6699C94.6006 61.7999 94.2906 62.0201 94.3306 61.3601C93.8106 61.4901 93.1405 61.1199 92.7205 62.1499L92.7606 61.97C92.5106 62.67 92.5106 62.0499 92.2706 62.3999C92.2706 62.3099 92.2606 62.27 92.2706 62.23C92.0006 62.92 91.6805 62.2901 91.4905 62.5701L91.5206 62.1299L91.1105 62.2L91.2506 62.3101C91.0806 63.5201 91.0205 61.52 90.6605 62.28C90.4105 62.1 89.8706 64.7599 89.6406 64.1399C89.4506 64.6999 89.8505 63.2199 89.6105 63.6399C89.6705 62.9999 89.7405 63.25 89.7405 62.74C89.5105 63.02 89.4806 62.06 89.2006 62.46L89.2405 61.96C88.8305 62.83 88.7105 61.2501 88.4105 62.0901C88.0405 62.4701 88.3406 60.6 87.9006 61.53L87.8406 60.8501C87.7106 60.7301 87.6506 61.6601 87.5306 61.3201C87.5806 60.9001 87.3606 60.9601 87.5006 60.5701C87.2106 59.8701 86.6706 61.43 86.3106 60.26C86.1206 61.07 85.9305 60.5599 85.7905 61.1599C85.8205 60.7999 85.3105 61.05 85.6705 60.3C85.7005 60.24 85.7405 60.2599 85.7205 60.3899L85.8005 59.9099C85.6305 58.9599 85.2506 60.3599 85.0006 60.1899C85.0606 60.3599 85.1706 60.3299 85.0706 60.6599L84.8306 60.5701L84.9305 60.1699L84.5806 59.8899V60.3999C84.4206 60.1199 84.4505 59.25 84.1705 59.95C84.0305 60.34 84.2706 60.65 84.0606 60.79C83.8506 60.42 83.5506 59.8599 83.2506 59.6699C83.2106 60.2399 83.1306 60.2101 83.0306 60.3201L83.0806 59.8201C82.6706 60.4701 83.0806 58.72 82.6906 59.23L82.7606 58.8899L82.5606 59.9099C82.1506 60.8599 82.5205 58.8699 82.0405 60.1699C82.1805 60.0999 81.9706 61.27 81.8406 61.03L81.9406 60.5601C81.8406 60.6501 81.7905 60.85 81.7405 60.74C81.8205 60.49 81.8506 60.0501 81.7106 60.1201L81.8706 59.53L81.5206 60.3799C81.3906 59.8499 81.0106 60.45 81.0206 59.77C81.0206 59.77 80.6505 59.3901 80.4705 60.1201C80.6105 59.6701 80.4006 59.4699 80.5306 58.9399C80.3606 59.4499 80.0006 59.83 79.9406 59.27L79.9705 59.21C79.5805 58.59 79.0906 59.8799 78.7606 59.1499C78.7106 59.7299 78.5305 59.3899 78.4905 60.1299C77.9705 60.7999 77.9006 58.54 77.4606 60.79C77.2506 60.89 77.3006 60.2301 77.2106 60.1001L77.2706 59.99C76.8806 60.13 76.7706 60.14 76.5106 60.05C76.3506 60.25 76.1905 61.3 75.9805 61.02C76.1105 60.61 76.0005 60.6799 75.9105 60.6599C75.9805 60.5999 76.0105 60.4499 75.9305 60.1499C75.9005 60.2799 75.8606 60.3499 75.8306 60.4199C75.8306 60.3899 75.8306 60.3601 75.8406 60.3201C75.6706 60.4501 75.6805 60.5799 75.7405 60.6499C75.7305 60.7099 75.7205 60.7999 75.7305 60.9099C75.6505 60.3499 75.2905 60.8899 75.3605 60.1699C74.8805 60.2699 74.4605 60.97 74.0405 61.2C74.0405 60.82 74.1806 60.5099 74.3106 60.3799L74.0206 60.48C74.1006 59.95 74.2206 60.2001 74.3106 60.1001C74.1106 59.2001 73.5306 60.86 73.2706 60.02L73.1306 60.4299V60.3601C73.0906 60.5801 72.9606 60.8699 72.8906 60.9399C72.9006 60.4699 73.0505 59.8699 72.8605 59.8799C72.7805 59.4099 72.4105 60.04 72.1805 60.26C72.2705 60.35 72.2006 60.6 72.1306 60.76C72.0306 60.76 72.0506 60.29 71.9506 60.48L72.0306 59.8501C71.9806 60.4401 71.6905 60.45 71.6205 60.7C71.6405 60.23 71.8206 60.32 71.9006 59.98C71.5206 59.98 71.7106 59.98 71.3306 59.98C71.0606 60.42 71.2805 60.5701 71.1005 61.1101C70.9105 61.2101 70.6706 61.61 70.5206 61.21L70.5006 61.77C70.1006 62.15 69.9106 62.05 69.7806 61.46C68.2006 63.52 67.8206 65.03 67.8406 66.04C67.8706 67.04 68.3005 67.53 68.3005 67.53C69.1005 68.91 69.8705 67.3701 71.1005 67.1201Z" fill="#20BB65"/>
<path d="M122.601 64.6399L122.661 64.8799C122.661 64.7699 122.661 64.6799 122.601 64.6399Z" fill="#20BB65"/>
<path d="M142.091 65.9099C142.091 65.9099 142.101 65.8801 142.111 65.8601C142.101 65.8801 142.091 65.8899 142.091 65.9099Z" fill="#20BB65"/>
<path d="M125.05 72.6699C125.05 72.6699 125.04 72.7 125.03 72.73L125.06 72.6699H125.05Z" fill="#20BB65"/>
<path d="M121.18 71.77C122.19 72.12 122.39 73.2201 123.48 72.8601C123.98 72.9801 124.54 72.7699 125.05 72.6799C125.34 71.8499 125.701 72.71 126.031 72.03L126.1 72.52C126.21 72.29 126.34 72.1299 126.42 72.3899L126.401 72.53C126.571 72.18 126.72 72.41 126.8 72.23L126.781 72.3701L126.961 72.3201L126.92 72.52C127.2 72.15 127.46 72.1501 127.67 72.3401L127.691 71.76C128.131 72.44 128.391 71.25 128.781 72.05L128.761 72.1899C129.421 70.6999 129.56 73.2899 130.24 71.8799C130.16 72.0599 130.24 72.1801 130.24 72.3201C130.52 72.1701 130.801 72.11 130.891 70.97C131.081 71 131.021 71.34 131.011 71.78C131.051 71.28 131.231 71.0901 131.381 71.0701L131.3 71.26L131.74 71.1201L131.72 70.1699C131.93 70.4599 131.69 71.3201 131.93 71.1101L131.98 70.3301C132.28 70.5101 132.381 71.7 132.641 72.29C133.881 72.71 135.391 70.82 136.461 72.27V72.8601C136.431 73.7201 136.89 71.6199 136.87 72.4099L137.04 72.03C137.07 72.19 137.14 72.36 137.05 72.54C137.17 72.58 137.19 72.4399 137.3 72.1899L137.401 72.73C137.871 73.18 138.371 72.1799 138.881 72.4299C139.431 73.5599 140.69 72.6401 141.42 72.1101C142.48 70.9001 143.341 74.38 144.441 72.99C144.461 73.11 144.571 72.85 144.571 72.75L145.461 72.9299C145.461 72.9299 149.81 73.56 147.05 66.25L147.091 66.0701C146.631 65.5801 146.33 65.4599 145.91 66.3799C145.95 65.2299 145.51 66.2301 145.43 65.8501L145.451 65.76C145.081 66.62 144.891 64.98 144.531 65.76C144.551 65.67 144.581 65.3501 144.651 65.3401C144.431 65.4701 144.121 65.71 144.151 65.04C143.631 65.18 142.95 64.8201 142.54 65.8701L142.581 65.6899C142.341 66.3999 142.33 65.7799 142.1 66.1299C142.1 66.0399 142.081 66 142.091 65.96C141.831 66.66 141.491 66.0301 141.311 66.3201L141.331 65.8799L140.92 65.96L141.061 66.0701C140.911 67.2901 140.821 65.28 140.461 66.05C140.201 65.88 139.71 68.5499 139.48 67.9299C139.3 68.4899 139.67 67.0099 139.43 67.4399C139.47 66.7999 139.55 67.05 139.54 66.54C139.32 66.83 139.26 65.87 138.99 66.28L139.021 65.78C138.631 66.66 138.471 65.0899 138.191 65.9399C137.831 66.3299 138.08 64.4499 137.67 65.3999L137.591 64.72C137.451 64.6 137.42 65.54 137.29 65.2C137.33 64.78 137.11 64.85 137.24 64.45C136.92 63.76 136.421 65.3399 136.021 64.1799C135.851 64.9899 135.651 64.4901 135.521 65.1001C135.531 64.7401 135.04 65.01 135.37 64.25C135.4 64.19 135.44 64.2001 135.43 64.3401L135.501 63.8501C135.291 62.9101 134.961 64.3199 134.701 64.1599C134.771 64.3299 134.881 64.2901 134.781 64.6201L134.531 64.54L134.61 64.1299L134.251 63.8601V64.3701C134.101 64.1001 134.101 63.2299 133.841 63.9299C133.721 64.3299 133.961 64.63 133.761 64.77C133.541 64.41 133.211 63.8599 132.901 63.6799C132.891 64.2499 132.801 64.2301 132.711 64.3401L132.74 63.8401C132.35 64.5101 132.701 62.74 132.321 63.26L132.37 62.9199L132.211 63.95C131.841 64.91 132.121 62.91 131.691 64.23C131.831 64.15 131.671 65.3301 131.531 65.1001L131.61 64.6201C131.51 64.7101 131.47 64.9101 131.42 64.8101C131.49 64.5601 131.5 64.1099 131.36 64.1899L131.49 63.6001L131.18 64.46C131.02 63.93 130.671 64.5601 130.641 63.8701C130.641 63.8701 130.25 63.51 130.1 64.24C130.22 63.79 130 63.5901 130.1 63.0601C129.96 63.5701 129.611 63.9799 129.521 63.4099L129.55 63.3501C129.12 62.7501 128.691 64.0701 128.321 63.3501C128.301 63.9301 128.1 63.6001 128.1 64.3401C127.61 65.0401 127.411 62.79 127.091 65.05C126.881 65.16 126.89 64.4999 126.8 64.3799L126.86 64.26C126.48 64.42 126.371 64.4301 126.091 64.3601C125.941 64.5701 125.84 65.6301 125.61 65.3601C125.72 64.9501 125.611 65.02 125.521 65.01C125.581 64.95 125.611 64.8 125.521 64.5C125.491 64.63 125.46 64.71 125.43 64.77C125.43 64.74 125.43 64.7099 125.43 64.6699C125.27 64.8099 125.28 64.94 125.35 65C125.35 65.06 125.35 65.15 125.35 65.26C125.23 64.71 124.9 65.26 124.93 64.54C124.45 64.68 124.07 65.3999 123.67 65.6499C123.65 65.2699 123.771 64.9501 123.891 64.8201L123.61 64.9399C123.65 64.4099 123.791 64.64 123.881 64.54C123.611 63.65 123.151 65.36 122.821 64.54L122.711 64.96L122.691 64.8899C122.681 65.1099 122.571 65.41 122.511 65.48C122.491 65.01 122.591 64.4099 122.401 64.4199C122.281 63.9599 121.961 64.6201 121.751 64.8501C121.851 64.9401 121.801 65.1901 121.751 65.3501C121.651 65.3501 121.63 64.8901 121.55 65.0901L121.581 64.46C121.581 65.06 121.29 65.0801 121.24 65.3401C121.22 64.8701 121.411 64.9501 121.461 64.6001C121.081 64.6301 121.271 64.6199 120.891 64.6499C120.661 65.1099 120.891 65.25 120.751 65.79C120.561 65.9 120.36 66.3299 120.18 65.9299L120.211 66.49C119.851 66.9 119.651 66.82 119.461 66.24C116.661 70.61 118.521 72.4099 118.521 72.4099C119.421 73.7099 120.03 72.12 121.23 71.77H121.18Z" fill="#20BB65"/>
<path d="M172.591 68.8899L172.641 69.1299C172.651 69.0199 172.641 68.9299 172.591 68.8899Z" fill="#20BB65"/>
<path d="M192.07 72.0601C192.07 72.0601 192.09 72.03 192.1 72.01C192.08 72.03 192.08 72.0401 192.07 72.0601Z" fill="#20BB65"/>
<path d="M174.51 77.0601C174.51 77.0601 174.49 77.0901 174.48 77.1201L174.51 77.0601Z" fill="#20BB65"/>
<path d="M170.75 75.9199C171.73 76.3299 171.85 77.4399 172.95 77.1399C173.44 77.2899 174 77.1201 174.5 77.0601C174.85 76.2501 175.14 77.14 175.51 76.47L175.55 76.96C175.68 76.73 175.81 76.5901 175.87 76.8601L175.84 77C176.03 76.66 176.16 76.9 176.26 76.73L176.23 76.8701L176.41 76.8301L176.35 77.02C176.65 76.67 176.91 76.6899 177.1 76.8899L177.17 76.3101C177.55 77.0201 177.9 75.8599 178.22 76.6899L178.19 76.8301C178.97 75.4001 178.89 77.9899 179.67 76.6399C179.57 76.8099 179.65 76.9401 179.63 77.0801C179.91 76.9601 180.2 76.92 180.39 75.79C180.58 75.84 180.49 76.1701 180.44 76.6101C180.52 76.1201 180.71 75.9399 180.87 75.9299L180.77 76.1101L181.22 76.01L181.29 75.0701C181.47 75.3801 181.16 76.21 181.41 76.02L181.53 75.25C181.81 75.45 181.8 76.65 182 77.27C183.17 77.8 184.85 76.0799 185.75 77.6399L185.69 78.23C185.55 79.08 186.24 77.0401 186.14 77.8301L186.35 77.47C186.35 77.63 186.411 77.8 186.311 77.98C186.431 78.04 186.46 77.8999 186.59 77.6599L186.62 78.21C187.02 78.71 187.63 77.7801 188.1 78.0801C188.5 79.2701 189.84 78.5201 190.62 78.0901C191.83 77.0301 192.17 80.6099 193.43 79.3899C193.43 79.5199 193.57 79.2699 193.6 79.1699L194.44 79.49C194.44 79.49 195.46 79.82 196.3 79.2C197.13 78.57 197.84 76.9999 197.04 73.1499L197.11 72.98C196.73 72.42 196.43 72.2501 195.88 73.0801C196.09 71.9501 195.5 72.87 195.47 72.48L195.5 72.3899C195 73.1799 195.05 71.53 194.58 72.24C194.61 72.15 194.69 71.8501 194.76 71.8401C194.52 71.9301 194.17 72.12 194.3 71.46C193.76 71.52 193.111 71.06 192.561 72.04L192.62 71.8601C192.28 72.5301 192.36 71.91 192.08 72.23C192.08 72.14 192.08 72.0901 192.09 72.0601C191.74 72.7201 191.48 72.0501 191.26 72.3101L191.34 71.8701L190.92 71.8899L191.05 72.01C190.75 73.2 190.9 71.1999 190.45 71.9199C190.21 71.7099 189.4 74.2999 189.24 73.6599C189 74.1999 189.54 72.7699 189.25 73.1599C189.37 72.5299 189.42 72.79 189.47 72.28C189.21 72.54 189.27 71.58 188.95 71.95L189.04 71.46C188.55 72.29 188.56 70.7 188.19 71.51C187.79 71.85 188.25 70.0199 187.72 70.9099V70.22C187.58 70.09 187.45 71.0099 187.35 70.6599C187.44 70.2399 187.21 70.2899 187.38 69.9099C187.13 69.1899 186.46 70.7 186.18 69.51C185.93 70.3 185.77 69.7701 185.58 70.3701C185.63 70.0101 185.1 70.23 185.51 69.51C185.54 69.45 185.581 69.4701 185.561 69.6101L185.68 69.1299C185.56 68.1699 185.09 69.5401 184.84 69.3501C184.89 69.5201 185.01 69.5001 184.88 69.8201L184.64 69.71L184.76 69.3101L184.42 69.01L184.39 69.52C184.25 69.23 184.33 68.36 184 69.04C183.84 69.42 184.06 69.7501 183.84 69.8701C183.65 69.4901 183.37 68.91 183.07 68.7C183.01 69.27 182.92 69.2401 182.82 69.3401L182.89 68.8501C182.44 69.4801 182.94 67.75 182.52 68.24L182.61 67.8999L182.35 68.9099C181.89 69.8299 182.35 67.8599 181.8 69.1399C181.95 69.0799 181.691 70.23 181.561 69.99L181.68 69.52C181.57 69.61 181.51 69.7999 181.47 69.6899C181.56 69.4399 181.61 69.0001 181.47 69.0601L181.65 68.48L181.26 69.3101C181.15 68.7701 180.74 69.3599 180.77 68.6799C180.77 68.6799 180.4 68.29 180.19 69C180.34 68.56 180.14 68.3501 180.29 67.8201C180.1 68.3201 179.72 68.6901 179.67 68.1201L179.7 68.0601C179.31 67.4301 178.78 68.71 178.45 67.96C178.38 68.53 178.21 68.1899 178.15 68.9299C177.61 69.5899 177.57 67.3301 177.08 69.5601C176.86 69.6501 176.92 69.0001 176.83 68.8701L176.89 68.76C176.49 68.89 176.38 68.9001 176.11 68.8101C175.94 69.0101 175.771 70.06 175.561 69.77C175.701 69.36 175.59 69.4299 175.49 69.4099C175.56 69.3499 175.6 69.1999 175.52 68.8999C175.48 69.0299 175.45 69.0999 175.41 69.1699C175.41 69.1399 175.41 69.1101 175.42 69.0701C175.25 69.2001 175.25 69.3299 175.32 69.3999C175.31 69.4599 175.301 69.5499 175.311 69.6599C175.221 69.0999 174.86 69.6299 174.94 68.9099C174.45 69.0099 174.02 69.7099 173.6 69.9399C173.6 69.5599 173.74 69.2501 173.87 69.1201L173.58 69.22C173.65 68.69 173.78 68.9401 173.88 68.8401C173.67 67.9401 173.091 69.61 172.811 68.77L172.68 69.1799V69.1101C172.64 69.3301 172.51 69.6199 172.45 69.6899C172.45 69.2199 172.59 68.6199 172.4 68.6299C172.31 68.1599 171.95 68.8 171.72 69.02C171.82 69.11 171.75 69.36 171.68 69.52C171.58 69.52 171.59 69.05 171.49 69.24L171.561 68.6101C171.521 69.2001 171.23 69.21 171.17 69.47C171.17 69 171.37 69.09 171.43 68.74C171.04 68.75 171.24 68.74 170.85 68.76C170.59 69.21 170.81 69.3599 170.65 69.8899C170.46 69.9899 170.23 70.4 170.07 70V70.5601C169.68 70.9501 169.49 70.86 169.33 70.27C166.31 74.5 168.07 76.3899 168.07 76.3899C168.89 77.7299 169.58 76.1799 170.78 75.8899L170.75 75.9199Z" fill="#20BB65"/>
<path d="M221.61 82.24L221.57 82.48C221.62 82.39 221.65 82.29 221.61 82.24Z" fill="#20BB65"/>
<path d="M237.561 95.25C237.561 95.25 237.59 95.25 237.61 95.23C237.59 95.23 237.571 95.23 237.561 95.25Z" fill="#20BB65"/>
<path d="M220.25 90.51C220.25 90.51 220.22 90.53 220.2 90.55L220.25 90.51Z" fill="#20BB65"/>
<path d="M217.39 88.1699C218.12 88.8599 217.8 89.95 218.87 90.04C219.24 90.34 219.78 90.39 220.24 90.51C220.87 89.9 220.77 90.8001 221.35 90.3501L221.18 90.8101C221.38 90.6501 221.56 90.5701 221.49 90.8401L221.41 90.95C221.72 90.72 221.73 90.9801 221.88 90.8601L221.8 90.97L221.97 91.01L221.84 91.1599C222.24 90.9599 222.46 91.0701 222.54 91.3301L222.85 90.8401C222.85 91.6301 223.67 90.7401 223.57 91.6001L223.48 91.71C224.8 90.76 223.53 93.0099 224.81 92.1599C224.65 92.2699 224.65 92.42 224.56 92.53C224.85 92.54 225.11 92.63 225.81 91.73C225.95 91.85 225.71 92.1 225.46 92.46C225.76 92.06 226.02 92.0001 226.15 92.0601L225.98 92.1699L226.4 92.29L226.92 91.5C226.92 91.85 226.25 92.4399 226.55 92.3899L227.04 91.78C227.18 92.09 226.56 93.12 226.41 93.74C227.07 94.71 229.36 94.1101 229.18 95.8701L228.8 96.3201C228.21 96.9401 229.91 95.63 229.38 96.22L229.75 96.03C229.66 96.16 229.6 96.3299 229.42 96.4199C229.47 96.5299 229.58 96.4301 229.82 96.3101L229.52 96.77C229.52 97.38 230.54 96.96 230.71 97.45C230.26 98.61 231.71 98.7299 232.55 98.8999C233.33 98.8599 233.22 99.57 233.06 100.25C232.91 100.94 232.78 101.57 233.63 101.55C233.54 101.64 233.81 101.55 233.89 101.5L234.22 102.25C234.22 102.25 234.34 102.46 234.57 102.7C234.8 102.94 235.15 103.2 235.65 103.28C236.16 103.36 236.82 103.26 237.65 102.76C238.48 102.26 239.48 101.36 240.58 99.6899L240.75 99.6201C240.89 98.9201 240.78 98.56 239.78 98.74C240.73 98.08 239.65 98.3 239.89 98L239.98 97.96C239.06 98.17 240.24 96.9699 239.39 97.1499C239.47 97.1099 239.74 96.94 239.8 96.99C239.54 96.88 239.15 96.7601 239.69 96.3701C239.22 96.0101 239.03 95.17 237.94 95.54L238.1 95.45C237.4 95.73 237.86 95.3101 237.43 95.3501C237.49 95.2901 237.52 95.25 237.55 95.23C236.85 95.5 237.07 94.8001 236.73 94.8501L237.07 94.5601C236.96 94.4701 236.84 94.38 236.72 94.29L236.75 94.47C235.77 95.21 237.13 93.73 236.32 94C236.24 93.67 234.01 95.2101 234.28 94.6001C233.76 94.8701 235.06 94.08 234.59 94.21C235.06 93.78 234.95 94.0199 235.3 93.6399C234.94 93.6799 235.56 92.94 235.06 93.04L235.42 92.7C234.52 93.07 235.46 91.78 234.67 92.21C234.13 92.24 235.57 91.0099 234.62 91.4199L235 90.8401C234.96 90.6501 234.33 91.34 234.44 90.99C234.75 90.7 234.52 90.5899 234.88 90.3799C235.05 89.6199 233.64 90.48 234.03 89.3C233.38 89.82 233.52 89.2799 233.04 89.6799C233.27 89.4099 232.69 89.2799 233.43 88.9099C233.49 88.8799 233.52 88.91 233.43 89.02L233.79 88.6799C234.18 87.7899 233.03 88.6799 232.91 88.3799C232.87 88.5599 232.99 88.6101 232.7 88.8101L232.54 88.5801L232.86 88.3101L232.71 87.8501L232.42 88.27C232.44 87.94 232.95 87.2299 232.3 87.6299C231.96 87.8699 232 88.27 231.73 88.26C231.75 87.83 231.77 87.1701 231.6 86.8301C231.26 87.3001 231.2 87.22 231.06 87.25L231.37 86.8601C230.65 87.1601 231.95 85.9201 231.32 86.1201L231.56 85.8701L230.84 86.6201C229.97 87.1901 231.34 85.7 230.22 86.54C230.39 86.56 229.6 87.4499 229.59 87.1699L229.92 86.8201C229.78 86.8401 229.63 86.9801 229.64 86.8601C229.84 86.6901 230.09 86.32 229.93 86.3L230.37 85.8799L229.62 86.4199C229.77 85.8799 229.11 86.2001 229.45 85.6001C229.45 85.6001 229.29 85.0601 228.76 85.6001C229.1 85.2801 229.01 84.9901 229.38 84.6001C228.98 84.9501 228.45 85.1101 228.66 84.5701L228.72 84.53C228.62 83.77 227.56 84.6601 227.57 83.8401C227.26 84.3301 227.24 83.9401 226.88 84.5801C226.09 84.9401 226.99 82.8599 225.6 84.6799C225.36 84.6699 225.68 84.0899 225.65 83.9399L225.76 83.8701C225.33 83.8101 225.22 83.7701 225 83.5701C224.76 83.6801 224.18 84.58 224.1 84.22C224.39 83.9 224.26 83.9201 224.18 83.8701C224.27 83.8501 224.36 83.7199 224.4 83.4199C224.32 83.5199 224.25 83.5801 224.19 83.6201C224.21 83.5901 224.22 83.57 224.24 83.53C224.02 83.57 223.98 83.7 224.02 83.79C223.98 83.84 223.95 83.92 223.91 84.03C224.05 83.48 223.49 83.8199 223.84 83.1899C223.34 83.0799 222.66 83.5601 222.17 83.6101C222.31 83.2601 222.56 83.02 222.73 82.95L222.41 82.9299C222.68 82.4599 222.71 82.7399 222.84 82.6899C222.97 81.7699 221.8 83.1 221.84 82.21L221.56 82.54V82.47C221.47 82.67 221.24 82.8899 221.16 82.9299C221.33 82.4899 221.68 81.9799 221.49 81.9099C221.56 81.4399 220.99 81.91 220.69 82.03C220.75 82.15 220.6 82.36 220.48 82.49C220.39 82.46 220.55 82.0199 220.39 82.1599L220.67 81.6001C220.43 82.1401 220.15 82.05 220 82.26C220.17 81.82 220.32 81.9699 220.5 81.6699C220.12 81.5399 220.31 81.6 219.93 81.47C219.53 81.8 219.69 82.02 219.35 82.46C219.13 82.49 218.78 82.7901 218.76 82.3601L218.57 82.8899C218.07 83.1299 217.92 82.9899 217.96 82.3799C215.83 83.8799 215.08 85.25 214.82 86.22C214.56 87.19 214.79 87.77 214.79 87.77C215.07 89.28 216.2 88.0099 217.39 88.1499V88.1699Z" fill="#20BB65"/>
<path d="M245.74 126.08L245.5 126.14C245.61 126.14 245.7 126.14 245.74 126.08Z" fill="#20BB65"/>
<path d="M241.79 145.84C241.79 145.84 241.82 145.86 241.83 145.87C241.82 145.85 241.8 145.84 241.79 145.84Z" fill="#20BB65"/>
<path d="M237.65 128.26C237.65 128.26 237.62 128.24 237.59 128.23L237.65 128.26Z" fill="#20BB65"/>
<path d="M238.61 124.69C238.26 125.63 237.17 125.79 237.51 126.81C237.38 127.27 237.58 127.79 237.65 128.27C238.46 128.59 237.59 128.87 238.26 129.23L237.77 129.27C238 129.39 238.14 129.52 237.87 129.57L237.73 129.55C238.07 129.73 237.83 129.85 238 129.95L237.86 129.92L237.9 130.09L237.71 130.03C238.06 130.32 238.05 130.57 237.84 130.75L238.42 130.82C237.71 131.17 238.86 131.54 238.03 131.82L237.89 131.79C239.31 132.58 236.73 132.42 238.05 133.22C237.88 133.12 237.75 133.19 237.61 133.16C237.73 133.44 237.76 133.72 238.88 133.94C238.83 134.12 238.5 134.02 238.06 133.96C238.55 134.06 238.72 134.26 238.73 134.4L238.55 134.3L238.63 134.74L239.57 134.85C239.26 135.01 238.43 134.67 238.61 134.92L239.38 135.08C239.16 135.35 237.97 135.28 237.34 135.44C236.76 136.54 238.38 138.3 236.75 139.07L236.17 138.97C235.34 138.77 237.32 139.6 236.54 139.44L236.88 139.67C236.72 139.67 236.54 139.7 236.37 139.59C236.31 139.7 236.44 139.74 236.67 139.89H236.12C235.59 140.23 236.47 140.9 236.13 141.34C234.92 141.62 235.54 143 235.9 143.82C236.83 145.12 233.26 145.09 234.33 146.45C234.21 146.45 234.44 146.61 234.53 146.64L234.13 147.43C234.13 147.43 233.69 148.4 234.22 149.31C234.75 150.2 236.24 151.08 240.16 150.69L240.33 150.77C240.93 150.45 241.14 150.18 240.36 149.53C241.47 149.86 240.61 149.17 241 149.18L241.09 149.22C240.35 148.64 241.99 148.85 241.34 148.31C241.42 148.35 241.72 148.46 241.72 148.53C241.65 148.28 241.51 147.91 242.15 148.11C242.15 147.56 242.67 146.95 241.75 146.31L241.92 146.39C241.29 145.99 241.89 146.12 241.61 145.81C241.7 145.83 241.74 145.82 241.78 145.84C241.16 145.43 241.85 145.23 241.61 144.98L242.04 145.1L242.06 144.67L241.92 144.79C240.76 144.38 242.75 144.71 242.07 144.2C242.3 143.97 239.79 142.94 240.45 142.83C239.94 142.54 241.31 143.21 240.94 142.89C241.55 143.06 241.3 143.09 241.8 143.19C241.56 142.91 242.52 143.05 242.17 142.69L242.65 142.82C241.86 142.26 243.45 142.4 242.67 141.96C242.37 141.53 244.16 142.13 243.31 141.53L243.99 141.57C244.13 141.45 243.22 141.25 243.58 141.17C243.99 141.29 243.96 141.05 244.32 141.25C245.06 141.04 243.61 140.26 244.82 140.05C244.05 139.74 244.59 139.62 244 139.39C244.35 139.46 244.17 138.91 244.87 139.37C244.93 139.41 244.9 139.45 244.77 139.41L245.24 139.56C246.2 139.5 244.87 138.93 245.07 138.68C244.89 138.73 244.91 138.84 244.6 138.69L244.73 138.45L245.12 138.6L245.45 138.27L244.94 138.21C245.24 138.08 246.1 138.21 245.44 137.83C245.07 137.64 244.73 137.86 244.62 137.62C245.01 137.45 245.61 137.18 245.83 136.88C245.26 136.79 245.3 136.71 245.21 136.59L245.7 136.68C245.1 136.19 246.8 136.78 246.34 136.32L246.67 136.42L245.67 136.12C244.77 135.61 246.72 136.16 245.47 135.55C245.53 135.7 244.38 135.4 244.63 135.27L245.09 135.41C245.01 135.3 244.82 135.23 244.93 135.19C245.17 135.3 245.61 135.36 245.56 135.2L246.13 135.41L245.31 134.98C245.85 134.88 245.28 134.44 245.96 134.49C245.96 134.49 246.37 134.12 245.66 133.89C246.1 134.06 246.31 133.85 246.83 134.02C246.34 133.81 245.97 133.41 246.54 133.37L246.6 133.41C247.24 133.01 245.98 132.44 246.73 132.11C246.16 132.04 246.5 131.86 245.76 131.8C245.1 131.24 247.37 131.19 245.13 130.7C245.04 130.48 245.7 130.53 245.83 130.44L245.94 130.51C245.81 130.1 245.8 129.98 245.89 129.7C245.69 129.53 244.64 129.38 244.92 129.15C245.33 129.28 245.26 129.17 245.28 129.07C245.34 129.14 245.49 129.18 245.79 129.08C245.66 129.05 245.59 129.01 245.52 128.98C245.55 128.98 245.58 128.98 245.62 128.98C245.49 128.8 245.36 128.82 245.29 128.88C245.23 128.87 245.14 128.87 245.02 128.88C245.58 128.78 245.04 128.42 245.76 128.48C245.64 127.98 244.93 127.56 244.69 127.14C245.07 127.13 245.39 127.25 245.52 127.38L245.41 127.08C245.94 127.13 245.7 127.27 245.8 127.37C246.7 127.1 245.01 126.6 245.83 126.26L245.41 126.15L245.48 126.13C245.26 126.11 244.96 126 244.89 125.94C245.36 125.92 245.96 126.02 245.95 125.82C246.41 125.69 245.76 125.36 245.52 125.14C245.43 125.25 245.18 125.19 245.02 125.14C245.02 125.04 245.48 125.01 245.29 124.92L245.92 124.95C245.33 124.95 245.29 124.66 245.04 124.61C245.51 124.58 245.43 124.78 245.79 124.83C245.75 124.43 245.77 124.63 245.73 124.23C245.26 124 245.13 124.24 244.59 124.12C244.47 123.93 244.04 123.74 244.43 123.54L243.87 123.59C243.45 123.23 243.52 123.04 244.09 122.82C241.83 121.51 240.27 121.43 239.29 121.59C238.3 121.76 237.88 122.2 237.88 122.2C236.64 123.06 238.24 123.55 238.62 124.68L238.61 124.69Z" fill="#20BB65"/>
<path d="M230.96 171.34L230.74 171.25C230.84 171.3 230.92 171.34 230.96 171.34Z" fill="#20BB65"/>
<path d="M228.841 175.59C228.841 175.59 228.861 175.61 228.881 175.62L228.841 175.59Z" fill="#20BB65"/>
<path d="M223.651 168.41C223.651 168.41 223.621 168.39 223.601 168.38L223.651 168.41Z" fill="#20BB65"/>
<path d="M224.641 167.88C224.281 167.97 223.281 167.53 223.561 167.95C223.431 168.02 223.591 168.24 223.651 168.41C224.381 168.85 223.591 168.55 224.191 168.93L223.751 168.73C223.951 168.86 224.091 168.96 223.851 168.86L223.731 168.8C224.041 169 223.831 168.93 223.981 169.03L223.861 168.96L223.901 169.03L223.731 168.93C224.041 169.16 224.041 169.22 223.861 169.19L224.381 169.45C223.751 169.25 224.801 169.84 224.071 169.58L223.951 169.51C225.251 170.33 222.931 169.21 224.151 170C224.001 169.9 223.881 169.87 223.761 169.8C223.881 169.93 223.921 170.03 224.941 170.56C224.901 170.59 224.611 170.43 224.211 170.23C224.651 170.46 224.821 170.59 224.831 170.64L224.671 170.54L224.771 170.71L225.621 171.13C225.351 171.05 224.591 170.61 224.771 170.76L225.461 171.12C225.291 171.12 224.221 170.61 223.671 170.4C223.241 170.51 224.851 171.72 223.501 171.33L222.971 171.07C222.211 170.67 224.061 171.73 223.351 171.37L223.681 171.58C223.541 171.52 223.391 171.46 223.221 171.35C223.181 171.36 223.301 171.43 223.521 171.57L223.031 171.35C222.611 171.26 223.471 171.83 223.231 171.85C222.201 171.47 222.951 172.19 223.391 172.61C224.411 173.42 221.281 172.04 222.461 172.94C222.351 172.89 222.581 173.04 222.671 173.08L222.461 173.21C222.461 173.21 221.691 173.98 228.311 176.65L228.471 176.74C228.931 176.85 229.051 176.83 228.261 176.31C229.281 176.84 228.411 176.28 228.751 176.43L228.831 176.48C228.081 175.99 229.551 176.69 228.881 176.26C228.961 176.31 229.241 176.46 229.251 176.48C229.151 176.37 228.951 176.18 229.551 176.49C229.451 176.3 229.811 176.29 228.901 175.72L229.061 175.81C228.441 175.43 228.991 175.71 228.691 175.49C228.771 175.53 228.811 175.55 228.841 175.56C228.231 175.18 228.811 175.38 228.561 175.2L228.951 175.41L228.901 175.27H228.801C227.721 174.67 229.511 175.55 228.841 175.12C229.011 175.13 226.651 173.81 227.221 174.03C226.731 173.73 228.031 174.49 227.661 174.24C228.221 174.54 228.001 174.45 228.461 174.68C228.211 174.5 229.071 174.92 228.721 174.66L229.161 174.89C228.391 174.4 229.811 175.07 229.061 174.62C228.731 174.36 230.391 175.26 229.571 174.73L230.181 175.02C230.291 175.04 229.461 174.61 229.771 174.73C230.141 174.93 230.091 174.84 230.441 175.05C231.071 175.28 229.691 174.45 230.741 174.87C230.021 174.46 230.481 174.64 229.941 174.33C230.261 174.49 230.051 174.25 230.711 174.67C230.761 174.7 230.751 174.71 230.621 174.64L231.051 174.87C231.901 175.24 230.661 174.52 230.811 174.53C230.661 174.47 230.681 174.52 230.391 174.34L230.481 174.32L230.841 174.52L231.101 174.55L230.641 174.32C230.891 174.4 231.671 174.79 231.051 174.41C230.701 174.2 230.421 174.13 230.301 174.01C230.641 174.12 231.141 174.28 231.311 174.28C230.801 174.02 230.831 174.01 230.731 173.94L231.171 174.17C230.591 173.78 232.161 174.65 231.711 174.32L232.011 174.49L231.101 173.99C230.261 173.47 232.031 174.43 230.881 173.74C230.941 173.81 229.901 173.25 230.111 173.31L230.531 173.54C230.451 173.47 230.281 173.37 230.371 173.41C230.591 173.54 230.991 173.74 230.931 173.67L231.451 173.97L230.691 173.51C231.171 173.71 230.631 173.34 231.241 173.64C231.241 173.64 231.581 173.7 230.931 173.34C231.331 173.57 231.511 173.6 231.981 173.87C231.531 173.61 231.191 173.34 231.691 173.57L231.741 173.6C232.301 173.76 231.141 173.07 231.801 173.29C231.281 173.03 231.591 173.13 230.931 172.8C230.331 172.37 232.361 173.32 230.341 172.24C230.251 172.14 230.841 172.43 230.961 172.47L231.061 172.54C230.941 172.37 230.931 172.34 231.011 172.31C230.831 172.18 229.891 171.69 230.141 171.75C230.511 171.96 230.451 171.9 230.461 171.88C230.511 171.92 230.651 172 230.911 172.1C230.801 172.03 230.731 171.99 230.671 171.96C230.701 171.98 230.721 171.99 230.761 172.01C230.641 171.91 230.531 171.85 230.471 171.84C230.411 171.81 230.341 171.78 230.231 171.72C230.731 171.93 230.251 171.61 230.891 171.93C230.791 171.75 230.161 171.34 229.961 171.13C230.301 171.29 230.581 171.46 230.701 171.55L230.611 171.43C231.091 171.67 230.871 171.6 230.951 171.67C231.761 171.99 230.261 171.13 231.011 171.41L230.641 171.2L230.711 171.23C230.511 171.13 230.251 170.97 230.191 170.93C230.611 171.13 231.151 171.42 231.141 171.37C231.561 171.54 230.991 171.18 230.781 171.02C230.701 171.01 230.471 170.88 230.331 170.8C230.331 170.77 230.751 170.97 230.581 170.87L231.141 171.15C230.611 170.89 230.601 170.81 230.371 170.68C230.791 170.88 230.711 170.89 231.021 171.06C231.021 170.95 231.021 171.01 231.011 170.9C230.611 170.64 230.471 170.64 229.991 170.37C229.901 170.28 229.531 170.04 229.891 170.17L229.381 169.93C229.031 169.66 229.111 169.65 229.641 169.86C225.851 167.27 224.141 166.94 224.141 166.94C222.931 166.59 224.331 167.43 224.591 167.87L224.641 167.88Z" fill="#20BB65"/>
</svg>
