<svg width="510" height="311" viewBox="0 0 510 311" fill="none" xmlns="http://www.w3.org/2000/svg">
<path d="M9.53082 4.62L9.30078 4.70996C9.41078 4.70996 9.50082 4.68 9.53082 4.62Z" fill="#20BB65"/>
<path d="M1.95062 8.23999C1.95062 8.23999 1.91062 8.22997 1.89062 8.21997L1.95062 8.23999Z" fill="#20BB65"/>
<path d="M2.29046 4.03001C2.05046 5.13001 1.00049 5.48996 1.51049 6.60996C1.45049 7.15996 1.77049 7.71997 1.95049 8.23997C2.82049 8.40997 2.03049 8.94001 2.76049 9.16001L2.30047 9.32994C2.55047 9.40994 2.73047 9.50999 2.49047 9.63999H2.35046C2.73046 9.75999 2.54046 9.95999 2.73046 10.01H2.59051L2.67046 10.1999H2.47045C2.88045 10.4099 2.94047 10.6799 2.80047 10.9399L3.37048 10.8399C2.79048 11.4399 4.0205 11.46 3.3305 12.03H3.19048C4.80048 12.39 2.29051 13.14 3.84051 13.5C3.65051 13.46 3.55045 13.58 3.41045 13.6C3.62045 13.85 3.7605 14.13 4.8905 13.92C4.9105 14.12 4.5705 14.15 4.1405 14.25C4.6305 14.16 4.87047 14.2899 4.93047 14.4399L4.73046 14.41L4.98046 14.8199L5.8905 14.55C5.6705 14.83 4.77046 14.83 5.04046 15.01L5.81048 14.85C5.73048 15.2 4.61047 15.6299 4.11047 16.0699C4.06047 17.4899 6.35047 18.3899 5.36047 19.9399L4.81048 20.15C3.99048 20.41 6.12048 20.14 5.37048 20.4L5.79046 20.43C5.65046 20.51 5.52048 20.64 5.31048 20.63C5.31048 20.77 5.45046 20.73 5.73046 20.75L5.26049 21.04C5.02049 21.68 6.14047 21.81 6.11047 22.4C5.29047 23.38 6.6505 24.29 7.4605 24.75C9.0005 25.22 6.30049 27.62 8.07049 28.04C7.97049 28.12 8.26046 28.09 8.35046 28.05L8.6405 28.98C8.6405 28.98 8.74046 29.2599 8.98046 29.5699C9.22046 29.8799 9.59047 30.23 10.1105 30.37C11.1605 30.68 12.7405 30.05 15.2205 27.05L15.4005 26.99C15.6005 26.37 15.5805 26.07 14.5905 26.17C15.6205 25.64 14.5405 25.77 14.8305 25.52L14.9205 25.49C13.9905 25.59 15.3505 24.66 14.5205 24.73C14.6105 24.7 14.9005 24.58 14.9405 24.63C14.7305 24.5 14.3905 24.3499 15.0005 24.0799C14.6505 23.7099 14.6905 22.9899 13.5905 23.0899L13.7705 23.04C13.0305 23.14 13.5905 22.87 13.1805 22.81C13.2605 22.77 13.3005 22.74 13.3305 22.73C12.5905 22.8 13.0305 22.2499 12.6805 22.2099L13.1005 22.05L12.8805 21.7199L12.8405 21.89C11.6705 22.25 13.4705 21.36 12.6305 21.36C12.6905 21.07 10.0505 21.6799 10.5205 21.2199C9.9305 21.2699 11.4405 21.04 10.9605 20.99C11.5605 20.78 11.3705 20.95 11.8405 20.74C11.4905 20.65 12.3705 20.24 11.8905 20.15L12.3605 19.99C11.4005 19.97 12.8205 19.25 11.9305 19.31C11.4405 19.13 13.2805 18.69 12.2605 18.65L12.8705 18.3399C12.9405 18.1799 12.0505 18.47 12.3205 18.24C12.7305 18.13 12.5905 17.9599 13.0005 17.9399C13.5505 17.4399 11.9005 17.52 12.8705 16.79C12.0505 16.9 12.4705 16.56 11.8505 16.64C12.2005 16.54 11.8005 16.18 12.6105 16.24C12.6805 16.24 12.6705 16.2899 12.5405 16.3199L13.0205 16.23C13.8605 15.76 12.4205 15.9 12.4905 15.62C12.3505 15.73 12.4205 15.8199 12.0705 15.8299V15.5799L12.4905 15.53L12.6405 15.13L12.1505 15.29C12.3605 15.06 13.2005 14.81 12.4505 14.78C12.0405 14.78 11.8105 15.0899 11.6205 14.9499C11.9105 14.6499 12.3505 14.2 12.4405 13.88C11.8805 14.02 11.8905 13.94 11.7605 13.88L12.2505 13.77C11.5105 13.6 13.3005 13.44 12.7005 13.25L13.0505 13.2099L12.0105 13.3299C10.9905 13.2399 13.0005 12.99 11.6205 12.93C11.7305 13.04 10.5505 13.19 10.7405 13L11.2205 12.9499C11.1005 12.8899 10.9005 12.8899 10.9905 12.8199C11.2505 12.8199 11.6805 12.72 11.5805 12.61L12.1905 12.5799L11.2805 12.51C11.7505 12.24 11.0705 12.07 11.7205 11.88C11.7205 11.88 11.9805 11.44 11.2405 11.48C11.7105 11.48 11.8505 11.2399 12.3905 11.2199C11.8605 11.2099 11.3905 10.98 11.9205 10.78H11.9905C12.4905 10.28 11.1005 10.17 11.7405 9.68003C11.1705 9.78003 11.4605 9.53003 10.7305 9.68003C9.95046 9.36003 12.1305 8.74998 9.84051 8.87998C9.69051 8.70998 10.3405 8.58996 10.4505 8.47996L10.5805 8.50999C10.3505 8.17999 10.3205 8.08004 10.3505 7.81004C10.1205 7.70004 9.06046 7.79 9.29046 7.52C9.72046 7.56 9.63048 7.46998 9.62048 7.37998C9.69048 7.42998 9.85048 7.43002 10.1205 7.29002C9.99048 7.29002 9.91051 7.26998 9.84051 7.24998C9.87051 7.24998 9.90048 7.23997 9.94048 7.23997C9.78048 7.10997 9.65046 7.13995 9.60046 7.21995C9.54046 7.21995 9.45051 7.24 9.34051 7.27C9.87051 7.07 9.26046 6.83999 9.98046 6.75999C9.77046 6.33999 9.01049 6.06995 8.70049 5.71995C9.07049 5.64995 9.40048 5.72004 9.56048 5.81004L9.41045 5.56004C9.95045 5.53004 9.73051 5.68999 9.84051 5.75999C10.6805 5.38999 8.93049 5.16999 9.70049 4.75999L9.2705 4.70994L9.34051 4.68003C9.12051 4.69003 8.81046 4.62994 8.73046 4.57994C9.19046 4.49994 9.8005 4.52995 9.7705 4.34995C10.2105 4.17995 9.5305 3.95001 9.2705 3.78001C9.2005 3.89001 8.9405 3.85994 8.7705 3.82994C8.7505 3.73994 9.21049 3.66995 9.01049 3.59995L9.6405 3.56993C9.0505 3.62993 8.99046 3.35994 8.73046 3.32994C9.19046 3.25994 9.14047 3.45995 9.49047 3.46995C9.42047 3.10995 9.45049 3.29003 9.38049 2.93003C8.90049 2.75003 8.79046 2.98001 8.23046 2.91001C8.10046 2.74001 7.65051 2.57997 8.03051 2.36997L7.47045 2.44993C7.03045 2.12993 7.09045 1.91992 7.66045 1.68992C5.36045 0.479921 3.81049 0.309979 2.82049 0.499979C1.84049 0.689979 1.43047 1.21995 1.43047 1.21995C0.200473 2.28995 1.8405 2.82001 2.3305 4.03001H2.29046Z" fill="#20BB65"/>
<path d="M30.1105 45.95L30.0205 46.1801C30.0905 46.1001 30.1305 46.01 30.1105 45.95Z" fill="#20BB65"/>
<path d="M45.9805 55.97C45.9805 55.97 46.0005 55.9501 46.0205 55.9301C46.0005 55.9401 45.9905 55.95 45.9805 55.97Z" fill="#20BB65"/>
<path d="M27.6105 53.98C27.6105 53.98 27.5805 54 27.5605 54.01L27.6205 53.98H27.6105Z" fill="#20BB65"/>
<path d="M24.7505 50.86C25.4005 51.78 24.9505 52.8099 26.1205 53.1899C26.5005 53.5999 27.1105 53.76 27.6105 53.98C28.3205 53.46 28.1805 54.39 28.8405 53.99L28.6505 54.4399C28.8805 54.3099 29.0705 54.24 29.0005 54.52L28.9105 54.63C29.2505 54.43 29.2605 54.71 29.4305 54.6L29.3405 54.71L29.5305 54.77L29.3905 54.91C29.8305 54.75 30.0705 54.89 30.1605 55.17L30.4805 54.6801C30.5305 55.5101 31.3705 54.63 31.3105 55.53L31.2305 55.64C32.5705 54.7 31.4205 57.02 32.7305 56.15C32.5705 56.26 32.5905 56.42 32.5105 56.53C32.8305 56.55 33.1305 56.6401 33.7505 55.6801C33.9105 55.8001 33.6905 56.07 33.4805 56.45C33.7505 56.03 34.0105 55.95 34.1605 56.01L34.0005 56.13L34.4705 56.23L34.9005 55.39C34.9505 55.74 34.3305 56.3899 34.6505 56.3199L35.0705 55.66C35.2605 55.96 34.7905 57.07 34.7605 57.73C35.7305 58.72 37.9505 57.71 38.3405 59.51L38.1005 60.05C37.7005 60.81 39.0205 59.1099 38.6705 59.8199L38.9805 59.55C38.9405 59.7 38.9405 59.89 38.7805 60.02C38.8805 60.11 38.9505 59.9901 39.1605 59.8101L39.0305 60.35C39.2905 60.97 40.1705 60.27 40.5605 60.71C40.6405 61.99 42.2105 61.67 43.1105 61.45C44.5505 60.74 44.1405 64.32 45.7005 63.42C45.6805 63.54 45.8705 63.33 45.9105 63.24L46.7105 63.74C46.7105 63.74 47.7205 64.2701 48.6805 63.8101C49.6505 63.3501 50.5005 61.87 50.4105 57.96L50.5005 57.8C50.2405 57.19 50.0105 56.98 49.3205 57.7C49.7405 56.63 49.0105 57.43 49.0605 57.04L49.1105 56.96C48.4705 57.65 48.8705 56.04 48.2805 56.65C48.3305 56.57 48.4705 56.29 48.5305 56.3C48.2805 56.35 47.9205 56.46 48.1905 55.84C47.6705 55.79 47.2005 55.22 46.4405 56.05L46.5405 55.89C46.0605 56.46 46.2805 55.89 45.9405 56.12C45.9705 56.04 45.9805 55.99 45.9905 55.96C45.5005 56.51 45.4305 55.8 45.1505 56.01L45.3405 55.61L44.9405 55.53L45.0305 55.6801C44.4305 56.7501 45.1105 54.8699 44.5005 55.4399C44.3405 55.1799 42.8505 57.45 42.8805 56.79C42.5005 57.24 43.4205 56.0199 43.0305 56.3199C43.3205 55.7499 43.3005 56.01 43.4905 55.53C43.1805 55.71 43.5105 54.81 43.1005 55.08L43.3205 54.64C42.6105 55.3 43.1205 53.79 42.5205 54.45C42.0405 54.66 43.0405 53.05 42.2805 53.75L42.4905 53.1C42.4205 52.94 42.0005 53.77 42.0205 53.41C42.2305 53.04 42.0205 53.02 42.2905 52.71C42.3105 51.97 41.2005 53.18 41.3605 51.97C40.8605 52.63 40.9005 52.09 40.5305 52.59C40.7005 52.27 40.1505 52.31 40.7705 51.76C40.8205 51.72 40.8505 51.75 40.7705 51.87L41.0405 51.46C41.2805 50.53 40.3705 51.66 40.2205 51.4C40.2005 51.58 40.3105 51.6 40.0805 51.85L39.9105 51.67L40.1605 51.34L39.9805 50.95L39.7605 51.41C39.7405 51.09 40.1405 50.32 39.6005 50.84C39.3105 51.14 39.3905 51.51 39.1405 51.55C39.1205 51.13 39.0905 50.51 38.9205 50.21C38.6405 50.71 38.5805 50.65 38.4505 50.7L38.7105 50.27C38.0705 50.68 39.2005 49.28 38.6405 49.58L38.8505 49.3L38.2205 50.13C37.4505 50.81 38.6505 49.18 37.6505 50.14C37.8005 50.14 37.1105 51.09 37.0905 50.83L37.3805 50.45C37.2505 50.49 37.1205 50.64 37.1205 50.53C37.3005 50.34 37.5205 49.96 37.3705 49.96L37.7705 49.5L37.0905 50.11C37.2205 49.58 36.6205 49.95 36.9305 49.35C36.9305 49.35 36.7905 48.86 36.3005 49.42C36.6205 49.08 36.5405 48.82 36.9005 48.4C36.5305 48.78 36.0305 48.9599 36.2505 48.4399L36.3005 48.4C36.2605 47.68 35.2405 48.6001 35.3105 47.8101C34.9905 48.2901 35.0005 47.91 34.6105 48.55C33.8405 48.9 34.8805 46.9 33.4105 48.65C33.1805 48.64 33.5405 48.0801 33.5405 47.9301L33.6505 47.86C33.2505 47.8 33.1605 47.7601 32.9805 47.5601C32.7405 47.6601 32.0805 48.49 32.0505 48.15C32.3705 47.86 32.2405 47.8601 32.1705 47.8101C32.2605 47.7901 32.3605 47.68 32.4405 47.38C32.3505 47.47 32.2805 47.5201 32.2205 47.5601C32.2405 47.5301 32.2505 47.51 32.2805 47.48C32.0705 47.51 32.0105 47.63 32.0305 47.72C31.9905 47.77 31.9405 47.8399 31.8905 47.9399C32.1005 47.4099 31.5305 47.7 31.9605 47.12C31.5105 46.98 30.7905 47.37 30.3205 47.36C30.5205 47.04 30.7905 46.84 30.9705 46.8L30.6805 46.74C31.0205 46.32 30.9905 46.6001 31.1205 46.5601C31.4205 45.6901 30.0805 46.82 30.3005 45.97L29.9705 46.25L30.0005 46.1801C29.8605 46.3501 29.6005 46.5401 29.5105 46.5601C29.7705 46.1701 30.2005 45.73 30.0405 45.64C30.2205 45.2 29.5805 45.56 29.2805 45.62C29.3105 45.75 29.1105 45.92 28.9705 46.02C28.8905 45.97 29.1505 45.5799 28.9705 45.6899L29.3705 45.21C29.0105 45.68 28.7705 45.54 28.5805 45.71C28.8505 45.32 28.9505 45.5 29.2005 45.25C28.8905 45.06 29.0405 45.15 28.7305 44.96C28.2705 45.19 28.3605 45.43 27.9305 45.79C27.7205 45.77 27.3005 45.9799 27.4005 45.5699L27.0805 46.03C26.5405 46.14 26.4405 45.95 26.6505 45.38C24.2005 46.22 23.0105 47.24 22.4705 48.09C21.9305 48.94 22.0405 49.6 22.0405 49.6C21.9905 51.24 23.5005 50.4 24.7205 50.88L24.7505 50.86Z" fill="#20BB65"/>
<path d="M74.0908 65.75L74.1108 65.99C74.1308 65.89 74.1408 65.79 74.0908 65.75Z" fill="#20BB65"/>
<path d="M93.0107 69.12C93.0107 69.12 93.0208 69.0899 93.0308 69.0699C93.0108 69.0899 93.0107 69.1 93.0107 69.12Z" fill="#20BB65"/>
<path d="M75.3112 74.0601C75.3112 74.0601 75.2912 74.09 75.2812 74.11L75.3212 74.0601H75.3112Z" fill="#20BB65"/>
<path d="M71.521 72.55C72.481 73.07 72.511 74.19 73.681 74C74.171 74.2 74.771 74.0801 75.301 74.0601C75.711 73.2901 75.961 74.19 76.391 73.55V74.04C76.551 73.82 76.691 73.69 76.741 73.96L76.711 74.09C76.931 73.76 77.0509 74.01 77.1609 73.85L77.131 73.99L77.321 73.97L77.251 74.16C77.581 73.84 77.8409 73.86 78.0409 74.08L78.141 73.51C78.501 74.24 78.911 73.0999 79.201 73.9399L79.1709 74.08C80.0209 72.69 79.851 75.27 80.701 73.96C80.591 74.12 80.681 74.26 80.641 74.4C80.941 74.29 81.231 74.26 81.451 73.14C81.641 73.19 81.541 73.52 81.491 73.96C81.581 73.47 81.781 73.29 81.941 73.29L81.841 73.47L82.301 73.38L82.381 72.4399C82.561 72.7499 82.231 73.58 82.491 73.4L82.631 72.63C82.921 72.84 82.8909 74.04 83.1009 74.66C84.3209 75.22 86.0209 73.48 86.9809 75.03L86.941 75.62C86.831 76.47 87.471 74.42 87.391 75.21L87.591 74.84C87.611 75 87.661 75.17 87.561 75.35C87.681 75.4 87.711 75.26 87.841 75.02L87.901 75.5699C88.341 76.0599 88.931 75.11 89.431 75.39C89.911 76.56 91.261 75.75 92.031 75.26C93.171 74.13 93.8509 77.66 95.0409 76.33C95.0609 76.45 95.181 76.19 95.191 76.1L96.091 76.33C96.091 76.33 97.1909 76.5399 97.9709 75.8199C98.7509 75.0999 99.181 73.44 97.951 69.72L97.991 69.54C97.561 69.03 97.261 68.9 96.821 69.79C96.911 68.64 96.431 69.62 96.371 69.24L96.391 69.15C95.981 69.99 95.871 68.34 95.491 69.1C95.511 69.01 95.561 68.6999 95.631 68.6899C95.401 68.8099 95.0909 69.02 95.1609 68.36C94.6409 68.47 93.991 68.07 93.531 69.09L93.581 68.91C93.301 69.6 93.331 68.9799 93.081 69.3199C93.081 69.2299 93.081 69.18 93.081 69.15C92.791 69.83 92.4909 69.18 92.2909 69.46L92.341 69.02L91.931 69.0699L92.061 69.1801C91.841 70.3901 91.8709 68.38 91.4709 69.12C91.2309 68.93 90.561 71.5601 90.371 70.9301C90.151 71.4801 90.621 70.0301 90.361 70.4301C90.451 69.8001 90.511 70.05 90.531 69.54C90.291 69.81 90.311 68.85 90.001 69.24L90.061 68.75C89.611 69.6 89.5709 68.01 89.2309 68.84C88.8509 69.2 89.241 67.35 88.761 68.26L88.7309 67.58C88.6009 67.45 88.501 68.38 88.391 68.03C88.471 67.61 88.241 67.67 88.391 67.28C88.141 66.57 87.5209 68.09 87.2309 66.91C86.9909 67.71 86.8409 67.18 86.6609 67.78C86.7109 67.42 86.201 67.64 86.591 66.92C86.621 66.86 86.661 66.88 86.641 67.02L86.751 66.54C86.641 65.59 86.181 66.96 85.941 66.77C85.991 66.94 86.1009 66.92 85.9809 67.24L85.751 67.13L85.871 66.73L85.551 66.4301L85.511 66.9399C85.371 66.6499 85.461 65.79 85.141 66.46C84.981 66.84 85.1909 67.17 84.9809 67.29C84.8009 66.91 84.531 66.33 84.261 66.12C84.191 66.69 84.111 66.65 84.001 66.75L84.081 66.26C83.631 66.88 84.161 65.16 83.741 65.64L83.831 65.3L83.561 66.3101C83.091 67.2301 83.591 65.27 83.021 66.53C83.161 66.47 82.881 67.62 82.761 67.38L82.891 66.91C82.781 66.99 82.721 67.19 82.681 67.08C82.781 66.83 82.841 66.4 82.691 66.45L82.891 65.87L82.491 66.6899C82.401 66.1499 81.981 66.73 82.031 66.05C82.031 66.05 81.691 65.65 81.461 66.36C81.631 65.92 81.4409 65.7099 81.6109 65.1899C81.4109 65.6799 81.021 66.04 81.011 65.47L81.051 65.41C80.711 64.76 80.1309 66.02 79.8609 65.26C79.7609 65.83 79.611 65.48 79.521 66.21C78.951 66.84 79.061 64.58 78.441 66.79C78.221 66.87 78.321 66.22 78.251 66.08L78.321 65.97C77.921 66.08 77.821 66.08 77.561 65.97C77.381 66.16 77.141 67.19 76.951 66.89C77.121 66.49 77.0009 66.55 76.9109 66.53C76.9809 66.48 77.0309 66.33 76.9709 66.03C76.9309 66.15 76.8809 66.23 76.8509 66.29C76.8509 66.26 76.851 66.2299 76.871 66.1899C76.691 66.2999 76.691 66.44 76.741 66.51C76.721 66.57 76.711 66.65 76.711 66.77C76.671 66.2 76.2709 66.71 76.4109 66C75.9309 66.06 75.451 66.73 75.011 66.91C75.051 66.54 75.2109 66.23 75.3509 66.12L75.061 66.1899C75.181 65.6699 75.281 65.92 75.381 65.84C75.261 64.92 74.5409 66.53 74.3509 65.67L74.181 66.0699V66C74.121 66.22 73.971 66.5 73.901 66.55C73.951 66.08 74.151 65.5 73.961 65.49C73.921 65.02 73.501 65.6101 73.261 65.8101C73.341 65.9101 73.2609 66.16 73.1709 66.3C73.0809 66.3 73.131 65.83 73.011 66.01L73.151 65.39C73.051 65.98 72.7609 65.96 72.6709 66.2C72.7309 65.73 72.911 65.84 73.011 65.51C72.631 65.48 72.821 65.49 72.441 65.46C72.131 65.87 72.3309 66.0501 72.1109 66.5601C71.9109 66.6401 71.631 67.02 71.531 66.61L71.461 67.17C71.031 67.51 70.851 67.4 70.771 66.79C69.001 68.69 68.471 70.16 68.401 71.16C68.331 72.16 68.7209 72.6899 68.7209 72.6899C69.4009 74.1399 70.311 72.69 71.581 72.54L71.521 72.55Z" fill="#20BB65"/>
<path d="M123.1 71.62L123.17 71.85C123.17 71.74 123.16 71.65 123.1 71.62Z" fill="#20BB65"/>
<path d="M142.43 71.5601C142.43 71.5601 142.43 71.53 142.45 71.51C142.44 71.53 142.43 71.5501 142.43 71.5601Z" fill="#20BB65"/>
<path d="M125.87 79.54C125.87 79.54 125.86 79.58 125.85 79.6L125.88 79.54H125.87Z" fill="#20BB65"/>
<path d="M121.91 78.79C122.94 79.1 123.19 80.2 124.28 79.79C124.79 79.89 125.35 79.66 125.86 79.55C126.12 78.71 126.52 79.55 126.82 78.86L126.92 79.34C127.02 79.1 127.14 78.94 127.23 79.2V79.34C127.37 78.98 127.53 79.2 127.61 79.02V79.16L127.78 79.1L127.75 79.3C128.01 78.92 128.27 78.91 128.5 79.09V78.51C128.97 79.17 129.17 77.98 129.61 78.74V78.88C130.19 77.34 130.48 79.91 131.08 78.45C131.01 78.63 131.11 78.75 131.1 78.89C131.37 78.72 131.66 78.63 131.67 77.49C131.86 77.5 131.82 77.85 131.85 78.28C131.85 77.78 132.02 77.57 132.18 77.54L132.11 77.73L132.55 77.55L132.47 76.61C132.7 76.88 132.52 77.76 132.74 77.53V76.75C133.06 76.9 133.24 78.08 133.55 78.65C134.84 78.97 136.21 76.9599 137.41 78.3199L137.47 78.91C137.5 79.77 137.79 77.6401 137.84 78.4301L137.98 78.04C138.02 78.19 138.1 78.36 138.04 78.55C138.17 78.58 138.17 78.4401 138.26 78.1801L138.4 78.71C138.91 79.12 139.33 78.08 139.87 78.29C140.53 79.37 141.72 78.36 142.4 77.76C143.34 76.47 144.57 79.87 145.53 78.39C145.57 78.51 145.64 78.24 145.64 78.14L146.56 78.25C146.56 78.25 147.67 78.32 148.33 77.5C148.99 76.69 149.17 74.99 147.39 71.46L147.41 71.27C146.9 70.82 146.59 70.73 146.28 71.67C146.19 70.52 145.87 71.5601 145.75 71.1801V71.09C145.48 71.98 145.12 70.36 144.85 71.16C144.85 71.07 144.85 70.75 144.92 70.73C144.71 70.88 144.43 71.14 144.4 70.47C143.9 70.65 143.2 70.35 142.9 71.42L142.92 71.23C142.75 71.95 142.68 71.34 142.49 71.71C142.48 71.62 142.46 71.58 142.46 71.54C142.27 72.26 141.88 71.66 141.72 71.97L141.7 71.52L141.3 71.63L141.45 71.72C141.42 72.95 141.13 70.96 140.86 71.75C140.59 71.6 140.35 74.3 140.06 73.71C139.93 74.28 140.17 72.78 139.97 73.22C139.95 72.58 140.06 72.8201 140 72.3101C139.81 72.6201 139.67 71.66 139.43 72.1L139.41 71.6C139.1 72.51 138.81 70.9499 138.6 71.8199C138.28 72.2299 138.37 70.3499 138.04 71.3199L137.9 70.65C137.75 70.54 137.8 71.48 137.64 71.15C137.64 70.73 137.43 70.81 137.53 70.41C137.16 69.75 136.8 71.36 136.31 70.25C136.21 71.08 135.97 70.59 135.89 71.21C135.88 70.85 135.41 71.16 135.68 70.37C135.7 70.31 135.74 70.32 135.74 70.46L135.77 69.97C135.5 69.05 135.28 70.48 135 70.35C135.08 70.51 135.19 70.47 135.12 70.8L134.87 70.74L134.92 70.33L134.55 70.09L134.6 70.6C134.42 70.34 134.35 69.47 134.15 70.2C134.06 70.6 134.32 70.88 134.13 71.05C133.89 70.71 133.52 70.19 133.21 70.04C133.24 70.61 133.15 70.59 133.07 70.71V70.21C132.73 70.91 132.95 69.12 132.62 69.67L132.65 69.3199L132.56 70.36C132.26 71.35 132.41 69.3301 132.07 70.6801C132.2 70.5901 132.12 71.7801 131.96 71.5601L132 71.08C131.91 71.18 131.88 71.38 131.82 71.29C131.88 71.03 131.85 70.59 131.72 70.67L131.81 70.0699L131.55 70.96C131.36 70.45 131.06 71.1 130.98 70.42C130.98 70.42 130.57 70.09 130.47 70.84C130.56 70.38 130.33 70.2 130.41 69.66C130.3 70.18 129.98 70.6101 129.86 70.0601L129.88 70C129.43 69.44 129.07 70.78 128.67 70.08C128.67 70.66 128.46 70.34 128.5 71.08C128.05 71.8 127.74 69.55 127.54 71.83C127.34 71.95 127.32 71.29 127.22 71.17L127.27 71.05C126.9 71.23 126.79 71.2401 126.52 71.1801C126.38 71.4001 126.33 72.4599 126.09 72.1899C126.18 71.7699 126.08 71.85 125.99 71.84C126.05 71.78 126.07 71.62 125.96 71.33C125.94 71.46 125.91 71.54 125.89 71.61C125.89 71.58 125.89 71.55 125.89 71.51C125.73 71.65 125.76 71.79 125.83 71.85C125.83 71.91 125.83 72 125.85 72.11C125.71 71.56 125.41 72.13 125.41 71.41C124.95 71.56 124.6 72.2999 124.2 72.5699C124.17 72.1999 124.27 71.87 124.38 71.73L124.1 71.86C124.12 71.32 124.27 71.56 124.35 71.45C124.05 70.57 123.66 72.29 123.3 71.49L123.21 71.91L123.19 71.84C123.19 72.06 123.09 72.3699 123.03 72.4399C122.99 71.9699 123.07 71.36 122.88 71.39C122.75 70.94 122.45 71.6 122.25 71.85C122.35 71.93 122.31 72.19 122.25 72.35C122.16 72.36 122.12 71.9 122.04 72.09V71.46C122.07 72.05 121.79 72.09 121.74 72.35C121.7 71.88 121.9 71.95 121.94 71.6C121.56 71.65 121.75 71.62 121.37 71.67C121.15 72.14 121.38 72.2699 121.27 72.8199C121.09 72.9399 120.9 73.37 120.71 72.99L120.75 73.55C120.4 73.97 120.2 73.9 120 73.33C117.3 77.81 119.2 79.53 119.2 79.53C120.15 80.8 120.73 79.18 121.93 78.79H121.91Z" fill="#20BB65"/>
<path d="M172.67 69.95L172.77 70.17C172.76 70.06 172.73 69.97 172.67 69.95Z" fill="#20BB65"/>
<path d="M191.96 67.79C191.96 67.79 191.96 67.76 191.97 67.74C191.96 67.76 191.96 67.78 191.96 67.79Z" fill="#20BB65"/>
<path d="M176.39 77.48C176.39 77.48 176.39 77.52 176.38 77.54L176.4 77.48H176.39Z" fill="#20BB65"/>
<path d="M172.39 77.22C173.45 77.41 173.83 78.46 174.86 77.92C175.38 77.96 175.9 77.66 176.39 77.48C176.55 76.62 177.05 77.4 177.26 76.67L177.42 77.14C177.49 76.89 177.59 76.71 177.71 76.96V77.1C177.83 76.72 178.01 76.92 178.06 76.74V76.88L178.24 76.8V77C178.44 76.59 178.7 76.5399 178.95 76.6899L178.87 76.11C179.42 76.71 179.48 75.49 180 76.21V76.35C180.41 74.77 181 77.29 181.42 75.79C181.37 75.98 181.48 76.08 181.49 76.22C181.74 76.03 182.01 75.91 181.89 74.78C182.08 74.78 182.08 75.12 182.16 75.55C182.11 75.05 182.25 74.83 182.4 74.78L182.35 74.98L182.76 74.76L182.57 73.83C182.83 74.08 182.75 74.97 182.95 74.72L182.86 73.9399C183.19 74.0599 183.5 75.22 183.87 75.76C185.18 75.95 186.32 73.82 187.66 75.05L187.78 75.63C187.9 76.48 187.96 74.33 188.1 75.11L188.19 74.7C188.25 74.85 188.35 75 188.3 75.2C188.43 75.22 188.42 75.0801 188.48 74.8101L188.68 75.3199C189.23 75.6699 189.54 74.6 190.09 74.75C190.85 75.76 191.93 74.62 192.54 73.96C193.35 72.57 194.89 75.82 195.69 74.24C195.74 74.36 195.79 74.07 195.77 73.98H196.69C196.69 73.98 201.1 73.75 196.88 67.13V66.9399C196.33 66.5499 196.01 66.49 195.79 67.47C195.59 66.33 195.37 67.4 195.21 67.05V66.96C195.02 67.88 194.5 66.31 194.31 67.13C194.31 67.04 194.28 66.72 194.34 66.7C194.15 66.87 193.89 67.16 193.79 66.5C193.31 66.74 192.57 66.52 192.38 67.62V67.4301C192.28 68.1701 192.16 67.57 191.99 67.95C191.97 67.86 191.95 67.82 191.95 67.78C191.84 68.51 191.38 67.96 191.26 68.28L191.2 67.84L190.81 67.99L190.97 68.0699C191.07 69.2899 190.58 67.34 190.38 68.17C190.09 68.05 190.13 70.76 189.78 70.2C189.71 70.79 189.78 69.26 189.64 69.72C189.56 69.09 189.69 69.3101 189.57 68.8101C189.41 69.1301 189.17 68.2 188.98 68.66L188.91 68.17C188.7 69.11 188.24 67.59 188.13 68.48C187.85 68.93 187.74 67.04 187.51 68.04L187.3 67.39C187.14 67.3 187.3 68.22 187.09 67.92C187.05 67.5 186.85 67.61 186.9 67.2C186.46 66.58 186.27 68.22 185.66 67.16C185.65 67.99 185.35 67.53 185.34 68.16C185.29 67.8 184.85 68.16 185.03 67.35C185.05 67.28 185.09 67.2901 185.1 67.4301L185.08 66.9399C184.7 66.0499 184.64 67.5 184.35 67.39C184.45 67.54 184.55 67.49 184.52 67.83L184.26 67.79V67.37L183.87 67.17L183.98 67.67C183.77 67.43 183.61 66.5799 183.48 67.3199C183.43 67.7299 183.73 67.98 183.55 68.16C183.27 67.84 182.84 67.36 182.51 67.24C182.6 67.81 182.51 67.8 182.44 67.92L182.38 67.4301C182.12 68.1501 182.14 66.3499 181.87 66.9399V66.59L181.89 67.63C181.7 68.64 181.62 66.62 181.43 68C181.55 67.9 181.61 69.08 181.43 68.89V68.41C181.34 68.52 181.33 68.72 181.26 68.63C181.29 68.37 181.21 67.93 181.09 68.03L181.11 67.42L180.96 68.33C180.71 67.84 180.48 68.51 180.33 67.85C180.33 67.85 179.89 67.5601 179.87 68.3101C179.9 67.8401 179.66 67.69 179.67 67.15C179.62 67.68 179.35 68.14 179.17 67.6L179.19 67.54C178.67 67.02 178.48 68.39 177.99 67.75C178.07 68.32 177.82 68.03 177.94 68.76C177.58 69.53 177 67.34 177.07 69.63C176.89 69.77 176.78 69.12 176.67 69.01L176.7 68.89C176.35 69.11 176.25 69.14 175.97 69.12C175.86 69.36 175.94 70.4101 175.67 70.1801C175.71 69.7501 175.62 69.84 175.52 69.85C175.57 69.78 175.58 69.62 175.43 69.35C175.43 69.48 175.41 69.56 175.39 69.63C175.39 69.6 175.38 69.57 175.38 69.53C175.24 69.69 175.28 69.82 175.36 69.87C175.36 69.93 175.38 70.02 175.41 70.13C175.2 69.6 174.97 70.21 174.88 69.49C174.44 69.7 174.18 70.48 173.82 70.79C173.74 70.42 173.8 70.0901 173.9 69.9301L173.64 70.09C173.59 69.56 173.77 69.77 173.84 69.65C173.44 68.82 173.25 70.5699 172.8 69.8199L172.76 70.25L172.73 70.1801C172.75 70.4001 172.69 70.71 172.64 70.79C172.54 70.33 172.55 69.72 172.36 69.76C172.17 69.33 171.96 70.02 171.79 70.29C171.9 70.36 171.89 70.62 171.86 70.79C171.77 70.81 171.67 70.3501 171.62 70.5601L171.55 69.9301C171.64 70.5201 171.36 70.59 171.35 70.85C171.25 70.39 171.46 70.44 171.45 70.08C171.08 70.17 171.26 70.13 170.89 70.22C170.73 70.71 170.98 70.81 170.93 71.37C170.76 71.51 170.63 71.96 170.39 71.6L170.5 72.15C170.2 72.61 170 72.56 169.72 72.02C167.61 76.77 169.72 78.27 169.72 78.27C170.82 79.42 171.19 77.75 172.33 77.21L172.39 77.22Z" fill="#20BB65"/>
<path d="M222.131 63.73L222.241 63.95C222.221 63.84 222.191 63.76 222.131 63.73Z" fill="#20BB65"/>
<path d="M241.4 60.75C241.4 60.75 241.4 60.72 241.41 60.7C241.4 60.72 241.4 60.74 241.4 60.75Z" fill="#20BB65"/>
<path d="M226.25 71.04C226.25 71.06 226.25 71.08 226.24 71.1L226.26 71.04H226.25Z" fill="#20BB65"/>
<path d="M222.271 70.99C223.331 71.12 223.761 72.15 224.751 71.55C225.271 71.56 225.771 71.23 226.241 71.03C226.351 70.16 226.891 70.9201 227.061 70.1801L227.241 70.64C227.301 70.39 227.391 70.21 227.521 70.45V70.59C227.621 70.21 227.821 70.4 227.861 70.21V70.35L228.041 70.26V70.46C228.231 70.04 228.481 69.98 228.741 70.12L228.641 69.55C229.221 70.12 229.221 68.9 229.771 69.6V69.74C230.111 68.14 230.811 70.64 231.161 69.12C231.121 69.31 231.231 69.41 231.251 69.55C231.491 69.35 231.751 69.22 231.591 68.09C231.781 68.08 231.801 68.42 231.891 68.85C231.811 68.36 231.951 68.1299 232.091 68.0699L232.051 68.27L232.451 68.04L232.231 67.12C232.501 67.35 232.461 68.25 232.641 67.99L232.521 67.22C232.861 67.33 233.211 68.47 233.601 68.99C234.911 69.13 235.961 66.96 237.341 68.14L237.481 68.71C237.631 69.55 237.611 67.4101 237.781 68.1801L237.861 67.77C237.921 67.92 238.031 68.07 237.991 68.27C238.121 68.28 238.101 68.14 238.161 67.87L238.371 68.38C238.931 68.72 239.201 67.63 239.751 67.76C240.541 68.74 241.571 67.58 242.171 66.9C242.941 65.49 244.561 68.7 245.321 67.1C245.371 67.22 245.411 66.93 245.401 66.84H246.311C246.311 66.84 250.701 66.5 246.351 59.97V59.78C245.791 59.4 245.461 59.35 245.261 60.33C245.041 59.2 244.841 60.27 244.671 59.92V59.83C244.501 60.75 243.941 59.19 243.771 60.02C243.771 59.93 243.731 59.61 243.791 59.59C243.601 59.77 243.351 60.06 243.241 59.4C242.761 59.65 242.021 59.45 241.851 60.55V60.36C241.771 61.1 241.621 60.5 241.471 60.9C241.451 60.81 241.421 60.77 241.421 60.74C241.331 61.48 240.851 60.94 240.741 61.26L240.661 60.8199L240.281 60.98L240.441 61.05C240.571 62.27 240.031 60.34 239.851 61.16C239.561 61.05 239.681 63.76 239.311 63.21C239.261 63.8 239.291 62.27 239.161 62.74C239.061 62.11 239.191 62.33 239.071 61.83C238.921 62.16 238.651 61.23 238.471 61.7L238.391 61.21C238.211 62.16 237.701 60.65 237.621 61.54C237.361 61.99 237.181 60.11 236.991 61.13L236.761 60.48C236.601 60.39 236.781 61.31 236.571 61.01C236.521 60.59 236.321 60.71 236.351 60.29C235.891 59.69 235.751 61.33 235.111 60.29C235.131 61.12 234.811 60.67 234.831 61.3C234.761 60.95 234.341 61.32 234.491 60.5C234.501 60.43 234.551 60.44 234.561 60.58L234.521 60.09C234.111 59.22 234.101 60.6699 233.811 60.5699C233.911 60.7199 234.011 60.66 233.991 61L233.731 60.97V60.55L233.311 60.37L233.441 60.87C233.221 60.64 233.021 59.79 232.931 60.54C232.901 60.95 233.211 61.19 233.041 61.38C232.741 61.07 232.301 60.61 231.961 60.51C232.071 61.07 231.991 61.0599 231.921 61.1899L231.841 60.7C231.611 61.43 231.561 59.64 231.311 60.23L231.291 59.88L231.361 60.92C231.211 61.94 231.051 59.92 230.921 61.3C231.041 61.2 231.141 62.3799 230.951 62.1899L230.921 61.71C230.851 61.82 230.851 62.0299 230.771 61.9399C230.781 61.6799 230.691 61.24 230.581 61.35V60.74L230.461 61.65C230.191 61.17 229.991 61.85 229.811 61.2C229.811 61.2 229.351 60.9301 229.371 61.6801C229.381 61.2101 229.131 61.07 229.121 60.53C229.091 61.06 228.841 61.53 228.631 61V60.9301C228.101 60.4401 227.961 61.82 227.451 61.2C227.551 61.77 227.291 61.49 227.451 62.21C227.131 63 226.441 60.84 226.621 63.12C226.441 63.27 226.311 62.63 226.191 62.52L226.221 62.39C225.881 62.63 225.781 62.67 225.501 62.66C225.401 62.9 225.531 63.95 225.251 63.74C225.271 63.31 225.181 63.4 225.091 63.42C225.141 63.35 225.131 63.1901 224.971 62.9301C224.971 63.0601 224.961 63.14 224.941 63.21C224.941 63.18 224.931 63.15 224.921 63.11C224.791 63.28 224.841 63.41 224.921 63.45C224.921 63.51 224.941 63.59 224.981 63.71C224.741 63.2 224.541 63.81 224.421 63.1C223.991 63.33 223.771 64.12 223.431 64.46C223.331 64.1 223.371 63.76 223.461 63.6L223.211 63.78C223.131 63.25 223.321 63.45 223.391 63.33C222.941 62.52 222.851 64.2801 222.361 63.5601L222.341 63.99L222.311 63.92C222.341 64.14 222.311 64.46 222.261 64.54C222.141 64.09 222.101 63.47 221.921 63.53C221.711 63.11 221.531 63.82 221.381 64.09C221.501 64.15 221.501 64.41 221.481 64.58C221.391 64.61 221.271 64.16 221.221 64.37L221.121 63.75C221.241 64.33 220.971 64.4201 220.971 64.6801C220.851 64.2301 221.061 64.26 221.031 63.91C220.661 64.02 220.851 63.97 220.481 64.08C220.351 64.58 220.601 64.66 220.591 65.22C220.431 65.37 220.321 65.83 220.061 65.48L220.211 66.02C219.941 66.5 219.731 66.4699 219.431 65.9399C217.631 70.8199 219.831 72.17 219.831 72.17C220.991 73.25 221.251 71.56 222.351 70.96L222.271 70.99Z" fill="#20BB65"/>
<path d="M271.62 56.5L271.73 56.72C271.71 56.61 271.68 56.53 271.62 56.5Z" fill="#20BB65"/>
<path d="M291.04 54.03C291.04 54.03 291.04 54 291.05 53.98C291.04 54 291.04 54.02 291.04 54.03Z" fill="#20BB65"/>
<path d="M275.62 63.91C275.62 63.91 275.62 63.95 275.61 63.97L275.63 63.91H275.62Z" fill="#20BB65"/>
<path d="M271.66 63.76C272.72 63.91 273.13 64.96 274.13 64.39C274.64 64.42 275.15 64.1 275.62 63.91C275.74 63.04 276.26 63.82 276.45 63.08L276.62 63.54C276.68 63.29 276.77 63.11 276.9 63.36V63.5C277.01 63.12 277.2 63.32 277.24 63.13V63.27L277.42 63.1899V63.39C277.61 62.98 277.87 62.9199 278.11 63.0699L278.02 62.5C278.58 63.08 278.61 61.87 279.14 62.58V62.72C279.51 61.13 280.15 63.65 280.54 62.14C280.49 62.33 280.61 62.4299 280.62 62.5699C280.86 62.3699 281.13 62.25 280.99 61.12C281.18 61.12 281.19 61.46 281.27 61.89C281.21 61.39 281.35 61.17 281.49 61.12L281.45 61.3199L281.86 61.1L281.66 60.17C281.92 60.41 281.86 61.3 282.05 61.05L281.95 60.27C282.28 60.38 282.61 61.5399 282.98 62.0699C284.27 62.2499 285.39 60.0999 286.72 61.3199L286.84 61.9C286.96 62.75 287.02 60.6 287.15 61.38L287.24 60.97C287.3 61.12 287.4 61.27 287.35 61.47C287.48 61.49 287.47 61.35 287.53 61.08L287.73 61.59C288.27 61.94 288.58 60.87 289.12 61.01C289.87 62.01 290.94 60.87 291.55 60.21C292.37 58.82 293.85 62.08 294.67 60.5C294.71 60.62 294.77 60.33 294.76 60.24H295.67C295.67 60.24 300.06 60.04 296.01 53.38V53.1899C295.47 52.7999 295.15 52.74 294.91 53.72C294.73 52.58 294.49 53.65 294.34 53.3V53.21C294.13 54.13 293.64 52.55 293.44 53.38C293.44 53.29 293.41 52.97 293.48 52.95C293.28 53.12 293.02 53.41 292.93 52.75C292.44 52.99 291.7 52.77 291.5 53.87V53.6801C291.4 54.4201 291.27 53.82 291.11 54.21C291.09 54.12 291.07 54.08 291.07 54.04C290.95 54.77 290.5 54.22 290.37 54.55L290.31 54.11L289.92 54.26L290.08 54.34C290.16 55.56 289.69 53.6099 289.49 54.4399C289.2 54.3199 289.22 57.04 288.88 56.48C288.81 57.07 288.89 55.54 288.74 56C288.66 55.37 288.79 55.59 288.68 55.09C288.52 55.42 288.28 54.4799 288.09 54.9399L288.02 54.45C287.81 55.39 287.35 53.87 287.23 54.76C286.95 55.21 286.84 53.32 286.61 54.33L286.4 53.6801C286.24 53.5901 286.4 54.51 286.19 54.21C286.15 53.79 285.95 53.9 285.99 53.49C285.55 52.88 285.35 54.52 284.74 53.46C284.74 54.29 284.43 53.83 284.43 54.46C284.37 54.1 283.94 54.46 284.12 53.65C284.14 53.58 284.18 53.59 284.19 53.73L284.17 53.24C283.79 52.36 283.73 53.81 283.44 53.7C283.54 53.85 283.64 53.79 283.61 54.14L283.35 54.11V53.6899L282.95 53.5L283.06 54C282.84 53.76 282.68 52.91 282.55 53.65C282.5 54.06 282.81 54.31 282.63 54.49C282.34 54.18 281.91 53.7 281.57 53.59C281.67 54.16 281.58 54.15 281.51 54.27L281.44 53.78C281.19 54.51 281.18 52.71 280.92 53.3V52.95L280.95 53.99C280.77 55.01 280.66 52.98 280.49 54.36C280.61 54.26 280.69 55.44 280.49 55.25L280.47 54.77C280.39 54.88 280.39 55.09 280.32 54.99C280.34 54.73 280.26 54.29 280.14 54.39V53.78L280.01 54.6899C279.75 54.1999 279.53 54.88 279.37 54.22C279.37 54.22 278.91 53.9399 278.91 54.6899C278.94 54.2199 278.69 54.08 278.68 53.53C278.64 54.06 278.37 54.52 278.18 53.99L278.2 53.92C277.66 53.41 277.5 54.79 276.99 54.16C277.08 54.73 276.82 54.45 276.97 55.17C276.63 55.95 275.99 53.7801 276.12 56.0601C275.94 56.2101 275.82 55.56 275.7 55.45L275.73 55.3199C275.38 55.5499 275.28 55.5899 275 55.5699C274.89 55.8099 275 56.86 274.73 56.64C274.76 56.21 274.66 56.3001 274.57 56.3101C274.62 56.2401 274.62 56.0799 274.46 55.8199C274.46 55.9499 274.44 56.03 274.43 56.1C274.43 56.07 274.42 56.04 274.41 56C274.28 56.17 274.32 56.29 274.4 56.34C274.4 56.4 274.42 56.49 274.46 56.6C274.23 56.08 274.02 56.69 273.91 55.98C273.47 56.2 273.24 56.9901 272.89 57.3101C272.8 56.9501 272.84 56.61 272.94 56.45L272.69 56.62C272.62 56.09 272.81 56.3001 272.88 56.1801C272.44 55.3601 272.32 57.12 271.84 56.38L271.82 56.8101L271.79 56.74C271.82 56.96 271.78 57.27 271.73 57.35C271.61 56.89 271.59 56.28 271.41 56.33C271.2 55.9 271.02 56.61 270.85 56.88C270.97 56.95 270.97 57.21 270.94 57.37C270.85 57.4 270.73 56.94 270.69 57.15L270.6 56.53C270.72 57.11 270.44 57.2 270.44 57.46C270.32 57 270.53 57.0399 270.51 56.6899C270.14 56.7899 270.32 56.74 269.95 56.85C269.81 57.35 270.07 57.44 270.05 58C269.89 58.14 269.77 58.6 269.52 58.25L269.66 58.8C269.39 59.27 269.18 59.23 268.87 58.7C267.01 63.52 269.2 64.9301 269.2 64.9301C270.34 66.0401 270.62 64.36 271.72 63.79L271.66 63.76Z" fill="#20BB65"/>
<path d="M321.581 51.39L321.671 51.62C321.671 51.51 321.641 51.42 321.581 51.39Z" fill="#20BB65"/>
<path d="M341.221 50.72C341.221 50.72 341.231 50.69 341.241 50.67C341.231 50.69 341.221 50.71 341.221 50.72Z" fill="#20BB65"/>
<path d="M324.971 59.0699C324.971 59.0699 324.961 59.11 324.951 59.13L324.971 59.0699Z" fill="#20BB65"/>
<path d="M321.051 58.64C322.091 58.86 322.411 59.9299 323.441 59.4399C323.951 59.4999 324.471 59.2299 324.961 59.0699C325.151 58.2099 325.611 59.0301 325.851 58.3101L325.981 58.78C326.061 58.53 326.171 58.36 326.281 58.62V58.76C326.411 58.39 326.581 58.6 326.641 58.42V58.5601L326.811 58.49L326.791 58.6899C327.021 58.2899 327.281 58.2601 327.511 58.4301L327.471 57.85C327.981 58.48 328.111 57.27 328.571 58.02V58.16C329.061 56.61 329.481 59.17 329.991 57.7C329.931 57.88 330.031 58 330.031 58.14C330.291 57.96 330.561 57.87 330.531 56.73C330.721 56.73 330.701 57.08 330.741 57.52C330.721 57.02 330.881 56.81 331.031 56.77L330.971 56.97L331.391 56.79L331.281 55.85C331.521 56.11 331.371 57 331.581 56.76L331.551 55.98C331.871 56.12 332.091 57.3 332.411 57.87C333.671 58.17 334.981 56.15 336.181 57.5L336.241 58.09C336.281 58.95 336.541 56.82 336.601 57.61L336.731 57.22C336.771 57.37 336.851 57.54 336.791 57.73C336.921 57.76 336.921 57.62 337.001 57.36L337.141 57.89C337.641 58.3 338.051 57.26 338.581 57.46C339.221 58.54 340.391 57.53 341.071 56.95C342.031 55.66 343.141 59.08 344.121 57.62C344.151 57.74 344.231 57.47 344.231 57.37L345.131 57.5C345.131 57.5 346.211 57.59 346.901 56.79C347.581 55.99 347.891 54.3 346.251 50.73L346.271 50.54C345.771 50.08 345.461 49.98 345.111 50.92C345.061 49.77 344.701 50.8 344.591 50.42V50.33C344.291 51.21 343.981 49.59 343.681 50.38C343.691 50.29 343.701 49.97 343.771 49.95C343.551 50.1 343.261 50.3501 343.251 49.6801C342.741 49.8601 342.021 49.54 341.691 50.62L341.711 50.4301C341.521 51.1501 341.471 50.54 341.261 50.91C341.251 50.82 341.231 50.78 341.241 50.74C341.041 51.46 340.651 50.85 340.481 51.16V50.71L340.061 50.8199L340.211 50.91C340.171 52.13 339.901 50.1399 339.611 50.9399C339.331 50.7899 339.081 53.49 338.791 52.89C338.661 53.46 338.901 51.96 338.701 52.4C338.691 51.76 338.791 52 338.731 51.49C338.531 51.79 338.391 50.84 338.151 51.27L338.131 50.77C337.821 51.68 337.511 50.12 337.311 50.99C336.981 51.41 337.061 49.52 336.731 50.5L336.581 49.83C336.431 49.72 336.491 50.66 336.321 50.33C336.321 49.91 336.111 50 336.201 49.59C335.811 48.93 335.461 50.5499 334.951 49.4399C334.861 50.2699 334.601 49.78 334.541 50.4C334.521 50.04 334.051 50.3499 334.301 49.5699C334.321 49.5099 334.361 49.52 334.371 49.66L334.391 49.17C334.091 48.25 333.891 49.69 333.611 49.55C333.701 49.71 333.801 49.66 333.741 50L333.481 49.9399L333.521 49.53L333.131 49.3L333.201 49.8101C333.011 49.5501 332.921 48.69 332.721 49.42C332.641 49.83 332.921 50.1 332.721 50.27C332.461 49.93 332.071 49.42 331.751 49.27C331.801 49.84 331.711 49.8199 331.631 49.9399L331.601 49.4399C331.281 50.1399 331.441 48.35 331.121 48.91L331.141 48.5601L331.081 49.6C330.811 50.6 330.881 48.5701 330.591 49.9301C330.721 49.8401 330.691 51.0301 330.521 50.8101L330.551 50.33C330.461 50.43 330.441 50.64 330.381 50.54C330.431 50.28 330.381 49.8401 330.251 49.9301L330.321 49.33L330.101 50.22C329.891 49.71 329.601 50.3699 329.501 49.6899C329.501 49.6899 329.071 49.37 329.001 50.12C329.071 49.66 328.831 49.49 328.881 48.95C328.791 49.48 328.491 49.91 328.341 49.36L328.361 49.3C327.861 48.75 327.581 50.1099 327.121 49.4399C327.161 50.0199 326.931 49.71 327.011 50.45C326.601 51.2 326.141 48.98 326.081 51.27C325.891 51.4 325.821 50.75 325.711 50.63L325.751 50.51C325.381 50.71 325.281 50.74 324.991 50.7C324.861 50.93 324.891 51.99 324.631 51.75C324.691 51.32 324.591 51.41 324.501 51.41C324.561 51.34 324.571 51.19 324.431 50.91C324.421 51.04 324.401 51.1199 324.371 51.1899C324.371 51.1599 324.371 51.13 324.371 51.09C324.221 51.25 324.261 51.3801 324.331 51.4301C324.331 51.4901 324.331 51.5799 324.371 51.6899C324.181 51.1499 323.921 51.75 323.871 51.03C323.411 51.22 323.121 51.98 322.741 52.29C322.681 51.92 322.751 51.5899 322.861 51.4399L322.591 51.59C322.561 51.05 322.731 51.27 322.811 51.16C322.441 50.31 322.181 52.06 321.751 51.29L321.691 51.72L321.661 51.65C321.671 51.87 321.601 52.18 321.551 52.26C321.471 51.8 321.491 51.18 321.311 51.22C321.131 50.78 320.891 51.47 320.711 51.73C320.821 51.8 320.801 52.06 320.761 52.23C320.671 52.25 320.581 51.79 320.521 51.99L320.471 51.36C320.541 51.95 320.261 52.01 320.241 52.27C320.161 51.81 320.361 51.86 320.371 51.51C319.991 51.59 320.181 51.55 319.801 51.63C319.621 52.12 319.871 52.22 319.801 52.78C319.631 52.91 319.481 53.36 319.251 53L319.351 53.55C319.041 54 318.841 53.95 318.571 53.4C316.361 58.1 318.431 59.64 318.431 59.64C319.481 60.81 319.881 59.16 321.011 58.66L321.051 58.64Z" fill="#20BB65"/>
<path d="M371.971 52.2L372.021 52.4399C372.021 52.3299 372.021 52.24 371.971 52.2Z" fill="#20BB65"/>
<path d="M391.53 54.8199C391.53 54.8199 391.55 54.79 391.56 54.77C391.54 54.79 391.54 54.7999 391.53 54.8199Z" fill="#20BB65"/>
<path d="M374.121 60.3C374.121 60.3 374.101 60.33 374.091 60.36L374.121 60.3Z" fill="#20BB65"/>
<path d="M370.34 59.28C371.32 59.66 371.48 60.7701 372.57 60.4301C373.06 60.5701 373.61 60.38 374.11 60.3C374.43 59.48 374.75 60.3599 375.1 59.6899L375.151 60.1801C375.271 59.9501 375.4 59.7999 375.47 60.0699L375.45 60.21C375.63 59.87 375.771 60.1001 375.861 59.9301L375.84 60.0699L376.021 60.03L375.97 60.22C376.26 59.87 376.52 59.8699 376.72 60.0699L376.771 59.49C377.171 60.19 377.49 59.02 377.82 59.84L377.801 59.98C378.541 58.53 378.521 61.13 379.271 59.76C379.181 59.93 379.271 60.06 379.241 60.2C379.521 60.07 379.81 60.02 379.96 58.89C380.15 58.93 380.071 59.26 380.031 59.7C380.101 59.2 380.29 59.02 380.44 59.01L380.35 59.1899L380.791 59.08L380.84 58.13C381.03 58.43 380.741 59.28 380.991 59.08L381.09 58.3101C381.38 58.5101 381.401 59.7001 381.611 60.3101C382.791 60.8201 384.431 59.05 385.371 60.59L385.33 61.1801C385.22 62.0301 385.851 59.98 385.761 60.77L385.96 60.4C385.97 60.56 386.031 60.73 385.931 60.91C386.051 60.96 386.07 60.82 386.2 60.58L386.251 61.13C386.671 61.62 387.25 60.67 387.73 60.96C388.16 62.14 389.491 61.35 390.261 60.9C391.431 59.81 391.901 63.37 393.121 62.11C393.121 62.24 393.261 61.98 393.281 61.89L394.131 62.1801C394.131 62.1801 395.171 62.4699 395.991 61.8199C396.801 61.1599 397.431 59.56 396.491 55.74L396.551 55.5601C396.151 55.0101 395.85 54.85 395.33 55.71C395.5 54.57 394.951 55.51 394.901 55.13L394.931 55.04C394.461 55.85 394.451 54.2 394.011 54.92C394.041 54.83 394.101 54.52 394.171 54.52C393.931 54.62 393.59 54.82 393.7 54.16C393.16 54.24 392.511 53.8 391.991 54.79L392.051 54.61C391.741 55.29 391.791 54.67 391.521 55C391.521 54.91 391.521 54.86 391.521 54.83C391.191 55.5 390.91 54.83 390.7 55.11L390.771 54.67L390.35 54.7L390.48 54.8199C390.22 56.0199 390.311 54.01 389.881 54.74C389.631 54.54 388.9 57.16 388.72 56.52C388.49 57.06 388.99 55.62 388.72 56.02C388.82 55.39 388.881 55.64 388.911 55.13C388.661 55.4 388.691 54.4299 388.381 54.8199L388.45 54.33C387.98 55.17 387.95 53.59 387.6 54.41C387.21 54.76 387.621 52.9199 387.121 53.8199L387.09 53.13C386.96 53 386.851 53.93 386.741 53.58C386.821 53.16 386.591 53.21 386.741 52.83C386.471 52.12 385.841 53.64 385.531 52.46C385.301 53.26 385.13 52.74 384.96 53.34C385 52.98 384.481 53.21 384.871 52.48C384.901 52.42 384.941 52.44 384.921 52.58L385.031 52.1C384.891 51.14 384.45 52.53 384.19 52.35C384.25 52.52 384.361 52.4999 384.241 52.8199L383.991 52.72L384.1 52.3199L383.751 52.03L383.73 52.54C383.58 52.25 383.64 51.3899 383.33 52.0699C383.18 52.4599 383.41 52.77 383.19 52.9C382.99 52.52 382.691 51.95 382.391 51.75C382.341 52.32 382.261 52.29 382.151 52.39L382.21 51.9C381.78 52.54 382.24 50.8 381.82 51.3L381.901 50.96L381.671 51.98C381.231 52.92 381.651 50.93 381.131 52.22C381.271 52.15 381.051 53.32 380.911 53.08L381.021 52.61C380.921 52.7 380.861 52.89 380.811 52.79C380.901 52.54 380.931 52.1 380.791 52.16L380.96 51.58L380.59 52.42C380.46 51.88 380.07 52.48 380.08 51.8C380.08 51.8 379.701 51.42 379.511 52.14C379.651 51.69 379.44 51.49 379.58 50.96C379.4 51.46 379.03 51.85 378.97 51.28L379.001 51.22C378.591 50.6 378.091 51.89 377.751 51.16C377.701 51.74 377.51 51.4 377.48 52.14C376.96 52.81 376.851 50.55 376.431 52.8C376.221 52.9 376.261 52.24 376.171 52.11L376.23 52C375.83 52.14 375.72 52.1499 375.45 52.0699C375.29 52.2799 375.151 53.33 374.931 53.04C375.061 52.63 374.95 52.6999 374.85 52.6899C374.92 52.6299 374.95 52.4801 374.86 52.1801C374.83 52.3101 374.791 52.38 374.761 52.45C374.761 52.42 374.761 52.39 374.761 52.35C374.591 52.48 374.601 52.6101 374.671 52.6801C374.661 52.7401 374.661 52.83 374.671 52.95C374.571 52.39 374.221 52.94 374.281 52.22C373.791 52.34 373.38 53.04 372.97 53.28C372.97 52.9 373.09 52.59 373.22 52.45L372.931 52.5601C372.991 52.0301 373.12 52.27 373.22 52.17C372.98 51.27 372.461 52.96 372.151 52.13L372.031 52.54L372.011 52.47C371.991 52.69 371.871 52.99 371.811 53.05C371.811 52.58 371.92 51.98 371.73 51.99C371.62 51.53 371.281 52.17 371.061 52.4C371.161 52.49 371.101 52.74 371.041 52.9C370.941 52.9 370.93 52.44 370.84 52.63L370.891 52C370.871 52.59 370.581 52.61 370.521 52.87C370.511 52.4 370.711 52.48 370.761 52.14C370.371 52.16 370.571 52.15 370.181 52.17C369.931 52.62 370.161 52.7701 370.011 53.3101C369.821 53.4201 369.611 53.8399 369.431 53.4399V54C369.071 54.4 368.88 54.32 368.7 53.74C367.25 55.9 367 57.4399 367.1 58.4399C367.2 59.4399 367.641 59.9 367.641 59.9C368.501 61.21 369.13 59.6401 370.32 59.3101L370.34 59.28Z" fill="#20BB65"/>
<path d="M421.44 62.49V62.74C421.47 62.64 421.48 62.54 421.44 62.49Z" fill="#20BB65"/>
<path d="M439.971 69.4399C439.971 69.4399 439.991 69.42 440.011 69.4C439.991 69.41 439.981 69.4199 439.971 69.4399Z" fill="#20BB65"/>
<path d="M421.771 70.87C421.771 70.87 421.75 70.9 421.73 70.92L421.771 70.87Z" fill="#20BB65"/>
<path d="M418.32 69.0501C419.19 69.6401 419.1 70.7501 420.23 70.6701C420.67 70.9101 421.261 70.84 421.761 70.87C422.251 70.14 422.37 71.06 422.86 70.48L422.801 70.97C422.971 70.77 423.131 70.6501 423.131 70.9301L423.08 71.0601C423.33 70.7601 423.411 71.02 423.541 70.87L423.491 71H423.671L423.58 71.1701C423.94 70.8801 424.19 70.9401 424.34 71.1701L424.521 70.62C424.751 71.38 425.33 70.3101 425.48 71.1701L425.431 71.3001C426.471 70.0501 425.881 72.5701 426.911 71.4101C426.781 71.5601 426.831 71.7 426.781 71.83C427.081 71.77 427.371 71.78 427.771 70.72C427.941 70.8 427.791 71.1101 427.661 71.5301C427.841 71.0601 428.06 70.93 428.21 70.95L428.08 71.11H428.541L428.801 70.19C428.911 70.52 428.44 71.2901 428.73 71.1501L429.011 70.4201C429.251 70.6801 428.991 71.85 429.061 72.49C430.091 73.25 432.081 71.9 432.641 73.62L432.46 74.1801C432.15 74.9801 433.24 73.13 432.98 73.88L433.251 73.57C433.231 73.73 433.24 73.9101 433.1 74.0601C433.2 74.1401 433.26 74.0101 433.44 73.8101L433.36 74.35C433.65 74.92 434.44 74.1301 434.83 74.5301C434.97 75.7701 436.431 75.3201 437.291 75.0601C438.691 74.2801 438.281 77.8401 439.761 76.9201C439.741 77.0401 439.93 76.83 439.97 76.74L440.72 77.23C440.72 77.23 441.65 77.76 442.61 77.33C443.56 76.89 444.57 75.5 444.6 71.57L444.7 71.4101C444.44 70.7801 444.19 70.55 443.48 71.25C443.92 70.18 443.16 70.97 443.21 70.58L443.261 70.5C442.611 71.17 443.001 69.5601 442.391 70.1601C442.441 70.0801 442.581 69.8001 442.651 69.8101C442.391 69.8501 442.021 69.96 442.281 69.34C441.741 69.28 441.2 68.7001 440.46 69.5401L440.561 69.38C440.091 69.96 440.29 69.38 439.95 69.63C439.98 69.55 439.981 69.5 440.001 69.47C439.521 70.04 439.411 69.3301 439.131 69.5401L439.301 69.13L438.881 69.0601L438.98 69.21C438.44 70.31 439.001 68.38 438.411 68.99C438.221 68.74 436.89 71.1 436.86 70.44C436.51 70.91 437.34 69.63 436.98 69.96C437.23 69.37 437.231 69.63 437.381 69.14C437.081 69.34 437.33 68.41 436.94 68.71L437.131 68.25C436.481 68.96 436.821 67.41 436.281 68.12C435.811 68.37 436.64 66.6701 435.95 67.4301L436.08 66.76C435.98 66.6 435.661 67.48 435.641 67.12C435.811 66.73 435.58 66.73 435.82 66.39C435.72 65.63 434.76 66.97 434.72 65.75C434.31 66.47 434.26 65.93 433.96 66.47C434.08 66.13 433.52 66.23 434.07 65.61C434.12 65.56 434.15 65.59 434.1 65.72L434.311 65.2801C434.391 64.3201 433.64 65.56 433.44 65.32C433.46 65.5 433.581 65.5001 433.381 65.7901L433.161 65.63L433.36 65.2701L433.09 64.9001L432.95 65.39C432.87 65.08 433.121 64.24 432.661 64.84C432.421 65.18 432.58 65.54 432.33 65.62C432.22 65.21 432.061 64.58 431.811 64.32C431.631 64.87 431.561 64.82 431.431 64.89L431.6 64.4201C431.03 64.9401 431.87 63.35 431.36 63.74L431.511 63.4301L431.051 64.37C430.411 65.18 431.26 63.34 430.46 64.48C430.62 64.45 430.131 65.5301 430.051 65.2701L430.261 64.83C430.141 64.89 430.041 65.07 430.021 64.96C430.161 64.74 430.291 64.32 430.141 64.35L430.44 63.82L429.891 64.5601C429.891 64.0101 429.371 64.5 429.531 63.84C429.531 63.84 429.251 63.3801 428.901 64.0401C429.141 63.6401 428.98 63.3901 429.23 62.9101C428.95 63.3601 428.491 63.65 428.561 63.08L428.6 63.0301C428.34 62.3401 427.561 63.5 427.381 62.71C427.201 63.26 427.091 62.89 426.901 63.61C426.241 64.16 426.63 61.9401 425.72 64.0401C425.49 64.0901 425.67 63.46 425.61 63.32L425.7 63.22C425.28 63.28 425.171 63.26 424.921 63.12C424.711 63.29 424.35 64.28 424.19 63.96C424.4 63.59 424.28 63.63 424.19 63.6C424.27 63.56 424.341 63.42 424.311 63.11C424.251 63.23 424.201 63.3 424.151 63.35C424.151 63.32 424.161 63.29 424.181 63.25C423.981 63.34 423.971 63.4701 424.021 63.5501C424.001 63.6101 423.97 63.6901 423.96 63.8101C423.98 63.2401 423.52 63.7 423.73 63.01C423.23 63.01 422.67 63.6201 422.21 63.7701C422.29 63.4001 422.481 63.1201 422.631 63.0201L422.32 63.0601C422.49 62.5501 422.571 62.82 422.681 62.74C422.641 61.81 421.761 63.34 421.641 62.47L421.431 62.85V62.7801C421.361 62.9901 421.18 63.2601 421.11 63.3101C421.2 62.8501 421.451 62.29 421.261 62.25C421.261 61.77 420.781 62.33 420.511 62.5C420.591 62.61 420.471 62.84 420.381 62.99C420.281 62.97 420.381 62.5101 420.241 62.6801L420.421 62.08C420.271 62.66 419.991 62.61 419.871 62.84C419.961 62.38 420.131 62.5001 420.261 62.1801C419.881 62.1101 420.07 62.15 419.69 62.08C419.35 62.47 419.541 62.6601 419.281 63.1501C419.071 63.2101 418.77 63.5701 418.69 63.1501L418.58 63.7C418.13 64.01 417.961 63.8801 417.911 63.2701C416.041 65.0501 415.47 66.5 415.35 67.5C415.23 68.5 415.561 69.0501 415.561 69.0501C416.101 70.5401 417.061 69.14 418.281 69.09L418.32 69.0501Z" fill="#20BB65"/>
<path d="M466.951 84.79L466.881 85.03C466.941 84.94 466.981 84.86 466.951 84.79Z" fill="#20BB65"/>
<path d="M482.311 97.55C482.311 97.55 482.34 97.54 482.36 97.53C482.34 97.53 482.321 97.54 482.311 97.55Z" fill="#20BB65"/>
<path d="M464.74 92.87C464.74 92.87 464.71 92.89 464.69 92.9L464.74 92.87Z" fill="#20BB65"/>
<path d="M462.041 90.14C462.701 90.94 462.27 91.98 463.37 92.22C463.71 92.58 464.28 92.69 464.74 92.87C465.43 92.33 465.25 93.24 465.89 92.84L465.681 93.29C465.901 93.15 466.09 93.09 466 93.35L465.911 93.46C466.241 93.26 466.231 93.52 466.401 93.42L466.311 93.53L466.48 93.58L466.34 93.72C466.77 93.56 466.981 93.7 467.051 93.97L467.39 93.5C467.36 94.3 468.24 93.46 468.1 94.33L468.01 94.4399C469.39 93.5699 468.01 95.79 469.36 95C469.19 95.1 469.19 95.25 469.1 95.36C469.4 95.39 469.671 95.5 470.401 94.62C470.541 94.75 470.291 94.99 470.031 95.35C470.351 94.96 470.6 94.91 470.74 94.98L470.57 95.09L471 95.23L471.541 94.45C471.541 94.8 470.851 95.37 471.161 95.33L471.661 94.73C471.801 95.05 471.181 96.07 471.031 96.7C471.741 97.74 474.06 97.12 473.99 98.92L473.63 99.39C473.07 100.04 474.72 98.66 474.21 99.28L474.57 99.08C474.49 99.22 474.44 99.39 474.26 99.49C474.33 99.6 474.421 99.49 474.671 99.37L474.411 99.85C474.481 100.48 475.49 100 475.72 100.51C475.41 101.72 476.931 101.79 477.811 101.85C479.401 101.61 477.711 104.78 479.421 104.44C479.351 104.55 479.611 104.42 479.681 104.35L480.19 105.07C480.19 105.07 480.84 105.9 481.88 105.85C482.91 105.79 484.4 104.91 485.88 101.25L486.031 101.14C486.031 100.45 485.87 100.14 484.94 100.53C485.74 99.7 484.741 100.14 484.931 99.8L485.01 99.74C484.15 100.12 485.1 98.76 484.32 99.09C484.39 99.04 484.63 98.82 484.69 98.86C484.43 98.8 484.04 98.77 484.51 98.29C484.02 98.04 483.72 97.2901 482.73 97.8101L482.88 97.7C482.23 98.08 482.63 97.6 482.22 97.71C482.27 97.64 482.29 97.5999 482.32 97.5699C481.67 97.9299 481.81 97.2199 481.48 97.3199L481.781 96.99L481.411 96.77L481.45 96.95C480.56 97.79 481.76 96.18 480.99 96.54C480.89 96.23 478.821 97.99 479.031 97.36C478.541 97.68 479.761 96.77 479.311 96.95C479.741 96.48 479.66 96.7299 479.97 96.3199C479.62 96.3999 480.18 95.62 479.7 95.76L480.031 95.39C479.171 95.83 480.031 94.49 479.271 94.98C478.741 95.05 480.1 93.74 479.19 94.22L479.541 93.63C479.501 93.45 478.9 94.1701 479 93.8101C479.29 93.5001 479.071 93.4201 479.411 93.1801C479.571 92.4301 478.2 93.3599 478.58 92.1899C477.95 92.7299 478.09 92.19 477.62 92.61C477.85 92.33 477.28 92.23 478.01 91.83C478.07 91.8 478.09 91.8299 478 91.9399L478.35 91.6C478.74 90.71 477.62 91.64 477.5 91.35C477.46 91.53 477.571 91.57 477.291 91.77L477.13 91.55L477.44 91.27L477.301 90.83L477.01 91.25C477.04 90.93 477.551 90.22 476.911 90.63C476.571 90.87 476.6 91.27 476.34 91.26C476.37 90.83 476.42 90.18 476.26 89.85C475.91 90.31 475.86 90.24 475.72 90.27L476.031 89.88C475.321 90.19 476.631 88.96 476.021 89.16L476.271 88.91L475.531 89.65C474.661 90.21 476.06 88.7501 474.94 89.5601C475.1 89.5801 474.291 90.45 474.301 90.17L474.64 89.83C474.5 89.85 474.35 89.99 474.37 89.87C474.58 89.7 474.841 89.35 474.681 89.33L475.13 88.92L474.37 89.4399C474.54 88.9099 473.89 89.22 474.25 88.64C474.25 88.64 474.12 88.11 473.58 88.63C473.94 88.32 473.86 88.04 474.25 87.66C473.84 88 473.321 88.12 473.561 87.61L473.62 87.58C473.59 86.83 472.481 87.68 472.561 86.86C472.221 87.33 472.23 86.9401 471.82 87.5601C471.02 87.8601 472.08 85.87 470.57 87.58C470.33 87.55 470.7 87.01 470.69 86.85L470.801 86.78C470.381 86.7 470.28 86.6501 470.09 86.4301C469.84 86.5201 469.19 87.36 469.14 87C469.46 86.71 469.33 86.71 469.25 86.66C469.34 86.64 469.45 86.53 469.51 86.23C469.42 86.32 469.351 86.37 469.291 86.41C469.311 86.38 469.32 86.3599 469.35 86.3199C469.13 86.3499 469.08 86.4701 469.1 86.5601C469.06 86.6101 469.01 86.68 468.96 86.79C469.15 86.26 468.57 86.55 468.99 85.95C468.51 85.8 467.801 86.2 467.311 86.2C467.491 85.87 467.76 85.66 467.94 85.61L467.63 85.5601C467.95 85.1301 467.94 85.4 468.07 85.37C468.31 84.47 467.011 85.67 467.151 84.8L466.84 85.1L466.86 85.03C466.73 85.21 466.48 85.4099 466.39 85.4399C466.62 85.0299 467.02 84.56 466.84 84.48C466.98 84.02 466.351 84.41 466.051 84.5C466.091 84.63 465.921 84.8201 465.781 84.9301C465.691 84.8901 465.91 84.47 465.74 84.6L466.09 84.08C465.78 84.59 465.52 84.46 465.34 84.65C465.56 84.24 465.691 84.41 465.911 84.13C465.561 83.96 465.73 84.04 465.38 83.87C464.94 84.14 465.071 84.38 464.681 84.78C464.461 84.78 464.07 85.04 464.11 84.61L463.85 85.11C463.33 85.28 463.2 85.11 463.32 84.52C461 85.7 460.051 86.94 459.651 87.86C459.251 88.78 459.411 89.39 459.411 89.39C459.501 90.94 460.82 89.87 462 90.16L462.041 90.14Z" fill="#20BB65"/>
<path d="M500.58 123.03L500.4 123.2C500.5 123.15 500.57 123.09 500.58 123.03Z" fill="#20BB65"/>
<path d="M493.691 125.35C493.871 126.35 492.991 127.05 493.821 127.77C493.931 128.24 494.371 128.61 494.681 128.98C495.551 128.85 494.931 129.54 495.691 129.51L495.291 129.79C495.551 129.78 495.741 129.82 495.541 130L495.411 130.05C495.801 130.04 495.661 130.26 495.851 130.25L495.721 130.3L495.841 130.43L495.641 130.48C496.091 130.55 496.201 130.77 496.121 131.04L496.651 130.81C496.221 131.48 497.401 131.2 496.841 131.87L496.711 131.92C498.341 131.87 496.031 133.07 497.581 133.07C497.391 133.07 497.311 133.2 497.181 133.24C497.421 133.42 497.601 133.64 498.671 133.26C498.721 133.44 498.391 133.52 497.981 133.69C498.451 133.52 498.701 133.6 498.781 133.73H498.581L498.881 134.07L499.741 133.68C499.561 133.98 498.671 134.11 498.961 134.24L499.701 133.98C499.651 134.32 498.591 134.87 498.141 135.33C498.201 136.57 500.491 137.25 499.491 138.73L498.941 138.94C498.121 139.19 500.251 138.89 499.491 139.15L499.901 139.17C499.761 139.25 499.621 139.37 499.421 139.35C499.421 139.48 499.561 139.44 499.831 139.46L499.351 139.73C499.071 140.3 500.181 140.42 500.101 140.97C499.191 141.82 500.441 142.68 501.141 143.21C502.611 143.86 499.471 145.61 501.091 146.24C500.981 146.29 501.261 146.32 501.361 146.3L501.401 147.18C501.401 147.18 501.501 148.23 502.401 148.75C503.301 149.26 505.031 149.33 508.261 147.07H508.451C508.821 146.48 508.861 146.14 507.871 145.96C508.991 145.7 507.911 145.52 508.261 145.34H508.351C507.421 145.19 508.961 144.56 508.121 144.41C508.211 144.41 508.521 144.35 508.561 144.41C508.371 144.22 508.061 143.98 508.721 143.83C508.441 143.35 508.601 142.55 507.481 142.45L507.671 142.43C506.921 142.4 507.511 142.21 507.101 142.08C507.181 142.05 507.221 142.02 507.261 142.02C506.521 141.97 507.021 141.45 506.681 141.36L507.111 141.25L506.921 140.87L506.861 141.04C505.661 141.27 507.541 140.56 506.691 140.45C506.771 140.14 504.081 140.51 504.591 140.09C504.001 140.09 505.521 139.98 505.051 139.89C505.671 139.73 505.461 139.89 505.941 139.71C505.601 139.59 506.491 139.22 506.011 139.09L506.491 138.95C505.531 138.86 506.961 138.18 506.061 138.19C505.581 137.97 507.421 137.58 506.391 137.49L507.001 137.18C507.061 137 506.181 137.3 506.451 137.05C506.861 136.95 506.721 136.75 507.131 136.74C507.661 136.18 506.011 136.25 506.941 135.45C506.121 135.58 506.521 135.2 505.901 135.3C506.241 135.18 505.811 134.8 506.641 134.84C506.711 134.84 506.711 134.89 506.571 134.93L507.051 134.82C507.851 134.27 506.401 134.46 506.461 134.15C506.331 134.28 506.411 134.37 506.061 134.4L506.041 134.13L506.451 134.06L506.561 133.61L506.091 133.82C506.281 133.56 507.081 133.22 506.331 133.24C505.921 133.27 505.731 133.63 505.521 133.48C505.771 133.13 506.141 132.59 506.181 132.23C505.651 132.44 505.641 132.35 505.501 132.3L505.971 132.13C505.201 132.02 506.961 131.65 506.331 131.5L506.671 131.42L505.661 131.67C504.631 131.7 506.581 131.17 505.191 131.28C505.311 131.38 504.181 131.71 504.331 131.48L504.801 131.36C504.671 131.31 504.471 131.34 504.541 131.25C504.801 131.22 505.211 131.04 505.081 130.94L505.681 130.82L504.761 130.87C505.181 130.5 504.461 130.43 505.061 130.11C505.061 130.11 505.221 129.58 504.491 129.75C504.951 129.67 505.031 129.38 505.561 129.26C505.031 129.34 504.521 129.18 504.991 128.85H505.061C505.411 128.18 504.031 128.35 504.511 127.68C503.981 127.91 504.191 127.58 503.521 127.91C502.681 127.76 504.591 126.57 502.421 127.29C502.231 127.15 502.821 126.86 502.891 126.72H503.021C502.701 126.43 502.631 126.34 502.571 126.05C502.311 126 501.331 126.41 501.461 126.07C501.881 125.98 501.771 125.91 501.731 125.83C501.821 125.86 501.971 125.81 502.171 125.59C502.041 125.63 501.961 125.63 501.891 125.64C501.921 125.63 501.941 125.61 501.981 125.59C501.781 125.5 501.671 125.59 501.651 125.67C501.591 125.69 501.521 125.73 501.421 125.8C501.851 125.43 501.201 125.39 501.851 125.08C501.501 124.71 500.691 124.7 500.261 124.46C500.581 124.26 500.921 124.21 501.101 124.25L500.861 124.05C501.351 123.83 501.211 124.07 501.341 124.1C501.981 123.43 500.261 123.84 500.811 123.14L500.391 123.25L500.441 123.2C500.241 123.3 499.931 123.35 499.841 123.33C500.241 123.08 500.811 122.87 500.701 122.7C501.041 122.36 500.301 122.4 499.991 122.33C499.971 122.46 499.721 122.54 499.551 122.58C499.491 122.5 499.891 122.24 499.671 122.27L500.231 121.98C499.711 122.28 499.541 122.04 499.301 122.12C499.691 121.86 499.731 122.08 500.051 121.94C499.821 121.61 499.941 121.78 499.711 121.45C499.191 121.48 499.201 121.75 498.661 121.91C498.471 121.8 498.001 121.84 498.241 121.48L497.771 121.79C497.231 121.69 497.191 121.48 497.581 121.02C494.981 120.97 493.561 121.62 492.781 122.25C491.991 122.88 491.841 123.48 491.841 123.48C491.181 124.87 492.841 124.53 493.731 125.34L493.691 125.35Z" fill="#20BB65"/>
<path d="M508.841 173.32L508.601 173.37C508.711 173.38 508.801 173.37 508.841 173.32Z" fill="#20BB65"/>
<path d="M504.881 192.97C504.881 192.97 504.911 192.99 504.921 193C504.911 192.98 504.891 192.97 504.881 192.97Z" fill="#20BB65"/>
<path d="M500.71 175.32C500.71 175.32 500.68 175.3 500.65 175.29L500.71 175.32Z" fill="#20BB65"/>
<path d="M501.771 171.67C501.401 172.63 500.281 172.76 500.611 173.82C500.461 174.29 500.64 174.83 500.71 175.32C501.52 175.66 500.631 175.94 501.301 176.3L500.811 176.33C501.041 176.46 501.181 176.59 500.911 176.64L500.771 176.61C501.111 176.8 500.871 176.92 501.041 177.02L500.901 176.99L500.94 177.16L500.751 177.1C501.101 177.4 501.081 177.65 500.871 177.83L501.45 177.91C500.73 178.26 501.891 178.63 501.061 178.92L500.921 178.89C502.341 179.69 499.74 179.53 501.07 180.34C500.9 180.24 500.771 180.31 500.631 180.28C500.751 180.56 500.781 180.84 501.901 181.07C501.851 181.25 501.52 181.15 501.08 181.09C501.57 181.19 501.741 181.38 501.741 181.53L501.561 181.43L501.641 181.87L502.58 181.98C502.27 182.14 501.441 181.81 501.621 182.06L502.391 182.22C502.181 182.49 500.981 182.43 500.361 182.59C499.781 183.7 501.411 185.45 499.801 186.23L499.22 186.13C498.38 185.94 500.37 186.75 499.59 186.59L499.931 186.82C499.771 186.82 499.591 186.85 499.421 186.74C499.361 186.85 499.49 186.89 499.72 187.04H499.171C498.641 187.39 499.54 188.05 499.19 188.49C497.98 188.78 498.62 190.15 498.98 190.96C499.93 192.25 496.341 192.23 497.431 193.58C497.311 193.57 497.541 193.73 497.631 193.77L497.23 194.55C497.23 194.55 496.8 195.51 497.32 196.41C497.85 197.3 499.321 198.2 503.251 197.83L503.421 197.92C504.031 197.6 504.23 197.32 503.46 196.67C504.57 197 503.71 196.31 504.1 196.32L504.19 196.36C503.45 195.78 505.1 195.99 504.45 195.45C504.53 195.49 504.83 195.6 504.83 195.67C504.76 195.41 504.611 195.05 505.251 195.24C505.251 194.68 505.77 194.08 504.85 193.43L505.021 193.51C504.391 193.11 504.99 193.24 504.7 192.93C504.79 192.94 504.831 192.94 504.871 192.96C504.251 192.55 504.94 192.35 504.7 192.1L505.131 192.22L505.151 191.79L505.011 191.91C503.851 191.51 505.841 191.83 505.161 191.32C505.391 191.09 502.871 190.07 503.521 189.96C503.011 189.67 504.381 190.33 504.011 190.01C504.631 190.18 504.371 190.21 504.871 190.3C504.631 190.02 505.591 190.16 505.241 189.8L505.72 189.92C504.93 189.36 506.51 189.49 505.73 189.05C505.42 188.62 507.221 189.21 506.371 188.62L507.061 188.66C507.201 188.54 506.291 188.35 506.651 188.27C507.061 188.39 507.031 188.15 507.401 188.34C508.141 188.13 506.671 187.36 507.881 187.14C507.111 186.84 507.641 186.71 507.061 186.48C507.411 186.55 507.241 186 507.931 186.46C507.991 186.5 507.96 186.54 507.83 186.5L508.301 186.65C509.271 186.58 507.921 186.02 508.131 185.78C507.951 185.83 507.971 185.95 507.661 185.8L507.781 185.56L508.171 185.71L508.491 185.38L507.98 185.32C508.28 185.19 509.14 185.32 508.48 184.94C508.11 184.76 507.771 184.97 507.661 184.74C508.061 184.57 508.651 184.3 508.861 184C508.291 183.91 508.33 183.83 508.23 183.72L508.72 183.81C508.11 183.33 509.82 183.91 509.35 183.45L509.681 183.55L508.681 183.25C507.781 182.75 509.73 183.29 508.48 182.68C508.54 182.83 507.391 182.53 507.641 182.41L508.1 182.54C508.02 182.43 507.83 182.36 507.94 182.32C508.18 182.42 508.62 182.48 508.57 182.33L509.141 182.54L508.32 182.12C508.86 182.02 508.29 181.59 508.97 181.63C508.97 181.63 509.381 181.26 508.661 181.03C509.101 181.2 509.31 180.99 509.83 181.16C509.34 180.96 508.981 180.56 509.551 180.52L509.611 180.56C510.251 180.17 508.981 179.6 509.741 179.28C509.171 179.21 509.521 179.03 508.781 178.97C508.141 178.41 510.391 178.38 508.161 177.88C508.071 177.66 508.731 177.72 508.861 177.63L508.97 177.7C508.84 177.29 508.841 177.18 508.931 176.9C508.731 176.73 507.69 176.56 507.97 176.34C508.38 176.48 508.31 176.37 508.33 176.27C508.39 176.34 508.54 176.38 508.84 176.29C508.71 176.25 508.64 176.22 508.57 176.18C508.6 176.18 508.631 176.18 508.671 176.19C508.541 176.01 508.41 176.02 508.34 176.09C508.28 176.08 508.19 176.07 508.08 176.09C508.64 176 508.1 175.63 508.82 175.7C508.71 175.2 508.021 174.77 507.781 174.35C508.161 174.35 508.47 174.48 508.6 174.61L508.501 174.31C509.031 174.37 508.791 174.51 508.891 174.61C509.791 174.37 508.11 173.82 508.94 173.52L508.531 173.39L508.6 173.37C508.38 173.35 508.081 173.23 508.021 173.16C508.491 173.16 509.09 173.28 509.08 173.08C509.55 172.97 508.901 172.62 508.671 172.4C508.581 172.5 508.331 172.44 508.171 172.38C508.171 172.28 508.63 172.27 508.44 172.18L509.07 172.23C508.48 172.21 508.45 171.92 508.2 171.86C508.67 171.85 508.591 172.05 508.931 172.1C508.911 171.71 508.921 171.9 508.901 171.51C508.451 171.26 508.301 171.5 507.761 171.35C507.651 171.16 507.231 170.95 507.631 170.77L507.07 170.79C506.67 170.42 506.74 170.22 507.32 170.04C505.14 168.62 503.59 168.42 502.59 168.53C501.59 168.64 501.141 169.08 501.141 169.08C499.841 169.92 501.431 170.51 501.761 171.68L501.771 171.67Z" fill="#20BB65"/>
<path d="M490.671 220.95L490.44 220.87C490.53 220.93 490.611 220.97 490.671 220.95Z" fill="#20BB65"/>
<path d="M477.28 235.72C477.28 235.72 477.29 235.75 477.3 235.77C477.3 235.75 477.29 235.73 477.28 235.72Z" fill="#20BB65"/>
<path d="M482.69 218.39C482.69 218.39 482.67 218.36 482.66 218.34L482.69 218.39Z" fill="#20BB65"/>
<path d="M485.501 215.84C484.671 216.45 483.671 215.99 483.381 217.06C483.011 217.38 482.891 217.94 482.681 218.39C483.191 219.1 482.291 218.88 482.671 219.54L482.241 219.31C482.371 219.54 482.421 219.72 482.161 219.63L482.061 219.54C482.251 219.88 481.98 219.86 482.08 220.03L481.981 219.93L481.921 220.1L481.791 219.95C481.931 220.38 481.791 220.59 481.511 220.64L481.96 221C481.17 220.93 481.961 221.85 481.101 221.67L481.001 221.57C481.791 222.99 479.661 221.52 480.381 222.9C480.291 222.73 480.141 222.72 480.041 222.62C479.991 222.92 479.871 223.18 480.721 223.95C480.581 224.08 480.351 223.82 480.011 223.55C480.381 223.89 480.421 224.15 480.351 224.28L480.251 224.1L480.09 224.53L480.84 225.11C480.49 225.09 479.951 224.37 479.981 224.69L480.561 225.22C480.231 225.34 479.241 224.67 478.621 224.5C477.551 225.17 478.051 227.52 476.261 227.38L475.811 227C475.181 226.41 476.491 228.12 475.901 227.59L476.08 227.96C475.94 227.88 475.771 227.82 475.681 227.64C475.571 227.7 475.671 227.81 475.791 228.05L475.32 227.77C474.68 227.82 475.111 228.84 474.601 229.06C473.401 228.72 473.261 230.23 473.181 231.13C473.361 232.72 470.241 230.98 470.521 232.7C470.411 232.63 470.541 232.89 470.611 232.96L469.871 233.47C469.871 233.47 469.021 234.12 469.051 235.17C469.091 236.21 469.991 237.68 473.621 239.2L473.731 239.35C474.411 239.35 474.72 239.21 474.34 238.28C475.16 239.1 474.731 238.09 475.061 238.28L475.121 238.36C474.751 237.5 476.091 238.47 475.771 237.69C475.821 237.77 476.031 238 476.001 238.06C476.061 237.81 476.11 237.42 476.57 237.9C476.83 237.42 477.57 237.14 477.08 236.14L477.19 236.29C476.83 235.64 477.29 236.04 477.19 235.63C477.26 235.69 477.3 235.71 477.32 235.74C476.98 235.08 477.68 235.24 477.58 234.91L477.901 235.22L478.121 234.86L477.94 234.9C477.13 233.98 478.701 235.24 478.361 234.46C478.671 234.38 476.991 232.25 477.611 232.48C477.311 231.98 478.181 233.23 478.011 232.77C478.461 233.22 478.221 233.12 478.621 233.45C478.551 233.09 479.31 233.68 479.19 233.2L479.551 233.55C479.141 232.68 480.451 233.58 479.991 232.82C479.941 232.29 481.201 233.71 480.751 232.77L481.32 233.15C481.5 233.12 480.811 232.49 481.161 232.6C481.451 232.91 481.551 232.69 481.771 233.04C482.511 233.23 481.641 231.84 482.791 232.26C482.271 231.61 482.791 231.77 482.411 231.28C482.681 231.52 482.801 230.96 483.171 231.7C483.201 231.76 483.171 231.78 483.061 231.69L483.391 232.05C484.251 232.48 483.391 231.32 483.681 231.22C483.501 231.17 483.461 231.28 483.271 230.99L483.501 230.85L483.761 231.17L484.2 231.05L483.791 230.74C484.111 230.78 484.791 231.33 484.411 230.67C484.181 230.32 483.791 230.33 483.811 230.08C484.241 230.13 484.88 230.21 485.21 230.08C484.77 229.71 484.84 229.66 484.82 229.52L485.19 229.85C484.92 229.13 486.081 230.5 485.911 229.87L486.151 230.13L485.44 229.36C484.92 228.46 486.321 229.93 485.551 228.77C485.521 228.93 484.701 228.08 484.971 228.1L485.301 228.45C485.291 228.31 485.161 228.16 485.271 228.18C485.431 228.39 485.771 228.67 485.801 228.51L486.181 228.98L485.7 228.2C486.22 228.4 485.951 227.73 486.511 228.12C486.511 228.12 487.051 228.02 486.551 227.45C486.841 227.82 487.131 227.76 487.491 228.17C487.171 227.74 487.07 227.21 487.57 227.48L487.601 227.54C488.351 227.54 487.571 226.41 488.371 226.52C487.921 226.16 488.31 226.19 487.71 225.75C487.44 224.94 489.391 226.09 487.751 224.5C487.791 224.27 488.321 224.66 488.471 224.65L488.531 224.76C488.631 224.35 488.691 224.24 488.911 224.06C488.831 223.81 488.021 223.12 488.381 223.08C488.651 223.41 488.661 223.28 488.721 223.21C488.731 223.3 488.841 223.41 489.141 223.49C489.051 223.39 489.011 223.32 488.971 223.26C489.001 223.28 489.021 223.29 489.051 223.32C489.041 223.1 488.92 223.04 488.82 223.06C488.77 223.02 488.701 222.97 488.601 222.91C489.131 223.13 488.86 222.53 489.44 222.97C489.61 222.49 489.231 221.76 489.261 221.27C489.581 221.47 489.78 221.74 489.82 221.92L489.891 221.62C490.311 221.95 490.031 221.94 490.061 222.07C490.951 222.34 489.811 221 490.681 221.17L490.391 220.85L490.46 220.87C490.28 220.73 490.09 220.48 490.07 220.39C490.47 220.63 490.921 221.05 491.021 220.88C491.471 221.03 491.111 220.39 491.031 220.08C490.901 220.12 490.721 219.93 490.611 219.8C490.661 219.71 491.06 219.95 490.95 219.77L491.46 220.14C490.96 219.81 491.101 219.55 490.911 219.37C491.321 219.6 491.141 219.73 491.411 219.96C491.601 219.61 491.5 219.78 491.69 219.43C491.43 218.98 491.191 219.11 490.801 218.7C490.801 218.48 490.561 218.08 490.991 218.13L490.501 217.85C490.351 217.32 490.521 217.2 491.111 217.34C489.991 214.99 488.761 214.02 487.861 213.6C486.951 213.18 486.34 213.32 486.34 213.32C484.8 213.35 485.841 214.68 485.521 215.85L485.501 215.84Z" fill="#20BB65"/>
<path d="M453.181 255.09L452.98 254.94C453.04 255.03 453.111 255.09 453.181 255.09Z" fill="#20BB65"/>
<path d="M436.641 265.81C436.641 265.81 436.641 265.84 436.651 265.86C436.651 265.84 436.651 265.82 436.641 265.81Z" fill="#20BB65"/>
<path d="M446.281 250.32C446.281 250.32 446.271 250.28 446.261 250.26V250.32H446.281Z" fill="#20BB65"/>
<path d="M449.81 248.65C448.82 249 447.98 248.26 447.37 249.22C446.91 249.43 446.61 249.94 446.28 250.32C446.56 251.15 445.76 250.69 445.92 251.43L445.56 251.09C445.62 251.34 445.62 251.54 445.39 251.38L445.32 251.26C445.41 251.64 445.15 251.55 445.2 251.74L445.13 251.62L445.02 251.77L444.93 251.59C444.93 252.05 444.74 252.21 444.46 252.19L444.8 252.66C444.04 252.38 444.56 253.49 443.77 253.08L443.7 252.96C444.08 254.54 442.4 252.56 442.73 254.09C442.69 253.9 442.54 253.86 442.47 253.73C442.34 254.01 442.16 254.23 442.77 255.19C442.6 255.28 442.45 254.97 442.19 254.62C442.46 255.04 442.44 255.3 442.33 255.41L442.28 255.21L442.01 255.58L442.59 256.33C442.25 256.22 441.92 255.39 441.86 255.7L442.28 256.36C441.93 256.4 441.14 255.5 440.58 255.18C439.35 255.57 439.26 257.97 437.54 257.42L437.19 256.95C436.72 256.23 437.58 258.2 437.13 257.55L437.22 257.95C437.11 257.84 436.95 257.74 436.91 257.54C436.79 257.58 436.86 257.7 436.91 257.97L436.52 257.59C435.88 257.5 436.06 258.59 435.5 258.68C434.4 258.07 433.91 259.53 433.62 260.38C433.44 261.97 430.76 259.59 430.66 261.34C430.57 261.25 430.64 261.53 430.69 261.61L429.85 261.95C429.85 261.95 428.87 262.41 428.68 263.45C428.49 264.48 429.08 266.1 432.29 268.36L432.36 268.53C433.02 268.68 433.35 268.61 433.18 267.62C433.8 268.59 433.6 267.52 433.88 267.78L433.92 267.87C433.74 266.95 434.84 268.19 434.69 267.36C434.73 267.44 434.88 267.72 434.83 267.77C434.94 267.54 435.07 267.17 435.42 267.74C435.78 267.33 436.55 267.23 436.29 266.14L436.36 266.31C436.15 265.59 436.51 266.09 436.51 265.67C436.56 265.74 436.6 265.77 436.62 265.8C436.43 265.08 437.07 265.4 437.06 265.05L437.3 265.43L437.6 265.13H437.42C436.84 264.05 438.08 265.63 437.92 264.8C438.24 264.79 437.09 262.33 437.64 262.7C437.46 262.14 438.02 263.56 437.96 263.08C438.3 263.62 438.09 263.47 438.39 263.88C438.4 263.52 439.01 264.27 439 263.77L439.27 264.19C439.07 263.25 440.13 264.43 439.86 263.58C439.93 263.06 440.82 264.72 440.61 263.71L441.08 264.21C441.26 264.22 440.74 263.45 441.05 263.64C441.26 264.01 441.4 263.82 441.53 264.21C442.2 264.58 441.68 263.01 442.69 263.7C442.34 262.94 442.81 263.23 442.55 262.66C442.75 262.96 443 262.45 443.18 263.26C443.19 263.33 443.15 263.34 443.08 263.22L443.31 263.65C444.04 264.28 443.47 262.95 443.78 262.92C443.62 262.83 443.55 262.92 443.44 262.6L443.69 262.52L443.86 262.9H444.31L443.99 262.49C444.29 262.61 444.81 263.31 444.6 262.58C444.47 262.19 444.08 262.1 444.16 261.85C444.56 262.01 445.16 262.25 445.51 262.2C445.18 261.73 445.26 261.7 445.27 261.56L445.55 261.97C445.46 261.2 446.25 262.82 446.23 262.18L446.39 262.49L445.9 261.57C445.62 260.58 446.6 262.35 446.15 261.03C446.08 261.17 445.5 260.14 445.76 260.23L445.99 260.66C446.01 260.53 445.93 260.34 446.03 260.39C446.13 260.64 446.39 260.99 446.45 260.85L446.7 261.4L446.43 260.52C446.88 260.85 446.78 260.13 447.22 260.66C447.22 260.66 447.75 260.71 447.43 260.03C447.61 260.46 447.9 260.48 448.14 260.97C447.95 260.47 447.98 259.94 448.4 260.33V260.4C449.13 260.61 448.67 259.3 449.41 259.64C449.07 259.17 449.44 259.31 448.98 258.72C448.94 257.87 450.49 259.52 449.35 257.53C449.45 257.32 449.85 257.84 450 257.88L450.03 258.01C450.24 257.64 450.32 257.56 450.58 257.45C450.58 257.19 449.99 256.3 450.34 256.37C450.51 256.76 450.55 256.64 450.63 256.59C450.62 256.68 450.69 256.82 450.95 256.98C450.89 256.86 450.87 256.78 450.85 256.71C450.87 256.74 450.89 256.76 450.91 256.79C450.95 256.58 450.86 256.49 450.77 256.48C450.74 256.42 450.69 256.36 450.6 256.28C451.04 256.64 450.95 255.99 451.38 256.58C451.67 256.18 451.53 255.37 451.69 254.92C451.94 255.2 452.05 255.53 452.04 255.71L452.19 255.44C452.49 255.88 452.23 255.78 452.22 255.92C452.99 256.45 452.29 254.82 453.06 255.25L452.88 254.86L452.94 254.9C452.81 254.72 452.71 254.42 452.71 254.33C453.02 254.68 453.32 255.22 453.46 255.08C453.84 255.36 453.68 254.65 453.7 254.33C453.57 254.33 453.45 254.1 453.39 253.93C453.46 253.86 453.77 254.21 453.72 254L454.09 254.51C453.72 254.05 453.92 253.84 453.81 253.61C454.12 253.96 453.92 254.02 454.1 254.33C454.38 254.06 454.24 254.19 454.52 253.93C454.41 253.42 454.15 253.47 453.91 252.96C453.99 252.76 453.87 252.3 454.26 252.49L453.88 252.07C453.9 251.52 454.1 251.46 454.62 251.78C454.31 249.2 453.49 247.87 452.77 247.17C452.05 246.48 451.41 246.42 451.41 246.42C449.91 245.98 450.45 247.59 449.76 248.61L449.81 248.65Z" fill="#20BB65"/>
<path d="M409.301 279.99L409.131 279.81C409.181 279.91 409.231 279.98 409.301 279.99Z" fill="#20BB65"/>
<path d="M407.131 273.05C406.091 273.22 405.391 272.34 404.621 273.18C404.131 273.31 403.741 273.75 403.351 274.07C403.481 274.94 402.771 274.34 402.801 275.1L402.511 274.71C402.521 274.97 402.491 275.17 402.291 274.97L402.241 274.84C402.261 275.23 402.021 275.1 402.031 275.29L401.981 275.16L401.851 275.29L401.801 275.1C401.731 275.55 401.501 275.68 401.231 275.61L401.481 276.13C400.781 275.73 401.101 276.9 400.391 276.37L400.341 276.24C400.441 277.86 399.131 275.62 399.181 277.18C399.181 276.99 399.031 276.92 398.981 276.79C398.811 277.05 398.581 277.23 399.031 278.29C398.851 278.35 398.751 278.02 398.551 277.63C398.751 278.09 398.671 278.34 398.551 278.43V278.23L398.211 278.55L398.651 279.39C398.341 279.23 398.151 278.35 398.041 278.65L398.351 279.37C398.001 279.35 397.371 278.33 396.871 277.91C395.591 278.08 395.091 280.44 393.491 279.61L393.221 279.08C392.881 278.29 393.401 280.38 393.061 279.66L393.081 280.07C392.991 279.94 392.851 279.82 392.841 279.62C392.711 279.64 392.761 279.77 392.771 280.04L392.451 279.6C391.841 279.4 391.831 280.51 391.261 280.51C390.281 279.73 389.551 281.09 389.121 281.87C388.681 283.41 386.431 280.62 386.031 282.33C385.961 282.23 385.981 282.51 386.011 282.6L385.131 282.8C385.131 282.8 384.081 283.1 383.731 284.09C383.381 285.08 383.691 286.77 386.491 289.53L386.531 289.71C387.161 289.96 387.491 289.95 387.491 288.95C387.941 290.01 387.921 288.92 388.161 289.23L388.181 289.32C388.161 288.38 389.031 289.79 389.031 288.94C389.051 289.03 389.161 289.33 389.101 289.37C389.251 289.16 389.43 288.81 389.69 289.44C390.11 289.09 390.891 289.13 390.811 288.01L390.861 288.19C390.781 287.45 391.051 288 391.111 287.58C391.151 287.66 391.18 287.69 391.19 287.73C391.12 286.99 391.701 287.41 391.751 287.07L391.921 287.48L392.261 287.24L392.081 287.21C391.681 286.05 392.641 287.82 392.631 286.97C392.941 287.01 392.221 284.4 392.701 284.85C392.621 284.27 392.931 285.76 392.961 285.28C393.201 285.87 393.021 285.69 393.251 286.14C393.321 285.79 393.791 286.63 393.871 286.14L394.061 286.6C394.021 285.64 394.871 286.98 394.751 286.1C394.911 285.6 395.511 287.39 395.471 286.36L395.851 286.93C396.031 286.98 395.641 286.13 395.921 286.37C396.071 286.77 396.241 286.61 396.301 287.02C396.901 287.5 396.651 285.86 397.521 286.72C397.311 285.92 397.721 286.28 397.561 285.67C397.711 286 398.041 285.54 398.081 286.36C398.081 286.43 398.041 286.43 397.991 286.3L398.141 286.76C398.751 287.51 398.421 286.1 398.731 286.12C398.591 286 398.511 286.08 398.451 285.74L398.711 285.7L398.821 286.1L399.271 286.18L399.031 285.73C399.301 285.9 399.701 286.68 399.621 285.93C399.551 285.52 399.191 285.36 399.311 285.14C399.671 285.36 400.221 285.71 400.581 285.72C400.331 285.2 400.421 285.19 400.451 285.05L400.651 285.51C400.701 284.74 401.191 286.47 401.291 285.83L401.401 286.16L401.081 285.17C400.981 284.14 401.631 286.06 401.421 284.69C401.331 284.82 400.931 283.7 401.171 283.84L401.321 284.3C401.361 284.17 401.321 283.97 401.411 284.04C401.461 284.3 401.661 284.69 401.751 284.57L401.901 285.16L401.791 284.25C402.171 284.65 402.201 283.93 402.541 284.52C402.541 284.52 403.061 284.66 402.851 283.94C402.951 284.4 403.241 284.47 403.391 284.99C403.281 284.47 403.411 283.95 403.751 284.41V284.48C404.421 284.81 404.191 283.44 404.861 283.9C404.611 283.38 404.941 283.58 404.601 282.92C404.711 282.08 405.941 283.97 405.171 281.82C405.301 281.63 405.601 282.21 405.751 282.28V282.41C406.021 282.09 406.111 282.02 406.391 281.96C406.431 281.7 406.021 280.72 406.351 280.86C406.451 281.28 406.511 281.17 406.591 281.13C406.561 281.22 406.611 281.36 406.841 281.57C406.801 281.44 406.791 281.36 406.791 281.29C406.801 281.32 406.821 281.34 406.841 281.38C406.921 281.18 406.841 281.07 406.751 281.05C406.731 280.99 406.691 280.92 406.621 280.82C406.991 281.25 407.021 280.6 407.331 281.25C407.691 280.9 407.691 280.09 407.921 279.67C408.111 279.99 408.171 280.33 408.121 280.51L408.321 280.27C408.541 280.76 408.301 280.62 408.271 280.75C408.931 281.4 408.531 279.68 409.211 280.24L409.111 279.82L409.161 279.87C409.071 279.67 409.021 279.35 409.041 279.26C409.281 279.66 409.491 280.24 409.651 280.13C409.981 280.48 409.951 279.75 410.021 279.43C409.891 279.4 409.811 279.15 409.791 278.98C409.871 278.93 410.121 279.33 410.101 279.11L410.371 279.68C410.091 279.16 410.331 278.99 410.251 278.74C410.501 279.14 410.281 279.17 410.411 279.5C410.731 279.29 410.571 279.39 410.891 279.18C410.871 278.66 410.601 278.66 410.461 278.11C410.571 277.92 410.541 277.45 410.891 277.71L410.591 277.23C410.711 276.69 410.921 276.67 411.371 277.08C411.531 274.48 410.981 273.03 410.391 272.21C409.801 271.4 409.19 271.23 409.19 271.23C407.79 270.53 408.031 272.21 407.161 273.09L407.131 273.05Z" fill="#20BB65"/>
<path d="M361.96 297.3L361.82 297.1C361.85 297.2 361.89 297.29 361.96 297.3Z" fill="#20BB65"/>
<path d="M360.9 290.11C359.84 290.11 359.29 289.14 358.4 289.85C357.89 289.9 357.44 290.28 357 290.53C357 291.41 356.38 290.71 356.3 291.46L356.07 291.02C356.04 291.28 355.97 291.47 355.82 291.24L355.79 291.1C355.75 291.49 355.54 291.32 355.51 291.51L355.48 291.37L355.33 291.47L355.31 291.27C355.17 291.71 354.93 291.79 354.67 291.68L354.83 292.24C354.2 291.73 354.33 292.94 353.72 292.31L353.69 292.17C353.54 293.79 352.59 291.37 352.4 292.92C352.42 292.73 352.3 292.64 352.27 292.5C352.06 292.73 351.81 292.88 352.08 293.98C351.89 294.01 351.84 293.67 351.71 293.25C351.83 293.73 351.72 293.98 351.59 294.04L351.61 293.84L351.24 294.11L351.55 295C351.26 294.79 351.22 293.9 351.06 294.17L351.25 294.93C350.91 294.86 350.45 293.75 350.02 293.26C348.73 293.23 347.87 295.49 346.41 294.41L346.23 293.85C346.01 293.02 346.2 295.16 345.98 294.4L345.94 294.81C345.87 294.67 345.75 294.53 345.78 294.32C345.65 294.32 345.68 294.45 345.65 294.73L345.4 294.24C344.83 293.95 344.64 295.05 344.09 294.96C343.24 294.04 342.31 295.27 341.77 295.98C341.1 297.44 339.3 294.33 338.65 295.96C338.59 295.85 338.57 296.13 338.59 296.23L337.69 296.29C337.69 296.29 336.61 296.42 336.11 297.35C335.61 298.27 335.66 299.99 338 303.14V303.33C338.59 303.68 338.93 303.71 339.08 302.72C339.36 303.84 339.51 302.75 339.7 303.1V303.19C339.83 302.26 340.47 303.78 340.6 302.95C340.6 303.04 340.67 303.35 340.6 303.39C340.78 303.2 341.02 302.89 341.17 303.54C341.64 303.26 342.4 303.42 342.5 302.3L342.52 302.49C342.55 301.74 342.73 302.33 342.86 301.93C342.89 302.01 342.91 302.05 342.92 302.09C342.97 301.35 343.48 301.85 343.57 301.52L343.68 301.95L344.05 301.76L343.88 301.7C343.67 300.49 344.35 302.39 344.46 301.55C344.76 301.64 344.46 298.94 344.86 299.47C344.86 298.88 344.95 300.41 345.05 299.93C345.2 300.55 345.05 300.34 345.21 300.83C345.34 300.49 345.67 301.39 345.82 300.92L345.94 301.4C346.05 300.44 346.68 301.9 346.69 301.01C346.92 300.54 347.24 302.4 347.36 301.37L347.64 302C347.81 302.07 347.56 301.17 347.79 301.45C347.88 301.87 348.07 301.73 348.07 302.15C348.58 302.71 348.59 301.06 349.33 302.04C349.24 301.21 349.6 301.63 349.53 301.01C349.63 301.36 350.02 300.95 349.94 301.78C349.94 301.85 349.89 301.85 349.86 301.71L349.94 302.19C350.43 303.02 350.32 301.58 350.62 301.65C350.5 301.51 350.41 301.58 350.4 301.24H350.67L350.71 301.66L351.14 301.8L350.97 301.32C351.21 301.53 351.48 302.36 351.52 301.6C351.52 301.19 351.19 300.98 351.34 300.77C351.67 301.05 352.16 301.47 352.5 301.54C352.33 300.99 352.42 300.99 352.48 300.85L352.61 301.33C352.77 300.58 352.99 302.36 353.19 301.75L353.24 302.09L353.08 301.06C353.14 300.03 353.49 302.02 353.49 300.63C353.38 300.74 353.16 299.58 353.37 299.75L353.45 300.23C353.51 300.11 353.49 299.91 353.58 299.99C353.59 300.25 353.72 300.68 353.83 300.56L353.89 301.16L353.92 300.24C354.24 300.69 354.38 299.99 354.62 300.63C354.62 300.63 355.11 300.85 355.02 300.1C355.05 300.57 355.32 300.68 355.39 301.22C355.37 300.69 355.57 300.19 355.84 300.7V300.77C356.44 301.2 356.43 299.81 357.01 300.37C356.84 299.82 357.14 300.06 356.9 299.36C357.14 298.54 358.06 300.61 357.63 298.36C357.79 298.19 358 298.82 358.13 298.9L358.11 299.03C358.43 298.75 358.52 298.7 358.81 298.68C358.89 298.43 358.63 297.4 358.94 297.58C358.97 298.01 359.05 297.91 359.14 297.88C359.1 297.96 359.12 298.11 359.31 298.35C359.29 298.22 359.3 298.13 359.31 298.06C359.31 298.09 359.33 298.12 359.34 298.16C359.45 297.98 359.39 297.86 359.31 297.82C359.3 297.76 359.27 297.68 359.22 297.57C359.52 298.05 359.64 297.42 359.85 298.11C360.26 297.82 360.38 297.02 360.68 296.64C360.82 296.99 360.82 297.33 360.75 297.5L360.98 297.29C361.12 297.81 360.91 297.63 360.86 297.76C361.41 298.51 361.28 296.74 361.87 297.41L361.83 296.98L361.87 297.04C361.81 296.82 361.81 296.51 361.85 296.42C362.03 296.85 362.14 297.46 362.31 297.38C362.58 297.77 362.66 297.05 362.78 296.75C362.66 296.7 362.62 296.44 362.62 296.27C362.71 296.23 362.89 296.66 362.9 296.45L363.08 297.05C362.88 296.49 363.14 296.37 363.11 296.11C363.29 296.54 363.08 296.54 363.15 296.88C363.5 296.72 363.33 296.8 363.68 296.64C363.75 296.13 363.48 296.08 363.42 295.52C363.56 295.35 363.61 294.88 363.91 295.19L363.69 294.67C363.89 294.16 364.1 294.16 364.48 294.65C365.05 292.11 364.73 290.58 364.28 289.69C363.83 288.79 363.25 288.53 363.25 288.53C361.97 287.61 361.95 289.32 360.95 290.05L360.9 290.11Z" fill="#20BB65"/>
<path d="M312.531 307.13L312.431 306.91C312.441 307.02 312.471 307.11 312.531 307.13Z" fill="#20BB65"/>
<path d="M292.94 309C292.94 309 292.94 309.03 292.92 309.05C292.93 309.03 292.94 309.01 292.94 309Z" fill="#20BB65"/>
<path d="M308.66 299.69C308.66 299.69 308.66 299.65 308.67 299.63L308.65 299.69H308.66Z" fill="#20BB65"/>
<path d="M312.58 299.87C311.53 299.71 311.14 298.67 310.15 299.23C309.64 299.2 309.14 299.51 308.66 299.69C308.52 300.56 308.02 299.77 307.82 300.51L307.66 300.05C307.59 300.3 307.5 300.48 307.38 300.23V300.09C307.27 300.47 307.09 300.27 307.04 300.46V300.32L306.87 300.4V300.2C306.67 300.61 306.42 300.66 306.18 300.51L306.26 301.09C305.71 300.49 305.66 301.71 305.15 300.99V300.85C304.75 302.43 304.18 299.9 303.75 301.4C303.8 301.21 303.69 301.11 303.68 300.96C303.44 301.15 303.17 301.26 303.27 302.4C303.08 302.4 303.08 302.06 303.02 301.62C303.07 302.12 302.92 302.34 302.78 302.38L302.83 302.18L302.42 302.39L302.59 303.32C302.34 303.07 302.43 302.18 302.23 302.43L302.3 303.21C301.97 303.09 301.68 301.92 301.33 301.38C300.05 301.16 298.87 303.25 297.59 301.97L297.49 301.39C297.4 300.54 297.26 302.68 297.16 301.89L297.05 302.29C297 302.14 296.91 301.98 296.96 301.78C296.83 301.76 296.84 301.9 296.77 302.16L296.6 301.64C296.08 301.26 295.73 302.32 295.19 302.15C294.49 301.11 293.38 302.18 292.74 302.81C291.86 304.15 290.55 300.8 289.66 302.32C289.62 302.2 289.55 302.48 289.56 302.58L288.66 302.5C288.66 302.5 287.57 302.47 286.93 303.3C286.3 304.14 286.08 305.84 287.92 309.31V309.5C288.43 309.93 288.75 310.02 289.05 309.06C289.16 310.21 289.47 309.16 289.6 309.52V309.61C289.85 308.71 290.26 310.31 290.51 309.51C290.51 309.6 290.51 309.92 290.45 309.94C290.66 309.78 290.94 309.51 290.99 310.18C291.49 309.98 292.23 310.24 292.49 309.16V309.35C292.62 308.62 292.71 309.23 292.9 308.85C292.92 308.94 292.93 308.98 292.93 309.02C293.09 308.29 293.52 308.87 293.66 308.56L293.7 309L294.1 308.87L293.94 308.78C293.91 307.55 294.3 309.53 294.54 308.72C294.83 308.86 294.93 306.14 295.25 306.72C295.35 306.14 295.19 307.66 295.37 307.2C295.42 307.84 295.3 307.61 295.39 308.11C295.57 307.79 295.76 308.74 295.98 308.29L296.02 308.79C296.28 307.86 296.67 309.4 296.82 308.52C297.12 308.09 297.15 309.98 297.42 308.98L297.6 309.64C297.76 309.74 297.64 308.81 297.83 309.12C297.85 309.54 298.06 309.44 298 309.85C298.42 310.48 298.68 308.85 299.26 309.93C299.3 309.1 299.59 309.57 299.61 308.95C299.65 309.31 300.11 308.97 299.89 309.77C299.87 309.84 299.83 309.83 299.82 309.69V310.18C300.18 311.08 300.29 309.63 300.58 309.75C300.48 309.6 300.38 309.65 300.42 309.31L300.68 309.35L300.66 309.77L301.06 309.98L300.96 309.48C301.17 309.72 301.31 310.58 301.46 309.84C301.52 309.43 301.22 309.17 301.41 309C301.69 309.32 302.11 309.81 302.44 309.94C302.36 309.37 302.44 309.38 302.52 309.26L302.57 309.76C302.85 309.04 302.79 310.84 303.08 310.26V310.61V309.57C303.29 308.56 303.34 310.58 303.55 309.21C303.42 309.31 303.39 308.12 303.57 308.32V308.8C303.65 308.69 303.67 308.49 303.74 308.58C303.71 308.84 303.78 309.28 303.9 309.18L303.87 309.79L304.04 308.89C304.28 309.38 304.53 308.71 304.67 309.38C304.67 309.38 305.12 309.67 305.14 308.92C305.1 309.39 305.35 309.54 305.34 310.08C305.4 309.55 305.68 309.09 305.86 309.63L305.84 309.69C306.37 310.21 306.57 308.83 307.07 309.48C306.99 308.91 307.25 309.2 307.12 308.47C307.48 307.7 308.08 309.88 308 307.59C308.19 307.45 308.29 308.1 308.41 308.2L308.38 308.33C308.73 308.1 308.84 308.07 309.12 308.09C309.23 307.85 309.14 306.8 309.41 307.02C309.38 307.45 309.47 307.36 309.56 307.35C309.51 307.42 309.51 307.58 309.66 307.85C309.66 307.72 309.68 307.64 309.7 307.57C309.7 307.6 309.71 307.63 309.72 307.67C309.86 307.5 309.82 307.38 309.74 307.33C309.74 307.27 309.72 307.18 309.69 307.07C309.91 307.59 310.13 306.98 310.23 307.7C310.68 307.48 310.92 306.7 311.28 306.38C311.37 306.74 311.32 307.08 311.22 307.24L311.48 307.07C311.54 307.6 311.36 307.4 311.29 307.51C311.72 308.33 311.86 306.57 312.34 307.31L312.37 306.88L312.4 306.95C312.37 306.73 312.42 306.41 312.47 306.34C312.58 306.8 312.6 307.41 312.78 307.36C312.98 307.79 313.18 307.08 313.34 306.81C313.22 306.75 313.23 306.48 313.25 306.31C313.34 306.28 313.45 306.74 313.5 306.53L313.59 307.15C313.48 306.57 313.76 306.48 313.76 306.22C313.87 306.68 313.66 306.64 313.68 306.99C314.05 306.88 313.87 306.94 314.24 306.83C314.38 306.33 314.13 306.24 314.16 305.68C314.32 305.54 314.44 305.08 314.69 305.43L314.55 304.88C314.83 304.41 315.04 304.44 315.33 304.98C316.28 302.56 316.19 301 315.89 300.05C315.58 299.1 315.04 298.75 315.04 298.75C313.92 297.65 313.63 299.33 312.54 299.91L312.58 299.87Z" fill="#20BB65"/>
</svg>
