<svg width="103" height="120" viewBox="0 0 103 120" fill="none" xmlns="http://www.w3.org/2000/svg">
<path d="M82.5896 82.3701C82.8996 81.9501 83.1996 81.5301 83.4996 81.1101C83.5496 81.0401 83.5997 80.9701 83.6497 80.9001C83.6697 80.8701 83.6996 80.8401 83.7196 80.8001C84.1096 80.2501 84.4896 79.7101 84.8696 79.1601C84.9796 79.0001 85.0796 78.8501 85.1796 78.6901C85.4396 78.3101 85.6896 77.9301 85.9496 77.5401C86.1496 77.2501 86.3497 76.9601 86.5397 76.6601C86.6697 76.4701 86.7897 76.2701 86.9097 76.0701C87.1397 75.7101 87.3796 75.3401 87.6096 74.9801C87.9196 74.4801 88.2297 73.9901 88.5397 73.4901C88.7597 73.1301 88.9796 72.7601 89.1996 72.4001C89.4996 71.9001 89.7896 71.4001 90.0796 70.8901C90.2896 70.5301 90.4896 70.1801 90.6896 69.8201C90.9796 69.3001 91.2696 68.7801 91.5496 68.2601C91.7296 67.9201 91.9196 67.5901 92.0996 67.2501C92.1496 67.1501 92.2096 67.0501 92.2596 66.9501C92.4496 66.5901 92.6296 66.2301 92.8096 65.8701C93.0296 65.4301 93.2596 64.9901 93.4796 64.5601C93.5296 64.4701 93.5696 64.3801 93.6196 64.2901C93.8496 63.8301 94.0597 63.3701 94.2797 62.9201C94.4197 62.6201 94.5696 62.3301 94.7096 62.0301C94.7296 61.9801 94.7597 61.9201 94.7897 61.8701C95.1397 61.1101 95.4796 60.3601 95.7996 59.6101C95.7996 59.5901 95.8096 59.5801 95.8196 59.5601C95.8796 59.4201 95.9396 59.2701 95.9996 59.1301C96.2596 58.5201 96.5197 57.9101 96.7697 57.3001C96.7997 57.2301 96.8196 57.1601 96.8496 57.0901C96.9996 56.7201 97.1297 56.3601 97.2797 55.9901C97.4297 55.6001 97.5896 55.2101 97.7396 54.8201C97.7696 54.7301 97.7996 54.6501 97.8296 54.5601C97.9996 54.0901 98.1596 53.6201 98.3296 53.1501C98.4396 52.8201 98.5696 52.4901 98.6796 52.1701C98.6996 52.1001 98.7196 52.0301 98.7496 51.9501C98.9496 51.3501 99.1296 50.7601 99.3196 50.1701C99.3996 49.9101 99.4896 49.6501 99.5696 49.3901C99.5796 49.3501 99.5896 49.3201 99.5996 49.2901C99.8696 48.3801 100.12 47.4901 100.35 46.6001C100.35 46.5801 100.36 46.5601 100.37 46.5401C100.42 46.3501 100.46 46.1601 100.51 45.9601C100.67 45.3001 100.83 44.6501 100.98 44.0001C100.99 43.9401 101.01 43.8701 101.03 43.8101C101.09 43.5401 101.13 43.2701 101.19 43.0001C101.29 42.5001 101.39 42.0001 101.48 41.5001C101.5 41.4101 101.52 41.3101 101.53 41.2201C101.58 40.9301 101.62 40.6501 101.66 40.3601C101.72 39.9501 101.79 39.5401 101.85 39.1401C101.86 39.0401 101.88 38.9401 101.9 38.8401C101.94 38.5301 101.97 38.2301 102 37.9201C102.04 37.5801 102.08 37.2301 102.12 36.8901C102.12 36.8001 102.14 36.7201 102.15 36.6301C102.18 36.2901 102.2 35.9501 102.22 35.6101C102.24 35.3101 102.27 35.0101 102.28 34.7201C102.28 34.6601 102.28 34.6001 102.29 34.5401C102.31 34.0401 102.32 33.5501 102.33 33.0601C102.33 32.9301 102.33 32.8001 102.34 32.6701C102.34 32.6601 102.34 32.6401 102.34 32.6301C102.34 32.0101 102.34 31.3901 102.31 30.7801C102.31 30.7501 102.31 30.7101 102.31 30.6801C102.31 30.5101 102.29 30.3501 102.28 30.1901C102.26 29.8101 102.24 29.4301 102.21 29.0501C102.21 28.9601 102.19 28.8701 102.18 28.7801C102.16 28.5601 102.13 28.3401 102.11 28.1201C102.08 27.8801 102.06 27.6301 102.03 27.3901C102.01 27.2301 101.98 27.0901 101.96 26.9301C101.93 26.7101 101.89 26.4901 101.85 26.2801C101.82 26.1201 101.8 25.9601 101.77 25.8101C101.73 25.5801 101.67 25.3601 101.62 25.1401C101.58 24.9401 101.54 24.7401 101.49 24.5401C101.47 24.4501 101.45 24.3701 101.43 24.2801C101.35 23.9401 101.25 23.6001 101.15 23.2701C101.11 23.1401 101.08 23.0101 101.04 22.8801C101.04 22.8501 101.03 22.8301 101.02 22.8001C100.87 22.3101 100.71 21.8401 100.53 21.3701C100.53 21.3501 100.51 21.3201 100.5 21.3001C100.45 21.1701 100.39 21.0401 100.34 20.9101C100.21 20.6001 100.09 20.2801 99.9496 19.9801C99.9196 19.9201 99.8896 19.8601 99.8596 19.8001C99.7696 19.6101 99.6696 19.4301 99.5796 19.2401C99.4796 19.0401 99.3797 18.8301 99.2697 18.6301C99.2197 18.5401 99.1596 18.4601 99.1096 18.3701C98.9896 18.1701 98.8696 17.9801 98.7496 17.7801C98.6496 17.6301 98.5696 17.4701 98.4696 17.3201C98.3996 17.2201 98.3296 17.1301 98.2596 17.0301C98.1096 16.8101 97.9497 16.6001 97.7897 16.3901C97.6897 16.2701 97.6096 16.1301 97.5096 16.0101C97.4296 15.9201 97.3497 15.8301 97.2697 15.7401C97.0797 15.5201 96.8896 15.3101 96.6896 15.1001C96.5796 14.9901 96.4896 14.8601 96.3796 14.7501C96.3096 14.6801 96.2297 14.6201 96.1497 14.5501C95.8797 14.2901 95.5996 14.0401 95.3096 13.8001C95.1896 13.7001 95.0796 13.5801 94.9596 13.4901C94.8396 13.4001 94.7296 13.3101 94.6096 13.2201L77.5297 0.370117C77.7697 0.550117 77.9996 0.760114 78.2296 0.960114C78.5196 1.20011 78.7996 1.45011 79.0696 1.71011C79.2496 1.89011 79.4296 2.07013 79.6096 2.26013C79.8096 2.47013 79.9996 2.68013 80.1896 2.91013C80.3696 3.12013 80.5396 3.34011 80.7096 3.55011C80.8696 3.76011 81.0296 3.97012 81.1796 4.19012C81.3496 4.43012 81.5096 4.69012 81.6696 4.94012C81.7896 5.13012 81.9097 5.33012 82.0297 5.53012C82.1897 5.81012 82.3496 6.11012 82.4996 6.40012C82.5896 6.59012 82.6897 6.77011 82.7797 6.96011C82.9497 7.32011 83.1096 7.69013 83.2596 8.07013C83.3096 8.20013 83.3696 8.33011 83.4196 8.46011C83.6196 8.97011 83.7996 9.50012 83.9596 10.0301C83.9996 10.1601 84.0296 10.2901 84.0696 10.4201C84.1896 10.8401 84.2997 11.2601 84.3997 11.6901C84.4497 11.8901 84.4897 12.0901 84.5297 12.2901C84.6097 12.6701 84.6796 13.0501 84.7496 13.4301C84.7896 13.6501 84.8196 13.8701 84.8596 14.0901C84.9196 14.4801 84.9696 14.8801 85.0096 15.2801C85.0296 15.5001 85.0596 15.7201 85.0796 15.9401C85.1196 16.4001 85.1496 16.8701 85.1796 17.3501C85.1796 17.5101 85.1996 17.6701 85.2096 17.8401C85.2396 18.4901 85.2496 19.1601 85.2396 19.8301C85.2396 19.9601 85.2396 20.1001 85.2296 20.2301C85.2296 20.7801 85.2096 21.3301 85.1796 21.8901C85.1596 22.1801 85.1396 22.4801 85.1196 22.7801C85.0896 23.2001 85.0597 23.6301 85.0197 24.0601C84.9897 24.4001 84.9397 24.7501 84.8997 25.0901C84.8497 25.4901 84.8096 25.9001 84.7496 26.3101C84.6896 26.7101 84.6296 27.1201 84.5596 27.5301C84.4996 27.9101 84.4396 28.2901 84.3696 28.6701C84.2796 29.1701 84.1796 29.6701 84.0796 30.1701C84.0096 30.5001 83.9496 30.8401 83.8796 31.1801C83.7396 31.8301 83.5797 32.4901 83.4097 33.1501C83.3597 33.3601 83.3096 33.5701 83.2596 33.7801C83.0296 34.6701 82.7796 35.5701 82.5096 36.4701C82.4196 36.7601 82.3196 37.0601 82.2296 37.3501C82.0496 37.9401 81.8597 38.5301 81.6597 39.1301C81.5297 39.5301 81.3796 39.9301 81.2396 40.3301C81.0796 40.8001 80.9196 41.2601 80.7396 41.7401C80.5596 42.2201 80.3796 42.7001 80.1896 43.1701C80.0496 43.5401 79.9096 43.9001 79.7596 44.2701C79.4896 44.9501 79.1997 45.6301 78.9097 46.3101C78.8497 46.4501 78.7896 46.6001 78.7296 46.7401C78.3696 47.5601 77.9996 48.3801 77.6196 49.2101C77.4796 49.5101 77.3396 49.8001 77.1896 50.1001C76.9296 50.6501 76.6696 51.2001 76.3896 51.7501C76.1696 52.1901 75.9396 52.6301 75.7196 53.0601C75.4796 53.5201 75.2496 53.9801 75.0096 54.4401C74.8296 54.7701 74.6496 55.1101 74.4596 55.4501C74.1796 55.9701 73.8896 56.4901 73.5996 57.0101C73.3996 57.3701 73.1896 57.7201 72.9896 58.0801C72.6996 58.5801 72.4096 59.0801 72.1096 59.5901C71.8896 59.9501 71.6696 60.3201 71.4496 60.6801C71.1496 61.1801 70.8397 61.6701 70.5197 62.1701C70.2896 62.5301 70.0596 62.9001 69.8196 63.2601C69.4996 63.7501 69.1796 64.2401 68.8596 64.7201C68.6096 65.1001 68.3496 65.4801 68.0896 65.8701C67.5896 66.6101 67.0796 67.3401 66.5596 68.0701C66.5096 68.1401 66.4597 68.2101 66.4097 68.2801C65.8097 69.1201 65.1996 69.9501 64.5696 70.7901C63.9396 71.6301 63.3296 72.4201 62.6996 73.2101C62.6196 73.3101 62.5396 73.4101 62.4696 73.5101C61.8796 74.2501 61.2796 74.9901 60.6796 75.7101C60.5796 75.8401 60.4696 75.9601 60.3596 76.0901C59.7596 76.8001 59.1596 77.5001 58.5596 78.2001C58.4496 78.3301 58.3296 78.4601 58.2196 78.5801C57.5996 79.2801 56.9896 79.9601 56.3596 80.6401C56.3296 80.6701 56.3097 80.7001 56.2797 80.7301C55.6597 81.4001 55.0297 82.0501 54.4097 82.7001C54.2297 82.8901 54.0496 83.0701 53.8696 83.2601C53.3396 83.8001 52.7997 84.3301 52.2697 84.8601C52.1397 84.9801 52.0196 85.1101 51.8896 85.2301C51.2296 85.8701 50.5796 86.4901 49.9196 87.1001C49.7496 87.2601 49.5697 87.4201 49.3997 87.5801C48.8997 88.0301 48.4097 88.4801 47.9097 88.9201C47.6797 89.1301 47.4396 89.3301 47.2096 89.5301C46.7496 89.9301 46.2896 90.3201 45.8296 90.7001C45.5996 90.8901 45.3696 91.0901 45.1396 91.2801C44.6196 91.7001 44.0996 92.1201 43.5796 92.5301C43.4096 92.6601 43.2396 92.8001 43.0696 92.9301C42.3796 93.4601 41.6896 93.9801 41.0096 94.4901C40.8296 94.6201 40.6596 94.7401 40.4896 94.8601C39.9696 95.2401 39.4496 95.6101 38.9296 95.9701C38.6696 96.1501 38.3996 96.3201 38.1396 96.5001C37.7096 96.7901 37.2696 97.0801 36.8396 97.3601C36.5296 97.5601 36.2097 97.7601 35.8997 97.9501C35.4997 98.2001 35.0996 98.4501 34.7096 98.6801C34.3796 98.8801 34.0496 99.0701 33.7196 99.2601C33.3396 99.4801 32.9696 99.6901 32.5896 99.9001C32.1996 100.11 31.8196 100.32 31.4296 100.53C31.0896 100.71 30.7397 100.89 30.3997 101.07C29.9497 101.3 29.4996 101.52 29.0496 101.73C28.7396 101.88 28.4296 102.03 28.1196 102.17C27.5096 102.45 26.8997 102.71 26.2897 102.97C26.0897 103.05 25.8896 103.14 25.6896 103.22C25.5796 103.27 25.4696 103.31 25.3596 103.35C24.8296 103.56 24.2997 103.76 23.7797 103.94C23.6097 104 23.4497 104.06 23.2797 104.12C22.8597 104.27 22.4397 104.4 22.0197 104.53C21.7597 104.61 21.4896 104.7 21.2296 104.78C20.7996 104.9 20.3796 105.01 19.9596 105.12C19.7296 105.18 19.4997 105.24 19.2797 105.3C18.6997 105.44 18.1197 105.56 17.5397 105.67C17.3997 105.7 17.2596 105.72 17.1196 105.74C16.6396 105.83 16.1596 105.9 15.6796 105.96C15.5596 105.98 15.4396 105.99 15.3196 106.01C14.7596 106.08 14.1997 106.13 13.6497 106.16C13.5297 106.16 13.4097 106.17 13.2897 106.18C12.8297 106.2 12.3796 106.21 11.9296 106.21C11.7996 106.21 11.6796 106.21 11.5496 106.21C11.0196 106.21 10.4896 106.17 9.97961 106.13C9.87961 106.13 9.77957 106.11 9.67957 106.1C9.23957 106.06 8.80965 106 8.38965 105.93C8.25965 105.91 8.13964 105.89 8.00964 105.87C7.50964 105.78 7.01967 105.68 6.53967 105.55C6.46967 105.53 6.38958 105.51 6.31958 105.49C5.89958 105.38 5.4896 105.25 5.0896 105.11C4.9696 105.07 4.84961 105.03 4.72961 104.98C4.26961 104.81 3.81964 104.62 3.37964 104.42C3.33964 104.4 3.29964 104.38 3.25964 104.36C2.85964 104.17 2.46959 103.95 2.07959 103.73C1.96959 103.67 1.85963 103.6 1.74963 103.53C1.33963 103.27 0.929673 103.01 0.539673 102.71L17.6196 115.56C18.0096 115.86 18.4196 116.12 18.8396 116.38C18.9496 116.45 19.0596 116.51 19.1696 116.58C19.5496 116.81 19.9496 117.02 20.3496 117.22C20.3896 117.24 20.4296 117.26 20.4696 117.28C20.9096 117.49 21.3596 117.67 21.8196 117.84C21.9396 117.88 22.0596 117.93 22.1696 117.97C22.5696 118.11 22.9797 118.24 23.3997 118.35C23.4697 118.37 23.5396 118.39 23.6196 118.41C24.0996 118.53 24.5896 118.64 25.0896 118.73C25.2096 118.75 25.3396 118.77 25.4596 118.79C25.8896 118.86 26.3196 118.91 26.7496 118.96C26.8496 118.96 26.9496 118.98 27.0496 118.99C27.5696 119.03 28.0896 119.06 28.6296 119.07C28.7496 119.07 28.8796 119.07 29.0096 119.07C29.4596 119.07 29.9196 119.07 30.3796 119.04C30.4996 119.04 30.6196 119.04 30.7396 119.02C31.2896 118.99 31.8497 118.94 32.4097 118.87C32.5297 118.86 32.6497 118.84 32.7697 118.82C33.2497 118.76 33.7296 118.68 34.2096 118.6C34.3496 118.58 34.4896 118.55 34.6296 118.53C35.1596 118.43 35.6996 118.32 36.2496 118.19C36.2896 118.19 36.3296 118.17 36.3696 118.16C36.5996 118.11 36.8296 118.04 37.0496 117.98C37.4696 117.87 37.8896 117.76 38.3196 117.64C38.5796 117.56 38.8496 117.48 39.1096 117.39C39.3996 117.3 39.6796 117.22 39.9696 117.12C40.0996 117.08 40.2296 117.03 40.3596 116.98C40.5296 116.92 40.6896 116.86 40.8596 116.8C41.3796 116.61 41.9096 116.42 42.4396 116.21C42.5496 116.17 42.6597 116.13 42.7697 116.08C42.8097 116.06 42.8497 116.05 42.8997 116.03C43.0597 115.97 43.2096 115.89 43.3696 115.82C43.9796 115.57 44.5896 115.3 45.1996 115.02C45.2996 114.98 45.3896 114.94 45.4896 114.89C45.6996 114.79 45.9196 114.68 46.1296 114.58C46.5796 114.36 47.0296 114.15 47.4796 113.92C47.6196 113.85 47.7597 113.79 47.8997 113.71C48.0997 113.6 48.3097 113.48 48.5197 113.38C48.9097 113.18 49.2896 112.97 49.6796 112.75C49.8396 112.66 49.9997 112.58 50.1597 112.49C50.3797 112.37 50.5896 112.23 50.8096 112.11C51.1396 111.92 51.4696 111.73 51.7996 111.53C51.9496 111.44 52.1096 111.35 52.2596 111.26C52.4996 111.11 52.7496 110.95 52.9896 110.8C53.2996 110.6 53.6196 110.41 53.9296 110.21C54.0596 110.13 54.1896 110.05 54.3096 109.97C54.6196 109.77 54.9196 109.56 55.2296 109.35C55.4896 109.17 55.7497 109 56.0197 108.82C56.0997 108.76 56.1897 108.71 56.2697 108.65C56.7097 108.35 57.1496 108.03 57.5896 107.71C57.7696 107.58 57.9396 107.46 58.1096 107.34C58.1396 107.32 58.1696 107.3 58.1996 107.28C58.8196 106.82 59.4496 106.35 60.0696 105.87C60.1096 105.84 60.1396 105.81 60.1796 105.78C60.3496 105.65 60.5196 105.51 60.6896 105.38C61.0996 105.06 61.5096 104.74 61.9196 104.41C62.0296 104.32 62.1396 104.22 62.2496 104.13C62.4796 103.94 62.7096 103.75 62.9396 103.55C63.1996 103.33 63.4596 103.12 63.7196 102.9C63.9196 102.73 64.1196 102.55 64.3196 102.37C64.5496 102.17 64.7896 101.96 65.0197 101.76C65.1697 101.62 65.3296 101.49 65.4796 101.36C65.8196 101.05 66.1696 100.74 66.5096 100.43C66.6796 100.27 66.8597 100.11 67.0297 99.9501C67.0897 99.9001 67.1496 99.8501 67.1996 99.7901C67.7596 99.2701 68.3096 98.7501 68.8696 98.2101C68.9096 98.1701 68.9596 98.1201 68.9996 98.0801C69.1296 97.9601 69.2496 97.8301 69.3796 97.7101C69.7396 97.3601 70.0996 97.0101 70.4596 96.6501C70.6396 96.4701 70.8096 96.2901 70.9796 96.1101C71.1596 95.9301 71.3397 95.7401 71.5197 95.5501C71.6797 95.3901 71.8296 95.2301 71.9896 95.0701C72.4496 94.5901 72.9096 94.1001 73.3696 93.6101C73.3696 93.6101 73.3897 93.5901 73.3997 93.5801C73.4297 93.5501 73.4496 93.5201 73.4796 93.4901C73.8996 93.0301 74.3196 92.5701 74.7396 92.1101C74.9396 91.8901 75.1396 91.6601 75.3396 91.4401C75.4496 91.3101 75.5696 91.1901 75.6796 91.0601C75.7796 90.9501 75.8796 90.8401 75.9696 90.7301C76.3596 90.2801 76.7496 89.8301 77.1396 89.3701C77.2496 89.2301 77.3696 89.1001 77.4796 88.9601C77.5896 88.8301 77.6896 88.7101 77.7996 88.5801C77.9696 88.3801 78.1396 88.1801 78.2996 87.9801C78.6596 87.5401 79.0196 87.1001 79.3796 86.6501C79.4496 86.5601 79.5196 86.4701 79.5896 86.3801C79.6696 86.2801 79.7496 86.1801 79.8196 86.0801C80.0296 85.8201 80.2296 85.5601 80.4296 85.3001C80.7796 84.8501 81.1296 84.3901 81.4796 83.9401C81.5496 83.8501 81.6196 83.7501 81.6896 83.6601C81.9996 83.2501 82.3096 82.8301 82.6096 82.4201L82.5896 82.3701Z" fill="#FFAA00"/>
</svg>
