<svg width="84" height="106" viewBox="0 0 84 106" fill="none" xmlns="http://www.w3.org/2000/svg">
<path d="M6.97959 105.32C5.85959 104.21 4.87955 102.97 4.05955 101.62C3.27955 100.25 2.59962 98.8203 2.12962 97.3103C1.12962 94.3103 0.749648 91.1403 0.659648 87.9803C0.569648 81.6503 1.83955 75.3803 3.67955 69.3603C7.47955 57.3103 13.6796 46.1203 21.2196 36.0203C28.8496 25.9903 37.8995 16.9403 48.4295 9.96032C53.7095 6.53032 59.3896 3.58033 65.4996 1.94033C68.5496 1.16033 71.7096 0.660318 74.8696 0.800318C76.4496 0.850318 78.0097 1.11032 79.5396 1.49032C81.0596 1.92032 82.5196 2.53033 83.8896 3.31033C82.5096 2.55033 81.0396 1.97034 79.5196 1.57034C77.9896 1.22034 76.4296 0.990331 74.8596 0.970331C71.7196 0.880331 68.5996 1.43032 65.5796 2.27032C59.5296 3.95032 53.8995 6.91034 48.6695 10.3503C38.2295 17.3503 29.2796 26.4103 21.7596 36.4403C14.1996 46.4403 7.95959 57.5503 4.09959 69.5103C2.22959 75.4903 0.939594 81.7103 0.979594 87.9903C1.00959 91.1203 1.32963 94.2703 2.26963 97.2703C2.71963 98.7803 3.3696 100.21 4.1096 101.59C4.8996 102.95 5.85957 104.2 6.95957 105.33L6.97959 105.32Z" fill="#EDB400"/>
</svg>
